<?xml version="1.0" encoding="utf-8"?>
<!-- Generator: Adobe Illustrator 23.0.1, SVG Export Plug-In . SVG Version: 6.00 Build 0)  -->
<!DOCTYPE svg PUBLIC "-//W3C//DTD SVG 1.1//EN" "http://www.w3.org/Graphics/SVG/1.1/DTD/svg11.dtd" [
	<!ENTITY ns_extend "http://ns.adobe.com/Extensibility/1.0/">
	<!ENTITY ns_ai "http://ns.adobe.com/AdobeIllustrator/10.0/">
	<!ENTITY ns_graphs "http://ns.adobe.com/Graphs/1.0/">
	<!ENTITY ns_vars "http://ns.adobe.com/Variables/1.0/">
	<!ENTITY ns_imrep "http://ns.adobe.com/ImageReplacement/1.0/">
	<!ENTITY ns_sfw "http://ns.adobe.com/SaveForWeb/1.0/">
	<!ENTITY ns_custom "http://ns.adobe.com/GenericCustomNamespace/1.0/">
	<!ENTITY ns_adobe_xpath "http://ns.adobe.com/XPath/1.0/">
]>
<svg version="1.1" id="Layer_1" xmlns:x="&ns_extend;" xmlns:i="&ns_ai;" xmlns:graph="&ns_graphs;"
	 xmlns="http://www.w3.org/2000/svg" xmlns:xlink="http://www.w3.org/1999/xlink" x="0px" y="0px" viewBox="0 0 700 700"
	 style="enable-background:new 0 0 700 700;" xml:space="preserve">
<style type="text/css">
	.st0{fill:#FDB813;}
	.st1{fill:#FBF8C8;}
</style>
<metadata>
	<sfw  xmlns="&ns_sfw;">
		<slices></slices>
		<sliceSourceBounds  bottomLeftOrigin="true" height="643.5" width="670.7" x="-77.9" y="-570.3"></sliceSourceBounds>
	</sfw>
</metadata>
<g>
	<g>
		<path class="st0" d="M649.6,359.7c0.2,5.2-1.1,11.2-4.4,18.2c-9.3,19.6-31.3,32.3-37.1,53.9c-3.5,13.2,3.4,26.8,3.4,40.6
			c0,14.9-6.1,27.3-13.4,40.2c-15.4,27-41.5,23.5-62.1,44.1c-18.2,18.2-19.2,59.3-41.6,72.2c-17.9,10.4-43.1,0.2-63,2.6
			c-32.4,3.9-51.2,25.4-79.8,36.2c-27.6,10.4-39.5-13.9-60.3-25.6c-41.7-23.4-100.3,17.5-124.1-36.4c-11.4-25.8-25.9-45.3-49-61.5
			c-17-11.9-53-22.5-50-49.2c0.7-6.3,3.2-12.3,5-18.5c15.1-52.9-66.2-95.8-31.4-147.8c6.3-9.5,16.5-15.5,24.7-23.4
			c23.3-22.4,0.8-51.3,1.1-77.6c0.4-29.3,23-42.8,48.9-48.6c47.4-10.7,36.8-62,69.9-84c27.3-18.1,52.2,2.8,80.4-4.8
			c28.5-7.6,49.7-28.3,80.7-29.7c20.2-0.9,35.8,12.1,53.6,20.7c23.9,11.5,39.4,2.9,63.3,5.9c16.2,2,37.6,11.8,47.4,25
			c11.1,15,10.2,36.3,24.1,50.3c18.4,18.4,51.1,26.6,64.9,50.4c19.8,33.9-8,77.1,22.5,109.1C635.9,335.4,648.9,344.7,649.6,359.7z"
			/>
		<path class="st0" d="M435,69c5.4,0,10.7-0.3,16.1-0.7c3.4-0.2,7-0.7,9.5-3c2-2,2.8-4.9,3.1-7.7c1.3-14.2-9.7-28.4-23.8-30.7
			c-12.5-2-29.8,7.4-33.1,20.5C402.4,64.6,421.7,69.1,435,69z"/>
		<path class="st0" d="M630.1,297.8c8.4,9,22.2,12.2,29.3,22.3c5.1,7.2,7,17.8,15.2,20.7c8,2.9,16.9-4.8,18-13.2
			c1.2-8.5-3.2-16.7-8.4-23.5c-5.2-6.8-11.5-12.8-15.3-20.4c-4-7.9-5-17-8.6-25.1c-3.5-8.1-10.9-15.8-19.8-15.1
			C616.9,245.5,618.2,285.1,630.1,297.8z"/>
		<path class="st1" d="M565.1,493c-5.4,8.2-12.7,16.1-13.3,25.9c-0.1,0.9,0,1.8,0.4,2.5c0.4,0.8,1.3,1.2,2.1,1.6
			c7.6,3,15.5-3.4,20.3-10c6.8-9.4,11.5-20.2,13.8-31.5c1.1-5.2,1.6-10.8-0.1-15.9c-1.7-5.1-6.2-9.5-11.6-9.7
			c-12.6-0.5-6.5,9.4-6.2,15C570.9,479.3,569.9,485.7,565.1,493z"/>
		<path class="st0" d="M50,296.9c-2.2,1.3-4.6,2.3-7.1,2.2C36.3,299,32,292,31,285.5c-1-6.5,0.2-13.2-1.5-19.6
			c-2.4-9.1-10.3-18-6.3-26.5c9.3-19.6,26.8,2.5,31,11.8C61.1,266.4,68.1,286,50,296.9z"/>
	</g>
	<path class="st0" d="M578.8,552c6.3,1.3,12.5,4.6,15.7,10.3c4.8,8.7,0.6,20.1-6.8,26.7c-4.1,3.7-9.1,6.3-12.8,10.4
		c-4.6,4.9-6.9,11.4-9.1,17.7c-2.2,6.3-4.4,12.8-8.8,17.9c-4.4,5.1-11.5,8.4-17.9,6.3c-4.3-1.4-7.6-5-9.7-9c-3.8-7.3-4.1-16-2.4-24
		c1.7-8,5.1-15.6,8.6-23C544.1,567,554.6,546.8,578.8,552z"/>
</g>
</svg>
