<?xml version="1.0" encoding="utf-8"?>
<!-- Generator: Adobe Illustrator 23.0.1, SVG Export Plug-In . SVG Version: 6.00 Build 0)  -->
<!DOCTYPE svg PUBLIC "-//W3C//DTD SVG 1.1//EN" "http://www.w3.org/Graphics/SVG/1.1/DTD/svg11.dtd" [
	<!ENTITY ns_extend "http://ns.adobe.com/Extensibility/1.0/">
	<!ENTITY ns_ai "http://ns.adobe.com/AdobeIllustrator/10.0/">
	<!ENTITY ns_graphs "http://ns.adobe.com/Graphs/1.0/">
	<!ENTITY ns_vars "http://ns.adobe.com/Variables/1.0/">
	<!ENTITY ns_imrep "http://ns.adobe.com/ImageReplacement/1.0/">
	<!ENTITY ns_sfw "http://ns.adobe.com/SaveForWeb/1.0/">
	<!ENTITY ns_custom "http://ns.adobe.com/GenericCustomNamespace/1.0/">
	<!ENTITY ns_adobe_xpath "http://ns.adobe.com/XPath/1.0/">
]>
<svg version="1.1" id="Layer_1" xmlns:x="&ns_extend;" xmlns:i="&ns_ai;" xmlns:graph="&ns_graphs;"
	 xmlns="http://www.w3.org/2000/svg" xmlns:xlink="http://www.w3.org/1999/xlink" x="0px" y="0px" viewBox="0 0 468.6 233"
	 style="enable-background:new 0 0 468.6 233;" xml:space="preserve">
<style type="text/css">
	.st0{fill:#3C2517;}
</style>
<metadata>
	<sfw  xmlns="&ns_sfw;">
		<slices></slices>
		<sliceSourceBounds  bottomLeftOrigin="true" height="215.9" width="420.3" x="39.7" y="-356.2"></sliceSourceBounds>
	</sfw>
</metadata>
<g>
	<g>
		<path class="st0" d="M455.5,128.4c-6.7,14.8-22.4,24-38.6,23.1c-9.6-0.5-18.1-5.3-26.9-8.7c-7.1-2.8-14.6-4.5-22.2-5.1
			c-15.1-1.2-30.7,2.3-43,11.4c-13.5,10-20.6,25.6-27.7,40.4c-3.1,6.6-5.8,13.5-9.7,19.7c-4.4,7-10.1,10.3-18.3,10.5
			c-21.5,0.3-42.9,0.4-64.4,0.6c-42.6,0.4-85.1,0.9-127.7,0.5c-9.5-0.1-19.9-0.7-26.9-8c-7.4-7.7-5.6-20.6-6-30.5
			c-0.8-21.2-1.6-42.3-1.6-63.5c0-20.8,0.6-41.7,1.3-62.5c0.2-5.1,0.4-10.1,0.6-15.2c0.2-5.3,0.1-11.1,2.8-15.8
			c5-9.2,15.9-11.2,25.5-11.5c20.8-0.8,41.7,0.3,62.5,0.3c20.7,0,41.3-1.6,62-1.6c10.8,0,21.6,0.4,32.4,0.3c9.9-0.1,19.7-1,29.5-1.3
			c9.6-0.3,20,0.5,27.3,7.5c6.2,5.9,9.7,14.4,13.1,22.1c3.4,7.6,5.4,15,10.6,21.7c4.6,6.1,10.3,11.3,16.5,15.8
			c11.9,8.5,26.8,13.8,41.5,13.4c17.6-0.5,31.8-11.7,48.7-14.9c18-3.3,32.1,7.4,37.6,24.3c2.8,8.8,3.1,18.2-0.1,26.9
			c-0.7,2,2.4,2.8,3.1,0.9c6-15.3,1.5-34.8-10-46.5c-11.1-11.4-27-11.3-41.2-6.3c-9.2,3.3-17.9,8.1-27.4,10.5
			c-8.4,2.1-17.2,1.9-25.6-0.1c-16.5-3.9-32.1-14.1-41.9-28c-5.5-7.8-8-17.7-12.2-26.3c-3.3-6.9-7.2-13.8-13.6-18.3
			c-7.1-5-16.3-5.9-24.8-5.8c-10.4,0.2-20.8,1.3-31.2,1.4c-22.6,0.3-45.1,0-67.8,0.8c-22.1,0.8-44.1,0.3-66.2,0.1
			c-10.3-0.1-21.1-0.8-31.3,0.8c-7.5,1.2-15,4.6-19.2,11.3c-4.8,7.6-3.8,18-4.1,26.6c-0.4,11-0.7,22-1,33
			c-0.5,22.6-0.7,45.2,0.1,67.8c0.4,11.4,0.8,22.7,1.3,34.1c0.3,8.8-0.8,19.5,4.1,27.3c10,15.7,33.6,12.2,49.4,12.2
			c22.7,0,45.4-0.1,68-0.2c22.7-0.2,45.4-0.4,68-0.6c11.5-0.1,23-0.2,34.5-0.3c7.1-0.1,13.4-0.3,19-5.3c5-4.5,7.9-11,10.7-17
			c3.7-8.1,7.4-16.3,11.6-24.2c9-17.1,21.9-30.3,41.3-34.5c8.8-1.9,17.9-2,26.7-0.4c9.5,1.7,18,5.7,26.9,9.1
			c14.4,5.5,29.6,4.7,42.1-5.1c5.5-4.3,9.7-9.9,12.3-16.4C456.2,128.3,455.6,128.1,455.5,128.4z"/>
	</g>
	<g>
		<path class="st0" d="M440.7,108.1c2.5-7.5-4.4-14.7-11.4-15.9c-7.7-1.4-13.9,4.4-14.6,11.9c-0.6,7.2,4.8,14.4,12,15.6
			c7.6,1.3,14-4.2,14.9-11.6c0.1-1.1-1.8-1.4-2-0.3c-2.1,14.9-23.2,11.9-22.5-2.4c0.3-6.3,4.9-12.2,11.7-11
			c7.2,1.2,10.2,6.7,10.5,13.5C439.4,108.7,440.4,108.8,440.7,108.1L440.7,108.1z"/>
	</g>
	<g>
		<path class="st0" d="M441.5,131.8c-8.2,4.7-17.4,6.5-26.8,5.1c-0.5-0.1-0.7,0.6-0.2,0.7c9.6,1.8,19-0.1,27.1-5.6
			C441.7,131.9,441.6,131.7,441.5,131.8L441.5,131.8z"/>
	</g>
	<g>
		<path class="st0" d="M410.5,136.8c-17.3-9.2-35.3-16.9-55.3-14.7c-16.9,1.9-32.4,12.7-42.1,26.4c-0.3,0.5,0.4,1,0.8,0.6
			c11.1-13.7,25.5-24.7,43.6-26.3C376.7,121.1,393.5,128.8,410.5,136.8C410.5,136.9,410.6,136.8,410.5,136.8L410.5,136.8z"/>
	</g>
	<g>
		<path class="st0" d="M291.7,173.3c-4.6,9-10.2,22-20.5,25.2c-0.3,0.1-0.2,0.5,0.1,0.5c5.3-1.6,7.9-3.8,11.1-8.2
			c3.8-5.4,7-11.1,9.7-17.2C292.2,173.3,291.8,173,291.7,173.3L291.7,173.3z"/>
	</g>
	<g>
		<path class="st0" d="M266.2,199.4c-9.1,0.7-18.2,1.1-27.3,0.8c-0.3,0-0.3,0.4,0,0.4c9.1,0.3,18.3,0.1,27.3-1.1
			C266.3,199.5,266.3,199.4,266.2,199.4L266.2,199.4z"/>
	</g>
	<g>
		<path class="st0" d="M228.5,200.8c-22.4-0.2-44.9,0.6-67.3,1.5c-0.7,0-0.7,1.2,0,1.2c22.4-0.4,44.9-0.9,67.3-2.4
			C228.7,201.1,228.7,200.8,228.5,200.8L228.5,200.8z"/>
	</g>
	<g>
		<path class="st0" d="M152.8,202.5c-22.9-1.7-46.3-0.7-69.2,0.2c-6.4,0.2-13.4-0.2-19.2-3.4c-7.7-4.3-9.3-12.4-8.7-20.6
			c0.1-0.7-1-0.7-1.1,0c-0.9,7,0.1,14.6,5.7,19.5c4.7,4.2,11.3,5.6,17.5,6c11.3,0.7,22.9-0.7,34.2-0.7c13.5-0.1,27.3,0.8,40.8-0.4
			C153.1,203,153.1,202.5,152.8,202.5L152.8,202.5z"/>
	</g>
	<g>
		<path class="st0" d="M435,120.1c-6.3,2.4-13.4,0.8-18.2-3.7c-0.4-0.3-0.9,0.2-0.6,0.6c5.1,4.9,12.4,6.4,18.9,3.5
			C435.3,120.4,435.1,120.1,435,120.1L435,120.1z"/>
	</g>
	<g>
		<path class="st0" d="M417.8,94c-3.4,2.8-5.3,5.7-5.7,10.1c0,0.4,0.6,0.4,0.7,0c0.3-2,0.6-4.1,1.7-5.9c1-1.5,2.3-2.7,3.6-3.9
			C418.3,94.1,418,93.8,417.8,94L417.8,94z"/>
	</g>
	<g>
		<path class="st0" d="M440.2,109.8c-1.6-5.5-5.5-10.3-11.6-10.4c-5.9-0.1-12.4,4.1-13.3,10.2c-0.1,0.7,0.9,1.1,1.1,0.3
			c1.6-5.6,6.5-9.5,12.4-9.2c5.8,0.2,8.7,4.5,10.9,9.3C439.9,110.2,440.3,110.1,440.2,109.8L440.2,109.8z"/>
	</g>
	<g>
		<path class="st0" d="M49.7,174.4c-3.4,4-6.2,8.4-8.2,13.2c-0.3,0.7,0.7,1.4,1.1,0.6c2.1-4.7,4.7-9,7.9-13.1
			C50.9,174.6,50.2,173.9,49.7,174.4L49.7,174.4z"/>
	</g>
	<g>
		<path class="st0" d="M52.1,178c-3.2,4.4-6,9-8.4,13.8c-0.3,0.6,0.7,1.2,1,0.6c2.5-4.8,5.3-9.4,8.3-13.9
			C53.3,178,52.4,177.6,52.1,178L52.1,178z"/>
	</g>
	<g>
		<path class="st0" d="M54,181.1c-3.9,6.6-8.1,13.2-11.9,19.8c-0.4,0.7,0.6,1.3,1.1,0.6c4.3-6.3,8.2-13.2,11.7-19.9
			C55.2,181,54.4,180.5,54,181.1L54,181.1z"/>
	</g>
	<g>
		<path class="st0" d="M54.6,186.4c-3.1,6.3-6.7,12.3-10.1,18.4c-0.4,0.7,0.6,1.3,1.1,0.6c3.9-5.8,7.1-12.2,9.9-18.6
			C55.7,186.3,54.9,185.8,54.6,186.4L54.6,186.4z"/>
	</g>
	<g>
		<path class="st0" d="M56.8,191.9c-4,6.1-7.8,12.8-9.8,19.9c-0.2,0.7,0.9,1.2,1.2,0.5c3-6.8,5.8-13.4,9.7-19.7
			C58.2,191.8,57.2,191.2,56.8,191.9L56.8,191.9z"/>
	</g>
	<g>
		<path class="st0" d="M58.1,198.4c-2.8,4.9-5.6,10.2-7.6,15.5c-0.3,0.7,0.8,1.1,1.2,0.5c2.8-4.9,5.1-10.3,7.4-15.4
			C59.4,198.4,58.5,197.8,58.1,198.4L58.1,198.4z"/>
	</g>
	<g>
		<path class="st0" d="M62.6,201.3c-3.4,4.7-6.6,10.1-8.7,15.6c-0.3,0.7,0.9,1.2,1.2,0.5c2.8-5.2,5.4-10.4,8.5-15.5
			C64.1,201.3,63.1,200.7,62.6,201.3L62.6,201.3z"/>
	</g>
	<g>
		<path class="st0" d="M66,203.3c-2.7,4.6-5.2,9.8-6.4,15c-0.2,0.8,0.9,1.1,1.2,0.3c1.8-5.1,3.6-10,6.2-14.7
			C67.5,203.2,66.4,202.6,66,203.3L66,203.3z"/>
	</g>
	<g>
		<path class="st0" d="M73.3,204.4c-3.6,4.6-6.6,9.9-8.8,15.3c-0.3,0.7,0.9,1.2,1.2,0.5c2.6-5.3,5.3-10.3,8.4-15.4
			C74.6,204.3,73.7,203.9,73.3,204.4L73.3,204.4z"/>
	</g>
	<g>
		<path class="st0" d="M81.4,203.4c-4.4,5.5-8.6,11.5-11.4,18c-0.4,0.9,0.8,1.7,1.3,0.8c3.5-6.1,6.9-12.2,11.2-17.9
			C83.1,203.7,81.9,202.8,81.4,203.4L81.4,203.4z"/>
	</g>
	<g>
		<path class="st0" d="M85.4,205.3c-3.6,5.5-6.7,11.5-8.8,17.8c-0.3,0.9,1.1,1.3,1.4,0.4c2.2-6.2,4.8-12,8.3-17.6
			C86.7,205.2,85.8,204.7,85.4,205.3L85.4,205.3z"/>
	</g>
	<g>
		<path class="st0" d="M92.9,204.6c0.2-0.2,0.4-0.4,0.6-0.7c-0.3-0.2-0.6-0.5-0.9-0.7c-2.8,5.7-5.5,11.9-7.3,18
			c-0.3,1,1.1,1.3,1.5,0.4c2.5-5.9,4.6-12,7-18c0.3-0.7-0.7-0.9-1.1-0.5c-0.2,0.2-0.4,0.5-0.5,0.7C91.7,204.5,92.5,205.1,92.9,204.6
			L92.9,204.6z"/>
	</g>
	<g>
		<path class="st0" d="M101.5,203.7c-3.6,6-6.5,12.7-8.4,19.4c-0.3,1,1.2,1.4,1.6,0.4c2.4-6.5,5.1-12.8,8.1-19.1
			C103.2,203.6,102,202.8,101.5,203.7L101.5,203.7z"/>
	</g>
	<g>
		<path class="st0" d="M107.3,203.1c-3.3,5.6-6.1,11.9-8.5,17.9c-0.4,0.9,1.1,1.5,1.6,0.7c3-5.7,5.9-12,8.1-18.1
			C108.6,202.9,107.6,202.5,107.3,203.1L107.3,203.1z"/>
	</g>
	<g>
		<path class="st0" d="M115.6,202.3c-3.7,5.5-6.7,11.8-8.9,18c-0.3,0.9,1.1,1.5,1.5,0.7c2.8-6,5.6-12,8.4-18.1
			C117,202.2,116,201.6,115.6,202.3L115.6,202.3z"/>
	</g>
	<g>
		<path class="st0" d="M119.5,204.7c-2.4,4.4-4.9,9.7-6.3,14.6c-0.2,0.8,0.9,1.3,1.4,0.6c2.5-4.4,4.5-9.9,5.9-14.8
			C120.6,204.5,119.8,204.2,119.5,204.7L119.5,204.7z"/>
	</g>
	<g>
		<path class="st0" d="M124.7,202.6c-3.1,5.5-6,11.4-8.1,17.3c-0.3,1,1.2,1.6,1.6,0.7c2.6-5.7,5-11.6,7.7-17.3
			C126.3,202.5,125.1,201.8,124.7,202.6L124.7,202.6z"/>
	</g>
	<g>
		<path class="st0" d="M131.3,203.7c-3.9,5.2-7,11.2-8.8,17.4c-0.2,0.7,0.5,1.3,1.1,1.1c1-0.3,1-0.3,1.7-1.1
			c0.6-0.8-0.3-1.7-1.1-1.1c-0.3,0.1-0.6,0.3-0.9,0.4c0.3,0.4,0.6,0.8,0.9,1.2c2.1-6.1,4.7-11.7,8.3-17.1
			C133.1,203.6,131.8,203,131.3,203.7L131.3,203.7z"/>
	</g>
	<g>
		<path class="st0" d="M138.6,202.7c-3.1,6.2-7.5,11.7-9.4,18.4c-0.2,0.8,0.7,1.4,1.4,1.1c0.3-0.2,0.6-0.3,1-0.5
			c0.9-0.4,0.3-1.9-0.7-1.6c-0.3,0.1-0.7,0.2-1,0.4c0.4,0.4,0.8,0.8,1.1,1.1c1.3-3.7,2.8-7.2,4.8-10.6c1.5-2.5,3.1-5,4-7.8
			C140,202.5,138.9,202,138.6,202.7L138.6,202.7z"/>
	</g>
	<g>
		<path class="st0" d="M143.3,204.2c-2,2.6-3.4,5.7-4.9,8.6c-1.2,2.3-2.6,4.5-2.7,7.2c0,1,1.6,1.2,1.7,0.2c0.9-5.6,5-10.1,6.7-15.5
			C144.2,204.2,143.6,203.8,143.3,204.2L143.3,204.2z"/>
	</g>
	<g>
		<path class="st0" d="M150.6,203.2c-3.7,5.6-6.9,12.3-8.8,18.8c-0.3,1.2,1.4,1.6,1.8,0.5c2.6-6.3,5.2-12.4,8.2-18.5
			C152.2,203.1,151.1,202.5,150.6,203.2L150.6,203.2z"/>
	</g>
	<g>
		<path class="st0" d="M156.3,203.6c-2.7,6-5.7,12-8.1,18.1c-0.3,0.7,0.8,1.1,1.2,0.5c3.1-5.7,5.5-12.1,7.8-18.2
			C157.4,203.5,156.5,203.1,156.3,203.6L156.3,203.6z"/>
	</g>
	<g>
		<path class="st0" d="M161,204c-2.9,4.6-5.5,10.4-6.5,15.8c-0.1,0.8,0.9,1,1.2,0.3c2.1-5.2,3.9-10.4,6.2-15.6
			C162.2,203.9,161.4,203.4,161,204L161,204z"/>
	</g>
	<g>
		<path class="st0" d="M166.5,203.4c-1.2,2.8-2.4,5.5-3.6,8.3c-1.1,2.7-2.4,5.3-2.6,8.2c0,0.7,1.2,0.9,1.3,0.2
			c0.8-5.6,3.9-11,5.9-16.3C167.7,203.2,166.8,202.8,166.5,203.4L166.5,203.4z"/>
	</g>
	<g>
		<path class="st0" d="M172.3,202.1c-1.9,5.3-3.9,10.7-5,16.2c-0.2,0.8,0.9,1.1,1.2,0.3c1.9-5.3,3.3-10.9,5.1-16.2
			C173.8,201.7,172.5,201.3,172.3,202.1L172.3,202.1z"/>
	</g>
	<g>
		<path class="st0" d="M178.4,203.1c-1.8,6-3.6,12.1-5.1,18.2c-0.2,0.8,1,1.1,1.2,0.3c1.8-6,3.3-12.2,4.8-18.3
			C179.5,202.8,178.6,202.5,178.4,203.1L178.4,203.1z"/>
	</g>
	<g>
		<path class="st0" d="M184.3,203c-1.9,5.4-3.7,11-4.6,16.7c-0.1,0.7,0.9,1.1,1.2,0.3c1.6-5.6,2.8-11.2,4.5-16.8
			C185.5,202.7,184.5,202.4,184.3,203L184.3,203z"/>
	</g>
	<g>
		<path class="st0" d="M189.3,203.5c-1.9,5.1-3.6,10.6-4.2,16.1c-0.1,0.8,1.2,0.9,1.4,0.2c1.3-5.3,2.3-10.7,3.9-16
			C190.6,203.1,189.6,202.8,189.3,203.5L189.3,203.5z"/>
	</g>
	<g>
		<path class="st0" d="M195.8,202.4c-2.4,5.2-4.1,10.9-5.1,16.6c-0.1,0.9,1.1,1.2,1.3,0.4c1.3-5.7,2.8-11.1,4.6-16.6
			C196.9,202.3,196.1,201.9,195.8,202.4L195.8,202.4z"/>
	</g>
	<g>
		<path class="st0" d="M201.1,201.9c-1.7,5.4-3.6,11-4.9,16.5c-0.2,0.8,1,1.1,1.3,0.3c1.8-5.4,3.2-11.1,4.6-16.6
			C202.3,201.5,201.3,201.2,201.1,201.9L201.1,201.9z"/>
	</g>
	<g>
		<path class="st0" d="M207.3,202c-2.4,5.7-4.5,11.6-5.7,17.7c-0.1,0.7,0.9,1,1,0.3c1.5-6,3.2-11.9,5.5-17.6
			C208.3,201.9,207.5,201.5,207.3,202L207.3,202z"/>
	</g>
	<g>
		<path class="st0" d="M212.9,202.2c-1.8,5.3-3.7,10.7-5.2,16.2c-0.2,0.8,0.9,1,1.2,0.3c1.9-5.3,3.4-10.8,5-16.2
			C214.1,201.8,213.2,201.6,212.9,202.2L212.9,202.2z"/>
	</g>
	<g>
		<path class="st0" d="M219.9,202.3c-1.6,3.4-3.2,6.9-4.7,10.4c-1,2.2-1.8,4.3-1.5,6.7c0.1,0.8,1.3,0.6,1.4-0.2
			c0.5-5.7,4-11.2,6.1-16.4C221.5,202.2,220.2,201.6,219.9,202.3L219.9,202.3z"/>
	</g>
	<g>
		<path class="st0" d="M225.1,201.7c-2.4,5.2-5,11.3-5.9,17c-0.1,0.9,1,1.2,1.3,0.4c2.3-5.4,3.8-11.3,5.7-16.9
			C226.5,201.5,225.4,201,225.1,201.7L225.1,201.7z"/>
	</g>
	<g>
		<path class="st0" d="M229.7,201.8c0.4,3.1-1.1,6.1-2.1,8.9c-1,2.9-2.1,5.7-3,8.6c-0.4,1.1,1.4,1.6,1.8,0.5c1.3-3.5,2.3-7,3.4-10.5
			c0.8-2.6,1.8-5,0.9-7.7C230.6,201.1,229.7,201.2,229.7,201.8L229.7,201.8z"/>
	</g>
	<g>
		<path class="st0" d="M237.7,202.9c-2.5,5-4.6,10.4-5.8,15.8c-0.2,1.1,1.3,1.5,1.7,0.5c1.7-5.3,3.4-10.5,5.4-15.8
			C239.2,202.7,238,202.2,237.7,202.9L237.7,202.9z"/>
	</g>
	<g>
		<path class="st0" d="M244.1,201.1c-1.5,6.2-5.6,11.1-6.5,17.6c-0.1,0.8,1.1,1.2,1.3,0.4c1-3.4,1.9-6.7,3.4-9.9
			c1.2-2.5,2.4-4.9,2.9-7.7C245.5,200.7,244.3,200.3,244.1,201.1L244.1,201.1z"/>
	</g>
	<g>
		<path class="st0" d="M250.3,200.7c-2.7,5.6-5.3,11.5-6.7,17.6c-0.2,1,1.1,1.3,1.5,0.4c2-5.9,3.8-11.7,6.2-17.4
			C251.6,200.6,250.6,200,250.3,200.7L250.3,200.7z"/>
	</g>
	<g>
		<path class="st0" d="M255.8,202.3c-1.5,3.3-2.6,6.8-3.9,10.1c-0.9,2.4-2.5,5-1.4,7.5c0.4,0.9,1.7,0.2,1.5-0.6
			c-0.6-2.5,1.6-6.6,2.4-8.9c0.9-2.6,1.8-5.1,2.5-7.8C256.9,202.1,256,201.7,255.8,202.3L255.8,202.3z"/>
	</g>
	<g>
		<path class="st0" d="M261.9,200.4c-1.2,3.9-2.3,7.9-3.4,11.9c-0.5,1.9-2,4.5-0.5,6.2c0.6,0.7,1.7-0.2,1.3-1
			c-0.5-0.9,0.6-3.8,0.8-4.8c0.3-1.3,0.7-2.7,1-4c0.7-2.7,1.3-5.3,1.9-8C263.3,200,262.2,199.6,261.9,200.4L261.9,200.4z"/>
	</g>
	<g>
		<path class="st0" d="M268.7,201.5c-2.4,5.8-4.4,12-5.6,18.1c-0.1,0.4,0.1,1,0.6,1.1c0.1,0,0.2,0,0.3,0.1c0.4,0.1,0.7-0.1,1-0.4
			c0.1-0.1,0.2-0.3,0.3-0.4c0.6-0.8-0.6-1.6-1.3-1c0.1,0,0.1,0,0.2,0c0.2,0.4,0.4,0.7,0.6,1.1c1.5-6.2,3.1-12.2,5.1-18.3
			C270.2,201.1,269,200.8,268.7,201.5L268.7,201.5z"/>
	</g>
	<g>
		<path class="st0" d="M273.7,200c-2.5,5.7-3.8,12.7-4,18.9c0,1.1,1.6,1.1,1.7,0c0.8-6.3,2.1-12.3,3.3-18.5
			C274.7,199.9,274,199.5,273.7,200L273.7,200z"/>
	</g>
	<g>
		<path class="st0" d="M280,194.8c-2.5,7.7-4.9,15.9-5.8,24.1c-0.1,0.9,1.3,1,1.5,0.2c1.7-8,3.1-16,5.3-24
			C281.2,194.4,280.2,194.2,280,194.8L280,194.8z"/>
	</g>
	<g>
		<path class="st0" d="M286,187.5c-2.4,9.8-4,20-4.7,30.1c-0.1,1.1,1.6,1.1,1.7,0c1-10,2.3-19.9,4.2-29.8
			C287.3,187,286.2,186.7,286,187.5L286,187.5z"/>
	</g>
	<g>
		<path class="st0" d="M292.4,176.7c-1.8,10.5-3.4,21.2-3.7,31.8c0,1,1.4,0.9,1.5,0c1.1-10.6,1.9-21.1,3.3-31.7
			C293.6,176.3,292.5,176.1,292.4,176.7L292.4,176.7z"/>
	</g>
	<g>
		<path class="st0" d="M297,171.9c-0.6,7.2-1,14.5-1.3,21.7c0,1,1.5,1,1.6,0c0.4-7.2,0.7-14.5,0.9-21.7
			C298.1,171.1,297,171.1,297,171.9L297,171.9z"/>
	</g>
	<g>
		<path class="st0" d="M300.5,165.5c-0.3,6.8-0.6,13.6-0.5,20.4c0,1,1.4,0.9,1.5,0c0.3-6.8,0.2-13.6,0.1-20.4
			C301.5,164.8,300.5,164.8,300.5,165.5L300.5,165.5z"/>
	</g>
	<g>
		<path class="st0" d="M304.2,158.2c-0.3,5.6-0.4,11.4,0,17c0.1,0.9,1.4,0.9,1.4,0c0.3-5.6,0-11.4-0.3-17
			C305.2,157.5,304.2,157.5,304.2,158.2L304.2,158.2z"/>
	</g>
	<g>
		<path class="st0" d="M308.2,154.2c-0.4,4.8-0.6,9.8,0.2,14.6c0.1,0.8,1.4,0.6,1.4-0.2c-0.2-4.8-0.6-9.5-0.4-14.4
			C309.4,153.4,308.3,153.4,308.2,154.2L308.2,154.2z"/>
	</g>
	<g>
		<path class="st0" d="M312.1,149.2c-0.1,4.9-0.1,9.8,0.2,14.7c0,1,1.5,1,1.5,0c0-4.9-0.2-9.8-0.6-14.7
			C313.1,148.5,312.1,148.5,312.1,149.2L312.1,149.2z"/>
	</g>
	<g>
		<path class="st0" d="M316,145.8c-0.2,4.8-0.4,9.6-0.5,14.3c0,0.8,1.3,0.8,1.3,0c0.1-4.8,0-9.6,0-14.3
			C316.8,145.3,316.1,145.3,316,145.8L316,145.8z"/>
	</g>
	<g>
		<path class="st0" d="M321.3,141.5c-0.5,4-0.9,8-1.2,12c-0.1,0.9,1.3,0.9,1.3,0c0.4-4,0.6-8,0.9-12
			C322.3,140.9,321.4,140.9,321.3,141.5L321.3,141.5z"/>
	</g>
	<g>
		<path class="st0" d="M328,135.8c-1.4,4.5-2.2,9.4-2.1,14.1c0,0.8,1.2,0.8,1.3,0c0.2-4.7,0.6-9.3,1.6-13.9
			C329,135.4,328.2,135.2,328,135.8L328,135.8z"/>
	</g>
	<g>
		<path class="st0" d="M333.4,133.3c-0.9,3.9-1.8,7.8-2.6,11.6c-0.2,0.7,0.9,1,1.1,0.3c0.8-3.9,1.6-7.8,2.4-11.7
			C334.4,133,333.6,132.8,333.4,133.3L333.4,133.3z"/>
	</g>
	<g>
		<path class="st0" d="M340.2,127.3c-1.7,5.2-3.1,10.7-3.3,16.2c0,0.7,1.2,0.9,1.3,0.2c0.8-5.4,1.5-10.8,3-16.1
			C341.4,126.9,340.5,126.7,340.2,127.3L340.2,127.3z"/>
	</g>
	<g>
		<path class="st0" d="M347.3,124.6c-1.8,4.5-2.9,9.4-3.2,14.2c-0.1,1.1,1.6,1,1.7,0c0.5-4.8,1.3-9.3,2.8-13.9
			C348.9,124.1,347.6,123.8,347.3,124.6L347.3,124.6z"/>
	</g>
	<g>
		<path class="st0" d="M354.7,123c-1.7,4.9-3.2,10.4-3.6,15.5c-0.1,0.8,1.2,1,1.4,0.2c1.3-5,2.2-10.3,3.3-15.4
			C355.9,122.6,354.9,122.3,354.7,123L354.7,123z"/>
	</g>
	<g>
		<path class="st0" d="M359.8,123.7c-1.8,4.6-3.1,9.5-3.4,14.5c-0.1,0.8,1.3,1,1.4,0.2c0.7-4.9,1.6-9.6,3.1-14.4
			C361.1,123.3,360.1,123,359.8,123.7L359.8,123.7z"/>
	</g>
	<g>
		<path class="st0" d="M366.4,123.4c-1.8,4.5-3.4,9.2-4.5,13.9c-0.2,0.9,1.1,1.2,1.3,0.4c1.4-4.7,2.6-9.4,4.1-14
			C367.6,123,366.7,122.8,366.4,123.4L366.4,123.4z"/>
	</g>
	<g>
		<path class="st0" d="M372.4,123.4c-1.6,4.7-3.3,9.4-4.4,14.3c-0.2,0.9,1,1.1,1.3,0.4c1.8-4.6,2.9-9.6,4.1-14.3
			C373.6,123,372.6,122.7,372.4,123.4L372.4,123.4z"/>
	</g>
	<g>
		<path class="st0" d="M379.2,125.3c-1.8,3.8-3.6,7.9-4.9,11.9c-0.2,0.6,0.8,1.1,1.1,0.5c1.8-3.8,3.3-8,4.6-12.1
			C380.2,125.2,379.4,124.8,379.2,125.3L379.2,125.3z"/>
	</g>
	<g>
		<path class="st0" d="M386,127.1c-2.8,3.6-5.2,7.7-7,11.9c-0.3,0.7,0.9,1.2,1.2,0.5c2.1-4.1,4.2-8,6.6-11.9
			C387.2,127,386.4,126.6,386,127.1L386,127.1z"/>
	</g>
	<g>
		<path class="st0" d="M392.2,128.8c-2.8,3.3-5.4,7.1-7.1,11c-0.4,0.8,0.8,1.6,1.3,0.7c2.2-3.8,4.4-7.4,6.9-11
			C393.6,129,392.7,128.2,392.2,128.8L392.2,128.8z"/>
	</g>
	<g>
		<path class="st0" d="M398,130.9c-3.3,3.5-6.5,7.7-8.9,11.9c-0.5,0.8,0.7,1.5,1.2,0.7c2.9-3.9,5.6-8,8.4-12
			C399.1,131,398.3,130.5,398,130.9L398,130.9z"/>
	</g>
	<g>
		<path class="st0" d="M401.6,133.6c-2.6,3.6-5.6,7.3-7.7,11.2c-0.3,0.6,0.5,1.2,0.9,0.7c2.9-3.4,5.2-7.6,7.7-11.4
			C402.9,133.6,402,133.1,401.6,133.6L401.6,133.6z"/>
	</g>
	<g>
		<path class="st0" d="M407.3,136.3c-2.5,3.6-5,7.3-7.3,11.1c-0.4,0.6,0.6,1.4,1.1,0.8c2.7-3.5,5.2-7.4,7.2-11.3
			C408.6,136.2,407.7,135.7,407.3,136.3L407.3,136.3z"/>
	</g>
	<g>
		<path class="st0" d="M413.1,137c-0.5,2.2-2.2,4.2-3.4,6.1c-1.2,2-2.5,3.9-3.5,6c-0.4,0.8,0.7,1.5,1.2,0.7c1.6-2.2,2.9-4.8,4.3-7.2
			c1-1.7,2.4-3.5,2.5-5.5C414.3,136.5,413.3,136.3,413.1,137L413.1,137z"/>
	</g>
	<g>
		<path class="st0" d="M419.9,136.9c-2.9,3.7-5.8,8.3-7.2,12.8c-0.2,0.7,0.8,1.1,1.1,0.5c1.2-2.1,2.1-4.4,3.2-6.5
			c1.1-2.1,2.4-4.2,3.6-6.3C420.9,137,420.2,136.5,419.9,136.9L419.9,136.9z"/>
	</g>
	<g>
		<path class="st0" d="M427,136.6c-2.9,4.2-5.6,9-7.6,13.8c-0.4,0.8,0.8,1.6,1.2,0.7c2.5-4.6,4.9-9.3,7.3-13.9
			C428.3,136.6,427.4,136.1,427,136.6L427,136.6z"/>
	</g>
	<g>
		<path class="st0" d="M433.5,136.6c-2.8,4.3-5.6,8.9-7.3,13.8c-0.2,0.7,0.8,1.1,1.1,0.5c2.4-4.6,4.5-9.3,7.1-13.7
			C434.8,136.5,433.9,136,433.5,136.6L433.5,136.6z"/>
	</g>
	<g>
		<path class="st0" d="M438.6,133.2c-2,4.3-3.6,9.1-4.6,13.7c-0.2,1,1.2,1.4,1.5,0.4c1.5-4.5,2.9-9.1,4.2-13.6
			C439.9,133.1,438.9,132.6,438.6,133.2L438.6,133.2z"/>
	</g>
	<g>
		<path class="st0" d="M442.1,131.4c-1.4,4.5-3,9.4-3.5,14.1c-0.1,0.7,1,0.8,1.2,0.2c1.7-4.3,2.5-9.4,3.3-14
			C443.2,131,442.3,130.7,442.1,131.4L442.1,131.4z"/>
	</g>
	<g>
		<path class="st0" d="M446.7,128c-1.6,4.8-2.6,10.1-2.9,15.1c0,0.8,1.4,1.1,1.5,0.2c0.7-5.1,1.5-10,2.5-15
			C447.9,127.6,447,127.4,446.7,128L446.7,128z"/>
	</g>
	<g>
		<path class="st0" d="M451.3,125c-0.6,4.4-1.7,8.6-2.8,12.9c-0.2,0.9,1.1,1.3,1.5,0.4c1.4-4.2,2.1-8.7,2.5-13.2
			C452.5,124.5,451.4,124.4,451.3,125L451.3,125z"/>
	</g>
	<g>
		<path class="st0" d="M454.8,118.5c-0.3,4.6-0.5,9.1-0.9,13.7c-0.1,0.9,1.4,1.1,1.5,0.2c0.6-4.5,0.8-9.3,0.4-13.9
			C455.8,117.8,454.8,117.8,454.8,118.5L454.8,118.5z"/>
	</g>
	<g>
		<path class="st0" d="M420.1,96.7c-0.6,2.1-1.5,4.5-1.5,6.6c0,0.5,0.8,0.8,1,0.3c0.9-2,1-4.6,1.3-6.8
			C421,96.4,420.2,96.3,420.1,96.7L420.1,96.7z"/>
	</g>
	<g>
		<path class="st0" d="M422.9,93.8c-0.3,1.3-0.5,2.6-0.9,3.9c-0.3,1.3-0.8,2.5-1.1,3.8c-0.2,0.8,0.9,1.1,1.2,0.3
			c0.9-2.4,1.4-5.4,1.5-8C423.7,93.5,423,93.4,422.9,93.8L422.9,93.8z"/>
	</g>
	<g>
		<path class="st0" d="M425.7,94c-0.8,2.1-1.7,4.6-2.1,6.8c-0.1,0.7,0.8,1,1.1,0.3c0.8-2.1,1.3-4.7,1.7-6.9
			C426.6,93.7,425.9,93.5,425.7,94L425.7,94z"/>
	</g>
	<g>
		<path class="st0" d="M429.1,93.7c-0.8,2.1-1.7,4.2-2.5,6.3c-0.3,0.7,0.9,1.2,1.2,0.5c0.9-2,1.7-4.3,2.2-6.5
			C430.2,93.3,429.4,93.1,429.1,93.7L429.1,93.7z"/>
	</g>
	<g>
		<path class="st0" d="M432,93.7c-1.1,1.6-2.2,3.8-2.6,5.7c-0.2,0.7,0.8,1.2,1.2,0.5c0.4-0.9,0.7-1.9,1.1-2.8c0.4-1,0.9-2,1.3-3
			C433.1,93.5,432.3,93.3,432,93.7L432,93.7z"/>
	</g>
	<g>
		<path class="st0" d="M434.4,95.5c-0.6,0.8-1,1.8-1.5,2.7c-0.4,0.8-0.9,1.7-1.1,2.6c-0.1,0.7,0.8,1.1,1.2,0.5
			c0.5-0.9,0.8-1.9,1.2-2.8c0.4-0.9,0.8-1.7,1.2-2.6C435.6,95.3,434.7,95.1,434.4,95.5L434.4,95.5z"/>
	</g>
	<g>
		<path class="st0" d="M436.2,98c-0.5,1.3-1.1,2.5-1.6,3.7c-0.3,0.8,0.7,1.4,1.2,0.7c0.7-1.2,1.2-2.7,1.4-4.1
			C437.2,97.6,436.4,97.4,436.2,98L436.2,98z"/>
	</g>
	<g>
		<path class="st0" d="M437.7,100.9c-0.4,1-0.8,2.1-1.2,3.2c-0.2,0.6,0.9,1.1,1.1,0.5c0.5-1.1,0.9-2.3,1-3.6
			C438.7,100.5,437.9,100.5,437.7,100.9L437.7,100.9z"/>
	</g>
	<g>
		<path class="st0" d="M45.4,175.4C45.5,175.4,45.5,175.3,45.4,175.4C45.4,175.3,45.4,175.4,45.4,175.4L45.4,175.4z"/>
	</g>
	<g>
		<path class="st0" d="M44.4,176.7c2.4-2.8,4.8-5.5,7.4-8.2c0.5-0.5-0.3-1.3-0.8-0.8c-2.7,2.6-5.2,5.4-7.3,8.4
			C43.4,176.6,44,177.1,44.4,176.7L44.4,176.7z"/>
	</g>
	<g>
		<path class="st0" d="M43.1,173.1c2.5-2.5,4.9-5.3,7.3-8c0.5-0.5-0.3-1.4-0.8-0.8c-2.5,2.7-5,5.3-7.1,8.3
			C42.3,173,42.8,173.5,43.1,173.1L43.1,173.1z"/>
	</g>
	<g>
		<path class="st0" d="M52.8,44.6c-0.5,15-0.2,30-0.1,45c0.1,14.9-0.5,30.1,0.4,45c0,0.6,0.9,0.6,0.9,0c0.7-14.9-0.1-30-0.2-45
			c-0.1-15,0-30-0.7-45C53,44.5,52.8,44.5,52.8,44.6L52.8,44.6z"/>
	</g>
	<g>
		<path class="st0" d="M53.9,144.5c0,7.5,0.1,15.1,0.4,22.6c0,0.5,0.8,0.5,0.8,0c0-7.5-0.2-15.1-0.5-22.6
			C54.6,144,53.9,144,53.9,144.5L53.9,144.5z"/>
	</g>
	<g>
		<path class="st0" d="M44.5,168.3c3.1-3.3,6.2-6.5,9.3-9.8c0.3-0.4-0.2-0.9-0.5-0.5c-3.1,3.3-6.2,6.5-9.3,9.8
			C43.6,168.1,44.1,168.6,44.5,168.3L44.5,168.3z"/>
	</g>
	<g>
		<path class="st0" d="M43.5,164.8c3.7-3.9,7.5-7.8,11.2-11.7c0.4-0.4-0.2-1-0.6-0.6c-3.7,3.9-7.4,7.9-11,11.9
			C42.8,164.7,43.2,165.1,43.5,164.8L43.5,164.8z"/>
	</g>
	<g>
		<path class="st0" d="M42.5,159.4c3.3-3.7,6.6-7.4,9.9-11.2c0.4-0.4-0.3-1.1-0.7-0.7c-3.3,3.7-6.6,7.4-9.8,11.2
			C41.6,159.2,42.2,159.8,42.5,159.4L42.5,159.4z"/>
	</g>
	<g>
		<path class="st0" d="M41.3,153.1c3.3-3.4,6.6-6.8,9.8-10.3c0.4-0.5-0.3-1.2-0.7-0.7c-3.3,3.4-6.5,6.8-9.7,10.3
			C40.2,152.9,40.9,153.6,41.3,153.1L41.3,153.1z"/>
	</g>
	<g>
		<path class="st0" d="M42.2,146.7c3.9-4,7.2-8.4,9.8-13.3c0.3-0.5-0.5-1-0.8-0.5c-2.6,4.8-5.8,9.3-9.5,13.3
			C41.5,146.5,41.9,147,42.2,146.7L42.2,146.7z"/>
	</g>
	<g>
		<path class="st0" d="M41,140.6c4-4.8,8.1-9.6,11.9-14.6c0.3-0.4-0.3-0.8-0.6-0.5c-4,4.8-7.7,9.9-11.5,14.9
			C40.7,140.5,40.9,140.7,41,140.6L41,140.6z"/>
	</g>
	<g>
		<path class="st0" d="M40.5,134c4.5-3.7,8.7-7.8,12.4-12.3c0.3-0.3-0.2-0.9-0.5-0.5c-3.8,4.4-7.8,8.6-12.2,12.5
			C40,133.9,40.3,134.2,40.5,134L40.5,134z"/>
	</g>
	<g>
		<path class="st0" d="M52.3,22.1c-3.3,2-6.6,4.5-8.9,7.5c-0.3,0.4,0.3,0.8,0.7,0.5c2.8-2.7,5.3-5.3,8.6-7.5
			C53,22.5,52.7,21.9,52.3,22.1L52.3,22.1z"/>
	</g>
	<g>
		<path class="st0" d="M52,27.2c-3.4,2.1-6.6,4.7-9,7.9c-0.2,0.3,0.3,0.8,0.6,0.4c2.5-3.1,5.3-5.7,8.7-7.8
			C52.5,27.5,52.3,27.1,52,27.2L52,27.2z"/>
	</g>
	<g>
		<path class="st0" d="M51.4,31.1c-3.3,2.6-6.7,5.9-8.7,9.7c-0.3,0.5,0.4,0.8,0.7,0.4c2.6-3.5,5.1-6.8,8.4-9.7
			C52.1,31.3,51.7,30.9,51.4,31.1L51.4,31.1z"/>
	</g>
	<g>
		<path class="st0" d="M51.1,36.1c-3.8,2.9-7.1,6.6-9.8,10.5c-0.4,0.5,0.5,1,0.9,0.5c2.7-3.9,5.8-7.4,9.3-10.7
			C51.6,36.3,51.3,36,51.1,36.1L51.1,36.1z"/>
	</g>
	<g>
		<path class="st0" d="M51.4,40.4c-3.8,3-7.3,6.9-9.5,11.3c-0.2,0.5,0.4,0.9,0.7,0.4c2.7-4.2,5.5-7.9,9.2-11.3
			C52,40.6,51.6,40.2,51.4,40.4L51.4,40.4z"/>
	</g>
	<g>
		<path class="st0" d="M52.4,46.9c-4.2,3-7.9,6.8-10.5,11.2c-0.3,0.5,0.4,0.9,0.7,0.4c2.9-4.3,6-8.1,10.1-11.2
			C53,47.1,52.7,46.7,52.4,46.9L52.4,46.9z"/>
	</g>
	<g>
		<path class="st0" d="M53.3,51.3c-3.8,3.4-7.4,7.2-10.5,11.2c-0.3,0.4,0.4,1,0.8,0.6c3.3-3.8,6.6-7.7,10-11.4
			C53.9,51.5,53.5,51.1,53.3,51.3L53.3,51.3z"/>
	</g>
	<g>
		<path class="st0" d="M52.5,57.4c-3.3,2.8-6.8,5.8-9.4,9.3c-0.3,0.4,0.3,0.8,0.7,0.5c3.2-3,6-6.4,9.2-9.4
			C53.3,57.6,52.8,57.2,52.5,57.4L52.5,57.4z"/>
	</g>
	<g>
		<path class="st0" d="M52.4,62.1c-2.8,2-5.2,4.6-7.4,7.2c-0.8,1-3.5,3.3-2.1,4.7c0.2,0.2,0.4,0.2,0.6,0.1c0.1,0,0.1-0.1,0.2-0.1
			c0.5-0.2,0.1-1-0.4-0.9c0.6-0.1,1.8-2.5,2.3-3.1c0.7-0.9,1.5-1.7,2.2-2.6c1.5-1.7,3.2-3.2,4.8-4.8C53.1,62.4,52.8,61.9,52.4,62.1
			L52.4,62.1z"/>
	</g>
	<g>
		<path class="st0" d="M52.2,68.9c-2.1,1.7-4,3.6-5.6,5.8c-0.9,1.2-3.2,3.7-2.8,5.4c0,0.1,0.2,0.3,0.3,0.3c0.4,0.1,0.5,0,0.8-0.2
			c0.1-0.1,0.2-0.3,0.1-0.4c0,0,0-0.1-0.1-0.1c-0.2-0.5-1-0.3-0.9,0.2c0.1,0.4,1-0.9,1-0.9c0.3-0.5,0.6-1.1,0.9-1.6
			c0.6-0.9,1.2-1.8,1.8-2.7c1.4-1.9,3-3.7,4.7-5.3C52.8,69,52.5,68.7,52.2,68.9L52.2,68.9z"/>
	</g>
	<g>
		<path class="st0" d="M53.9,75c-4.1,3-8.1,7.4-10.3,12c-0.3,0.6,0.5,1,0.8,0.5c1.6-2.3,2.9-4.6,4.7-6.7c1.6-1.9,3.4-3.6,5.2-5.3
			C54.5,75.3,54.2,74.8,53.9,75L53.9,75z"/>
	</g>
	<g>
		<path class="st0" d="M53.3,82.8c-3.8,3.4-7.6,7.5-10.5,11.6c-0.3,0.5,0.4,1,0.8,0.6c3.5-3.7,6.9-7.8,10.2-11.8
			C53.9,82.9,53.6,82.6,53.3,82.8L53.3,82.8z"/>
	</g>
	<g>
		<path class="st0" d="M52.3,89.7c-3.4,3.6-7,7.3-10,11.2c-0.3,0.5,0.4,1,0.8,0.6c3.5-3.4,6.6-7.5,9.7-11.3
			C53.2,89.8,52.7,89.3,52.3,89.7L52.3,89.7z"/>
	</g>
	<g>
		<path class="st0" d="M52.4,96.2c-2.8,2.7-5.5,5.7-8.1,8.5c-0.6,0.6-2.6,3.1-0.3,3c0.2,0,0.4-0.1,0.5-0.3c0-0.1,0.1-0.2,0.1-0.2
			c0.3-0.7-0.6-1.2-1-0.6c0.7-0.3,1.3-0.8,1.8-1.4c0.4-0.4,0.7-0.8,1.1-1.2c0.7-0.8,1.4-1.6,2.2-2.4c1.4-1.6,2.9-3.2,4.3-4.9
			C53.3,96.3,52.8,95.8,52.4,96.2L52.4,96.2z"/>
	</g>
	<g>
		<path class="st0" d="M52.4,101.5c-3.8,3.9-8.2,7.7-11.4,12.1c-0.3,0.4,0.3,0.8,0.7,0.5c4.1-3.5,7.7-8,11.3-12
			C53.3,101.7,52.7,101.1,52.4,101.5L52.4,101.5z"/>
	</g>
	<g>
		<path class="st0" d="M50.7,109c-3.2,3.5-6.7,7-9.5,10.8c-0.3,0.5,0.4,1,0.8,0.6c3.3-3.3,6.3-7.2,9.2-10.9
			C51.5,109.2,51,108.7,50.7,109L50.7,109z"/>
	</g>
	<g>
		<path class="st0" d="M51.9,113.8c-3.8,3.9-7.6,8-10.7,12.5c-0.4,0.6,0.5,1.3,1,0.7c3.4-4.3,6.7-8.6,10.4-12.6
			C53,114.1,52.4,113.4,51.9,113.8L51.9,113.8z"/>
	</g>
	<g>
		<path class="st0" d="M87.5,18.5c-10-0.7-28-2.1-31.1,10.8c-0.1,0.6,0.7,0.8,0.9,0.2c2.9-12.3,20.4-10.8,30.2-10.8
			C87.6,18.8,87.6,18.5,87.5,18.5L87.5,18.5z"/>
	</g>
	<g>
		<path class="st0" d="M96.6,19.3c17,0.3,34.1-0.3,51.1-0.7c0.4,0,0.4-0.7,0-0.7c-17,0.1-34.1-0.1-51.1,0.6
			C96.1,18.6,96.1,19.3,96.6,19.3L96.6,19.3z"/>
	</g>
	<g>
		<path class="st0" d="M158.3,18.8c15.6,0.4,31.2-0.1,46.8-1.5c0.5-0.1,0.5-0.9,0-0.8c-15.6,1.2-31.1,1.8-46.8,1.8
			C157.9,18.2,157.9,18.8,158.3,18.8L158.3,18.8z"/>
	</g>
	<g>
		<path class="st0" d="M309.6,71.3c14.8,15.6,34.3,25,55.8,26.1c0.8,0,0.8-1.2,0-1.2C344.4,95.2,324.5,85.9,309.6,71.3
			C309.6,71.2,309.5,71.3,309.6,71.3L309.6,71.3z"/>
	</g>
	<g>
		<path class="st0" d="M373.3,95.2c8.8,1,18.3-4.6,26.1-8.3c0.8-0.4,0.1-1.5-0.7-1.2c-8,3.5-16.4,9.5-25.4,9.2
			C373.1,94.9,373.1,95.2,373.3,95.2L373.3,95.2z"/>
	</g>
	<g>
		<path class="st0" d="M412,81.1c8.2-2.1,15.7-2.9,23.6,0.7c0.6,0.3,1.1-0.6,0.5-0.9c-7.5-3.8-16.7-3.5-24.3-0.1
			C411.7,80.9,411.8,81.2,412,81.1L412,81.1z"/>
	</g>
	<g>
		<path class="st0" d="M439.8,83.9c2,1.4,3.7,3.8,5.4,5.5c1.8,1.8,3.3,3.8,4.4,6.1c0.2,0.5,1,0.1,0.9-0.4c-0.8-2.4-2.4-4.4-4.2-6.3
			c-1.8-1.8-3.8-4.4-6.2-5.5C439.7,83.3,439.5,83.7,439.8,83.9L439.8,83.9z"/>
	</g>
	<g>
		<path class="st0" d="M259.8,16c7.2-0.4,13.5,0,20,3.6c3.2,1.7,6.4,3.6,8.4,6.7c1.8,2.8,2.4,6.2,3.3,9.3c0.2,0.8,1.4,0.5,1.3-0.4
			c-1.6-7.8-4.5-12.6-11.5-16.5c-7.1-4-13.5-4.1-21.4-2.9C259.7,15.9,259.7,16,259.8,16L259.8,16z"/>
	</g>
	<g>
		<path class="st0" d="M197.3,49.3c7.6-0.3,15.3-0.6,22.9-0.7c3.5,0,7.1,0,10.6,0c3.5,0,11.8-1.3,13.6,2.6c0.1,0.2,0.5,0.1,0.4-0.2
			c-0.7-1.7-1.8-2.3-3.5-2.7c-4.1-0.9-9-0.5-13.1-0.6c-10.3-0.1-20.6,0.2-30.9,1C196.9,48.7,196.9,49.3,197.3,49.3L197.3,49.3z"/>
	</g>
	<g>
		<path class="st0" d="M241.8,51.7c-2,0-3.9,0-5.9,0c0,0,0,0,0,0C237.9,51.7,239.9,51.7,241.8,51.7
			C241.8,51.7,241.8,51.7,241.8,51.7L241.8,51.7z"/>
	</g>
	<g>
		<path class="st0" d="M108.9,62.2c30.6-0.7,61.2-1.9,91.7-3.7c0.6,0,0.6-0.9,0-0.9c-30.6,1.5-61.1,2.9-91.7,4.4
			C108.7,61.9,108.7,62.2,108.9,62.2L108.9,62.2z"/>
	</g>
	<g>
		<path class="st0" d="M67.5,85.7c30.4-2,60.8-3.9,91.1-6.3c0.6,0,0.6-1,0-1c-30.4,1.9-60.7,4.4-91.1,6.7
			C67.2,85.2,67.2,85.8,67.5,85.7L67.5,85.7z"/>
	</g>
	<g>
		<path class="st0" d="M193.3,80.5c33.6-1.6,67.3-2.4,100.9-2c0.2,0,0.2-0.4,0-0.4c-33.7-0.8-67.3-0.3-100.9,2
			C193.1,80.2,193.1,80.5,193.3,80.5L193.3,80.5z"/>
	</g>
	<g>
		<path class="st0" d="M73.5,43.9c3.3-0.1,28.2-3.2,28.6,0.2c0,0.3,0.5,0.2,0.5-0.1c0.2-3.6-5.4-2.2-7.5-2.1
			c-7.2,0.5-14.5,1-21.7,1.6C73.3,43.6,73.3,43.9,73.5,43.9L73.5,43.9z"/>
	</g>
	<g>
		<path class="st0" d="M141.5,33.7c4-0.4,7.9-0.7,11.9-0.9c3.7-0.1,8.3-0.7,12,0.1c1.8-0.3,3.1,0.5,4.1,2.1
			c-0.6,0.1-1.2,0.3-1.7,0.4c-1.7,1-5,1-7,1.3c-4.6,0.7-9.3,1.1-13.9,1.3c-0.6,0-0.6,0.9,0,0.9c8.3-0.2,16.5-1.4,24.6-3.3
			c0.2,0,0.3-0.2,0.3-0.3c1-6.6-26.5-2.5-30.4-2C141.2,33.3,141.2,33.7,141.5,33.7L141.5,33.7z"/>
	</g>
	<g>
		<path class="st0" d="M203.8,31.2c14.8,0,29.7-1.2,44.5-2c0.6,0,0.6-0.9,0-0.9c-14.8,0.7-29.8,1.1-44.5,2.6
			C203.6,30.9,203.6,31.2,203.8,31.2L203.8,31.2z"/>
	</g>
	<g>
		<path class="st0" d="M339.3,118.3c15.4-4,31.2-2.6,45.8,3.5c0.4,0.2,0.7-0.6,0.3-0.7c-14.6-6.6-30.9-7.5-46.2-3
			C339.1,118.1,339.2,118.4,339.3,118.3L339.3,118.3z"/>
	</g>
	<g>
		<path class="st0" d="M403.4,128.1c6.5,2.8,13.5,4.1,20.5,4.3c0.6,0,0.6-0.9,0-1c-7-0.5-13.6-2-20.2-4.1
			C403.3,127.1,402.9,127.9,403.4,128.1L403.4,128.1z"/>
	</g>
	<g>
		<path class="st0" d="M385.3,105.3c7.1-2.2,14.2-2.2,21.3,0.1c0-0.3-0.1-0.7-0.1-1c-3.4,2-6.7,2.6-10.5,1.8
			c-0.5-0.1-0.7,0.6-0.2,0.7c4,0.9,7.7,0.4,11.3-1.6c0.4-0.2,0.3-0.8-0.1-1c-7.2-2.2-14.6-2.1-21.7,0.5
			C384.8,104.9,384.9,105.4,385.3,105.3L385.3,105.3z"/>
	</g>
	<g>
		<path class="st0" d="M434.3,86.8c1.8,1.1,3.5,2.2,5.3,3.3c0.1,0,0.1-0.1,0.1-0.1c-1.8-1.1-3.5-2.2-5.3-3.3
			C434.3,86.6,434.2,86.7,434.3,86.8L434.3,86.8z"/>
	</g>
	<g>
		<path class="st0" d="M449.4,104.1c1.3,2.2,1.1,5-0.4,7.1c-0.1,0.1,0.1,0.3,0.2,0.1c1.6-2.2,1.7-5,0.3-7.3
			C449.5,103.9,449.3,104,449.4,104.1L449.4,104.1z"/>
	</g>
	<g>
		<path class="st0" d="M447.5,108.2c0-0.5,0-0.9,0-1.4c0-0.1-0.1-0.1-0.1,0C447.5,107.3,447.5,107.7,447.5,108.2
			C447.5,108.2,447.5,108.2,447.5,108.2L447.5,108.2z"/>
	</g>
	<g>
		<path class="st0" d="M87.9,185.9c28.4,0.5,56.8-0.4,85.2-2.7c0.7-0.1,0.7-1.1,0-1c-28.3,2.3-56.7,3.4-85.2,3.1
			C87.5,185.3,87.5,185.9,87.9,185.9L87.9,185.9z"/>
	</g>
	<g>
		<path class="st0" d="M186.9,183.9c7.3-1.1,14.5-1,21.6,0.9c5.6,1.5,10.6,5,16.6,4.2c6.3-0.9,12.2-2.1,18.6-2.1
			c6.8-0.1,13.6,0.5,20.4,1c0.6,0,0.6-0.9,0-0.9c-6.8-0.6-13.6-1.1-20.4-1c-3.4,0-6.8,0.2-10.1,0.6c-3.4,0.4-6.8,1.5-10.2,1.6
			c-3.9,0.1-7.1-1.8-10.6-3.1c-3.1-1.1-6.3-1.9-9.5-2.4c-5.5-0.8-11.1-0.6-16.5,0.6C186.3,183.3,186.5,183.9,186.9,183.9
			L186.9,183.9z"/>
	</g>
	<g>
		<path class="st0" d="M251.6,99.6c-4.8-0.5-8.9,0.6-12.9,3.2c-0.2,0.1-0.3,0.4-0.1,0.5c2.5,3.8,9.8,2.9,13.6,3.3
			c8.3,0.7,16.6,1.1,25,1.3c0.5,0,0.5-0.8,0-0.9c-8-0.2-16.1-0.6-24.1-1.3c-2.1-0.2-4.2-0.3-6.2-0.5c-1.5-0.1-4.3,0.1-5.5-0.7
			c-4.2-3,8.8-4.6,10.3-4.5C252,100.1,251.9,99.6,251.6,99.6L251.6,99.6z"/>
	</g>
	<g>
		<path class="st0" d="M169.9,119.3c-3.4,1-7,1.6-10.6,1.6c-3.7,0-7-1.1-10.6-1.7c-2.4-0.4-4.4,0.1-6.7,0.5c-3.6,0.7-7.3,1-10.9,1
			c-12.2,0-24.6-2.5-36.4,1.8c-0.5,0.2-0.5,0.7-0.1,1c2.1,1.6,4.4,2,7,2.4c4.7,0.7,9.5,1.1,14.2,1.5c9.2,0.9,18.4,1.4,27.7,1.8
			c18.8,0.7,37.6,0.3,56.3-1.3c0.7-0.1,0.7-1.1,0-1.1c-31.3,2.3-62.6,2.2-93.8-1.4c-2.2-0.2-4.6-0.3-6.7-0.9
			c-0.4-0.1-0.8-0.2-1.2-0.3c-2.2-1-2.2-1.5-0.1-1.7c3.2-1.6,8-1.5,11.5-1.6c6.9-0.1,13.9,0.7,20.8,0.8c3,0,5.9-0.1,8.9-0.5
			c1.6-0.2,3.2-0.6,4.7-0.9c3.1-0.5,5.4,0.1,8.4,0.7c6,1.4,12,0.9,17.8-1.1C170.6,119.9,170.4,119.2,169.9,119.3L169.9,119.3z"/>
	</g>
	<g>
		<path class="st0" d="M194.7,97c-7.4,0-14.8,0-22.3,0c-0.1,0-0.1,0.2,0,0.2c7.4,0,14.8,0,22.3,0C194.7,97.1,194.7,97,194.7,97
			L194.7,97z"/>
	</g>
	<g>
		<path class="st0" d="M141.6,162.7c-10.6-1.2-21.5-1.4-32.1-1.4c-9-0.1-17.9,0.8-26.1,4.9c-0.1,0.1-0.1,0.3,0,0.3
			c14.2,2,28.5,1.6,42.5-1.4c0.3-0.1,0.2-0.6-0.1-0.5c-8.4,1.6-16.8,2.6-25.3,2.7c-4,0-8-0.2-11.9-0.5c-1.1-0.1-2.3-0.2-3.4-0.3
			c0.7-0.9,1.6-1.5,2.7-1.7c1.6-0.7,3.6-1,5.3-1.4c15.8-3.1,32.4-0.1,48.4-0.3C141.8,163,141.8,162.7,141.6,162.7L141.6,162.7z"/>
	</g>
	<g>
		<path class="st0" d="M288.5,134.2c-7.2-1.2-15.3,0.8-22.4,1.6c-8.7,0.9-17.4,1.7-26.1,2.6c-0.2,0-0.2,0.4,0,0.4
			c8.1-0.8,16.2-1.8,24.3-2.6c7.6-0.8,16.5-3,24.1-1.7C288.6,134.5,288.6,134.3,288.5,134.2L288.5,134.2z"/>
	</g>
	<g>
		<path class="st0" d="M83.9,101.2c2.2-0.3,4.4-0.2,6.5,0.6c1.5,0.5,4.1,3.4,5.7,3.4c1.1,0,1.2-0.4,2.1-1c2.4-1.5,3.7-3.6,6.9-3.9
			c1.3-0.1,2.5-0.1,3.8-0.1c4.8,0,9.6,0,14.4-0.1c0.5,0,0.5-0.8,0-0.8c-5,0-10-0.1-15,0.2c-2.7,0.1-5.6,0.5-8,1.9
			c-0.9,0.5-1.8,1.9-2.7,2.3c-2,0.8-3.9-1.2-5.7-1.9c-2.6-1-5.3-1.1-8-0.6C83.8,101.1,83.8,101.2,83.9,101.2L83.9,101.2z"/>
	</g>
	<g>
		<path class="st0" d="M73,56.3c0.8,1.1,1.4,2.2,1.8,3.5c0.4,1.3,0.2,2.7,0.4,4c0.1,0.8,0.5,1.4,1.4,1.3c1.1-0.1,1.6-1.6,1.7-2.5
			c0.3-2.4-2.1-7.4,1.4-8.3c0.5-0.1,0.3-0.9-0.2-0.8c-3,0.6-2.5,4.3-2.1,6.6c0.2,1.1,0.3,1.8,0,2.9c0.1,1.1-0.2,1.3-0.9,0.9
			c-0.6,0-0.8-0.2-0.6-0.7c-0.2-0.7,0-1.7-0.2-2.5c-0.4-1.7-1.2-3.2-2.5-4.4C73.1,56,72.9,56.1,73,56.3L73,56.3z"/>
	</g>
	<g>
		<path class="st0" d="M216.2,139.8c2.5,0.5,2.1,3.7,2.6,5.6c0.2,0.7,0.5,1.8,1.4,1.7c0.9,0,1.2-1.3,1.3-2c0.3-1.7-0.4-5.8,2.4-5.8
			c0.4,0,0.4-0.6,0-0.6c-1.1,0-1.9,0.7-2.4,1.7c-0.3,0.6-0.4,1.3-0.5,1.9c-0.1,0.8,0.3,2.7-0.2,3.4c-1.5,1.9-1.8-2-1.9-2.6
			c-0.1-0.6-0.2-1.2-0.5-1.7c-0.4-1-1.1-1.7-2.2-1.9C216.1,139.6,216.1,139.8,216.2,139.8L216.2,139.8z"/>
	</g>
	<g>
		<path class="st0" d="M323.1,98.9c0,1.4-0.7,2.2-2.4,2.3c0.1-0.7,0-1.3-0.1-2c-0.1-0.4-0.3-0.8-0.6-1.1c-1.3-1.4-4.3-0.8-5.8-0.9
			c-8.2-0.3-16.3-0.7-24.5,0.5c-0.4,0.1-0.2,0.6,0.1,0.5c5.5-0.9,11-1.1,16.5-0.9c2.6,0.1,5.3,0.1,7.9,0.5c1.6,0.3,4.7,0.9,5.6,2.4
			c0.2,0.4-0.1,1.7,0.1,2.1c1.4,4.4,3.1-1.9,3.4-3.3C323.4,98.8,323.1,98.8,323.1,98.9L323.1,98.9z"/>
	</g>
	<g>
		<path class="st0" d="M325.1,128.3c-7.3,1.8-9.7,10-14.7,14.8c-0.3,0.3,0.1,0.7,0.4,0.4C315.8,138.7,318.2,130.8,325.1,128.3
			C325.2,128.4,325.2,128.3,325.1,128.3L325.1,128.3z"/>
	</g>
	<g>
		<path class="st0" d="M225.7,170.2c8.8-3.3,17.6-1.2,26.7-1c8.7,0.2,17-2.8,25.6-2.3c0.4,0,0.4-0.6,0-0.7c-9.4-1.1-18.6,2.4-28,1.8
			c-8.2-0.5-16.7-1.7-24.4,1.8C225.3,169.9,225.5,170.3,225.7,170.2L225.7,170.2z"/>
	</g>
	<g>
		<path class="st0" d="M172.3,155.9c6.8,0.6,13.7,0.5,20.5-0.3c0.3,0,0.3-0.4,0-0.4C186,156,179.1,156.2,172.3,155.9
			C172.3,155.9,172.3,155.9,172.3,155.9L172.3,155.9z"/>
	</g>
	<g>
		<path class="st0" d="M284.1,63.5c3.2,0.2,6.4,0.2,9.6-0.1c0.2,0,0.2-0.3,0-0.3C290.5,63.4,287.3,63.5,284.1,63.5
			C284.1,63.4,284.1,63.5,284.1,63.5L284.1,63.5z"/>
	</g>
	<g>
		<path class="st0" d="M247.6,65.7c6.4,0.2,12.8,0.2,19.2-0.2c0.3,0,0.3-0.5,0-0.5c-6.4,0.4-12.8,0.5-19.2,0.4
			C247.4,65.4,247.4,65.7,247.6,65.7L247.6,65.7z"/>
	</g>
	<g>
		<path class="st0" d="M267.7,44.5c5.1,0.2,10.3-0.1,15.4-0.3c0.6,0,0.6-0.9,0-0.9c-5.1,0.1-10.3,0.1-15.4,0.6
			C267.4,44,267.4,44.5,267.7,44.5L267.7,44.5z"/>
	</g>
	<g>
		<path class="st0" d="M294.1,42.7c0.7,7.5,4.3,14.4,9.4,19.9c0.4,0.5,1.1-0.2,0.7-0.7c-5-5.6-7.9-12-9.9-19.2
			C294.3,42.6,294.1,42.6,294.1,42.7L294.1,42.7z"/>
	</g>
	<g>
		<path class="st0" d="M69.7,145.8c10.7-0.1,21.4-1.2,32.2-1.5c0.6,0,0.6-1,0-1c-10.8,0-21.4,1.5-32.2,2.1
			C69.5,145.6,69.5,145.8,69.7,145.8L69.7,145.8z"/>
	</g>
	<g>
		<path class="st0" d="M268,153.2c10.6-1.8,21.1-2.8,31.8-2.6c0.4,0,0.4-0.6,0-0.6c-10.7-0.3-21.4,0.5-31.9,2.8
			C267.6,152.8,267.7,153.2,268,153.2L268,153.2z"/>
	</g>
</g>
</svg>
