<?xml version="1.0" encoding="utf-8"?>
<!-- Generator: Adobe Illustrator 23.0.1, SVG Export Plug-In . SVG Version: 6.00 Build 0)  -->
<!DOCTYPE svg PUBLIC "-//W3C//DTD SVG 1.1//EN" "http://www.w3.org/Graphics/SVG/1.1/DTD/svg11.dtd" [
	<!ENTITY ns_extend "http://ns.adobe.com/Extensibility/1.0/">
	<!ENTITY ns_ai "http://ns.adobe.com/AdobeIllustrator/10.0/">
	<!ENTITY ns_graphs "http://ns.adobe.com/Graphs/1.0/">
	<!ENTITY ns_vars "http://ns.adobe.com/Variables/1.0/">
	<!ENTITY ns_imrep "http://ns.adobe.com/ImageReplacement/1.0/">
	<!ENTITY ns_sfw "http://ns.adobe.com/SaveForWeb/1.0/">
	<!ENTITY ns_custom "http://ns.adobe.com/GenericCustomNamespace/1.0/">
	<!ENTITY ns_adobe_xpath "http://ns.adobe.com/XPath/1.0/">
]>
<svg version="1.1" id="Layer_1" xmlns:x="&ns_extend;" xmlns:i="&ns_ai;" xmlns:graph="&ns_graphs;"
	 xmlns="http://www.w3.org/2000/svg" xmlns:xlink="http://www.w3.org/1999/xlink" x="0px" y="0px" viewBox="0 0 231 131.7"
	 style="enable-background:new 0 0 231 131.7;" xml:space="preserve">
<style type="text/css">
	.st0{fill:#3C2517;}
</style>
<metadata>
	<sfw  xmlns="&ns_sfw;">
		<slices></slices>
		<sliceSourceBounds  bottomLeftOrigin="true" height="132.2" width="233.1" x="128" y="-185.4"></sliceSourceBounds>
	</sfw>
</metadata>
<g>
	<g>
		<g>
			<path class="st0" d="M131,69.4c-4.8,5.1-6.9,11.9-10.3,17.9c-3.8,6.7-9.6,11.9-15.7,16.5c-0.6,0.4-0.8,1.5,0,1.9
				c13,6,23.6,15.5,34.1,25c0.6,0.5,1.2,0.3,1.7-0.2c9.5-12.6,18.8-26.4,31.8-35.6c1-0.7,0.1-2.4-1-1.7c-13.5,8.9-22.6,23.5-32.5,36
				c0.5,0,1,0,1.5,0c-10.5-9.8-21.5-19.3-34.6-25.3c0,0.6,0,1.3,0,1.9c5.8-4.4,11.6-9.4,15.5-15.7c3.9-6.4,5.7-13.8,10.3-19.9
				C132.2,69.5,131.4,68.9,131,69.4L131,69.4z"/>
		</g>
		<g>
			<path class="st0" d="M104.2,105.3c-3.5,8.5,7.1,17.2,13.3,21.1c3.9,2.4,8.3,4.5,12.9,5.3c3.6,0.7,8.1,0.9,10.8-2
				c0.6-0.7-0.2-2-1-1.4c-6.2,4.5-15.6,0-21.3-3.4c-3.2-1.9-6.2-4.3-8.8-7.1c-3-3.2-6.2-7.7-4.9-12.3
				C105.2,105,104.4,104.8,104.2,105.3L104.2,105.3z"/>
		</g>
		<g>
			<path class="st0" d="M165.3,101.1c6.4,7.8,17.2,9.9,26.7,10.9c5.7,0.6,11.1,0.5,16.3-2.2c4.7-2.4,8.5-6.3,12-10.2
				c3.6-4.1,7.1-8.5,9.4-13.4c2.5-5.2,3.4-10.7,3.4-16.4c0-11.4-1-23.9-6.1-34.3c-4.6-9.5-12.7-17-21.4-22.8
				c-8.7-5.7-18.7-9.8-29-11.6c-10.2-1.8-20.8-1.5-30.7,1.4c-10.8,3.2-21.2,9.6-30.3,16.2c-4.8,3.5-8,7.7-9.8,13.4
				c-2,6.1-3.9,13-3.6,19.5c0.3,5.4,2.4,10.9,6.8,14.3c2.3,1.8,4.9,2.9,7.5,4.1c3.4,1.6,6.9,3.1,10.3,4.7c1.2,0.5,2.2-1.2,1-1.8
				c-5-2.3-10.3-4.3-15.1-7c-4.7-2.6-7.5-7-8.3-12.4c-0.8-5.7,0.8-11.4,2.2-16.9c1.4-5.3,3.1-10.3,7.3-14.1c3.8-3.4,8.4-6,12.7-8.6
				c4.8-2.9,9.7-5.7,14.9-7.8c9-3.6,18.8-4.8,28.5-4c19.1,1.7,39,11.4,50.7,26.8c6.6,8.7,9,19.1,9.9,29.8c0.5,5.4,0.9,10.9,0.3,16.4
				c-0.6,5.6-2.9,10.8-6.1,15.4c-3.2,4.7-7.1,9.2-11.3,12.9c-4.8,4.2-10.1,6.5-16.5,6.4c-10.6-0.2-22.8-2.2-30.9-9.6
				C165.5,100.1,165,100.7,165.3,101.1L165.3,101.1z"/>
		</g>
		<g>
			<path class="st0" d="M141.2,54.6c1.5-1.8,1.4-4.4-0.1-6.2c-1.9-2.3-5.1-2.2-7.6-1.1c-3,1.3-4.8,3.7-5.9,6.7
				c-0.8,2.2-1.5,5.1-4,5.9c-2.7,0.9-4.6-2-5.4-4.2c-2.9-8.9,6.1-15.3,13.5-17.4c4.6-1.3,10-1.5,13.9,1.7c3.4,2.7,3.9,7.5,0.3,10.3
				c-0.9,0.7,0.3,2.1,1.2,1.5c5.1-3.2,3.9-10.2-0.3-13.6c-5.6-4.4-13.3-3.3-19.4-0.7c-5.9,2.5-11.2,7.3-11.7,14.1
				c-0.3,4.7,3.5,12.9,9.4,9.5c3.5-2,3.4-6.3,5.4-9.3c1.4-2,3.8-3.6,6.3-3.7c3-0.1,5,3,3.4,5.6C139.9,54.5,140.7,55.1,141.2,54.6
				L141.2,54.6z"/>
		</g>
		<g>
			<path class="st0" d="M178.1,73.6c1.9-1.1,4.4-1.1,6.2,0.2c2,1.3,2.3,4.1,2,6.2c-0.2,2.2-1.2,4.4-2.7,6.1c-1.3,1.6-3,2.5-4.6,3.7
				c-2.1,1.7-2.6,4.3-0.8,6.5c2,2.5,5.6,3.1,8.6,2.6c7.2-1.1,12.1-8,14.7-14.3c2.7-6.4,2.7-14.4-3-19.2c-5.4-4.7-14.3-3.7-18.7,1.9
				c-0.8,1,0.6,2.4,1.4,1.4c4.4-5.3,12.8-5.9,17.3-0.4c4.9,6.1,2.4,14.2-1.4,20.1c-1.8,2.9-4.1,5.7-7.2,7.3
				c-1.6,0.8-3.3,1.2-5.1,1.2c-1.9,0-5.1-0.8-5.7-3c-0.5-2.1,2-3.1,3.4-4.1c1.2-0.8,2.2-1.8,3-3c1.6-2.2,2.6-4.8,2.7-7.6
				c0.1-2.7-0.8-5.5-3.2-7c-2.3-1.4-5.4-1.2-7.6,0.3C177,73.1,177.5,73.9,178.1,73.6L178.1,73.6z"/>
		</g>
		<g>
			<path class="st0" d="M159.7,41.3c-0.2,1.6-0.6,2.9-1.2,4.4c-0.1,0.2,0.1,0.6,0.4,0.5c4.8-1.7,9.5-3.7,14.3-5.4
				c-0.1-0.2-0.2-0.3-0.3-0.5c-1.3,2.2-2.5,4.4-3.7,6.6c-0.2,0.3,0.1,0.6,0.4,0.7c1.3,0.2,2.3-0.1,3.4-0.7c-0.2-0.1-0.4-0.2-0.6-0.4
				c0.2,1.5,0.3,2.9,0.5,4.4c0,0.3,0.3,0.5,0.6,0.4c1.6-0.2,3.2-0.5,4.8-0.7c-0.2-0.2-0.4-0.4-0.6-0.6c-0.4,1.2-0.8,2.3-1.3,3.5
				c-0.1,0.4,0.3,0.7,0.6,0.6c2.3-0.6,4.6-1.1,6.9-1.7c0.9-0.2,1.7-0.4,2.6-0.6c0.6-0.1,1.2-0.3,1.7-0.4c1.2,0.4,1.3,1,0.5,1.6
				c-0.3,0.9-1.5,2-2.1,2.8c-0.5,0.7-1,1.4-1.6,2.1c-1.5,2-3.1,4.1-4.7,6.1c-0.2,0.2-0.2,0.7,0.2,0.8c1.4,0.2,2.5,0.2,3.8-0.3
				c-0.2-0.1-0.4-0.3-0.7-0.4c0.1,0.6,0.3,1.3,0.5,1.9c0.2,0.7,1.2,0.4,1-0.3c-0.1-0.6-0.3-1.3-0.4-1.9c-0.1-0.3-0.4-0.5-0.7-0.4
				c-1.1,0.4-2.2,0.5-3.4,0.4c0.1,0.3,0.2,0.5,0.3,0.8c2.2-2.7,4.4-5.4,6.5-8.1c0.9-1.1,3.7-3.7,3.1-5.3c-0.5-1.5-2.6-0.8-3.6-0.6
				c-3.5,0.8-6.9,1.7-10.4,2.5c0.2,0.2,0.4,0.4,0.6,0.6c0.4-1.2,0.8-2.3,1.2-3.5c0.1-0.4-0.3-0.7-0.6-0.6c-0.6,0.1-3.4,1-3.9,0.7
				c-0.9-0.5-0.7-3-0.8-3.9c0-0.3-0.4-0.4-0.6-0.2c-0.8,0.6-1.8,0.8-2.8,0.6c0.1,0.2,0.2,0.4,0.3,0.6c1.2-2.2,2.4-4.5,3.5-6.7
				c0.1-0.2-0.1-0.6-0.3-0.5c-4.7,1.9-9.5,3.5-14.3,5.3c0.1,0.1,0.3,0.3,0.4,0.4c0.5-1.5,0.8-3,0.8-4.6
				C159.9,41.2,159.7,41.2,159.7,41.3L159.7,41.3z"/>
		</g>
		<g>
			<path class="st0" d="M150.2,42.8c0,0-0.1,0-0.1,0c-0.1,0-0.2,0-0.3,0.2c-0.1,0.1-0.1,0.2,0,0.3c0.1,0.2,0.2,0.3,0.4,0.2
				c1.9-0.4,3.5-1.2,5.4-1.4c-0.2-0.3-0.3-0.6-0.5-0.8c-0.5,1.1-1,2.2-1.4,3.3c-0.2,0.5-0.4,1.1-0.1,1.6c0.7,1.4,3.1,0.3,4.1,0
				c0.7-0.2,0.4-1.2-0.3-1.1c-0.5,0.1-1,0.2-1.5,0.3c-0.8,0.2-1.2,0.4-1-0.6c0.2-1,0.9-2.1,1.3-3.1c0.1-0.3-0.2-0.7-0.5-0.7
				c-1,0.1-2,0.3-2.9,0.7c-0.9,0.3-1.8,1-2.7,1.2c0.1,0.1,0.2,0.2,0.3,0.3c0,0,0,0-0.1,0C150.4,43.2,150.5,42.9,150.2,42.8
				L150.2,42.8z"/>
		</g>
		<g>
			<path class="st0" d="M114,68.5c1.8-0.3,3.8,0.5,5.7,0.2c1.6-0.3,3.1-0.8,4.3-1.9c3-2.4,2.2-6.4,4.7-9.1c0.6-0.7-0.3-1.6-1-1
				c-2.5,2.1-1.9,5.6-3.7,8.1c-1.2,1.6-3,2.5-4.9,2.8c-1.7,0.3-3.5-0.2-5.2,0.3C113.4,68,113.6,68.5,114,68.5L114,68.5z"/>
		</g>
		<g>
			<path class="st0" d="M178,91.3c-2.6,2.3-3.5,7.6-3,10.9c0.6,3.7,3.8,6.9,7.1,8.5c1,0.5,1.7-0.8,0.8-1.4c-2.7-1.8-5.5-3.7-6.4-7.1
				c-0.8-3,0-7.9,1.9-10.4C178.8,91.4,178.3,91.1,178,91.3L178,91.3z"/>
		</g>
		<g>
			<path class="st0" d="M116.2,112.2c0.9,3.7,4.3,6.6,7.7,8c0.5,0.2,0.9-0.7,0.4-0.9c-3.4-1.7-5.7-4-7.4-7.4
				C116.6,111.6,116.1,111.8,116.2,112.2L116.2,112.2z"/>
		</g>
		<g>
			<path class="st0" d="M131.6,124.1c-5-0.1-9.4-1.2-13.5-4.2c-0.4-0.3-0.8,0.3-0.5,0.7c3.6,3.4,9.2,5,14,3.9
				C131.8,124.4,131.7,124.1,131.6,124.1L131.6,124.1z"/>
		</g>
		<g>
			<path class="st0" d="M107.9,107c-1.3,4.4,1.9,8.5,4.8,11.5c0.3,0.4,0.8-0.2,0.5-0.5c-2.6-3.3-5.6-6.4-5.1-10.9
				C108.2,106.8,107.9,106.8,107.9,107L107.9,107z"/>
		</g>
		<g>
			<path class="st0" d="M110.3,109.1c0.4,2.3,1.5,4.5,3,6.3c0.2,0.3,0.7,0,0.6-0.3c-0.2-0.7-0.3-1.4-0.5-2c-0.1-0.3-0.6-0.2-0.5,0.1
				c0.1,0.7,0.2,1.4,0.3,2.1c0.2-0.1,0.4-0.2,0.6-0.3c-1.5-1.8-2.5-3.7-3.2-5.8C110.5,108.8,110.3,108.9,110.3,109.1L110.3,109.1z"
				/>
		</g>
		<g>
			<path class="st0" d="M120.7,114.8c0.7,1.3,1.7,2.3,3,3.1c0.3,0.2,0.6-0.3,0.3-0.5c-1.2-0.7-2.2-1.6-2.9-2.8
				C120.9,114.4,120.6,114.6,120.7,114.8L120.7,114.8z"/>
		</g>
		<g>
			<path class="st0" d="M124.5,126.4c4.3,1.4,8.9,1.8,13.5,1.6c0.5,0,0.5-0.9,0-0.8c-4.5,0.2-8.9-0.3-13.3-1.3
				C124.3,125.8,124.1,126.3,124.5,126.4L124.5,126.4z"/>
		</g>
		<g>
			<path class="st0" d="M152.1,53c-6.6,6.1-12.7,13.2-17.2,21c-0.3,0.5,0.4,0.9,0.8,0.4c5.1-7.5,10.4-14.6,16.7-21.2
				C152.5,53.1,152.3,52.9,152.1,53L152.1,53z"/>
		</g>
		<g>
			<path class="st0" d="M160.1,54c-7,5.8-13.6,12.1-19,19.4c-2.6,3.4-4.9,7-7.4,10.5c-2.7,3.8-5.7,7.1-8.8,10.5
				c-0.4,0.4,0.2,1,0.6,0.6c6.4-5.4,10.8-13.2,15.6-19.9c5.6-7.8,12.5-14.3,19.2-21.1C160.3,54.1,160.2,54,160.1,54L160.1,54z"/>
		</g>
		<g>
			<path class="st0" d="M161.9,59.2c-1.2,1.4-2.3,2.8-3.5,4.2c-0.2,0.3,0.2,0.6,0.4,0.4c1.1-1.4,2.2-2.8,3.3-4.3
				C162.3,59.3,162,59,161.9,59.2L161.9,59.2z"/>
		</g>
		<g>
			<path class="st0" d="M165.5,45.8c-2.1,1.6-4.1,3.6-5.6,5.8c-0.3,0.4,0.3,0.8,0.6,0.5c1.7-2.1,3.5-3.9,5.3-5.8
				C166,46,165.8,45.6,165.5,45.8L165.5,45.8z"/>
		</g>
		<g>
			<path class="st0" d="M176,59.1c-9.6,7.9-15.6,18.8-23.9,27.9c-0.3,0.3,0.2,0.7,0.4,0.4c8.5-8.8,14.4-20,23.6-28.2
				C176.2,59.1,176,59,176,59.1L176,59.1z"/>
		</g>
		<g>
			<path class="st0" d="M148.6,91c-3.9,4.9-7.9,9.7-11.7,14.7c-0.3,0.4,0.2,0.9,0.5,0.5c3.8-5,7.6-10,11.4-15
				C148.8,91,148.7,90.9,148.6,91L148.6,91z"/>
		</g>
		<g>
			<path class="st0" d="M168.3,79.7c-7.7,8.8-15.7,17.2-24.1,25.3c-0.3,0.3,0.1,0.7,0.4,0.4c8.5-7.9,16.6-16.4,23.9-25.5
				C168.7,79.8,168.5,79.6,168.3,79.7L168.3,79.7z"/>
		</g>
		<g>
			<path class="st0" d="M167.7,88.2c-2.9,2.9-5.7,5.8-8.5,8.8c-0.3,0.3,0.2,0.8,0.5,0.5c2.8-2.9,5.7-5.9,8.4-8.9
				C168.2,88.3,167.9,88,167.7,88.2L167.7,88.2z"/>
		</g>
		<g>
			<path class="st0" d="M152.2,104c-3.2,3.4-6.5,6.7-9.6,10.2c-0.3,0.3,0.2,0.8,0.5,0.5c3.3-3.3,6.4-6.8,9.6-10.3
				C153,104.1,152.5,103.7,152.2,104L152.2,104z"/>
		</g>
		<g>
			<path class="st0" d="M140.2,117.1c0.1,0,0.1-0.1,0-0.1C140.2,117,140.2,117.1,140.2,117.1L140.2,117.1z"/>
		</g>
		<g>
			<path class="st0" d="M128.5,114.9c-0.1,1.3-0.4,2.6-0.5,3.9c0,0.4,0.6,0.5,0.7,0.1c0.4-1.3,0.4-2.7,0.4-4
				C129.1,114.5,128.5,114.5,128.5,114.9L128.5,114.9z"/>
		</g>
		<g>
			<path class="st0" d="M130.7,116.4c-0.5,1.3-0.6,2.8-0.2,4.2c0.2,0.5,0.8,0.3,0.7-0.2c-0.2-1.3-0.3-2.5,0.1-3.8
				C131.5,116.1,130.8,116,130.7,116.4L130.7,116.4z"/>
		</g>
		<g>
			<path class="st0" d="M132.7,117.3c-0.2,1.7-0.4,3.8-0.1,5.6c0.1,0.4,0.7,0.4,0.8,0c0.3-1.7,0.1-3.8,0-5.6
				C133.4,116.9,132.8,116.9,132.7,117.3L132.7,117.3z"/>
		</g>
		<g>
			<path class="st0" d="M134.7,119.1c-0.1,1.8-0.4,3.8-0.1,5.6c0.1,0.4,0.7,0.4,0.8,0c0.4-1.8,0.1-3.8,0.1-5.6
				C135.4,118.6,134.7,118.6,134.7,119.1L134.7,119.1z"/>
		</g>
		<g>
			<path class="st0" d="M136.4,121.4c0,1.7,0,3.5,0.1,5.3c0,0.6,0.9,0.6,0.9,0c0-1.7-0.1-3.5-0.3-5.3C137,121,136.4,121,136.4,121.4
				L136.4,121.4z"/>
		</g>
		<g>
			<path class="st0" d="M138.8,122.1c0,2.2,0,4.4,0.1,6.6c0,0.6,0.9,0.6,0.9,0c-0.1-2.2-0.2-4.4-0.3-6.6
				C139.4,121.7,138.8,121.7,138.8,122.1L138.8,122.1z"/>
		</g>
		<g>
			<path class="st0" d="M141,122.6c0,1.2,0.2,2.5,0.4,3.8c0.1,0.4,0.7,0.3,0.7-0.1c-0.1-1.2-0.3-2.5-0.7-3.7
				C141.3,122.3,141,122.3,141,122.6L141,122.6z"/>
		</g>
		<g>
			<path class="st0" d="M143.1,118.4c0,1.6-0.1,3.2,0.1,4.8c0,0.6,0.9,0.6,0.9,0c0-1.6-0.1-3.2-0.2-4.8
				C143.8,117.9,143.1,117.9,143.1,118.4L143.1,118.4z"/>
		</g>
		<g>
			<path class="st0" d="M145.5,116.2c-0.2,1.4-0.2,2.8,0.1,4.2c0.1,0.6,1,0.3,0.9-0.2c-0.2-1.3-0.3-2.5-0.3-3.8
				C146.2,115.9,145.5,115.8,145.5,116.2L145.5,116.2z"/>
		</g>
		<g>
			<path class="st0" d="M148.9,113c-0.4,1-0.6,2.4,0,3.3c0.2,0.3,0.7,0.2,0.7-0.2c-0.1-0.5-0.2-0.9-0.2-1.4c0-0.5,0.1-1,0.2-1.5
				C149.7,112.7,149,112.6,148.9,113L148.9,113z"/>
		</g>
		<g>
			<path class="st0" d="M151.3,110.1c-0.3,1.2-0.4,2.4-0.3,3.6c0,0.5,0.8,0.4,0.7-0.1c-0.2-1.1-0.2-2.3,0-3.4
				C151.8,110,151.3,109.8,151.3,110.1L151.3,110.1z"/>
		</g>
		<g>
			<path class="st0" d="M152.9,106.9c0.1,1.6,0.1,3.4,0.6,4.9c0.1,0.5,0.9,0.4,0.9-0.1c0.1-1.6-0.3-3.3-0.6-4.9
				C153.6,106.3,152.9,106.4,152.9,106.9L152.9,106.9z"/>
		</g>
		<g>
			<path class="st0" d="M155,104.5c0.2,1.5,0.3,3,0.6,4.4c0.1,0.5,0.9,0.4,0.9-0.1c-0.1-1.5-0.4-3-0.7-4.4
				C155.7,103.9,154.9,104,155,104.5L155,104.5z"/>
		</g>
		<g>
			<path class="st0" d="M157.3,102.3c0.1,1.3,0.1,2.6,0.3,3.8c0.1,0.5,0.8,0.5,0.7,0c-0.1-1.3-0.3-2.6-0.4-3.8
				C157.9,101.9,157.3,101.9,157.3,102.3L157.3,102.3z"/>
		</g>
		<g>
			<path class="st0" d="M159.1,99.4c0.1,1.4,0.3,2.7,0.4,4.1c0,0.4,0.7,0.4,0.6-0.1c-0.2-1.4-0.4-2.7-0.6-4.1
				C159.4,99.2,159.1,99.2,159.1,99.4L159.1,99.4z"/>
		</g>
		<g>
			<path class="st0" d="M161.3,97.5c0.3,1.3,0.4,2.5,0.4,3.9c0,0.5,0.7,0.5,0.7,0c0-1.3-0.3-2.7-0.7-4
				C161.6,97.1,161.2,97.2,161.3,97.5L161.3,97.5z"/>
		</g>
		<g>
			<path class="st0" d="M164,95.8c0,1.1-0.1,2.3-0.1,3.4c0,0.5,0.8,0.5,0.8,0c0-1.1,0-2.3-0.1-3.4C164.7,95.3,164,95.3,164,95.8
				L164,95.8z"/>
		</g>
		<g>
			<path class="st0" d="M166,92.6c-0.2,1.3-0.1,2.7-0.1,3.9c0,0.5,0.7,0.5,0.7,0c0.1-1.3,0.1-2.7-0.1-3.9
				C166.5,92.2,166,92.2,166,92.6L166,92.6z"/>
		</g>
		<g>
			<path class="st0" d="M168.6,91.1c-0.1,1.5-0.1,3.2,0.1,4.7c0.1,0.6,0.9,0.6,0.9,0c-0.1-1.6-0.2-3.2-0.5-4.8
				C169,90.8,168.6,90.9,168.6,91.1L168.6,91.1z"/>
		</g>
		<g>
			<path class="st0" d="M171.8,89.9c-0.1,1.3-0.1,2.6-0.2,4c0,0.4,0.7,0.4,0.7,0c0-1.3,0-2.6-0.1-4
				C172.2,89.6,171.8,89.6,171.8,89.9L171.8,89.9z"/>
		</g>
		<g>
			<path class="st0" d="M167.6,98.1c-0.3,1.4-0.4,2.8-0.6,4.2c0,0.5,0.9,0.7,1,0.1c0.2-1.4,0.4-2.8,0.4-4.3
				C168.4,97.8,167.7,97.7,167.6,98.1L167.6,98.1z"/>
		</g>
		<g>
			<path class="st0" d="M169.9,97c-0.1,1.9-0.3,3.9-0.3,5.8c0,0.5,0.7,0.5,0.8,0c0.2-1.9,0.2-3.9,0.3-5.8
				C170.7,96.5,170,96.5,169.9,97L169.9,97z"/>
		</g>
		<g>
			<path class="st0" d="M171.5,95.8c0,2.8,0,5.7-0.1,8.5c0,0.5,0.8,0.5,0.8,0c0.2-2.8,0.1-5.7-0.3-8.5
				C171.9,95.5,171.5,95.5,171.5,95.8L171.5,95.8z"/>
		</g>
		<g>
			<path class="st0" d="M173.9,97c0.1,2.1-0.1,4.1-0.5,6.2c-0.1,0.6,0.8,0.8,0.9,0.2c0.4-2.1,0.5-4.3,0.4-6.4
				C174.5,96.5,173.9,96.5,173.9,97L173.9,97z"/>
		</g>
		<g>
			<path class="st0" d="M176,100.8c-0.5,1.4-0.7,2.9-0.8,4.4c0,0.5,0.7,0.5,0.7,0c0-1.4,0.2-2.9,0.5-4.3
				C176.6,100.7,176.1,100.5,176,100.8L176,100.8z"/>
		</g>
		<g>
			<path class="st0" d="M126.6,114.4c-0.3,1.2-0.4,2.4-0.1,3.6c0.1,0.3,0.6,0.3,0.6-0.1c-0.2-1.2-0.2-2.3-0.1-3.5
				C127,114.2,126.7,114.2,126.6,114.4L126.6,114.4z"/>
		</g>
		<g>
			<path class="st0" d="M124.4,113.4c-0.3,0.8-0.4,1.7-0.2,2.5c0.1,0.4,0.7,0.2,0.6-0.2c-0.1-0.7-0.1-1.4,0.1-2.2
				C125,113.2,124.5,113.1,124.4,113.4L124.4,113.4z"/>
		</g>
		<g>
			<path class="st0" d="M122.8,112.3c0,0.6,0.1,1.3,0.1,1.9c0,0.3,0.6,0.3,0.5,0c0-0.6-0.1-1.3-0.1-1.9
				C123.2,112,122.8,112,122.8,112.3L122.8,112.3z"/>
		</g>
		<g>
			<path class="st0" d="M117.5,49.5c0.9,3.6,2,7.4,3.5,10.8c0.2,0.4,0.8,0.1,0.7-0.3c-1-3.6-2.4-7.2-3.7-10.6
				C117.9,49.1,117.4,49.2,117.5,49.5L117.5,49.5z"/>
		</g>
		<g>
			<path class="st0" d="M118,46.3c1.4,4.5,2.9,9.1,4.6,13.6c0.2,0.5,1,0.3,0.8-0.2c-1.5-4.5-3.2-9-4.8-13.5
				C118.5,45.7,117.9,45.9,118,46.3L118,46.3z"/>
		</g>
		<g>
			<path class="st0" d="M120.1,44.8c-0.8,1.5,0.8,4.3,1.3,5.7c0.9,2.6,1.7,5.4,3.1,7.9c0.2,0.3,0.7,0.1,0.6-0.3
				c-0.6-2.2-1.7-4.4-2.5-6.6c-0.4-1.1-0.8-2.2-1.2-3.3c-0.3-0.8-1.2-2.3-0.8-3.2C120.7,44.7,120.2,44.5,120.1,44.8L120.1,44.8z"/>
		</g>
		<g>
			<path class="st0" d="M121.6,43.6c1.2,4.3,2.4,8.7,4,12.9c0.1,0.4,0.7,0.2,0.6-0.2c-1.1-4.4-2.6-8.7-4.1-12.9
				C122,43.2,121.5,43.3,121.6,43.6L121.6,43.6z"/>
		</g>
		<g>
			<path class="st0" d="M123.8,42.1c1.1,4.2,2.2,8.4,3.5,12.5c0.2,0.5,1,0.3,0.8-0.2c-1.1-4.2-2.4-8.3-3.7-12.4
				C124.3,41.5,123.7,41.7,123.8,42.1L123.8,42.1z"/>
		</g>
		<g>
			<path class="st0" d="M126.7,39.9c0.1,3.7,1,7.7,2.1,11.2c0.2,0.5,0.9,0.3,0.8-0.2c-0.9-3.7-1.6-7.4-2.6-11
				C126.9,39.7,126.7,39.7,126.7,39.9L126.7,39.9z"/>
		</g>
		<g>
			<path class="st0" d="M129.9,38.2c0.1,2,0.3,3.9,0.5,5.8c0.2,1.5,0.2,3.1,0.8,4.6c0.2,0.5,0.9,0.3,0.8-0.2
				c-0.8-3.4-0.9-6.9-1.6-10.2C130.3,37.9,129.9,37.9,129.9,38.2L129.9,38.2z"/>
		</g>
		<g>
			<path class="st0" d="M133.6,37.4c0.6,3.2,0.2,6.7,0.3,9.9c0,0.6,0.9,0.6,0.9,0c-0.1-1.8-0.2-3.6-0.3-5.4c-0.1-1.5,0-3.1-0.5-4.6
				C133.9,37,133.6,37.1,133.6,37.4L133.6,37.4z"/>
		</g>
		<g>
			<path class="st0" d="M137.5,37c-0.7,3.2-1,6.7-1,10c0,0.7,1,0.6,1,0c0.2-3.3,0.4-6.6,0.6-9.9C138.1,36.8,137.6,36.7,137.5,37
				L137.5,37z"/>
		</g>
		<g>
			<path class="st0" d="M140.4,37.6c-0.9,3.5-1.6,7.3-2,10.9c-0.1,0.5,0.8,0.6,0.9,0.1c0.7-3.6,1.3-7.3,1.7-10.9
				C141.1,37.3,140.5,37.2,140.4,37.6L140.4,37.6z"/>
		</g>
		<g>
			<path class="st0" d="M143.4,40.5c-0.2,0-1,3.9-1.1,4.2c-0.4,1.5-0.8,3.1-1.1,4.6c-0.1,0.5,0.7,0.8,0.8,0.2c0.8-3,1.5-6.2,2-9.3
				c0-0.2-0.2-0.4-0.4-0.3c-0.1,0.1-0.3,0.1-0.4,0.2C143.1,40.2,143.2,40.6,143.4,40.5L143.4,40.5z"/>
		</g>
		<g>
			<path class="st0" d="M147.6,42.9c-1.5,2.8-2.9,5.7-4.2,8.7c-0.2,0.5,0.6,0.8,0.9,0.4c1.5-2.8,2.8-5.8,4-8.7
				C148.5,42.8,147.8,42.6,147.6,42.9L147.6,42.9z"/>
		</g>
		<g>
			<path class="st0" d="M182.7,66.7c-0.5,1.8-0.8,3.7-0.9,5.6c0,0.5,0.7,0.4,0.7,0c0.2-1.8,0.5-3.7,0.6-5.5
				C183.1,66.5,182.7,66.5,182.7,66.7L182.7,66.7z"/>
		</g>
		<g>
			<path class="st0" d="M186.9,64c-1.4,3-2.3,6.5-2.6,9.7c0,0.4,0.7,0.5,0.8,0.1c0.7-3.2,1.6-6.4,2.3-9.6
				C187.4,63.9,187,63.7,186.9,64L186.9,64z"/>
		</g>
		<g>
			<path class="st0" d="M190.2,64.1c-2.2-0.3-2.7,10.8-2.8,12.3c0,0.4,0.7,0.6,0.8,0.1c0.3-1.7,0.5-3.5,0.7-5.2
				c0.1-1.1,0.3-6.5,1.4-6.7C190.5,64.6,190.5,64.1,190.2,64.1L190.2,64.1z"/>
		</g>
		<g>
			<path class="st0" d="M192.4,64.5c-2.4,5.7-4,12-4.8,18.1c0,0.4,0.6,0.5,0.7,0.1c1.2-6.1,2.8-12.1,4.5-18.1
				C192.8,64.3,192.4,64.3,192.4,64.5L192.4,64.5z"/>
		</g>
		<g>
			<path class="st0" d="M181.3,89.8c-0.7,1.9-1.2,3.9-1.4,5.8c0,0.4,0.6,0.5,0.7,0.1c0.4-1.9,0.9-3.8,1.3-5.8
				C182,89.6,181.5,89.4,181.3,89.8L181.3,89.8z"/>
		</g>
		<g>
			<path class="st0" d="M184.9,86c-1.1,3.3-2,6.8-2.5,10.3c-0.1,0.4,0.5,0.6,0.6,0.2c0.8-3.4,1.6-6.9,2.4-10.3
				C185.4,85.8,185,85.6,184.9,86L184.9,86z"/>
		</g>
		<g>
			<path class="st0" d="M187.6,82.4c-1.3,4.6-2.3,9.3-3.1,14c-0.1,0.4,0.5,0.6,0.6,0.2c1.1-4.6,2.1-9.3,2.9-14
				C188,82.3,187.7,82.2,187.6,82.4L187.6,82.4z"/>
		</g>
		<g>
			<path class="st0" d="M193.9,65.2c-1,5.1-1.6,10.3-2.6,15.4c-1,5-2.3,10-3.5,15c-0.1,0.5,0.6,0.6,0.7,0.2c1.5-5,2.6-10.2,3.6-15.4
				c0.9-5,1.9-10.1,2.1-15.2C194.3,65.1,193.9,65,193.9,65.2L193.9,65.2z"/>
		</g>
		<g>
			<path class="st0" d="M196.4,66.3c-1.1,5-1.7,10.2-2.6,15.2c-0.9,5-1.9,9.9-2.9,14.9c-0.1,0.5,0.6,0.7,0.7,0.2
				c1.2-5,2.2-10.2,3.1-15.3c0.9-4.9,1.8-10,2.1-15C196.8,66.1,196.5,66.1,196.4,66.3L196.4,66.3z"/>
		</g>
		<g>
			<path class="st0" d="M198.8,68.1c-1.6,7.7-2.9,15.4-4.4,23.1c-0.1,0.4,0.5,0.6,0.6,0.2c1.8-7.6,3.4-15.4,4.2-23.2
				C199.2,67.9,198.9,67.8,198.8,68.1L198.8,68.1z"/>
		</g>
		<g>
			<path class="st0" d="M201,71.2c-0.7,4.2-1.4,8.3-2,12.5c0,0.3,0.5,0.5,0.5,0.1c0.8-4.2,1.4-8.3,2-12.5
				C201.6,71,201.1,70.8,201,71.2L201,71.2z"/>
		</g>
		<g>
			<path class="st0" d="M227,46.9c-1,2.7-0.8,5.3-0.6,8.1c0.3,2.6,0.4,5.2,0.2,7.8c-0.4,5.4-1.7,10.7-3.9,15.7
				c-4.4,10-11.9,17.9-21.3,23.6c-0.4,0.2,0,0.9,0.4,0.6c9.3-5.1,16.9-13.6,21.3-23.2c2.1-4.5,3.5-9.4,4.1-14.3
				c0.3-2.7,0.4-5.3,0.2-8c-0.2-3.5-0.9-6.8,0-10.2C227.5,46.7,227.1,46.6,227,46.9L227,46.9z"/>
		</g>
		<g>
			<path class="st0" d="M178.3,101.1c3.1,6.3,10.8,5.5,16.6,4c0.5-0.1,0.3-0.8-0.2-0.8c-5.8,1.1-12.5,2.5-16.2-3.4
				C178.4,100.8,178.2,100.9,178.3,101.1L178.3,101.1z"/>
		</g>
		<g>
			<path class="st0" d="M180.9,103.3c-0.3,1.5-0.7,2.9-1.2,4.4c-0.1,0.4,0.5,0.6,0.6,0.3c0.6-1.4,1-3,1.1-4.5
				C181.4,103.1,181,103,180.9,103.3L180.9,103.3z"/>
		</g>
		<g>
			<path class="st0" d="M183.2,105.8c-0.5,0.8-0.9,1.9-0.9,2.9c0,0.4,0.6,0.4,0.6,0.1c0.1-1,0.4-1.8,0.8-2.8
				C183.8,105.7,183.3,105.5,183.2,105.8L183.2,105.8z"/>
		</g>
		<g>
			<path class="st0" d="M185.6,105.6c-0.5,0.8-1,1.9-1.1,2.8c0,0.3,0.4,0.4,0.5,0.1c0.2-0.4,0.3-0.8,0.4-1.3c0.2-0.5,0.4-1,0.6-1.5
				C186.2,105.5,185.8,105.2,185.6,105.6L185.6,105.6z"/>
		</g>
		<g>
			<path class="st0" d="M187.3,105.8c-0.4,1.3-1,2.5-1.3,3.9c-0.1,0.4,0.5,0.6,0.6,0.2c0.5-1.3,0.7-2.6,1.1-3.9
				C187.8,105.7,187.4,105.6,187.3,105.8L187.3,105.8z"/>
		</g>
		<g>
			<path class="st0" d="M189.4,106.3c-0.2-0.1-1,2.9-1,3.2c0,0.3,0.5,0.4,0.6,0.2c0.2-0.6,0.4-1.2,0.5-1.8c0.1-0.4,0.4-1.1,0.3-1.5
				c-0.1-0.3-0.6-0.4-0.6,0c0,0,0,0.1,0.1,0.1c0,0,0,0,0.1,0C189.5,106.5,189.6,106.3,189.4,106.3L189.4,106.3z"/>
		</g>
		<g>
			<path class="st0" d="M193.1,104.6c-0.8,1.4-1.7,3.3-1.8,4.9c0,0.4,0.5,0.4,0.6,0.1c0.3-0.8,0.4-1.6,0.7-2.4
				c0.3-0.8,0.6-1.6,0.9-2.4C193.6,104.6,193.2,104.4,193.1,104.6L193.1,104.6z"/>
		</g>
		<g>
			<path class="st0" d="M195,104.7c-0.4,1.7-0.9,3.5-1.1,5.2c-0.1,0.4,0.5,0.6,0.6,0.2c0.4-1.7,0.7-3.5,0.9-5.3
				C195.4,104.5,195,104.4,195,104.7L195,104.7z"/>
		</g>
		<g>
			<path class="st0" d="M198.7,103.5c-1,2-1.8,4.2-2.2,6.4c-0.1,0.4,0.3,0.6,0.6,0.4c0.1-0.1,0.3-0.3,0.4-0.4
				c0.3-0.3-0.1-0.8-0.4-0.5c-0.2,0.1-0.3,0.2-0.5,0.4c0.2,0.1,0.4,0.3,0.6,0.4c0.6-2.2,1.2-4.3,1.9-6.4
				C199.2,103.4,198.8,103.2,198.7,103.5L198.7,103.5z"/>
		</g>
		<g>
			<path class="st0" d="M201.6,101.9c-0.9,2.4-1.7,5.1-2,7.7c0,0.4,0.6,0.5,0.7,0.1c0.6-2.6,1.1-5.1,1.8-7.6
				C202.3,101.7,201.8,101.5,201.6,101.9L201.6,101.9z"/>
		</g>
		<g>
			<path class="st0" d="M205,99.6c-1,3.5-1.7,7.2-2.1,10.9c0,0.4,0.6,0.5,0.7,0.1c0.5-3.7,1.2-7.2,1.9-10.9
				C205.4,99.4,205,99.3,205,99.6L205,99.6z"/>
		</g>
		<g>
			<path class="st0" d="M208.6,98.1c-1.2,3.4-2,6.9-2.2,10.5c0,0.4,0.6,0.4,0.6,0c0.4-3.6,1.1-7,2.1-10.4
				C209.1,98,208.7,97.8,208.6,98.1L208.6,98.1z"/>
		</g>
		<g>
			<path class="st0" d="M213,94.2c-1.2,3.9-2.3,7.9-3.3,11.9c-0.1,0.5,0.6,0.7,0.7,0.2c1.1-3.9,2.1-7.9,3-11.9
				C213.5,94,213.1,93.9,213,94.2L213,94.2z"/>
		</g>
		<g>
			<path class="st0" d="M215.7,91.6c-1,4.2-1.8,8.6-2.5,12.8c-0.1,0.4,0.6,0.6,0.7,0.2c0.9-4.3,1.7-8.6,2.3-12.9
				C216.2,91.4,215.7,91.2,215.7,91.6L215.7,91.6z"/>
		</g>
		<g>
			<path class="st0" d="M219.1,85.8c-0.7,5-1.3,10-1.7,15c0,0.5,0.7,0.5,0.7,0c0.5-5,0.9-10,1.4-14.9
				C219.6,85.6,219.1,85.5,219.1,85.8L219.1,85.8z"/>
		</g>
		<g>
			<path class="st0" d="M222.1,81.5c-0.6,5.3-1.2,10.5-1.7,15.8c0,0.4,0.6,0.4,0.7,0c0.5-5.3,1-10.5,1.5-15.8
				C222.6,81.2,222.1,81.3,222.1,81.5L222.1,81.5z"/>
		</g>
		<g>
			<path class="st0" d="M225.6,74.6c-0.7,5.9-1.2,12-1.4,17.9c0,0.5,0.7,0.5,0.7,0c0.4-6,0.7-12,1.2-17.9
				C226.1,74.3,225.6,74.3,225.6,74.6L225.6,74.6z"/>
		</g>
		<g>
			<path class="st0" d="M227.9,67.3c-0.9,6.3-0.9,13.1-0.4,19.5c0,0.5,0.7,0.5,0.7,0c-0.2-6.5,0-12.9,0.1-19.4
				C228.3,67.2,228,67.1,227.9,67.3L227.9,67.3z"/>
		</g>
		<g>
			<path class="st0" d="M228.5,60.7c-0.4,1,0,2.1,0.1,3.1c0.2,1.6,0.4,3.2,0.6,4.9c0.4,2.9,0.7,5.9,1.1,8.8c0.1,0.4,0.8,0.3,0.7-0.1
				c-0.3-2.8-0.7-5.5-1-8.3c-0.1-1.1-0.3-2.1-0.4-3.2c-0.2-1.6-0.8-3.5-0.6-5.1C229,60.5,228.6,60.4,228.5,60.7L228.5,60.7z"/>
		</g>
		<g>
			<path class="st0" d="M226.7,52.7c0.9,3.9,2.2,7.8,3.3,11.7c0.1,0.5,0.9,0.3,0.7-0.2c-1.1-3.9-2.2-7.9-3.6-11.6
				C227,52.3,226.7,52.4,226.7,52.7L226.7,52.7z"/>
		</g>
		<g>
			<path class="st0" d="M227.2,51.8c1,2,2.2,3.9,3.3,5.8c0.2,0.4,0.8,0,0.6-0.3c-1.1-1.9-2.2-3.9-3.5-5.7
				C227.4,51.4,227,51.6,227.2,51.8L227.2,51.8z"/>
		</g>
		<g>
			<path class="st0" d="M106.5,53.6c0.9,4.5,4.1,12.6,9.9,11.7c0.4-0.1,0.3-0.7-0.1-0.7c-5.2,0.6-8.6-6.8-9.6-11
				C106.7,53.4,106.4,53.5,106.5,53.6L106.5,53.6z"/>
		</g>
		<g>
			<path class="st0" d="M113.9,51.8c-0.2-4.5,3.7-8.4,6.8-11.4c3.3-3.2,7.3-5,11.8-5.9c0.4-0.1,0.2-0.6-0.2-0.6
				c-4.9,0.7-9.4,3.2-12.9,6.8c-2.8,2.9-6.5,6.7-5.8,11.1C113.7,51.9,113.9,51.9,113.9,51.8L113.9,51.8z"/>
		</g>
		<g>
			<path class="st0" d="M189.8,61.3c5.6,0.6,12.5,3.3,13.9,9.4c0.1,0.4,0.7,0.2,0.6-0.2c-1-6.3-8.8-9.9-14.5-9.5
				C189.6,61.1,189.6,61.3,189.8,61.3L189.8,61.3z"/>
		</g>
		<g>
			<path class="st0" d="M185.1,102.4c6.1,3,12.9-0.6,18.5-2.9c0.4-0.2,0.2-0.8-0.2-0.6c-5.7,2.1-12.2,5.8-18.3,3.4
				C185,102.2,185,102.4,185.1,102.4L185.1,102.4z"/>
		</g>
		<g>
			<path class="st0" d="M126.6,107.3c2.4-2.2,4.4-4.7,6.1-7.5c0.8-1.4,1.2-2,2.8-2.8c0.4-0.2,0.8-0.2,1.2-0.5c0.7-0.5,1-1.4,1.4-2.1
				c2.4-4.8,8-6.8,10.3-11.8c0.1-0.3-0.3-0.5-0.4-0.2c-2.2,4.7-7.5,6.8-10,11.3c-0.3,0.5-0.4,1-0.8,1.5c-0.7,1-1.7,1.1-2.6,1.6
				c-0.7,0.4-1.2,0.9-1.6,1.6c-2,3.1-4,6-6.6,8.7C126.3,107.3,126.5,107.4,126.6,107.3L126.6,107.3z"/>
		</g>
		<g>
			<path class="st0" d="M119.6,105.9c2-1.5,4-2.9,5.9-4.4c0.3-0.2,0-0.8-0.3-0.5c-2,1.5-4,3-5.9,4.6
				C119.1,105.7,119.4,106.1,119.6,105.9L119.6,105.9z"/>
		</g>
		<g>
			<path class="st0" d="M115.1,104.6c2.4-2.2,4.9-4.3,7.5-6.3c0.2-0.1-0.1-0.4-0.2-0.2c-2.6,2-5,4.1-7.4,6.3
				C114.8,104.5,115,104.7,115.1,104.6L115.1,104.6z"/>
		</g>
		<g>
			<path class="st0" d="M160.1,45.3c-0.2,0.5-0.4,1-0.5,1.5c0,0.2,0.3,0.5,0.4,0.2c0.2-0.5,0.3-1.1,0.5-1.6
				C160.6,45.2,160.2,45,160.1,45.3L160.1,45.3z"/>
		</g>
		<g>
			<path class="st0" d="M161.3,45.1c-0.2,0.4-0.4,0.8-0.5,1.2c-0.1,0.2,0.3,0.4,0.4,0.2c0.2-0.3,0.4-0.8,0.5-1.2
				C161.8,45.1,161.4,44.9,161.3,45.1L161.3,45.1z"/>
		</g>
		<g>
			<path class="st0" d="M162.6,44.7c-0.1,0.2-0.2,0.4-0.3,0.6c-0.1,0.2-0.2,0.4-0.2,0.7c0,0.2,0.3,0.4,0.4,0.2
				c0.1-0.2,0.2-0.4,0.2-0.6c0.1-0.2,0.1-0.4,0.1-0.7C162.9,44.7,162.7,44.6,162.6,44.7L162.6,44.7z"/>
		</g>
		<g>
			<path class="st0" d="M163.8,44.2c-0.1,0.3-0.3,0.7-0.4,1c0,0.2,0.2,0.4,0.4,0.2c0.2-0.3,0.3-0.7,0.4-1.1
				C164.3,44.1,163.9,44,163.8,44.2L163.8,44.2z"/>
		</g>
		<g>
			<path class="st0" d="M164.9,43.8c-0.1,0.3-0.2,0.6-0.4,0.9c-0.1,0.3,0.3,0.4,0.4,0.1c0.1-0.3,0.2-0.6,0.3-0.9
				C165.4,43.7,165,43.6,164.9,43.8L164.9,43.8z"/>
		</g>
		<g>
			<path class="st0" d="M166.3,43.3c-0.1,0.3-0.2,0.6-0.2,0.9c-0.1,0.3,0.4,0.4,0.4,0.1c0.1-0.3,0.1-0.6,0.2-0.9
				C166.7,43.2,166.4,43.2,166.3,43.3L166.3,43.3z"/>
		</g>
		<g>
			<path class="st0" d="M167.9,42.8c-0.1,0.3-0.4,0.7-0.4,1c-0.1,0.3,0.3,0.4,0.4,0.2c0.2-0.3,0.3-0.6,0.4-1
				C168.4,42.7,168,42.5,167.9,42.8L167.9,42.8z"/>
		</g>
		<g>
			<path class="st0" d="M168.9,42.2c-0.1,0.1-0.2,0.3-0.3,0.4c-0.1,0.2-0.2,0.4-0.2,0.6c-0.1,0.3,0.3,0.5,0.5,0.2
				c0.1-0.2,0.1-0.4,0.2-0.6c0.1-0.2,0.1-0.3,0.1-0.5C169.2,42.2,169,42.1,168.9,42.2L168.9,42.2z"/>
		</g>
		<g>
			<path class="st0" d="M170.1,41.9C170.1,41.8,170.1,41.8,170.1,41.9C170.1,41.9,170.1,41.9,170.1,41.9c0,0.1-0.1,0.3-0.1,0.3
				c-0.1,0.2-0.2,0.3-0.2,0.5c0,0.2,0.3,0.4,0.4,0.2c0.1-0.2,0.6-1.5-0.1-1.3C170,41.7,170,41.9,170.1,41.9L170.1,41.9z"/>
		</g>
		<g>
			<path class="st0" d="M171.7,41.6c-0.2,0.2-0.4,0.5-0.5,0.7c-0.1,0.2,0.2,0.5,0.4,0.2c0.2-0.3,0.3-0.5,0.4-0.8
				C172,41.6,171.8,41.4,171.7,41.6L171.7,41.6z"/>
		</g>
		<g>
			<path class="st0" d="M178.4,53.5C178.4,53.5,178.4,53.5,178.4,53.5c0-0.1-0.1-0.1-0.2-0.1c-0.3,0.1-0.3,0.6-0.4,0.8
				c-0.1,0.3,0.4,0.4,0.5,0.1c0-0.1,0.1-0.3,0.1-0.4c0-0.1,0-0.1,0-0.2c0,0,0-0.1,0-0.1c0-0.1,0,0,0,0.1c-0.1,0-0.2,0-0.2,0
				c0,0,0,0,0,0C178.3,53.9,178.5,53.7,178.4,53.5L178.4,53.5z"/>
		</g>
		<g>
			<path class="st0" d="M179.8,53c-0.3,0.3-0.4,0.8-0.4,1.2c0,0.3,0.5,0.3,0.5,0c0-0.2,0-0.3,0.1-0.5c0-0.2,0.1-0.3,0.1-0.5
				C180.2,53,180,52.9,179.8,53L179.8,53z"/>
		</g>
		<g>
			<path class="st0" d="M181.3,52.9c-0.1,0.3-0.3,0.6-0.4,0.9c-0.1,0.2,0.3,0.4,0.4,0.2c0.2-0.3,0.3-0.6,0.4-0.9
				C181.7,52.9,181.4,52.7,181.3,52.9L181.3,52.9z"/>
		</g>
		<g>
			<path class="st0" d="M182.9,52.2c-0.1,0.2-0.2,0.4-0.3,0.6c-0.1,0.2-0.2,0.4-0.1,0.6c0.2,0.4,0.7,0.1,0.5-0.3
				c-0.1-0.2-0.5-0.1-0.4,0.2c0,0,0,0,0,0c0-0.1,0-0.2,0.1-0.2c0,0,0.1,0,0.1,0c0.1,0,0.1,0.1,0.2,0.1c0,0.1,0.1-0.1,0.1-0.1
				c0-0.1,0.1-0.2,0.1-0.3c0.1-0.2,0.1-0.3,0.1-0.5C183.3,52.1,183,52,182.9,52.2L182.9,52.2z"/>
		</g>
		<g>
			<path class="st0" d="M184.3,52.3c-0.1,0.2-0.2,0.4-0.3,0.6c-0.1,0.2,0.2,0.4,0.4,0.2c0.2-0.3,0.3-0.5,0.3-0.8
				C184.7,52.1,184.4,52.1,184.3,52.3L184.3,52.3z"/>
		</g>
		<g>
			<path class="st0" d="M185.4,52.1c-0.2,0.3-0.3,0.7-0.4,1c-0.1,0.2,0.3,0.4,0.4,0.2c0.1-0.3,0.3-0.7,0.3-1
				C185.7,52,185.5,52,185.4,52.1L185.4,52.1z"/>
		</g>
		<g>
			<path class="st0" d="M186.8,52.2c0,0.2,0,0.4-0.2,0.6c-0.3,0.2,0,0.6,0.3,0.5c0.4-0.2,0.6-0.8,0.3-1.1
				C186.9,52,186.8,52.1,186.8,52.2L186.8,52.2z"/>
		</g>
		<g>
			<path class="st0" d="M188.2,52.1c0.1,0,0.1,0,0.2,0c0-0.1,0-0.2-0.1-0.3c-0.1,0.2-0.2,0.3-0.3,0.5c-0.1,0.2,0.2,0.4,0.3,0.2
				c0.1-0.2,0.2-0.3,0.2-0.5c0.1-0.1,0-0.3-0.2-0.2c-0.1,0-0.1,0-0.2,0C188,51.9,188,52.1,188.2,52.1L188.2,52.1z"/>
		</g>
		<g>
			<path class="st0" d="M188.8,52.4c0,0.1,0,0.1,0,0.2c-0.1,0.1,0,0.2,0.1,0.1C189,52.6,189,52.5,188.8,52.4
				C188.8,52.3,188.8,52.4,188.8,52.4L188.8,52.4z"/>
		</g>
		<g>
			<path class="st0" d="M118.2,22.2c13-9.1,26.6-16.9,42.9-17.3c16-0.3,31.3,5.9,44.4,14.9c0.3,0.2,0.6-0.3,0.3-0.5
				c-13.1-9.2-28.5-15.1-44.6-14.9c-16.3,0.3-30.2,8.2-43,17.5C117.9,22.1,118.1,22.3,118.2,22.2L118.2,22.2z"/>
		</g>
		<g>
			<path class="st0" d="M209.4,22.5c2.1,3.1,5,5,7.8,7.4c1.7,1.4,2.7,3.4,3.8,5.3c1.2,2.1,3.1,4.3,3.1,6.8c0,0.4,0.5,0.4,0.5,0
				c0.1-1.9-0.8-3.3-1.8-4.9c-1.2-1.9-2.2-4-3.6-5.7c-1.2-1.6-2.8-2.6-4.3-3.8c-2-1.6-3.6-3.4-5.3-5.2
				C209.5,22.2,209.3,22.4,209.4,22.5L209.4,22.5z"/>
		</g>
		<g>
			<path class="st0" d="M115.3,24.5c-3.6,3.8-4.6,9.1-7,13.7c-0.2,0.3,0.3,0.6,0.5,0.3c2.5-4.5,3.4-9.7,6.9-13.6
				C115.9,24.6,115.6,24.2,115.3,24.5L115.3,24.5z"/>
		</g>
		<g>
			<path class="st0" d="M175.9,20.5c0.9-0.1,0.9,1.8,1,2.2c0.1,0.2,0,0.4,0.1,0.6c0.2,0.4,0.2,0.5,0.6,0.7c0.6,0.3,1.1,0.1,1.5-0.5
				c0.3-0.4,0.2-0.8,0.3-1.3c0.4-1.4,0.6-2.2,2-2.7c0.4-0.1,0.7-0.2,1.1-0.3c2.5-0.7,5.1-1.1,7.7-1.5c0.3,0,0.2-0.5-0.1-0.4
				c-2.5,0.4-4.9,0.8-7.3,1.4c-1.2,0.3-2.7,0.7-3.4,1.8c-0.2,0.4-0.2,0.8-0.3,1.2c-0.2,0.4,0.6,2.8-1.7,0.3
				c-0.1-0.2,0.1-0.7-0.1-0.8c-0.6-0.5-0.5-0.9-1.4-0.7C175.8,20.3,175.8,20.5,175.9,20.5L175.9,20.5z"/>
		</g>
		<g>
			<path class="st0" d="M124,28.9c10.9-5.4,23.8-5.6,35.1-1.2c0.2,0.1,0.3-0.3,0.1-0.4C147.9,22.6,134.8,23.1,124,28.9
				C124,28.9,124,28.9,124,28.9L124,28.9z"/>
		</g>
		<g>
			<path class="st0" d="M175.4,34.9c2.9,1.5,5.5,3.6,7.4,6.3c0.1,0.2,0.4,0,0.3-0.2c-1.9-2.8-4.5-4.9-7.7-6.2
				C175.4,34.8,175.3,34.9,175.4,34.9L175.4,34.9z"/>
		</g>
		<g>
			<path class="st0" d="M204.1,57.3c1.2,3.2,2.2,6.4,3,9.7c0.8,3.2,1.7,6.5,1.2,9.8c-0.3,1.8-1.1,3.1-1.8,4.6
				c-0.5,1.1-0.5,2.1-0.8,3.3c-0.4,1.8-1.4,3.5-2.2,5.2c-0.7,1.6-1.4,3.2-2.2,4.8c-0.1,0.3,0.3,0.6,0.5,0.3c1.4-3,3.3-6.1,4.3-9.3
				c0.2-0.7,0.2-1.3,0.3-2.1c0.2-1.1,0.7-2,1.2-3.1c0.5-1.2,1-2.3,1.2-3.6c0.4-2.9-0.3-5.9-1-8.8C206.8,64.4,205.6,60.8,204.1,57.3
				C204.2,57.3,204.1,57.3,204.1,57.3L204.1,57.3z"/>
		</g>
		<g>
			<path class="st0" d="M214,50.6c-0.2,2.2,1.9,4.1,2.4,6.2c0.7,2.9,0.3,6.1-0.1,9c-0.1,0.7-0.6,2.2,0.3,2.6c0.3,0.1,0.5,0,0.7-0.1
				c0.8-0.3,0.3-0.5,0.8-1c0,0,0,0,0,0c0-1.3,1-1.5,2.8-0.8c0.1,0.2,0.4,0.1,0.3-0.1c-0.3-1-1.3-1.9-2.4-1.4c-0.5,0.2-0.5,0.7-0.8,1
				c-0.3,0.2,0.2,2.4-1.3,0.2c-0.2-0.3,0.2-1.5,0.3-1.8c0.3-2.1,0.5-4.2,0.2-6.4c-0.2-1.2-0.4-2.3-0.9-3.4c-0.6-1.4-1.8-2.5-1.9-4.1
				C214.3,50.4,214.1,50.4,214,50.6L214,50.6z"/>
		</g>
		<g>
			<path class="st0" d="M215.5,75c0.4,5.9-1.6,11.5-5.5,16c-0.1,0.2,0.1,0.4,0.2,0.2c4-4.5,6.2-10.2,5.6-16.2
				C215.8,74.7,215.5,74.7,215.5,75L215.5,75z"/>
		</g>
		<g>
			<path class="st0" d="M198.6,29.8c1.3,1.9,1.3,4.1,0.9,6.3c-0.1,0.7-0.8,2.3-0.4,3.1c0.3,0.7,1.1,0.7,1.2-0.1c0-0.1-0.1-0.2-0.2,0
				c-0.2-0.2-0.5-0.5-0.7-0.7c0-0.2,0.1-0.5,0.1-0.7c0-0.5,0.2-1,0.3-1.5c0.1-0.9,0.2-1.7,0.2-2.6C200,32.3,199.5,31,198.6,29.8
				C198.7,29.8,198.6,29.8,198.6,29.8L198.6,29.8z"/>
		</g>
		<g>
			<path class="st0" d="M200.7,37.3c0.2-0.3,0.3-0.6,0.5-0.9c0,0,0-0.1,0,0C200.9,36.7,200.8,36.9,200.7,37.3
				C200.6,37.3,200.6,37.3,200.7,37.3L200.7,37.3z"/>
		</g>
		<g>
			<path class="st0" d="M202.1,35.3c0.2-0.1,0.3-0.3,0.5-0.4c0.1,0,0-0.1-0.1-0.1C202.3,35,202.2,35.1,202.1,35.3
				C202,35.3,202.1,35.4,202.1,35.3L202.1,35.3z"/>
		</g>
		<g>
			<path class="st0" d="M156.9,13c0.7,1,1.3,2.1,1.9,3.2c0.1,0.2,0.5,0.1,0.5-0.1c-0.1-4.5,3.9-7.5,8.1-6.8c0.3,0,0.4-0.4,0.1-0.4
				c-4.7-0.7-8.5,2.6-8.7,7.2c0.2,0,0.3-0.1,0.5-0.1c-0.5-1.1-1.2-2.2-1.9-3.2C157.1,12.5,156.7,12.7,156.9,13L156.9,13z"/>
		</g>
		<g>
			<path class="st0" d="M115.8,36.4c1.7-1.4,3.5-2.6,5.4-3.6c0.2-0.1,0-0.4-0.2-0.3C119.1,33.5,117.3,34.8,115.8,36.4
				C115.7,36.4,115.7,36.5,115.8,36.4L115.8,36.4z"/>
		</g>
		<g>
			<path class="st0" d="M146.4,32c1.8,0.3,3.9,0.4,5.6,1.1c1.6,0.6,1.6,1.8,2.2,3.1c0.2,0.5,0,0.6,0.5,1c0.7,0.5,1.4,0,2-0.4
				c0.7-0.5,1.3-1.2,2.1-1.7c1.4-0.7,2.9-0.8,4.4-0.4c0.3,0.1,0.4-0.4,0.1-0.4c-1.4-0.3-2.8-0.3-4.1,0.2c-0.7,0.3-1.2,0.7-1.8,1
				c-0.2,0.1-0.3,0.3-0.5,0.4c-0.8-0.1-1.5-0.2-2.3-0.3c-0.1-0.1,0-0.7-0.1-0.9c-1.9-2.6-5-2.5-8.1-3C146.3,31.8,146.2,32,146.4,32
				L146.4,32z"/>
		</g>
		<g>
			<path class="st0" d="M186.4,31.2c0.9,1,0,3.3,1.5,3.8c0.7,0.2,1.4-0.3,1.7-0.9c0.6-1.2-0.3-3.7,1.6-3.8c0.3,0,0.3-0.4,0-0.4
				c-2.5-0.2-1.2,3.5-2.3,4.4c-1.4,1.1-1.6-0.7-1.7-1.6c-0.1-0.6-0.2-1.2-0.7-1.6C186.5,31,186.4,31.1,186.4,31.2L186.4,31.2z"/>
		</g>
		<g>
			<path class="st0" d="M126.2,20.5c0.5-0.8,1.4-0.9,2.4-0.2c0.1,0.1,0.2,0.3,0.3,0.4c0.1,0,0.2,0.1,0.3,0.2c0.4,0.1,0.7,0,0.9-0.3
				c0.6-0.6,0.3-1.7,0.5-2.4c0.5-1.8,2.3-2.9,4.2-2.8c0.3,0,0.3-0.5,0-0.5c-2.5-0.1-4.1,1.5-4.7,3.7c-0.2,0.6,0.1,0.3-0.5,1.1
				c-0.7,0.9-0.3,0.5-1,0.1c-0.3-0.2-0.6-0.3-0.9-0.3c-0.8-0.1-1.4,0.3-1.8,1C125.8,20.5,126,20.7,126.2,20.5L126.2,20.5z"/>
		</g>
		<g>
			<path class="st0" d="M219.3,40.3c0.1,0.9,0.1,2-0.5,2.8c-1.5,1.9-2.9-0.4-3.2-1.4c-0.4-1.1-0.3-2.3-0.7-3.4
				c-0.4-1.3-1.1-2.4-2.5-2.8c-0.3-0.1-0.4,0.4-0.1,0.5c3.6,1.2,1.2,6.6,4.5,7.9c2.3,0.9,3.1-2,2.7-3.6
				C219.5,40.1,219.3,40.2,219.3,40.3L219.3,40.3z"/>
		</g>
		<g>
			<path class="st0" d="M130.7,110.3c1.6-1.6,3.4,0.8,4,2.1c0.3,0.7,0.7,1.9,1.5,2.3c1.8,0.8,1.7-2.1,1.9-3.1c0-0.3-0.3-0.4-0.4-0.1
				c-0.1,0.4-0.2,2-0.5,2.2c-1.2,1-1.8-1-2.1-1.6c-0.3-0.7-0.7-1.4-1.3-2c-1-0.8-2.6-1.1-3.5-0.1
				C130.2,110.2,130.5,110.5,130.7,110.3L130.7,110.3z"/>
		</g>
		<g>
			<path class="st0" d="M149.3,71.1c0.1,0,1.1,1.4,1.1,1.4c0.1,0.2,0.1,0.5,0.2,0.8c0.1,0.3,0.3,0.6,0.6,0.7
				c0.6,0.4,1.3,0.2,1.8-0.3c0.6-0.5,0.7-1.1,0.8-1.9c0.1-1,0-1.9,0.7-2.8c0.7-0.9,1.7-1.3,2.8-1.5c0.3,0,0.3-0.5,0-0.5
				c-1.9,0.1-3.6,1.3-4,3.2c-0.1,0.4,0.1,1.2-0.1,1.5c-0.7,0.3-1.4,0.5-2.1,0.8c0-0.2-0.1-0.5-0.1-0.7c0-0.2-0.1-0.3-0.1-0.5
				c-0.3-0.7-0.8-1.1-1.5-1C149,70.6,148.9,71.1,149.3,71.1L149.3,71.1z"/>
		</g>
		<g>
			<path class="st0" d="M133.6,53.1c-0.7,0.6-0.7,1.3-0.4,2.1c0.3,0.7,0.8,1.2,1.2,1.8c0.8,1.2,1.1,2.5,0.9,3.9
				c-0.1,0.4,0.5,0.5,0.5,0.1c0.2-1.2,0.1-2.3-0.4-3.4c-0.5-1.1-2.9-3-1.5-4.2C134.1,53.2,133.8,52.9,133.6,53.1L133.6,53.1z"/>
		</g>
		<g>
			<path class="st0" d="M175.7,77c-0.5,1-3.5,7-1.4,7.4c1,0.2,1.9-1.5,2.4-2.1c1.6-1.6,3.3-2.9,5.4-3.6c0.3-0.1,0.2-0.6-0.1-0.5
				c-2.2,0.7-3.9,2-5.5,3.6c-0.4,0.4-0.8,1-1.2,1.3c-0.2,0.5-0.6,0.6-1.2,0.2c0.1-0.4,0.1-0.8,0.3-1.2c0.4-1.7,1-3.3,1.7-4.8
				C176.2,76.9,175.8,76.7,175.7,77L175.7,77z"/>
		</g>
		<g>
			<path class="st0" d="M180.9,82.7c-3,1.6-5.7,3.7-7.8,6.3c-0.2,0.3,0.2,0.6,0.4,0.4c2.1-2.6,4.7-4.7,7.7-6.3
				C181.4,82.9,181.2,82.6,180.9,82.7L180.9,82.7z"/>
		</g>
		<g>
			<path class="st0" d="M127.3,68.6c1.8-0.6,3.4-1.5,4.9-2.7c0.2-0.2-0.1-0.5-0.3-0.3c-1.4,1.1-2.9,2-4.6,2.6
				C127,68.3,127,68.7,127.3,68.6L127.3,68.6z"/>
		</g>
		<g>
			<path class="st0" d="M139.5,56.2c-1.9,4.5-3.8,9-5.4,13.5c-0.1,0.3,0.4,0.4,0.5,0.1c1.8-4.5,3.6-9,5.3-13.5
				C140,56.1,139.6,55.9,139.5,56.2L139.5,56.2z"/>
		</g>
		<g>
			<path class="st0" d="M126.9,87.2c-0.7-0.8,5.4-6.8,6.1-7.6c0.3-0.3-0.2-0.7-0.4-0.4c-1.8,1.9-3.5,3.8-5.2,5.7
				c-0.6,0.7-1.7,1.7-0.8,2.6C126.8,87.7,127.1,87.4,126.9,87.2L126.9,87.2z"/>
		</g>
		<g>
			<path class="st0" d="M171.4,55.2c-1.4,0.2-2.4,1.6-3.3,2.6c-1.4,1.4-2.8,2.7-4.3,4.1c-0.3,0.3,0.1,0.7,0.4,0.4
				c1.1-1.1,2.3-2.2,3.4-3.3c1-1,2.4-3,3.9-3.3C171.9,55.7,171.8,55.2,171.4,55.2L171.4,55.2z"/>
		</g>
		<g>
			<path class="st0" d="M174.3,66.3c-1.5,1.8-2.8,3.7-3.9,5.7c-0.1,0.3,0.2,0.5,0.4,0.2c1.1-2,2.3-3.9,3.8-5.6
				C174.7,66.4,174.5,66.2,174.3,66.3L174.3,66.3z"/>
		</g>
		<g>
			<path class="st0" d="M193.1,46.3c2.8,1.3,5,3.2,6.6,5.8c0.2,0.3,0.6,0,0.4-0.3c-1.6-2.7-4-4.7-6.8-6
				C193.1,45.8,192.8,46.2,193.1,46.3L193.1,46.3z"/>
		</g>
		<g>
			<path class="st0" d="M201.7,42.4c4.6,5.4,8,11.2,9.8,18.1c0.1,0.3,0.5,0.2,0.4-0.1c-1.5-6.8-5.1-13.3-10.1-18.2
				C201.8,42,201.6,42.2,201.7,42.4L201.7,42.4z"/>
		</g>
		<g>
			<path class="st0" d="M193.5,22.4c6.2,3,11,7.3,14.8,13c0.2,0.3,0.6,0,0.4-0.2c-3.4-5.8-8.9-10.3-15.1-13.1
				C193.4,21.9,193.2,22.3,193.5,22.4L193.5,22.4z"/>
		</g>
		<g>
			<path class="st0" d="M159.7,22.4c8.5,0,15.7,6.2,22,11.1c0.2,0.2,0.5-0.1,0.3-0.3c-6-5.2-14-11.4-22.3-11.2
				C159.4,22,159.4,22.4,159.7,22.4L159.7,22.4z"/>
		</g>
		<g>
			<path class="st0" d="M135.2,19.6c5.6-0.4,11-0.2,16.5,0.6c0.3,0,0.5-0.5,0.1-0.5c-5.5-1-11.1-1.1-16.7-0.6
				C135,19.2,134.9,19.7,135.2,19.6L135.2,19.6z"/>
		</g>
	</g>
	<g>
		<g>
			<path class="st0" d="M32.4,68.6c-0.4,5.1,1.5,9.8,2.3,14.8c0.9,5.5-0.1,11.1-1.4,16.4c-0.1,0.5,0.2,1.2,0.9,1.1
				c10.1-2.5,20.3-1.9,30.6-1.4c0.5,0,0.9-0.4,0.8-0.9c-0.3-11.4-1.4-23.4,1.8-34.5c0.2-0.9-1-1.4-1.3-0.5c-3.6,11.2-2.1,23.5-2,35
				c0.3-0.2,0.6-0.5,0.9-0.7c-10.3-0.8-20.9-1.1-31,1.4c0.3,0.4,0.6,0.7,0.9,1.1c1.3-5.2,2.3-10.5,1.6-15.9
				c-0.7-5.4-3-10.4-3.2-15.9C33.2,68.1,32.4,68.1,32.4,68.6L32.4,68.6z"/>
		</g>
		<g>
			<path class="st0" d="M33.6,101c1.9,6.4,11.8,6.5,17.1,5.9c3.3-0.4,6.7-1.3,9.7-2.8c2.3-1.2,5-3.2,5.2-6c0-0.7-1-1-1.2-0.3
				c-1.5,5.3-8.8,7.1-13.6,7.8c-2.7,0.4-5.5,0.4-8.2,0c-3.1-0.5-7-1.5-8.4-4.7C34,100.4,33.5,100.6,33.6,101L33.6,101z"/>
		</g>
		<g>
			<path class="st0" d="M66.2,70.9c7.2,1.5,14.2-2.2,20-6c3.5-2.2,6.5-4.8,8.2-8.6c1.6-3.5,2-7.4,2.2-11.2c0.2-4,0.1-8-0.8-11.8
				c-1-4-2.9-7.6-5.5-10.8c-5.2-6.5-11.4-13-19-16.6C64.4,2.6,56.4,2,48.8,2.8c-7.5,0.7-15,3-21.6,6.6c-6.6,3.6-12.4,8.5-16.7,14.7
				c-4.6,6.7-7.6,15-9.8,22.9c-1.1,4.2-1,8,0.5,12.1C3,63.4,5,68.1,8.1,71.7c2.6,3,6.3,5.1,10.3,5c2.1,0,4.1-0.6,6.1-1.1
				c2.6-0.7,5.3-1.3,7.9-2c0.9-0.2,0.7-1.7-0.2-1.5c-3.9,1-7.7,2.3-11.7,2.9c-3.9,0.7-7.4-0.5-10.3-3.2c-3-2.8-4.7-6.8-6.4-10.5
				C2.2,57.6,0.9,54,1.5,50c0.6-3.6,2-7.2,3.3-10.6c1.4-3.8,2.9-7.6,4.9-11.1c3.5-6.1,8.4-11.2,14.3-15.1
				C35.5,5.4,51.1,1.9,64.7,5.3c7.7,1.9,13.8,6.7,19.1,12.3c2.7,2.8,5.5,5.8,7.6,9.1c2.2,3.5,3.2,7.4,3.6,11.5
				c0.3,4.1,0.2,8.4-0.5,12.4c-0.8,4.5-2.8,8.3-6.4,11.1c-6.1,4.7-13.9,9.1-21.8,8.6C65.8,70.3,65.8,70.8,66.2,70.9L66.2,70.9z"/>
		</g>
		<g>
			<path class="st0" d="M31.5,55.6c0-1.7-1.2-3.1-2.9-3.5c-2.1-0.4-3.9,1.1-4.8,2.8c-1.1,2.1-1,4.3-0.3,6.5c0.5,1.6,1.5,3.5,0.4,5.2
				c-1.1,1.8-3.5,1-4.9,0.1c-5.7-3.7-3.5-11.4-0.3-15.9c2-2.8,5-5.4,8.6-5.3c3.1,0,5.6,2.5,4.9,5.7c-0.2,0.8,1.1,1.1,1.4,0.3
				c1.4-4.1-2.4-7.5-6.3-7.5c-5.1,0-9,4.2-11.3,8.4c-2.2,4.1-3,9.2-0.2,13.3c2,2.8,7.9,5.7,9.6,1.1c1-2.7-0.9-5.1-1.2-7.7
				c-0.2-1.8,0.5-3.8,1.9-4.9c1.7-1.4,4.2-0.6,4.5,1.6C30.7,56.1,31.5,56.1,31.5,55.6L31.5,55.6z"/>
		</g>
		<g>
			<path class="st0" d="M60.9,49.6c0.6-1.5,2-2.6,3.6-2.7c1.7-0.1,3.1,1.3,4,2.6c0.9,1.4,1.3,3,1.3,4.7c0,1.5-0.6,2.8-0.9,4.2
				c-0.4,2,0.5,3.6,2.5,4c2.3,0.5,4.6-0.8,6-2.4c3.6-3.9,3.2-10,1.8-14.7c-1.4-4.9-5-9.3-10.4-9.5c-5.2-0.2-9.7,4.4-9.7,9.6
				c0,0.9,1.4,1.1,1.5,0.2c0.1-5,4.6-9.1,9.6-8.1c5.5,1.2,7.8,6.9,8.3,12c0.3,2.5,0.3,5.1-0.8,7.4c-0.5,1.2-1.3,2.2-2.3,3
				c-1.1,0.9-3.3,1.9-4.6,0.9c-1.2-0.9-0.3-2.7,0-3.8c0.3-1,0.4-2,0.4-3c-0.1-2-0.7-3.9-1.9-5.5c-1.2-1.5-3-2.8-5-2.5
				c-1.9,0.3-3.6,1.8-4.1,3.6C60.1,49.8,60.7,50.1,60.9,49.6L60.9,49.6z"/>
		</g>
		<g>
			<path class="st0" d="M35.9,39.7c0.6,1,1,1.9,1.3,3c0,0.2,0.3,0.3,0.4,0.1c1.9-3.1,3.7-6.4,5.6-9.5c-0.1,0-0.3-0.1-0.4-0.1
				c0.3,1.8,0.5,3.6,0.9,5.4c0,0.3,0.3,0.3,0.5,0.2c0.8-0.5,1.2-1.1,1.6-1.9c-0.2,0-0.3,0.1-0.5,0.1c0.8,0.7,1.5,1.5,2.3,2.2
				c0.2,0.2,0.4,0.2,0.5,0c0.8-0.9,1.6-1.7,2.4-2.5c-0.2,0-0.4,0-0.6-0.1c0.3,0.8,0.6,1.7,0.9,2.5c0.1,0.3,0.5,0.3,0.6,0.1
				c1-1.4,2.1-2.7,3.1-4.1c0.4-0.5,0.8-1,1.2-1.5c0.3-0.3,0.5-0.7,0.8-1c0.8-0.3,1.2-0.1,1,0.7c0.2,0.7,0.1,1.8,0.1,2.5
				c0,0.6,0,1.3,0.1,1.9c0.1,1.8,0.1,3.7,0.1,5.5c0,0.2,0.2,0.5,0.5,0.4c0.9-0.5,1.5-1,2-1.9c-0.2,0-0.4,0.1-0.6,0.1
				c0.4,0.3,0.7,0.6,1.1,0.9c0.4,0.3,0.8-0.3,0.5-0.6c-0.4-0.3-0.7-0.6-1.1-0.9c-0.2-0.1-0.4-0.1-0.6,0.1c-0.5,0.8-1,1.3-1.7,1.7
				c0.2,0.1,0.4,0.2,0.6,0.3c0-2.5,0-5,0-7.5c0-1,0.4-3.8-0.6-4.4c-0.9-0.6-1.8,0.7-2.3,1.3c-1.6,2-3.1,4.1-4.7,6.1
				c0.2,0,0.4,0,0.6,0.1c-0.3-0.8-0.6-1.7-0.9-2.5c-0.1-0.3-0.5-0.3-0.6-0.1c-0.3,0.3-1.5,2.1-1.9,2.2c-0.7,0.1-1.8-1.4-2.2-1.8
				c-0.1-0.1-0.4,0-0.4,0.1c-0.2,0.7-0.6,1.3-1.3,1.6c0.1,0.1,0.3,0.2,0.4,0.2c-0.3-1.8-0.7-3.6-1-5.4c0-0.2-0.3-0.3-0.4-0.1
				c-1.8,3.2-3.8,6.3-5.7,9.5c0.1,0,0.3,0,0.4,0c-0.4-1.1-0.9-2.1-1.6-3C36,39.5,35.9,39.6,35.9,39.7L35.9,39.7z"/>
		</g>
		<g>
			<path class="st0" d="M31.2,44.9C31.2,44.9,31.2,44.9,31.2,44.9C31.1,45,31,45,31.1,45.1c0,0.1,0,0.1,0.1,0.2
				c0.1,0.1,0.2,0,0.3-0.1c0.9-1.1,1.4-2.3,2.4-3.2c-0.2-0.1-0.4-0.2-0.6-0.3c0.2,0.8,0.4,1.7,0.7,2.5c0.1,0.4,0.3,0.8,0.6,1
				c1,0.5,1.9-1.3,2.3-1.9c0.3-0.4-0.3-0.9-0.7-0.5c-0.2,0.3-0.5,0.6-0.7,0.8c-0.4,0.5-0.5,0.8-0.9,0.1c-0.3-0.7-0.5-1.6-0.7-2.3
				c-0.1-0.2-0.4-0.3-0.6-0.2c-0.5,0.5-1,1.1-1.4,1.7c-0.4,0.6-0.6,1.4-1,1.9c0.1,0,0.2,0,0.3,0c0,0,0,0,0,0
				C31.5,45,31.4,44.8,31.2,44.9L31.2,44.9z"/>
		</g>
		<g>
			<path class="st0" d="M22.4,75.8c0.9-1,2.3-1.4,3.3-2.5c0.8-0.9,1.4-1.9,1.6-3c0.6-2.7-1.7-4.7-1.5-7.3c0-0.7-0.9-0.8-1-0.1
				c-0.5,2.3,1.5,4,1.6,6.2c0.1,1.4-0.6,2.8-1.5,3.8c-0.8,1-2.1,1.5-2.8,2.5C21.8,75.8,22.2,76,22.4,75.8L22.4,75.8z"/>
		</g>
		<g>
			<path class="st0" d="M68.9,59.7c-0.4,2.5,1.5,5.9,3.2,7.5c2,1.9,5.3,2.2,7.9,1.6c0.8-0.2,0.6-1.3-0.2-1.2
				c-2.4,0.2-4.8,0.4-6.8-1.1c-1.8-1.4-3.6-4.5-3.6-6.8C69.4,59.3,69,59.4,68.9,59.7L68.9,59.7z"/>
		</g>
		<g>
			<path class="st0" d="M43.5,99.5c2.2,1.7,5.4,1.8,8,1c0.4-0.1,0.2-0.8-0.2-0.7c-2.7,0.6-5,0.3-7.5-0.8
				C43.4,98.9,43.2,99.3,43.5,99.5L43.5,99.5z"/>
		</g>
		<g>
			<path class="st0" d="M57.5,99.2c-2.9,2.2-5.9,3.6-9.5,3.8c-0.3,0-0.3,0.6,0,0.6c3.6,0.3,7.5-1.4,9.7-4.2
				C57.8,99.3,57.7,99.1,57.5,99.2L57.5,99.2z"/>
		</g>
		<g>
			<path class="st0" d="M36.4,100.3c1.3,3.1,4.9,3.9,7.9,4.3c0.4,0,0.4-0.5,0.1-0.5c-3-0.6-6.1-1-7.8-3.9
				C36.5,100.1,36.4,100.2,36.4,100.3L36.4,100.3z"/>
		</g>
		<g>
			<path class="st0" d="M38.7,100.4c1.3,1.1,2.9,1.9,4.6,2.2c0.3,0.1,0.4-0.3,0.2-0.5c-0.4-0.3-0.8-0.6-1.2-0.9
				c-0.2-0.2-0.4,0.2-0.2,0.3c0.4,0.3,0.8,0.7,1.1,1c0.1-0.2,0.1-0.3,0.2-0.5c-1.7-0.4-3-0.9-4.5-1.8
				C38.7,100.1,38.6,100.3,38.7,100.4L38.7,100.4z"/>
		</g>
		<g>
			<path class="st0" d="M47.2,98.9c1,0.4,2,0.5,3.1,0.4c0.3,0,0.2-0.5-0.1-0.4c-1,0.2-2,0.1-2.9-0.3C47.1,98.6,47,98.8,47.2,98.9
				L47.2,98.9z"/>
		</g>
		<g>
			<path class="st0" d="M54.6,103.7c3.1-1.2,5.9-3,8.3-5.2c0.3-0.3-0.1-0.7-0.4-0.5c-2.5,2.2-5.2,3.9-8.1,5.3
				C54.2,103.5,54.3,103.8,54.6,103.7L54.6,103.7z"/>
		</g>
		<g>
			<path class="st0" d="M36.9,49.8C36,56.2,35.7,63,36.7,69.4c0.1,0.4,0.7,0.3,0.6-0.1c-0.5-6.5-0.7-13-0.2-19.5
				C37.2,49.6,36.9,49.6,36.9,49.8L36.9,49.8z"/>
		</g>
		<g>
			<path class="st0" d="M41.9,46.7c-1.3,6.5-2.2,13-2,19.6c0.1,3.1,0.4,6.2,0.6,9.3c0.2,3.3,0,6.6-0.2,9.9c0,0.4,0.6,0.5,0.6,0.1
				c1.2-5.9,0.1-12.3-0.2-18.3c-0.4-6.9,0.6-13.7,1.3-20.6C42.1,46.6,41.9,46.6,41.9,46.7L41.9,46.7z"/>
		</g>
		<g>
			<path class="st0" d="M45.2,48.8c0,1.3-0.1,2.6-0.1,3.9c0,0.2,0.4,0.3,0.4,0c0-1.3,0-2.6-0.1-3.9C45.5,48.7,45.2,48.6,45.2,48.8
				L45.2,48.8z"/>
		</g>
		<g>
			<path class="st0" d="M41.2,39.6c-0.5,1.9-0.6,3.9-0.5,5.8c0,0.3,0.6,0.3,0.6,0c0-1.9,0.2-3.8,0.4-5.7
				C41.6,39.5,41.2,39.4,41.2,39.6L41.2,39.6z"/>
		</g>
		<g>
			<path class="st0" d="M53.1,42.4c-1.8,8.8-0.3,17.7-0.9,26.6c0,0.3,0.4,0.3,0.5,0c0.8-8.9-0.9-17.8,0.6-26.6
				C53.3,42.3,53.1,42.3,53.1,42.4L53.1,42.4z"/>
		</g>
		<g>
			<path class="st0" d="M52.1,72.8c0,4.5,0,9.1,0.1,13.6c0,0.3,0.5,0.4,0.5,0.1c-0.1-4.5-0.3-9.1-0.4-13.6
				C52.3,72.7,52.1,72.7,52.1,72.8L52.1,72.8z"/>
		</g>
		<g>
			<path class="st0" d="M58.2,57.5c-0.4,8.4-1,16.8-2.2,25.2c0,0.3,0.4,0.3,0.4,0c1.2-8.4,1.9-16.8,2-25.2
				C58.4,57.4,58.2,57.3,58.2,57.5L58.2,57.5z"/>
		</g>
		<g>
			<path class="st0" d="M61.6,62.6c-0.3,2.9-0.6,5.9-0.8,8.8c0,0.3,0.4,0.4,0.5,0.1c0.3-2.9,0.5-5.9,0.7-8.8
				C62,62.4,61.7,62.3,61.6,62.6L61.6,62.6z"/>
		</g>
		<g>
			<path class="st0" d="M60.1,78.5c-0.3,3.4-0.6,6.8-0.8,10.1c0,0.3,0.5,0.4,0.5,0.1c0.3-3.4,0.5-6.8,0.8-10.1
				C60.6,78.2,60.1,78.2,60.1,78.5L60.1,78.5z"/>
		</g>
		<g>
			<path class="st0" d="M59.3,91.3C59.3,91.3,59.3,91.2,59.3,91.3C59.2,91.3,59.2,91.3,59.3,91.3L59.3,91.3z"/>
		</g>
		<g>
			<path class="st0" d="M51.6,95.4c0.6,0.8,1,1.6,1.5,2.5c0.2,0.3,0.6,0,0.5-0.3c-0.4-0.9-1-1.7-1.6-2.5
				C51.8,94.9,51.5,95.2,51.6,95.4L51.6,95.4z"/>
		</g>
		<g>
			<path class="st0" d="M53.6,95.3c0.3,0.9,0.9,1.9,1.8,2.4c0.3,0.2,0.6-0.2,0.3-0.4c-0.7-0.7-1.3-1.3-1.6-2.2
				C53.9,94.7,53.5,95,53.6,95.3L53.6,95.3z"/>
		</g>
		<g>
			<path class="st0" d="M55.2,94.9c0.7,1.1,1.5,2.4,2.5,3.2c0.2,0.2,0.6-0.1,0.5-0.4c-0.6-1.1-1.7-2.2-2.5-3.1
				C55.3,94.3,55,94.6,55.2,94.9L55.2,94.9z"/>
		</g>
		<g>
			<path class="st0" d="M57,95c0.8,1.1,1.5,2.4,2.5,3.2c0.2,0.2,0.6-0.1,0.4-0.4c-0.6-1.2-1.7-2.2-2.5-3.2
				C57.3,94.4,56.8,94.7,57,95L57,95z"/>
		</g>
		<g>
			<path class="st0" d="M59,95.5c0.8,1,1.6,2,2.4,2.9c0.3,0.3,0.7-0.1,0.5-0.4c-0.8-1-1.7-1.9-2.6-2.8C59.2,95,58.9,95.3,59,95.5
				L59,95.5z"/>
		</g>
		<g>
			<path class="st0" d="M60.7,94.8c1,1.3,2,2.5,3.1,3.7c0.3,0.3,0.8-0.1,0.5-0.4c-1-1.2-2.1-2.4-3.2-3.6
				C60.9,94.3,60.5,94.6,60.7,94.8L60.7,94.8z"/>
		</g>
		<g>
			<path class="st0" d="M62.2,94.1c0.6,0.7,1.3,1.3,1.9,1.9c0.2,0.2,0.5-0.2,0.3-0.4c-0.6-0.6-1.3-1.3-2.1-1.8
				C62.2,93.8,62.1,93.9,62.2,94.1L62.2,94.1z"/>
		</g>
		<g>
			<path class="st0" d="M61.5,90.8c0.7,0.9,1.4,1.9,2.2,2.7c0.3,0.3,0.7-0.1,0.5-0.4c-0.7-0.9-1.5-1.8-2.3-2.6
				C61.7,90.2,61.3,90.5,61.5,90.8L61.5,90.8z"/>
		</g>
		<g>
			<path class="st0" d="M61.8,88.5c0.5,0.9,1.2,1.7,2,2.3c0.3,0.3,0.7-0.3,0.4-0.5c-0.7-0.6-1.3-1.3-1.9-2
				C62.1,88,61.7,88.2,61.8,88.5L61.8,88.5z"/>
		</g>
		<g>
			<path class="st0" d="M62.3,85.1c0.2,0.7,0.7,1.6,1.5,1.9c0.2,0.1,0.5-0.2,0.3-0.4c-0.2-0.3-0.5-0.4-0.8-0.7
				c-0.2-0.3-0.4-0.6-0.6-1C62.6,84.6,62.2,84.8,62.3,85.1L62.3,85.1z"/>
		</g>
		<g>
			<path class="st0" d="M62.4,82.4c0.4,0.8,0.8,1.5,1.5,2.2c0.3,0.3,0.7-0.1,0.4-0.4c-0.6-0.6-1.1-1.2-1.5-1.9
				C62.6,82.1,62.3,82.2,62.4,82.4L62.4,82.4z"/>
		</g>
		<g>
			<path class="st0" d="M61.8,79.8c0.7,0.9,1.6,1.8,2.5,2.5c0.3,0.2,0.7-0.2,0.4-0.5c-0.7-0.9-1.7-1.7-2.6-2.5
				C62,79.2,61.6,79.6,61.8,79.8L61.8,79.8z"/>
		</g>
		<g>
			<path class="st0" d="M61.9,77.5c0.8,0.7,1.5,1.6,2.3,2.2c0.3,0.2,0.7-0.2,0.4-0.5c-0.7-0.8-1.6-1.5-2.4-2.2
				C62.1,76.9,61.6,77.3,61.9,77.5L61.9,77.5z"/>
		</g>
		<g>
			<path class="st0" d="M62.2,75.3c0.6,0.7,1.2,1.4,1.9,2c0.2,0.2,0.7-0.1,0.4-0.3c-0.6-0.7-1.3-1.3-2-2C62.4,74.8,62,75,62.2,75.3
				L62.2,75.3z"/>
		</g>
		<g>
			<path class="st0" d="M61.9,72.8c0.7,0.7,1.4,1.4,2.1,2.1c0.2,0.2,0.5-0.1,0.3-0.3c-0.7-0.7-1.5-1.4-2.2-2
				C62,72.5,61.8,72.7,61.9,72.8L61.9,72.8z"/>
		</g>
		<g>
			<path class="st0" d="M62.3,70.7c0.8,0.6,1.4,1.2,2,2c0.2,0.3,0.6-0.1,0.4-0.3c-0.6-0.8-1.4-1.4-2.2-1.9
				C62.3,70.4,62.1,70.6,62.3,70.7L62.3,70.7z"/>
		</g>
		<g>
			<path class="st0" d="M63,68.5c0.5,0.7,1,1.3,1.5,2c0.3,0.3,0.7-0.1,0.5-0.4c-0.5-0.7-1.1-1.3-1.6-1.9C63.2,68,62.8,68.3,63,68.5
				L63,68.5z"/>
		</g>
		<g>
			<path class="st0" d="M62.7,65.8c0.5,0.8,1.1,1.6,1.7,2.3c0.2,0.3,0.6-0.1,0.4-0.3c-0.5-0.7-1.2-1.5-1.8-2.2
				C62.8,65.4,62.5,65.6,62.7,65.8L62.7,65.8z"/>
		</g>
		<g>
			<path class="st0" d="M63.5,63.8c0.6,0.9,1.4,1.8,2.2,2.6c0.3,0.3,0.8-0.1,0.5-0.4c-0.7-0.9-1.6-1.7-2.5-2.4
				C63.6,63.4,63.4,63.7,63.5,63.8L63.5,63.8z"/>
		</g>
		<g>
			<path class="st0" d="M64.7,61.6c0.5,0.8,1.1,1.5,1.7,2.3c0.2,0.2,0.6-0.1,0.4-0.3c-0.6-0.7-1.2-1.5-1.9-2.2
				C64.8,61.3,64.6,61.5,64.7,61.6L64.7,61.6z"/>
		</g>
		<g>
			<path class="st0" d="M66.1,68.2c0.5,0.9,1,1.8,1.6,2.6c0.2,0.3,0.8,0,0.6-0.4c-0.5-0.9-1.1-1.8-1.7-2.6
				C66.4,67.6,66,67.9,66.1,68.2L66.1,68.2z"/>
		</g>
		<g>
			<path class="st0" d="M66.9,66.5c0.8,1.1,1.6,2.3,2.5,3.4c0.2,0.3,0.6-0.1,0.4-0.3c-0.8-1.2-1.6-2.3-2.5-3.4
				C67.2,65.9,66.7,66.2,66.9,66.5L66.9,66.5z"/>
		</g>
		<g>
			<path class="st0" d="M67.3,65.1c1.3,1.6,2.6,3.2,3.8,4.8c0.2,0.3,0.7-0.1,0.5-0.4c-1.2-1.7-2.5-3.3-4.1-4.7
				C67.4,64.7,67.2,65,67.3,65.1L67.3,65.1z"/>
		</g>
		<g>
			<path class="st0" d="M69.1,64.7c1,1.2,1.8,2.4,2.5,3.7c0.2,0.4,0.8,0.1,0.6-0.3c-0.8-1.4-1.7-2.6-2.7-3.8
				C69.3,64.2,68.9,64.5,69.1,64.7L69.1,64.7z"/>
		</g>
		<g>
			<path class="st0" d="M72.1,65.9c0.4,1,0.9,2,1.6,2.8c0.2,0.3,0.6-0.1,0.4-0.3c-0.7-0.8-1.2-1.7-1.6-2.6
				C72.3,65.6,72,65.7,72.1,65.9L72.1,65.9z"/>
		</g>
		<g>
			<path class="st0" d="M50.4,96c0.4,0.8,0.9,1.5,1.6,2.1c0.2,0.2,0.5-0.1,0.3-0.3c-0.6-0.6-1.2-1.2-1.6-1.9
				C50.5,95.7,50.3,95.8,50.4,96L50.4,96z"/>
		</g>
		<g>
			<path class="st0" d="M48.7,96.5c0.2,0.6,0.6,1.1,1,1.5c0.2,0.2,0.5-0.2,0.3-0.4c-0.4-0.4-0.7-0.8-1-1.3
				C48.9,96.1,48.6,96.2,48.7,96.5L48.7,96.5z"/>
		</g>
		<g>
			<path class="st0" d="M47.3,96.6c0.3,0.3,0.6,0.7,0.9,1c0.2,0.2,0.5-0.1,0.3-0.2c-0.3-0.3-0.6-0.7-0.9-1
				C47.4,96.2,47.1,96.4,47.3,96.6L47.3,96.6z"/>
		</g>
		<g>
			<path class="st0" d="M15.8,63.5c2.1,1.6,4.5,3.3,6.9,4.5c0.3,0.1,0.5-0.3,0.3-0.5c-2.2-1.6-4.6-2.9-6.9-4.3
				C15.8,63.1,15.6,63.3,15.8,63.5L15.8,63.5z"/>
		</g>
		<g>
			<path class="st0" d="M14.6,61.4c2.9,1.9,5.8,3.9,8.8,5.6c0.3,0.2,0.7-0.3,0.4-0.5c-2.9-1.9-5.9-3.6-8.8-5.4
				C14.6,60.9,14.4,61.3,14.6,61.4L14.6,61.4z"/>
		</g>
		<g>
			<path class="st0" d="M15.1,59.7c0.2,1.2,2.4,2,3.3,2.6c1.7,1.1,3.4,2.3,5.3,3c0.3,0.1,0.5-0.3,0.2-0.4c-1.4-1-2.9-1.7-4.4-2.6
				c-0.7-0.4-1.5-0.9-2.2-1.3c-0.5-0.3-1.7-0.8-1.9-1.4C15.4,59.3,15.1,59.4,15.1,59.7L15.1,59.7z"/>
		</g>
		<g>
			<path class="st0" d="M15.4,58.3c2.6,1.9,5.3,3.8,8.1,5.5c0.3,0.1,0.5-0.2,0.3-0.4c-2.6-2-5.4-3.7-8.2-5.4
				C15.4,57.9,15.2,58.2,15.4,58.3L15.4,58.3z"/>
		</g>
		<g>
			<path class="st0" d="M16,56.4c2.5,1.9,5,3.7,7.6,5.5c0.3,0.2,0.7-0.3,0.4-0.5c-2.5-1.9-5.1-3.6-7.7-5.3
				C16,55.9,15.7,56.2,16,56.4L16,56.4z"/>
		</g>
		<g>
			<path class="st0" d="M16.6,53.9c1.7,2.1,4,3.9,6.3,5.4c0.3,0.2,0.6-0.2,0.3-0.5c-2.2-1.7-4.3-3.4-6.5-5.1
				C16.6,53.7,16.5,53.8,16.6,53.9L16.6,53.9z"/>
		</g>
		<g>
			<path class="st0" d="M17.7,51.5c0.9,1.1,1.9,2.1,2.9,3.1c0.8,0.8,1.5,1.7,2.5,2.2c0.3,0.2,0.7-0.2,0.4-0.5
				c-2-1.5-3.6-3.5-5.5-5.1C17.8,51.1,17.5,51.3,17.7,51.5L17.7,51.5z"/>
		</g>
		<g>
			<path class="st0" d="M19.4,49.3c1.8,1.5,3.1,3.7,4.7,5.4c0.3,0.3,0.8-0.1,0.5-0.4c-0.9-1-1.8-2-2.6-2.9c-0.7-0.8-1.4-1.8-2.4-2.3
				C19.4,49,19.3,49.2,19.4,49.3L19.4,49.3z"/>
		</g>
		<g>
			<path class="st0" d="M21.4,47.4c1,2.2,2.5,4.3,4,6.1c0.3,0.4,0.8-0.1,0.6-0.5c-1.4-1.9-2.8-3.9-4.2-5.9
				C21.7,46.9,21.3,47.1,21.4,47.4L21.4,47.4z"/>
		</g>
		<g>
			<path class="st0" d="M23.3,46.4c1.1,2.4,2.4,4.8,3.8,7c0.2,0.3,0.7,0,0.6-0.3c-1.2-2.3-2.6-4.7-4-6.9
				C23.6,45.9,23.2,46.1,23.3,46.4L23.3,46.4z"/>
		</g>
		<g>
			<path class="st0" d="M26.3,46.7c-0.1,0.1,1.2,2.7,1.3,2.9c0.5,1,0.9,2.1,1.5,3.1c0.2,0.3,0.7,0.1,0.6-0.2c-0.9-2.1-2-4.2-3.1-6.2
				c-0.1-0.2-0.3-0.1-0.4,0c0,0.1-0.1,0.2-0.1,0.3C26,46.6,26.2,46.8,26.3,46.7L26.3,46.7z"/>
		</g>
		<g>
			<path class="st0" d="M29.8,46.1c0.4,2.3,0.9,4.6,1.6,6.8c0.1,0.4,0.7,0.2,0.6-0.2c-0.4-2.3-1-4.5-1.7-6.7
				C30.2,45.7,29.7,45.8,29.8,46.1L29.8,46.1z"/>
		</g>
		<g>
			<path class="st0" d="M60.4,43.6c0.5,1.2,1.2,2.4,2,3.6c0.2,0.3,0.6,0,0.4-0.3c-0.7-1.1-1.4-2.3-2.1-3.4
				C60.5,43.4,60.3,43.5,60.4,43.6L60.4,43.6z"/>
		</g>
		<g>
			<path class="st0" d="M61.5,40.2c0.6,2.3,1.7,4.7,3,6.7c0.2,0.3,0.6,0,0.5-0.3c-1-2.2-2-4.3-3.1-6.5C61.8,39.9,61.5,40,61.5,40.2
				L61.5,40.2z"/>
		</g>
		<g>
			<path class="st0" d="M63.5,38.8c-1.4,0.8,3.4,7.3,4,8.2c0.2,0.3,0.7,0,0.5-0.3c-0.6-1.1-1.3-2.2-2-3.2c-0.4-0.7-2.8-3.8-2.3-4.4
				C63.8,38.9,63.6,38.7,63.5,38.8L63.5,38.8z"/>
		</g>
		<g>
			<path class="st0" d="M64.8,38c1.2,4.3,3.2,8.6,5.5,12.4c0.1,0.2,0.5,0,0.4-0.2c-2.1-4-3.9-8.1-5.7-12.3
				C65,37.7,64.8,37.8,64.8,38L64.8,38z"/>
		</g>
		<g>
			<path class="st0" d="M70.1,57.3c0.5,1.4,1.1,2.7,1.8,3.9c0.1,0.2,0.5,0,0.4-0.3c-0.6-1.3-1.3-2.6-1.9-3.9
				C70.4,56.9,70,57,70.1,57.3L70.1,57.3z"/>
		</g>
		<g>
			<path class="st0" d="M70.4,53.5c0.9,2.4,2,4.7,3.2,6.9c0.2,0.3,0.6,0.1,0.4-0.2c-1.1-2.3-2.2-4.6-3.3-6.9
				C70.6,53.1,70.3,53.3,70.4,53.5L70.4,53.5z"/>
		</g>
		<g>
			<path class="st0" d="M70.3,50.3c1.3,3.2,2.9,6.3,4.6,9.3c0.1,0.3,0.6,0.1,0.4-0.2c-1.5-3.1-3-6.2-4.7-9.2
				C70.4,50,70.2,50.1,70.3,50.3L70.3,50.3z"/>
		</g>
		<g>
			<path class="st0" d="M66.1,37.7c1.8,3.3,3.8,6.5,5.6,9.9c1.7,3.3,3.2,6.7,4.8,10c0.1,0.3,0.6,0.1,0.5-0.2
				c-1.4-3.5-3.2-7-4.9-10.3c-1.7-3.2-3.5-6.6-5.7-9.5C66.2,37.5,66,37.6,66.1,37.7L66.1,37.7z"/>
		</g>
		<g>
			<path class="st0" d="M68,37.2c1.6,3.3,3.6,6.5,5.4,9.8c1.7,3.2,3.4,6.5,5.1,9.7c0.2,0.3,0.6,0.1,0.5-0.2c-1.6-3.4-3.4-6.7-5.2-10
				C72,43.3,70.3,40,68.2,37C68.1,36.9,67.9,37,68,37.2L68,37.2z"/>
		</g>
		<g>
			<path class="st0" d="M70.1,37.1c2.5,5.1,5.4,10,8,15c0.1,0.3,0.6,0.1,0.4-0.2c-2.4-5.1-5.1-10.3-8.2-15
				C70.3,36.8,70,36.9,70.1,37.1L70.1,37.1z"/>
		</g>
		<g>
			<path class="st0" d="M72.8,37.8c1.5,2.7,3,5.4,4.5,8c0.1,0.2,0.5,0.1,0.4-0.2c-1.4-2.7-3-5.3-4.5-8C73,37.5,72.6,37.6,72.8,37.8
				L72.8,37.8z"/>
		</g>
		<g>
			<path class="st0" d="M76.4,12.3c0.6,2,2,3.4,3.4,4.8c1.3,1.4,2.6,2.8,3.7,4.3c2.2,3.2,3.9,6.8,4.9,10.6c2.1,7.7,1.4,15.5-1.3,23
				c-0.1,0.3,0.4,0.5,0.5,0.2c2.9-7.1,3.3-15.3,1.5-22.7c-0.9-3.5-2.3-6.9-4.2-9.9c-1-1.6-2.2-3.2-3.5-4.6c-1.7-1.8-3.6-3.4-4.6-5.8
				C76.6,12,76.4,12.1,76.4,12.3L76.4,12.3z"/>
		</g>
		<g>
			<path class="st0" d="M73.5,65c4.6,2.2,8.6-1.8,11.2-5.3c0.2-0.3-0.2-0.6-0.5-0.3c-2.8,3.3-5.9,7.1-10.7,5.4
				C73.4,64.8,73.4,65,73.5,65L73.5,65z"/>
		</g>
		<g>
			<path class="st0" d="M76,65.1c0.5,1,0.9,2,1.3,3c0.1,0.3,0.5,0.1,0.5-0.1c-0.3-1.1-0.8-2.2-1.5-3.1C76.2,64.7,75.9,64.9,76,65.1
				L76,65.1z"/>
		</g>
		<g>
			<path class="st0" d="M78.4,65.5c0.1,0.7,0.4,1.5,0.8,2c0.2,0.2,0.5,0,0.4-0.2c-0.4-0.6-0.6-1.2-0.8-1.9
				C78.7,65.1,78.4,65.2,78.4,65.5L78.4,65.5z"/>
		</g>
		<g>
			<path class="st0" d="M79.7,64.2c0.1,0.7,0.3,1.5,0.7,2.1c0.1,0.2,0.4,0,0.4-0.2c-0.1-0.3-0.2-0.6-0.3-0.9
				c-0.1-0.4-0.2-0.7-0.3-1.1C80,63.9,79.6,64,79.7,64.2L79.7,64.2z"/>
		</g>
		<g>
			<path class="st0" d="M80.7,63.6c0.3,0.9,0.6,1.9,1,2.7c0.1,0.3,0.5,0.1,0.4-0.2c-0.3-0.9-0.8-1.8-1.2-2.7
				C80.9,63.3,80.7,63.4,80.7,63.6L80.7,63.6z"/>
		</g>
		<g>
			<path class="st0" d="M82.2,62.9C82,63,82.9,65,83,65.2c0.1,0.2,0.5,0,0.4-0.2c-0.1-0.4-0.3-0.8-0.5-1.2c-0.1-0.2-0.3-0.8-0.5-1
				c-0.2-0.1-0.5,0-0.3,0.3c0,0,0.1,0,0.1,0c0,0,0,0,0,0C82.3,63,82.3,62.9,82.2,62.9L82.2,62.9z"/>
		</g>
		<g>
			<path class="st0" d="M83.5,60.3c0.2,1.2,0.5,2.6,1.2,3.6c0.1,0.2,0.4,0,0.4-0.2c-0.2-0.6-0.5-1.1-0.7-1.7
				c-0.2-0.6-0.4-1.2-0.6-1.8C83.7,60.1,83.4,60.1,83.5,60.3L83.5,60.3z"/>
		</g>
		<g>
			<path class="st0" d="M84.5,59.5c0.6,1.2,1.1,2.4,1.7,3.5c0.2,0.3,0.6,0.1,0.4-0.2c-0.5-1.2-1.2-2.3-1.9-3.4
				C84.7,59.2,84.4,59.3,84.5,59.5L84.5,59.5z"/>
		</g>
		<g>
			<path class="st0" d="M86.1,57.2c0.3,1.6,0.9,3.2,1.7,4.6c0.1,0.2,0.5,0.2,0.5-0.1c0-0.1,0-0.3,0-0.4c0-0.3-0.4-0.4-0.5-0.1
				c0,0.1-0.1,0.3-0.1,0.4c0.2,0,0.3,0,0.5,0c-0.7-1.5-1.3-2.9-1.8-4.5C86.4,56.9,86.1,57,86.1,57.2L86.1,57.2z"/>
		</g>
		<g>
			<path class="st0" d="M87,54.9c0.6,1.8,1.3,3.7,2.4,5.2c0.2,0.2,0.6,0,0.4-0.3c-0.8-1.7-1.7-3.4-2.4-5.1
				C87.3,54.5,87,54.6,87,54.9L87,54.9z"/>
		</g>
		<g>
			<path class="st0" d="M87.9,52.1c1,2.5,2.3,4.9,3.7,7.1c0.1,0.2,0.6,0,0.4-0.2c-1.4-2.3-2.6-4.6-3.8-7
				C88.1,51.8,87.8,51.9,87.9,52.1L87.9,52.1z"/>
		</g>
		<g>
			<path class="st0" d="M89.3,49.6c0.8,2.5,2,4.8,3.5,7c0.2,0.3,0.5,0,0.4-0.3c-1.4-2.2-2.5-4.4-3.5-6.8
				C89.5,49.3,89.2,49.4,89.3,49.6L89.3,49.6z"/>
		</g>
		<g>
			<path class="st0" d="M90,45.4c1.1,2.8,2.3,5.5,3.5,8.2c0.1,0.3,0.6,0.1,0.5-0.2c-1.2-2.7-2.4-5.4-3.7-8.1
				C90.2,45.1,89.9,45.2,90,45.4L90,45.4z"/>
		</g>
		<g>
			<path class="st0" d="M90.3,42.7c1.4,2.8,2.9,5.6,4.4,8.4c0.2,0.3,0.6,0.1,0.5-0.2c-1.5-2.8-3-5.6-4.5-8.3
				C90.5,42.4,90.2,42.5,90.3,42.7L90.3,42.7z"/>
		</g>
		<g>
			<path class="st0" d="M89.6,37.9c1.8,3.1,3.8,6.2,5.9,9.2c0.2,0.3,0.6-0.1,0.4-0.3c-2-3-4-6-6-9.1C89.8,37.6,89.5,37.7,89.6,37.9
				L89.6,37.9z"/>
		</g>
		<g>
			<path class="st0" d="M89.4,34.1c2,3.3,4.1,6.5,6.2,9.7c0.2,0.3,0.5,0,0.4-0.3c-2.1-3.2-4.2-6.4-6.3-9.6
				C89.5,33.8,89.3,33.9,89.4,34.1L89.4,34.1z"/>
		</g>
		<g>
			<path class="st0" d="M88.2,28.7c2.3,3.7,4.7,7.3,7.3,10.8c0.2,0.3,0.6-0.1,0.4-0.3c-2.5-3.6-5-7.1-7.5-10.7
				C88.3,28.2,88.1,28.5,88.2,28.7L88.2,28.7z"/>
		</g>
		<g>
			<path class="st0" d="M86.2,23.5c2.4,4,5.4,7.8,8.6,11.2c0.2,0.2,0.6-0.1,0.4-0.3c-3.1-3.6-5.9-7.3-8.8-11
				C86.4,23.2,86.1,23.3,86.2,23.5L86.2,23.5z"/>
		</g>
		<g>
			<path class="st0" d="M83.5,19.4c0.2,0.7,0.9,1.2,1.5,1.7c0.8,0.8,1.7,1.7,2.5,2.5c1.5,1.5,3.1,3,4.6,4.5c0.2,0.2,0.6-0.2,0.4-0.4
				c-1.4-1.4-2.9-2.8-4.3-4.2c-0.6-0.5-1.1-1.1-1.7-1.6c-0.8-0.8-2.1-1.6-2.6-2.6C83.7,19.1,83.4,19.2,83.5,19.4L83.5,19.4z"/>
		</g>
		<g>
			<path class="st0" d="M78.9,15.7c2.3,1.8,4.8,3.4,7.2,5.1c0.3,0.2,0.6-0.2,0.3-0.4c-2.4-1.7-4.8-3.5-7.3-4.9
				C78.9,15.4,78.7,15.6,78.9,15.7L78.9,15.7z"/>
		</g>
		<g>
			<path class="st0" d="M78.7,15.1c1.5,0.7,3,1.2,4.5,1.8c0.3,0.1,0.5-0.3,0.2-0.4c-1.5-0.6-3-1.2-4.5-1.6
				C78.7,14.7,78.6,15,78.7,15.1L78.7,15.1z"/>
		</g>
		<g>
			<path class="st0" d="M11.4,70.8c2.5,2.1,8,5.3,10.9,2.1c0.2-0.2-0.2-0.6-0.4-0.3c-2.7,2.7-8,0.1-10.4-1.9
				C11.4,70.6,11.3,70.7,11.4,70.8L11.4,70.8z"/>
		</g>
		<g>
			<path class="st0" d="M14.8,66.4c-2.1-2.5-1.7-6.5-1.3-9.5c0.4-3.3,1.9-6.1,4-8.7c0.2-0.2-0.2-0.5-0.4-0.3
				c-2.5,2.7-3.9,6.1-4.2,9.7c-0.2,2.9-0.6,6.7,1.8,8.9C14.7,66.6,14.8,66.5,14.8,66.4L14.8,66.4z"/>
		</g>
		<g>
			<path class="st0" d="M61.9,37.4c3.4-2.2,8.5-3.8,12.1-1c0.2,0.2,0.5-0.2,0.3-0.4c-3.4-3.1-9.4-1.6-12.5,1.2
				C61.8,37.3,61.9,37.4,61.9,37.4L61.9,37.4z"/>
		</g>
		<g>
			<path class="st0" d="M77.9,62.7c4.8-1.1,7-6.2,9.1-10.1c0.1-0.3-0.2-0.5-0.4-0.3c-2.2,3.8-4.2,8.8-8.8,10.2
				C77.8,62.6,77.9,62.7,77.9,62.7L77.9,62.7z"/>
		</g>
		<g>
			<path class="st0" d="M47.2,92c0.4-2.3,0.4-4.6,0.1-7c-0.2-1.2-0.3-1.7,0.3-2.8c0.2-0.3,0.4-0.5,0.5-0.8c0.2-0.6-0.1-1.2-0.2-1.8
				c-0.8-3.8,1.4-7.5,0.5-11.3c-0.1-0.2-0.4-0.2-0.3,0.1c0.9,3.6-1.1,7.2-0.5,10.9c0.1,0.4,0.2,0.8,0.2,1.2c0,0.9-0.5,1.4-0.7,2.1
				c-0.2,0.6-0.3,1-0.2,1.6c0.3,2.7,0.5,5.2,0.2,7.9C47,92.1,47.1,92.1,47.2,92L47.2,92z"/>
		</g>
		<g>
			<path class="st0" d="M42.6,94.4c0.5-1.7,0.9-3.5,1.3-5.2c0.1-0.3-0.3-0.4-0.4-0.2c-0.4,1.8-0.9,3.5-1.3,5.3
				C42.2,94.5,42.5,94.6,42.6,94.4L42.6,94.4z"/>
		</g>
		<g>
			<path class="st0" d="M39.4,95.7c0.4-2.3,0.8-4.6,1.4-6.9c0-0.1-0.2-0.2-0.2,0c-0.5,2.3-1,4.6-1.3,6.9
				C39.2,95.8,39.4,95.8,39.4,95.7L39.4,95.7z"/>
		</g>
		<g>
			<path class="st0" d="M37.9,41.8c0.1,0.4,0.2,0.7,0.4,1.1c0.1,0.2,0.4,0.1,0.3-0.1c-0.1-0.4-0.3-0.8-0.5-1.1
				C38.2,41.5,37.9,41.6,37.9,41.8L37.9,41.8z"/>
		</g>
		<g>
			<path class="st0" d="M38.5,41.1c0.1,0.3,0.1,0.6,0.2,0.9c0.1,0.2,0.3,0.1,0.3-0.1c0-0.3-0.2-0.6-0.2-0.9
				C38.8,40.9,38.5,41,38.5,41.1L38.5,41.1z"/>
		</g>
		<g>
			<path class="st0" d="M39.1,40.3c0,0.2,0.1,0.3,0.1,0.4c0,0.2,0.1,0.3,0.2,0.5c0.1,0.2,0.4,0.1,0.3-0.1c0-0.2-0.1-0.3-0.2-0.5
				c-0.1-0.1-0.1-0.3-0.2-0.4C39.2,40.2,39.1,40.2,39.1,40.3L39.1,40.3z"/>
		</g>
		<g>
			<path class="st0" d="M39.6,39.5c0.1,0.2,0.1,0.5,0.3,0.7c0.1,0.1,0.3,0.1,0.3-0.1c-0.1-0.3-0.2-0.5-0.3-0.8
				C39.7,39.2,39.5,39.3,39.6,39.5L39.6,39.5z"/>
		</g>
		<g>
			<path class="st0" d="M40,38.8c0.1,0.2,0.1,0.4,0.2,0.7c0.1,0.2,0.4,0.1,0.3-0.1c-0.1-0.2-0.1-0.4-0.2-0.6
				C40.2,38.4,39.9,38.6,40,38.8L40,38.8z"/>
		</g>
		<g>
			<path class="st0" d="M40.6,37.9c0.1,0.2,0.2,0.4,0.3,0.6c0.1,0.2,0.4,0.1,0.3-0.1c-0.1-0.2-0.2-0.4-0.3-0.6
				C40.7,37.6,40.5,37.7,40.6,37.9L40.6,37.9z"/>
		</g>
		<g>
			<path class="st0" d="M41.2,36.8c0.1,0.3,0.1,0.5,0.2,0.8c0.1,0.2,0.3,0.1,0.3-0.1c0-0.2-0.1-0.5-0.2-0.7
				C41.5,36.6,41.1,36.6,41.2,36.8L41.2,36.8z"/>
		</g>
		<g>
			<path class="st0" d="M41.5,36.1c0,0.1,0,0.2,0.1,0.4c0,0.1,0.1,0.3,0.1,0.4c0.1,0.2,0.4,0.1,0.4-0.1c0-0.1-0.1-0.3-0.2-0.4
				c-0.1-0.1-0.1-0.2-0.2-0.3C41.6,35.9,41.5,36,41.5,36.1L41.5,36.1z"/>
		</g>
		<g>
			<path class="st0" d="M42,35.3C42,35.3,42,35.3,42,35.3C42,35.3,42.1,35.3,42,35.3c0,0.1,0.1,0.2,0.1,0.3c0,0.1,0.1,0.3,0.1,0.4
				c0.1,0.2,0.4,0.1,0.3-0.1c0-0.2-0.4-1.1-0.6-0.7C41.9,35.2,42,35.4,42,35.3L42,35.3z"/>
		</g>
		<g>
			<path class="st0" d="M42.8,34.4c0,0.2,0,0.4,0,0.6c0,0.2,0.3,0.2,0.3,0c0-0.2-0.1-0.4-0.1-0.6C43,34.3,42.8,34.3,42.8,34.4
				L42.8,34.4z"/>
		</g>
		<g>
			<path class="st0" d="M52,38.1C52,38.1,52,38.1,52,38.1c-0.1,0-0.1,0-0.1,0.1c-0.1,0.2,0.1,0.5,0.2,0.6c0.1,0.2,0.4,0.1,0.3-0.1
				c0-0.1-0.1-0.2-0.1-0.3c0,0,0-0.1-0.1-0.1c0,0,0,0,0-0.1c0,0,0,0,0,0.1c0,0-0.1,0.1-0.1,0.1c0,0,0,0,0,0
				C52.1,38.4,52.1,38.2,52,38.1L52,38.1z"/>
		</g>
		<g>
			<path class="st0" d="M52.6,37.2c0,0.3,0.1,0.6,0.3,0.8c0.1,0.2,0.4,0,0.3-0.2c-0.1-0.1-0.1-0.2-0.2-0.3c0-0.1-0.1-0.2-0.1-0.3
				C52.8,37,52.6,37,52.6,37.2L52.6,37.2z"/>
		</g>
		<g>
			<path class="st0" d="M53.3,36.5c0.1,0.2,0.1,0.5,0.2,0.7c0.1,0.2,0.3,0.1,0.3-0.1c0-0.2-0.1-0.5-0.2-0.7
				C53.6,36.3,53.3,36.3,53.3,36.5L53.3,36.5z"/>
		</g>
		<g>
			<path class="st0" d="M53.9,35.4c0,0.2,0.1,0.3,0.1,0.5c0,0.1,0.1,0.3,0.2,0.4c0.3,0.1,0.5-0.3,0.2-0.4c-0.2-0.1-0.3,0.2-0.2,0.3
				c0,0,0,0,0,0c0-0.1,0-0.1-0.1-0.2c0,0,0-0.1,0.1-0.1c0,0,0.1,0,0.1,0c0.1,0,0-0.1,0-0.1c0-0.1-0.1-0.1-0.1-0.2
				c0-0.1-0.1-0.2-0.2-0.3C54.1,35.1,53.9,35.2,53.9,35.4L53.9,35.4z"/>
		</g>
		<g>
			<path class="st0" d="M54.8,34.7c0.1,0.2,0.1,0.3,0.1,0.5c0,0.2,0.3,0.2,0.3,0c0-0.2-0.1-0.4-0.2-0.6
				C54.9,34.4,54.7,34.6,54.8,34.7L54.8,34.7z"/>
		</g>
		<g>
			<path class="st0" d="M55.3,34.2c0,0.2,0.1,0.5,0.2,0.7c0.1,0.2,0.4,0.1,0.3-0.1c-0.1-0.2-0.2-0.5-0.3-0.7
				C55.5,34,55.3,34.1,55.3,34.2L55.3,34.2z"/>
		</g>
		<g>
			<path class="st0" d="M56.1,33.6c0.1,0.1,0.2,0.3,0.1,0.4c-0.1,0.2,0.3,0.4,0.4,0.1c0.1-0.3,0-0.7-0.4-0.8
				C56.1,33.4,56,33.5,56.1,33.6L56.1,33.6z"/>
		</g>
		<g>
			<path class="st0" d="M56.9,32.9c0,0,0.1-0.1,0.1-0.1c-0.1,0-0.1-0.1-0.2-0.1c0,0.1,0,0.3,0,0.4c0,0.2,0.3,0.1,0.3,0
				c0-0.1,0-0.3-0.1-0.4c0-0.1-0.1-0.1-0.2,0c0,0-0.1,0.1-0.1,0.1C56.7,32.8,56.8,33,56.9,32.9L56.9,32.9z"/>
		</g>
		<g>
			<path class="st0" d="M57.4,32.8c0,0,0.1,0.1,0.1,0.1c0,0.1,0.1,0.1,0.1,0C57.6,32.8,57.5,32.7,57.4,32.8
				C57.3,32.7,57.3,32.8,57.4,32.8L57.4,32.8z"/>
		</g>
		<g>
			<path class="st0" d="M3.8,47.7c3.2-11,7.4-21.6,16.4-29.2C29.1,11.1,40.6,7.7,52,6.8c0.3,0,0.2-0.4-0.1-0.4
				C40.4,7.2,29,10.8,20,18.3C10.9,25.8,6.6,36.6,3.6,47.7C3.6,47.8,3.8,47.9,3.8,47.7L3.8,47.7z"/>
		</g>
		<g>
			<path class="st0" d="M55.4,6.5c2.6,0.8,5.1,0.6,7.7,0.7c1.6,0.1,3.1,0.7,4.5,1.2c1.6,0.6,3.7,1,4.9,2.4c0.2,0.2,0.5,0,0.3-0.2
				c-0.8-1.1-1.9-1.5-3.2-1.9c-1.5-0.6-3.1-1.2-4.6-1.6c-1.4-0.3-2.8-0.2-4.2-0.2c-1.8,0-3.6-0.2-5.4-0.5
				C55.4,6.3,55.3,6.5,55.4,6.5L55.4,6.5z"/>
		</g>
		<g>
			<path class="st0" d="M3.2,50.3c-0.3,3.8,1.5,7.3,2.2,10.9c0,0.3,0.4,0.2,0.4-0.1c-0.6-3.7-2.4-7-2.3-10.8
				C3.6,50.1,3.2,50.1,3.2,50.3L3.2,50.3z"/>
		</g>
		<g>
			<path class="st0" d="M35.6,20.6c0.4-0.4,1.3,0.6,1.6,0.7c0.1,0.1,0.2,0.2,0.3,0.3c0.3,0.2,0.4,0.2,0.6,0.1
				c0.5-0.1,0.6-0.5,0.6-0.9c0-0.4-0.3-0.6-0.4-0.9c-0.4-0.9-0.6-1.5-0.1-2.4c0.1-0.2,0.3-0.5,0.5-0.7c1.1-1.5,2.4-3,3.7-4.4
				c0.1-0.2-0.1-0.4-0.3-0.2c-1.2,1.3-2.4,2.7-3.5,4.1c-0.5,0.7-1.2,1.6-1.1,2.6c0,0.3,0.3,0.5,0.3,0.8c0.1,0.3,1.6,1.3-0.8,0.9
				c-0.1,0-0.3-0.4-0.4-0.4C36,20.2,35.9,20,35.6,20.6C35.5,20.6,35.5,20.7,35.6,20.6L35.6,20.6z"/>
		</g>
		<g>
			<path class="st0" d="M10.1,48.9c3.7-8,10.9-14,19.3-16.6c0.2-0.1,0.1-0.3-0.1-0.3C20.8,34.5,13.6,40.7,10.1,48.9
				C10.1,48.9,10.1,48.9,10.1,48.9L10.1,48.9z"/>
		</g>
		<g>
			<path class="st0" d="M41.9,29c2.4-0.5,4.7-0.4,7,0.2c0.1,0,0.2-0.2,0.1-0.2C46.6,28.2,44.2,28.2,41.9,29
				C41.8,28.9,41.8,29,41.9,29L41.9,29z"/>
		</g>
		<g>
			<path class="st0" d="M68.2,28.6c2.1,1.3,4.1,2.6,6.1,4.1c1.9,1.4,3.9,2.9,5.1,5c0.6,1.1,0.8,2.2,1.1,3.4c0.2,0.9,0.7,1.4,1.1,2.2
				c0.6,1.2,0.8,2.6,1.1,3.9c0.3,1.2,0.6,2.4,0.9,3.7c0.1,0.2,0.5,0.2,0.4-0.1c-0.6-2.3-0.9-5-1.8-7.2c-0.2-0.5-0.5-0.8-0.8-1.3
				c-0.4-0.7-0.5-1.5-0.7-2.2c-0.2-0.9-0.5-1.8-1-2.6c-1.1-1.8-2.9-3.2-4.6-4.5C73,31.4,70.7,29.9,68.2,28.6
				C68.2,28.6,68.2,28.6,68.2,28.6L68.2,28.6z"/>
		</g>
		<g>
			<path class="st0" d="M70.8,20.3c0.9,1.3,2.9,1.5,4.2,2.4c1.7,1.3,2.9,3.3,4,5.1c0.3,0.4,0.6,1.5,1.3,1.3c0.2-0.1,0.3-0.2,0.4-0.4
				c0.3-0.5-0.1-0.4,0-0.9c0,0,0,0,0,0c-0.6-0.7-0.2-1.3,1.3-1.7c0.1,0.1,0.3-0.1,0.1-0.2c-0.7-0.4-1.6-0.5-2,0.3
				c-0.2,0.4,0,0.6,0,0.9c-0.1,0.2,1.2,1.3-0.6,0.7c-0.2-0.1-0.6-1-0.7-1.2c-0.8-1.3-1.7-2.6-2.8-3.7c-0.6-0.6-1.3-1.1-2.1-1.5
				c-1-0.5-2.1-0.6-2.9-1.5C70.9,20.1,70.7,20.2,70.8,20.3L70.8,20.3z"/>
		</g>
		<g>
			<path class="st0" d="M82.7,33.4c2.9,3.2,4.3,7.2,4.2,11.5c0,0.2,0.2,0.2,0.3,0c0.3-4.3-1.2-8.6-4.2-11.7
				C82.7,33.1,82.5,33.3,82.7,33.4L82.7,33.4z"/>
		</g>
		<g>
			<path class="st0" d="M52.7,15.6c1.6,0.5,2.6,1.8,3.4,3.2c0.3,0.5,0.6,1.7,1.2,1.9c0.5,0.2,1-0.1,0.7-0.6c0-0.1-0.1,0-0.1,0
				c-0.2,0-0.5,0-0.7-0.1c-0.1-0.2-0.2-0.3-0.3-0.5c-0.2-0.3-0.3-0.6-0.5-0.9c-0.3-0.5-0.7-1.1-1.1-1.5
				C54.5,16.3,53.7,15.8,52.7,15.6C52.6,15.5,52.6,15.6,52.7,15.6L52.7,15.6z"/>
		</g>
		<g>
			<path class="st0" d="M57.2,18.8c0-0.2-0.1-0.5-0.1-0.7c0,0,0,0,0,0C57.1,18.4,57.1,18.6,57.2,18.8C57.2,18.9,57.2,18.9,57.2,18.8
				L57.2,18.8z"/>
		</g>
		<g>
			<path class="st0" d="M57.1,17.1c0-0.2,0-0.3,0.1-0.5c0-0.1-0.1-0.1-0.1,0C57.1,16.8,57.1,16.9,57.1,17.1
				C57,17.1,57.1,17.1,57.1,17.1L57.1,17.1z"/>
		</g>
		<g>
			<path class="st0" d="M21.4,25c0.9,0.2,1.7,0.6,2.5,1c0.2,0.1,0.3-0.1,0.2-0.3c-2.1-2.5-1.2-6,1.5-7.6c0.2-0.1,0-0.4-0.1-0.3
				c-2.9,1.8-3.6,5.3-1.7,8.1c0.1-0.1,0.1-0.2,0.2-0.3c-0.8-0.4-1.7-0.7-2.5-0.9C21.4,24.6,21.2,24.9,21.4,25L21.4,25z"/>
		</g>
		<g>
			<path class="st0" d="M8.9,56.9c0.3-1.6,0.8-3.1,1.4-4.5c0.1-0.2-0.2-0.3-0.3-0.1C9.4,53.7,9,55.3,8.9,56.9
				C8.8,56.9,8.9,56.9,8.9,56.9L8.9,56.9z"/>
		</g>
		<g>
			<path class="st0" d="M24.1,40.5c1.2-0.7,2.4-1.5,3.7-1.9c1.2-0.4,1.7,0.3,2.7,0.8c0.4,0.2,0.3,0.4,0.7,0.3c0.7,0,0.8-0.7,0.9-1.1
				c0.2-0.6,0.2-1.3,0.4-1.9c0.5-1,1.3-1.7,2.3-2.3c0.2-0.1,0.1-0.4-0.1-0.3c-0.9,0.5-1.7,1.1-2.2,2c-0.3,0.5-0.3,0.9-0.5,1.4
				c0,0.2,0,0.3-0.1,0.5c-0.5,0.3-1,0.6-1.5,0.9c-0.1,0-0.3-0.4-0.5-0.4c-2.3-0.6-4,0.8-5.9,2C24,40.4,24.1,40.5,24.1,40.5
				L24.1,40.5z"/>
		</g>
		<g>
			<path class="st0" d="M46.4,21.9c1,0.1,1.5,1.9,2.6,1.5c0.5-0.2,0.7-0.8,0.6-1.3c-0.2-0.9-1.9-1.9-0.8-2.9c0.1-0.1,0-0.3-0.2-0.2
				c-1.5,1,0.9,2.5,0.7,3.5c-0.3,1.3-1.2,0.3-1.7-0.1c-0.3-0.3-0.7-0.6-1.1-0.6C46.3,21.7,46.3,21.9,46.4,21.9L46.4,21.9z"/>
		</g>
		<g>
			<path class="st0" d="M7.5,43.2c-0.1-0.7,0.4-1.1,1.3-1.2C8.9,42,9,42,9.2,42c0.1,0,0.1,0,0.2,0c0.3-0.1,0.4-0.3,0.4-0.6
				c0.1-0.6-0.6-1.1-0.8-1.6c-0.5-1.3,0-2.7,1.1-3.5c0.2-0.1,0-0.4-0.2-0.3c-1.4,1.1-1.6,2.7-1,4.2C9,40.7,9,40.4,9,41.1
				c0,0.8,0,0.4-0.5,0.5c-0.2,0-0.5,0.1-0.6,0.2c-0.5,0.3-0.7,0.8-0.6,1.4C7.3,43.4,7.5,43.3,7.5,43.2L7.5,43.2z"/>
		</g>
		<g>
			<path class="st0" d="M69.1,12.1c0.5,0.5,1,1.1,1,1.8c0,1.8-1.8,1-2.4,0.6c-0.7-0.5-1.2-1.2-1.9-1.6c-0.8-0.6-1.7-0.8-2.6-0.4
				c-0.2,0.1-0.1,0.4,0.1,0.3c2.6-0.9,3.7,3.2,6.1,2.4c1.7-0.5,0.8-2.5-0.1-3.3C69.1,11.9,69,12,69.1,12.1L69.1,12.1z"/>
		</g>
		<g>
			<path class="st0" d="M50.8,91.8c0.2-1.7,2.3-1.1,3.2-0.6c0.5,0.3,1.3,0.8,1.9,0.6c1.3-0.4,0-2-0.3-2.6c-0.1-0.2-0.4-0.1-0.3,0.1
				c0.1,0.3,0.8,1.2,0.7,1.5c-0.2,1.1-1.5,0.3-1.9,0.1c-0.5-0.2-1-0.5-1.6-0.5c-0.9,0-2,0.5-2,1.5C50.5,91.9,50.8,92,50.8,91.8
				L50.8,91.8z"/>
		</g>
		<g>
			<path class="st0" d="M43.5,61.3c0.1,0,1.2,0.3,1.3,0.3c0.2,0.1,0.3,0.3,0.5,0.4c0.2,0.1,0.4,0.2,0.7,0.2c0.5-0.1,0.8-0.5,0.9-1
				c0.1-0.5-0.1-1-0.4-1.4c-0.4-0.6-0.8-1.1-0.9-1.9c0-0.8,0.3-1.5,0.9-2.1c0.2-0.2-0.1-0.5-0.2-0.3c-1,0.9-1.4,2.4-0.8,3.6
				c0.1,0.3,0.6,0.6,0.6,0.9c-0.3,0.5-0.6,1-0.8,1.4c-0.1-0.1-0.3-0.2-0.4-0.4c-0.1-0.1-0.2-0.2-0.3-0.2c-0.5-0.3-0.9-0.3-1.3,0.1
				C43.1,61.1,43.3,61.4,43.5,61.3L43.5,61.3z"/>
		</g>
		<g>
			<path class="st0" d="M26.5,58.2c-0.1,0.6,0.2,1.1,0.7,1.4c0.5,0.3,1,0.3,1.5,0.4c1,0.3,1.7,0.9,2.3,1.8c0.1,0.2,0.5,0.1,0.4-0.2
				c-0.4-0.8-1-1.4-1.8-1.8c-0.8-0.4-3-0.4-2.8-1.7C26.8,58,26.5,58,26.5,58.2L26.5,58.2z"/>
		</g>
		<g>
			<path class="st0" d="M61.1,52.6c0.2,0.8,1.2,5.6,2.5,4.8c0.6-0.4,0.4-1.7,0.4-2.3c0.1-1.6,0.5-3.1,1.4-4.5
				c0.1-0.2-0.2-0.4-0.3-0.2c-0.9,1.4-1.3,2.9-1.5,4.5c0,0.4,0,0.9-0.1,1.3c0.1,0.4-0.1,0.6-0.5,0.7c-0.1-0.3-0.3-0.5-0.4-0.8
				c-0.5-1.1-0.9-2.3-1.2-3.5C61.4,52.3,61.1,52.4,61.1,52.6L61.1,52.6z"/>
		</g>
		<g>
			<path class="st0" d="M66.7,53.4c-1,2.2-1.5,4.6-1.6,7.1c0,0.2,0.4,0.3,0.4,0c0-2.4,0.5-4.8,1.5-7C67,53.4,66.7,53.3,66.7,53.4
				L66.7,53.4z"/>
		</g>
		<g>
			<path class="st0" d="M30,69.8c0.7-1.1,1.3-2.4,1.5-3.7c0-0.2-0.3-0.2-0.3,0c-0.3,1.3-0.7,2.5-1.4,3.6C29.7,69.8,29.9,70,30,69.8
				L30,69.8z"/>
		</g>
		<g>
			<path class="st0" d="M31.3,57.2c0.9,3.4,1.9,6.8,3.1,10.1c0.1,0.2,0.4,0.1,0.3-0.1c-1-3.4-2.1-6.7-3.1-10
				C31.5,57,31.2,57.1,31.3,57.2L31.3,57.2z"/>
		</g>
		<g>
			<path class="st0" d="M38.2,80.5c-0.8-0.1,0-6.3,0-7c0-0.3-0.4-0.3-0.4,0c-0.1,1.9-0.3,3.7-0.4,5.6c0,0.7-0.2,1.7,0.7,1.8
				C38.4,80.9,38.4,80.5,38.2,80.5L38.2,80.5z"/>
		</g>
		<g>
			<path class="st0" d="M48.8,42.2c-0.7,0.8-0.6,2-0.7,3c-0.2,1.4-0.4,2.8-0.5,4.3c0,0.3,0.4,0.3,0.4,0c0.1-1.1,0.3-2.3,0.4-3.4
				c0.1-1,0-2.8,0.7-3.6C49.3,42.3,49,42.1,48.8,42.2L48.8,42.2z"/>
		</g>
		<g>
			<path class="st0" d="M55.5,47.2c0,1.7,0.1,3.3,0.4,5c0,0.2,0.4,0.2,0.3,0c-0.3-1.6-0.4-3.3-0.4-4.9
				C55.8,47.1,55.5,47.1,55.5,47.2L55.5,47.2z"/>
		</g>
		<g>
			<path class="st0" d="M57,27.4c2.1-0.5,4.3-0.5,6.4,0.3c0.2,0.1,0.3-0.3,0.1-0.3c-2.1-0.8-4.4-0.9-6.6-0.3
				C56.8,27.1,56.8,27.5,57,27.4L57,27.4z"/>
		</g>
		<g>
			<path class="st0" d="M60.1,21.2c5.1,1,9.6,2.7,13.8,5.8c0.2,0.1,0.3-0.1,0.2-0.2c-3.9-3.1-8.9-5.2-13.9-5.7
				C60,21,60,21.2,60.1,21.2L60.1,21.2z"/>
		</g>
		<g>
			<path class="st0" d="M46.4,13.7c4.8-1.1,9.6-0.9,14.3,0.6c0.2,0.1,0.3-0.2,0.1-0.3c-4.6-1.7-9.7-1.8-14.4-0.6
				C46.1,13.5,46.2,13.7,46.4,13.7L46.4,13.7z"/>
		</g>
		<g>
			<path class="st0" d="M27.3,29c4.8-3.8,11.7-3.6,17.5-3.7c0.2,0,0.2-0.3,0-0.3c-5.7-0.2-13.1-0.1-17.7,3.8
				C27,28.9,27.2,29.1,27.3,29L27.3,29z"/>
		</g>
		<g>
			<path class="st0" d="M12.3,38.6c2.9-2.8,6.1-5.1,9.6-7.2c0.2-0.1,0.1-0.5-0.2-0.4c-3.5,2-6.8,4.4-9.7,7.3
				C11.9,38.5,12.1,38.7,12.3,38.6L12.3,38.6z"/>
		</g>
	</g>
</g>
</svg>
