<?xml version="1.0" encoding="utf-8"?>
<!-- Generator: Adobe Illustrator 23.0.1, SVG Export Plug-In . SVG Version: 6.00 Build 0)  -->
<!DOCTYPE svg PUBLIC "-//W3C//DTD SVG 1.1//EN" "http://www.w3.org/Graphics/SVG/1.1/DTD/svg11.dtd" [
	<!ENTITY ns_extend "http://ns.adobe.com/Extensibility/1.0/">
	<!ENTITY ns_ai "http://ns.adobe.com/AdobeIllustrator/10.0/">
	<!ENTITY ns_graphs "http://ns.adobe.com/Graphs/1.0/">
	<!ENTITY ns_vars "http://ns.adobe.com/Variables/1.0/">
	<!ENTITY ns_imrep "http://ns.adobe.com/ImageReplacement/1.0/">
	<!ENTITY ns_sfw "http://ns.adobe.com/SaveForWeb/1.0/">
	<!ENTITY ns_custom "http://ns.adobe.com/GenericCustomNamespace/1.0/">
	<!ENTITY ns_adobe_xpath "http://ns.adobe.com/XPath/1.0/">
]>
<svg version="1.1" id="Layer_1" xmlns:x="&ns_extend;" xmlns:i="&ns_ai;" xmlns:graph="&ns_graphs;"
	 xmlns="http://www.w3.org/2000/svg" xmlns:xlink="http://www.w3.org/1999/xlink" x="0px" y="0px" viewBox="0 0 50 50"
	 style="enable-background:new 0 0 50 50;" xml:space="preserve">
<style type="text/css">
	.st0{fill:#3C2517;}
</style>
<metadata>
	<sfw  xmlns="&ns_sfw;">
		<slices></slices>
		<sliceSourceBounds  bottomLeftOrigin="true" height="27" width="27.4" x="220.5" y="-194.6"></sliceSourceBounds>
	</sfw>
</metadata>
<g>
	<g>
		<path class="st0" d="M25.9,14.3c-7.6-0.3-13.7,5.6-13.4,13.2c0.3,7.6,7.3,13.2,14.6,13.3C35.2,41,39.1,35.5,39.8,28
			c0.8-8.9-4.2-13.6-13-14.1c-1.6-0.1-2,2.5-0.4,2.9c5.9,1.4,10.7,2.7,10.4,9.9c-0.2,6-2.4,11.2-9.2,11.3c-5.1,0.1-10.5-3-12.1-8.1
			c-2.3-7.3,3.2-13.7,10.4-14.4C26.7,15.5,26.7,14.3,25.9,14.3L25.9,14.3z"/>
	</g>
	<g>
		<path class="st0" d="M27.8,17.9c-0.3-0.9-1.5-0.8-2.1-0.3c-0.5,0.3-0.6,1-0.2,1.4c0.7,0.7,1.6,1,2.6,0.8c0.4-0.1,0.8-0.2,1-0.7
			c0.1-0.4,0.1-0.9-0.2-1.2c-0.7-0.6-1.4-0.8-2.3-0.9c-0.6-0.1-1.1,0.6-1.1,1.1c0,0.6,0.5,1.1,1.1,1.1c0.4,0,0.7,0.1,1,0.3
			c0.1-0.7,0.2-1.3,0.3-2c-0.4,0.1-0.8,0.1-1.2-0.1c0.1,0.4,0.2,0.8,0.3,1.2c0.1-0.1,0.2-0.1,0.3-0.1c0.2-0.1,0.3-0.1,0.4-0.2
			C27.8,18.3,27.8,18.1,27.8,17.9L27.8,17.9z"/>
	</g>
	<g>
		<path class="st0" d="M25.4,18.3c-1.2,0-2.2,0.4-3.1,1.2c-0.6,0.5,0.3,1.5,0.9,0.9c0.6-0.6,1.4-1,2.3-1.2
			C26.1,19.2,25.9,18.3,25.4,18.3L25.4,18.3z"/>
	</g>
	<g>
		<path class="st0" d="M27.5,19.7c0.2,1,0.4,2.1,0.9,3c0.3,0.5,1,0.1,0.9-0.4c-0.2-1-0.7-2-1.2-2.8C27.8,19.2,27.4,19.4,27.5,19.7
			L27.5,19.7z"/>
	</g>
	<g>
		<path class="st0" d="M28.5,19.3c0.5,0,1,0,1.5,0c0.5,0,0.5-0.8,0-0.8c-0.5,0-1,0-1.5,0C28.1,18.7,28.1,19.3,28.5,19.3L28.5,19.3z"
			/>
	</g>
	<g>
		<path class="st0" d="M26.7,17.3c-0.3,0-0.6-0.3-0.7-0.5c-0.5-0.8-1.7,0.2-1,0.8c0.3,0.2,0.5,0.4,0.9,0.5c0.3,0.1,0.6,0,0.9-0.1
			C27.2,17.9,27.1,17.3,26.7,17.3L26.7,17.3z"/>
	</g>
	<g>
		<path class="st0" d="M34,21c0,7-8.8,12-15.2,11.1c-1.1-0.1-1.5,1.4-0.4,1.6c6,1,18.2-5.2,16-12.7C34.4,20.7,34,20.8,34,21L34,21z"
			/>
	</g>
	<g>
		<path class="st0" d="M23,32.8c-1,0.9-2.2,2.1-2.6,3.4c-0.1,0.6,0.6,0.8,0.9,0.4c0.4-0.5,0.6-1.1,1-1.7c0.4-0.6,0.8-1.1,1.2-1.6
			C23.8,32.9,23.4,32.5,23,32.8L23,32.8z"/>
	</g>
	<g>
		<path class="st0" d="M25.7,32.1c-1,1.5-2,2.9-2.9,4.5c-0.3,0.5,0.4,0.9,0.7,0.4c0.9-1.5,1.6-3.2,2.5-4.7
			C26.1,32.1,25.9,31.9,25.7,32.1L25.7,32.1z"/>
	</g>
	<g>
		<path class="st0" d="M28.2,30.7c-1.2,2.3-2.3,4.9-2.7,7.5c-0.1,0.7,0.9,1,1.1,0.3c0.9-2.5,1.5-5,2.3-7.5
			C29,30.6,28.4,30.3,28.2,30.7L28.2,30.7z"/>
	</g>
	<g>
		<path class="st0" d="M30.5,29.8c-0.9,2.6-1.7,5.6-1.4,8.3c0.1,0.6,1,0.7,1,0c0.2-2.8,0.2-5.4,1-8.2C31.3,29.6,30.7,29.4,30.5,29.8
			L30.5,29.8z"/>
	</g>
	<g>
		<path class="st0" d="M31.9,28.1c0.2,2.9,0.6,5.7,1,8.6c0.1,0.5,0.7,0.4,0.6-0.1c-0.5-2.8-0.8-5.7-1-8.5
			C32.4,27.7,31.9,27.7,31.9,28.1L31.9,28.1z"/>
	</g>
	<g>
		<path class="st0" d="M33.6,26.2c0.6,2.1,1.2,4.4,2.2,6.4c0.2,0.4,0.8,0.1,0.7-0.3c-0.7-2.1-1.5-4.1-2.2-6.3
			C34.2,25.5,33.5,25.7,33.6,26.2L33.6,26.2z"/>
	</g>
	<g>
		<path class="st0" d="M34.4,23.5c0.8,1.2,1.6,2.3,2.7,3.2c0.5,0.4,1.1-0.2,0.7-0.7c-0.9-1-1.9-2-2.7-3.1
			C34.8,22.7,34.2,23.1,34.4,23.5L34.4,23.5z"/>
	</g>
</g>
</svg>
