<?xml version="1.0" encoding="utf-8"?>
<!-- Generator: Adobe Illustrator 23.0.1, SVG Export Plug-In . SVG Version: 6.00 Build 0)  -->
<!DOCTYPE svg PUBLIC "-//W3C//DTD SVG 1.1//EN" "http://www.w3.org/Graphics/SVG/1.1/DTD/svg11.dtd" [
	<!ENTITY ns_extend "http://ns.adobe.com/Extensibility/1.0/">
	<!ENTITY ns_ai "http://ns.adobe.com/AdobeIllustrator/10.0/">
	<!ENTITY ns_graphs "http://ns.adobe.com/Graphs/1.0/">
	<!ENTITY ns_vars "http://ns.adobe.com/Variables/1.0/">
	<!ENTITY ns_imrep "http://ns.adobe.com/ImageReplacement/1.0/">
	<!ENTITY ns_sfw "http://ns.adobe.com/SaveForWeb/1.0/">
	<!ENTITY ns_custom "http://ns.adobe.com/GenericCustomNamespace/1.0/">
	<!ENTITY ns_adobe_xpath "http://ns.adobe.com/XPath/1.0/">
]>
<svg version="1.1" id="Layer_1" xmlns:x="&ns_extend;" xmlns:i="&ns_ai;" xmlns:graph="&ns_graphs;"
	 xmlns="http://www.w3.org/2000/svg" xmlns:xlink="http://www.w3.org/1999/xlink" x="0px" y="0px" viewBox="0 0 522.8 113.7"
	 style="enable-background:new 0 0 522.8 113.7;" xml:space="preserve">
<style type="text/css">
	.st0{fill:#3C2517;}
</style>
<metadata>
	<sfw  xmlns="&ns_sfw;">
		<slices></slices>
		<sliceSourceBounds  bottomLeftOrigin="true" height="89.8" width="514.9" x="-6.4" y="-297.5"></sliceSourceBounds>
	</sfw>
</metadata>
<g>
	<g>
		<path class="st0" d="M402,97.8c-1.3-12.8-1.7-25.7-1.2-38.6c0.3-6.2,0.7-12.3,1.4-18.5c0.6-6.3,1.7-13.1,0.7-19.4
			c-1.6-9.6-10.1-6.7-17.5-6.7c-6.1,0.1-12.3-0.7-18.4-0.9c-6.8-0.1-13.6-0.1-20.3,0.1c-52.4,0.8-104.7,2.6-157.1,0.8
			c-12.4-0.4-24.8-1.3-37.3-1.1c-6.2,0.1-12.3,0.4-18.5,1.2c-2.6,0.3-6.3,0.2-8.2,2.4c-2.4,2.6-2.7,7.7-3.3,10.9
			c-1.1,6-1.9,12-2.3,18.1c-0.7,11.6,0,23,1.8,34.4c0.9,5.7,0.7,15.1,5.3,19.3c2.2,2,5.8,1.6,8.6,1.5c5.4-0.2,10.8,0.2,16.2,0.4
			c25.2,1.1,50.4,1.3,75.6,0.1c14.1-0.7,28-0.6,42.1,0.4c15,1.1,29.9,1.1,44.9,0.7c28.8-0.8,57.6-1.5,86.4-2.3
			c2.6-0.1,2.7-4.2,0-4.1c-23.7,0.7-47.4,1.4-71.1,2.1c-12,0.4-24.1,0.9-36.1,0.9c-12.1,0-24-1.1-36.1-1.7
			c-23.5-1.1-47.1,1.6-70.6,1.4c-11.7-0.1-23.4-0.4-35.1-0.9c-4.7-0.2-9.4-0.6-14.1-0.5c-1.8,0.1-3.7,0.4-5.5,0.2
			c-3-0.3-3.8-1.5-4.7-4.2c-2.6-7.5-3.3-16.6-4.1-24.4c-1.1-11.4-0.9-23,0.7-34.3c0.4-3,0.9-5.9,1.5-8.8c0.4-1.9,0.5-4.8,1.7-6.5
			c2.1-3.2,9.7-2.7,13.1-3c11.8-1,23.6-0.6,35.3-0.1c24.1,0.9,48.3,1.4,72.4,1.3c24.2-0.1,48.4-1.2,72.7-1.8
			c13.1-0.3,26.1-0.7,39.2-0.7c6.7,0,13.5,0.1,20.2,0.5c3.4,0.2,6.6,0.1,9.9-0.1c3.9-0.3,8.8-1.3,10.5,3.3c2,5.3,0.8,12.4,0.3,17.9
			c-0.6,6.7-1.2,13.5-1.3,20.2c-0.4,13.5,0.3,26.9,2,40.3C401.7,98,402,98,402,97.8L402,97.8z"/>
	</g>
	<g>
		<path class="st0" d="M401.3,38.2c4.6,0,9.2,0.3,13.7,1.6c4,1.1,7.8,2.8,11.7,4.2c4,1.4,8.1,2.2,12.4,2c4.6-0.2,9.2-0.9,13.7-1.5
			c9.2-1.1,18.3-2.2,27.4-3.3c7.8-1,16.1-2.6,23.9-0.9C512,42,518,48,519,56c0.9,7.2-3.4,15.4-10.9,17.2c-4.3,1-9,0.1-13.4-0.4
			c-4.6-0.4-9.1-0.9-13.7-1.3c-9.3-0.9-18.5-1.8-27.8-2.7c-9.2-0.9-18.9-2.2-28,0.2c-8.4,2.3-15.7,9.4-24.7,8.6
			c-1.6-0.1-1.5,2.3,0,2.4c8.5,0.7,15.2-5.1,22.7-7.9c8.7-3.2,18.3-2.1,27.4-1.3c9.8,1,19.7,1.9,29.5,2.9c4.9,0.5,9.7,0.9,14.6,1.4
			c4.5,0.4,9.2,1.3,13.6,0.3c6.9-1.4,11.8-7.8,12.8-14.5c1.1-7-1.9-14.6-7.5-18.9c-6.2-4.8-14.3-5.2-21.7-4.5
			c-9.5,0.8-18.9,2.2-28.3,3.4c-5.6,0.7-11.2,1.4-16.7,2.1c-5.6,0.7-11.1,1.3-16.6-0.2c-4.7-1.3-9.1-3.5-13.9-4.7
			c-4.9-1.2-10.1-1.6-15.1-0.7C400.8,37.5,400.9,38.2,401.3,38.2L401.3,38.2z"/>
	</g>
	<g>
		<path class="st0" d="M121.5,38.7c-8-2.7-15.8,1.6-23.5,3.2c-4.7,1-9.6,1.1-14.4,0.9c-4.7-0.2-9-1.5-13.5-2.7
			c-8.5-2.3-17.7-2.4-26.4-3.3c-4.6-0.4-9.1-1-13.7-1.2c-4.3-0.2-8.8-0.3-12.9,1c-3,1-5.8,2.8-7.8,5.3C7,45,6.6,48.9,6.5,52.8
			C6.4,60,8.3,68,14.3,72.7c3,2.4,6.6,3.1,10.4,3.3c4.6,0.2,9.2,0.1,13.9-0.1c9.3-0.5,18.5-1.7,27.8-2.7c5.3-0.6,10.7-1.2,16-1.6
			c4.8-0.4,10.1-1.1,14.8,0.4c4.2,1.4,7.8,4.2,11.8,6.1c4.4,2,8.9,2.2,13.6,2.2c1.4,0,1.4-2.2,0-2.2c-4.4-0.1-8.7-0.3-12.8-2.1
			c-3.3-1.5-6.3-3.6-9.6-5.1c-7-3.2-15.2-1.8-22.6-1.1c-17.1,1.6-34.1,4.8-51.4,4.3c-4.3-0.1-8.5-0.7-11.8-3.8
			c-2.8-2.6-4.4-6.1-5.3-9.8C8.3,56.3,8.1,51.5,9,47.3c0.9-4.1,4-7.2,7.9-8.6c3.9-1.5,8.2-1.4,12.3-1.3c4.3,0.2,8.6,0.7,12.8,1.1
			c4.3,0.4,8.5,0.8,12.8,1.2c4.3,0.4,8.7,0.7,12.9,1.7c4.2,1,8.3,2.5,12.6,3c4.6,0.5,9.3,0.5,13.9,0c8.9-1,17.7-6.6,26.9-4.6
			C122,40.1,122.3,38.9,121.5,38.7L121.5,38.7z"/>
	</g>
	<g>
		<path class="st0" d="M131.8,37.9c-3.2,10.3-2.9,21.9-0.4,32.3c0.2,0.6,1.2,0.4,1-0.3c-2.6-10.7-2.2-21.1-0.1-31.8
			C132.4,37.7,131.9,37.6,131.8,37.9L131.8,37.9z"/>
	</g>
	<g>
		<path class="st0" d="M136.5,80.4c16,1.9,32.3,2.1,48.4,2.4c16.1,0.3,32.3,0.3,48.4-0.3c9.2-0.3,18.5-0.6,27.6-1.4
			c0.6-0.1,0.6-1,0-0.9c-16.1,0.6-32.2,1.6-48.4,1.8c-16.1,0.2-32.3,0-48.4-0.7c-9.2-0.4-18.4-1.1-27.6-1.3
			C136.3,80.1,136.3,80.4,136.5,80.4L136.5,80.4z"/>
	</g>
	<g>
		<path class="st0" d="M271.2,78.9c3.9-0.5,7.5-0.8,11.4-0.3c0.5,0.1,0.7-0.9,0.1-1c-3.9-0.5-7.9-0.5-11.7,0.6
			C270.7,78.3,270.8,79,271.2,78.9L271.2,78.9z"/>
	</g>
	<g>
		<path class="st0" d="M290.1,79.2c17.4,0,34.7-0.4,52.1-0.7c8.7-0.2,17.4-0.3,26-0.5c8.7-0.3,17.4-0.2,26-0.7c0.7,0,0.7-1.1,0-1.1
			c-8.7-0.2-17.4,0.3-26,0.4c-8.7,0.1-17.4,0.4-26,0.6c-17.4,0.4-34.7,0.8-52.1,1.6C289.7,78.7,289.7,79.2,290.1,79.2L290.1,79.2z"
			/>
	</g>
	<g>
		<path class="st0" d="M319.7,22.5c12.4,0.3,24.9-0.2,37.3-0.4c12.4-0.2,24.9-0.3,37.3-0.5c0.7,0,0.7-1.1,0-1.1
			c-12.4,0.2-24.8,0.4-37.3,0.6c-12.4,0.2-24.9,0-37.3,0.7C319.3,21.9,319.3,22.4,319.7,22.5L319.7,22.5z"/>
	</g>
	<g>
		<path class="st0" d="M512.6,46c-0.2,3-0.2,6.1-0.6,9.1c0,0.2,0.2,0.2,0.3,0c0.5-3,0.9-6.1,0.5-9.2C512.8,45.9,512.6,45.9,512.6,46
			L512.6,46z"/>
	</g>
	<g>
		<path class="st0" d="M510.1,59.8c-5,4.9-11.6,6.6-18.5,6.6c-7.2-0.1-14.4-1-21.4-2.1c-0.6-0.1-0.9,0.8-0.3,0.9
			c7.6,1.4,15.6,2.2,23.3,1.9c6.4-0.3,13-1.8,17.3-6.9C510.7,59.9,510.4,59.5,510.1,59.8L510.1,59.8z"/>
	</g>
	<g>
		<path class="st0" d="M402.9,52c0.2,3.8,2.3,7.1,5.8,8.8c0.5,0.2,0.8-0.5,0.4-0.7c-3.3-1.5-5.4-4.6-6-8.1
			C403,51.9,402.9,52,402.9,52L402.9,52z"/>
	</g>
	<g>
		<path class="st0" d="M412.5,58.4c4.7-2.6,5.4-8.3,5.9-13.1c0-0.4-0.6-0.4-0.6,0c-0.5,4.7-1.2,10-5.4,12.8
			C412.2,58.2,412.3,58.5,412.5,58.4L412.5,58.4z"/>
	</g>
	<g>
		<path class="st0" d="M422.1,45.9c0.4,2.9,1.4,5.8,3.6,7.9c2.4,2.4,5.8,3.2,9,3.7c8.6,1.4,16.9,3.3,25.1,6.1c0.8,0.3,1.2-1,0.4-1.3
			c-7.1-2.5-14.5-4.1-22-5.2c-3.3-0.5-6.9-0.6-10-2.2C424.9,53.1,423.2,49.5,422.1,45.9C422.2,45.9,422.1,45.9,422.1,45.9
			L422.1,45.9z"/>
	</g>
	<g>
		<path class="st0" d="M9.6,42.7c1.6,6,3.9,12.6,8.6,16.9c0.4,0.4,1-0.2,0.6-0.6c-4.7-4.5-6.5-10.5-8.7-16.4
			C10,42.2,9.5,42.4,9.6,42.7L9.6,42.7z"/>
	</g>
	<g>
		<path class="st0" d="M25.3,61.2c6.6,0.5,13.1,0.7,19.7,0.6c6.3-0.2,12.7-0.4,18.9-1.6c0.4-0.1,0.3-0.7-0.1-0.7
			C57.4,59.9,51,60.8,44.6,61c-6.4,0.2-12.8,0.1-19.3-0.2C25,60.8,25,61.2,25.3,61.2L25.3,61.2z"/>
	</g>
	<g>
		<path class="st0" d="M74,60.7c5.4,0,10.8-0.2,16.2-0.5c0.6,0,0.6-1,0-0.9c-5.4,0.2-10.8,0.6-16.2,1.2C73.8,60.4,73.8,60.7,74,60.7
			L74,60.7z"/>
	</g>
	<g>
		<path class="st0" d="M101.5,46.6c-2.5,4.3-3.7,9.2-3.4,14.2c0,0.5,0.7,0.5,0.7,0c-0.1-4.9,0.8-9.6,3-13.9
			C102,46.5,101.6,46.3,101.5,46.6L101.5,46.6z"/>
	</g>
	<g>
		<path class="st0" d="M110.3,43.6c-1.8,1.7-2.1,4.6-2.4,6.9c-0.4,2.7-0.4,5.5,0.9,8c2.5,5.2,8.2,7.2,13.5,8.2
			c0.7,0.1,1.1-1,0.3-1.2c-4.6-1.3-10.1-2.4-12.7-7c-2.5-4.6-0.8-10.1,0.7-14.7C110.7,43.6,110.5,43.5,110.3,43.6L110.3,43.6z"/>
	</g>
	<g>
		<path class="st0" d="M8.4,49.1c1-0.7,2-1.3,2.9-2c0.2-0.2,0-0.6-0.2-0.4c-1,0.7-1.9,1.4-2.9,2.1C8,48.9,8.2,49.3,8.4,49.1
			L8.4,49.1z"/>
	</g>
	<g>
		<path class="st0" d="M8.1,50.4c1.3,0.2,2.7-0.4,3.7-1.2c0.2-0.2-0.1-0.5-0.3-0.3c-1,0.8-2.1,1-3.3,1.3C8,50.2,8,50.4,8.1,50.4
			L8.1,50.4z"/>
	</g>
	<g>
		<path class="st0" d="M7.6,53.3c0.5,0.5,1.2,0.1,1.8-0.2c1.4-0.6,2.7-1.2,4.1-1.9c0.3-0.1,0-0.5-0.2-0.4c-0.8,0.4-1.7,0.8-2.5,1.2
			c-0.6,0.3-2.2,1.4-2.9,1.1C7.7,53,7.5,53.2,7.6,53.3L7.6,53.3z"/>
	</g>
	<g>
		<path class="st0" d="M7.7,56.5c2.4-1.2,4.8-2.1,7.5-2.8c0.2-0.1,0.1-0.4-0.1-0.3c-2.7,0.4-5.2,1.4-7.5,2.8
			C7.3,56.3,7.5,56.6,7.7,56.5L7.7,56.5z"/>
	</g>
	<g>
		<path class="st0" d="M7.6,59.3c2.7-0.9,5.5-1.9,8.1-3c0.3-0.1,0.2-0.6-0.1-0.5c-2.7,1-5.4,2.1-8.1,3.3C7.4,59.2,7.5,59.4,7.6,59.3
			L7.6,59.3z"/>
	</g>
	<g>
		<path class="st0" d="M9.4,62.4c2.6-1.2,5.3-2.2,8-3.2c0.3-0.1,0.2-0.5-0.1-0.4c-2.8,0.7-5.5,2-8.1,3.3C9,62.1,9.2,62.5,9.4,62.4
			L9.4,62.4z"/>
	</g>
	<g>
		<path class="st0" d="M10.1,65.1c2.5-1,5-2.1,7.4-3.3c0.3-0.1,0-0.6-0.3-0.4c-2.4,1.1-4.9,2.3-7.2,3.6C9.9,65,10,65.2,10.1,65.1
			L10.1,65.1z"/>
	</g>
	<g>
		<path class="st0" d="M11.9,67.8c2.5-1,5-2.5,7.4-3.8c0.3-0.2,0-0.7-0.3-0.5c-2.4,1.2-5,2.4-7.2,3.9C11.6,67.6,11.7,67.9,11.9,67.8
			L11.9,67.8z"/>
	</g>
	<g>
		<path class="st0" d="M14.4,70.4c3.4-2,6.7-4.1,10.2-5.8c0.4-0.2,0-0.7-0.3-0.5c-3.6,1.6-7.1,3.5-10.1,6
			C14.1,70.3,14.3,70.5,14.4,70.4L14.4,70.4z"/>
	</g>
	<g>
		<path class="st0" d="M17.8,72.2C21.9,69.7,26,67,30,64.4c0.3-0.2,0-0.7-0.3-0.5c-4.1,2.6-8.2,5.2-12.2,7.9
			C17.4,72,17.5,72.3,17.8,72.2L17.8,72.2z"/>
	</g>
	<g>
		<path class="st0" d="M22,73.6c4.4-1.8,8.8-4.5,12.6-7.3c0.4-0.3,0-1-0.4-0.7c-4,2.7-8.2,5.1-12.3,7.7C21.8,73.4,21.8,73.7,22,73.6
			L22,73.6z"/>
	</g>
	<g>
		<path class="st0" d="M27.5,74.3c4.5-2.5,8.7-5.6,13-8.6c0.3-0.2,0-0.8-0.3-0.5c-4.3,2.8-8.8,5.6-12.9,8.8
			C27.1,74.2,27.3,74.4,27.5,74.3L27.5,74.3z"/>
	</g>
	<g>
		<path class="st0" d="M32.8,75.3c4.4-3.6,8.8-7,13.4-10.1c0.4-0.3,0-0.9-0.4-0.7c-4.8,2.9-9.4,6.5-13.4,10.4
			C32.3,75.1,32.6,75.5,32.8,75.3L32.8,75.3z"/>
	</g>
	<g>
		<path class="st0" d="M38.5,74.2c4.3-2.9,8.5-6.1,12.4-9.6c0.3-0.3-0.1-0.7-0.4-0.4c-4,3.3-8,6.6-12.1,9.7
			C38.1,74,38.3,74.3,38.5,74.2L38.5,74.2z"/>
	</g>
	<g>
		<path class="st0" d="M43.7,74.4c4.1-3.2,8.2-6.5,12.2-9.9c0.3-0.3-0.1-0.7-0.5-0.5c-4.1,3.3-8.1,6.6-12.1,10
			C43.1,74.3,43.4,74.6,43.7,74.4L43.7,74.4z"/>
	</g>
	<g>
		<path class="st0" d="M47.8,74.5c4-3.1,7.8-6.3,11.8-9.4c0.4-0.3,0-1-0.4-0.7c-4,3.1-8.1,6.2-11.7,9.8
			C47.4,74.4,47.6,74.7,47.8,74.5L47.8,74.5z"/>
	</g>
	<g>
		<path class="st0" d="M55.4,72.7c4.3-3.3,8.5-6.7,12.6-10.2c0.3-0.3-0.1-0.9-0.5-0.6c-4.3,3.1-8.7,6.6-12.4,10.4
			C54.9,72.5,55.2,72.9,55.4,72.7L55.4,72.7z"/>
	</g>
	<g>
		<path class="st0" d="M61.6,71.5c-0.2,0.1-0.2,0.1-0.2,0.4c0,0.1,0.1,0.2,0.2,0.2c0.5,0.1,0.8-0.3,1.2-0.6c1.1-0.9,2.2-1.8,3.3-2.6
			c2.4-1.9,4.9-3.8,7.2-5.8c0.3-0.3-0.1-0.9-0.5-0.6c-1.8,1.4-3.5,2.9-5.3,4.3c-1.9,1.6-3.8,3.6-5.8,5
			C61.8,71.6,61.7,71.4,61.6,71.5L61.6,71.5z"/>
	</g>
	<g>
		<path class="st0" d="M66.9,72.4c3.1-2.8,6.3-6.1,8.9-9.3c0.3-0.4-0.2-0.8-0.5-0.5c-3.1,2.9-6.1,6.2-8.7,9.5
			C66.4,72.3,66.7,72.6,66.9,72.4L66.9,72.4z"/>
	</g>
	<g>
		<path class="st0" d="M70.7,71.8c3.5-3.1,7.1-5.9,10.7-8.8c0.3-0.3-0.1-0.8-0.4-0.6c-3.9,2.5-7.4,5.7-10.6,9
			C70.1,71.7,70.5,72,70.7,71.8L70.7,71.8z"/>
	</g>
	<g>
		<path class="st0" d="M75.9,71.6c3.1-2.9,6.2-5.8,9.1-8.8c0.3-0.3-0.2-0.8-0.5-0.5c-3.2,2.8-6.2,5.9-9,9
			C75.4,71.5,75.7,71.9,75.9,71.6L75.9,71.6z"/>
	</g>
	<g>
		<path class="st0" d="M81.2,70.1c2.6-3.1,5.7-5.5,9-7.7c0.4-0.3,0-0.9-0.4-0.7c-3.6,2-6.5,4.9-9,8.2C80.7,70,81,70.3,81.2,70.1
			L81.2,70.1z"/>
	</g>
	<g>
		<path class="st0" d="M86.4,70c2.6-2.9,5.3-5.5,8.4-7.8c0.4-0.3,0-1.1-0.4-0.7c-3.2,2.3-6,5.1-8.3,8.3C85.9,70,86.2,70.2,86.4,70
			L86.4,70z"/>
	</g>
	<g>
		<path class="st0" d="M92.7,69.5c3.9-2.6,7.8-5.3,11.5-8.2c0.3-0.2-0.1-0.7-0.4-0.5c-3.9,2.6-7.7,5.5-11.4,8.4
			C92.3,69.3,92.5,69.6,92.7,69.5L92.7,69.5z"/>
	</g>
	<g>
		<path class="st0" d="M97.2,69.4c1.4-1,2.6-2.2,3.9-3.3c0.7-0.6,1.3-1.2,2-1.8c0.4-0.4,2.2-2.3,2.7-2.1c0.4,0.1,0.6-0.4,0.3-0.6
			c-1.1-0.7-2.5,1.3-3.2,2c-2,1.8-4.1,3.5-5.9,5.5C96.9,69.3,97,69.6,97.2,69.4L97.2,69.4z"/>
	</g>
	<g>
		<path class="st0" d="M99,71.4c3.5-2.4,6.8-5.1,10-7.8c0.4-0.3-0.1-0.8-0.5-0.5c-3.3,2.6-6.7,5.2-9.8,8
			C98.6,71.2,98.9,71.5,99,71.4L99,71.4z"/>
	</g>
	<g>
		<path class="st0" d="M102.8,73.2c3.5-3,7.4-5.6,10.9-8.6c0.3-0.2-0.1-0.7-0.4-0.5c-3.9,2.4-7.5,5.6-10.8,8.8
			C102.2,73.1,102.6,73.4,102.8,73.2L102.8,73.2z"/>
	</g>
	<g>
		<path class="st0" d="M106.4,75.1c3-2.8,6.3-5.2,9.4-8c0.3-0.2-0.1-0.7-0.4-0.5c-3.4,2.2-6.5,5.2-9.3,8.1
			C105.9,75,106.2,75.3,106.4,75.1L106.4,75.1z"/>
	</g>
	<g>
		<path class="st0" d="M109,77.3c3.2-2.9,6.3-6,9.3-9c0.3-0.3-0.1-0.7-0.5-0.5c-3.2,2.8-6.4,6-9.1,9.3
			C108.7,77.2,108.9,77.4,109,77.3L109,77.3z"/>
	</g>
	<g>
		<path class="st0" d="M112.5,76.1c2.4-2.2,4.7-4.3,7.2-6.4c0.3-0.2-0.1-0.8-0.4-0.5c-2.5,1.9-5,4.2-7.1,6.6
			C112,76,112.3,76.2,112.5,76.1L112.5,76.1z"/>
	</g>
	<g>
		<path class="st0" d="M114.2,78.1c2.1-2.3,4.4-4.6,6.6-6.8c0.3-0.3-0.2-0.8-0.5-0.5c-2.3,2.1-4.5,4.5-6.5,6.9
			C113.7,78,114,78.4,114.2,78.1L114.2,78.1z"/>
	</g>
	<g>
		<path class="st0" d="M116.3,78.1c1.4-1.3,2.7-2.7,3.9-4.1c0.3-0.3-0.2-0.8-0.5-0.5c-1.3,1.4-2.6,2.8-3.7,4.3
			C115.8,78,116.1,78.3,116.3,78.1L116.3,78.1z"/>
	</g>
	<g>
		<path class="st0" d="M118.9,77.2c0.7-1,1.6-2,2.5-2.9c0.2-0.2-0.1-0.6-0.4-0.4c-1,0.9-1.8,1.9-2.6,3
			C118.2,77.2,118.7,77.5,118.9,77.2L118.9,77.2z"/>
	</g>
	<g>
		<path class="st0" d="M99.4,60.5c2.1-1.4,4.1-2.9,6.2-4.4c0.4-0.3,0-0.9-0.4-0.7c-2.1,1.4-4.2,3-6,4.7
			C98.9,60.3,99.2,60.7,99.4,60.5L99.4,60.5z"/>
	</g>
	<g>
		<path class="st0" d="M99.5,58.3c2.6-1.8,5.2-3.7,7.6-5.8c0.3-0.2-0.1-0.6-0.4-0.5c-2.6,1.8-5.1,3.8-7.6,5.8
			C99,58.1,99.3,58.5,99.5,58.3L99.5,58.3z"/>
	</g>
	<g>
		<path class="st0" d="M99.8,55.1c2.7-1.7,5.4-3.7,8-5.6c0.3-0.2-0.1-0.7-0.4-0.5c-2.7,1.8-5.3,3.8-7.8,5.8
			C99.3,54.9,99.6,55.2,99.8,55.1L99.8,55.1z"/>
	</g>
	<g>
		<path class="st0" d="M99.6,52.8c2.8-1.9,5.5-3.8,8.2-5.8c0.3-0.2,0-0.7-0.3-0.5c-2.8,1.9-5.4,3.9-8.1,6
			C99.3,52.6,99.4,52.9,99.6,52.8L99.6,52.8z"/>
	</g>
	<g>
		<path class="st0" d="M100.1,50.2c3.1-1.8,6.2-3.8,9.1-6c0.2-0.2,0-0.6-0.2-0.4c-3,2.1-6,4.1-9,6.1C99.7,50,99.9,50.4,100.1,50.2
			L100.1,50.2z"/>
	</g>
	<g>
		<path class="st0" d="M101.8,46.7c2.8-1.9,5.6-3.7,8.5-5.4c0.3-0.1,0-0.5-0.2-0.4c-2.9,1.7-5.7,3.5-8.4,5.5
			C101.6,46.6,101.7,46.8,101.8,46.7L101.8,46.7z"/>
	</g>
	<g>
		<path class="st0" d="M103.3,43.2c1.7-0.6,3.4-1.4,5.1-2.1c0.2-0.1,0.1-0.5-0.2-0.4c-1.7,0.7-3.4,1.3-5.1,2.1
			C102.9,42.9,103.1,43.3,103.3,43.2L103.3,43.2z"/>
	</g>
	<g>
		<path class="st0" d="M107.7,56.4c-1.2,1-2.4,2.2-3.5,3.3c-0.3,0.3,0.2,0.8,0.5,0.5c1.1-1.1,2.3-2.2,3.4-3.4
			C108.3,56.5,108,56.1,107.7,56.4L107.7,56.4z"/>
	</g>
	<g>
		<path class="st0" d="M108.9,58.2c-0.9,0.8-1.5,1.8-2.4,2.7c-0.2,0.3,0.2,0.6,0.4,0.4c0.8-0.9,1.7-1.8,2.2-2.9
			C109.2,58.2,109,58,108.9,58.2L108.9,58.2z"/>
	</g>
	<g>
		<path class="st0" d="M109.8,60.9c-0.6,0.7-1.2,1.3-1.8,2c-0.2,0.3,0.1,0.6,0.4,0.4c0.6-0.7,1.2-1.4,1.7-2.1
			C110.3,61,110,60.7,109.8,60.9L109.8,60.9z"/>
	</g>
	<g>
		<path class="st0" d="M111,62.7c-0.4,0.6-0.7,1.2-1,1.8c-0.2,0.3,0.3,0.5,0.4,0.2c0.4-0.6,0.7-1.2,1-1.8
			C111.6,62.6,111.2,62.4,111,62.7L111,62.7z"/>
	</g>
	<g>
		<path class="st0" d="M90.4,68.9c1.4-0.7,2.5-2,3.7-2.9c1.5-1.2,3-2.4,4.5-3.5c0.4-0.3,0-0.9-0.3-0.6c-1.4,1-2.8,2.1-4.2,3.3
			c-1.3,1.1-2.9,2.2-3.8,3.6C90.3,68.8,90.3,68.9,90.4,68.9L90.4,68.9z"/>
	</g>
	<g>
		<path class="st0" d="M59.4,72.7c2.6-2.5,5.3-4.7,8.2-6.8c0.3-0.2,0-0.8-0.3-0.6c-3,2-5.8,4.3-8.3,7C58.8,72.6,59.1,73,59.4,72.7
			L59.4,72.7z"/>
	</g>
	<g>
		<path class="st0" d="M24.4,40.1c-0.8-0.2-1.5-0.1-2.2,0.2c-0.4,0.2-1.2,0.5-1.1,1.1c0.1,0.5,0.7,0.5,1.1,0.5
			c1.2,0,2.3-0.1,3.4-0.3c0.2,0,0.1-0.3-0.1-0.3c-0.6,0.1-1.2,0.1-1.8,0.2c-0.4,0-1.4,0.2-1.7,0c-0.2,0-0.3-0.1-0.2-0.4
			c-0.1-0.2-0.1-0.4,0.1-0.4c0.2-0.2,0.6-0.3,0.8-0.3c0.5-0.1,1-0.2,1.5-0.1C24.5,40.2,24.5,40.1,24.4,40.1L24.4,40.1z"/>
	</g>
	<g>
		<path class="st0" d="M34.6,41.3c4.2,0.2,8.5,0.7,12.6,1.4c1.9,0.3,3.8,0.7,5.7,1.2c1.7,0.4,5.4,0.7,6.3,2.5c0.1,0.1,0.2,0,0.2-0.1
			c-0.5-1.2-1.7-1.4-2.8-1.8c-2.5-0.8-5.1-1.4-7.6-1.8c-4.7-0.9-9.5-1.3-14.4-1.4C34.5,41.1,34.5,41.2,34.6,41.3L34.6,41.3z"/>
	</g>
	<g>
		<path class="st0" d="M55.8,46.6c-0.4,0-0.8,0-1.2,0c-0.1,0-0.1,0.1,0,0.1c0.4,0,0.8,0,1.2,0C55.9,46.7,55.9,46.6,55.8,46.6
			L55.8,46.6z"/>
	</g>
	<g>
		<path class="st0" d="M64.8,44.3c3.1,0.4,6.1,1,9.1,1.8c0.2,0.1,0.3-0.3,0.1-0.4c-2.9-1.1-6.1-1.7-9.2-1.8
			C64.6,44,64.6,44.3,64.8,44.3L64.8,44.3z"/>
	</g>
	<g>
		<path class="st0" d="M89.3,47.9c2.4,0,4.8-0.3,7.1-0.7c0.2,0,0.1-0.4-0.1-0.3c-2.3,0.4-4.7,0.7-7,0.9
			C89.2,47.7,89.2,47.9,89.3,47.9L89.3,47.9z"/>
	</g>
	<g>
		<path class="st0" d="M25.9,47.8c-0.9,0.2-2.9,1-1.8,2.3c0.4,0.4,1.2,0.4,1.7,0.4c1.7,0.2,3.5,0.2,5.2,0.2
			c7.9,0.1,15.6,0.9,23.4,1.9c0.3,0,0.3-0.5,0-0.5c-5-0.7-10-1.3-15-1.6c-2.4-0.2-4.8-0.2-7.2-0.2c-1.1,0-2.1,0-3.2,0
			c-0.7,0-1.3,0-2-0.1c-0.3,0-0.5,0-0.8,0c-0.9,0.1-1-0.6-0.3-2.1C26.1,48.1,26.1,47.8,25.9,47.8L25.9,47.8z"/>
	</g>
	<g>
		<path class="st0" d="M70.1,55.8c4.5-0.1,9.1-0.1,13.6,0c0.2,0,0.2-0.3,0-0.3c-4.5-0.2-9.1,0-13.6,0.2C70.1,55.6,70,55.8,70.1,55.8
			L70.1,55.8z"/>
	</g>
	<g>
		<path class="st0" d="M89.8,55.6c1.3,0.1,2.6,0.3,4,0.4c0.1,0,0.1-0.1,0-0.2c-1.3-0.1-2.6-0.2-4-0.4C89.7,55.5,89.7,55.6,89.8,55.6
			L89.8,55.6z"/>
	</g>
	<g>
		<path class="st0" d="M19.2,52.8c0,3.6,4.4,4.8,7.2,5.3c0.2,0,0.3-0.3,0.1-0.3c-2.7-0.5-7-1.5-7.2-4.9
			C19.3,52.7,19.2,52.7,19.2,52.8L19.2,52.8z"/>
	</g>
	<g>
		<path class="st0" d="M15.6,41.4c-1.4,1.4-1.7,3.5-0.9,5.3c0.1,0.2,0.3,0,0.3-0.2c-0.7-1.7-0.4-3.6,0.9-4.9
			C16,41.5,15.7,41.2,15.6,41.4L15.6,41.4z"/>
	</g>
	<g>
		<path class="st0" d="M125.3,24.3c1.6-0.9,3-2,4.2-3.3c0.2-0.3-0.1-0.6-0.4-0.4c-1.2,1.3-2.6,2.4-4,3.4
			C124.9,24.1,125.1,24.5,125.3,24.3L125.3,24.3z"/>
	</g>
	<g>
		<path class="st0" d="M124.8,26.7c1.4-1,2.7-2.1,4-3.2c0.2-0.2-0.1-0.5-0.4-0.4c-1.3,1.1-2.6,2.2-3.9,3.3
			C124.5,26.6,124.7,26.8,124.8,26.7L124.8,26.7z"/>
	</g>
	<g>
		<path class="st0" d="M124.4,29.2c1.6-1.4,3.3-2.6,5.1-3.6c0.3-0.2,0-0.6-0.3-0.5c-1.9,1-3.6,2.3-5.2,3.8
			C123.9,29.1,124.2,29.4,124.4,29.2L124.4,29.2z"/>
	</g>
	<g>
		<path class="st0" d="M122.9,34.2c2.4-2.4,5-4.5,7.8-6.5c0.3-0.2,0-0.7-0.3-0.5c-2.9,1.9-5.5,4.2-7.8,6.7
			C122.5,34.1,122.7,34.3,122.9,34.2L122.9,34.2z"/>
	</g>
	<g>
		<path class="st0" d="M123.5,34.2c2.9-1.9,5.8-3.9,8.5-5.9c0.3-0.2,0-0.6-0.3-0.4c-2.9,1.9-5.7,3.9-8.5,6
			C123.1,34,123.3,34.3,123.5,34.2L123.5,34.2z"/>
	</g>
	<g>
		<path class="st0" d="M124.2,36.9c2.5-1.8,5.2-3.7,7.4-5.9c0.2-0.2-0.1-0.6-0.3-0.4c-2.6,1.7-5.1,3.9-7.3,6
			C123.9,36.8,124.1,37,124.2,36.9L124.2,36.9z"/>
	</g>
	<g>
		<path class="st0" d="M122.5,40.4c3.1-2.1,6.2-4.3,9.1-6.7c0.3-0.2-0.1-0.7-0.4-0.5c-3.1,2.1-6,4.5-8.9,6.9
			C122.1,40.2,122.4,40.5,122.5,40.4L122.5,40.4z"/>
	</g>
	<g>
		<path class="st0" d="M122.5,42.8c3.1-2.3,6.4-4.3,9.6-6.5c0.3-0.2,0-0.7-0.3-0.5c-3.4,1.7-6.6,4.2-9.5,6.7
			C122,42.6,122.3,43,122.5,42.8L122.5,42.8z"/>
	</g>
	<g>
		<path class="st0" d="M123,44.5c2.9-2.2,5.9-4.2,8.9-6.3c0.2-0.2,0-0.5-0.2-0.4c-3.2,1.8-6.1,4.1-8.9,6.5
			C122.5,44.4,122.8,44.6,123,44.5L123,44.5z"/>
	</g>
	<g>
		<path class="st0" d="M121.8,47.6c2.9-1.8,5.7-3.6,8.6-5.3c0.3-0.2,0-0.7-0.3-0.5c-2.9,1.5-5.9,3.5-8.4,5.6
			C121.6,47.5,121.7,47.7,121.8,47.6L121.8,47.6z"/>
	</g>
	<g>
		<path class="st0" d="M121.5,51c3.1-2.2,6.2-4.5,9.2-6.9c0.3-0.2-0.1-0.7-0.4-0.5c-3.1,2.2-6.1,4.7-9.1,7.1
			C121.2,50.9,121.4,51.2,121.5,51L121.5,51z"/>
	</g>
	<g>
		<path class="st0" d="M121.3,53.7c1.6-0.5,2.8-1.8,4.1-2.8c1.8-1.5,3.8-2.7,5.8-4c0.3-0.2,0-0.7-0.3-0.5c-1.6,0.9-3.1,2-4.5,3.1
			c-1.7,1.3-3.2,3-5.1,4.1C121.2,53.6,121.2,53.7,121.3,53.7L121.3,53.7z"/>
	</g>
	<g>
		<path class="st0" d="M122.2,56.2c1.3-1.2,2.5-2.4,4-3.4c1.3-0.9,2.7-1.6,4.1-2.4c0.3-0.2,0.1-0.7-0.2-0.6c-3.1,1-6.1,3.5-8.2,6
			C121.5,56.1,121.9,56.5,122.2,56.2L122.2,56.2z"/>
	</g>
	<g>
		<path class="st0" d="M121.9,59.6c2.8-1.9,5.6-4,8.2-6.1c0.3-0.2-0.1-0.8-0.4-0.5c-2.8,1.9-5.5,4.1-8,6.3
			C121.5,59.4,121.7,59.7,121.9,59.6L121.9,59.6z"/>
	</g>
	<g>
		<path class="st0" d="M121.4,63.4c2.9-2.5,5.9-4.6,9-6.7c0.3-0.2,0-0.8-0.3-0.6c-3.2,2-6.2,4.4-9,7
			C120.9,63.3,121.2,63.6,121.4,63.4L121.4,63.4z"/>
	</g>
	<g>
		<path class="st0" d="M122,65.4c3-2.3,6-4.5,9-6.8c-0.2-0.2-0.4-0.3-0.6-0.5c-0.3,0.5-0.7,1-1.2,1.3c-0.3,0.2,0,0.7,0.3,0.5
			c0.7-0.4,1.1-0.8,1.5-1.5c0.2-0.3-0.2-0.7-0.5-0.5c-3,2.3-5.9,4.6-8.9,7C121.5,65.2,121.8,65.6,122,65.4L122,65.4z"/>
	</g>
	<g>
		<path class="st0" d="M122.1,68.7c1.3-1.2,2.7-2.4,4.1-3.6c1.4-1.1,3-2,4.4-3.1c0.3-0.2-0.1-0.6-0.4-0.5c-3.1,1.6-6,4.3-8.4,6.9
			C121.6,68.5,121.9,68.9,122.1,68.7L122.1,68.7z"/>
	</g>
	<g>
		<path class="st0" d="M122.3,71.2c1.2-1.2,2.4-2.4,3.7-3.5c0.7-0.6,1.4-1.2,2.1-1.7c0.4-0.3,0.7-0.6,1.1-0.8
			c0.2-0.1,0.3-0.2,0.5-0.3c0.3-0.1,0.4-0.3,0.1-0.7c0.2,0,0.3,0.1,0.5,0.1c0,0,0,0,0-0.1c-0.3-0.4-0.8-0.1-0.6,0.4c0,0,0,0,0,0.1
			c0.1,0.2,0.3,0.2,0.5,0.1c0.2-0.1,0.3-0.2,0.3-0.4c0-0.2-0.1-0.4-0.3-0.5c-1-0.4-2.9,1.8-3.6,2.4c-1.6,1.4-3.3,2.9-4.6,4.7
			C121.8,71.1,122.2,71.4,122.3,71.2L122.3,71.2z"/>
	</g>
	<g>
		<path class="st0" d="M122.1,74.2c3.1-2.6,6.2-5,9.2-7.7c0.2-0.2-0.1-0.6-0.3-0.4c-3.3,2.2-6.3,5.1-9.1,7.9
			C121.7,74.2,122,74.4,122.1,74.2L122.1,74.2z"/>
	</g>
	<g>
		<path class="st0" d="M122.8,77.1c1.5,0,2.8-2,3.8-3c1.8-1.8,3.8-3.5,5.5-5.4c0.3-0.3-0.1-0.7-0.4-0.4c-1.5,1.3-2.8,2.8-4.2,4.2
			c-0.7,0.7-1.3,1.3-2,2c-0.6,0.7-1.7,2.2-2.7,2.3C122.6,76.7,122.6,77.1,122.8,77.1L122.8,77.1z"/>
	</g>
	<g>
		<path class="st0" d="M123.8,80.6c2.8-3.7,5.8-6.8,9.3-9.8c0.3-0.2-0.1-0.8-0.4-0.5c-3.6,2.6-7,6.2-9.3,10
			C123.3,80.6,123.7,80.8,123.8,80.6L123.8,80.6z"/>
	</g>
	<g>
		<path class="st0" d="M124.3,82.3c2.4-2.7,4.8-5.3,7.4-7.8c0.3-0.3-0.1-0.7-0.4-0.4c-2.7,2.4-5.1,5.1-7.3,8
			C123.8,82.2,124.1,82.4,124.3,82.3L124.3,82.3z"/>
	</g>
	<g>
		<path class="st0" d="M125.5,83.6c1.1-1.1,2.2-2.2,3.2-3.3c0.5-0.6,1.1-1.1,1.6-1.7c0.5-0.5,1.5-1.9,2.3-1.8
			c0.4,0.1,0.5-0.5,0.2-0.6c-1.4-0.3-2.3,1.3-3.1,2.2c-1.5,1.6-3,3.3-4.4,5C125,83.5,125.3,83.8,125.5,83.6L125.5,83.6z"/>
	</g>
	<g>
		<path class="st0" d="M125.6,86.9c2.6-3.4,5.5-6.3,8.7-9.1c0.3-0.3-0.1-0.7-0.4-0.4c-3.3,2.7-6.2,5.9-8.6,9.3
			C125,86.9,125.4,87.1,125.6,86.9L125.6,86.9z"/>
	</g>
	<g>
		<path class="st0" d="M126,89.9c2.9-2.8,5.7-5.5,8.8-8.1c0.4-0.3-0.2-0.8-0.5-0.5c-3,2.5-6,5.3-8.5,8.4
			C125.5,89.8,125.8,90.1,126,89.9L126,89.9z"/>
	</g>
	<g>
		<path class="st0" d="M126.3,94.8c3.6-3.7,7.1-7.5,10.6-11.3c-0.2-0.2-0.4-0.3-0.6-0.5c-0.1,0.3-0.3,0.6-0.5,0.8
			c-0.2,0.4,0.3,0.7,0.6,0.3c0.2-0.2,0.4-0.5,0.5-0.7c0.3-0.4-0.2-1-0.6-0.6c-3.6,3.7-7.1,7.5-10.4,11.5
			C125.8,94.7,126.1,95,126.3,94.8L126.3,94.8z"/>
	</g>
	<g>
		<path class="st0" d="M128.2,97.3c4.8-4.3,9.2-9.1,13.1-14.2c-0.2-0.1-0.4-0.2-0.7-0.3c0,0.3,0,0.6,0,0.9c0,0.4,0.6,0.4,0.7,0
			c0-0.3,0-0.6,0.1-0.9c0-0.3-0.5-0.5-0.7-0.3c-4,5.1-8.3,9.8-12.9,14.4C127.6,97.2,128,97.5,128.2,97.3L128.2,97.3z"/>
	</g>
	<g>
		<path class="st0" d="M131.4,99.3c4.8-4.8,9.7-9.6,14.5-14.4c0.3-0.3-0.2-0.8-0.5-0.5c-5,4.5-9.9,9.5-14.3,14.6
			C130.8,99.2,131.2,99.5,131.4,99.3L131.4,99.3z"/>
	</g>
	<g>
		<path class="st0" d="M135.8,99.3c5.5-4.2,11.2-8.9,15.6-14.3c0.3-0.3-0.1-0.7-0.4-0.4c-5.2,4.8-10,9.9-15.4,14.5
			C135.5,99.2,135.6,99.4,135.8,99.3L135.8,99.3z"/>
	</g>
	<g>
		<path class="st0" d="M140.5,100.4c1.1,0,1.9-1.3,2.6-2c1.5-1.5,3.1-2.9,4.6-4.4c3.2-3,6.5-5.9,9.4-9.1c0.3-0.3-0.1-0.7-0.5-0.5
			c-2.9,2.5-5.5,5.3-8.2,7.9c-1.3,1.3-2.6,2.6-3.9,3.9c-1.1,1.1-2.7,3.4-4.1,3.9C140.3,100.2,140.3,100.4,140.5,100.4L140.5,100.4z"
			/>
	</g>
	<g>
		<path class="st0" d="M147,98.9c4.7-4.7,9.6-9.1,14.4-13.6c0.3-0.3-0.1-0.7-0.5-0.5c-5,4.2-9.7,9-14.2,13.8
			C146.6,98.8,146.8,99,147,98.9L147,98.9z"/>
	</g>
	<g>
		<path class="st0" d="M152.5,98.9c2.3-2.5,4.6-5,7-7.4c2.4-2.4,5.1-4.5,7.4-7c0.3-0.3-0.1-0.9-0.5-0.6c-2.6,1.9-4.9,4.4-7.2,6.7
			c-2.5,2.5-4.9,5.1-7.1,7.9C151.9,98.8,152.2,99.2,152.5,98.9L152.5,98.9z"/>
	</g>
	<g>
		<path class="st0" d="M157,99.3c5.4-5.4,10.5-10.8,16.2-15.8c-0.2-0.2-0.4-0.4-0.7-0.7c-0.1,0.2-0.3,0.3-0.4,0.5
			c-0.3,0.3,0.1,0.9,0.5,0.6c0.2-0.1,0.4-0.2,0.5-0.4c0.6-0.4-0.1-1.2-0.6-0.7c-5.7,4.9-11.3,10.3-15.9,16.2
			C156.5,99.2,156.8,99.5,157,99.3L157,99.3z"/>
	</g>
	<g>
		<path class="st0" d="M162.9,99.2c4.9-4.4,9.5-9.2,14.3-13.7c0.4-0.3-0.2-0.9-0.5-0.5c-4.9,4.3-9.9,8.9-14.1,13.9
			C162.4,99.1,162.7,99.4,162.9,99.2L162.9,99.2z"/>
	</g>
	<g>
		<path class="st0" d="M166.6,100.4c5.3-4.4,10.4-9.1,15.4-13.8c0.4-0.3-0.2-0.8-0.5-0.5c-5.3,4.3-10.5,9.1-15,14.1
			C166.3,100.4,166.5,100.5,166.6,100.4L166.6,100.4z"/>
	</g>
	<g>
		<path class="st0" d="M173.3,100.3c3.2-3.2,6.3-6.6,9.3-10c0.3-0.3-0.2-0.7-0.4-0.4c-3.1,3.3-6.3,6.6-9.2,10.1
			C172.7,100.2,173,100.5,173.3,100.3L173.3,100.3z"/>
	</g>
	<g>
		<path class="st0" d="M177.1,101.4c4.9-5.4,9.8-10.8,14.8-16.1c0.3-0.3-0.2-0.8-0.5-0.5c-5.2,5-10.2,10.6-14.7,16.4
			C176.6,101.3,176.9,101.6,177.1,101.4L177.1,101.4z"/>
	</g>
	<g>
		<path class="st0" d="M181.1,101c4.6-4.6,9.1-9.2,13.9-13.6c0.3-0.3-0.2-0.8-0.5-0.5c-4.8,4.2-9.6,8.9-13.6,13.9
			C180.7,100.9,180.9,101.2,181.1,101L181.1,101z"/>
	</g>
	<g>
		<path class="st0" d="M186.9,100c4.2-5.3,8.9-9.7,14.1-13.9c0.3-0.3-0.1-0.8-0.4-0.6c-5.5,3.6-10.3,8.8-14.1,14.1
			C186.3,100,186.8,100.3,186.9,100L186.9,100z"/>
	</g>
	<g>
		<path class="st0" d="M190.8,99.9c5.6-4.6,11.1-10,15.5-15.6c0.3-0.3-0.2-0.8-0.5-0.5c-5.2,5.2-10.2,10.6-15.3,15.8
			C190.3,99.8,190.6,100.1,190.8,99.9L190.8,99.9z"/>
	</g>
	<g>
		<path class="st0" d="M195.7,100.5c4.4-4.8,9-9.5,13.7-14.1c0.3-0.3-0.2-0.8-0.5-0.5c-4.9,4.4-9.4,9.2-13.6,14.2
			C195.1,100.3,195.5,100.7,195.7,100.5L195.7,100.5z"/>
	</g>
	<g>
		<path class="st0" d="M200.3,101.6c4.9-5.7,10-11.2,15-16.7c0.3-0.3-0.2-0.8-0.5-0.5c-5.3,5.3-10.2,11-14.8,16.9
			C199.9,101.5,200.1,101.8,200.3,101.6L200.3,101.6z"/>
	</g>
	<g>
		<path class="st0" d="M205.8,100.1c4.6-4.6,9.1-9.5,13.2-14.6c0.3-0.4-0.2-1-0.6-0.6c-4.5,4.8-8.8,9.8-12.9,14.9
			C205.4,100,205.6,100.2,205.8,100.1L205.8,100.1z"/>
	</g>
	<g>
		<path class="st0" d="M210.6,99.1c-0.3,0.4-0.2,0.3-0.3,0.8c0,0.2,0.2,0.3,0.4,0.1c3.9-4.7,7.8-9.5,11.4-14.4
			c0.2-0.3-0.3-0.7-0.6-0.4c-3.7,4.5-7.6,9.2-10.6,14C211,99.1,210.7,98.9,210.6,99.1L210.6,99.1z"/>
	</g>
	<g>
		<path class="st0" d="M215.2,100.4c3.8-4.5,7.4-9.1,11.2-13.5c0.3-0.4-0.2-0.9-0.5-0.5c-4,4.2-8,8.8-11,13.7
			C214.7,100.3,215,100.6,215.2,100.4L215.2,100.4z"/>
	</g>
	<g>
		<path class="st0" d="M217.3,100c5.3-5.2,10.6-10.6,15.5-16.1c0.3-0.3-0.2-0.8-0.5-0.5c-5.3,5.2-10.4,10.7-15.3,16.3
			C216.8,99.9,217.1,100.2,217.3,100L217.3,100z"/>
	</g>
	<g>
		<path class="st0" d="M221.9,99.4c5.4-4.7,10.5-10.2,14.8-15.8c0.2-0.3-0.3-0.7-0.5-0.4c-4.8,5.3-9.7,10.7-14.4,16.1
			C221.6,99.3,221.8,99.5,221.9,99.4L221.9,99.4z"/>
	</g>
	<g>
		<path class="st0" d="M223.8,100.2c6.1-4.8,11.6-10.3,16.3-16.5c0.3-0.4-0.3-0.8-0.6-0.5c-4.9,6-10.1,11.5-15.9,16.6
			C223.3,100.1,223.6,100.4,223.8,100.2L223.8,100.2z"/>
	</g>
	<g>
		<path class="st0" d="M232.1,99c4.1-5.3,8.5-10.5,12.6-15.8c0.2-0.3-0.3-0.7-0.6-0.4c-4.7,4.7-8.9,10.5-12.4,16
			C231.5,99,231.9,99.3,232.1,99L232.1,99z"/>
	</g>
	<g>
		<path class="st0" d="M235,98.7c4.4-4.6,8.4-9.8,12-15c0.2-0.4-0.3-0.7-0.6-0.3c-3.8,5.1-7.8,10.1-11.7,15
			C234.5,98.6,234.8,98.9,235,98.7L235,98.7z"/>
	</g>
	<g>
		<path class="st0" d="M238.9,98.4c4.1-5.3,8.5-10.3,12.9-15.4c0.3-0.3-0.1-0.7-0.4-0.4c-4.7,4.7-9,10.1-12.9,15.5
			C238.4,98.3,238.7,98.6,238.9,98.4L238.9,98.4z"/>
	</g>
	<g>
		<path class="st0" d="M241.8,98.5c5-5.1,9.9-10.6,13.8-16.6c0.3-0.5-0.4-0.8-0.7-0.4c-4.3,5.7-8.7,11.3-13.5,16.6
			C241.1,98.4,241.5,98.8,241.8,98.5L241.8,98.5z"/>
	</g>
	<g>
		<path class="st0" d="M248.4,96.9c4.2-4.9,8.4-10.1,12.3-15.3c0.3-0.4-0.4-0.9-0.7-0.5c-4.2,5-8.2,10.2-12.1,15.4
			C247.8,96.8,248.2,97.2,248.4,96.9L248.4,96.9z"/>
	</g>
	<g>
		<path class="st0" d="M249,100c4.7-4.4,8.9-9.3,12.9-14.2c0.3-0.4-0.2-0.9-0.6-0.6c-4,5-8.3,9.7-12.6,14.5
			C248.5,99.9,248.8,100.2,249,100L249,100z"/>
	</g>
	<g>
		<path class="st0" d="M255.1,98.8c4.6-5.6,9.4-11.1,14.3-16.5c0.3-0.4-0.2-0.9-0.6-0.6c-5.1,5.2-9.8,10.9-14.2,16.7
			C254.4,98.7,254.9,99.1,255.1,98.8L255.1,98.8z"/>
	</g>
	<g>
		<path class="st0" d="M260.9,97.6c4.2-5.5,8.7-10.5,13.4-15.6c0.4-0.4-0.2-0.9-0.6-0.6c-4.9,4.8-9.3,10.3-13.3,15.9
			C260.1,97.7,260.6,97.9,260.9,97.6L260.9,97.6z"/>
	</g>
	<g>
		<path class="st0" d="M266.7,98.8c4-4.2,7.8-8.5,11.5-12.9c0.2-0.3-0.2-0.7-0.4-0.4c-3.8,4.3-7.7,8.7-11.3,13.2
			C266.5,98.8,266.6,98.9,266.7,98.8L266.7,98.8z"/>
	</g>
	<g>
		<path class="st0" d="M271.2,99.2c4.6-4.7,9-9.8,13.3-14.8c0.3-0.4-0.2-1-0.6-0.6c-4.4,4.9-8.9,9.9-13,15
			C270.7,99.1,271,99.4,271.2,99.2L271.2,99.2z"/>
	</g>
	<g>
		<path class="st0" d="M276.5,99.3c5.3-5.2,10.6-10.9,14.7-17.2c0.3-0.4-0.3-0.9-0.6-0.5c-4.9,5.7-9.4,11.6-14.5,17.2
			C275.7,99.1,276.2,99.6,276.5,99.3L276.5,99.3z"/>
	</g>
	<g>
		<path class="st0" d="M281.2,100.1c5.4-6.1,10.8-12.1,16.4-18c0.4-0.4-0.2-1-0.6-0.6c-5.7,5.7-11.2,11.9-16.1,18.3
			C280.8,100,281,100.3,281.2,100.1L281.2,100.1z"/>
	</g>
	<g>
		<path class="st0" d="M263,99.1c5-4.6,9.4-10.1,13.9-15.2c0.3-0.4-0.2-0.9-0.5-0.5c-4.6,5-9.6,10-13.7,15.4
			C262.5,99.1,262.9,99.3,263,99.1L263,99.1z"/>
	</g>
	<g>
		<path class="st0" d="M285.6,99.4C285.5,99.4,285.5,99.3,285.6,99.4c-0.1-0.1-0.2-0.1-0.3-0.1c-0.2,0.1-0.2,0.2-0.2,0.4
			c0,0.1,0.1,0.2,0.2,0.2c0.9,0.1,1.8-1.4,2.4-2c1.6-1.6,3.1-3.2,4.7-4.8c3.1-3.2,6.3-6.4,9.3-9.7c0.3-0.4-0.2-0.9-0.5-0.5
			c-1.4,1.4-15.8,16.8-15.8,16.9C285.5,99.8,285.7,99.5,285.6,99.4L285.6,99.4z"/>
	</g>
	<g>
		<path class="st0" d="M290.8,101.2c0.7-2.1,3-4,4.4-5.7c1.6-1.9,3.2-3.8,4.8-5.6c3.2-3.6,6.5-7,9.8-10.5c0.4-0.4-0.2-1-0.6-0.6
			c-3.7,3.6-7.2,7.5-10.6,11.4c-1.6,1.9-3.2,3.8-4.7,5.7c-1.2,1.5-3.2,3.3-3.6,5.2C290.3,101.4,290.7,101.5,290.8,101.2L290.8,101.2
			z"/>
	</g>
	<g>
		<path class="st0" d="M295.2,100.5c6-7.2,13-13.3,19.5-20c0.3-0.4-0.2-0.8-0.5-0.5c-3.8,3-7.2,6.6-10.6,10.1
			c-3,3.1-6.6,6.4-8.8,10.1C294.5,100.4,294.9,100.7,295.2,100.5L295.2,100.5z"/>
	</g>
	<g>
		<path class="st0" d="M299.3,99.9c6-6.5,12.1-12.8,18.7-18.8c0.4-0.4-0.2-0.9-0.6-0.6c-6.7,5.6-13.1,12.1-18.5,19
			C298.8,99.8,299.1,100.1,299.3,99.9L299.3,99.9z"/>
	</g>
	<g>
		<path class="st0" d="M302.3,101.6c7.7-7.5,15.8-14.7,23-22.6c0.3-0.4-0.2-0.9-0.5-0.5c-7.9,7.2-15.3,15.2-22.8,22.8
			C301.8,101.5,302.1,101.8,302.3,101.6L302.3,101.6z"/>
	</g>
	<g>
		<path class="st0" d="M309.4,101.8c6.8-5.9,13.3-12.7,19.2-19.5c0.3-0.4-0.2-1-0.6-0.6c-6.2,6.6-12.7,13.1-19,19.7
			C308.8,101.7,309.2,102,309.4,101.8L309.4,101.8z"/>
	</g>
	<g>
		<path class="st0" d="M317.4,99.8c3.4-2.9,6.5-6,9.3-9.6c2.5-3.3,4.8-6.6,8.2-9.1c0.4-0.3,0-1-0.4-0.7c-3.2,2-5.4,5.2-7.6,8.2
			c-2.9,3.9-6.2,7.5-9.9,10.8C316.7,99.7,317.1,100,317.4,99.8L317.4,99.8z"/>
	</g>
	<g>
		<path class="st0" d="M322.9,99.6c5.7-5.2,11.3-10.9,16.3-16.8c0.4-0.4-0.2-1.1-0.7-0.7c-5.3,5.7-10.7,11.4-16.2,16.9
			C322.2,99.4,322.6,99.8,322.9,99.6L322.9,99.6z"/>
	</g>
	<g>
		<path class="st0" d="M329.3,98.9c5.5-6.5,11.6-12.5,18.3-18c0.4-0.4-0.2-1-0.6-0.6c-6.7,5.4-12.7,11.5-18,18.2
			C328.7,98.8,329.1,99.1,329.3,98.9L329.3,98.9z"/>
	</g>
	<g>
		<path class="st0" d="M307.6,97.8c-0.5,0.8-0.9,1.6-1.5,2.4c-0.1,0.2,0.2,0.4,0.3,0.3c4.9-4.8,9.7-9.9,14.5-14.9
			c0.4-0.4-0.2-1-0.6-0.6c-2.6,2.7-5.2,5.4-7.7,8.2c-1.2,1.3-2.4,2.5-3.5,3.8c-0.6,0.6-1.1,1.3-1.8,1.9
			C305.9,100.2,307.4,98.4,307.6,97.8C307.7,97.8,307.6,97.8,307.6,97.8L307.6,97.8z"/>
	</g>
	<g>
		<path class="st0" d="M334.5,99.5c5.6-6,11.4-11.8,17.4-17.4c0.3-0.3-0.2-0.8-0.5-0.5c-6.1,5.5-11.8,11.4-17.2,17.6
			C334,99.4,334.3,99.7,334.5,99.5L334.5,99.5z"/>
	</g>
	<g>
		<path class="st0" d="M340.8,99.2c5.3-5.6,10.4-11.7,15.3-17.6c0.3-0.4-0.2-0.9-0.6-0.6c-5.2,5.8-10.4,11.7-15.1,17.8
			C340.1,99.1,340.5,99.5,340.8,99.2L340.8,99.2z"/>
	</g>
	<g>
		<path class="st0" d="M347.8,99.9c4.9-6.7,10.2-12.9,15.3-19.3c0.3-0.4-0.2-0.9-0.6-0.6c-5.7,5.9-10.7,12.8-15.3,19.5
			C347,99.9,347.5,100.2,347.8,99.9L347.8,99.9z"/>
	</g>
	<g>
		<path class="st0" d="M353.1,97.7c2.8-3.2,5.4-6.6,8.1-9.8c2.7-3.3,5.6-6.4,8.2-9.7c0.3-0.4-0.2-1-0.6-0.6
			c-5.7,6.1-11.3,12.9-16.1,19.8C352.5,97.7,352.9,98,353.1,97.7L353.1,97.7z"/>
	</g>
	<g>
		<path class="st0" d="M358.1,97.6c5.6-6.1,11.1-12.3,16.6-18.5c0.4-0.4-0.2-1-0.6-0.6c-5.8,5.8-11.4,12.2-16.3,18.9
			C357.6,97.5,357.9,97.8,358.1,97.6L358.1,97.6z"/>
	</g>
	<g>
		<path class="st0" d="M362.4,99.2c3-3.3,5.6-6.8,8.5-10.1c2.9-3.3,5.8-6.6,8.8-9.9c0.3-0.4-0.2-0.9-0.6-0.6
			c-6,6.4-12.1,13.1-17.1,20.3C361.9,99.2,362.2,99.4,362.4,99.2L362.4,99.2z"/>
	</g>
	<g>
		<path class="st0" d="M369,98.1c5.3-5.3,10.2-11.1,14.6-17.3c0.3-0.5-0.4-0.9-0.8-0.4c-4.5,6-9.3,11.7-14.3,17.3
			C368.3,97.9,368.7,98.3,369,98.1L369,98.1z"/>
	</g>
	<g>
		<path class="st0" d="M373.9,98.3c4.9-5.6,9.4-11.5,14-17.2c0.3-0.4-0.3-1.1-0.6-0.6c-4.7,5.8-9.5,11.5-13.9,17.5
			C373.2,98.2,373.6,98.6,373.9,98.3L373.9,98.3z"/>
	</g>
	<g>
		<path class="st0" d="M379.6,97.5c4.1-6,8.6-11.6,13.5-16.9c0.4-0.4-0.2-1-0.6-0.6c-5,5.3-9.5,11.1-13.4,17.2
			C378.9,97.6,379.3,97.8,379.6,97.5L379.6,97.5z"/>
	</g>
	<g>
		<path class="st0" d="M383.4,97.8c5-5.3,9.6-11.2,13.1-17.6c0.2-0.4-0.4-0.8-0.6-0.4c-3.9,6.2-8,12.1-12.9,17.6
			C382.8,97.7,383.2,98,383.4,97.8L383.4,97.8z"/>
	</g>
	<g>
		<path class="st0" d="M389.6,97.1c3.4-4.5,6.6-9.1,9.7-13.9c0.2-0.4-0.3-0.7-0.6-0.3c-3.2,4.7-6.4,9.3-9.7,13.8
			C388.7,97.1,389.3,97.4,389.6,97.1L389.6,97.1z"/>
	</g>
	<g>
		<path class="st0" d="M393.3,96.2c3.1-3.6,6.2-7.4,8.6-11.5c0.3-0.5-0.4-0.8-0.7-0.4c-2.8,3.8-5.4,7.7-8.3,11.4
			C392.5,96,393,96.5,393.3,96.2L393.3,96.2z"/>
	</g>
	<g>
		<path class="st0" d="M395.8,97c1.4-2.1,2.9-4.1,4.7-5.8c0.4-0.4-0.2-1-0.6-0.6c-1.8,1.8-3.4,3.9-4.7,6.1
			C395,97,395.6,97.4,395.8,97L395.8,97z"/>
	</g>
	<g>
		<path class="st0" d="M398.2,97.6c0.7-0.9,1.4-1.8,2.1-2.8c0.2-0.3-0.3-0.7-0.5-0.4c-0.7,0.9-1.4,1.9-2.1,2.8
			C397.4,97.6,397.9,97.9,398.2,97.6L398.2,97.6z"/>
	</g>
	<g>
		<path class="st0" d="M400,55.5c1.1-0.8,2.1-1.8,3-2.8c0.3-0.3-0.2-0.8-0.5-0.5c-1,0.9-2,1.9-2.8,2.9
			C399.6,55.4,399.8,55.7,400,55.5L400,55.5z"/>
	</g>
	<g>
		<path class="st0" d="M400.6,58.2c1.3-1.1,2.4-2.5,3.2-3.9c0.2-0.4-0.3-0.7-0.6-0.3c-0.9,1.4-1.9,2.7-3,4
			C400.1,58.1,400.4,58.4,400.6,58.2L400.6,58.2z"/>
	</g>
	<g>
		<path class="st0" d="M400.2,61.6c1.3-1.4,2.6-2.8,3.7-4.4c0.2-0.2-0.2-0.5-0.4-0.3c-1.3,1.3-2.5,2.9-3.6,4.4
			C399.7,61.5,400,61.8,400.2,61.6L400.2,61.6z"/>
	</g>
	<g>
		<path class="st0" d="M400,64.5c1.4-1.1,2.6-2.4,3.9-3.6c0.3-0.3-0.2-0.7-0.4-0.4c-1.3,1.2-2.6,2.5-3.8,3.8
			C399.5,64.4,399.8,64.7,400,64.5L400,64.5z"/>
	</g>
	<g>
		<path class="st0" d="M400,67.1c2.2-2.2,4.5-4.2,6.8-6.2c0.3-0.3-0.1-0.8-0.4-0.6c-2.5,1.9-4.7,4.1-6.8,6.5
			C399.5,67,399.8,67.3,400,67.1L400,67.1z"/>
	</g>
	<g>
		<path class="st0" d="M399.8,69.9c3.7-2.6,7.3-5.5,10.8-8.4c0.3-0.3-0.1-0.9-0.5-0.6c-3.6,2.7-7.2,5.6-10.5,8.7
			C399.4,69.7,399.6,70,399.8,69.9L399.8,69.9z"/>
	</g>
	<g>
		<path class="st0" d="M400.5,73.2c4.5-3.8,9-7.5,13.5-11.2c0.3-0.3-0.1-0.9-0.5-0.6c-4.7,3.4-9.3,7.4-13.4,11.5
			C400,73.1,400.3,73.4,400.5,73.2L400.5,73.2z"/>
	</g>
	<g>
		<path class="st0" d="M400.6,77.6c5.6-4.5,10.9-9.8,15.8-15.2c0.3-0.4-0.2-0.9-0.5-0.5c-5.2,5.1-10.5,10.2-15.5,15.5
			C400.2,77.6,400.4,77.8,400.6,77.6L400.6,77.6z"/>
	</g>
	<g>
		<path class="st0" d="M404.2,78.5c6.5-5.4,12.7-11.7,18-18.2c0.3-0.4-0.2-1-0.6-0.6c-5.8,6.3-11.7,12.4-17.8,18.5
			C403.6,78.4,404,78.7,404.2,78.5L404.2,78.5z"/>
	</g>
	<g>
		<path class="st0" d="M421.4,46.8c-1.5,2.4-3,4.7-4.7,6.9c-0.2,0.2,0.1,0.6,0.4,0.4c1.8-2.2,3.4-4.6,4.6-7.2
			C421.7,46.8,421.5,46.7,421.4,46.8L421.4,46.8z"/>
	</g>
	<g>
		<path class="st0" d="M422.4,48.9c-2.9,3.7-5.6,7.5-8.3,11.3c-0.3,0.4,0.3,0.7,0.6,0.4c2.8-3.7,5.5-7.5,8.1-11.4
			C423,49,422.6,48.7,422.4,48.9L422.4,48.9z"/>
	</g>
	<g>
		<path class="st0" d="M423.5,52.6c-2.3,2.9-4.7,5.7-7.3,8.4c-0.3,0.3,0.2,0.8,0.5,0.5c2.8-2.4,5.2-5.4,7.2-8.5
			C424.1,52.7,423.7,52.3,423.5,52.6L423.5,52.6z"/>
	</g>
	<g>
		<path class="st0" d="M418.7,47c1.1-1,2.1-2.1,3.1-3.1c0.2-0.3-0.1-0.6-0.4-0.4c-1,1-2.1,2.1-3,3.3C418.3,46.9,418.5,47.2,418.7,47
			L418.7,47z"/>
	</g>
	<g>
		<path class="st0" d="M419.7,43.6c0.8-0.4,1.5-1,2.2-1.5c0.2-0.2,0-0.6-0.2-0.4c-0.8,0.5-1.5,1-2.2,1.6
			C419.3,43.4,419.5,43.7,419.7,43.6L419.7,43.6z"/>
	</g>
	<g>
		<path class="st0" d="M412.2,76.1c5.7-5.7,11.4-11.5,16.9-17.5c0.3-0.3-0.2-0.9-0.5-0.5c-5.7,5.7-11.2,11.7-16.7,17.7
			C411.7,76,412,76.4,412.2,76.1L412.2,76.1z"/>
	</g>
	<g>
		<path class="st0" d="M420.6,72.1c4.5-3.8,8.8-8.2,12.3-12.9c0.2-0.3-0.3-0.8-0.6-0.4c-3.9,4.5-7.8,8.8-12.1,13
			C420,72,420.3,72.3,420.6,72.1L420.6,72.1z"/>
	</g>
	<g>
		<path class="st0" d="M427.2,69.9c2.9-2.9,5.7-5.8,8.5-8.8c0.3-0.4-0.2-0.9-0.5-0.5c-2.8,2.9-5.6,5.9-8.4,8.9
			C426.6,69.7,427,70.1,427.2,69.9L427.2,69.9z"/>
	</g>
	<g>
		<path class="st0" d="M431.3,69.1c3.7-3.4,7.3-7,11-10.4c0.3-0.3-0.2-0.8-0.5-0.5c-3.8,3.2-7.5,6.9-10.7,10.8
			C431.1,69.1,431.2,69.2,431.3,69.1L431.3,69.1z"/>
	</g>
	<g>
		<path class="st0" d="M435.8,67.7c2.9-2.4,5.9-4.8,8.7-7.4c0.3-0.3-0.1-0.7-0.5-0.5c-3,2.4-5.7,5-8.5,7.6
			C435.3,67.5,435.6,67.8,435.8,67.7L435.8,67.7z"/>
	</g>
	<g>
		<path class="st0" d="M437.8,68.1c2.7-1.8,5.3-4,7.6-6.3c0.3-0.3-0.2-0.8-0.5-0.5c-2.5,2.1-4.9,4.3-7.4,6.4
			C437.4,68,437.6,68.3,437.8,68.1L437.8,68.1z"/>
	</g>
	<g>
		<path class="st0" d="M440.4,69.9c2.7-2.6,5.6-5,8.4-7.5c0.4-0.3-0.2-0.8-0.5-0.5c-2.9,2.3-5.6,5-8.1,7.8
			C439.9,69.8,440.2,70.1,440.4,69.9L440.4,69.9z"/>
	</g>
	<g>
		<path class="st0" d="M443.9,69.7c2.5-2.2,5-4.5,7.4-6.8c0.3-0.3-0.2-0.8-0.5-0.5c-2.5,2.3-4.9,4.6-7.2,7
			C443.5,69.7,443.8,69.9,443.9,69.7L443.9,69.7z"/>
	</g>
	<g>
		<path class="st0" d="M448.5,69.1c2.2-2.2,4.4-4.3,6.7-6.4c0.4-0.3-0.2-0.8-0.5-0.5c-2.4,1.9-4.7,4.1-6.6,6.5
			C447.9,69,448.3,69.4,448.5,69.1L448.5,69.1z"/>
	</g>
	<g>
		<path class="st0" d="M452.7,68.3c1.9-2,4.1-3.6,6.4-5.2c0.4-0.3,0.1-1-0.4-0.7c-2.5,1.3-4.6,3.4-6.4,5.5
			C452.1,68.2,452.4,68.6,452.7,68.3L452.7,68.3z"/>
	</g>
	<g>
		<path class="st0" d="M457.1,68.1c1.1-1,2.4-1.9,3.4-3.1c0.3-0.4-0.2-0.9-0.6-0.6c-1.2,1-2.2,2.2-3.2,3.3
			C456.5,68,456.8,68.3,457.1,68.1L457.1,68.1z"/>
	</g>
	<g>
		<path class="st0" d="M460.9,69.5c1.2-1.2,2.3-2.4,3.5-3.5c0.3-0.3-0.1-0.7-0.5-0.5c-1.3,1.1-2.5,2.3-3.5,3.7
			C460.3,69.4,460.7,69.7,460.9,69.5L460.9,69.5z"/>
	</g>
	<g>
		<path class="st0" d="M463.2,69.9c1.4-1,2.6-2.2,3.9-3.4c0.2-0.2-0.1-0.6-0.4-0.4c-1.2,1.2-2.5,2.4-3.7,3.6
			C462.9,69.8,463.1,70,463.2,69.9L463.2,69.9z"/>
	</g>
	<g>
		<path class="st0" d="M465.6,70.7c1.9-1.3,3.8-2.8,5.6-4.3c0.3-0.2-0.1-0.7-0.4-0.5c-1.9,1.4-3.8,2.9-5.4,4.5
			C465.2,70.5,465.4,70.8,465.6,70.7L465.6,70.7z"/>
	</g>
	<g>
		<path class="st0" d="M470,71.4c1.6-1.7,3.3-3.3,5-4.9c0.3-0.3-0.1-0.7-0.4-0.4c-1.8,1.5-3.4,3.2-4.9,5
			C469.5,71.3,469.8,71.7,470,71.4L470,71.4z"/>
	</g>
	<g>
		<path class="st0" d="M473.3,72.3c2-1.7,3.9-3.4,5.9-5.1c0.3-0.2-0.1-0.8-0.4-0.6c-2.1,1.6-4.1,3.3-5.9,5.2
			C472.7,72.1,473.1,72.5,473.3,72.3L473.3,72.3z"/>
	</g>
	<g>
		<path class="st0" d="M477.8,73.2c1.8-1.8,3.7-3.2,5.9-4.6c0.3-0.2,0-0.7-0.3-0.5c-2.3,1.1-4.3,2.9-5.8,4.8
			C477.4,73.1,477.7,73.4,477.8,73.2L477.8,73.2z"/>
	</g>
	<g>
		<path class="st0" d="M481.7,73.3c2.3-1.9,4.5-4.1,6.4-6.3c0.3-0.3-0.2-0.7-0.4-0.4c-2.1,2.2-4.2,4.3-6.3,6.5
			C481.3,73.2,481.5,73.4,481.7,73.3L481.7,73.3z"/>
	</g>
	<g>
		<path class="st0" d="M485.5,72.5c2.4-1.8,4.8-3.6,7-5.6c0.3-0.3-0.2-0.8-0.5-0.5c-2.2,1.9-4.5,3.9-6.7,5.8
			C485.2,72.4,485.4,72.7,485.5,72.5L485.5,72.5z"/>
	</g>
	<g>
		<path class="st0" d="M490.5,72.8c1.9-2,3.7-4,5.5-6.1c0.3-0.3-0.2-0.8-0.5-0.5c-1.9,2-3.7,4.1-5.4,6.2
			C489.9,72.7,490.2,73.1,490.5,72.8L490.5,72.8z"/>
	</g>
	<g>
		<path class="st0" d="M493.8,73.2c0.8-0.3,1.5-1.2,2.1-1.9c0.7-0.8,1.4-1.6,2-2.4c0.2-0.3-0.3-0.7-0.5-0.4
			c-0.6,0.8-1.3,1.6-1.9,2.4c-0.6,0.6-1.5,1.3-1.8,2.1C493.6,73.1,493.7,73.2,493.8,73.2L493.8,73.2z"/>
	</g>
	<g>
		<path class="st0" d="M496.5,74.2c1.2-1,2.1-2.3,3.1-3.5c1-1.2,2-2.4,3-3.6c0.3-0.4-0.2-0.9-0.5-0.5c-1.1,1.3-2.1,2.6-3.1,3.8
			c-0.9,1.1-2,2.3-2.7,3.6C496.2,74.2,496.4,74.3,496.5,74.2L496.5,74.2z"/>
	</g>
	<g>
		<path class="st0" d="M499.5,74.9c2.5-3,4.7-6.2,7-9.4c0.2-0.3-0.3-0.7-0.5-0.4c-2.4,3-4.8,6.2-6.8,9.5
			C499,74.8,499.3,75.1,499.5,74.9L499.5,74.9z"/>
	</g>
	<g>
		<path class="st0" d="M503.9,75.2c2.7-3.5,5.4-7.1,7.9-10.7c0.2-0.3-0.3-0.6-0.6-0.3c-2.7,3.5-5.3,7.1-7.7,10.8
			C503.4,75.2,503.7,75.4,503.9,75.2L503.9,75.2z"/>
	</g>
	<g>
		<path class="st0" d="M515.5,45.7c-1.4,2.1-2.3,4.5-2.8,7c-0.1,0.4,0.5,0.5,0.6,0.2c0.6-2.4,1.5-4.6,2.6-6.9
			C516,45.7,515.6,45.5,515.5,45.7L515.5,45.7z"/>
	</g>
	<g>
		<path class="st0" d="M502.4,74.8c2.4-3.6,4.7-7.3,6.7-11.1c0.2-0.4-0.3-0.7-0.5-0.3c-2.1,3.8-4.3,7.5-6.6,11.2
			C501.9,74.8,502.3,75,502.4,74.8L502.4,74.8z"/>
	</g>
	<g>
		<path class="st0" d="M507.7,73.8c2.4-2.6,4.1-6,6.1-8.9c2.2-3.2,4.4-6.3,6.7-9.4c0.3-0.4-0.3-0.7-0.6-0.4
			c-2.3,3.1-4.5,6.2-6.6,9.4C511.2,67.4,508.9,70.5,507.7,73.8C507.6,73.8,507.6,73.8,507.7,73.8L507.7,73.8z"/>
	</g>
	<g>
		<path class="st0" d="M519.6,59.3c-3.3,3.9-6.3,8.2-8.8,12.6c-0.2,0.4,0.3,0.7,0.6,0.3c2.8-4.2,5.7-8.4,8.7-12.5
			C520.2,59.4,519.8,59,519.6,59.3L519.6,59.3z"/>
	</g>
	<g>
		<path class="st0" d="M518.7,52.3c-1.7,2.6-3.4,5.2-5.1,7.8c-0.2,0.3,0.3,0.6,0.5,0.3c1.8-2.5,3.5-5.1,5-7.8
			C519.3,52.3,518.9,52,518.7,52.3L518.7,52.3z"/>
	</g>
	<g>
		<path class="st0" d="M517.5,49.9c-1.9,3.6-3.8,7.2-5.8,10.8c-0.2,0.3,0.3,0.6,0.5,0.3c2.2-3.5,4.1-7.2,5.6-11
			C517.8,49.9,517.5,49.8,517.5,49.9L517.5,49.9z"/>
	</g>
	<g>
		<path class="st0" d="M469.6,44.8c6.3-0.7,12.6-1.7,18.9-2.2c3-0.3,6-0.4,9-0.2c3.2,0.2,8.5,0.6,9.7,4.2c0.1,0.3,0.6,0.2,0.5-0.1
			c-0.7-2.1-2.5-3.1-4.6-3.6c-3.4-0.9-7.1-1.1-10.6-0.9c-7.7,0.4-15.4,1.7-23,2.7C469.5,44.7,469.5,44.8,469.6,44.8L469.6,44.8z"/>
	</g>
	<g>
		<path class="st0" d="M509,51.9c0.2,1.7-0.1,3.1-1.3,4.4c-0.8,0.9-1.8,1.6-2.7,2.3c-2.2,1.9-4.3,3.2-7.3,3c-0.3,0-0.3,0.5,0,0.5
			c3.2,0.2,5.4-1.2,7.7-3.2C508,56.7,509.4,55.5,509,51.9C509,51.8,508.9,51.8,509,51.9L509,51.9z"/>
	</g>
	<g>
		<path class="st0" d="M496.2,47.9c1.1-0.2,2.1-0.3,3.2-0.2c0.3,0,0.6,0,0.9,0.1c0.6,0.1,0.7,0.4,0.2,1.1c-0.2,0.1-0.6,0.1-0.8,0.2
			c-0.2,0.1-0.1,0.3,0.1,0.3c0.6-0.2,2.4-0.4,1.4-1.5c-0.4-0.4-1.2-0.4-1.7-0.5c-1.1,0-2.2,0.1-3.3,0.3
			C496,47.7,496,47.9,496.2,47.9L496.2,47.9z"/>
	</g>
	<g>
		<path class="st0" d="M451.4,47.9c4.3-0.2,8.5,0.2,12.7,1.1c0.2,0,0.3-0.2,0.1-0.3c-4.2-1-8.4-1.3-12.7-1
			C451.2,47.7,451.2,47.9,451.4,47.9L451.4,47.9z"/>
	</g>
	<g>
		<path class="st0" d="M471.3,49.2c0.7-0.2,1.5-0.4,2.3-0.4c0.1,0,0.1-0.1,0-0.1c-0.8,0-1.6,0.1-2.3,0.4
			C471.1,49.1,471.2,49.3,471.3,49.2L471.3,49.2z"/>
	</g>
	<g>
		<path class="st0" d="M472.2,59c7,1.2,14.1,2.2,21.3,2.6c0.3,0,0.3-0.4,0-0.5c-7.1-0.6-14.2-1.2-21.2-2.2
			C472.2,58.9,472.2,59,472.2,59L472.2,59z"/>
	</g>
	<g>
		<path class="st0" d="M456.1,59.1c6,1.4,12.1,2.6,18.2,3.5c0.3,0,0.4-0.4,0.1-0.4c-6.1-1.1-12.2-2.1-18.2-3.3
			C456,58.8,455.9,59,456.1,59.1L456.1,59.1z"/>
	</g>
	<g>
		<path class="st0" d="M403.6,41.8c0.1,3.5,1.2,6.9,3,10c0.1,0.2,0.4,0,0.3-0.2c-1.8-3.1-2.7-6.3-3-9.8
			C403.9,41.7,403.6,41.6,403.6,41.8L403.6,41.8z"/>
	</g>
	<g>
		<path class="st0" d="M426.5,45.9c4.1,2,8.8,2.6,13.3,2.1c0.3,0,0.3-0.6,0-0.5c-4.6,0.5-8.9-0.3-13.2-1.8
			C426.4,45.7,426.4,45.9,426.5,45.9L426.5,45.9z"/>
	</g>
	<g>
		<path class="st0" d="M428.2,50.8c1.6,0.6,3.1,0.9,4.8,1c0.2,0,0.2-0.2,0-0.3c-1.6-0.1-3.2-0.3-4.7-0.9
			C428.1,50.6,428.1,50.7,428.2,50.8L428.2,50.8z"/>
	</g>
	<g>
		<path class="st0" d="M464.5,55.8c1.4-0.5,2.9-0.4,4.3,0.2c0-0.1,0-0.3,0-0.4c-0.4,0.2-0.8,0.4-1.2,0.6c-0.2,0.1-0.1,0.5,0.2,0.4
			c0.4-0.2,0.9-0.4,1.3-0.6c0.1-0.1,0.1-0.3,0-0.4c-1.5-0.7-3.1-0.7-4.6-0.1C464.3,55.6,464.4,55.9,464.5,55.8L464.5,55.8z"/>
	</g>
	<g>
		<path class="st0" d="M144.5,21.9c22.9-2,45.9-2.2,68.9-0.5c0.3,0,0.3-0.4,0-0.4c-22.9-1.6-46-1.4-68.9,0.8
			C144.4,21.8,144.4,21.9,144.5,21.9L144.5,21.9z"/>
	</g>
	<g>
		<path class="st0" d="M177.8,40.3c15.3-1,30.7-1.4,46-1c3.8,0.1,7.5,0.2,11.3,0.5c1.6,0.1,3.3,0.2,4.8,0.7c0.8,0.3,1.8,0.6,2.2,1.3
			c0.6,1.1-2.6,0.8-3.5,0.9c-7.6,0.1-15.2,0.2-22.9,0.4c-8.6,0.1-17.2,0.3-25.9,0.4c-0.4,0-0.4,0.6,0,0.6c9.3-0.1,18.7-0.3,28-0.5
			c4.6-0.1,9.2-0.2,13.8-0.2c2.3,0,4.6-0.1,6.9-0.1c1.6,0,3.2,0.1,4.5-1c0.1-0.1,0.2-0.3,0.1-0.4c-3.2-2.9-8-2.5-12-2.7
			c-5.9-0.2-11.9-0.4-17.8-0.4C201.5,38.7,189.6,39.2,177.8,40.3C177.7,40.2,177.7,40.3,177.8,40.3L177.8,40.3z"/>
	</g>
	<g>
		<path class="st0" d="M285.8,40.5c21.4-0.1,42.8,0.1,64.2-0.2c0.2,0,0.2-0.3,0-0.3c-21.4-0.1-42.8,0.3-64.2,0.4
			C285.7,40.4,285.7,40.5,285.8,40.5L285.8,40.5z"/>
	</g>
	<g>
		<path class="st0" d="M283.3,32.5c7.8,0,15.7,0,23.5-0.1c0.3,0,0.3-0.5,0-0.5c-7.8,0.1-15.7,0.1-23.5,0.3
			C283.1,32.2,283.1,32.5,283.3,32.5L283.3,32.5z"/>
	</g>
	<g>
		<path class="st0" d="M267.6,60.7c21-0.5,42.1-0.5,63.1-0.2c0.3,0,0.3-0.5,0-0.5C309.7,59.7,288.6,59.8,267.6,60.7
			C267.5,60.6,267.5,60.7,267.6,60.7L267.6,60.7z"/>
	</g>
	<g>
		<path class="st0" d="M217.3,61.7c7,1,14.2,0.4,21.1-1c0.2,0,0.1-0.4-0.1-0.3c-7,1.4-13.9,1.6-21,1.2
			C217.2,61.5,217.2,61.7,217.3,61.7L217.3,61.7z"/>
	</g>
	<g>
		<path class="st0" d="M353.2,60.4c10.1,0.2,20.2,0.4,30.3,0.5c0.4,0,0.4-0.6,0-0.6c-10.1-0.2-20.2-0.3-30.3-0.5
			C352.8,59.8,352.8,60.4,353.2,60.4L353.2,60.4z"/>
	</g>
	<g>
		<path class="st0" d="M143.9,61.5c8.8,0.6,17.6,0.9,26.4,0.8c0.2,0,0.2-0.3,0-0.3c-8.8,0-17.6-0.3-26.4-0.8
			C143.7,61.2,143.7,61.5,143.9,61.5L143.9,61.5z"/>
	</g>
	<g>
		<path class="st0" d="M145,43.7c6.5-0.1,13.1-0.5,19.6-1c0.3,0,0.3-0.5,0-0.4c-6.5,0.6-13.1,0.9-19.6,1.2
			C144.8,43.4,144.8,43.7,145,43.7L145,43.7z"/>
	</g>
	<g>
		<path class="st0" d="M141.3,15.6c-0.8,1.2-1.6,2.4-2.3,3.7c-0.1,0.2,0.2,0.4,0.4,0.2c0.8-1.2,1.5-2.4,2.2-3.7
			C141.7,15.6,141.4,15.4,141.3,15.6L141.3,15.6z"/>
	</g>
	<g>
		<path class="st0" d="M144.2,16.5c-1,1-2.1,2.1-3,3.2c-0.2,0.2,0.1,0.6,0.3,0.3c1-1.1,2-2.2,3-3.2
			C144.7,16.6,144.4,16.3,144.2,16.5L144.2,16.5z"/>
	</g>
	<g>
		<path class="st0" d="M148.2,16.3c-1.1,0.7-2.1,1.6-3.1,2.5c-0.1,0.1,0,0.4,0.2,0.3c1.1-0.8,2.1-1.6,3.1-2.5
			C148.5,16.4,148.3,16.2,148.2,16.3L148.2,16.3z"/>
	</g>
	<g>
		<path class="st0" d="M151.8,16.5c0.1-0.1,0.3-0.2,0.4-0.3c0.2-0.1,0-0.4-0.2-0.3c-1.1,0.8-2.1,1.6-3.1,2.5
			c-0.2,0.1,0.1,0.4,0.2,0.3c1.1-0.8,2.1-1.7,3.1-2.5c-0.1-0.1-0.1-0.1-0.2-0.2c-0.1,0.1-0.3,0.3-0.4,0.4
			C151.5,16.4,151.7,16.6,151.8,16.5L151.8,16.5z"/>
	</g>
	<g>
		<path class="st0" d="M155.2,16.3c0.2-0.1,0.4-0.1,0.6-0.2c0-0.1,0-0.1,0-0.2c-1.2,0.8-2.4,1.7-3.6,2.6c-0.2,0.1,0,0.4,0.2,0.3
			c1.2-0.9,2.4-1.8,3.5-2.7c0.1-0.1,0.1-0.2,0-0.2c-0.4-0.1-0.6,0-0.8,0.3C155,16.3,155.2,16.4,155.2,16.3L155.2,16.3z"/>
	</g>
	<g>
		<path class="st0" d="M159.8,16.1c0.1,0,0.2-0.1,0.4-0.1c0,0,0-0.1,0-0.1c-1,0.5-2.1,1.2-3,1.9c-0.1,0.1,0,0.4,0.2,0.3
			c1-0.7,1.9-1.4,2.8-2.1c0.1-0.1,0-0.2-0.1-0.2C160,15.9,159.8,15.9,159.8,16.1C159.7,16.1,159.7,16.1,159.8,16.1L159.8,16.1z"/>
	</g>
	<g>
		<path class="st0" d="M163.7,16.5c0.1,0,0.2-0.1,0.3-0.1c0-0.1-0.1-0.2-0.1-0.3c-1,0.5-1.9,1.2-2.8,1.8c-0.2,0.2,0,0.5,0.2,0.4
			c0.9-0.6,1.9-1.2,2.7-1.9c0.1-0.1,0-0.3-0.1-0.3c-0.2,0-0.3,0.1-0.5,0.2C163.4,16.4,163.5,16.6,163.7,16.5L163.7,16.5z"/>
	</g>
	<g>
		<path class="st0" d="M167.6,16.5c0.2,0,0.4-0.1,0.6-0.1c0-0.1-0.1-0.2-0.1-0.3c-0.9,0.4-1.7,1-2.6,1.4c-0.3,0.1,0,0.6,0.3,0.5
			c0.9-0.4,1.8-0.9,2.5-1.6c0.1-0.1,0-0.4-0.2-0.3c-0.2,0-0.4,0.1-0.5,0.1C167.3,16.3,167.4,16.6,167.6,16.5L167.6,16.5z"/>
	</g>
	<g>
		<path class="st0" d="M170,16.9c-0.6,0.3-1.2,0.8-1.8,1.1c-0.3,0.1,0,0.5,0.2,0.4c0.6-0.3,1.3-0.8,1.7-1.3
			C170.3,17,170.2,16.8,170,16.9L170,16.9z"/>
	</g>
	<g>
		<path class="st0" d="M194.3,39c-0.7,0.4-1.5,0.9-2.2,1.4c-0.2,0.2,0.1,0.5,0.3,0.4c0.7-0.4,1.4-1,2.1-1.5
			C194.6,39.2,194.5,38.9,194.3,39L194.3,39z"/>
	</g>
	<g>
		<path class="st0" d="M197.1,39.1c-1.2,0.1-2.5,0.8-3.3,1.7c-0.2,0.3,0.1,0.6,0.4,0.4c0.9-0.8,1.8-1.3,2.9-1.7
			C197.4,39.5,197.4,39.1,197.1,39.1L197.1,39.1z"/>
	</g>
	<g>
		<path class="st0" d="M198.3,39.6C198.3,39.6,198.3,39.6,198.3,39.6c0,0-0.1,0.1-0.1,0.1c-0.1,0-0.3,0-0.4,0
			c-0.1,0-0.2,0.1-0.3,0.1c-0.2,0.1-0.3,0.2-0.5,0.2c-0.4,0.2-0.8,0.4-1.2,0.5c-0.3,0.1,0,0.5,0.2,0.4c0.4-0.2,0.9-0.4,1.3-0.7
			c0.3-0.1,0.9-0.3,1-0.6c0.2-0.3-0.1-0.5-0.4-0.3c0,0-0.1,0.1,0,0.1c0,0,0,0,0,0.1C198.1,39.9,198.4,39.8,198.3,39.6L198.3,39.6z"
			/>
	</g>
	<g>
		<path class="st0" d="M202.2,39.4c-1.2,0.2-2.4,0.8-3.3,1.4c-0.3,0.2,0,0.6,0.3,0.5c1-0.6,2.1-1,3.2-1.5
			C202.6,39.7,202.5,39.3,202.2,39.4L202.2,39.4z"/>
	</g>
	<g>
		<path class="st0" d="M205.3,39.6C205.3,39.6,205.3,39.6,205.3,39.6c0,0.1,0.1,0.2,0.2,0.2c0.4,0,0.3-0.5,0-0.5
			c-0.3,0-0.8,0.2-1.2,0.4c-0.5,0.2-0.9,0.4-1.3,0.6c-0.2,0.1-0.1,0.6,0.2,0.5c0.4-0.2,0.8-0.4,1.2-0.6c0.2-0.1,0.5-0.2,0.7-0.3
			c0.1,0,0.4-0.2,0.5-0.2c0-0.1-0.1-0.1-0.1-0.2c0,0,0,0,0,0c0.1,0,0.1,0.1,0.2,0.1c0,0,0,0,0,0C205.5,39.3,205.3,39.4,205.3,39.6
			L205.3,39.6z"/>
	</g>
	<g>
		<path class="st0" d="M210,38.8c-1.1,0-2.5,0.8-3.4,1.5c-0.3,0.2,0,0.8,0.3,0.5c0.5-0.4,1-0.7,1.5-1c0.5-0.3,1.1-0.4,1.6-0.8
			C210.1,38.9,210.1,38.8,210,38.8L210,38.8z"/>
	</g>
	<g>
		<path class="st0" d="M213,39.1c-1,0.3-2,0.9-2.7,1.7c-0.3,0.3,0.1,0.7,0.4,0.4c0.8-0.7,1.5-1.3,2.5-1.7
			C213.4,39.4,213.2,39,213,39.1L213,39.1z"/>
	</g>
	<g>
		<path class="st0" d="M215.5,40c-0.8,0-1.7,0.5-2.2,1.1c-0.2,0.2,0.1,0.5,0.3,0.4c0.3-0.2,0.6-0.5,1-0.7c0.3-0.2,0.7-0.3,1-0.5
			C215.6,40.1,215.6,40,215.5,40L215.5,40z"/>
	</g>
	<g>
		<path class="st0" d="M219.2,39.3c-0.8,0.3-1.8,0.9-2.2,1.7c-0.2,0.3,0.2,0.6,0.5,0.4c0.3-0.3,0.5-0.6,0.9-0.9
			c0.3-0.3,0.7-0.5,1-0.7C219.6,39.6,219.5,39.2,219.2,39.3L219.2,39.3z"/>
	</g>
	<g>
		<path class="st0" d="M223.2,38.9c-0.8,0.5-1.8,1-2.5,1.7c-0.3,0.3,0.1,0.7,0.4,0.5c0.9-0.4,1.6-1.1,2.4-1.6
			C223.9,39.2,223.6,38.7,223.2,38.9L223.2,38.9z"/>
	</g>
	<g>
		<path class="st0" d="M227.9,39.2c-0.6,0.1-1.2,0.6-1.8,0.9c-0.6,0.4-1.3,0.7-1.9,1.2c-0.3,0.2,0,0.8,0.3,0.6
			c0.7-0.4,1.3-0.9,2-1.3c0.5-0.3,1.1-0.7,1.4-1.2C228,39.3,227.9,39.2,227.9,39.2L227.9,39.2z"/>
	</g>
	<g>
		<path class="st0" d="M229.4,39.6c-0.3,0.2-0.6,0.5-1,0.7c-0.3,0.2-0.7,0.4-1,0.6c-0.4,0.2,0,0.8,0.4,0.6c0.7-0.3,1.6-0.9,2-1.6
			C229.9,39.7,229.7,39.5,229.4,39.6L229.4,39.6z"/>
	</g>
	<g>
		<path class="st0" d="M232.9,39.3c-0.8,0.8-1.8,1.4-2.7,2.1c-0.3,0.2,0,0.8,0.3,0.6c1-0.6,1.9-1.4,2.8-2.2
			C233.5,39.5,233.1,39.1,232.9,39.3L232.9,39.3z"/>
	</g>
	<g>
		<path class="st0" d="M236,39.9c-1,0.2-2,1.1-2.6,1.9c-0.2,0.3,0.3,0.7,0.5,0.4c0.3-0.3,0.7-0.7,1-1c0.4-0.3,0.8-0.6,1.2-0.9
			C236.4,40.2,236.2,39.8,236,39.9L236,39.9z"/>
	</g>
	<g>
		<path class="st0" d="M238.4,40.9c0.2,0,0.3,0,0.5,0.1c0-0.2,0-0.3-0.1-0.5c-0.6,0.3-1.1,0.6-1.6,1c-0.3,0.2,0.1,0.7,0.4,0.5
			c0.5-0.3,1.1-0.7,1.6-1.1c0.2-0.1,0-0.5-0.2-0.5c-0.2,0-0.3,0-0.5,0C238.2,40.4,238.1,40.8,238.4,40.9L238.4,40.9z"/>
	</g>
	<g>
		<path class="st0" d="M240.6,41.2c-0.3,0.7-0.8,1.3-1.6,1.4c-0.5,0.1-0.4,0.9,0.1,0.8c1.1-0.1,2-1,2-2.2
			C241.1,40.9,240.7,40.9,240.6,41.2L240.6,41.2z"/>
	</g>
	<g>
		<path class="st0" d="M382.9,44.3c-0.1,0.5-4.7,0.3-5.5,0.5c-1.5,0.3-2.8,0.9-3.9,1.9c-0.1,0.1-0.1,0.4,0.1,0.4
			c4.1,0.6,8.2,0.7,12.3,0.4c0.1,0,0.1-0.2,0-0.2c-2.2,0.1-4.4,0.1-6.5,0c-0.8,0-1.6-0.1-2.4-0.2c-1.1-0.1-3.4,0.1-1.6-1.1
			c1.4-1,3.7-1,5.3-1c0.8,0,1.9,0.3,2.5-0.4c0-0.1,0.1-0.1,0-0.2C383.1,44.3,383,44.3,382.9,44.3C383,44.3,382.9,44.3,382.9,44.3
			L382.9,44.3z"/>
	</g>
	<g>
		<path class="st0" d="M248.8,61.2c1.9,1.6,1,4.3,0.9,6.4c0,0.5-0.2,1.8,0.6,2c0.8,0.1,1.2-1.2,1.3-1.7c0.6-1.9,0.7-4,0.5-5.9
			c0-0.1-0.2-0.1-0.2,0c0.2,1.6,0.1,3.2-0.2,4.7c-0.1,0.4-0.2,0.8-0.3,1.2c-1.2,0.8-1.7,0.8-1.6,0c-0.2-0.6,0.1-1.4,0.2-2
			c0.2-1.7,0.3-3.6-1.2-4.8C248.9,61,248.8,61.1,248.8,61.2L248.8,61.2z"/>
	</g>
	<g>
		<path class="st0" d="M252.4,60.3C252.4,60.3,252.4,60.3,252.4,60.3C252.4,60.3,252.4,60.3,252.4,60.3L252.4,60.3z"/>
	</g>
	<g>
		<path class="st0" d="M246.4,28.4c1.5-0.1,15.8,0.4,15.7,1.4c-0.1,0.8-5.9,1.2-6.7,1.3c-2.6,0.2-5.1,0.2-7.7,0
			c-0.2,0-0.2,0.2,0,0.2c5.2,0.5,10.3,0.1,15.3-1.3c0.1,0,0.2-0.3,0-0.3c-5.4-1.3-11-1.8-16.6-1.4C246.3,28.2,246.3,28.4,246.4,28.4
			L246.4,28.4z"/>
	</g>
	<g>
		<path class="st0" d="M179.8,54.6c2.6-0.3,5.6-0.4,6.7,2.7c0.3,0.8,0.3,1.7,0.9,2.4c1,1,2,0.7,2.5-0.5c0.6-1.4,0.5-2.7,1.3-4.1
			c0.9-1.5,2.1-2.7,3.6-3.6c3.2-1.9,7-2,10.6-1.9c0.3,0,0.3-0.5,0-0.5c-5.5-0.3-11.9,0.6-14.7,6.1c-0.2,0.5-0.5,1-0.6,1.5
			c-0.2,0.5-0.1,1.5-0.4,2c-1.8,2.5-2.7-1.8-3.3-2.6c-1.5-2.1-4.3-1.9-6.6-1.5C179.7,54.5,179.7,54.6,179.8,54.6L179.8,54.6z"/>
	</g>
	<g>
		<path class="st0" d="M348.4,32.1c4.2-0.6,8.5-0.1,12.5,1.4c2.6,1,4.6,2,7.1,0.3c1.2-0.8,2.1-1.9,3.3-2.6c1.9-1.2,4.1-1.2,6.2-1.3
			c4.1-0.3,8.3-0.5,12.4-0.5c0.2,0,0.2-0.3,0-0.3c-4.3,0-8.6,0.1-12.8,0.3c-3,0.2-5.2,0.4-7.5,2.5c-1.8,1.6-3.3,3.1-5.9,2.4
			c-1.7-0.5-3.2-1.3-4.9-1.8c-3.4-0.9-6.8-1-10.3-0.5C348.3,31.9,348.3,32.1,348.4,32.1L348.4,32.1z"/>
	</g>
	<g>
		<path class="st0" d="M295.6,49.8c1.8,0.1,3.4,0.4,5,1.3c0.9,0.5,1.7,1.2,2.7,1.2c0.5,0,0.9-0.2,1.3-0.3c1.5-0.6,3-1.3,4.5-1.7
			c5.7-1.5,11.6-1.3,17.4-1.2c0.4,0,0.4-0.5,0-0.6c-5.3-0.2-10.8-0.2-16,1c-1.3,0.3-2.5,0.7-3.7,1.1c-1.8,0.7-3.4,1.5-5.2,0.6
			c-2-1.1-3.8-1.7-6.1-1.7C295.4,49.6,295.4,49.8,295.6,49.8L295.6,49.8z"/>
	</g>
	<g>
		<path class="st0" d="M323.9,70.9c2.3-0.1,4.6-0.3,6.9-0.4c0,0,0-0.1,0-0.1C328.5,70.5,326.2,70.7,323.9,70.9
			C323.9,70.8,323.9,70.9,323.9,70.9L323.9,70.9z"/>
	</g>
	<g>
		<path class="st0" d="M347.5,68.4c6.9,0.2,13.9,0.1,20.9,0c0.1,0,0.1-0.2,0-0.2C361.4,68.2,354.4,68.2,347.5,68.4
			C347.5,68.4,347.5,68.4,347.5,68.4L347.5,68.4z"/>
	</g>
	<g>
		<path class="st0" d="M276.7,69.4c6.2-0.2,12.5-0.4,18.7-0.6c0.2,0,0.2-0.4,0-0.4c-6.2,0.2-12.5,0.5-18.7,0.8
			C276.5,69.2,276.5,69.4,276.7,69.4L276.7,69.4z"/>
	</g>
	<g>
		<path class="st0" d="M185.8,71.8c6,0,11.9,0,17.9-0.1c2.8,0,5.7-0.1,8.5-0.1c1.5,0,2.9,0.1,4.3,0.2c0.8,0.1,1.5,0.2,2.3,0.4
			c0.3,0.1,0.5,0.1,0.8,0.2c1.3,0.2,1.1,0.7-0.6,1.5c-0.2,0-0.2,0.3,0,0.3c1.1,0,1.7-0.4,2.3-1.4c0.1-0.1,0-0.2-0.1-0.3
			c-5.2-2.2-11.3-1.4-16.7-1.3c-6.2,0.1-12.5,0.2-18.7,0.4C185.7,71.7,185.7,71.8,185.8,71.8L185.8,71.8z"/>
	</g>
	<g>
		<path class="st0" d="M165.2,27.9c3-0.3,6.1-0.5,9.2-0.5c1.4,0,2.8,0.1,4.2,0.1c0.8,0.1,1.7,0.1,2.5,0.2c0.3,0,0.6,0.1,0.8,0.1
			c1-0.2,1.3,0.3,0.8,1.5c-0.2,0.1-0.1,0.4,0.1,0.4c1-0.2,1.5-0.7,1.8-1.7c0.1-0.2-0.1-0.3-0.2-0.3C178,27,171.6,27,165.2,27.9
			C165.2,27.9,165.2,27.9,165.2,27.9L165.2,27.9z"/>
	</g>
	<g>
		<path class="st0" d="M263.5,21.3c5.4,0.5,10.8,0.6,16.2,0.7c5.4,0.1,10.8,0.3,16.2,0c0.3,0,0.3-0.4,0-0.4
			c-5.4-0.1-10.8,0.1-16.2,0c-5.4-0.1-10.8-0.4-16.2-0.4C263.4,21.2,263.4,21.3,263.5,21.3L263.5,21.3z"/>
	</g>
</g>
</svg>
