<?xml version="1.0" encoding="utf-8"?>
<!-- Generator: Adobe Illustrator 23.0.1, SVG Export Plug-In . SVG Version: 6.00 Build 0)  -->
<!DOCTYPE svg PUBLIC "-//W3C//DTD SVG 1.1//EN" "http://www.w3.org/Graphics/SVG/1.1/DTD/svg11.dtd" [
	<!ENTITY ns_extend "http://ns.adobe.com/Extensibility/1.0/">
	<!ENTITY ns_ai "http://ns.adobe.com/AdobeIllustrator/10.0/">
	<!ENTITY ns_graphs "http://ns.adobe.com/Graphs/1.0/">
	<!ENTITY ns_vars "http://ns.adobe.com/Variables/1.0/">
	<!ENTITY ns_imrep "http://ns.adobe.com/ImageReplacement/1.0/">
	<!ENTITY ns_sfw "http://ns.adobe.com/SaveForWeb/1.0/">
	<!ENTITY ns_custom "http://ns.adobe.com/GenericCustomNamespace/1.0/">
	<!ENTITY ns_adobe_xpath "http://ns.adobe.com/XPath/1.0/">
]>
<svg version="1.1" id="Layer_1" xmlns:x="&ns_extend;" xmlns:i="&ns_ai;" xmlns:graph="&ns_graphs;"
	 xmlns="http://www.w3.org/2000/svg" xmlns:xlink="http://www.w3.org/1999/xlink" x="0px" y="0px" viewBox="0 0 250 250"
	 style="enable-background:new 0 0 250 250;" xml:space="preserve">
<style type="text/css">
	.st0{fill:#3C2517;}
</style>
<metadata>
	<sfw  xmlns="&ns_sfw;">
		<slices></slices>
		<sliceSourceBounds  bottomLeftOrigin="true" height="123.1" width="124.3" x="179.4" y="-241.4"></sliceSourceBounds>
	</sfw>
</metadata>
<g>
	<g>
		<g>
			<path class="st0" d="M145.6,134.9c0.7-2.4,1.4-4.7,3.1-6.6c2-2.4,5.4-3,7.4-5.4c2.8-3.3-0.7-7.5-4.6-6.8
				c-3.4,0.6-5.2,4.1-4.5,7.3c0.1,0.6-0.8,0.9-1,0.3c-0.8-3,0.6-6.3,3.3-7.8c2.7-1.5,6.4-0.9,8,1.8c1.8,3,0.1,5.9-2.5,7.7
				c-1.9,1.3-4.1,2-5.6,3.8c-1.4,1.7-2.3,3.9-3.1,5.9C145.9,135.2,145.5,135.1,145.6,134.9L145.6,134.9z"/>
		</g>
		<g>
			<path class="st0" d="M152.4,118.3c0.6,4.6-4.8,5.8-7.8,7.5c-5,2.9-5.4,9-5,14.1c0,0.6-0.9,0.6-1,0c-0.4-4.4-0.1-9.1,2.8-12.7
				c1.3-1.6,3-2.5,4.9-3.3c2.5-1,5.8-2.4,5.6-5.7C151.8,117.9,152.4,117.9,152.4,118.3L152.4,118.3z"/>
		</g>
		<g>
			<path class="st0" d="M151.4,131.3c0.5,5.9-5.5,8.1-10.2,9c-3.2,0.6-5.3,2.2-6.6,5.2c-1.5,3.2-2.1,6.7-2.4,10.1
				c-0.1,0.6-1,0.6-1,0c0.4-4.8,1.5-11.4,5.5-14.6c2.2-1.7,5-1.6,7.5-2.3c3.5-1,7-3.5,6.8-7.5C150.9,131,151.4,131,151.4,131.3
				L151.4,131.3z"/>
		</g>
		<g>
			<path class="st0" d="M143.1,149.5c-1.1,1.8-2.5,3.2-4.3,4.3c-2.1,1.3-4.2,1.5-6.5,2.3c-2.8,0.9-4.4,4-5.8,6.3
				c-1.4,2.4-2.5,5-3.4,7.7c-0.2,0.6-1.2,0.4-1-0.3c0.8-2.5,1.8-4.9,3.1-7.2c1.2-2.1,2.5-4.5,4.4-6.1c1.7-1.6,4.1-1.5,6.2-2.2
				c2.8-0.9,5.1-2.7,6.9-5C142.8,149,143.2,149.2,143.1,149.5L143.1,149.5z"/>
		</g>
		<g>
			<path class="st0" d="M135.3,160.3c-0.6,5.4-6.3,7.1-10.3,9.5c-5.2,3.1-7,8.4-9.6,13.5c-0.2,0.5-1,0.1-0.9-0.4
				c1.5-4.5,4-9.3,7.7-12.4c4-3.4,11.5-4.3,12.6-10.3C134.9,160,135.4,160,135.3,160.3L135.3,160.3z"/>
		</g>
		<g>
			<path class="st0" d="M115.1,182.8c2,1.7,4.1,3,6.5,4c-0.2,0.1-0.4,0.2-0.7,0.3c1.3-4.7,5.5-7.6,9-10.7c1.9-1.7,3.7-3.5,4.8-5.7
				c1.7-3.4,2-7.3,3.3-10.8c0.2-0.5,1-0.3,0.9,0.2c-0.3,1.7-0.9,3.4-1.4,5.1c-0.5,1.7-0.9,3.4-1.6,5c-0.9,2.2-2.4,4-4.1,5.7
				c-3.7,3.5-8.4,6.3-10.1,11.4c-0.1,0.3-0.4,0.4-0.7,0.3c-2.4-1.1-4.6-2.6-6.4-4.4C114.5,183,114.8,182.6,115.1,182.8L115.1,182.8z
				"/>
		</g>
		<g>
			<path class="st0" d="M145.2,142.8c4.6,6.9-2.3,14.4-7.4,18.5c-0.5,0.4-1.1-0.2-0.7-0.7c4.9-4.4,11.4-10.4,7.7-17.7
				C144.7,142.8,145.1,142.6,145.2,142.8L145.2,142.8z"/>
		</g>
		<g>
			<path class="st0" d="M154.1,125.8c-0.3,2.1,0.8,4,0.8,6.1c0,1.7-0.4,3.4-1.2,4.9c-1.6,3.3-4.7,5.8-7.9,7.6
				c-0.5,0.3-0.9-0.5-0.5-0.8c3.1-2,6.1-4.1,7.8-7.4c0.9-1.8,1.3-3.8,1-5.8c-0.2-1.6-0.8-3-0.4-4.6
				C153.8,125.6,154.1,125.7,154.1,125.8L154.1,125.8z"/>
		</g>
		<g>
			<path class="st0" d="M152.6,126.4c-0.2,1.2-0.2,2.5-0.3,3.7c0,0.3-0.5,0.3-0.5,0c-0.1-1.2,0.1-2.6,0.4-3.8
				C152.3,126,152.6,126.2,152.6,126.4L152.6,126.4z"/>
		</g>
		<g>
			<path class="st0" d="M151,127.3c-0.2,1.2-0.3,2.4-0.3,3.6c0,0.3-0.4,0.3-0.4,0c-0.1-1.2,0.1-2.5,0.4-3.7
				C150.7,127,151.1,127,151,127.3L151,127.3z"/>
		</g>
		<g>
			<path class="st0" d="M149.4,128.6c-0.2,0.1-0.1,1.6-0.1,1.8c0,0.6,0,1.3,0,1.9c0,0.3-0.4,0.3-0.5,0c-0.1-0.9,0-1.9,0.1-2.9
				c0-0.4-0.1-1,0.4-1.1C149.5,128.3,149.6,128.6,149.4,128.6L149.4,128.6z"/>
		</g>
		<g>
			<path class="st0" d="M148.2,130.6c-0.1,0.8-0.1,1.6-0.1,2.4c0,0.3-0.5,0.3-0.5,0c-0.1-0.8,0-1.7,0.2-2.5
				C147.9,130.3,148.2,130.4,148.2,130.6L148.2,130.6z"/>
		</g>
		<g>
			<path class="st0" d="M147.2,132.4c-0.1,0.6,0,1.3,0.1,1.9c0.1,0.3-0.4,0.4-0.4,0.1c-0.1-0.7-0.1-1.3,0-2
				C146.9,132.2,147.2,132.2,147.2,132.4L147.2,132.4z"/>
		</g>
		<g>
			<path class="st0" d="M141.6,146.7c0.3,2-0.1,3.9-1.1,5.6c-0.2,0.3-0.5,0-0.4-0.2c1-1.7,1.4-3.4,1.3-5.3
				C141.4,146.6,141.6,146.5,141.6,146.7L141.6,146.7z"/>
		</g>
		<g>
			<path class="st0" d="M140.1,147.3c-0.1,1.3-0.3,2.5-0.6,3.7c-0.1,0.6-0.2,1.7-0.9,1.8c-0.2,0-0.4-0.3-0.2-0.4
				c0.6-0.3,0.8-2,0.9-2.6c0.2-0.9,0.3-1.8,0.5-2.7C139.8,147.1,140.1,147.1,140.1,147.3L140.1,147.3z"/>
		</g>
		<g>
			<path class="st0" d="M138.1,148.9c-0.1,1.9-0.6,3.8-1.4,5.5c-0.1,0.3-0.6,0-0.4-0.3c0.8-1.7,1.3-3.4,1.5-5.2
				C137.8,148.7,138.1,148.7,138.1,148.9L138.1,148.9z"/>
		</g>
		<g>
			<path class="st0" d="M136.4,150.7c-0.3,1.4-0.8,2.9-1.5,4.1c-0.2,0.3-0.5,0-0.4-0.2c0.6-1.3,1.2-2.6,1.6-4
				C136.1,150.3,136.5,150.5,136.4,150.7L136.4,150.7z"/>
		</g>
		<g>
			<path class="st0" d="M134.4,152.2c-0.1,0.8-0.4,1.6-0.8,2.4c-0.1,0.3-0.5,0-0.4-0.2c0.3-0.7,0.6-1.5,0.8-2.2
				C134.1,151.9,134.5,152,134.4,152.2L134.4,152.2z"/>
		</g>
		<g>
			<path class="st0" d="M132.8,164.9c-0.2,1.5-0.5,3.2-1.3,4.5c-0.1,0.2-0.4,0.1-0.4-0.2c0.6-1.5,1.1-2.8,1.3-4.4
				C132.5,164.6,132.9,164.6,132.8,164.9L132.8,164.9z"/>
		</g>
		<g>
			<path class="st0" d="M130.6,166.7c-0.3,1.2-0.8,2.3-1.4,3.3c-0.1,0.2-0.5,0-0.4-0.2c0.6-1,1.1-2.1,1.5-3.2
				C130.4,166.5,130.6,166.5,130.6,166.7L130.6,166.7z"/>
		</g>
		<g>
			<path class="st0" d="M128.3,167.8c-0.6,1.4-1.3,2.9-2,4.3c-0.1,0.3-0.5,0-0.4-0.2c0.6-1.4,1.4-2.8,2.1-4.2
				C128.2,167.5,128.4,167.6,128.3,167.8L128.3,167.8z"/>
		</g>
		<g>
			<path class="st0" d="M126,169.6c-0.4,1.2-0.8,2.3-1.1,3.5c-0.1,0.3-0.5,0.2-0.4-0.1c0.3-1.2,0.7-2.4,1.3-3.5
				C125.8,169.3,126.1,169.4,126,169.6L126,169.6z"/>
		</g>
		<g>
			<path class="st0" d="M123.9,170.6c-0.4,1.1-0.7,2.3-1.1,3.4c-0.1,0.2-0.4,0.1-0.4-0.1c0.3-1.1,0.8-2.2,1.1-3.4
				C123.6,170.3,123.9,170.3,123.9,170.6L123.9,170.6z"/>
		</g>
		<g>
			<path class="st0" d="M121.7,172.3c-0.3,0.9-0.5,1.8-0.7,2.7c0,0.2-0.4,0.1-0.3-0.1c0.1-0.9,0.4-1.8,0.7-2.7
				C121.4,172,121.7,172.1,121.7,172.3L121.7,172.3z"/>
		</g>
		<g>
			<path class="st0" d="M120.1,174.9c-0.1,0.6-0.1,1.2-0.2,1.8c0,0.1-0.2,0.1-0.2,0c0-0.6,0.1-1.2,0.1-1.7
				C119.8,174.7,120.1,174.7,120.1,174.9L120.1,174.9z"/>
		</g>
		<g>
			<path class="st0" d="M150.2,118c-0.7,0.7-1.2,1.4-1.6,2.3c-0.1,0.2-0.4,0.1-0.3-0.1c0.4-0.9,0.9-1.8,1.7-2.4
				C150.1,117.6,150.3,117.8,150.2,118L150.2,118z"/>
		</g>
		<g>
			<path class="st0" d="M146.1,126.2c-3.7,1.5-4.4,5.5-5.3,9c-0.1,0.3-0.6,0.2-0.5-0.1c0.6-3.6,1.9-7.7,5.7-9.1
				C146.2,125.9,146.3,126.1,146.1,126.2L146.1,126.2z"/>
		</g>
		<g>
			<path class="st0" d="M138.6,142.5c-1.2,0.9-2.1,1.9-2.8,3.2c-0.2,0.3-0.6,0-0.4-0.3c0.7-1.3,1.8-2.5,3-3.3
				C138.7,142,138.8,142.3,138.6,142.5L138.6,142.5z"/>
		</g>
		<g>
			<path class="st0" d="M151.3,137.4c-0.7,1.2-1.7,2.1-2.9,2.8c-0.2,0.1-0.4-0.2-0.2-0.4c1.1-0.7,2-1.6,2.9-2.6
				C151.2,137.1,151.4,137.3,151.3,137.4L151.3,137.4z"/>
		</g>
		<g>
			<path class="st0" d="M146.1,136.9c-1.3,0.1-2.5,0.6-3.5,1.4c-0.2,0.1-0.4-0.1-0.2-0.2c1.1-0.9,2.3-1.3,3.7-1.4
				C146.3,136.7,146.2,136.9,146.1,136.9L146.1,136.9z"/>
		</g>
		<g>
			<path class="st0" d="M134.1,157.2c-4,0.4-6.1,5.6-7.7,8.7c-0.2,0.3-0.6,0-0.5-0.3c1.4-3,4.1-8.8,8.1-8.7
				C134.2,156.9,134.2,157.2,134.1,157.2L134.1,157.2z"/>
		</g>
		<g>
			<path class="st0" d="M144.3,141.5c-0.6,0.2-1.2,0.4-1.8,0.5c-0.2,0-0.3-0.2-0.1-0.3c0.6-0.1,1.2-0.3,1.8-0.5
				C144.4,141.2,144.4,141.4,144.3,141.5L144.3,141.5z"/>
		</g>
		<g>
			<path class="st0" d="M133.4,170.6c-2.5,5.5-9.3,7.3-11.7,12.9c-0.1,0.3-0.6,0.1-0.5-0.2c2.3-5.7,9.3-7.4,12-12.8
				C133.3,170.4,133.5,170.5,133.4,170.6L133.4,170.6z"/>
		</g>
	</g>
	<g>
		<g>
			<path class="st0" d="M164.6,118.6c-0.7-2.4-1.4-4.7-3.1-6.6c-2-2.4-5.4-3-7.4-5.4c-2.8-3.3,0.7-7.5,4.6-6.8
				c3.4,0.6,5.2,4.1,4.5,7.3c-0.1,0.6,0.8,0.9,1,0.3c0.8-3-0.6-6.3-3.3-7.8c-2.7-1.5-6.4-0.9-8,1.8c-1.8,3-0.1,5.9,2.5,7.7
				c1.9,1.3,4.1,2,5.6,3.8c1.4,1.7,2.3,3.9,3.1,5.9C164.3,118.9,164.6,118.9,164.6,118.6L164.6,118.6z"/>
		</g>
		<g>
			<path class="st0" d="M157.7,102c-0.6,4.6,4.8,5.8,7.8,7.5c5,2.9,5.4,9,5,14.1c0,0.6,0.9,0.6,1,0c0.4-4.4,0.1-9.1-2.8-12.7
				c-1.3-1.6-3-2.5-4.9-3.3c-2.5-1-5.8-2.4-5.6-5.7C158.3,101.7,157.8,101.7,157.7,102L157.7,102z"/>
		</g>
		<g>
			<path class="st0" d="M158.7,115c-0.5,5.9,5.5,8.1,10.2,9c3.2,0.6,5.3,2.2,6.6,5.2c1.5,3.2,2.1,6.7,2.4,10.1c0.1,0.6,1,0.6,1,0
				c-0.4-4.8-1.5-11.4-5.5-14.6c-2.2-1.7-5-1.6-7.5-2.3c-3.5-1-7-3.5-6.8-7.5C159.2,114.7,158.8,114.7,158.7,115L158.7,115z"/>
		</g>
		<g>
			<path class="st0" d="M167.1,133.2c1.1,1.8,2.5,3.2,4.3,4.3c2.1,1.3,4.2,1.5,6.5,2.3c2.8,0.9,4.4,4,5.8,6.3c1.4,2.4,2.5,5,3.4,7.7
				c0.2,0.6,1.2,0.4,1-0.3c-0.8-2.5-1.8-4.9-3.1-7.2c-1.2-2.1-2.5-4.5-4.4-6.1c-1.7-1.6-4.1-1.5-6.2-2.2c-2.8-0.9-5.1-2.7-6.9-5
				C167.3,132.7,166.9,133,167.1,133.2L167.1,133.2z"/>
		</g>
		<g>
			<path class="st0" d="M174.8,144.1c0.6,5.4,6.3,7.1,10.3,9.5c5.2,3.1,7,8.4,9.6,13.5c0.2,0.5,1,0.1,0.9-0.4
				c-1.5-4.5-4-9.3-7.7-12.4c-4-3.4-11.5-4.3-12.6-10.3C175.3,143.7,174.8,143.8,174.8,144.1L174.8,144.1z"/>
		</g>
		<g>
			<path class="st0" d="M195.1,166.6c-2,1.7-4.1,3-6.5,4c0.2,0.1,0.4,0.2,0.7,0.3c-1.3-4.7-5.5-7.6-9-10.7c-1.9-1.7-3.7-3.5-4.8-5.7
				c-1.7-3.4-2-7.3-3.3-10.8c-0.2-0.5-1-0.3-0.9,0.2c0.3,1.7,0.9,3.4,1.4,5.1c0.5,1.7,0.9,3.4,1.6,5c0.9,2.2,2.4,4,4.1,5.7
				c3.7,3.5,8.4,6.3,10.1,11.4c0.1,0.3,0.4,0.4,0.7,0.3c2.4-1.1,4.6-2.6,6.4-4.4C195.6,166.7,195.3,166.4,195.1,166.6L195.1,166.6z"
				/>
		</g>
		<g>
			<path class="st0" d="M164.9,126.6c-4.6,6.9,2.3,14.4,7.4,18.5c0.5,0.4,1.1-0.2,0.7-0.7c-4.9-4.4-11.4-10.4-7.7-17.7
				C165.4,126.5,165.1,126.3,164.9,126.6L164.9,126.6z"/>
		</g>
		<g>
			<path class="st0" d="M156,109.6c0.3,2.1-0.8,4-0.8,6.1c0,1.7,0.4,3.4,1.2,4.9c1.6,3.3,4.7,5.8,7.9,7.6c0.5,0.3,0.9-0.5,0.5-0.8
				c-3.1-2-6.1-4.1-7.8-7.4c-0.9-1.8-1.3-3.8-1-5.8c0.2-1.6,0.8-3,0.4-4.6C156.3,109.4,156,109.4,156,109.6L156,109.6z"/>
		</g>
		<g>
			<path class="st0" d="M157.5,110.2c0.2,1.2,0.2,2.5,0.3,3.7c0,0.3,0.5,0.3,0.5,0c0.1-1.2-0.1-2.6-0.4-3.8
				C157.9,109.8,157.5,109.9,157.5,110.2L157.5,110.2z"/>
		</g>
		<g>
			<path class="st0" d="M159.1,111c0.2,1.2,0.3,2.4,0.3,3.6c0,0.3,0.4,0.3,0.4,0c0.1-1.2-0.1-2.5-0.4-3.7
				C159.4,110.7,159.1,110.8,159.1,111L159.1,111z"/>
		</g>
		<g>
			<path class="st0" d="M160.8,112.4c0.2,0.1,0.1,1.6,0.1,1.8c0,0.6,0,1.3,0,1.9c0,0.3,0.4,0.3,0.5,0c0.1-0.9,0-1.9-0.1-2.9
				c0-0.4,0.1-1-0.4-1.1C160.6,112,160.6,112.3,160.8,112.4L160.8,112.4z"/>
		</g>
		<g>
			<path class="st0" d="M162,114.3c0.1,0.8,0.1,1.6,0.1,2.4c0,0.3,0.5,0.3,0.5,0c0.1-0.8,0-1.7-0.2-2.5
				C162.3,114.1,161.9,114.1,162,114.3L162,114.3z"/>
		</g>
		<g>
			<path class="st0" d="M163,116.1c0.1,0.6,0,1.3-0.1,1.9c-0.1,0.3,0.4,0.4,0.4,0.1c0.1-0.7,0.1-1.3,0-2
				C163.3,115.9,163,116,163,116.1L163,116.1z"/>
		</g>
		<g>
			<path class="st0" d="M168.5,130.4c-0.3,2,0.1,3.9,1.1,5.6c0.2,0.3,0.5,0,0.4-0.2c-1-1.7-1.4-3.4-1.3-5.3
				C168.8,130.3,168.6,130.3,168.5,130.4L168.5,130.4z"/>
		</g>
		<g>
			<path class="st0" d="M170,131c0.1,1.3,0.3,2.5,0.6,3.7c0.1,0.6,0.2,1.7,0.9,1.8c0.2,0,0.4-0.3,0.2-0.4c-0.6-0.3-0.8-2-0.9-2.6
				c-0.2-0.9-0.3-1.8-0.5-2.7C170.3,130.8,170,130.9,170,131L170,131z"/>
		</g>
		<g>
			<path class="st0" d="M172,132.7c0.1,1.9,0.6,3.8,1.4,5.5c0.1,0.3,0.6,0,0.4-0.3c-0.8-1.7-1.3-3.4-1.5-5.2
				C172.3,132.4,172,132.4,172,132.7L172,132.7z"/>
		</g>
		<g>
			<path class="st0" d="M173.7,134.4c0.3,1.4,0.8,2.9,1.5,4.1c0.2,0.3,0.5,0,0.4-0.2c-0.6-1.3-1.2-2.6-1.6-4
				C174.1,134.1,173.7,134.2,173.7,134.4L173.7,134.4z"/>
		</g>
		<g>
			<path class="st0" d="M175.7,136c0.1,0.8,0.4,1.6,0.8,2.4c0.1,0.3,0.5,0,0.4-0.2c-0.3-0.7-0.6-1.5-0.8-2.2
				C176,135.6,175.7,135.7,175.7,136L175.7,136z"/>
		</g>
		<g>
			<path class="st0" d="M177.3,148.6c0.2,1.5,0.5,3.2,1.3,4.5c0.1,0.2,0.4,0.1,0.4-0.2c-0.6-1.5-1.1-2.8-1.3-4.4
				C177.6,148.3,177.3,148.4,177.3,148.6L177.3,148.6z"/>
		</g>
		<g>
			<path class="st0" d="M179.6,150.5c0.3,1.2,0.8,2.3,1.4,3.3c0.1,0.2,0.5,0,0.4-0.2c-0.6-1-1.1-2.1-1.5-3.2
				C179.8,150.2,179.5,150.3,179.6,150.5L179.6,150.5z"/>
		</g>
		<g>
			<path class="st0" d="M181.8,151.5c0.6,1.4,1.3,2.9,2,4.3c0.1,0.3,0.5,0,0.4-0.2c-0.6-1.4-1.4-2.8-2.1-4.2
				C182,151.2,181.7,151.4,181.8,151.5L181.8,151.5z"/>
		</g>
		<g>
			<path class="st0" d="M184.1,153.3c0.4,1.2,0.8,2.3,1.1,3.5c0.1,0.3,0.5,0.2,0.4-0.1c-0.3-1.2-0.7-2.4-1.3-3.5
				C184.3,153,184.1,153.1,184.1,153.3L184.1,153.3z"/>
		</g>
		<g>
			<path class="st0" d="M186.3,154.3c0.4,1.1,0.7,2.3,1.1,3.4c0.1,0.2,0.4,0.1,0.4-0.1c-0.3-1.1-0.8-2.2-1.1-3.4
				C186.5,154,186.2,154.1,186.3,154.3L186.3,154.3z"/>
		</g>
		<g>
			<path class="st0" d="M188.5,156c0.3,0.9,0.5,1.8,0.7,2.7c0,0.2,0.4,0.1,0.3-0.1c-0.1-0.9-0.4-1.8-0.7-2.7
				C188.7,155.7,188.4,155.8,188.5,156L188.5,156z"/>
		</g>
		<g>
			<path class="st0" d="M190,158.7c0.1,0.6,0.1,1.2,0.2,1.8c0,0.1,0.2,0.1,0.2,0c0-0.6-0.1-1.2-0.1-1.7
				C190.3,158.5,190,158.5,190,158.7L190,158.7z"/>
		</g>
		<g>
			<path class="st0" d="M160,101.7c0.7,0.7,1.2,1.4,1.6,2.3c0.1,0.2,0.4,0.1,0.3-0.1c-0.4-0.9-0.9-1.8-1.7-2.4
				C160,101.4,159.8,101.6,160,101.7L160,101.7z"/>
		</g>
		<g>
			<path class="st0" d="M164,110c3.7,1.5,4.4,5.5,5.3,9c0.1,0.3,0.6,0.2,0.5-0.1c-0.6-3.6-1.9-7.7-5.7-9.1
				C163.9,109.6,163.9,109.9,164,110L164,110z"/>
		</g>
		<g>
			<path class="st0" d="M171.5,126.2c1.2,0.9,2.1,1.9,2.8,3.2c0.2,0.3,0.6,0,0.4-0.3c-0.7-1.3-1.8-2.5-3-3.3
				C171.5,125.7,171.3,126.1,171.5,126.2L171.5,126.2z"/>
		</g>
		<g>
			<path class="st0" d="M158.8,121.2c0.7,1.2,1.7,2.1,2.9,2.8c0.2,0.1,0.4-0.2,0.2-0.4c-1.1-0.7-2-1.6-2.9-2.6
				C159,120.9,158.8,121,158.8,121.2L158.8,121.2z"/>
		</g>
		<g>
			<path class="st0" d="M164.1,120.7c1.3,0.1,2.5,0.6,3.5,1.4c0.2,0.1,0.4-0.1,0.2-0.2c-1.1-0.9-2.3-1.3-3.7-1.4
				C163.9,120.4,163.9,120.7,164.1,120.7L164.1,120.7z"/>
		</g>
		<g>
			<path class="st0" d="M176.1,140.9c4,0.4,6.1,5.6,7.7,8.7c0.2,0.3,0.6,0,0.5-0.3c-1.4-3-4.1-8.8-8.1-8.7
				C175.9,140.6,175.9,140.9,176.1,140.9L176.1,140.9z"/>
		</g>
		<g>
			<path class="st0" d="M165.9,125.3c0.6,0.2,1.2,0.4,1.8,0.5c0.2,0,0.3-0.2,0.1-0.3c-0.6-0.1-1.2-0.3-1.8-0.5
				C165.8,124.9,165.7,125.2,165.9,125.3L165.9,125.3z"/>
		</g>
		<g>
			<path class="st0" d="M176.7,154.4c2.5,5.5,9.3,7.3,11.7,12.9c0.1,0.3,0.6,0.1,0.5-0.2c-2.3-5.7-9.3-7.4-12-12.8
				C176.9,154.1,176.7,154.2,176.7,154.4L176.7,154.4z"/>
		</g>
	</g>
	<g>
		<g>
			<path class="st0" d="M71.8,106.9c2.5-4.4,7.9-4.1,12.2-5c-0.2-0.2-0.3-0.3-0.5-0.5c-1.8,9.5,6.6,17.7,4.4,27.1
				c-0.1,0.6,0.7,0.9,0.9,0.3c2.6-9.5-6.1-17.8-4.3-27.4c0.1-0.3-0.3-0.6-0.5-0.5c-4.4,0.9-10.4,0.8-12.5,5.7
				C71.3,106.9,71.6,107.1,71.8,106.9L71.8,106.9z"/>
		</g>
		<g>
			<path class="st0" d="M87.6,128.5c4.9,5.6,8.9,12.6,8.2,20.3c0,0.6,0.8,0.7,0.9,0.1c0.6-7.9-3.4-15.2-8.8-20.7
				C87.8,128,87.4,128.3,87.6,128.5L87.6,128.5z"/>
		</g>
		<g>
			<path class="st0" d="M95.4,148.4c1.9,3,4.8,5.5,5.8,9c1,3.3,0.7,7,0,10.3c-0.1,0.6,0.8,0.7,0.9,0.1c0.7-3.4,0.9-7.2-0.1-10.6
				c-1-3.4-3.9-6.5-6.3-9C95.5,148,95.2,148.2,95.4,148.4L95.4,148.4z"/>
		</g>
		<g>
			<path class="st0" d="M101,167.8c1.8,1.4,3.9,3.3,4.2,5.7c0.3,2.4-1.7,5.2-3.5,6.6c-2.3,1.8-5.6-0.3-7-2.3
				c-1.5-2.2-1.6-4.8-1.3-7.4c0.1-0.6-0.8-0.6-0.9-0.1c-0.6,3,0,6.4,2.1,8.8c1.7,1.8,4.9,3.4,7.2,2c2.1-1.3,4.3-4.4,4.3-7
				c0-3-2.5-5.2-4.8-6.7C101.1,167.3,100.8,167.7,101,167.8L101,167.8z"/>
		</g>
		<g>
			<path class="st0" d="M96.9,173.3c-3.1-3.3-6.3-6.7-8-11c-1.7-4.1-1.4-8.7,0.6-12.6c0.3-0.5-0.6-0.9-0.9-0.3
				c-2,3.8-2.3,8.2-0.9,12.3c1.7,4.8,5.4,8.4,9,11.8C96.8,173.6,97,173.5,96.9,173.3L96.9,173.3z"/>
		</g>
		<g>
			<path class="st0" d="M95.6,158.4c-3.3-4.3-7.1-8.3-10.1-12.8c-2.8-4.2-3.4-8.8-2.5-13.7c0.1-0.5-0.8-0.7-0.9-0.2
				c-1.3,4.3-0.4,9.4,1.9,13.3c1.4,2.4,3.3,4.4,5.1,6.5c2.1,2.4,4.1,4.9,6.3,7.3C95.5,158.8,95.8,158.6,95.6,158.4L95.6,158.4z"/>
		</g>
		<g>
			<path class="st0" d="M82.2,132.6c-3.2-3.5-5.7-7.4-7.2-11.9c-0.7-2.2-1.2-4.6-1.4-6.9c-0.2-2.5,0-4.9-0.4-7.4
				c-0.1-0.7-1.1-0.5-1,0.2c0.4,2.6,0.2,5.3,0.4,7.9c0.2,2.3,0.8,4.7,1.6,6.9c1.6,4.4,4.1,8.5,7.6,11.7
				C82.1,133.2,82.4,132.8,82.2,132.6L82.2,132.6z"/>
		</g>
		<g>
			<path class="st0" d="M74.6,105.8c1.7,1.9,3,3.9,4,6.3c0.9,2.2,1.7,4.5,2.6,6.7c1.8,4.2,4.5,8.5,8.1,11.5c0.4,0.3,1-0.3,0.6-0.7
				c-1.7-1.9-3.5-3.6-4.9-5.7c-1.5-2.2-2.7-4.5-3.6-7c-1.6-3.9-2.9-8.7-6.5-11.3C74.7,105.4,74.4,105.7,74.6,105.8L74.6,105.8z"/>
		</g>
		<g>
			<path class="st0" d="M83.9,134.9c0.6,3.4,2,6.5,4.2,9.1c2.4,2.7,5.6,4.5,8.8,6.1c0.5,0.3,0.9-0.6,0.3-0.9c-3-1.6-6.1-3.2-8.5-5.8
				c-2.3-2.4-3.7-5.4-4.4-8.6C84.3,134.5,83.9,134.6,83.9,134.9L83.9,134.9z"/>
		</g>
		<g>
			<path class="st0" d="M91.2,155.1c1.3,2.7,3.1,5,5.1,7.2c1.9,2.1,3.8,4.5,6,6.2c0.4,0.3,0.8-0.2,0.5-0.6c-1.6-2.2-3.8-4-5.6-6
				c-2.1-2.2-4.1-4.4-5.5-7C91.5,154.7,91,154.9,91.2,155.1L91.2,155.1z"/>
		</g>
		<g>
			<path class="st0" d="M76.3,108.4c0.2,1,0.4,2.1,0.6,3.1c0.1,0.3,0.5,0.2,0.4-0.1c-0.2-1-0.5-2-0.7-3.1
				C76.6,108.1,76.3,108.1,76.3,108.4L76.3,108.4z"/>
		</g>
		<g>
			<path class="st0" d="M77.8,110.1c0,1.1-0.1,2.3,0,3.4c0,0.2,0.4,0.2,0.4,0c0.1-1.1,0-2.3-0.1-3.4
				C78.1,109.9,77.8,109.9,77.8,110.1L77.8,110.1z"/>
		</g>
		<g>
			<path class="st0" d="M78.6,112.5c0.1,1.1,0.2,2.3,0.5,3.4c0.1,0.3,0.4,0.2,0.4-0.1c-0.1-1.1-0.4-2.3-0.6-3.4
				C78.9,112.3,78.6,112.3,78.6,112.5L78.6,112.5z"/>
		</g>
		<g>
			<path class="st0" d="M79.8,115.6c0.1,1,0.3,2.1,0.7,3.1c0.1,0.2,0.4,0.1,0.4-0.1c-0.3-1-0.6-2-0.7-3
				C80.1,115.3,79.8,115.4,79.8,115.6L79.8,115.6z"/>
		</g>
		<g>
			<path class="st0" d="M81.1,118.2c-0.1,0.9,0,1.8,0.2,2.6c0.1,0.2,0.4,0.2,0.4-0.1c-0.2-0.8-0.3-1.7-0.3-2.5
				C81.4,118.1,81.1,118.1,81.1,118.2L81.1,118.2z"/>
		</g>
		<g>
			<path class="st0" d="M85.4,136.7c0.1,1.4,0.5,3,1.1,4.3c0.1,0.2,0.5,0.1,0.5-0.1c-0.3-1.4-0.8-2.9-1.3-4.3
				C85.6,136.5,85.3,136.6,85.4,136.7L85.4,136.7z"/>
		</g>
		<g>
			<path class="st0" d="M86.5,138c0.4,1.6,1,3.4,1.8,4.8c0.2,0.3,0.6,0.1,0.5-0.2c-0.6-1.6-1.3-3.1-1.8-4.7
				C86.8,137.6,86.4,137.7,86.5,138L86.5,138z"/>
		</g>
		<g>
			<path class="st0" d="M88.4,139.6c0.3,2,1,4,1.9,5.8c0.1,0.3,0.6,0.1,0.5-0.2c-0.8-1.9-1.4-3.7-2-5.7
				C88.7,139.2,88.4,139.3,88.4,139.6L88.4,139.6z"/>
		</g>
		<g>
			<path class="st0" d="M90.5,142c0.8,1.3,1.2,2.9,1.9,4.3c0.1,0.2,0.5,0.1,0.4-0.2c-0.3-0.8-0.7-1.5-1-2.3c-0.3-0.7-0.6-1.4-1-1.9
				C90.7,141.7,90.5,141.9,90.5,142L90.5,142z"/>
		</g>
		<g>
			<path class="st0" d="M92.6,143.4c0.7,1.3,1.4,2.7,2.2,4c0.2,0.2,0.6,0,0.4-0.3c-0.7-1.3-1.5-2.7-2.3-3.9
				C92.8,143,92.5,143.2,92.6,143.4L92.6,143.4z"/>
		</g>
		<g>
			<path class="st0" d="M93.2,155C93.2,155,93.2,155,93.2,155c-0.1-0.1-0.2,0-0.3,0c0.2,0.6,0.2,1.2,0.4,1.8
				c0.3,1.1,0.8,2.2,1.3,3.3c0.1,0.3,0.6,0.1,0.5-0.1c-0.3-1.2-1-2.2-1.3-3.3c-0.2-0.6-0.3-1.2-0.6-1.7c-0.1-0.2-0.3-0.1-0.3,0.1
				c0,0,0,0.1,0,0.1C92.9,155.3,93.2,155.3,93.2,155L93.2,155z"/>
		</g>
		<g>
			<path class="st0" d="M95.1,156.5c0.7,2,0.7,4,1.9,5.8c0.2,0.2,0.5,0,0.4-0.3c-0.5-1-1-2-1.2-3.2c-0.2-0.9-0.3-1.7-0.7-2.5
				C95.3,156.1,95,156.3,95.1,156.5L95.1,156.5z"/>
		</g>
		<g>
			<path class="st0" d="M97.2,159.2c0.3,1.9,0.9,3.9,1.8,5.7c0.1,0.3,0.6,0.1,0.5-0.2c-0.6-1.9-1.3-3.7-1.9-5.6
				C97.4,158.9,97.2,159,97.2,159.2L97.2,159.2z"/>
		</g>
		<g>
			<path class="st0" d="M99.5,161.7c0.2,1.5,0.7,3,1.2,4.4c0.1,0.3,0.6,0.1,0.5-0.2c-0.5-1.4-0.9-2.8-1.3-4.2
				C99.9,161.4,99.5,161.5,99.5,161.7L99.5,161.7z"/>
		</g>
		<g>
			<path class="st0" d="M81.9,116.1c-0.1,1.7,0.2,3.3,0.6,5c0.1,0.3,0.6,0.1,0.5-0.1c-0.5-1.6-0.7-3.1-0.7-4.8
				C82.4,115.9,82,115.8,81.9,116.1L81.9,116.1z"/>
		</g>
		<g>
			<path class="st0" d="M83.3,118.7c0.2,1.9,0.5,3.9,1.2,5.7c0.1,0.2,0.5,0.1,0.4-0.1c-0.5-1.9-1-3.7-1.2-5.7
				C83.7,118.4,83.3,118.4,83.3,118.7L83.3,118.7z"/>
		</g>
		<g>
			<path class="st0" d="M85.1,121.6c0.3,1.8,0.8,3.7,1.5,5.4c0.1,0.3,0.5,0.1,0.4-0.2c-0.6-1.8-1.2-3.5-1.6-5.3
				C85.4,121.3,85,121.3,85.1,121.6L85.1,121.6z"/>
		</g>
		<g>
			<path class="st0" d="M94.6,173.7c0.5,2.5,2.1,4.9,4.8,5.2c0.3,0,0.4-0.4,0-0.5c-2.6-0.3-3.8-2.5-4.6-4.8
				C94.8,173.5,94.5,173.5,94.6,173.7L94.6,173.7z"/>
		</g>
		<g>
			<path class="st0" d="M102.1,177.7c2-1.5,2.5-5.5,0.2-7c-0.3-0.2-0.7,0.3-0.4,0.5c1.9,1.4,1.5,4.7-0.1,6.3
				C101.8,177.6,101.9,177.8,102.1,177.7L102.1,177.7z"/>
		</g>
		<g>
			<path class="st0" d="M88.7,155.4c-0.8,3.9,2.4,8.7,5.2,11.1c0.2,0.2,0.5-0.1,0.3-0.3c-1.4-1.4-2.7-2.9-3.6-4.7
				c-0.9-1.8-1.9-4-1.5-6.1C89.1,155.2,88.8,155.2,88.7,155.4L88.7,155.4z"/>
		</g>
		<g>
			<path class="st0" d="M85.9,129.4c3.1,2.6,5.5,5.8,7.4,9.4c0.1,0.2,0.5,0.1,0.4-0.2c-1.8-3.7-4.5-6.9-7.6-9.5
				C85.9,129.1,85.8,129.3,85.9,129.4L85.9,129.4z"/>
		</g>
		<g>
			<path class="st0" d="M80.7,126.4c-4.1-3.7-4.3-9.5-5.4-14.5c-0.1-0.3-0.5-0.2-0.5,0.1C75.9,117.2,76.5,122.7,80.7,126.4
				C80.6,126.5,80.7,126.5,80.7,126.4L80.7,126.4z"/>
		</g>
		<g>
			<path class="st0" d="M78.8,104.2c0.6,0.1,1,0,1.6,0.2c1,0.2,0.8,0.4,1.1,1.3c0.2,0.6,0.3,1.1,0.5,1.7c0.5,1.7,0.9,3.5,1.3,5.2
				c0.1,0.2,0.4,0.2,0.4-0.1c-0.5-2.4-1.1-4.7-1.8-7c-0.2-0.6-0.3-1.5-0.9-1.8c-0.6-0.3-1.5,0.3-2.1,0.2
				C78.7,103.9,78.7,104.2,78.8,104.2L78.8,104.2z"/>
		</g>
	</g>
	<g>
		<g>
			<path class="st0" d="M127.8,65.8c4.7-1.8,8.7,1.8,12.6,3.9c0-0.2-0.1-0.5-0.1-0.7c-7.4,6.2-6,17.9-13.7,23.8
				c-0.5,0.4,0,1.1,0.5,0.8c8-5.8,6.5-17.7,13.9-24c0.2-0.2,0.2-0.6-0.1-0.7c-4-2-8.6-6-13.3-3.5C127.4,65.5,127.6,65.9,127.8,65.8
				L127.8,65.8z"/>
		</g>
		<g>
			<path class="st0" d="M126.4,92.6c0.2,7.5-1,15.3-6.4,20.9c-0.4,0.4,0.2,1.1,0.6,0.6c5.4-5.7,7-13.9,6.2-21.6
				C126.9,92.3,126.4,92.3,126.4,92.6L126.4,92.6z"/>
		</g>
		<g>
			<path class="st0" d="M119.9,112.9c-0.4,3.5,0.3,7.3-1.1,10.6c-1.3,3.2-3.8,5.9-6.5,8c-0.5,0.4,0.2,1,0.7,0.7
				c2.7-2.2,5.3-5,6.6-8.3c1.3-3.3,1.1-7.5,0.8-11C120.3,112.6,120,112.7,119.9,112.9L119.9,112.9z"/>
		</g>
		<g>
			<path class="st0" d="M112.1,131.6c0.6,2.2,1,5-0.3,7c-1.3,2.1-4.6,2.9-6.9,2.9c-2.9-0.1-4.2-3.8-4-6.2c0.2-2.7,1.8-4.8,3.6-6.6
				c0.4-0.4-0.2-1-0.6-0.6c-2.3,2-4.1,5-3.9,8.1c0.1,2.5,1.6,5.7,4.4,6.1c2.5,0.4,6.1-0.7,7.7-2.7c1.9-2.4,1.3-5.6,0.5-8.3
				C112.4,131.2,112,131.3,112.1,131.6L112.1,131.6z"/>
		</g>
		<g>
			<path class="st0" d="M105.4,133.2c-0.3-4.5-0.6-9.2,0.7-13.6c1.3-4.3,4.4-7.6,8.5-9.4c0.6-0.2,0.1-1.1-0.5-0.8
				c-3.9,1.7-7,4.9-8.4,9c-1.7,4.7-1.2,9.9-0.5,14.8C105.1,133.4,105.4,133.4,105.4,133.2L105.4,133.2z"/>
		</g>
		<g>
			<path class="st0" d="M113.8,120.9c0.2-5.4-0.3-10.9,0.2-16.4c0.4-5,2.9-9,6.7-12.2c0.4-0.4-0.1-1.1-0.6-0.8
				c-3.8,2.5-6.2,7.1-6.9,11.5c-0.4,2.7-0.2,5.5-0.1,8.2c0.1,3.2,0.1,6.4,0.3,9.6C113.4,121.1,113.8,121.1,113.8,120.9L113.8,120.9z
				"/>
		</g>
		<g>
			<path class="st0" d="M119.7,92.3c-0.2-4.7,0.3-9.3,2-13.8c0.8-2.2,1.9-4.3,3.3-6.3c1.4-2,3.1-3.8,4.4-6c0.3-0.6-0.6-1.1-0.9-0.5
				c-1.3,2.3-3.2,4.2-4.7,6.4c-1.3,2-2.3,4.1-3.1,6.3c-1.6,4.4-2.2,9.2-1.4,13.9C119.2,92.7,119.7,92.6,119.7,92.3L119.7,92.3z"/>
		</g>
		<g>
			<path class="st0" d="M130.7,66.8c0.1,2.6-0.2,4.9-0.9,7.4c-0.7,2.3-1.6,4.5-2.2,6.9c-1.3,4.4-1.9,9.4-1,14
				c0.1,0.5,0.9,0.4,0.9-0.1c-0.2-2.5-0.4-5-0.2-7.5c0.2-2.6,0.8-5.2,1.6-7.7c1.3-4,3.2-8.6,2.1-12.9
				C131,66.5,130.6,66.5,130.7,66.8L130.7,66.8z"/>
		</g>
		<g>
			<path class="st0" d="M119.6,95.2c-1.7,3-2.6,6.3-2.4,9.7c0.1,3.6,1.5,7,2.9,10.3c0.2,0.6,1.1,0.1,0.8-0.5
				c-1.4-3.1-2.7-6.4-2.9-9.8c-0.2-3.3,0.5-6.6,2-9.5C120.1,95.1,119.7,94.9,119.6,95.2L119.6,95.2z"/>
		</g>
		<g>
			<path class="st0" d="M112.4,115.5c-0.7,2.9-0.8,5.8-0.6,8.8c0.1,2.8,0.1,5.8,0.7,8.6c0.1,0.5,0.8,0.3,0.8-0.1
				c0.1-2.7-0.4-5.5-0.6-8.2c-0.2-3-0.4-6,0.2-8.9C112.9,115.3,112.5,115.2,112.4,115.5L112.4,115.5z"/>
		</g>
		<g>
			<path class="st0" d="M130.4,69.8c-0.5,0.9-1,1.8-1.5,2.8c-0.1,0.3,0.3,0.5,0.4,0.2c0.5-0.9,0.9-1.9,1.4-2.8
				C130.8,69.8,130.5,69.6,130.4,69.8L130.4,69.8z"/>
		</g>
		<g>
			<path class="st0" d="M130.5,72.1c-0.7,0.8-1.5,1.7-2.1,2.6c-0.1,0.2,0.2,0.4,0.3,0.2c0.8-0.8,1.4-1.8,2-2.7
				C130.8,72.2,130.6,72,130.5,72.1L130.5,72.1z"/>
		</g>
		<g>
			<path class="st0" d="M129.6,74.5c-0.6,0.9-1.3,1.9-1.7,2.9c-0.1,0.2,0.2,0.4,0.4,0.2c0.6-0.9,1.2-2,1.6-3
				C129.9,74.5,129.7,74.3,129.6,74.5L129.6,74.5z"/>
		</g>
		<g>
			<path class="st0" d="M128.5,77.6c-0.6,0.9-1.1,1.8-1.4,2.8c-0.1,0.2,0.3,0.4,0.4,0.2c0.4-1,0.8-1.9,1.4-2.8
				C128.9,77.6,128.7,77.5,128.5,77.6L128.5,77.6z"/>
		</g>
		<g>
			<path class="st0" d="M127.9,80.5c-0.6,0.6-1.1,1.4-1.5,2.2c-0.1,0.2,0.2,0.4,0.3,0.2c0.4-0.8,0.8-1.5,1.4-2.2
				C128.2,80.6,128,80.4,127.9,80.5L127.9,80.5z"/>
		</g>
		<g>
			<path class="st0" d="M119.5,97.6c-0.8,1.2-1.5,2.7-1.9,4c-0.1,0.3,0.3,0.4,0.4,0.2c0.6-1.3,1.2-2.7,1.7-4.1
				C119.8,97.5,119.6,97.4,119.5,97.6L119.5,97.6z"/>
		</g>
		<g>
			<path class="st0" d="M119.6,99.2c-0.7,1.5-1.4,3.2-1.7,4.9c-0.1,0.3,0.4,0.5,0.5,0.1c0.5-1.6,1-3.2,1.6-4.8
				C120.1,99.1,119.7,98.9,119.6,99.2L119.6,99.2z"/>
		</g>
		<g>
			<path class="st0" d="M120.1,101.7c-1,1.7-1.7,3.7-2.2,5.7c-0.1,0.3,0.4,0.5,0.5,0.1c0.6-2,1.3-3.8,2-5.7
				C120.6,101.6,120.2,101.5,120.1,101.7L120.1,101.7z"/>
		</g>
		<g>
			<path class="st0" d="M120.2,104.9c-0.2,1.5-0.9,3-1.2,4.5c-0.1,0.3,0.3,0.4,0.4,0.1c0.3-0.8,0.5-1.6,0.7-2.4
				c0.2-0.7,0.4-1.4,0.4-2.1C120.5,104.8,120.2,104.8,120.2,104.9L120.2,104.9z"/>
		</g>
		<g>
			<path class="st0" d="M120.9,107.3c-0.3,1.5-0.6,3-0.8,4.5c0,0.3,0.4,0.3,0.5,0.1c0.3-1.5,0.5-3,0.7-4.5
				C121.3,107.1,121,107,120.9,107.3L120.9,107.3z"/>
		</g>
		<g>
			<path class="st0" d="M114,116.7C114,116.7,114.1,116.6,114,116.7c-0.1-0.1-0.1-0.2-0.2-0.2c-0.2,0.6-0.6,1.1-0.8,1.6
				c-0.5,1.1-0.7,2.3-1.1,3.4c-0.1,0.3,0.4,0.5,0.5,0.2c0.5-1.1,0.6-2.3,1.1-3.4c0.2-0.6,0.5-1.1,0.7-1.7c0.1-0.2-0.2-0.3-0.3-0.1
				c0,0,0,0,0,0.1C113.7,116.7,113.9,116.9,114,116.7L114,116.7z"/>
		</g>
		<g>
			<path class="st0" d="M114.6,119c-0.7,2-2,3.6-2.2,5.7c0,0.3,0.4,0.3,0.5,0.1c0.3-1.1,0.5-2.2,1-3.2c0.4-0.8,0.8-1.6,1-2.4
				C115,118.9,114.6,118.8,114.6,119L114.6,119z"/>
		</g>
		<g>
			<path class="st0" d="M114.5,122.4c-0.9,1.7-1.8,3.6-2.3,5.5c-0.1,0.3,0.4,0.4,0.5,0.1c0.7-1.8,1.3-3.7,2-5.6
				C114.9,122.4,114.6,122.3,114.5,122.4L114.5,122.4z"/>
		</g>
		<g>
			<path class="st0" d="M114.7,125.9c-0.8,1.3-1.4,2.7-1.8,4.2c-0.1,0.4,0.4,0.5,0.5,0.2c0.5-1.4,1.1-2.7,1.7-4.1
				C115.2,125.8,114.9,125.6,114.7,125.9L114.7,125.9z"/>
		</g>
		<g>
			<path class="st0" d="M129.9,79.4c-1.1,1.3-2,2.7-2.6,4.3c-0.1,0.3,0.4,0.5,0.5,0.2c0.6-1.5,1.4-2.9,2.5-4.1
				C130.4,79.5,130.1,79.2,129.9,79.4L129.9,79.4z"/>
		</g>
		<g>
			<path class="st0" d="M129.4,82.3c-1.1,1.6-2.1,3.4-2.7,5.2c-0.1,0.2,0.3,0.4,0.4,0.2c0.8-1.8,1.5-3.5,2.6-5.2
				C129.9,82.3,129.5,82.1,129.4,82.3L129.4,82.3z"/>
		</g>
		<g>
			<path class="st0" d="M128.9,85.6c-0.9,1.6-1.7,3.4-2.2,5.2c-0.1,0.3,0.4,0.4,0.5,0.1c0.6-1.7,1.3-3.5,2.1-5.1
				C129.3,85.6,129,85.4,128.9,85.6L128.9,85.6z"/>
		</g>
		<g>
			<path class="st0" d="M103.4,132c-1.2,2.3-1.4,5.1,0.4,7c0.2,0.2,0.6-0.1,0.3-0.3c-1.8-1.9-1.4-4.4-0.6-6.6
				C103.6,132,103.4,131.9,103.4,132L103.4,132z"/>
		</g>
		<g>
			<path class="st0" d="M106.7,139.9c2.5,0.1,5.4-2.7,4.6-5.3c-0.1-0.4-0.7-0.2-0.6,0.2c0.6,2.3-1.8,4.6-4,4.8
				C106.4,139.6,106.4,139.9,106.7,139.9L106.7,139.9z"/>
		</g>
		<g>
			<path class="st0" d="M110.4,114.1c-3,2.5-3.6,8.3-3,11.9c0,0.2,0.5,0.2,0.4-0.1c-0.2-2-0.2-4,0.2-5.9c0.4-1.9,1.1-4.3,2.6-5.7
				C110.8,114.2,110.5,114,110.4,114.1L110.4,114.1z"/>
		</g>
		<g>
			<path class="st0" d="M124.5,92.2c0.8,4,0.6,8-0.2,12c-0.1,0.3,0.4,0.4,0.4,0.1c1-4,0.9-8.1,0-12.2C124.8,92,124.5,92,124.5,92.2
				L124.5,92.2z"/>
		</g>
		<g>
			<path class="st0" d="M122.4,86.6c-0.9-5.4,2.7-10.1,5-14.7c0.1-0.3-0.3-0.5-0.4-0.2C124.5,76.4,121.5,81.1,122.4,86.6
				C122.3,86.7,122.4,86.6,122.4,86.6L122.4,86.6z"/>
		</g>
		<g>
			<path class="st0" d="M135,68.2c0.4,0.5,0.8,0.7,1.2,1.2c0.7,0.8,0.4,0.8,0,1.7c-0.2,0.5-0.5,1.1-0.7,1.6
				c-0.7,1.6-1.5,3.3-2.3,4.9c-0.1,0.2,0.2,0.4,0.3,0.2c1.1-2.1,2.1-4.3,3-6.6c0.2-0.6,0.7-1.3,0.4-2c-0.3-0.6-1.4-0.7-1.8-1.2
				C135.1,67.8,134.9,68,135,68.2L135,68.2z"/>
		</g>
	</g>
</g>
</svg>
