<?xml version="1.0" encoding="utf-8"?>
<!-- Generator: Adobe Illustrator 23.0.1, SVG Export Plug-In . SVG Version: 6.00 Build 0)  -->
<!DOCTYPE svg PUBLIC "-//W3C//DTD SVG 1.1//EN" "http://www.w3.org/Graphics/SVG/1.1/DTD/svg11.dtd" [
	<!ENTITY ns_extend "http://ns.adobe.com/Extensibility/1.0/">
	<!ENTITY ns_ai "http://ns.adobe.com/AdobeIllustrator/10.0/">
	<!ENTITY ns_graphs "http://ns.adobe.com/Graphs/1.0/">
	<!ENTITY ns_vars "http://ns.adobe.com/Variables/1.0/">
	<!ENTITY ns_imrep "http://ns.adobe.com/ImageReplacement/1.0/">
	<!ENTITY ns_sfw "http://ns.adobe.com/SaveForWeb/1.0/">
	<!ENTITY ns_custom "http://ns.adobe.com/GenericCustomNamespace/1.0/">
	<!ENTITY ns_adobe_xpath "http://ns.adobe.com/XPath/1.0/">
]>
<svg version="1.1" id="Layer_1" xmlns:x="&ns_extend;" xmlns:i="&ns_ai;" xmlns:graph="&ns_graphs;"
	 xmlns="http://www.w3.org/2000/svg" xmlns:xlink="http://www.w3.org/1999/xlink" x="0px" y="0px" viewBox="0 0 250 250"
	 style="enable-background:new 0 0 250 250;" xml:space="preserve">
<style type="text/css">
	.st0{fill:#3C2517;}
</style>
<metadata>
	<sfw  xmlns="&ns_sfw;">
		<slices></slices>
		<sliceSourceBounds  bottomLeftOrigin="true" height="138.4" width="165.6" x="152.4" y="-253.3"></sliceSourceBounds>
	</sfw>
</metadata>
<g>
	<g>
		<g>
			<path class="st0" d="M172.5,90.8c0.8-5-2.7-9-3.5-13.7c-0.4-2.7-0.3-5.5,0-8.2c0.1-0.9,0.2-3.9,0.8-4.7c2-2.7,1.6,0.1,2,0.9
				c1.9,3.8,4.3-1.1,6.3-1.1c2.3,0,1.1,2.5,2.9,3.1c1.6,0.5,3.7-1.5,4.9-2.2c-0.4-0.2-0.8-0.3-1.2-0.5c0.5,1.3,0.7,2.6,0.7,4
				c0,0.6,0.7,1,1.2,0.7c1.8-1,3.6-1.8,5.6-2.3c-0.3-0.3-0.7-0.5-1-0.8c0,1.4-0.2,2.6-0.8,3.9c-0.2,0.5,0.3,1.1,0.8,1
				c2.3-0.2,4.5-0.6,6.8-1.1c-0.3-0.3-0.7-0.5-1-0.8c0.2,1.5,0,2.8-0.7,4.2c-0.2,0.5,0,1.2,0.7,1.2c0.8,0,3.2-0.6,3.8,0.1
				c0.3,0.3-0.9,3.8-1,4.3c-0.2,0.7,0.6,1.2,1.2,0.9c0.6,1.1,1.1,2.2,1.7,3.2c-0.5,0.5-0.1,1.4,0.6,1.4c1,0,2,0.1,3,0.1
				c-0.3-0.3-0.5-0.5-0.8-0.8c0.1,1.6-0.1,3-0.7,4.5c-0.2,0.5,0.3,1.1,0.8,1c0.9-0.1,2.1-0.7,2.5,0.1c0.3,0.8-1,1.7-1.5,2.1
				c-1.3,1.1-3,1.8-4.6,2.3c-2.9,0.9-6.1,1.1-9.1,1.2c-3.8,0.2-10.1-0.3-12.6,3.4c-2.7,3.9,1.9,9.8,3.2,13.5
				c2.3,6.4,2.9,13.4-1.3,19.1c0.5-0.1,1-0.1,1.5-0.2c-1.3-1.4-2.3-2.9-3.1-4.6c-0.2-0.4-0.8-0.5-1.2-0.3c-0.7,0.4-1.6,1.1-2.4,1.4
				c-1.4,0.5-0.9,0.4-1.6-0.5c-0.4-0.5-0.4-1-1.1-1.3c-0.8-0.3-1.5,0.1-2.2,0.5c-1.8,1-3.5,2.4-5.2,3.6c0.4,0.2,0.8,0.3,1.1,0.5
				c-0.4-1.4-0.8-2.8-1.2-4.2c-0.1-0.4-0.7-0.8-1.1-0.5c-1.6,1.2-3.2,1.9-5.1,2.4c0.3,0.2,0.6,0.3,0.9,0.5c-0.3-1.9-0.5-3.7-0.8-5.6
				c-0.1-0.5-0.7-0.7-1.1-0.4c-0.8,0.8-1.6,0.7-2.4-0.3c-1.3-0.1-1.8-0.6-1.4-1.6c-0.1-0.2,0-0.6-0.1-0.9c-0.2-0.4-0.5-0.9-1-1
				c-1.2-0.4-2.6,1-2.7-1.2c-0.1-1,0.6-1.6,0.2-2.7c-1.1-2.4-5.2-0.8-5.3-3.9c-0.1-1.6,1.5-3.3-0.1-4.7c-0.6-0.5-1.6-0.2-2-0.6
				c-2.9-2.3,4.1-4.9,5.1-5.3c3.4-1.2,7-1.8,10.5-2.5c5-0.9,12.2-1.7,13.8-7.5c0.3-1-1.3-1.4-1.6-0.4c-1.3,4.7-7.6,5.4-11.7,6.2
				c-4.2,0.8-8.4,1.4-12.4,3.1c-2.2,0.9-6.4,2.5-6.6,5.4c-0.3,3.2,4,1.9,3.9,4.6c-0.1,2-1.1,3.6,1.2,4.8c0.6,0.3,1.3,0.3,1.9,0.5
				c1.1,0,1.7,0.7,1.9,2.1c-0.1,0.3-0.2,0.6-0.3,0.8c0,0.9-0.3,1.9,0.5,2.6c0.7,0.7,1.1,0.4,1.9,0.4c0.6-0.5,1.1-0.3,1.5,0.4
				c0,0.3-0.1,0.5-0.1,0.8c0.2,0.8-0.2,1.1,0.3,1.8c1.3,2.4,4.2,1.2,6,0.1c-0.4-0.1-0.7-0.3-1.1-0.4c0.3,1.9,0.5,3.7,0.8,5.6
				c0.1,0.4,0.6,0.6,0.9,0.5c2.1-0.4,3.8-1.2,5.5-2.5c-0.4-0.2-0.7-0.3-1.1-0.5c0.4,1.4,0.8,2.8,1.1,4.2c0.1,0.5,0.7,0.7,1.1,0.5
				c0.9-0.6,1.8-1.2,2.6-1.8c0.4-0.2,2.2-1.8,2.6-1.8c1.2,0,1,1.3,1.6,1.9c1.7,1.4,4.3-0.9,5.7-1.7c-0.4-0.1-0.8-0.2-1.2-0.3
				c0.8,1.9,1.9,3.5,3.3,5c0.4,0.5,1.1,0.3,1.5-0.2c3.1-4.1,3.9-9.3,3.1-14.4c-0.5-3.1-1.5-6-2.7-8.9c-1.5-3.6-5.3-9.3,0.4-11
				c5.4-1.7,11.5-0.6,17.1-2c3.6-0.9,9.1-3.3,8.5-7.8c0-0.3-0.5-0.6-0.8-0.6c-1.2,0.2-2.4,0.3-3.6,0.5c0.3,0.3,0.5,0.7,0.8,1
				c0.6-1.7,0.9-3.2,0.7-5c0-0.5-0.3-0.8-0.8-0.8c-1,0-2-0.1-3-0.1c0.2,0.5,0.4,0.9,0.6,1.4c2.8-2.9,0.3-7.8-3.7-5.8
				c0.4,0.3,0.8,0.6,1.2,0.9c0.3-1.4,1.8-4.3,0.9-5.8c-0.9-1.5-4-0.7-5.3-0.6c0.2,0.4,0.5,0.8,0.7,1.2c0.8-1.7,1.1-3.2,0.9-5
				c-0.1-0.5-0.5-0.9-1-0.8c-2.1,0.4-4.2,0.8-6.3,1c0.2,0.4,0.5,0.8,0.7,1.2c0.7-1.5,0.9-2.8,0.9-4.6c0-0.5-0.5-0.9-1-0.8
				c-2.1,0.6-4,1.4-6,2.5c0.4,0.2,0.8,0.5,1.2,0.7c0.1-1.7-0.1-2.9-0.7-4.5c-0.2-0.5-0.7-0.8-1.2-0.5c-1.1,0.6-3,2.3-3.8,1.3
				c-0.3-0.4-0.2-1.2-0.7-1.6c-0.9-1-2.4-1-3.6-0.4c-1.1,0.5-1.4,1.3-2.7,1.4c-1.7,0.1-0.8-0.5-1.5-1.7c-0.6-1.1-1.8-1.5-2.9-1
				c-1.6,0.7-1.8,2.7-2.1,4.3c-0.4,2.7-0.8,5.4-0.7,8.1c0.1,2.7,0.6,5.3,1.6,7.8c1.3,3,3.1,5.8,3,9.3
				C171.7,91.2,172.5,91.3,172.5,90.8L172.5,90.8z"/>
		</g>
		<g>
			<path class="st0" d="M188.3,74.7c-5.2,3.7-2.3,10.9-6.4,15.2c-0.3,0.4,0.2,0.9,0.5,0.5c1.7-1.6,2.3-3.9,2.6-6.2
				c0.4-3.5,0.6-6.8,3.5-9.2C188.7,74.9,188.5,74.6,188.3,74.7L188.3,74.7z"/>
		</g>
		<g>
			<path class="st0" d="M189.2,82.5c-3,4.5-7.3,7.2-11,10.9c-4.1,4.1-5.4,9.3-5.4,14.9c0,0.5,0.7,0.5,0.7,0c0.4-3.2,0.4-6.4,1.7-9.4
				c1.1-2.4,2.8-4.4,4.8-6.1c3.3-3.1,7.7-5.8,9.5-10.2C189.6,82.5,189.3,82.3,189.2,82.5L189.2,82.5z"/>
		</g>
		<g>
			<path class="st0" d="M163.9,103.1c5.4-0.9,10.1-4.8,12.3-9.8c1.3-3,1.3-6.1,2-9.3c0.8-3.5,2.9-6.4,5.8-8.4c0.5-0.3,0-1-0.4-0.7
				c-2.3,1.5-4.2,3.6-5.3,6.1c-1.4,3-1.2,6.4-2,9.5c-1.5,6.1-6.6,10.6-12.6,12.2C163.6,102.8,163.7,103.1,163.9,103.1L163.9,103.1z"
				/>
		</g>
		<g>
			<path class="st0" d="M169.7,100.5c-2.2,0.5-4,3.3-4.9,5.2c-1.2,2.3-1.6,4.9-1.4,7.5c0,0.3,0.3,0.5,0.6,0.3c3-1.6,6.3-3.5,7.4-6.9
				c0.1-0.5-0.5-0.6-0.7-0.2c-1.2,3.2-4.2,4.9-7.1,6.4c0.2,0.1,0.4,0.2,0.6,0.3c-0.2-2.4,0.2-4.7,1.1-7c0.9-2,2.5-4.6,4.5-5.5
				C170,100.7,169.9,100.4,169.7,100.5L169.7,100.5z"/>
		</g>
		<g>
			<path class="st0" d="M165.3,106.3c-0.1,1.3-0.2,2.7,0.1,4c0,0.2,0.4,0.2,0.4-0.1c0-1.3-0.1-2.6-0.1-3.9
				C165.8,106,165.3,106,165.3,106.3L165.3,106.3z"/>
		</g>
		<g>
			<path class="st0" d="M166.8,102.9c0,2.3,0.1,4.6,0.2,6.9c0,0.3,0.5,0.3,0.5,0c-0.1-2.3-0.2-4.6-0.3-6.9
				C167.2,102.6,166.8,102.6,166.8,102.9L166.8,102.9z"/>
		</g>
		<g>
			<path class="st0" d="M168.1,102.2c-0.2,2.1-0.2,4.2,0.1,6.2c0,0.2,0.5,0.2,0.4-0.1c-0.2-2.1-0.3-4.1-0.3-6.2
				C168.4,102,168.1,102,168.1,102.2L168.1,102.2z"/>
		</g>
		<g>
			<path class="st0" d="M170.3,100.3c-0.2,1.8-0.1,3.8,0.2,5.6c0,0.3,0.5,0.2,0.5-0.1c-0.2-1.8-0.3-3.7-0.3-5.5
				C170.7,100.1,170.3,100.1,170.3,100.3L170.3,100.3z"/>
		</g>
		<g>
			<path class="st0" d="M171.7,98.5c0.1,1.6,0.2,3.3,0.5,4.9c0,0.3,0.4,0.2,0.4-0.1c0-1.6-0.3-3.2-0.5-4.8
				C172.1,98.3,171.7,98.2,171.7,98.5L171.7,98.5z"/>
		</g>
		<g>
			<path class="st0" d="M173.5,97.3c0.1,1.1,0.3,2.2,0.5,3.3c0.1,0.3,0.4,0.1,0.4-0.1c-0.2-1.1-0.4-2.2-0.6-3.2
				C173.7,97.1,173.4,97.2,173.5,97.3L173.5,97.3z"/>
		</g>
		<g>
			<path class="st0" d="M175.7,93.9c0,0.7,0,1.4,0,2.1c0,0.2,0.4,0.2,0.4,0c0-0.7,0-1.4,0-2.1C176,93.7,175.7,93.7,175.7,93.9
				L175.7,93.9z"/>
		</g>
		<g>
			<path class="st0" d="M177.5,89.6c-0.1,1.3,0.1,2.7,0.4,4c0.1,0.3,0.6,0.2,0.5-0.1c-0.3-1.3-0.5-2.5-0.5-3.8
				C177.8,89.3,177.5,89.3,177.5,89.6L177.5,89.6z"/>
		</g>
		<g>
			<path class="st0" d="M178.6,83.9c0,0-0.1,0-0.1-0.1c-0.1,0-0.1,0-0.2,0c-0.6,0.7-0.1,2.3,0,3.1c0.2,1.6,0.3,3.3,0.6,4.9
				c0,0.2,0.5,0.2,0.4-0.1c-0.1-1.3-0.3-2.7-0.5-4c-0.1-0.4-0.3-3.6-0.4-3.6C178.7,84.3,178.8,84,178.6,83.9L178.6,83.9z"/>
		</g>
		<g>
			<path class="st0" d="M178.3,80.7c0.4,3.1,1,6.3,2,9.2c0.1,0.3,0.5,0.2,0.5-0.1c-0.8-3-1.5-6.1-2.2-9.1
				C178.6,80.4,178.3,80.5,178.3,80.7L178.3,80.7z"/>
		</g>
		<g>
			<path class="st0" d="M179.7,79.3c0.8,3.1,1.4,6.2,1.6,9.4c0,0.3,0.5,0.3,0.5,0c-0.3-3.2-0.8-6.4-1.9-9.4
				C179.8,79.1,179.6,79.1,179.7,79.3L179.7,79.3z"/>
		</g>
		<g>
			<path class="st0" d="M181.5,78.3c0.2,2.9,0.7,5.9,1.2,8.8c0.1,0.3,0.6,0.2,0.5-0.1c-0.5-2.9-0.9-5.8-1.4-8.7
				C181.7,78.1,181.5,78.2,181.5,78.3L181.5,78.3z"/>
		</g>
		<g>
			<path class="st0" d="M183.1,75.6c0.1,2.9,0.3,5.9,0.8,8.8c0,0.3,0.5,0.2,0.5-0.1c-0.5-2.9-0.8-5.7-0.9-8.6
				C183.4,75.4,183.1,75.4,183.1,75.6L183.1,75.6z"/>
		</g>
		<g>
			<path class="st0" d="M188.1,93.2c0.1-0.1,0.2-0.2,0.3-0.3c-0.1,0-0.1-0.1-0.2-0.1c-0.5,1.1-1,2.2-1.4,3.3
				c-0.1,0.2,0.3,0.3,0.3,0.1c0.5-1.1,0.9-2.2,1.3-3.3c0-0.1-0.1-0.2-0.2-0.1C188.1,92.9,188.1,93,188.1,93.2
				C187.9,93.2,188,93.3,188.1,93.2L188.1,93.2z"/>
		</g>
		<g>
			<path class="st0" d="M191.1,92.4c-0.6,0.9-1.2,1.7-1.7,2.6c-0.1,0.2,0.2,0.4,0.3,0.2c0.6-0.9,1.1-1.7,1.7-2.6
				C191.4,92.4,191.2,92.2,191.1,92.4L191.1,92.4z"/>
		</g>
		<g>
			<path class="st0" d="M193.2,91.8c-0.7,1.1-1.3,2.2-1.9,3.4c-0.1,0.3,0.2,0.5,0.4,0.2c0.6-1.2,1.2-2.3,1.8-3.4
				C193.6,91.7,193.3,91.5,193.2,91.8L193.2,91.8z"/>
		</g>
		<g>
			<path class="st0" d="M195,91.8c-0.6,0.8-1.1,1.7-1.3,2.6c0,0.2,0.3,0.4,0.4,0.2c0.4-0.9,0.7-1.8,1.3-2.6
				C195.5,91.7,195.1,91.5,195,91.8L195,91.8z"/>
		</g>
		<g>
			<path class="st0" d="M196.5,91.9c-0.5,0.9-1,1.8-1.3,2.8c-0.1,0.2,0.3,0.4,0.4,0.2c0.4-0.9,0.8-1.9,1.3-2.8
				C197,91.8,196.6,91.6,196.5,91.9L196.5,91.9z"/>
		</g>
		<g>
			<path class="st0" d="M199.2,91.1c-0.7,1-1.2,2-1.7,3.1c-0.1,0.3,0.3,0.4,0.4,0.1c0.4-1.1,1-2.1,1.6-3
				C199.7,91.1,199.3,90.9,199.2,91.1L199.2,91.1z"/>
		</g>
		<g>
			<path class="st0" d="M201.2,91.2c-0.5,1-1,2.1-1.5,3.1c-0.1,0.3,0.3,0.4,0.4,0.2c0.5-1,1-2.1,1.4-3.1
				C201.7,91.1,201.3,90.9,201.2,91.2L201.2,91.2z"/>
		</g>
		<g>
			<path class="st0" d="M203.4,90.8c-0.4,1.1-0.9,2-1.5,3c-0.1,0.2,0.2,0.5,0.4,0.3c0.7-0.9,1.2-2,1.5-3.2
				C203.9,90.6,203.5,90.5,203.4,90.8L203.4,90.8z"/>
		</g>
		<g>
			<path class="st0" d="M205.2,90.4c-0.1,0.7-0.3,1.3-0.7,1.8c-0.2,0.3,0.2,0.5,0.4,0.2c0.4-0.6,0.7-1.3,0.8-2
				C205.7,90.2,205.3,90.2,205.2,90.4L205.2,90.4z"/>
		</g>
		<g>
			<path class="st0" d="M179.9,104.5c-0.1,1.9-0.4,3.7-0.7,5.5c0,0.3,0.4,0.4,0.4,0.1c0.4-1.9,0.6-3.7,0.6-5.6
				C180.2,104.3,179.9,104.3,179.9,104.5L179.9,104.5z"/>
		</g>
		<g>
			<path class="st0" d="M181.6,107.1c-0.2,1.6-0.4,3.1-0.9,4.6c-0.1,0.3,0.3,0.4,0.4,0.1c0.5-1.5,0.8-3.2,0.7-4.7
				C181.8,106.9,181.6,106.9,181.6,107.1L181.6,107.1z"/>
		</g>
		<g>
			<path class="st0" d="M183.3,109.2c0.3,0.4-0.8,2.5-1,3c-0.4,1.1-0.8,2.1-1.2,3.2c-0.1,0.3,0.4,0.4,0.5,0.1
				c0.5-1.4,1.1-2.9,1.6-4.4c0.2-0.5,0.9-1.6,0.4-2.1C183.4,108.9,183.2,109.1,183.3,109.2L183.3,109.2z"/>
		</g>
		<g>
			<path class="st0" d="M184,112.4c-0.6,1.7-1.4,3.3-2.1,5c-0.1,0.2,0.3,0.3,0.4,0.2c1-1.5,1.7-3.4,2.1-5.1
				C184.5,112.2,184.1,112.1,184,112.4L184,112.4z"/>
		</g>
		<g>
			<path class="st0" d="M184.2,115.9c0,0.9-0.7,2-1,2.9c-0.3,0.7-0.6,1.3-0.8,2c-0.1,0.2,0.3,0.4,0.4,0.2c0.4-0.9,0.8-1.8,1.2-2.7
				c0.3-0.8,0.8-1.5,0.7-2.4C184.5,115.6,184.2,115.7,184.2,115.9L184.2,115.9z"/>
		</g>
		<g>
			<path class="st0" d="M184.6,119.3c-0.4,0.1-1,2.1-1.2,2.5c-0.3,0.8-0.7,1.5-1,2.3c-0.1,0.3,0.3,0.5,0.5,0.2
				c0.5-1,0.9-2.1,1.3-3.2c0.2-0.5,1-1.6,0.6-2.1c0-0.1-0.1-0.1-0.2-0.1c0,0,0,0-0.1,0C184.4,118.9,184.4,119.3,184.6,119.3
				L184.6,119.3z"/>
		</g>
		<g>
			<path class="st0" d="M184.3,123c0.1,0.8-0.4,1.5-0.8,2.2c-0.3,0.6-0.7,1.3-1,2c-0.1,0.3,0.3,0.5,0.4,0.3c0.5-0.9,0.9-1.8,1.4-2.7
				c0.3-0.6,0.5-1.1,0.3-1.8C184.7,122.8,184.3,122.8,184.3,123L184.3,123z"/>
		</g>
		<g>
			<path class="st0" d="M177.6,74.7c0.1,1.6,0.3,3.2,1,4.7c0.1,0.2,0.5,0.1,0.4-0.2c-0.5-1.5-0.9-2.9-1-4.5
				C178,74.5,177.6,74.5,177.6,74.7L177.6,74.7z"/>
		</g>
		<g>
			<path class="st0" d="M178.6,71.9c0.9,1.9,0.3,4,0.8,5.9c0.1,0.2,0.4,0.1,0.4-0.1c-0.5-2,0-4.1-0.9-5.9
				C178.8,71.6,178.6,71.7,178.6,71.9L178.6,71.9z"/>
		</g>
		<g>
			<path class="st0" d="M179.9,69.2c0.3,2.3,0.6,4.7,1,7c0,0.3,0.5,0.2,0.4-0.1c-0.3-2.3-0.7-4.6-1.1-7
				C180.1,68.9,179.8,69,179.9,69.2L179.9,69.2z"/>
		</g>
		<g>
			<path class="st0" d="M181.9,68.3c0,2.1,0,4.3,0.3,6.4c0,0.3,0.5,0.3,0.4,0c-0.2-2.1-0.3-4.2-0.4-6.4
				C182.3,68,181.9,68,181.9,68.3L181.9,68.3z"/>
		</g>
		<g>
			<path class="st0" d="M183.6,69.3c-0.1,1.6,0.1,3.2,0.5,4.8c0.1,0.3,0.5,0.2,0.4-0.1c-0.4-1.5-0.6-3.1-0.5-4.7
				C184,69,183.7,69,183.6,69.3L183.6,69.3z"/>
		</g>
		<g>
			<path class="st0" d="M186.5,69.2c-0.6,1.6-0.8,3.3-0.6,5c0,0.3,0.5,0.2,0.5-0.1c-0.1-1.7,0-3.2,0.5-4.8
				C186.9,69.1,186.5,69,186.5,69.2L186.5,69.2z"/>
		</g>
		<g>
			<path class="st0" d="M188.2,70.8c0.2-0.1,0.3-0.2,0.5-0.3c-0.1,0-0.1-0.1-0.2-0.1c-0.1,1.2-0.3,2.4-0.4,3.6
				c0,0.3,0.4,0.4,0.4,0.1c0.2-1.2,0.3-2.4,0.3-3.7c0-0.1-0.1-0.2-0.2-0.1c-0.2,0.1-0.3,0.2-0.5,0.3C188,70.7,188.1,70.9,188.2,70.8
				L188.2,70.8z"/>
		</g>
		<g>
			<path class="st0" d="M190.3,71c0.2,0.5,0.3,1.1,0.2,1.7c0,0.2,0.3,0.2,0.3,0c0.1-0.7,0-1.3-0.2-1.9
				C190.5,70.6,190.2,70.7,190.3,71L190.3,71z"/>
		</g>
		<g>
			<path class="st0" d="M160.1,105.6c0.2,1.3,0.5,2.6,0.7,3.9c0.1,0.5,0.1,1.8,0.7,2c0.1,0,0.2,0,0.2,0c0,0,0,0,0.1-0.1
				c0.2-0.2-0.1-0.4-0.3-0.3c0.2-0.2-0.5-2.6-0.6-2.9c-0.2-0.9-0.4-1.9-0.5-2.8C160.4,105.2,160,105.3,160.1,105.6L160.1,105.6z"/>
		</g>
		<g>
			<path class="st0" d="M161.9,104.9c0.2,1.6,0.4,3.3,0.8,4.9c0,0.2,0.4,0.2,0.4-0.1c-0.2-1.6-0.6-3.3-0.9-4.9
				C162.1,104.6,161.8,104.7,161.9,104.9L161.9,104.9z"/>
		</g>
		<g>
			<path class="st0" d="M163.9,103.4c0.1,1,0.2,2.1,0.3,3.1c0,0.2,0.3,0.2,0.3,0c-0.1-1-0.2-2.1-0.4-3.1
				C164.1,103.3,163.9,103.3,163.9,103.4L163.9,103.4z"/>
		</g>
		<g>
			<path class="st0" d="M164.3,103.6c0.3,1,0.6,1.9,1,2.9c0.1,0.2,0.5,0.1,0.4-0.1c-0.3-1-0.6-1.9-1-2.9
				C164.6,103.2,164.2,103.3,164.3,103.6L164.3,103.6z"/>
		</g>
		<g>
			<path class="st0" d="M158,120.3c0.9,0.2,0,0,0.9,0c1.5,0,2.2-0.3,2.7,1.3c0.3,0.8,0.3,1.8,0.8,2.5c1.2,1.5,3.5,0.9,5,2.1
				c0.2,0.1,0.4-0.1,0.2-0.2c-0.7-0.6-1.5-0.8-2.4-1c-0.6-0.1-1.3-0.2-1.9-0.6c-0.9-0.6-1.1-1.5-1.3-2.4c-0.2-0.7-0.5-1.6-1.2-2
				c-1-0.6-1.9,0.3-2.9,0.2C157.9,120,157.8,120.2,158,120.3L158,120.3z"/>
		</g>
		<g>
			<path class="st0" d="M171.4,123.9c0.8-1.8,3.5-0.4,5.1-0.9c0.2-0.1,0.1-0.4-0.1-0.3c-1.5,0.5-4.3-0.9-5.2,1.1
				C171,123.9,171.3,124,171.4,123.9L171.4,123.9z"/>
		</g>
		<g>
			<path class="st0" d="M177.1,102.4c-0.8,1.6-1.3,3.4-1.1,5.3c0,0.2,0.3,0.2,0.3,0c-0.1-1.8,0.2-3.5,1-5.1
				C177.4,102.4,177.2,102.2,177.1,102.4L177.1,102.4z"/>
		</g>
		<g>
			<path class="st0" d="M189.8,89c1.3-1.7,2.6-3.5,3.9-5.2c0.1-0.2-0.2-0.4-0.3-0.2c-1.3,1.7-2.5,3.5-3.7,5.3
				C189.5,89,189.7,89.1,189.8,89L189.8,89z"/>
		</g>
		<g>
			<path class="st0" d="M157.8,102.7c1.8-0.3,3.5-0.8,5.1-1.5c0.2-0.1,0.1-0.4-0.1-0.3c-1.6,0.7-3.3,1.2-5,1.6
				C157.6,102.5,157.7,102.7,157.8,102.7L157.8,102.7z"/>
		</g>
		<g>
			<path class="st0" d="M150.7,102.5c4.5-1.3,9-2.5,13.5-3.4c0.3-0.1,0.2-0.5-0.1-0.4c-4.6,0.9-9.1,2.1-13.5,3.7
				C150.5,102.3,150.5,102.5,150.7,102.5L150.7,102.5z"/>
		</g>
		<g>
			<path class="st0" d="M170.9,68.5c-0.3,4,0.6,7.9,2.5,11.4c0.1,0.2,0.5,0,0.4-0.2c-1.9-3.5-2.7-7.3-2.5-11.2
				C171.2,68.3,170.9,68.3,170.9,68.5L170.9,68.5z"/>
		</g>
	</g>
	<g>
		<g>
			<path class="st0" d="M79.3,89.6c3.7-3.4,3.4-8.7,5.7-13c1.3-2.4,3.1-4.5,5.1-6.4c0.6-0.6,2.5-3,3.5-3.3c3.3-0.9,1.2,1.1,1,1.9
				c-0.9,4.2,4,1.8,5.7,3c1.8,1.4-0.7,2.7,0.4,4.2c1,1.3,3.9,1.1,5.2,1.3c-0.2-0.4-0.4-0.8-0.7-1.1c-0.4,1.4-1,2.5-2,3.6
				c-0.4,0.5-0.1,1.2,0.5,1.3c2,0.3,3.9,0.8,5.8,1.6c-0.1-0.4-0.2-0.8-0.3-1.2c-0.8,1.1-1.8,1.9-3,2.6c-0.4,0.2-0.4,1,0,1.3
				c1.9,1.2,3.9,2.3,6,3.3c-0.1-0.4-0.2-0.8-0.3-1.2c-0.8,1.3-1.7,2.2-3.1,2.9c-0.5,0.3-0.7,1-0.2,1.4c0.7,0.5,2.9,1.5,3,2.4
				c0,0.4-3,2.4-3.4,2.8c-0.6,0.5-0.3,1.3,0.4,1.5c-0.2,1.2-0.4,2.4-0.6,3.6c-0.7,0.1-0.9,1-0.4,1.4c0.8,0.6,1.5,1.3,2.3,1.9
				c0-0.4-0.1-0.8-0.1-1.1c-0.9,1.4-1.9,2.3-3.3,3.2c-0.4,0.2-0.5,1,0,1.3c0.8,0.5,2.1,0.8,1.9,1.6c-0.2,0.8-1.8,0.7-2.4,0.7
				c-1.7,0-3.4-0.4-5-1c-2.9-1.1-5.4-2.9-8-4.6c-3.1-2.1-7.8-6.5-12-5.1c-4.5,1.4-4.6,8.9-5.8,12.6c-2.1,6.4-6,12.4-12.8,14.3
				c0.4,0.2,0.8,0.5,1.3,0.7c-0.2-1.9,0-3.7,0.4-5.5c0.1-0.5-0.3-0.9-0.8-1c-0.8-0.1-1.9-0.2-2.7-0.4c-1.4-0.4-0.9-0.2-0.9-1.4
				c0-0.7,0.3-1.1,0-1.7c-0.4-0.7-1.3-0.9-2-1c-2-0.4-4.3-0.3-6.3-0.4c0.2,0.4,0.4,0.7,0.6,1.1c0.6-1.3,1.1-2.7,1.7-4
				c0.2-0.4-0.1-1-0.6-1c-2,0-3.7-0.4-5.5-1.3c0.1,0.3,0.3,0.6,0.4,1c0.9-1.6,1.9-3.3,2.8-4.9c0.2-0.4-0.2-1-0.6-1
				c-1.1,0.2-1.7-0.4-1.7-1.7c-1-0.9-1-1.6-0.1-2.1c0.1-0.3,0.4-0.5,0.5-0.8c0.1-0.4,0.1-1-0.1-1.4c-0.6-1.1-2.7-0.8-1.4-2.6
				c0.6-0.8,1.5-0.9,1.8-2c0.6-2.5-3.6-3.8-1.8-6.3c0.9-1.3,3.2-1.7,2.8-3.7c-0.2-0.7-1.1-1.1-1.2-1.7c-0.9-3.6,6.3-1.3,7.3-1
				c3.4,1.1,6.6,2.9,9.8,4.5c4.5,2.3,10.7,6.2,15.5,2.6c0.8-0.6-0.1-1.9-1-1.3c-4,2.9-9.3-0.5-13-2.4c-3.8-2-7.5-4.1-11.7-5.2
				c-2.3-0.7-6.6-2-8.5,0.1c-2.2,2.4,2,3.9,0.2,6c-1.3,1.5-3.1,2.2-2,4.5c0.3,0.6,0.8,1,1.2,1.5c0.8,0.7,0.9,1.6,0.2,2.8
				c-0.2,0.2-0.5,0.3-0.7,0.5c-0.5,0.7-1.4,1.3-1.2,2.3c0.1,1,0.6,0.9,1.2,1.5c0.8,0,1.1,0.4,0.9,1.3c-0.2,0.2-0.4,0.4-0.6,0.5
				c-0.3,0.8-0.8,0.7-0.9,1.6c-0.4,2.7,2.6,3.5,4.6,3.8c-0.2-0.3-0.4-0.7-0.6-1c-0.9,1.6-1.9,3.3-2.8,4.9c-0.2,0.4,0.1,0.8,0.4,1
				c1.9,0.9,3.7,1.4,5.9,1.4c-0.2-0.3-0.4-0.7-0.6-1c-0.6,1.3-1.1,2.7-1.7,4c-0.2,0.4,0.1,1,0.6,1.1c1.1,0.1,2.1,0.1,3.2,0.2
				c0.4,0,2.9,0,3.2,0.2c0.9,0.8-0.1,1.6,0.1,2.5c0.4,2.1,3.9,1.9,5.5,2.2c-0.3-0.3-0.5-0.7-0.8-1c-0.5,2-0.6,3.9-0.5,6
				c0.1,0.7,0.7,0.9,1.3,0.7c5-1.3,8.8-5,11.3-9.4c1.5-2.7,2.5-5.7,3.3-8.7c1-3.8,1.6-10.6,7.1-8.5c5.3,2,9.4,6.6,14.7,8.9
				c3.4,1.5,9.2,3,11.5-0.9c0.2-0.3,0-0.8-0.3-1c-1-0.6-2.1-1.2-3.1-1.8c0,0.4,0,0.9,0,1.3c1.5-0.9,2.6-2,3.6-3.5
				c0.2-0.4,0.2-0.8-0.1-1.1c-0.8-0.6-1.5-1.3-2.3-1.9c-0.1,0.5-0.3,1-0.4,1.4c4-0.6,5.1-5.9,0.7-6.8c0.1,0.5,0.2,1,0.4,1.5
				c1.1-0.9,4.1-2.3,4.3-4c0.2-1.7-2.7-3-3.8-3.7c-0.1,0.5-0.1,0.9-0.2,1.4c1.7-0.8,2.8-1.8,3.8-3.4c0.3-0.5,0.2-1-0.3-1.2
				c-1.9-0.9-3.8-2-5.6-3.1c-0.1,0.5-0.1,0.9-0.2,1.4c1.5-0.8,2.5-1.7,3.5-3c0.3-0.4,0.2-1-0.3-1.2c-2-0.9-4-1.4-6.2-1.7
				c0.2,0.4,0.4,0.9,0.5,1.3c1.1-1.2,1.7-2.4,2.2-4c0.2-0.5-0.1-1.1-0.7-1.1c-1.3-0.2-3.7,0-3.8-1.3c0-0.6,0.5-1.1,0.5-1.7
				c-0.1-1.4-1.3-2.3-2.6-2.6c-1.2-0.3-1.9,0.1-3-0.6c-1.4-1-0.3-0.9-0.1-2.3c0.2-1.2-0.5-2.3-1.7-2.6c-1.7-0.4-3.1,1-4.3,2.1
				c-2,1.8-4,3.8-5.6,5.9c-1.6,2.2-2.8,4.5-3.5,7.1c-0.9,3.2-1.1,6.5-3.3,9.1C78.4,89.3,78.9,89.9,79.3,89.6L79.3,89.6z"/>
		</g>
		<g>
			<path class="st0" d="M101.6,86.6c-6.4-0.3-8.5,7.2-14.4,8c-0.5,0.1-0.4,0.8,0.1,0.8c2.4-0.2,4.3-1.7,5.9-3.3
				c2.5-2.5,4.6-5,8.4-5.1C101.8,87,101.8,86.6,101.6,86.6L101.6,86.6z"/>
		</g>
		<g>
			<path class="st0" d="M97.5,93.3c-5.1,1.7-10.2,1.2-15.4,1.8c-5.7,0.7-10,4-13.4,8.4c-0.3,0.4,0.3,0.8,0.6,0.5
				c2.2-2.3,4.2-4.8,7.1-6.4c2.3-1.2,4.9-1.7,7.5-1.9c4.5-0.4,9.6,0.2,13.8-2.1C97.8,93.5,97.7,93.2,97.5,93.3L97.5,93.3z"/>
		</g>
		<g>
			<path class="st0" d="M64.9,93.9c4.8,2.6,10.9,2.4,15.8-0.1c2.9-1.5,4.8-4,7.3-6.1c2.8-2.3,6.2-3.3,9.8-3c0.5,0,0.7-0.8,0.1-0.9
				c-2.7-0.3-5.5,0.3-7.9,1.5c-3,1.6-4.9,4.3-7.5,6.3c-5,3.9-11.7,4.3-17.4,1.9C64.8,93.5,64.7,93.8,64.9,93.9L64.9,93.9z"/>
		</g>
		<g>
			<path class="st0" d="M71.1,95.4c-2-0.9-5.2,0.1-7.1,1c-2.3,1.1-4.3,2.9-5.7,5.1c-0.2,0.2-0.1,0.6,0.3,0.6
				c3.4,0.6,7.1,1.2,10.1-0.8c0.4-0.3,0-0.8-0.4-0.6c-2.9,1.8-6.3,1.3-9.5,0.7c0.1,0.2,0.2,0.4,0.3,0.6c1.3-2,3-3.6,5.2-4.8
				c1.9-1,4.8-2.1,6.9-1.5C71.2,95.7,71.2,95.5,71.1,95.4L71.1,95.4z"/>
		</g>
		<g>
			<path class="st0" d="M64,97.3c-0.9,1-1.8,2-2.4,3.2c-0.1,0.2,0.2,0.4,0.4,0.2c0.8-1,1.5-2.1,2.3-3.1C64.6,97.3,64.2,97.1,64,97.3
				L64,97.3z"/>
		</g>
		<g>
			<path class="st0" d="M67.3,95.5c-1.4,1.8-2.8,3.7-4.1,5.5c-0.2,0.3,0.2,0.6,0.4,0.3c1.4-1.8,2.7-3.7,4-5.6
				C67.8,95.5,67.5,95.3,67.3,95.5L67.3,95.5z"/>
		</g>
		<g>
			<path class="st0" d="M68.8,95.8c-1.4,1.5-2.7,3.2-3.7,5c-0.1,0.2,0.2,0.4,0.4,0.2c1.1-1.7,2.3-3.4,3.6-5
				C69.2,95.8,68.9,95.6,68.8,95.8L68.8,95.8z"/>
		</g>
		<g>
			<path class="st0" d="M71.6,95.7c-1.3,1.3-2.4,2.9-3.3,4.5c-0.1,0.2,0.3,0.5,0.4,0.2c1-1.6,2-3,3.1-4.5
				C72.1,95.7,71.8,95.5,71.6,95.7L71.6,95.7z"/>
		</g>
		<g>
			<path class="st0" d="M73.8,95.1c-0.9,1.3-1.9,2.7-2.6,4.1c-0.1,0.2,0.2,0.4,0.4,0.2c1-1.3,1.7-2.7,2.6-4.1
				C74.3,95.1,74,94.9,73.8,95.1L73.8,95.1z"/>
		</g>
		<g>
			<path class="st0" d="M76,95.3c-0.6,0.9-1.1,1.9-1.6,2.9c-0.1,0.2,0.3,0.4,0.4,0.2c0.5-0.9,1-1.9,1.5-2.9
				C76.3,95.3,76.1,95.1,76,95.3L76,95.3z"/>
		</g>
		<g>
			<path class="st0" d="M79.8,93.9c-0.4,0.5-0.9,1.1-1.3,1.6c-0.2,0.2,0.2,0.4,0.3,0.2c0.4-0.5,0.8-1.1,1.2-1.6
				C80.2,94,79.9,93.8,79.8,93.9L79.8,93.9z"/>
		</g>
		<g>
			<path class="st0" d="M83.9,91.6c-0.9,1-1.6,2.2-2.1,3.4c-0.1,0.3,0.3,0.5,0.5,0.2c0.5-1.2,1.2-2.3,2-3.3
				C84.4,91.6,84.1,91.4,83.9,91.6L83.9,91.6z"/>
		</g>
		<g>
			<path class="st0" d="M88.3,87.9c0,0,0-0.1-0.1-0.1c0,0-0.1-0.1-0.2-0.1c-0.9,0.1-1.5,1.8-1.9,2.5c-0.9,1.4-1.8,2.8-2.6,4.2
				c-0.1,0.2,0.2,0.4,0.4,0.2c0.8-1.1,1.4-2.3,2.1-3.4c0.2-0.3,2-3,2-3.1C88.2,88.2,88.4,88.1,88.3,87.9L88.3,87.9z"/>
		</g>
		<g>
			<path class="st0" d="M90.1,85.1c-1.6,2.7-3.1,5.6-4.1,8.5c-0.1,0.3,0.3,0.5,0.4,0.2c1.3-2.9,2.5-5.7,3.9-8.5
				C90.4,85.1,90.2,85,90.1,85.1L90.1,85.1z"/>
		</g>
		<g>
			<path class="st0" d="M92,84.9c-1.3,2.9-2.7,5.7-4.5,8.4c-0.2,0.3,0.2,0.6,0.4,0.3c1.8-2.7,3.3-5.6,4.3-8.6
				C92.3,84.8,92,84.7,92,84.9L92,84.9z"/>
		</g>
		<g>
			<path class="st0" d="M94,85.2c-1.6,2.5-3.1,5.1-4.5,7.7c-0.2,0.3,0.3,0.5,0.5,0.2c1.4-2.6,2.9-5.2,4.2-7.8
				C94.3,85.2,94.1,85.1,94,85.2L94,85.2z"/>
		</g>
		<g>
			<path class="st0" d="M96.9,84.1c-1.8,2.4-3.4,4.8-4.8,7.4c-0.2,0.3,0.3,0.5,0.4,0.2c1.4-2.5,2.9-5,4.6-7.4
				C97.3,84.1,97,83.9,96.9,84.1L96.9,84.1z"/>
		</g>
		<g>
			<path class="st0" d="M90,101c0.1,0,0.3-0.1,0.4-0.1c0-0.1,0-0.1,0-0.2c-1.1,0.5-2.1,1.1-3.2,1.7c-0.2,0.1,0,0.4,0.2,0.3
				c1-0.6,2.1-1.2,3.1-1.8c0.1-0.1,0-0.2-0.1-0.2C90.3,100.8,90.1,100.9,90,101C89.9,100.9,89.9,101,90,101L90,101z"/>
		</g>
		<g>
			<path class="st0" d="M92.9,102.2c-1,0.3-2,0.6-2.9,1c-0.2,0.1-0.1,0.4,0.1,0.3c1-0.3,1.9-0.7,2.9-1
				C93.2,102.5,93.1,102.2,92.9,102.2L92.9,102.2z"/>
		</g>
		<g>
			<path class="st0" d="M94.9,103c-1.2,0.4-2.4,0.9-3.6,1.5c-0.2,0.1-0.1,0.5,0.2,0.4c1.2-0.5,2.3-1.1,3.6-1.6
				C95.3,103.3,95.2,102.9,94.9,103L94.9,103z"/>
		</g>
		<g>
			<path class="st0" d="M96.3,104.1c-0.9,0.3-1.9,0.6-2.7,1.3c-0.2,0.2,0,0.5,0.2,0.4c0.9-0.4,1.7-0.9,2.6-1.2
				C96.8,104.5,96.6,104.1,96.3,104.1L96.3,104.1z"/>
		</g>
		<g>
			<path class="st0" d="M97.5,105.1c-0.9,0.4-1.9,0.8-2.8,1.4c-0.2,0.1,0,0.5,0.2,0.4c0.9-0.5,1.8-1,2.7-1.4
				C97.9,105.4,97.7,105,97.5,105.1L97.5,105.1z"/>
		</g>
		<g>
			<path class="st0" d="M100.1,106.2c-1.1,0.3-2.2,0.8-3.2,1.4c-0.3,0.2,0,0.5,0.3,0.4c1-0.6,2-1,3.1-1.4
				C100.5,106.5,100.3,106.1,100.1,106.2L100.1,106.2z"/>
		</g>
		<g>
			<path class="st0" d="M101.6,107.5c-1,0.5-2.1,1-3.1,1.6c-0.2,0.1,0,0.5,0.2,0.4c1-0.5,2-1,3-1.6
				C102,107.8,101.8,107.4,101.6,107.5L101.6,107.5z"/>
		</g>
		<g>
			<path class="st0" d="M103.6,108.6c-1,0.6-2,1-3,1.4c-0.2,0.1-0.1,0.5,0.1,0.4c1.1-0.3,2.2-0.8,3.1-1.5
				C104,108.7,103.8,108.4,103.6,108.6L103.6,108.6z"/>
		</g>
		<g>
			<path class="st0" d="M105.2,109.4c-0.5,0.5-1,0.8-1.7,1c-0.3,0.1-0.1,0.5,0.2,0.5c0.7-0.2,1.4-0.6,1.8-1.1
				C105.7,109.5,105.4,109.2,105.2,109.4L105.2,109.4z"/>
		</g>
		<g>
			<path class="st0" d="M76.6,104.9c-1.2,1.4-2.5,2.7-3.9,3.9c-0.2,0.2,0,0.6,0.3,0.4c1.4-1.2,2.8-2.6,4-4.1
				C77,104.9,76.7,104.7,76.6,104.9L76.6,104.9z"/>
		</g>
		<g>
			<path class="st0" d="M76.3,108c-1.1,1.1-2.2,2.2-3.5,3.1c-0.2,0.2,0,0.5,0.3,0.3c1.3-0.9,2.6-2,3.5-3.3
				C76.7,108,76.4,107.8,76.3,108L76.3,108z"/>
		</g>
		<g>
			<path class="st0" d="M76.4,110.7c0,0.5-2.2,1.4-2.6,1.7c-1,0.6-2,1.2-2.9,1.8c-0.3,0.2,0,0.6,0.3,0.4c1.3-0.8,2.6-1.6,3.9-2.5
				c0.5-0.3,1.7-0.7,1.6-1.4C76.7,110.5,76.4,110.5,76.4,110.7L76.4,110.7z"/>
		</g>
		<g>
			<path class="st0" d="M75,113.6c-1.6,1-3.2,1.8-4.8,2.7c-0.2,0.1,0,0.4,0.2,0.4c1.7-0.6,3.4-1.6,4.8-2.7
				C75.4,113.8,75.2,113.5,75,113.6L75,113.6z"/>
		</g>
		<g>
			<path class="st0" d="M73,116.5c-0.6,0.7-1.8,1.2-2.6,1.6c-0.6,0.4-1.3,0.7-1.9,1.1c-0.2,0.1,0,0.5,0.2,0.4c0.9-0.4,1.7-1,2.6-1.4
				c0.7-0.4,1.5-0.7,2-1.5C73.4,116.5,73.1,116.3,73,116.5L73,116.5z"/>
		</g>
		<g>
			<path class="st0" d="M71.2,119.4c-0.4-0.2-2.1,1-2.5,1.2c-0.7,0.4-1.5,0.8-2.2,1.2c-0.2,0.1,0,0.6,0.2,0.4c1-0.5,2-1.1,3-1.7
				c0.5-0.3,1.8-0.7,1.8-1.3c0-0.1,0-0.2-0.1-0.2c0,0,0,0-0.1,0C71.2,119,71,119.3,71.2,119.4L71.2,119.4z"/>
		</g>
		<g>
			<path class="st0" d="M68.7,122.2c-0.4,0.7-1.2,0.9-2,1.3c-0.7,0.3-1.3,0.6-2,0.9c-0.3,0.1-0.1,0.6,0.2,0.5
				c0.9-0.4,1.8-0.8,2.8-1.3c0.6-0.3,1.1-0.6,1.3-1.2C69.1,122.2,68.8,122,68.7,122.2L68.7,122.2z"/>
		</g>
		<g>
			<path class="st0" d="M93.1,80c-0.9,1.3-1.7,2.7-2.1,4.3c-0.1,0.2,0.4,0.4,0.4,0.1c0.5-1.5,1.1-2.9,2-4.2
				C93.6,80.1,93.3,79.8,93.1,80L93.1,80z"/>
		</g>
		<g>
			<path class="st0" d="M95.7,78.4c-0.4,2-2.2,3.3-3,5.1c-0.1,0.2,0.3,0.4,0.4,0.2c0.8-1.8,2.5-3.2,2.9-5.2
				C96,78.3,95.8,78.3,95.7,78.4L95.7,78.4z"/>
		</g>
		<g>
			<path class="st0" d="M98.3,77.1c-1.2,2-2.4,4.1-3.5,6.1c-0.1,0.2,0.3,0.4,0.4,0.2c1.2-2,2.3-4.1,3.4-6.2
				C98.7,77,98.4,76.9,98.3,77.1L98.3,77.1z"/>
		</g>
		<g>
			<path class="st0" d="M100.6,77.6c-1.3,1.7-2.6,3.4-3.7,5.2c-0.1,0.2,0.2,0.5,0.4,0.3c1.2-1.8,2.3-3.6,3.6-5.3
				C101,77.6,100.7,77.4,100.6,77.6L100.6,77.6z"/>
		</g>
		<g>
			<path class="st0" d="M101.3,79.4c-1.1,1.2-2,2.6-2.6,4.1c-0.1,0.3,0.3,0.4,0.4,0.2c0.6-1.5,1.5-2.8,2.5-4
				C101.7,79.5,101.4,79.3,101.3,79.4L101.3,79.4z"/>
		</g>
		<g>
			<path class="st0" d="M103.5,81.1c-1.5,0.9-2.7,2.1-3.5,3.6c-0.1,0.2,0.2,0.4,0.4,0.2c0.9-1.4,2-2.5,3.4-3.5
				C103.9,81.3,103.7,81,103.5,81.1L103.5,81.1z"/>
		</g>
		<g>
			<path class="st0" d="M103.9,83.5c0.2,0,0.4,0.1,0.5,0.1c0-0.1-0.1-0.1-0.1-0.2c-0.9,0.9-1.7,1.7-2.6,2.6
				c-0.2,0.2,0.1,0.5,0.3,0.3c0.9-0.9,1.7-1.8,2.5-2.7c0.1-0.1,0-0.2-0.1-0.2c-0.2,0-0.4,0-0.5-0.1
				C103.8,83.3,103.8,83.5,103.9,83.5L103.9,83.5z"/>
		</g>
		<g>
			<path class="st0" d="M105.5,84.9c-0.2,0.6-0.5,1.1-0.9,1.5c-0.1,0.1,0.1,0.4,0.2,0.2c0.5-0.4,0.8-1,1-1.7
				C105.9,84.7,105.6,84.7,105.5,84.9L105.5,84.9z"/>
		</g>
		<g>
			<path class="st0" d="M60.4,93.5c-0.6,1.2-1.3,2.4-1.9,3.6c-0.2,0.5-1,1.5-0.7,2c0,0.1,0.1,0.1,0.2,0.1c0,0,0.1,0,0.1,0
				c0.3,0,0.2-0.4,0-0.4c0.3,0,1.2-2.4,1.3-2.6c0.4-0.9,0.9-1.7,1.3-2.6C60.8,93.4,60.5,93.3,60.4,93.5L60.4,93.5z"/>
		</g>
		<g>
			<path class="st0" d="M62.2,94c-0.8,1.4-1.7,2.9-2.4,4.4c-0.1,0.2,0.2,0.4,0.3,0.2c0.9-1.4,1.6-3,2.3-4.4
				C62.6,94,62.3,93.9,62.2,94L62.2,94z"/>
		</g>
		<g>
			<path class="st0" d="M64.7,94.2c-0.5,0.9-1.1,1.8-1.7,2.6c-0.1,0.2,0.1,0.4,0.3,0.2c0.6-0.9,1.1-1.8,1.6-2.7
				C65,94.2,64.8,94.1,64.7,94.2L64.7,94.2z"/>
		</g>
		<g>
			<path class="st0" d="M64.9,94.5c-0.3,1-0.7,1.9-1,2.9c-0.1,0.3,0.3,0.4,0.4,0.2c0.4-1,0.7-1.9,1-2.9C65.4,94.4,65,94.3,64.9,94.5
				L64.9,94.5z"/>
		</g>
		<g>
			<path class="st0" d="M49.6,103.8c0.6,0.7,0,0,0.7,0.6c1.2,0.9,1.9,1.2,1.4,2.7c-0.3,0.8-0.9,1.5-0.9,2.5c0,1.9,2.2,2.9,2.6,4.7
				c0,0.2,0.4,0.2,0.3,0c-0.2-0.9-0.7-1.6-1.3-2.3c-0.4-0.5-0.9-1-1.1-1.6c-0.3-1,0.1-1.8,0.5-2.7c0.3-0.7,0.6-1.5,0.3-2.3
				c-0.4-1.1-1.7-0.9-2.4-1.6C49.7,103.5,49.5,103.7,49.6,103.8L49.6,103.8z"/>
		</g>
		<g>
			<path class="st0" d="M57.9,114.9c1.8-0.9,3,1.9,4.5,2.4c0.2,0.1,0.3-0.2,0.1-0.3c-1.5-0.5-2.8-3.4-4.8-2.4
				C57.7,114.7,57.8,114.9,57.9,114.9L57.9,114.9z"/>
		</g>
		<g>
			<path class="st0" d="M75.7,101.5c-1.7,0.8-3.1,1.9-4.1,3.5c-0.1,0.2,0.1,0.3,0.2,0.2c1.1-1.5,2.3-2.6,4-3.4
				C76,101.6,75.9,101.4,75.7,101.5L75.7,101.5z"/>
		</g>
		<g>
			<path class="st0" d="M93.9,98.8c2.1-0.5,4.2-1.1,6.3-1.7c0.2-0.1,0.1-0.4-0.1-0.3c-2.1,0.6-4.2,1.2-6.2,1.9
				C93.7,98.6,93.8,98.8,93.9,98.8L93.9,98.8z"/>
		</g>
		<g>
			<path class="st0" d="M60.3,89.8c1.6,0.8,3.2,1.5,5,1.9c0.2,0.1,0.3-0.3,0.1-0.3c-1.7-0.4-3.4-1.1-5-1.8
				C60.3,89.6,60.2,89.8,60.3,89.8L60.3,89.8z"/>
		</g>
		<g>
			<path class="st0" d="M54.8,85.3c4.3,1.7,8.6,3.6,12.8,5.6c0.3,0.1,0.4-0.3,0.2-0.4c-4.1-2.1-8.4-3.9-12.8-5.4
				C54.8,85,54.7,85.2,54.8,85.3L54.8,85.3z"/>
		</g>
		<g>
			<path class="st0" d="M91.7,71c-2.7,3-4.4,6.6-5.1,10.5c0,0.3,0.4,0.3,0.4,0.1c0.7-3.9,2.3-7.4,4.9-10.4
				C92.1,71,91.8,70.8,91.7,71L91.7,71z"/>
		</g>
	</g>
	<g>
		<g>
			<path class="st0" d="M137.3,164.8c4,2.9,9,1.6,13.5,3c2.8,0.8,5.3,2.3,7.7,3.9c0.9,0.6,2.6,1.4,3.2,2.3c0.9,0.4,1,1.2,0.2,2.2
				c-0.2-0.1-0.5-0.2-0.7-0.2c-0.9,0.2-1.6-0.4-2.4,0.4c-1.3,1.3,0.1,2.9-0.1,4.3c-0.5,3.7-2.6,0.9-4,2.5c-1.1,1.2-0.3,4.1-0.2,5.4
				c0.3-0.3,0.6-0.6,0.9-0.9c-1.4-0.1-2.5-0.4-3.7-1.2c-0.6-0.4-1.4,0-1.3,0.7c0.1,2.1,0,4-0.5,6c0.4-0.2,0.7-0.4,1.1-0.6
				c-1.2-0.5-2.2-1.3-3-2.3c-0.4-0.5-1.2-0.4-1.4,0.2c-0.8,2.1-1.5,4.3-2.1,6.5c0.4-0.2,0.7-0.4,1.1-0.6c-1.5-0.5-2.5-1.3-3.4-2.5
				c-0.4-0.5-1.1-0.4-1.4,0.2c-0.4,0.8-0.9,3.1-1.8,3.3c-0.5,0.1-2.9-2.5-3.4-2.8c-0.6-0.5-1.3,0.1-1.3,0.7c-1.2,0-2.5,0-3.7,0
				c-0.3-0.7-1.2-0.6-1.5,0c-0.5,0.9-1,1.7-1.4,2.6c0.4-0.1,0.7-0.3,1.1-0.4c-1.4-0.6-2.5-1.3-3.6-2.5c-0.4-0.4-1.2-0.5-1.4,0.2
				c-0.4,1.1-0.8,2.3-1.2,3.4c0.4-0.1,0.7-0.3,1.1-0.4c-3.5-1.2-2.5-7.1-1.8-9.7c0.7-2.6,1.8-5.1,2.8-7.6c1.5-3.4,4.6-8.6,2.6-12.4
				c-2.1-4.1-8.8-2.8-12.5-3.2c-6.9-0.7-14.1-3.2-17.4-9.8c-0.2,0.4-0.3,0.8-0.5,1.2c1.8-0.5,3.4-0.7,5.2-0.6c0.6,0,1-0.4,1-1
				c0-0.7-0.3-2.1-0.1-2.8c0.3-1.2,0.7-0.8,1.5-1.1c0.5-0.2,1,0,1.5-0.5c0.6-0.6,0.5-1.3,0.5-2.1c0-2.1-0.6-4.3-0.8-6.3
				c-0.3,0.3-0.6,0.6-0.9,0.9c1.4,0.3,2.9,0.6,4.3,0.9c0.5,0.1,0.9-0.4,0.9-0.8c-0.3-1.9-0.3-3.7,0.2-5.6c-0.3,0.2-0.7,0.4-1,0.6
				c1.8,0.6,3.6,1.2,5.4,1.8c0.5,0.2,1.1-0.2,1-0.8c-0.3-0.9,0.1-1.6,1.3-1.9c0.6-1.3,1.2-1.5,1.9-0.7c0.3,0.1,0.5,0.4,0.9,0.5
				c0.6,0.1,1,0.2,1.5-0.2c1-0.7,0.1-2.6,2.1-2.3c0.8,0.1,1.3,1.5,2.4,1.6c2.4,0.3,2.5-2.6,4.2-3.2c2.3-0.9,3.3,3.1,5.8,2.3
				c1.5-0.5,2.1-3.7,4-0.2c0.7,1.3,0.1,4.4-0.1,5.8c-0.5,3.7-1.6,7.2-2.7,10.8c-1.4,4.8-3.7,11.2,0.6,15.2c0.8,0.7,1.8-0.6,1-1.3
				c-3.8-3.5-1-10.1,0.2-14.2c1.1-3.8,2.3-7.7,2.6-11.7c0.2-2.3,0.6-6.7-1.8-8.1c-0.7-0.4-1.5-0.5-2.3-0.2c-0.7,0.3-0.7,1-1.3,1.4
				c-1.2,0.8-1.9,0.4-2.8-0.4c-1.6-1.4-3.2-1.8-4.8-0.2c-0.4,0.4-0.7,1.2-1.2,1.6c-2.1,1.4-2.3-0.4-3.7-1c-0.6-0.3-1.3-0.4-2-0.1
				c-1,0.5-0.9,2.6-1.8,2.7c-0.7,0-1.7-1.4-2.7-1.3c-2.7,0.1-2.9,3.3-2.8,5.3c0.3-0.3,0.7-0.5,1-0.8c-1.8-0.6-3.6-1.2-5.4-1.8
				c-0.5-0.2-0.9,0.1-1,0.6c-0.6,2.1-0.6,3.9-0.3,6c0.3-0.3,0.6-0.6,0.9-0.8c-1.4-0.3-2.8-0.6-4.3-0.9c-0.5-0.1-0.9,0.4-0.9,0.9
				c0.1,1.1,0.3,2.1,0.4,3.2c0.1,0.5,0.6,2.7,0.4,3.2c-0.6,1.3-1.3,0.1-2.4,0.5c-2,0.7-1.2,4.4-1.1,5.9c0.3-0.3,0.7-0.7,1-1
				c-2.1-0.1-4.1,0.1-6.2,0.7c-0.5,0.1-0.7,0.8-0.5,1.2c2.4,5,7.1,8.2,12.3,9.7c2.8,0.8,5.7,1.2,8.7,1.3c1.6,0.1,3.2,0,4.7,0.2
				c1.8,0.2,2.5,0.2,3.7,1.7c1.1,1.4,1.2,2,0.9,3.6c-1,5.3-4.4,10-5.8,15.3c-0.9,3.6-1.6,10,2.8,11.6c0.4,0.1,0.9,0,1.1-0.4
				c0.4-1.1,0.8-2.3,1.2-3.4c-0.5,0.1-0.9,0.1-1.4,0.2c1.2,1.4,2.5,2.3,4.3,3c0.4,0.2,0.8,0,1.1-0.4c0.5-0.9,1-1.7,1.4-2.6
				c-0.5,0-1,0-1.5,0c1.4,3.9,6.8,3.7,6.8-0.8c-0.4,0.2-0.9,0.5-1.3,0.7c1.1,0.9,3.1,3.6,4.8,3.4c1.7-0.2,2.4-3.3,2.9-4.5
				c-0.5,0.1-0.9,0.1-1.4,0.2c1.1,1.5,2.4,2.4,4.1,3.1c0.5,0.2,1-0.1,1.1-0.6c0.6-2.1,1.2-4.1,2-6.1c-0.5,0.1-0.9,0.1-1.4,0.2
				c1.1,1.3,2.2,2.1,3.7,2.9c0.5,0.2,1-0.2,1.1-0.6c0.5-2.2,0.6-4.2,0.5-6.4c-0.4,0.2-0.9,0.5-1.3,0.7c1.5,0.9,2.8,1.4,4.5,1.5
				c0.6,0,1-0.4,0.9-0.9c0-0.7-0.3-1.8-0.1-2.4c0.9-3.2,0.5-1,1.4-1.3c0.5-0.1,1,0.1,1.5-0.2c1.3-0.7,1.6-2.2,1.5-3.6
				c-0.2-1.7-0.8-2.8,1.4-3c0.5-0.1,1,0.2,1.6,0c1.3-0.4,1.7-1.8,1.3-3c-0.5-1.7-2.6-2.8-3.9-3.7c-2.1-1.5-4.3-2.9-6.6-3.9
				c-2.5-1.1-5-1.6-7.7-1.7c-3-0.1-6,0-8.7-1.5C137.3,163.9,137,164.5,137.3,164.8L137.3,164.8z"/>
		</g>
		<g>
			<path class="st0" d="M144.5,186.1c-0.9-6.3-8.7-7-10.6-12.6c-0.2-0.5-0.8-0.2-0.7,0.3c0.7,2.4,2.7,4,4.7,5.4
				c2.8,1.9,5.5,3.5,6.2,7C144.2,186.4,144.5,186.4,144.5,186.1L144.5,186.1z"/>
		</g>
		<g>
			<path class="st0" d="M137.2,183.4c-2.6-4.6-3.1-9.7-4.7-14.7c-1.8-5.5-5.8-9.1-10.9-11.7c-0.4-0.2-0.7,0.4-0.4,0.6
				c2.8,1.8,5.7,3.3,7.8,6c1.6,2,2.5,4.4,3.1,6.8c1.2,4.4,1.7,9.5,4.7,13.1C137,183.8,137.3,183.6,137.2,183.4L137.2,183.4z"/>
		</g>
		<g>
			<path class="st0" d="M130.3,151.5c-1.6,5.1-0.4,10.9,2.8,15.1c2,2.6,4.8,4.1,7.4,6.2c2.9,2.3,4.7,5.6,5.1,9.3
				c0.1,0.6,0.9,0.4,0.9-0.1c-0.3-2.7-1.3-5.3-3-7.4c-2.1-2.7-5.3-4.1-7.8-6.3c-4.6-4.1-6.3-10.6-5-16.6
				C130.7,151.4,130.4,151.3,130.3,151.5L130.3,151.5z"/>
		</g>
		<g>
			<path class="st0" d="M130,157.9c0.5-2.2-1.1-5.1-2.4-6.7c-1.6-2.1-3.7-3.7-6.1-4.7c-0.3-0.1-0.5,0.1-0.5,0.4
				c0,3.4,0.2,7.1,2.8,9.7c0.3,0.3,0.8-0.2,0.5-0.5c-2.3-2.6-2.5-6-2.5-9.3c-0.2,0.1-0.4,0.3-0.5,0.4c2.2,0.9,4,2.2,5.5,4
				c1.4,1.7,3.1,4.4,3,6.6C129.7,158,130,158.1,130,157.9L130,157.9z"/>
		</g>
		<g>
			<path class="st0" d="M126.9,151.3c-1.1-0.7-2.3-1.4-3.6-1.7c-0.3-0.1-0.4,0.3-0.2,0.4c1.2,0.6,2.4,1,3.5,1.7
				C126.8,151.8,127.1,151.5,126.9,151.3L126.9,151.3z"/>
		</g>
		<g>
			<path class="st0" d="M129.2,154.2c-2.1-1-4.1-2-6.2-2.9c-0.3-0.1-0.5,0.3-0.2,0.5c2.1,1,4.2,1.9,6.3,2.8
				C129.3,154.7,129.4,154.3,129.2,154.2L129.2,154.2z"/>
		</g>
		<g>
			<path class="st0" d="M129.2,155.7c-1.7-1.1-3.7-2.1-5.6-2.7c-0.3-0.1-0.4,0.3-0.2,0.4c1.9,0.8,3.8,1.6,5.6,2.6
				C129.2,156.1,129.4,155.8,129.2,155.7L129.2,155.7z"/>
		</g>
		<g>
			<path class="st0" d="M129.9,158.5c-1.5-1-3.3-1.8-5-2.3c-0.3-0.1-0.5,0.3-0.2,0.5c1.7,0.7,3.4,1.4,5,2.2
				C129.9,158.9,130.1,158.6,129.9,158.5L129.9,158.5z"/>
		</g>
		<g>
			<path class="st0" d="M130.8,160.5c-1.5-0.6-3-1.3-4.5-1.8c-0.3-0.1-0.4,0.3-0.2,0.4c1.4,0.7,3,1.2,4.5,1.7
				C130.9,161,131.1,160.6,130.8,160.5L130.8,160.5z"/>
		</g>
		<g>
			<path class="st0" d="M131.1,162.6c-1-0.4-2.1-0.7-3.1-1c-0.3-0.1-0.4,0.3-0.2,0.4c1,0.4,2.1,0.7,3.1,1
				C131.1,163,131.3,162.7,131.1,162.6L131.1,162.6z"/>
		</g>
		<g>
			<path class="st0" d="M133.1,166.2c-0.6-0.3-1.2-0.6-1.8-1c-0.2-0.1-0.4,0.2-0.1,0.4c0.6,0.3,1.2,0.6,1.8,0.9
				C133.2,166.5,133.3,166.3,133.1,166.2L133.1,166.2z"/>
		</g>
		<g>
			<path class="st0" d="M136.2,169.7c-1.2-0.7-2.4-1.1-3.7-1.4c-0.3-0.1-0.4,0.4-0.1,0.5c1.3,0.3,2.4,0.7,3.6,1.3
				C136.3,170.2,136.4,169.9,136.2,169.7L136.2,169.7z"/>
		</g>
		<g>
			<path class="st0" d="M140.7,173.4c0,0,0.1-0.1,0.1-0.1c0.1-0.1,0.1-0.1,0.1-0.2c-0.3-0.8-1.8-1-2.5-1.3c-1.6-0.6-3.2-1.3-4.9-1.8
				c-0.3-0.1-0.4,0.3-0.2,0.4c1.1,0.5,2.3,0.9,3.5,1.3c0.3,0.1,3.7,1.4,3.7,1.4C140.3,173.3,140.5,173.5,140.7,173.4L140.7,173.4z"
				/>
		</g>
		<g>
			<path class="st0" d="M143.7,174.6c-2.9-1.1-6.1-1.9-9.1-2.4c-0.3,0-0.4,0.4-0.1,0.5c3.1,0.7,6.1,1.4,9.1,2.2
				C143.8,174.9,143.9,174.6,143.7,174.6L143.7,174.6z"/>
		</g>
		<g>
			<path class="st0" d="M144.4,176.4c-3.1-0.7-6.1-1.6-9.1-2.8c-0.3-0.1-0.5,0.3-0.2,0.5c3,1.2,6.1,2.2,9.3,2.6
				C144.5,176.6,144.5,176.4,144.4,176.4L144.4,176.4z"/>
		</g>
		<g>
			<path class="st0" d="M144.4,178.4c-2.7-1.1-5.5-2.1-8.4-2.9c-0.3-0.1-0.5,0.4-0.2,0.5c2.8,0.9,5.6,1.8,8.4,2.7
				C144.4,178.8,144.6,178.5,144.4,178.4L144.4,178.4z"/>
		</g>
		<g>
			<path class="st0" d="M146.1,181.1c-2.6-1.3-5.3-2.4-8.1-3.3c-0.3-0.1-0.5,0.4-0.2,0.4c2.8,0.9,5.5,1.9,8.2,3.1
				C146.2,181.4,146.3,181.2,146.1,181.1L146.1,181.1z"/>
		</g>
		<g>
			<path class="st0" d="M128.1,177.5c0.1,0.1,0.1,0.3,0.2,0.4c0.1,0,0.1-0.1,0.2-0.1c-0.7-1-1.5-1.9-2.2-2.7c-0.2-0.2-0.4,0-0.3,0.2
				c0.8,0.9,1.5,1.8,2.4,2.7c0.1,0.1,0.2-0.1,0.1-0.1C128.4,177.7,128.3,177.6,128.1,177.5C128.2,177.4,128.1,177.5,128.1,177.5
				L128.1,177.5z"/>
		</g>
		<g>
			<path class="st0" d="M127.5,180.6c-0.5-0.9-1-1.8-1.5-2.7c-0.1-0.2-0.4,0-0.3,0.2c0.5,0.9,1.1,1.8,1.6,2.7
				C127.3,180.9,127.6,180.8,127.5,180.6L127.5,180.6z"/>
		</g>
		<g>
			<path class="st0" d="M127.1,182.7c-0.7-1.1-1.4-2.2-2.2-3.2c-0.2-0.2-0.5,0-0.3,0.3c0.8,1,1.5,2.1,2.2,3.2
				C126.9,183.2,127.2,182.9,127.1,182.7L127.1,182.7z"/>
		</g>
		<g>
			<path class="st0" d="M126.3,184.4c-0.5-0.9-1-1.8-1.8-2.4c-0.2-0.2-0.5,0.1-0.3,0.3c0.6,0.8,1.2,1.4,1.7,2.3
				C126,184.8,126.4,184.6,126.3,184.4L126.3,184.4z"/>
		</g>
		<g>
			<path class="st0" d="M125.5,185.6c-0.6-0.8-1.2-1.7-1.9-2.4c-0.2-0.2-0.5,0.1-0.3,0.3c0.6,0.8,1.3,1.5,1.9,2.4
				C125.3,186.1,125.7,185.9,125.5,185.6L125.5,185.6z"/>
		</g>
		<g>
			<path class="st0" d="M125,188.5c-0.5-1-1.2-2-2-2.9c-0.2-0.2-0.6,0-0.4,0.3c0.8,0.9,1.4,1.8,2,2.8
				C124.8,188.8,125.1,188.7,125,188.5L125,188.5z"/>
		</g>
		<g>
			<path class="st0" d="M124,190.1c-0.7-0.9-1.4-1.8-2.1-2.7c-0.2-0.2-0.6,0-0.4,0.3c0.7,0.9,1.4,1.8,2.1,2.6
				C123.8,190.6,124.2,190.4,124,190.1L124,190.1z"/>
		</g>
		<g>
			<path class="st0" d="M123.4,192.4c-0.8-0.9-1.4-1.8-2-2.7c-0.1-0.2-0.5,0-0.4,0.2c0.5,1,1.3,2,2.1,2.8
				C123.3,192.8,123.5,192.5,123.4,192.4L123.4,192.4z"/>
		</g>
		<g>
			<path class="st0" d="M122.8,194.1c-0.5-0.4-1-0.8-1.3-1.4c-0.1-0.3-0.6-0.1-0.5,0.2c0.3,0.7,0.8,1.3,1.5,1.6
				C122.8,194.6,123,194.2,122.8,194.1L122.8,194.1z"/>
		</g>
		<g>
			<path class="st0" d="M121.8,165.1c-1.6-0.9-3.1-2-4.6-3.1c-0.2-0.2-0.5,0.2-0.3,0.4c1.5,1.2,3.1,2.2,4.7,3.1
				C121.8,165.6,122,165.2,121.8,165.1L121.8,165.1z"/>
		</g>
		<g>
			<path class="st0" d="M118.7,165.4c-1.3-0.9-2.6-1.8-3.8-2.9c-0.2-0.2-0.5,0.1-0.3,0.3c1.1,1.1,2.4,2.1,3.9,2.8
				C118.7,165.8,118.9,165.5,118.7,165.4L118.7,165.4z"/>
		</g>
		<g>
			<path class="st0" d="M116.1,166c-0.4,0.1-2-2.1-2.3-2.4c-0.7-0.8-1.4-1.6-2.2-2.3c-0.2-0.2-0.6,0.1-0.4,0.3
				c1.1,1.2,2.2,2.4,3.4,3.6c0.4,0.4,1,1.4,1.6,1.2C116.3,166.3,116.2,166,116.1,166L116.1,166z"/>
		</g>
		<g>
			<path class="st0" d="M112.9,165.3c-1.3-1.3-2.3-2.8-3.5-4.2c-0.2-0.2-0.5,0-0.3,0.2c0.9,1.6,2.2,3,3.6,4.2
				C112.8,165.7,113.1,165.4,112.9,165.3L112.9,165.3z"/>
		</g>
		<g>
			<path class="st0" d="M109.7,163.8c-0.8-0.4-1.4-1.4-1.9-2.1c-0.5-0.6-1-1.2-1.5-1.8c-0.2-0.2-0.5,0-0.3,0.3
				c0.6,0.8,1.3,1.6,2,2.4c0.5,0.6,0.9,1.3,1.7,1.5C109.8,164.2,109.9,163.9,109.7,163.8L109.7,163.8z"/>
		</g>
		<g>
			<path class="st0" d="M106.5,162.6c0.1-0.4-1.3-1.8-1.6-2.1c-0.6-0.7-1.1-1.4-1.7-2c-0.2-0.2-0.6,0-0.4,0.3c0.8,1,1.6,2,2.5,2.9
				c0.3,0.4,0.8,1.3,1.4,1.2c0.1,0,0.2-0.1,0.2-0.2c0,0,0,0,0-0.1C106.9,162.5,106.6,162.4,106.5,162.6L106.5,162.6z"/>
		</g>
		<g>
			<path class="st0" d="M103.2,160.7c-0.8-0.3-1.2-1.1-1.6-1.7c-0.4-0.6-0.8-1.2-1.3-1.8c-0.2-0.3-0.6,0-0.4,0.3
				c0.6,0.8,1.2,1.7,1.8,2.5c0.4,0.5,0.8,0.9,1.4,1.1C103.4,161.1,103.4,160.7,103.2,160.7L103.2,160.7z"/>
		</g>
		<g>
			<path class="st0" d="M149.3,176.6c-1.4-0.7-3-1.2-4.6-1.2c-0.3,0-0.4,0.4-0.1,0.4c1.6,0.2,3,0.5,4.5,1.2
				C149.4,177,149.6,176.7,149.3,176.6L149.3,176.6z"/>
		</g>
		<g>
			<path class="st0" d="M151.4,178.8c-2.1,0-3.7-1.6-5.6-2c-0.3-0.1-0.3,0.3-0.1,0.4c2,0.5,3.6,1.9,5.7,1.9
				C151.6,179.1,151.6,178.8,151.4,178.8L151.4,178.8z"/>
		</g>
		<g>
			<path class="st0" d="M153.3,181.1c-2.2-0.8-4.4-1.6-6.7-2.3c-0.3-0.1-0.4,0.3-0.2,0.4c2.2,0.8,4.5,1.4,6.7,2.1
				C153.3,181.5,153.5,181.2,153.3,181.1L153.3,181.1z"/>
		</g>
		<g>
			<path class="st0" d="M153.1,183.4c-1.9-1-3.8-1.9-5.8-2.6c-0.3-0.1-0.4,0.3-0.2,0.4c2,0.8,3.9,1.6,5.9,2.6
				C153.2,183.9,153.3,183.5,153.1,183.4L153.1,183.4z"/>
		</g>
		<g>
			<path class="st0" d="M151.5,184.5c-1.4-0.8-2.9-1.4-4.6-1.8c-0.3-0.1-0.3,0.4-0.1,0.4c1.6,0.3,3,0.9,4.4,1.7
				C151.5,184.9,151.7,184.6,151.5,184.5L151.5,184.5z"/>
		</g>
		<g>
			<path class="st0" d="M150.3,187c-1.1-1.3-2.5-2.3-4.1-2.8c-0.3-0.1-0.5,0.3-0.2,0.4c1.5,0.6,2.9,1.5,4.1,2.6
				C150.1,187.4,150.4,187.2,150.3,187L150.3,187z"/>
		</g>
		<g>
			<path class="st0" d="M148,187.9c0,0.2,0,0.4,0,0.5c0.1,0,0.1-0.1,0.2-0.1c-1-0.7-2.1-1.4-3.1-2.1c-0.2-0.2-0.5,0.2-0.3,0.3
				c1,0.7,2.1,1.4,3.2,2c0.1,0,0.2,0,0.2-0.1c0-0.2,0-0.4,0-0.5C148.2,187.7,148,187.7,148,187.9L148,187.9z"/>
		</g>
		<g>
			<path class="st0" d="M147,189.7c-0.6,0-1.1-0.2-1.6-0.6c-0.2-0.1-0.4,0.1-0.2,0.3c0.5,0.4,1.1,0.6,1.8,0.7
				C147.1,190,147.2,189.7,147,189.7L147,189.7z"/>
		</g>
		<g>
			<path class="st0" d="M129.9,147c-1.2-0.4-2.4-0.7-3.6-1.1c-0.6-0.2-1.8-0.8-2.4-0.4c-0.1,0.1-0.1,0.1-0.1,0.2c0,0,0,0.1,0,0.1
				c0.1,0.2,0.4,0.1,0.4-0.1c0.1,0.2,2.6,0.7,2.8,0.8c0.9,0.3,1.8,0.5,2.8,0.8C130,147.4,130.1,147.1,129.9,147L129.9,147z"/>
		</g>
		<g>
			<path class="st0" d="M129.7,148.9c-1.6-0.5-3.2-1.1-4.8-1.5c-0.2-0.1-0.3,0.3-0.1,0.4c1.5,0.6,3.2,1,4.8,1.4
				C129.7,149.2,129.9,149,129.7,148.9L129.7,148.9z"/>
		</g>
		<g>
			<path class="st0" d="M130,151.4c-1-0.3-1.9-0.8-2.9-1.1c-0.2-0.1-0.3,0.2-0.1,0.3c0.9,0.4,1.9,0.8,2.9,1
				C130,151.6,130.1,151.4,130,151.4L130,151.4z"/>
		</g>
		<g>
			<path class="st0" d="M129.7,151.7c-1-0.2-2-0.3-3-0.5c-0.3,0-0.3,0.4-0.1,0.4c1,0.2,2,0.3,3,0.4
				C129.9,152.1,129.9,151.7,129.7,151.7L129.7,151.7z"/>
		</g>
		<g>
			<path class="st0" d="M117.7,138.4c-0.3,0.3-0.2,0.3-0.4,0.7c-0.1,0.2-0.1,0.5-0.1,0.7c-0.6,0.4-1.3,0.9-1.9,1.3
				c-0.8,0.2-1.9-0.6-2.8-0.5c-2,0.2-2.6,2.7-4.4,3.5c-0.2,0.1-0.1,0.4,0.1,0.3c0.9-0.4,1.4-1,2-1.7c0.5-0.6,1-1.3,1.8-1.6
				c0.9-0.3,1.8,0,2.6,0.2c0.7,0.2,1.6,0.2,2.2-0.2c0.9-0.6,0.5-1.7,1-2.6C118,138.5,117.8,138.3,117.7,138.4L117.7,138.4z"/>
		</g>
		<g>
			<path class="st0" d="M108.4,148.7c1.3,1.6-1.3,3.4-1.5,4.9c0,0.2,0.3,0.3,0.3,0c0.2-1.6,2.8-3.4,1.4-5.1
				C108.5,148.4,108.3,148.6,108.4,148.7L108.4,148.7z"/>
		</g>
		<g>
			<path class="st0" d="M125,163.6c-1.1-1.5-2.5-2.7-4.2-3.4c-0.2-0.1-0.3,0.2-0.1,0.3c1.7,0.8,3,1.8,4.1,3.3
				C124.9,163.9,125.1,163.7,125,163.6L125,163.6z"/>
		</g>
		<g>
			<path class="st0" d="M131.1,180.9c0.9,2,1.9,3.9,2.9,5.8c0.1,0.2,0.4,0.1,0.3-0.1c-1-1.9-2-3.9-3-5.8
				C131.2,180.8,131,180.8,131.1,180.9L131.1,180.9z"/>
		</g>
		<g>
			<path class="st0" d="M133.4,146.3c-0.5,1.7-0.8,3.5-1,5.3c0,0.2,0.3,0.3,0.3,0c0.1-1.8,0.4-3.5,0.8-5.3
				C133.7,146.2,133.5,146.1,133.4,146.3L133.4,146.3z"/>
		</g>
		<g>
			<path class="st0" d="M136.8,140c-0.9,4.6-1.9,9.1-3.1,13.6c-0.1,0.3,0.3,0.5,0.4,0.2c1.3-4.5,2.3-9.1,2.9-13.7
				C137.1,139.9,136.9,139.9,136.8,140L136.8,140z"/>
		</g>
		<g>
			<path class="st0" d="M158,173.5c-3.5-2.1-7.3-3.1-11.3-3c-0.3,0-0.2,0.4,0,0.4c3.9-0.1,7.7,0.9,11.1,2.8
				C158,173.8,158.1,173.5,158,173.5L158,173.5z"/>
		</g>
	</g>
</g>
</svg>
