<?xml version="1.0" encoding="utf-8"?>
<!-- Generator: Adobe Illustrator 23.0.1, SVG Export Plug-In . SVG Version: 6.00 Build 0)  -->
<!DOCTYPE svg PUBLIC "-//W3C//DTD SVG 1.1//EN" "http://www.w3.org/Graphics/SVG/1.1/DTD/svg11.dtd" [
	<!ENTITY ns_extend "http://ns.adobe.com/Extensibility/1.0/">
	<!ENTITY ns_ai "http://ns.adobe.com/AdobeIllustrator/10.0/">
	<!ENTITY ns_graphs "http://ns.adobe.com/Graphs/1.0/">
	<!ENTITY ns_vars "http://ns.adobe.com/Variables/1.0/">
	<!ENTITY ns_imrep "http://ns.adobe.com/ImageReplacement/1.0/">
	<!ENTITY ns_sfw "http://ns.adobe.com/SaveForWeb/1.0/">
	<!ENTITY ns_custom "http://ns.adobe.com/GenericCustomNamespace/1.0/">
	<!ENTITY ns_adobe_xpath "http://ns.adobe.com/XPath/1.0/">
]>
<svg version="1.1" id="Layer_1" xmlns:x="&ns_extend;" xmlns:i="&ns_ai;" xmlns:graph="&ns_graphs;"
	 xmlns="http://www.w3.org/2000/svg" xmlns:xlink="http://www.w3.org/1999/xlink" x="0px" y="0px" viewBox="0 0 250 250"
	 style="enable-background:new 0 0 250 250;" xml:space="preserve">
<style type="text/css">
	.st0{fill:#3C2517;}
</style>
<metadata>
	<sfw  xmlns="&ns_sfw;">
		<slices></slices>
		<sliceSourceBounds  bottomLeftOrigin="true" height="106.4" width="122.2" x="172.1" y="-222"></sliceSourceBounds>
	</sfw>
</metadata>
<g>
	<g>
		<g>
			<path class="st0" d="M171.3,64.8c-2.3,12.9-3.5,26.1-5.7,39c-0.9,5.1-3.1,11-2.5,16.2c0.3,2.3,1.4,4.3,2.6,6.2
				c1.9,3.1,3.7,6.3,5.7,9.3c0.4,0.6,1.1,0.5,1.5,0c4.8-6.4,4.5-14.6,5.7-22.2c1.4-9.2,4.5-17.8,6.7-26.8c1.8-7.3,1.6-14.5-3.6-20.3
				c-1.6-1.8-4.3-4.8-7-4.3c-2.1,0.3-3.2,2.2-2.6,4.1c0.3,1.1,2.1,0.6,1.7-0.5c2.2-1.1,3.8-1,5,0.5c0.5,0.5,1,1,1.5,1.6
				c1.2,1.3,2,2.7,2.7,4.3c1.5,3.5,1.4,7.3,0.8,11c-1.1,5.8-3.3,11.4-4.7,17.1c-1.4,5.6-2.4,11.2-3,17c-0.7,6-0.6,12.6-4.5,17.6
				c0.5,0.1,0.9,0.1,1.4,0.2c-3-5.6-8.7-11.4-7.6-18.1c0.8-5.6,2.3-11.2,3.3-16.8c1.9-11.4,3.7-23.3,3.4-34.9
				C171.8,64.5,171.3,64.4,171.3,64.8L171.3,64.8z"/>
		</g>
		<g>
			<path class="st0" d="M166.6,121.1c-0.1,2.6,1.3,5.2,3.2,6.9c0.7,0.7,1.9,0,1.6-1c-0.7-2.9-2-5.6-3.5-8.1c-0.6-1-2-0.3-1.8,0.8
				c0.4,2.8,1.6,5.3,3.3,7.5c0.6,0.8,2-0.1,1.7-1c-0.4-1.2-0.7-2.4-1.2-3.5c-0.5-1.1-2.1-0.7-1.8,0.5c0.3,1.2,0.7,2.4,1.1,3.5
				c0.6-0.3,1.1-0.7,1.7-1c-1.5-1.9-2.4-4.2-2.8-6.6c-0.6,0.3-1.2,0.5-1.8,0.8c1.5,2.4,2.6,4.9,3.4,7.6c0.5-0.3,1.1-0.6,1.6-1
				c-1.8-1.6-2.6-3.5-3.1-5.7C167.8,120,166.6,120.2,166.6,121.1L166.6,121.1z"/>
		</g>
		<g>
			<path class="st0" d="M166.4,116.1c2.9,2,5,4.5,6.4,7.7c0.3,0.6,1.2,0.1,0.9-0.5c-1.4-3.2-3.9-6-7.1-7.6
				C166.4,115.5,166.2,115.9,166.4,116.1L166.4,116.1z"/>
		</g>
		<g>
			<path class="st0" d="M174.6,72.2c-0.9,13-2.8,25.8-4.6,38.6c0,0.3,0.5,0.5,0.5,0.1c2.5-12.7,3.7-25.9,4.3-38.8
				C174.9,72.1,174.6,72.1,174.6,72.2L174.6,72.2z"/>
		</g>
		<g>
			<path class="st0" d="M178.5,69.2c-0.3,8.4-0.8,16.7-1.7,25.1c-0.9,8.5-2.4,16.9-4,25.4c-0.1,0.4,0.5,0.5,0.6,0.2
				c3.8-16.5,5.5-33.7,5.5-50.6C178.8,69,178.5,69,178.5,69.2L178.5,69.2z"/>
		</g>
		<g>
			<path class="st0" d="M180.5,73.5c1.7,2.6,3,5.4,3.8,8.4c0.1,0.3,0.6,0.2,0.5-0.1c-0.8-3.1-2.2-5.9-4.1-8.4
				C180.6,73.2,180.4,73.3,180.5,73.5L180.5,73.5z"/>
		</g>
		<g>
			<path class="st0" d="M179.8,78c1.5,2.1,2.7,4,3.3,6.6c0.1,0.4,0.7,0.2,0.6-0.2c-0.6-2.4-1.8-5-3.7-6.6
				C179.9,77.7,179.7,77.9,179.8,78L179.8,78z"/>
		</g>
		<g>
			<path class="st0" d="M179.3,82.1c0.5,2.6,1.1,5.3,1.9,7.9c0.1,0.4,0.6,0.2,0.5-0.2c-0.6-2.6-1.3-5.2-2.1-7.8
				C179.5,81.9,179.2,81.9,179.3,82.1L179.3,82.1z"/>
		</g>
		<g>
			<path class="st0" d="M179.1,87c0.4,2.4,1.2,4.8,1.9,7.1c0.1,0.3,0.6,0.2,0.5-0.1c-0.6-2.3-1.3-4.8-2.1-7
				C179.3,86.8,179.1,86.8,179.1,87L179.1,87z"/>
		</g>
		<g>
			<path class="st0" d="M178.5,92.7c0.3,2,0.6,4.1,1,6.1c0.1,0.3,0.6,0.2,0.5-0.1c-0.3-2-0.7-4-1.2-6
				C178.8,92.5,178.5,92.5,178.5,92.7L178.5,92.7z"/>
		</g>
		<g>
			<path class="st0" d="M177.6,95.7c0.2,1.4,0.3,2.8,0.5,4.1c0,0.2,0.4,0.2,0.4-0.1c-0.2-1.4-0.4-2.8-0.7-4.1
				C177.8,95.5,177.5,95.5,177.6,95.7L177.6,95.7z"/>
		</g>
		<g>
			<path class="st0" d="M177.6,98.7c0.2,1.2,0.5,2.4,0.7,3.6c0.1,0.2,0.4,0.1,0.4-0.1c-0.3-1.2-0.6-2.4-0.8-3.5
				C177.9,98.4,177.6,98.5,177.6,98.7L177.6,98.7z"/>
		</g>
		<g>
			<path class="st0" d="M176.1,104.4c-0.4-0.2-0.9-0.1-1,0.3c0,0.2,0.3,0.7,0.3,0.9c0.2,0.4,0.3,0.8,0.5,1.2
				c0.2,0.6,0.5,1.2,0.7,1.8c0.1,0.3,0.6,0.1,0.5-0.2c-0.2-0.6-0.5-1.2-0.8-1.8c-0.1-0.3-0.3-0.6-0.4-0.9
				C175.9,105.6,175.1,104.3,176.1,104.4C176.1,104.5,176.1,104.4,176.1,104.4L176.1,104.4z"/>
		</g>
		<g>
			<path class="st0" d="M175.4,109.3c-0.1,2.4,0,4.8,0.5,7.1c0.1,0.3,0.5,0.2,0.4-0.1c-0.4-2.3-0.6-4.7-0.7-7
				C175.7,109.1,175.4,109.2,175.4,109.3L175.4,109.3z"/>
		</g>
		<g>
			<path class="st0" d="M174.6,116.1c-0.2,1.8-0.2,3.7,0.1,5.5c0,0.3,0.5,0.3,0.4,0c-0.2-1.8-0.3-3.6-0.2-5.5
				C174.9,115.9,174.6,115.9,174.6,116.1L174.6,116.1z"/>
		</g>
		<g>
			<path class="st0" d="M174.5,121.3c-0.3,1.9-0.2,3.9,0.7,5.6c0.1,0.2,0.4,0.1,0.3-0.1c-0.7-1.8-1-3.5-0.7-5.3
				C174.8,121.2,174.5,121.1,174.5,121.3L174.5,121.3z"/>
		</g>
	</g>
	<g>
		<g>
			<path class="st0" d="M66,100.6c0-0.1-0.1-0.1-0.1-0.2c0,0-0.1-0.1-0.2,0c-0.5,0.2-0.6,0.5-0.2,0.9c0.5,0.5,2,0.2,2.7,0.2
				c1.4,0,2.9,0,4.3-0.1c5.7-0.2,11.5-0.6,17.2-1.4c5.4-0.7,10.8-1.6,16.1-2.8c5.3-1.2,10.8-3.3,16.2-1.7c5.4,1.7,9.5,5.9,13.3,9.8
				c0.1-0.3,0.2-0.6,0.2-0.9c-12.7,1.9-25.5,3.8-38.2,5.7c-3.1,0.5-6.3,0.9-9.4,1.4c-3.1,0.4-6,0.7-9-0.3c-2.6-0.9-4.9-2.5-7-4.3
				c-1-0.8-1.9-1.7-2.8-2.6c-0.5-0.5-0.9-0.9-1.3-1.4c-0.3-0.3-1.1-1.5-1.4-1.6c0.7,0.2,1-0.8,0.3-1.1c-1-0.4-1.8,0.6-1.4,1.6
				c0.3,0.8,1.3,1.5,1.9,2.1c0.9,0.9,1.8,1.8,2.7,2.7c3.3,3,7.1,5.7,11.6,6.3c2.4,0.3,4.8,0,7.1-0.4c3-0.5,6.1-0.9,9.1-1.4
				c6-0.9,11.9-1.8,17.9-2.7c6.8-1,13.5-2,20.3-3c0.4-0.1,0.5-0.6,0.2-0.9c-3.7-3.7-7.6-7.6-12.6-9.6c-5.7-2.2-11.3-0.2-17,1.1
				c-6.8,1.6-13.6,2.7-20.5,3.5c-3.3,0.4-6.6,0.7-9.9,0.9c-1.8,0.1-3.5,0.2-5.3,0.3c-0.9,0-1.8,0.1-2.7,0.1c-0.6,0-2,0.4-2.5-0.1
				C65.9,101,66.1,100.7,66,100.6L66,100.6z"/>
		</g>
		<g>
			<path class="st0" d="M120.9,98.1c1.4,2.5,3.7,4.3,6.4,5.3c0.4,0.1,0.7-0.3,0.5-0.6c-1.6-2.6-4.1-4.4-7.1-5.2
				c-0.4-0.1-0.8,0.4-0.4,0.8c1.7,1.5,3.5,2.7,5.5,3.7c0.5,0.2,1-0.3,0.6-0.7c-1-1-2.2-1.7-3.5-2c-0.3-0.1-0.6,0.1-0.6,0.5
				c-0.1,1.4,0.9,2.4,2.3,2.6c0.5,0.1,0.6-0.8,0.1-0.9c-0.9-0.1-1.5-0.7-1.4-1.6c-0.2,0.2-0.4,0.3-0.6,0.5c1.2,0.3,2.2,0.9,3.1,1.8
				c0.2-0.2,0.4-0.5,0.6-0.7c-2-0.9-3.8-2.1-5.4-3.5c-0.1,0.3-0.3,0.5-0.4,0.8c2.8,0.7,5,2.4,6.6,4.8c0.2-0.2,0.3-0.4,0.5-0.6
				c-2.6-0.8-4.6-2.5-6.1-4.7C121.2,97.5,120.7,97.8,120.9,98.1L120.9,98.1z"/>
		</g>
		<g>
			<path class="st0" d="M115.5,97.6c1.3,3.7,4.3,6.7,8.1,7.7c0.5,0.1,0.7-0.6,0.2-0.8c-3.5-1.3-6.3-3.7-7.8-7.1
				C115.9,97.2,115.4,97.4,115.5,97.6L115.5,97.6z"/>
		</g>
		<g>
			<path class="st0" d="M68.3,105.2c8.2-0.3,16.5-1.3,24.7-2.2c8-0.9,16.1-1.8,24-3.2c0.5-0.1,0.4-0.9-0.1-0.9
				c-8.1,1.1-16.1,2.4-24.2,3.3c-8.1,1-16.3,1.5-24.4,2.5C68,104.7,68,105.2,68.3,105.2L68.3,105.2z"/>
		</g>
		<g>
			<path class="st0" d="M74.3,107.8c7.5,0.2,15-0.2,22.4-0.9c7.1-0.7,14.7-1.3,21.6-3.2c0.4-0.1,0.3-0.7-0.1-0.7
				c-3.5,0.4-6.9,1.2-10.3,1.7c-3.8,0.6-7.7,1.1-11.5,1.4c-7.3,0.7-14.7,1-22.1,1.1C74,107.2,74,107.7,74.3,107.8L74.3,107.8z"/>
		</g>
		<g>
			<path class="st0" d="M82.9,109.1c-0.7,1-1.4,2-2,3c-0.1,0.2,0.2,0.4,0.4,0.2c0.7-1,1.3-2,1.9-3C83.3,109.1,83,109,82.9,109.1
				L82.9,109.1z"/>
		</g>
		<g>
			<path class="st0" d="M87.5,108.1c-0.9,0.5-1.9,1.4-2.3,2.4c-0.1,0.3,0.3,0.4,0.4,0.2c0.3-0.4,0.5-0.9,0.9-1.2
				c0.4-0.4,0.8-0.7,1.2-0.9C88.1,108.4,87.8,108,87.5,108.1L87.5,108.1z"/>
		</g>
		<g>
			<path class="st0" d="M92,107.4c-1.5,0.5-2.9,1.6-3.5,3c-0.1,0.3,0.3,0.5,0.4,0.3c0.9-1.3,1.8-2.2,3.2-2.9
				C92.3,107.7,92.2,107.3,92,107.4L92,107.4z"/>
		</g>
		<g>
			<path class="st0" d="M95.6,107.1c-0.9,0.9-1.9,1.8-2.6,2.8c-0.2,0.2,0.1,0.6,0.4,0.4c0.9-0.9,1.8-1.9,2.6-2.8
				C96.1,107.2,95.8,106.9,95.6,107.1L95.6,107.1z"/>
		</g>
		<g>
			<path class="st0" d="M98.4,106.9c-0.8,0.8-1.7,1.7-2.4,2.6c-0.2,0.2,0.2,0.5,0.4,0.3c0.9-0.8,1.6-1.8,2.3-2.7
				C98.9,107,98.6,106.8,98.4,106.9L98.4,106.9z"/>
		</g>
		<g>
			<path class="st0" d="M102.4,107c-0.5,0.4-0.8,1-1.2,1.4c-0.4,0.5-0.9,0.9-1.3,1.4c-0.2,0.3,0.1,0.6,0.4,0.4c0.5-0.4,1-1,1.4-1.5
				c0.4-0.4,0.8-0.9,1-1.5C102.8,107,102.5,106.9,102.4,107L102.4,107z"/>
		</g>
		<g>
			<path class="st0" d="M105.5,107.7c0.2-0.1,0.3-0.3,0.5-0.4c-0.1-0.1-0.2-0.2-0.3-0.3c-0.8,0.7-1.7,1.5-2.4,2.4
				c-0.2,0.2,0.1,0.6,0.4,0.4c0.8-0.7,1.6-1.6,2.4-2.4c0.2-0.2-0.1-0.5-0.3-0.3c-0.1,0.2-0.3,0.3-0.4,0.5
				C105.1,107.6,105.4,107.9,105.5,107.7L105.5,107.7z"/>
		</g>
		<g>
			<path class="st0" d="M111.5,105.4c-1.1,0.8-2.1,1.7-2.8,2.9c-0.2,0.3,0.3,0.5,0.5,0.3c0.8-1,1.6-2,2.6-2.8
				C112,105.6,111.7,105.3,111.5,105.4L111.5,105.4z"/>
		</g>
		<g>
			<path class="st0" d="M115.7,104.5c-0.5,0.5-1,1.1-1.4,1.6c-0.4,0.5-0.9,1-1.3,1.5c-0.2,0.3,0.2,0.5,0.4,0.3
				c0.5-0.5,0.9-1.1,1.4-1.7c0.4-0.5,0.8-1,1.2-1.6C116.2,104.6,115.9,104.4,115.7,104.5L115.7,104.5z"/>
		</g>
		<g>
			<path class="st0" d="M119.1,105.1c-0.4,1-1,1.8-1.9,2.5c-0.3,0.2,0,0.7,0.3,0.4c0.9-0.7,1.6-1.7,1.8-2.8
				C119.4,105,119.2,104.9,119.1,105.1L119.1,105.1z"/>
		</g>
	</g>
	<g>
		<g>
			<path class="st0" d="M68.1,166.4c13-1.6,25.9-4.4,38.9-6.1c5.1-0.7,11.4-0.3,16.2-2.4c2.2-0.9,3.7-2.6,5.2-4.3
				c2.4-2.7,4.9-5.4,7.2-8.2c0.4-0.5,0.3-1.2-0.4-1.5c-8.3-2.9-17.1,0.4-25.5,1.5c-9,1.1-18.1,0.4-27.1,1.3
				c-7,0.7-12.9,3.5-16.5,9.7c-1.2,2.1-3.1,5.4-1.6,7.8c1,1.6,3,2.2,4.5,1c0.9-0.7,0-2.2-0.9-1.6c-2.1-1.5-2.4-3.2-1.1-4.9
				c0.3-0.7,0.7-1.3,1.1-1.9c0.9-1.5,2-2.8,3.3-3.9c2.2-1.9,5-3,7.9-3.5c5.7-1.2,11.7-0.6,17.5-0.8c6.2-0.2,12.3-0.9,18.4-2
				c6.5-1.2,13.2-3.5,19.6-1.1c-0.1-0.5-0.3-1-0.4-1.5c-4.1,4.2-8,11.2-14.2,12.5c-5.8,1.2-12,1.2-17.9,2
				c-11.5,1.5-23.4,3.3-34.4,7.1C67.8,166,67.8,166.5,68.1,166.4L68.1,166.4z"/>
		</g>
		<g>
			<path class="st0" d="M123.3,154.2c2.5-0.6,4.6-2.8,5.7-5.1c0.4-0.8-0.5-1.9-1.3-1.3c-2.5,1.5-4.8,3.5-6.7,5.8
				c-0.8,0.9,0.2,2.1,1.2,1.6c2.5-1.2,4.6-3,6.2-5.3c0.6-0.8-0.6-2-1.4-1.4c-1.1,0.8-2.2,1.5-3.2,2.3c-0.8,0.7,0.2,2,1.1,1.5
				c1.1-0.6,2.1-1.4,3.1-2.1c-0.5-0.5-0.9-0.9-1.4-1.4c-1.4,2-3.3,3.6-5.5,4.6c0.4,0.5,0.8,1.1,1.2,1.6c1.8-2.1,3.9-3.9,6.3-5.5
				c-0.4-0.4-0.9-0.9-1.3-1.3c-1,2.2-2.6,3.5-4.5,4.7C122,153.3,122.5,154.5,123.3,154.2L123.3,154.2z"/>
		</g>
		<g>
			<path class="st0" d="M118.6,155.9c1.1-3.3,2.8-6.1,5.5-8.4c0.5-0.4-0.2-1.2-0.8-0.8c-2.7,2.3-4.6,5.5-5.2,9
				C118.1,156.1,118.5,156.2,118.6,155.9L118.6,155.9z"/>
		</g>
		<g>
			<path class="st0" d="M74.3,161c12.7-3,25.5-5,38.3-7c0.3,0,0.2-0.6-0.1-0.5c-12.9,1.3-25.8,4.1-38.3,7.3
				C74.1,160.8,74.1,161.1,74.3,161L74.3,161z"/>
		</g>
		<g>
			<path class="st0" d="M70.3,158.2c8.1-2.2,16.2-4.2,24.4-5.8c8.4-1.6,16.9-2.7,25.4-3.7c0.4,0,0.4-0.6,0-0.6
				c-16.8,1.3-33.8,4.7-50,9.7C70,157.9,70.1,158.3,70.3,158.2L70.3,158.2z"/>
		</g>
		<g>
			<path class="st0" d="M73.7,155c2-2.4,4.2-4.5,6.9-6.1c0.3-0.2,0-0.7-0.3-0.5c-2.7,1.7-5,3.9-6.8,6.4
				C73.4,155,73.6,155.2,73.7,155L73.7,155z"/>
		</g>
		<g>
			<path class="st0" d="M78.3,154.4c0.8-0.9,1.4-1.9,2.2-2.8c0.9-0.9,1.9-1.7,3.1-2.3c0.3-0.2,0-0.7-0.3-0.5
				c-2.1,1.2-4.3,3.2-5.2,5.5C78,154.4,78.2,154.5,78.3,154.4L78.3,154.4z"/>
		</g>
		<g>
			<path class="st0" d="M82.4,153.7c2.4-1.3,4.7-2.6,6.9-4.1c0.3-0.2,0-0.7-0.3-0.5c-2.3,1.3-4.6,2.8-6.8,4.3
				C82.1,153.5,82.2,153.8,82.4,153.7L82.4,153.7z"/>
		</g>
		<g>
			<path class="st0" d="M87.1,152.4c2.1-1.1,4.2-2.6,6.2-3.9c0.3-0.2,0-0.7-0.3-0.5c-2.1,1.3-4.2,2.6-6.1,4.1
				C86.8,152.2,87,152.4,87.1,152.4L87.1,152.4z"/>
		</g>
		<g>
			<path class="st0" d="M92.7,151.2c1.8-0.8,3.7-1.8,5.4-2.8c0.3-0.2,0-0.6-0.3-0.5c-1.8,0.9-3.6,1.9-5.3,2.9
				C92.4,151,92.5,151.3,92.7,151.2L92.7,151.2z"/>
		</g>
		<g>
			<path class="st0" d="M95.9,151.3c1.3-0.5,2.5-1.1,3.8-1.7c0.2-0.1,0-0.5-0.2-0.4c-1.2,0.6-2.5,1.2-3.7,1.8
				C95.6,151.1,95.7,151.3,95.9,151.3L95.9,151.3z"/>
		</g>
		<g>
			<path class="st0" d="M98.7,150.3c1.1-0.6,2.1-1.2,3.2-1.8c0.2-0.1,0-0.5-0.2-0.3c-1,0.6-2.1,1.2-3.1,1.9
				C98.4,150.2,98.5,150.4,98.7,150.3L98.7,150.3z"/>
		</g>
		<g>
			<path class="st0" d="M104.6,150.1c-0.1,0.6,0.3,1,0.8,0.6c1-0.8,2.1-1.6,3-2.5c0.2-0.2-0.1-0.6-0.4-0.4c-0.5,0.4-1,0.9-1.6,1.4
				c-0.2,0.2-0.5,0.4-0.7,0.6c-0.1,0.1-0.3,0.2-0.4,0.4C105.2,150.6,105,150.5,104.6,150.1C104.7,150.1,104.6,150.1,104.6,150.1
				L104.6,150.1z"/>
		</g>
		<g>
			<path class="st0" d="M109.5,149.3c2.3-0.6,4.6-1.4,6.7-2.6c0.2-0.1,0-0.5-0.2-0.4c-2.1,1.1-4.3,2-6.5,2.7
				C109.3,149.1,109.3,149.4,109.5,149.3L109.5,149.3z"/>
		</g>
		<g>
			<path class="st0" d="M116.3,148.1c1.8-0.4,3.6-0.9,5.3-1.7c0.3-0.1,0-0.5-0.2-0.4c-1.7,0.7-3.4,1.3-5.1,1.8
				C115.9,147.8,116,148.1,116.3,148.1L116.3,148.1z"/>
		</g>
		<g>
			<path class="st0" d="M121.2,146.7c1.9-0.2,3.7-1,5.1-2.3c0.2-0.2-0.1-0.4-0.2-0.2c-1.5,1.2-3,1.9-4.9,2.2
				C121,146.4,121,146.7,121.2,146.7L121.2,146.7z"/>
		</g>
	</g>
	<g>
		<g>
			<path class="st0" d="M137.8,104.2c0-0.1,0.1-0.1,0.1-0.2c0-0.1,0-0.2,0-0.2c-0.3-0.3-0.2-0.3-0.6-0.2c-0.1,0-0.1,0.1-0.1,0.1
				c-0.2,1,0.5,1.8,0.9,2.7c0.8,1.5,1.6,2.9,2.4,4.3c1.6,2.7,3.2,5.3,4.9,7.9c3.4,5.2,7.1,10.2,11,15c2,2.4,4,4.7,6,7
				c2.3,2.5,4.8,5.1,5.9,8.4c2.1,6,0.1,12.7-1.7,18.5c0.3,0,0.7-0.1,1-0.1c-7.6-10.1-15.1-20.3-22.7-30.4c-1.8-2.5-3.7-4.9-5.5-7.4
				c-1.7-2.3-3.5-4.6-4.3-7.4c-0.9-3-0.7-6.2-0.1-9.2c0.3-1.4,0.7-2.8,1.1-4.2c0.2-0.6,0.4-1.2,0.6-1.8c0.1-0.4,0.9-1.8,0.8-2.2
				c0.1,0.6,1.2,0.5,1.1-0.1c-0.1-1-1.2-1.5-2-0.7c-0.5,0.5-0.7,1.5-0.9,2.1c-0.4,1.4-0.9,2.8-1.2,4.2c-1.2,4.6-1.8,9.6,0.2,14.1
				c1,2.3,2.5,4.2,4,6.1c1.8,2.4,3.6,4.7,5.3,7.1c3.6,4.7,7.1,9.5,10.7,14.2c4,5.4,8.1,10.8,12.1,16.1c0.3,0.4,0.8,0.3,1-0.1
				c1.7-5.4,3.3-11.2,2.2-16.9c-1.2-5.9-6.1-10-9.9-14.4c-4.3-5-8.3-10.1-12.1-15.5c-1.8-2.6-3.6-5.3-5.3-8
				c-0.9-1.4-1.7-2.8-2.6-4.2c-0.4-0.7-0.8-1.4-1.3-2.1c-0.3-0.5-1.5-2.1-1.3-2.6C137.4,104.3,137.7,104.4,137.8,104.2L137.8,104.2z
				"/>
		</g>
		<g>
			<path class="st0" d="M166.1,151.3c-1.6,2.5-2,5.3-1.6,8.1c0.1,0.4,0.6,0.4,0.8,0.1c1.5-2.7,1.9-5.7,1.2-8.7
				c-0.1-0.4-0.8-0.4-0.9,0c-0.5,2.2-0.7,4.4-0.6,6.6c0,0.5,0.8,0.6,0.9,0.1c0.4-1.4,0.4-2.7,0.1-4.1c-0.1-0.3-0.4-0.4-0.7-0.3
				c-1.2,0.6-1.7,1.9-1.2,3.1c0.2,0.6,1.1,0.3,0.9-0.2c-0.3-0.8,0-1.6,0.8-2c-0.2-0.1-0.5-0.2-0.7-0.3c0.3,1.2,0.3,2.4-0.1,3.6
				c0.3,0,0.6,0.1,0.9,0.1c-0.1-2.2,0.1-4.3,0.6-6.4c-0.3,0-0.6,0-0.9,0c0.7,2.8,0.3,5.5-1.1,8c0.3,0,0.5,0.1,0.8,0.1
				c-0.5-2.7,0-5.2,1.2-7.6C166.8,151.3,166.3,151,166.1,151.3L166.1,151.3z"/>
		</g>
		<g>
			<path class="st0" d="M163.9,146.4c-2.6,2.9-3.8,6.9-3,10.8c0.1,0.5,0.9,0.3,0.8-0.2c-0.5-3.7,0.2-7.2,2.5-10.2
				C164.5,146.5,164.2,146.1,163.9,146.4L163.9,146.4z"/>
		</g>
		<g>
			<path class="st0" d="M134.9,108.4c4.1,7.1,9,13.9,13.6,20.7c4.6,6.6,9.2,13.3,14.3,19.6c0.3,0.4,1-0.1,0.7-0.5
				c-4.8-6.6-9.8-13.1-14.5-19.7c-4.7-6.7-9.1-13.6-13.8-20.2C135.1,107.9,134.8,108.1,134.9,108.4L134.9,108.4z"/>
		</g>
		<g>
			<path class="st0" d="M135.5,114.9c3.4,6.7,7.3,13.1,11.4,19.3c4,6,8.2,12.3,13.1,17.5c0.3,0.3,0.8-0.1,0.5-0.4
				c-2.1-3-4.6-5.8-6.8-8.7c-2.2-3-4.3-6-6.4-9c-4.1-6.1-7.8-12.5-11.5-18.9C135.8,114.4,135.3,114.6,135.5,114.9L135.5,114.9z"/>
		</g>
		<g>
			<path class="st0" d="M138.3,123.2c-1.2-0.1-2.4-0.3-3.5-0.3c-0.3,0-0.3,0.4,0,0.4c1.2,0.1,2.4,0.2,3.5,0.2
				C138.6,123.5,138.5,123.2,138.3,123.2L138.3,123.2z"/>
		</g>
		<g>
			<path class="st0" d="M141.4,126.7c-0.9-0.6-2.1-1-3.2-0.8c-0.3,0-0.2,0.4,0.1,0.5c1.1,0.1,2,0.2,2.9,0.8
				C141.4,127.3,141.7,126.9,141.4,126.7L141.4,126.7z"/>
		</g>
		<g>
			<path class="st0" d="M144.2,130.3c-1.1-1.1-2.8-1.7-4.3-1.7c-0.3,0-0.3,0.5,0,0.5c1.6,0.1,2.8,0.6,4.1,1.5
				C144.1,130.8,144.4,130.5,144.2,130.3L144.2,130.3z"/>
		</g>
		<g>
			<path class="st0" d="M146.2,133.3c-1.2-0.4-2.5-0.8-3.7-1c-0.3-0.1-0.4,0.4-0.1,0.5c1.2,0.4,2.5,0.7,3.7,0.9
				C146.4,133.8,146.5,133.4,146.2,133.3L146.2,133.3z"/>
		</g>
		<g>
			<path class="st0" d="M147.7,135.8c-1.1-0.4-2.3-0.7-3.4-0.9c-0.3,0-0.3,0.4-0.1,0.5c1.1,0.4,2.3,0.6,3.5,0.8
				C147.9,136.2,147.9,135.8,147.7,135.8L147.7,135.8z"/>
		</g>
		<g>
			<path class="st0" d="M149.5,139.3c-0.6-0.2-1.2-0.2-1.8-0.4c-0.6-0.1-1.2-0.3-1.8-0.4c-0.3-0.1-0.5,0.4-0.1,0.5
				c1.1,0.4,2.6,0.8,3.8,0.6C149.7,139.6,149.6,139.3,149.5,139.3L149.5,139.3z"/>
		</g>
		<g>
			<path class="st0" d="M150.4,142.4c0.2,0.1,0.4,0.1,0.6,0.2c0.1-0.1,0.1-0.3,0.2-0.4c-1.1-0.4-2.1-0.7-3.2-1
				c-0.3-0.1-0.4,0.4-0.1,0.5c1,0.4,2.2,0.7,3.3,0.9c0.3,0.1,0.4-0.4,0.1-0.4c-0.2,0-0.4-0.1-0.7-0.2
				C150.2,142,150.1,142.3,150.4,142.4L150.4,142.4z"/>
		</g>
		<g>
			<path class="st0" d="M155.2,146.6c-1.2-0.6-2.5-1-3.8-1.1c-0.3,0-0.4,0.5-0.1,0.5c1.3,0.2,2.5,0.5,3.7,1
				C155.3,147.1,155.4,146.7,155.2,146.6L155.2,146.6z"/>
		</g>
		<g>
			<path class="st0" d="M158,149.8c-1.3-0.4-2.7-0.7-4.1-0.9c-0.3,0-0.3,0.4-0.1,0.5c1.3,0.4,2.7,0.6,4.1,0.7
				C158.2,150.2,158.2,149.9,158,149.8L158,149.8z"/>
		</g>
		<g>
			<path class="st0" d="M159.1,153.1c-1.1,0.1-2.1,0-3.1-0.5c-0.3-0.1-0.6,0.3-0.3,0.5c1.1,0.5,2.2,0.6,3.4,0.3
				C159.3,153.4,159.3,153,159.1,153.1L159.1,153.1z"/>
		</g>
	</g>
</g>
</svg>
