<?xml version="1.0" encoding="utf-8"?>
<!-- Generator: Adobe Illustrator 23.0.1, SVG Export Plug-In . SVG Version: 6.00 Build 0)  -->
<!DOCTYPE svg PUBLIC "-//W3C//DTD SVG 1.1//EN" "http://www.w3.org/Graphics/SVG/1.1/DTD/svg11.dtd" [
	<!ENTITY ns_extend "http://ns.adobe.com/Extensibility/1.0/">
	<!ENTITY ns_ai "http://ns.adobe.com/AdobeIllustrator/10.0/">
	<!ENTITY ns_graphs "http://ns.adobe.com/Graphs/1.0/">
	<!ENTITY ns_vars "http://ns.adobe.com/Variables/1.0/">
	<!ENTITY ns_imrep "http://ns.adobe.com/ImageReplacement/1.0/">
	<!ENTITY ns_sfw "http://ns.adobe.com/SaveForWeb/1.0/">
	<!ENTITY ns_custom "http://ns.adobe.com/GenericCustomNamespace/1.0/">
	<!ENTITY ns_adobe_xpath "http://ns.adobe.com/XPath/1.0/">
]>
<svg version="1.1" id="Layer_1" xmlns:x="&ns_extend;" xmlns:i="&ns_ai;" xmlns:graph="&ns_graphs;"
	 xmlns="http://www.w3.org/2000/svg" xmlns:xlink="http://www.w3.org/1999/xlink" x="0px" y="0px" viewBox="0 0 250 250"
	 style="enable-background:new 0 0 250 250;" xml:space="preserve">
<style type="text/css">
	.st0{fill:#3C2517;}
</style>
<metadata>
	<sfw  xmlns="&ns_sfw;">
		<slices></slices>
		<sliceSourceBounds  bottomLeftOrigin="true" height="201.2" width="191.7" x="138.8" y="-277.9"></sliceSourceBounds>
	</sfw>
</metadata>
<g>
	<g>
		<path class="st0" d="M94.7,25.7c-5.8-1.9-19.7-6.5-21.5,3c-0.8,4.1,0.6,8.9,2,12.7c1.2,3.5,2.9,6.4,6.9,7.1
			c5.2,0.9,9.9-2.4,15-2.3c5.9,0.1,11.4,3.5,14.5,8.5c2.8,4.5,5.2,11,0.7,15.3c-2.6,2.5-6.5,3.4-7.2,7.3c-0.2,0.8,1.1,1.5,1.5,0.6
			c1.5-3.4,5.2-4.6,7.6-7.3c2.2-2.5,2.7-5.8,2.4-9c-0.8-7.6-5.9-14.1-13-16.8c-3.9-1.5-8-1.7-12-0.6c-2.5,0.6-5,1.7-7.7,1.7
			c-3.9-0.1-5.3-2.5-6.5-5.8c-1.7-4.5-4.9-13.7,2-15.2c4.9-1.1,10.4,1.2,15.3,1.4C95,26.4,95,25.8,94.7,25.7L94.7,25.7z"/>
	</g>
	<g>
		<path class="st0" d="M98.8,28.3c7.1,2.8,14.5,5.1,21,9c5.9,3.5,10.9,8.4,14.8,14.1c3.6,5.2,6,11,7.7,17c0.6,2.3,1.3,4.3,3.2,5.7
			c1.5,1.1,3.4,1.7,4.8,3c1.7,1.5,2.8,3.4,3.6,5.5c0.5,1.4,2.6,0.8,2.2-0.6c-0.8-2.9-2.5-5.4-4.9-7.3c-1.3-1-2.8-1.4-4.1-2.3
			c-2.2-1.6-2.5-4.2-3.3-6.6c-2-6.1-4.9-12-8.8-17.2C126.1,37,113,31,99,27.4C98.4,27.3,98.2,28.1,98.8,28.3L98.8,28.3z"/>
	</g>
	<g>
		<path class="st0" d="M80.6,63.3C88,65,94.8,69,94.9,77.5c0,1.1,1.7,1.1,1.7,0c-0.1-8.3-7.5-15.5-16-15
			C80.3,62.5,80.1,63.2,80.6,63.3L80.6,63.3z"/>
	</g>
	<g>
		<path class="st0" d="M95.2,71.8c5.9,1.4,12.2,1.4,18-0.4c1-0.3,0.6-1.8-0.4-1.6c-5.9,1.3-11.5,1.7-17.4,1
			C94.8,70.7,94.7,71.6,95.2,71.8L95.2,71.8z"/>
	</g>
	<g>
		<path class="st0" d="M97.4,78.1c3.5,0,7,0,10.4,1c3.5,1,6.2,3.3,8.7,5.9c4.4,4.5,7.5,9.8,10,15.6c0.3,0.7,1.3,0.2,1.1-0.5
			c-1.9-6.9-5.9-13.3-11.2-18.2c-5.5-5.2-11.9-5.8-19.2-4.8C96.7,77.2,96.9,78.1,97.4,78.1L97.4,78.1z"/>
	</g>
	<g>
		<path class="st0" d="M126.7,94.9c10.8-15.4,32.6-13.3,47.9-7.4c7.4,2.9,14.6,7.1,19.6,13.4c5.4,6.8,7.9,15.7,9.7,24.1
			c3.8,17.6,2.9,36.1-2.3,53.3c-2.5,8.5-6.1,16.6-10.6,24.2c-4.1,6.9-10.6,14.8-18.5,17.5c-16.7,5.6-41.7-1.2-44.1-21.3
			c-0.2-1.3-2.1-1.3-2,0c1.7,18,20.6,26.4,36.8,25.4c4.1-0.3,8.2-0.9,11.9-2.5c4-1.7,6.6-4.5,9.7-7.4c6.7-6.3,11-14.8,14.5-23.2
			c8-18.9,10.7-39.9,7.5-60.2c-1.5-9.3-4-19.2-9-27.3c-4.4-7.1-11.3-12.1-18.8-15.5c-16.5-7.5-41.4-10.8-53,6.7
			C126,94.9,126.5,95.2,126.7,94.9L126.7,94.9z"/>
	</g>
	<g>
		<path class="st0" d="M156.2,77.4c5-13.2,19-20.8,32.6-15.5c12.5,4.9,20.3,16.9,25,28.9c9,22.7,8.1,48.6,0.4,71.5
			c-4.7,13.9-12.1,26.3-21.4,37.6c-0.8,0.9,0.5,2.3,1.4,1.4c18.2-20.1,28.5-48,28.3-75.1c-0.1-13.2-2.9-26.7-8.2-38.9
			c-5.1-11.7-13.5-23.1-26-27.4c-13.8-4.8-28.8,3.2-32.8,17.2C155.2,77.7,156,77.9,156.2,77.4L156.2,77.4z"/>
	</g>
	<g>
		<path class="st0" d="M134.4,50.8c6.5-2.4,12.4-2,18.8,0.9c5.4,2.4,11.5,5.7,15.1,10.5c0.7,0.9,2.2,0.1,1.6-0.9
			c-3.3-5.6-11.3-9.4-17-11.8c-5.6-2.3-13.8-4-18.9,0.5C133.6,50.3,134,51,134.4,50.8L134.4,50.8z"/>
	</g>
	<g>
		<path class="st0" d="M73.4,61.4c4.5-6,13.3-8.5,20.5-9c7-0.5,14,0.8,20.2,4.1c1.2,0.6,2.2-1.2,1-1.8c-7-3.7-15.2-5.2-23-4.2
			c-7.2,1-15.4,4-19.5,10.4C72.3,61.5,73,61.9,73.4,61.4L73.4,61.4z"/>
	</g>
	<g>
		<path class="st0" d="M127.2,105.4c0.5,25.8,1.4,51.5,0.8,77.3c-0.1,6.3,0.2,12.9-3.6,18.3c-3.2,4.6-8,8.4-12.9,11.1
			c-10,5.4-22.3,6.8-33,2.7c-6.1-2.3-11.6-6.5-15.5-11.8c-2.1-2.8-3.7-6-4.6-9.4c-0.8-2.9-2.1-4.9-3.3-7.5c-0.4-0.8-1.8-0.2-1.4,0.6
			c1,2.7,2.2,5.1,2.9,8c0.8,3,2.2,5.9,3.9,8.5c3,4.5,7.1,8.3,11.8,11.1c9.9,5.8,21.8,6.5,32.5,2.8c9.2-3.2,20.7-10.3,23.9-20
			c2-6.2,1.4-13.4,1.5-19.8c0.1-7.4,0.2-14.9,0.1-22.3c-0.2-16.5-0.6-33.1-2.5-49.5C127.9,104.9,127.2,104.9,127.2,105.4
			L127.2,105.4z"/>
	</g>
	<g>
		<path class="st0" d="M96.1,78.1c-9.4-0.6-18.7,2.6-26.1,8.4c-8.2,6.4-12.4,14.9-14.2,25c-4.3,24.6-7.5,50.8-2.1,75.5
			c0.3,1.2,2,0.7,1.8-0.5c-4-23.6-1.9-47.2,1.5-70.8c1.5-10.2,4.2-19.4,12.2-26.4c7.4-6.5,17.1-9.7,26.8-10.1
			C96.7,79.2,96.7,78.2,96.1,78.1L96.1,78.1z"/>
	</g>
	<g>
		<path class="st0" d="M76.9,61.9c-9.1-3.2-18.2,3.4-24.4,9.5c-6.9,6.7-12,15-15.6,23.9c-8.4,21-7.5,46-2.2,67.8
			c2.6,10.7,8.5,21.3,19.7,24.8c1,0.3,1.5-1.3,0.5-1.6c-5.9-1.9-11.1-7.4-14-12.8c-3-5.6-4.4-11.8-5.4-18c-2.4-13.8-3.5-28.1-1.4-42
			c1.7-11.3,5.7-22.2,12.2-31.7c6.7-9.6,17.6-20.6,30.3-18.8C77.3,63,77.5,62.1,76.9,61.9L76.9,61.9z"/>
	</g>
	<g>
		<path class="st0" d="M143,68c4.9,2.2,10.8,4.3,16,2.4c1-0.4,0.6-1.9-0.5-1.6c-5.4,1.1-10.1-0.1-15.3-1.5
			C142.9,67.2,142.6,67.9,143,68L143,68z"/>
	</g>
	<g>
		<path class="st0" d="M79.2,27.8c3.5,4.9,4.8,10.1,4.6,16.1c-0.1,1.3,1.8,1.2,1.9,0c0.6-6.1-1.7-12.1-5.7-16.7
			C79.6,26.8,78.9,27.4,79.2,27.8L79.2,27.8z"/>
	</g>
	<g>
		<path class="st0" d="M84,32.9c6.1,8.7,18,5.7,26.9,7.6c0.7,0.2,1-0.9,0.3-1.1c-8.8-2.6-20.3,1.1-27-6.7
			C84.1,32.7,83.9,32.8,84,32.9L84,32.9z"/>
	</g>
	<g>
		<path class="st0" d="M115.5,43.1c5.2,4.7,11.5,8.6,15.7,14.2c4.3,5.7,6,12.7,7.6,19.6c0.2,0.7,1.2,0.4,1-0.3
			c-1.4-6.9-3.5-14.1-7.9-19.8c-4.2-5.5-10.7-9.9-16.3-13.9C115.5,42.7,115.4,43,115.5,43.1L115.5,43.1z"/>
	</g>
	<g>
		<path class="st0" d="M123.1,56.2c-0.7,4.8,1,10.2-1.2,14.8c-1.8,3.6-3.9,5.8-4,10.1c0,0.6,0.9,0.6,1,0c0.2-3.1,1.3-5.4,2.9-8
			c0.9-1.4,1.6-2.8,2-4.4c0.8-4-0.2-8.3,0.1-12.4C123.8,55.9,123.1,55.8,123.1,56.2L123.1,56.2z"/>
	</g>
	<g>
		<path class="st0" d="M127.9,75.4c1.1,3.8,1.6,7.5,1.6,11.5c0,0.6,0.9,0.6,0.9,0c0.4-4-0.3-8.1-1.9-11.7
			C128.3,74.8,127.8,75,127.9,75.4L127.9,75.4z"/>
	</g>
	<g>
		<path class="st0" d="M108.9,47.8c0.1-0.1,0.2-0.1,0.3-0.2c0.1-0.1,0.2-0.2,0.3-0.3c0.2-0.2,0.4-0.4,0.7-0.6
			c0.4-0.3,0.9-0.5,1.4-0.8c0.3-0.2,0-0.6-0.3-0.6c-0.6,0.1-1.1,0.6-1.6,0.9c-0.2,0.2-0.4,0.4-0.6,0.6c-0.1,0.1-0.2,0.2-0.2,0.4
			c0,0.1,0,0.2-0.1,0.3C108.5,47.7,108.7,47.9,108.9,47.8L108.9,47.8z"/>
	</g>
	<g>
		<path class="st0" d="M110.6,48c-0.4,0.2,0.1,0.6,0.4,0.5c0.1,0,0.3-0.2,0.4-0.3c0.2-0.2,0.4-0.3,0.6-0.5c0.4-0.3,0.9-0.7,1.2-1.1
			c0.2-0.3-0.2-0.6-0.4-0.4c-0.4,0.2-0.8,0.7-1.1,1c-0.2,0.2-0.3,0.3-0.5,0.5c-0.1,0.1-0.2,0.2-0.3,0.3c0,0-0.1,0-0.1,0.1
			c0,0,0,0-0.1,0C110.7,48.1,110.6,48,110.6,48L110.6,48z"/>
	</g>
	<g>
		<path class="st0" d="M111.5,49.7c1-0.3,2-0.8,2.7-1.5c0.3-0.3-0.2-0.7-0.4-0.4c-0.7,0.7-1.5,1.2-2.4,1.6
			C111.2,49.4,111.3,49.8,111.5,49.7L111.5,49.7z"/>
	</g>
	<g>
		<path class="st0" d="M113,51.2c1.2-0.4,2.3-1,3.2-2c0.2-0.2-0.1-0.5-0.3-0.3c-0.9,0.8-1.9,1.5-3,2C112.7,51,112.8,51.3,113,51.2
			L113,51.2z"/>
	</g>
	<g>
		<path class="st0" d="M114.5,52.7c0.7-0.2,1.4-0.6,2-0.9c0.6-0.4,1.3-0.7,1.9-1.2c0.3-0.2-0.1-0.6-0.4-0.5
			c-0.7,0.4-1.3,0.9-1.9,1.3c-0.6,0.4-1.2,0.7-1.7,1.1C114.2,52.6,114.4,52.7,114.5,52.7L114.5,52.7z"/>
	</g>
	<g>
		<path class="st0" d="M115.5,54.1c-0.3,0.3-0.4,0.7-0.3,1.1c0,0.1,0.2,0.2,0.3,0.1c0.8-0.5,1.5-1.1,2.2-1.6c0.7-0.5,1.4-1,2-1.5
			c0.2-0.2-0.1-0.6-0.4-0.5c-0.7,0.4-1.3,1-2,1.6c-0.7,0.6-1.4,1.2-2.1,1.8c0.1,0,0.2,0,0.3,0c0-0.3,0.1-0.5,0.1-0.8
			C115.7,54.1,115.5,54,115.5,54.1L115.5,54.1z"/>
	</g>
	<g>
		<path class="st0" d="M116.2,56.4c1.5-0.7,3-1.6,4.4-2.5c0.4-0.2,0-0.8-0.3-0.6c-1.4,0.9-2.9,1.8-4.3,2.8
			C115.9,56.2,116,56.5,116.2,56.4L116.2,56.4z"/>
	</g>
	<g>
		<path class="st0" d="M116,58.3c0,0-0.1,0-0.1,0c0,0-0.1,0-0.1,0c-0.1,0.1-0.1,0.1-0.1,0.3c0,0.1,0,0.1,0.1,0.1
			c0.7,0.2,1.8-0.7,2.4-1.1c1.3-0.7,2.7-1.3,3.8-2.2c0.3-0.2,0.1-0.6-0.3-0.5c-1,0.5-2,1.2-3,1.8c-0.5,0.3-0.9,0.6-1.4,0.9
			c-0.3,0.2-1,0.9-1.4,0.8C116,58.4,116.1,58.3,116,58.3L116,58.3z"/>
	</g>
	<g>
		<path class="st0" d="M116,62.3c2-1.6,4.2-3.1,6.2-4.8c0.3-0.3-0.1-0.9-0.5-0.6c-2.1,1.5-4.1,3.2-6.1,4.9
			C115.3,62,115.7,62.5,116,62.3L116,62.3z"/>
	</g>
	<g>
		<path class="st0" d="M115.7,63.2c1.1-0.5,2.1-1.2,3.2-1.9c0.5-0.3,1-0.6,1.5-0.9c0.4-0.2,1.1-0.9,1.6-0.8
			c-0.1-0.1-0.2-0.2-0.4-0.3c0,0,0,0,0,0c0.1-0.1,0.3-0.1,0.4-0.2c0,0-0.1,0-0.1,0c-0.4-0.1-0.6,0.5-0.2,0.7c0,0,0.1,0,0.1,0
			c0.1,0,0.3,0,0.3-0.1c0.2-0.2,0.2-0.3,0.2-0.6c0-0.1-0.1-0.2-0.3-0.3c-1-0.2-2,1-2.8,1.5c-1.2,0.8-2.5,1.6-3.7,2.5
			C115.4,63.1,115.6,63.3,115.7,63.2L115.7,63.2z"/>
	</g>
	<g>
		<path class="st0" d="M115.2,66.8c2.8-1.4,5.6-3.2,8.2-4.9c-0.2-0.2-0.4-0.4-0.6-0.6c-0.3,0.4-0.6,0.8-0.9,1.2
			c-0.3,0.4,0.3,0.8,0.6,0.5c0.3-0.4,0.7-0.7,1-1.1c0.4-0.4-0.1-1-0.6-0.7c-2.7,1.7-5.4,3.4-8,5.4C114.8,66.6,114.9,66.9,115.2,66.8
			L115.2,66.8z"/>
	</g>
	<g>
		<path class="st0" d="M115.7,68.7c2.4-1.2,4.7-2.5,6.9-3.9c-0.1-0.3-0.3-0.5-0.4-0.8c-0.3,0.2-0.5,0.4-0.8,0.6
			c-0.4,0.3,0.1,0.9,0.5,0.6c0.2-0.1,0.5-0.3,0.7-0.5c0.5-0.3,0-1.1-0.4-0.8c-2.2,1.4-4.4,2.9-6.7,4.3
			C115.2,68.4,115.4,68.8,115.7,68.7L115.7,68.7z"/>
	</g>
	<g>
		<path class="st0" d="M113.1,71.9c3.3-1.6,6.7-3.2,9.9-5c0.5-0.3,0.1-1.1-0.5-0.8c-3.3,1.7-6.5,3.5-9.7,5.3
			C112.5,71.7,112.8,72.1,113.1,71.9L113.1,71.9z"/>
	</g>
	<g>
		<path class="st0" d="M111.8,73.6c3.9-1,8.2-2.7,11.8-4.5c0.5-0.2,0.1-1-0.4-0.9c-3.8,1.3-8.1,3-11.6,5.1
			C111.5,73.4,111.6,73.6,111.8,73.6L111.8,73.6z"/>
	</g>
	<g>
		<path class="st0" d="M111.5,75.7c3.8-0.6,7.8-2,11.4-3.4c0.6-0.2,0.3-1.2-0.3-1c-3.7,1.4-7.5,2.5-11.2,4
			C111.2,75.4,111.3,75.8,111.5,75.7L111.5,75.7z"/>
	</g>
	<g>
		<path class="st0" d="M112.1,78.1c2.9-0.4,5.9-1.2,8.6-2.4c0.4-0.2,0.1-0.8-0.3-0.7c-2.8,0.8-5.6,1.8-8.4,2.5
			C111.6,77.6,111.8,78.1,112.1,78.1L112.1,78.1z"/>
	</g>
	<g>
		<path class="st0" d="M115.3,78.9c1.4-0.2,2.8-0.6,4.2-1.2c0.4-0.2,0.1-0.8-0.3-0.6c-1.3,0.6-2.6,1-4,1.3
			C114.8,78.5,115,79,115.3,78.9L115.3,78.9z"/>
	</g>
	<g>
		<path class="st0" d="M106.7,47.4c1.1-0.7,2.1-1.6,2.8-2.7c0.3-0.5-0.5-1-0.8-0.5c-0.6,1-1.4,1.9-2.4,2.6
			C106,47.1,106.3,47.7,106.7,47.4L106.7,47.4z"/>
	</g>
	<g>
		<path class="st0" d="M105.1,46.1c0.5-0.3,0.8-0.7,1.2-1.1c0.4-0.4,0.8-0.8,1.3-1.2c0.4-0.3-0.2-0.9-0.5-0.5
			c-0.4,0.4-0.8,0.8-1.2,1.2c-0.4,0.4-0.8,0.7-1.1,1.2C104.5,46,104.9,46.3,105.1,46.1L105.1,46.1z"/>
	</g>
	<g>
		<path class="st0" d="M102.3,45.2c0.7-0.8,1.5-1.4,2.5-1.7c0.3-0.1,0.2-0.5-0.1-0.4c-1.2,0.2-2.1,0.9-2.7,1.9
			C101.8,45.2,102.1,45.4,102.3,45.2L102.3,45.2z"/>
	</g>
	<g>
		<path class="st0" d="M100.8,45.4c0.3-0.6,0.8-1.1,1.4-1.3c0.3-0.1,0.1-0.5-0.1-0.4c-0.8,0.3-1.3,0.8-1.6,1.6
			C100.4,45.5,100.7,45.6,100.8,45.4L100.8,45.4z"/>
	</g>
	<g>
		<path class="st0" d="M96.8,75c1-1.2,2.2-2,3.7-2.5c0.5-0.2,0.3-0.9-0.2-0.8c-1.6,0.5-2.9,1.5-3.9,2.9C96.1,74.9,96.6,75.3,96.8,75
			L96.8,75z"/>
	</g>
	<g>
		<path class="st0" d="M97.4,76.7c1.9-1.1,3.9-2.4,5.6-3.9c0.4-0.3-0.1-0.9-0.5-0.7c-1.9,1.2-3.7,2.7-5.5,4.1
			C96.7,76.4,97.1,76.8,97.4,76.7L97.4,76.7z"/>
	</g>
	<g>
		<path class="st0" d="M99.7,77.6c1.7-1.6,3.6-2.8,5.8-3.7c0.3-0.1,0.1-0.6-0.2-0.5c-2.3,0.7-4.3,2.2-5.9,3.9
			C99.1,77.5,99.4,77.8,99.7,77.6L99.7,77.6z"/>
	</g>
	<g>
		<path class="st0" d="M102.5,77.1c1.8-0.3,3.4-1.2,4.8-2.4c0.3-0.3-0.1-0.7-0.5-0.5c-1.3,1.2-2.8,1.9-4.4,2.6
			C102.2,76.9,102.3,77.1,102.5,77.1L102.5,77.1z"/>
	</g>
	<g>
		<path class="st0" d="M119.1,85.7c1.2-0.9,2.5-1.6,3.9-2.2c0.3-0.1,0-0.6-0.2-0.4c-1.4,0.7-2.6,1.5-3.8,2.4
			C118.7,85.6,118.9,85.8,119.1,85.7L119.1,85.7z"/>
	</g>
	<g>
		<path class="st0" d="M120.6,86.5c1.6-0.4,3.3-1.1,4.7-1.8c0.4-0.2,0.1-0.8-0.3-0.7c-1.5,0.5-3.2,1.2-4.6,2
			C120.1,86.2,120.3,86.6,120.6,86.5L120.6,86.5z"/>
	</g>
	<g>
		<path class="st0" d="M121.7,88.2c1.5-0.3,3-0.9,4.4-1.6c0.4-0.2,0-0.7-0.3-0.5c-1.4,0.7-2.8,1.2-4.2,1.9
			C121.4,88,121.6,88.3,121.7,88.2L121.7,88.2z"/>
	</g>
	<g>
		<path class="st0" d="M122.3,90.5c1.8-0.6,3.5-1.3,5.2-2.1c0.3-0.1,0.2-0.7-0.1-0.5c-1.7,0.7-3.5,1.5-5.2,2.3
			C122.1,90.3,122.2,90.6,122.3,90.5L122.3,90.5z"/>
	</g>
	<g>
		<path class="st0" d="M123.5,92.1c2.2-1,4.3-2.1,6.5-3.1c0.3-0.2,0-0.7-0.3-0.5c-2.1,1.1-4.2,2.2-6.4,3.3
			C123.1,91.9,123.2,92.2,123.5,92.1L123.5,92.1z"/>
	</g>
	<g>
		<path class="st0" d="M125,94.3c1.5-0.6,2.8-1.4,4.1-2.4c0.2-0.2,0-0.6-0.2-0.4c-1.3,0.9-2.6,1.8-4,2.4
			C124.5,94,124.7,94.4,125,94.3L125,94.3z"/>
	</g>
	<g>
		<path class="st0" d="M141.3,76.5c1.4-0.9,2.8-2.2,4-3.4c0.4-0.4-0.2-0.9-0.6-0.6c-1.3,1.1-2.7,2.2-3.8,3.5
			C140.7,76.2,140.9,76.7,141.3,76.5L141.3,76.5z"/>
	</g>
	<g>
		<path class="st0" d="M141.1,73.7c0.5-0.2,1-0.8,1.4-1.1c0.6-0.4,1.1-0.8,1.7-1.2c0.4-0.2,0-0.8-0.3-0.6c-0.6,0.4-1.1,0.8-1.7,1.2
			c-0.5,0.4-1.1,0.9-1.4,1.4C140.8,73.6,140.9,73.8,141.1,73.7L141.1,73.7z"/>
	</g>
	<g>
		<path class="st0" d="M141.3,71.4c0.7-0.6,1.3-1.2,1.9-1.9c0.3-0.3-0.2-0.8-0.5-0.5c-0.6,0.7-1.2,1.3-1.8,2
			C140.8,71.3,141,71.6,141.3,71.4L141.3,71.4z"/>
	</g>
	<g>
		<path class="st0" d="M140.1,70c0.5-0.6,1.2-1.1,2-1.4c0.3-0.1,0.1-0.5-0.1-0.4c-0.8,0.3-1.6,0.8-2.1,1.5
			C139.7,69.9,140,70.2,140.1,70L140.1,70z"/>
	</g>
	<g>
		<path class="st0" d="M143.9,77.5c1.2-1.2,2.5-2.3,3.9-3.3c0.3-0.3,0-0.9-0.4-0.6c-1.4,1-2.7,2.2-3.9,3.6
			C143.3,77.4,143.7,77.8,143.9,77.5L143.9,77.5z"/>
	</g>
	<g>
		<path class="st0" d="M146.2,77.3c1.2-0.2,2.4-0.9,3.3-1.7c0.2-0.2-0.1-0.6-0.4-0.4c-0.9,0.8-1.9,1.4-3.1,1.8
			C145.9,77.1,146,77.4,146.2,77.3L146.2,77.3z"/>
	</g>
	<g>
		<path class="st0" d="M147.9,78.4c0.8-0.6,1.7-1,2.6-1.3c0.3-0.1,0.2-0.6-0.1-0.5c-1,0.3-1.9,0.8-2.7,1.6
			C147.6,78.3,147.8,78.5,147.9,78.4L147.9,78.4z"/>
	</g>
	<g>
		<path class="st0" d="M143,61.3c0.8-0.5,1.6-1.1,2.4-1.6c0.3-0.2,0-0.7-0.3-0.5c-0.8,0.6-1.5,1.2-2.3,1.9
			C142.7,61.1,142.9,61.3,143,61.3L143,61.3z"/>
	</g>
	<g>
		<path class="st0" d="M143.7,63.2c1.3-0.8,2.6-1.3,4-1.8c0.5-0.1,0.3-0.9-0.2-0.7c-1.5,0.4-2.8,1.1-4.1,2
			C143.1,62.9,143.4,63.4,143.7,63.2L143.7,63.2z"/>
	</g>
	<g>
		<path class="st0" d="M144,64.9c2-1,4.1-2.1,6-3.3c-0.2-0.2-0.3-0.3-0.5-0.5c-0.1,0.2-0.3,0.5-0.4,0.7c-0.1,0.3,0.2,0.6,0.4,0.3
			c0.2-0.2,0.4-0.5,0.5-0.7c0.2-0.3-0.2-0.6-0.5-0.5c-2,1.1-4,2.2-5.9,3.4C143.5,64.6,143.7,65,144,64.9L144,64.9z"/>
	</g>
	<g>
		<path class="st0" d="M144.5,66.7c2.9-1.2,5.7-2.8,8.4-4.2c0.5-0.2,0.1-0.9-0.4-0.7c-2.7,1.5-5.6,2.9-8.2,4.6
			C144.2,66.4,144.3,66.8,144.5,66.7L144.5,66.7z"/>
	</g>
	<g>
		<path class="st0" d="M146.7,68c0,0-0.1,0-0.1,0c-0.1,0-0.2,0-0.2,0.1c-0.1,0.2-0.1,0.2-0.1,0.5c0,0.1,0.1,0.1,0.2,0.2
			c1,0.3,2.6-1.2,3.5-1.7c1.9-1.2,3.9-2.3,5.7-3.6c0.3-0.2,0-0.8-0.3-0.6c-1.5,0.9-3,1.9-4.5,2.8c-0.7,0.4-1.4,0.9-2.1,1.3
			c-0.3,0.2-1.8,1.5-2.1,1.4C146.8,68.4,146.9,68,146.7,68L146.7,68z"/>
	</g>
	<g>
		<path class="st0" d="M150,69.5c3.3-1.1,6.6-3.6,9.2-5.8c0.3-0.3-0.1-0.8-0.5-0.6c-1.6,1.1-3,2.3-4.6,3.4c-1.4,1-2.9,1.8-4.3,2.8
			C149.8,69.4,149.9,69.6,150,69.5L150,69.5z"/>
	</g>
	<g>
		<path class="st0" d="M153.6,70.4c3.1-2.2,6.2-4.5,9.3-6.7c0.3-0.2,0-0.7-0.3-0.5c-3.1,2.3-6.1,4.7-9.1,7.1
			C153.4,70.3,153.5,70.4,153.6,70.4L153.6,70.4z"/>
	</g>
	<g>
		<path class="st0" d="M159,68.5c1.2-1.2,2.4-2.2,3.9-3c0.3-0.2,0-0.7-0.3-0.5c-1.5,0.8-2.9,1.9-3.9,3.3
			C158.6,68.4,158.9,68.6,159,68.5L159,68.5z"/>
	</g>
	<g>
		<path class="st0" d="M141.5,59.8c0.6-0.6,1.3-1.2,2.1-1.4c0.5-0.2,0.3-0.9-0.2-0.8c-1,0.3-1.9,0.9-2.4,1.8
			C140.8,59.7,141.3,60,141.5,59.8L141.5,59.8z"/>
	</g>
	<g>
		<path class="st0" d="M140.3,53.3c3.3-6,15.8,1.4,19.8,3.1c0.5,0.2,0.9-0.5,0.4-0.7c-4.2-1.9-8.8-4.5-13.4-5.1
			c-2.3-0.3-6.2-0.2-7,2.5C140.1,53.3,140.2,53.4,140.3,53.3L140.3,53.3z"/>
	</g>
	<g>
		<path class="st0" d="M83.2,28.4c2.5-0.2,4.9,0.4,6.7,2.3c1,1,1.5,2.1,3,1.7c1.2-0.4,2.2-0.8,3.5-0.7c1.4,0.1,2.8,0.4,4.2,0.6
			c2.4,0.4,4.8,0.8,7.2,1.1c0.4,0,0.4-0.6,0.1-0.6c-2.6-0.5-5.2-0.8-7.8-1.2c-2.2-0.3-4.2-0.7-6.4-0.2c-2.3,0.6-2.5,0.1-3.8-1.2
			c-0.6-0.6-1.3-1.1-2.1-1.4c-1.5-0.7-3.2-0.9-4.8-0.5C83.1,28.2,83.1,28.4,83.2,28.4L83.2,28.4z"/>
	</g>
	<g>
		<path class="st0" d="M154.3,85.7c-6.9,1.2-15.6,3.6-18.4,10.9c-1.4,3.8-1,8-0.3,11.8c1,5.6,2.3,11.1,3.5,16.6
			c2.5,12.1,4.5,24.6,2.6,37c-0.8,5.3-2.4,10.4-2.9,15.7c-0.5,5.7-0.4,11.4-0.2,17.1c0.3,10.4,3.2,20.1,12.2,26.1
			c0.4,0.3,0.8-0.4,0.4-0.7c-5.4-3.9-9.2-9.3-10.8-15.9c-1.4-6-1.2-12.5-1.2-18.6c0-13.1,4.6-25.5,3.9-38.7
			c-0.6-12.4-3.7-24.5-6.3-36.6c-1.3-6.3-2.5-13.3,2.6-18.3c3.9-3.8,9.7-5,14.7-6.3C154.5,85.9,154.4,85.7,154.3,85.7L154.3,85.7z"
			/>
	</g>
	<g>
		<path class="st0" d="M177.2,92.3c15.2,8.9,23.3,26.4,25,43.3c2.1,21-4.6,42.1-11.2,61.8c-0.2,0.4,0.6,0.6,0.7,0.2
			c6.7-20.6,14.3-42.1,11.2-64.1C200.5,116.7,192.4,100.7,177.2,92.3C177.2,92.2,177.1,92.3,177.2,92.3L177.2,92.3z"/>
	</g>
	<g>
		<path class="st0" d="M188.5,204.7c-1,1.5-1.7,3-2.3,4.7c-0.1,0.3,0.4,0.4,0.4,0.1C187.1,207.8,187.7,206.2,188.5,204.7
			C188.6,204.7,188.5,204.6,188.5,204.7L188.5,204.7z"/>
	</g>
	<g>
		<path class="st0" d="M187.9,202.5c-0.3,2.1-0.7,4.1-1.1,6.1c-0.1,0.4,0.5,0.5,0.6,0.2c0.6-2,0.9-4.1,1-6.2
			C188.4,202.2,187.9,202.2,187.9,202.5L187.9,202.5z"/>
	</g>
	<g>
		<path class="st0" d="M128,94c6.8-3.3,13.7-6.5,20.6-9.8c0.6-0.3,0.1-1-0.5-0.8c-7,3-13.8,6.4-20.5,10
			C127.2,93.6,127.6,94.2,128,94L128,94z"/>
	</g>
	<g>
		<path class="st0" d="M127,98.3c5.2-3.4,10.3-6.3,16.1-8.6c0.5-0.2,0.3-1-0.2-0.8c-5.8,2.2-11.4,5.1-16.2,9
			C126.4,98.1,126.8,98.5,127,98.3L127,98.3z"/>
	</g>
	<g>
		<path class="st0" d="M127.1,99.5c2.9-1.9,6-3.5,9.1-4.9c0.4-0.2,0.1-0.8-0.3-0.6c-3.2,1.4-6.2,3.1-9,5.1
			C126.7,99.3,126.9,99.7,127.1,99.5L127.1,99.5z"/>
	</g>
	<g>
		<path class="st0" d="M127.6,103.3c3.7-2.1,7.5-4.4,10.9-6.9c0.4-0.3,0.1-0.9-0.4-0.6c-3.7,2-7.3,4.6-10.7,7.1
			C127,103,127.3,103.5,127.6,103.3L127.6,103.3z"/>
	</g>
	<g>
		<path class="st0" d="M127.6,106.2c2.8-1.9,5.7-3.6,8.6-5.4c-0.2-0.2-0.4-0.4-0.5-0.5c-0.2,0.3-0.4,0.5-0.6,0.8
			c-0.2,0.3,0.3,0.7,0.5,0.4c0.2-0.2,0.4-0.5,0.6-0.7c0.3-0.3-0.1-0.8-0.5-0.6c-3,1.5-5.9,3.5-8.5,5.6
			C127,106,127.3,106.4,127.6,106.2L127.6,106.2z"/>
	</g>
	<g>
		<path class="st0" d="M127.2,109.8c3.2-1.8,6.3-3.9,9.3-6c0.3-0.3,0-0.8-0.3-0.6c-3.1,2-6.2,4.1-9.1,6.4
			C126.9,109.7,127.1,109.9,127.2,109.8L127.2,109.8z"/>
	</g>
	<g>
		<path class="st0" d="M127.8,113.6c0.7-0.5,8.1-5.7,8-5.8c-0.2-0.2-0.6,0.1-0.4,0.3c0,0,0,0.1,0.1,0.1c0.1,0.1,0.2,0.2,0.3,0.1
			c0.3-0.1,0.3-0.1,0.4-0.4c0-0.1,0-0.3-0.1-0.3c-1.1-0.5-2.4,1.1-3.2,1.7c-1.8,1.3-3.5,2.6-5.2,4
			C127.4,113.4,127.6,113.8,127.8,113.6L127.8,113.6z"/>
	</g>
	<g>
		<path class="st0" d="M128.7,116.7c2.8-1.7,5.8-3.5,8.6-5.3c0.5-0.3,0.1-1-0.4-0.7c-3,1.3-6,3.4-8.5,5.5
			C128,116.5,128.4,116.9,128.7,116.7L128.7,116.7z"/>
	</g>
	<g>
		<path class="st0" d="M128.9,120.5c3.2-1.5,6.3-3.1,9.4-4.7c-0.2-0.2-0.3-0.4-0.5-0.7c-0.4,0.4-0.9,0.9-1.3,1.3
			c-0.4,0.4,0.2,0.9,0.5,0.5c0.5-0.4,0.9-0.8,1.4-1.3c0.4-0.3-0.1-0.9-0.5-0.7c-3.1,1.6-6.2,3.3-9.2,5
			C128.4,120.3,128.6,120.7,128.9,120.5L128.9,120.5z"/>
	</g>
	<g>
		<path class="st0" d="M130.1,123.9c2.9-1.5,5.7-3.2,8.6-4.9c-0.2-0.2-0.4-0.5-0.6-0.7c-0.7,0.6-1.3,1.2-2,1.7
			c-0.4,0.4,0.2,0.9,0.6,0.6c0.7-0.5,1.4-1.1,2-1.7c0.4-0.3-0.1-1-0.6-0.7c-2.8,1.7-5.7,3.4-8.4,5.1
			C129.5,123.6,129.8,124.1,130.1,123.9L130.1,123.9z"/>
	</g>
	<g>
		<path class="st0" d="M128.6,128.6c3.1-1.5,6.2-3.1,9.1-4.9c-0.2-0.2-0.4-0.5-0.6-0.7c-0.2,0.2-0.5,0.5-0.7,0.7
			c-0.4,0.4,0.2,0.9,0.6,0.6c0.3-0.2,0.5-0.4,0.8-0.6c0.4-0.3-0.1-1-0.6-0.7c-3,1.6-6,3.4-8.9,5.3
			C128.1,128.4,128.4,128.8,128.6,128.6L128.6,128.6z"/>
	</g>
	<g>
		<path class="st0" d="M129.5,132.5c3.3-1.8,6.3-4.1,9.4-6.3c-0.2-0.1-0.4-0.3-0.7-0.4c0,0.4,0,0.7,0,1.1c0,0.5,0.8,0.5,0.8,0
			c0.1-0.4,0.1-0.7,0.1-1.1c0-0.3-0.4-0.6-0.7-0.4c-3,2.3-6.2,4.4-9.2,6.7C129,132.3,129.3,132.6,129.5,132.5L129.5,132.5z"/>
	</g>
	<g>
		<path class="st0" d="M129.7,136.8c1.7-1.1,3.4-2.2,5-3.3c0.8-0.5,1.6-1,2.3-1.5c0.5-0.3,2.3-1.9,2.9-1.7c-0.1-0.2-0.2-0.4-0.3-0.6
			c0,0.1,0,0.1-0.1,0.2c-0.2,0.5,0.6,0.8,0.8,0.3c0,0,0.1-0.1,0.1-0.1c0.1-0.2,0-0.5-0.2-0.6c-1.4-0.8-3.1,1.2-4.1,1.9
			c-2.3,1.6-4.6,3.2-6.8,4.9C129.1,136.6,129.3,137,129.7,136.8L129.7,136.8z"/>
	</g>
	<g>
		<path class="st0" d="M129.1,141.9c2.1-1.4,4.1-2.8,6.1-4.2c1-0.7,2-1.4,3-2.1c0.3-0.2,2.6-1.6,2.5-1.4c-0.3,0.5,0.4,0.9,0.8,0.5
			c0.6-0.8,0.5-1.3-0.1-2.1c-0.1-0.2-0.5-0.2-0.7-0.1c-4,2.9-8.1,5.7-12,8.7C128.4,141.5,128.7,142.1,129.1,141.9L129.1,141.9z"/>
	</g>
	<g>
		<path class="st0" d="M130,144.7c4.4-2.4,8.7-4.9,13-7.5c-0.3-0.2-0.5-0.4-0.8-0.6c-0.5,1.1-1.1,1.9-2,2.7c-0.4,0.3,0.1,1,0.5,0.7
			c1.1-0.8,1.9-1.7,2.5-3c0.2-0.5-0.2-1-0.7-0.7c-4.3,2.6-8.5,5.2-12.7,7.9C129.3,144.4,129.6,144.8,130,144.7L130,144.7z"/>
	</g>
	<g>
		<path class="st0" d="M129.8,150.5c4.8-2.8,9.5-5.6,14.4-8.3c-0.3-0.3-0.6-0.6-0.9-0.9c-0.4,0.8-0.7,1.6-1.1,2.4
			c-0.3,0.6,0.5,1.1,0.9,0.5c0.5-0.7,0.9-1.5,1.4-2.2c0.4-0.6-0.3-1.2-0.9-0.9c-4.8,2.7-9.6,5.5-14.1,8.7
			C128.9,150.1,129.3,150.7,129.8,150.5L129.8,150.5z"/>
	</g>
	<g>
		<path class="st0" d="M129.8,154.4c3.9-2.1,8.2-4.2,11.8-6.8c0.5-0.3,0.1-1-0.5-0.8c-4,1.8-8,4.5-11.7,7
			C129.1,154.1,129.4,154.6,129.8,154.4L129.8,154.4z"/>
	</g>
	<g>
		<path class="st0" d="M129.4,159.1c4.7-2.3,9.4-5.2,13.8-8c-0.3-0.1-0.5-0.2-0.8-0.3c0.1,0.3,0.1,0.5,0.2,0.8
			c0.1,0.6,1,0.3,0.9-0.3c0-0.3-0.1-0.5-0.1-0.8c0-0.3-0.5-0.5-0.8-0.3c-4.6,2.6-9.3,5.4-13.5,8.5
			C129,158.9,129.2,159.3,129.4,159.1L129.4,159.1z"/>
	</g>
	<g>
		<path class="st0" d="M129.5,162.9c5.1-2.3,10.1-4.8,15-7.4c-0.3-0.3-0.5-0.5-0.8-0.8c-0.5,0.8-1,1.6-1.5,2.3
			c-0.3,0.4,0.4,0.9,0.7,0.5c0.6-0.7,1.1-1.5,1.7-2.2c0.4-0.5-0.1-1.2-0.7-0.9c-5,2.5-9.9,5.2-14.7,7.9
			C128.9,162.6,129.2,163.1,129.5,162.9L129.5,162.9z"/>
	</g>
	<g>
		<path class="st0" d="M129.7,167c1.7-0.8,3.4-1.8,5-2.8c1.1-0.6,4.5-3.3,5.6-2.5c0.4,0.3,0.9-0.4,0.6-0.7c-1.1-1.2-2.7,0.1-3.8,0.8
			c-2.6,1.6-5.2,3.1-7.6,4.9C129.2,166.7,129.4,167.1,129.7,167L129.7,167z"/>
	</g>
	<g>
		<path class="st0" d="M129.9,172.3c3.5-2.4,7.2-4.3,11-6.2c0.4-0.2,0.1-0.9-0.3-0.7c-4,1.3-7.9,3.8-11,6.6
			C129.4,172.1,129.7,172.4,129.9,172.3L129.9,172.3z"/>
	</g>
	<g>
		<path class="st0" d="M130.5,175.6c2.9-2.3,5.9-4.3,8.9-6.3c-0.3-0.2-0.5-0.4-0.8-0.6c-0.2,0.3-0.4,0.6-0.7,0.8
			c-0.5,0.3-0.1,1,0.5,0.8c0.7-0.3,0.9-0.6,1.2-1.3c0.2-0.4-0.4-0.8-0.8-0.6c-3.2,1.8-6.2,4.2-8.8,6.8
			C129.9,175.5,130.2,175.8,130.5,175.6L130.5,175.6z"/>
	</g>
	<g>
		<path class="st0" d="M129.3,178.7c3.2-1.3,6.2-3.6,8.9-5.7c-0.3-0.1-0.6-0.2-0.9-0.2c-0.1,0.2-0.1,0.4-0.2,0.5
			c-0.3,0.4,0.4,1,0.7,0.6c0.4-0.4,0.5-0.7,0.5-1.3c0-0.5-0.5-0.6-0.9-0.4c-2.7,2.2-5.6,3.9-8.3,6
			C128.9,178.4,129,178.8,129.3,178.7L129.3,178.7z"/>
	</g>
	<g>
		<path class="st0" d="M129.8,181.2c0.4,1.1,1.7,0.1,2.3-0.2c2.2-1.5,4.5-2.9,6.6-4.4c0.4-0.3,0-1-0.4-0.7c-0.8,0.5-7.7,5.9-8.1,5.3
			C130,181,129.7,181.1,129.8,181.2L129.8,181.2z"/>
	</g>
	<g>
		<path class="st0" d="M131.5,185.4c2.7-1.9,5.4-3.8,8.3-5.4c0.4-0.3,0.1-0.9-0.4-0.7c-2.9,1.4-5.9,3.5-8.2,5.8
			C131.1,185.2,131.3,185.5,131.5,185.4L131.5,185.4z"/>
	</g>
	<g>
		<path class="st0" d="M130.4,188.8c1.2-0.3,2.4-0.9,3.6-1.4c1.3-0.6,2.7-1.1,4-1.8c0.5-0.2,0.1-1.1-0.4-0.9
			c-1.2,0.5-2.4,1.1-3.5,1.7c-1.3,0.6-2.7,1.2-3.8,2C130.1,188.6,130.2,188.9,130.4,188.8L130.4,188.8z"/>
	</g>
	<g>
		<path class="st0" d="M129.4,193.2c3.4-1.4,6.9-3.1,10.1-4.9c0.5-0.3,0.1-1-0.5-0.8c-3.4,1.5-6.7,3.3-9.9,5.1
			C128.8,192.8,129,193.4,129.4,193.2L129.4,193.2z"/>
	</g>
	<g>
		<path class="st0" d="M129.3,197.6c1.4-0.9,2.8-1.8,4.2-2.7c0.5-0.4,4.6-2.9,4.6-2.9c0.1,0.5,0.9,0.3,0.8-0.2
			c-0.3-1.5-2-0.3-2.6,0.2c-2.4,1.7-4.8,3.5-7.2,5.3C128.9,197.4,129.1,197.7,129.3,197.6L129.3,197.6z"/>
	</g>
	<g>
		<path class="st0" d="M129,201c3.1-2.2,6.4-4,9.8-5.8c0.4-0.2,0.1-0.9-0.4-0.7c-3.5,1.5-6.7,3.7-9.7,6
			C128.5,200.8,128.8,201.2,129,201L129,201z"/>
	</g>
	<g>
		<path class="st0" d="M130.1,202.9c2.5-1.6,5.1-3.2,7.5-4.8c0.4-0.3,0-0.9-0.4-0.6c-2.5,1.6-5,3.3-7.5,4.9
			C129.4,202.5,129.8,203.1,130.1,202.9L130.1,202.9z"/>
	</g>
	<g>
		<path class="st0" d="M131.5,205.7c2.8-1.7,5.5-3.4,8.2-5.2c0.3-0.2,0-0.5-0.2-0.4c-2.9,1.3-5.9,3.2-8.3,5.3
			C131.1,205.5,131.3,205.8,131.5,205.7L131.5,205.7z"/>
	</g>
	<g>
		<path class="st0" d="M132.5,208.8c2.4-1.5,4.9-2.9,7.2-4.4c0.3-0.2,0-0.6-0.3-0.5c-2.5,1.3-4.8,3.1-7,4.8
			C132.4,208.7,132.5,208.9,132.5,208.8L132.5,208.8z"/>
	</g>
	<g>
		<path class="st0" d="M134.7,211.8c2.5-1.5,5.1-3.2,7.3-5.1c0.3-0.3-0.1-0.8-0.5-0.6c-2.5,1.5-4.9,3.4-7.1,5.3
			C134.3,211.6,134.5,211.9,134.7,211.8L134.7,211.8z"/>
	</g>
	<g>
		<path class="st0" d="M137.1,214.2c2.1-1.2,4.2-2.6,6.1-4.1c0.4-0.3,0.1-1-0.4-0.7c-2.1,1.3-4.2,2.7-6.1,4.2
			C136.3,213.9,136.7,214.4,137.1,214.2L137.1,214.2z"/>
	</g>
	<g>
		<path class="st0" d="M139.5,216.5c1.7-0.9,3.4-1.8,5.1-2.8c0.5-0.3,0-1-0.4-0.7c-1.6,1.1-3.2,2.2-4.8,3.3
			C139.2,216.4,139.3,216.6,139.5,216.5L139.5,216.5z"/>
	</g>
	<g>
		<path class="st0" d="M143.2,218.7c0.6-0.6,1.2-1.2,1.9-1.6c0.7-0.4,1.4-0.7,2.1-1.1c0.4-0.3,0.1-1-0.3-0.8
			c-1.6,0.4-3.1,1.9-4.1,3.2C142.5,218.6,143,218.9,143.2,218.7L143.2,218.7z"/>
	</g>
	<g>
		<path class="st0" d="M146.5,220c0.5-0.3,1-0.7,1.5-1c0.7-0.5,0-1.5-0.7-0.9c-0.5,0.4-0.9,0.7-1.4,1.1
			C145.3,219.5,146,220.4,146.5,220L146.5,220z"/>
	</g>
	<g>
		<path class="st0" d="M180.8,93.6c1.4-1,3-1.7,4.6-2.1c0.5-0.1,0.3-0.9-0.2-0.8c-1.7,0.5-3.3,1.2-4.7,2.3
			C180.1,93.2,180.4,93.8,180.8,93.6L180.8,93.6z"/>
	</g>
	<g>
		<path class="st0" d="M181.8,95.4c1.8-0.6,3.8-1.3,5.6-2.2c0.5-0.3,0.2-1.1-0.4-0.9c-1.9,0.5-3.7,1.5-5.5,2.3
			C181,94.8,181.3,95.6,181.8,95.4L181.8,95.4z"/>
	</g>
	<g>
		<path class="st0" d="M184.2,96.9c2.2-0.2,4.7-0.9,6.7-1.9c0.5-0.2,0.1-1-0.4-0.8c-2.1,0.8-4.2,1.5-6.4,2.1
			C183.8,96.4,183.9,96.9,184.2,96.9L184.2,96.9z"/>
	</g>
	<g>
		<path class="st0" d="M186.4,98.7c1.8-0.2,3.7-0.7,5.5-1.1c0.5-0.1,0.3-0.8-0.2-0.7c-1.8,0.5-3.6,0.8-5.3,1.5
			C186.2,98.4,186.2,98.7,186.4,98.7L186.4,98.7z"/>
	</g>
	<g>
		<path class="st0" d="M187.6,102.3c2.4-0.3,4.7-1,6.9-2c0.4-0.2,0.1-0.8-0.3-0.6c-2.2,0.9-4.4,1.6-6.8,2.2
			C187.2,101.9,187.3,102.3,187.6,102.3L187.6,102.3z"/>
	</g>
	<g>
		<path class="st0" d="M190.1,105.1c1.9-0.5,3.9-1,5.8-1.8c0.4-0.1,0.2-0.7-0.2-0.6c-1.9,0.5-3.9,1.3-5.7,2
			C189.8,104.8,189.8,105.1,190.1,105.1L190.1,105.1z"/>
	</g>
	<g>
		<path class="st0" d="M192.7,107.7c2.1-0.5,4.3-1.3,6.2-2.3c0.3-0.2,0.1-0.8-0.3-0.6c-2,0.7-4.1,1.7-6.1,2.6
			C192.3,107.4,192.4,107.8,192.7,107.7L192.7,107.7z"/>
	</g>
	<g>
		<path class="st0" d="M195.2,109.9c1.6-0.3,3.2-0.7,4.7-1.1c0.5-0.1,0.3-0.9-0.2-0.7c-1.6,0.4-3.1,0.8-4.7,1.3
			C194.6,109.4,194.8,109.9,195.2,109.9L195.2,109.9z"/>
	</g>
	<g>
		<path class="st0" d="M196.7,113.2c1.4-0.5,2.8-0.7,4.3-0.9c0.4-0.1,0.3-0.7-0.1-0.7c-1.5,0-3.1,0.5-4.4,1.1
			C196.1,112.8,196.3,113.3,196.7,113.2L196.7,113.2z"/>
	</g>
	<g>
		<path class="st0" d="M198,115.2c-0.6,0-0.6,0.8,0,1c0.6,0.2,1.5-0.2,2-0.4c0.9-0.2,1.8-0.5,2.7-0.7c0.5-0.2,0.3-0.9-0.2-0.8
			c-0.7,0.2-1.5,0.4-2.2,0.7c-0.3,0.1-0.7,0.2-1,0.3c-0.2,0.1-0.3,0.1-0.5,0.2c-0.2,0.1-0.5,0.2-0.8,0.1
			C198.2,115.5,198.2,115.2,198,115.2L198,115.2z"/>
	</g>
	<g>
		<path class="st0" d="M198.1,118.6c2.2-0.4,4.3-0.7,6.5-0.9c0.4-0.1,0.3-0.8-0.1-0.7c-2.2,0.1-4.4,0.6-6.5,1.3
			C197.7,118.3,197.8,118.6,198.1,118.6L198.1,118.6z"/>
	</g>
	<g>
		<path class="st0" d="M200.1,121.8c0.8,0.1,1.6,0,2.4-0.1c0.8-0.1,1.6-0.1,2.4-0.3c0.4-0.1,0.3-0.7-0.1-0.7c-0.8,0-1.6,0.2-2.4,0.3
			c-0.8,0.1-1.6,0.2-2.3,0.5C200,121.6,200,121.8,200.1,121.8L200.1,121.8z"/>
	</g>
	<g>
		<path class="st0" d="M200.9,126.6c0.6,0,1.3-0.2,1.9-0.3c0.7-0.1,1.4-0.3,2.1-0.5c0.5-0.1,0.3-1-0.2-0.8c-0.7,0.2-1.4,0.4-2.1,0.6
			c-0.6,0.2-1.2,0.3-1.8,0.7C200.7,126.3,200.7,126.6,200.9,126.6L200.9,126.6z"/>
	</g>
	<g>
		<path class="st0" d="M202.1,131.6c1.3-0.5,2.6-0.8,3.9-1.3c0.4-0.1,0.4-0.8-0.1-0.8c-1.4,0.1-2.9,0.7-4.1,1.4
			C201.4,131.1,201.7,131.8,202.1,131.6L202.1,131.6z"/>
	</g>
	<g>
		<path class="st0" d="M202.3,135.5c1.1-1,2.3-1.2,3.7-1.1c0.5,0,0.6-0.7,0.1-0.8c-1.6-0.4-3.2,0.3-4.3,1.4
			C201.5,135.4,202,135.8,202.3,135.5L202.3,135.5z"/>
	</g>
	<g>
		<path class="st0" d="M202.7,139.8c1.4-0.6,2.7-0.8,4.3-0.8c0.6,0,0.6-0.8,0-0.9c-1.5-0.2-3.3,0.2-4.6,1.2
			C202.2,139.4,202.3,139.9,202.7,139.8L202.7,139.8z"/>
	</g>
	<g>
		<path class="st0" d="M202.2,145c1.8-0.9,3.8-2.1,5.4-3.3c0.4-0.3,0.1-0.9-0.4-0.7c-1.8,1-3.7,2.3-5.3,3.6
			C201.6,144.8,201.9,145.1,202.2,145L202.2,145z"/>
	</g>
	<g>
		<path class="st0" d="M202.3,149.2c1.9-1.3,3.6-2.7,5.4-4.1c-0.3-0.1-0.6-0.2-0.8-0.4c0.1,0.4,0,0.8-0.2,1.2
			c-0.2,0.5,0.4,0.9,0.7,0.4c0.3-0.5,0.5-1,0.4-1.6c0-0.4-0.5-0.6-0.8-0.4c-1.7,1.4-3.4,2.8-5.1,4.3
			C201.6,148.9,202,149.4,202.3,149.2L202.3,149.2z"/>
	</g>
	<g>
		<path class="st0" d="M202.8,152.9c1.2-1.7,2.7-2.7,4.6-3.4c0.6-0.2,0.3-1.1-0.2-0.9c-2.1,0.6-3.9,2.1-5,3.9
			C202,152.9,202.6,153.3,202.8,152.9L202.8,152.9z"/>
	</g>
	<g>
		<path class="st0" d="M201.8,157.6c1.5-1,3-2,4.5-3c-0.3-0.1-0.5-0.2-0.8-0.3c0.1,0.2,0.1,0.5,0,0.7c-0.2,0.5,0.6,0.8,0.9,0.4
			c0.3-0.4,0.3-0.8,0.2-1.3c-0.1-0.3-0.5-0.5-0.8-0.3c-1.5,1-2.9,2.2-4.3,3.3C201,157.3,201.4,157.9,201.8,157.6L201.8,157.6z"/>
	</g>
	<g>
		<path class="st0" d="M200.4,162.1c1-0.3,1.8-1.1,2.7-1.6c0.9-0.6,1.8-1.1,2.6-1.8c0.3-0.3,0-0.9-0.4-0.7c-1,0.4-2,1.1-2.9,1.8
			c-0.8,0.6-1.7,1.1-2.3,1.9C199.9,161.9,200.2,162.2,200.4,162.1L200.4,162.1z"/>
	</g>
	<g>
		<path class="st0" d="M200.7,165.5c1.4-1,2.8-2.1,4.1-3.2c0.5-0.4-0.2-1-0.7-0.7c-1.3,1.1-2.6,2.2-3.9,3.3
			C200,165.3,200.3,165.8,200.7,165.5L200.7,165.5z"/>
	</g>
	<g>
		<path class="st0" d="M199,171.1c2.7-1.7,5.4-3.3,8.2-4.9c0.5-0.3,0.1-1-0.5-0.8c-2.8,1.4-5.6,3.3-8,5.4
			C198.5,170.9,198.7,171.3,199,171.1L199,171.1z"/>
	</g>
	<g>
		<path class="st0" d="M198.9,175.5c2.1-1.1,4.1-2.5,5.8-4.1c0.4-0.3-0.1-1-0.5-0.7c-1.9,1.3-3.9,2.8-5.7,4.3
			C198.3,175.2,198.6,175.6,198.9,175.5L198.9,175.5z"/>
	</g>
	<g>
		<path class="st0" d="M197.1,180.5c2.2-1.3,4.7-2.5,6.6-4.1c0.5-0.4-0.1-1-0.6-0.8c-2.2,1-4.3,2.8-6.4,4.2
			C196.4,180.1,196.7,180.8,197.1,180.5L197.1,180.5z"/>
	</g>
	<g>
		<path class="st0" d="M195.7,185.2c1.6-0.8,3.5-1.7,4.8-2.9c0.4-0.3,0-1.1-0.5-0.9c-1.7,0.7-3.3,2-4.8,3
			C194.8,184.8,195.2,185.4,195.7,185.2L195.7,185.2z"/>
	</g>
	<g>
		<path class="st0" d="M194.5,188.7c1.6-0.8,3.4-1.8,4.6-3.1c0.4-0.4-0.1-1.1-0.6-0.8c-1.5,1-2.9,2.2-4.4,3.2
			C193.7,188.3,194.1,188.9,194.5,188.7L194.5,188.7z"/>
	</g>
	<g>
		<path class="st0" d="M192.6,193.8c1.7-0.6,3.5-1,5.2-1.8c0.5-0.2,0.1-0.9-0.3-0.8c-1.7,0.5-3.4,1.3-5,1.9
			C192.1,193.3,192.2,194,192.6,193.8L192.6,193.8z"/>
	</g>
	<g>
		<path class="st0" d="M192.5,197.1c0.8-0.6,1.6-0.9,2.6-1c0.6-0.1,0.6-1,0-1c-1.2-0.1-2.4,0.5-3.1,1.4
			C191.6,196.9,192.1,197.4,192.5,197.1L192.5,197.1z"/>
	</g>
	<g>
		<path class="st0" d="M190,200.3c1.2-1,2.5-1.8,3.9-2.4c0.5-0.2,0.1-1.1-0.4-0.9c-1.6,0.6-3,1.5-4.2,2.7
			C188.9,200.1,189.5,200.7,190,200.3L190,200.3z"/>
	</g>
	<g>
		<path class="st0" d="M113.7,83.2c-14.2-7.5-30.4,2.3-40,13c-5.1,5.7-7.4,12.5-8.5,19.9c-1.3,9.4-1.6,19-2.3,28.4
			c-1.3,16.8-3.1,34.7,2.4,51c2.1,6.1,5.6,10.6,11.5,13.4c5.4,2.6,11.3,3,17.2,1.9c14.5-2.8,27.4-13.8,35.7-25.7
			c0.4-0.5-0.5-1-0.8-0.5c-7.2,10.1-17.4,19.2-29.2,23.5c-12.2,4.5-27.5,2-32.9-11.2c-5.6-13.9-4.7-30-3.7-44.6
			c0.6-8.1,1.2-16.2,1.8-24.3c0.6-7.4,0.9-15,3.6-22c3.2-8.2,10.4-14.9,17.7-19.4c8.2-5.1,18.1-7,27.2-3
			C113.7,84,114.1,83.4,113.7,83.2L113.7,83.2z"/>
	</g>
	<g>
		<path class="st0" d="M32.9,139.9c0,2.4,0.3,7.8,2.8,9.3c2.3,1.3,3.2-1.8,3.8-3.4c3.8-11.1,8-22.4,10.9-33.8
			c0.1-0.3-0.3-0.4-0.4-0.1c-2.8,6.9-4.9,14.3-7.3,21.4c-1.2,3.5-2.3,6.9-3.5,10.4c-0.2,0.7-0.4,2-0.9,2.6c-0.1,0.8-0.6,1.1-1.6,0.9
			c-1.1,0.7-1.7,0.4-1.8-0.7c-1.1-1.6-1.4-4.6-1.6-6.4C33.4,139.6,32.9,139.6,32.9,139.9L32.9,139.9z"/>
	</g>
	<g>
		<path class="st0" d="M51.8,106.3c0.1-0.2,0.2-0.5,0.4-0.7c0,0,0,0,0,0C52,105.8,51.9,106,51.8,106.3
			C51.7,106.3,51.8,106.3,51.8,106.3L51.8,106.3z"/>
	</g>
	<g>
		<path class="st0" d="M52.1,105.2c0.6-3.4,2.5-6.1,4.9-8.5c0.2-0.2-0.1-0.5-0.3-0.3C54,98.6,52.6,101.8,52.1,105.2
			C52.1,105.2,52.1,105.2,52.1,105.2L52.1,105.2z"/>
	</g>
	<g>
		<path class="st0" d="M61.4,90.3c9.4-10.5,21.5-17.9,36-16.1c0.7,0.1,0.8-1,0.2-1.2C83,70,69.9,79.6,61.2,90.2
			C61.2,90.3,61.3,90.4,61.4,90.3L61.4,90.3z"/>
	</g>
	<g>
		<path class="st0" d="M89.4,63.5c4.6,1,9.5,1.8,14,0c4-1.6,7.1-4.7,9.9-8c0.4-0.5-0.3-1.2-0.7-0.7c-2.7,3.2-5.8,6.5-9.9,8
			c-4.3,1.6-8.9,0.8-13.2,0.3C89.2,63.2,89.2,63.5,89.4,63.5L89.4,63.5z"/>
	</g>
	<g>
		<path class="st0" d="M92.9,64.6c-0.5,1.2-1,2.4-1.6,3.5c-0.2,0.3,0.4,0.6,0.5,0.2c0.4-1.2,0.9-2.4,1.3-3.7
			C93.1,64.5,92.9,64.5,92.9,64.6L92.9,64.6z"/>
	</g>
	<g>
		<path class="st0" d="M97.8,64.8c-0.8,0.7-1.6,1.4-2.3,2.1c-0.7,0.7-1.4,1.4-1.8,2.2c-0.2,0.4,0.3,0.7,0.6,0.4
			c0.7-0.6,1.3-1.5,2-2.2c0.7-0.7,1.4-1.4,2.1-2.1C98.7,64.9,98.2,64.5,97.8,64.8L97.8,64.8z"/>
	</g>
	<g>
		<path class="st0" d="M100.5,64.5c-1.8,1.7-3.3,3.8-4.2,6.1C96,71.1,96.7,71.5,97,71c1.1-2.2,2.3-4.2,4-6
			C101.2,64.7,100.8,64.3,100.5,64.5L100.5,64.5z"/>
	</g>
	<g>
		<path class="st0" d="M105.9,62.7c-2.4,2.5-4.3,5.4-5.4,8.7c-0.2,0.5,0.6,0.7,0.8,0.2c1.2-3.1,2.8-5.9,5.1-8.5
			C106.6,62.8,106.2,62.4,105.9,62.7L105.9,62.7z"/>
	</g>
	<g>
		<path class="st0" d="M108.4,63.1c-1.6,2.4-2.9,4.9-3.7,7.6c-0.1,0.3,0.4,0.5,0.5,0.1c0.8-2.7,2-5.2,3.5-7.6
			C108.9,63.1,108.5,62.9,108.4,63.1L108.4,63.1z"/>
	</g>
	<g>
		<path class="st0" d="M113.8,61.5c-2,2.4-3.6,5.1-4.4,8.1c-0.1,0.4,0.5,0.6,0.6,0.2c1.1-2.9,2.3-5.5,4.2-8
			C114.3,61.6,113.9,61.3,113.8,61.5L113.8,61.5z"/>
	</g>
	<g>
		<path class="st0" d="M115.2,62.3c-1,1.5-2.1,3.1-2.9,4.7c-0.2,0.4,0.3,0.7,0.6,0.4c1.1-1.5,1.9-3.2,2.8-4.7
			C115.8,62.3,115.4,62,115.2,62.3L115.2,62.3z"/>
	</g>
	<g>
		<path class="st0" d="M111.9,59c-1,1.3-1.7,2.9-1.8,4.5c0,0.3,0.5,0.4,0.6,0.1c0.4-1.6,0.8-3,1.8-4.3C112.7,59,112.2,58.7,111.9,59
			L111.9,59z"/>
	</g>
	<g>
		<path class="st0" d="M168,63.9c-3.9,4.3-2.5,10.6,1.9,13.9c2.4,1.8,5.2,2.7,8,3.8c4.1,1.5,7.8,3.4,11.2,6.2
			c14.5,11.8,17.9,31.2,18,48.9c0,0.9,1.4,0.9,1.4,0c0.2-15.3-2.1-31.4-12-43.7c-4.1-5.1-9.4-9.4-15.5-11.8c-3.1-1.3-6.6-2-9.5-3.8
			c-4.9-3-5.9-8.2-3.2-13.2C168.3,63.9,168.1,63.8,168,63.9L168,63.9z"/>
	</g>
	<g>
		<path class="st0" d="M158.6,72.8c3-2.3,6.1-4.6,8.9-7.1c0.4-0.4-0.1-1.1-0.6-0.8c-3.1,2.2-5.9,4.8-8.8,7.3
			C157.8,72.5,158.3,73.1,158.6,72.8L158.6,72.8z"/>
	</g>
	<g>
		<path class="st0" d="M158.6,74.3c2.5-1.4,5-3.1,7-5c0.4-0.3-0.1-1-0.5-0.7c-2.3,1.6-4.6,3.4-6.9,5.1
			C157.9,73.9,158.2,74.5,158.6,74.3L158.6,74.3z"/>
	</g>
	<g>
		<path class="st0" d="M157.2,79.4c1.8-0.7,3.4-2,5-3.1c1.7-1.1,3.4-2.1,4.9-3.4c0.4-0.3-0.1-0.9-0.5-0.7c-1.8,1-3.5,2.3-5.2,3.5
			c-1.5,1.1-3.2,2-4.4,3.4C157,79.3,157.1,79.5,157.2,79.4L157.2,79.4z"/>
	</g>
	<g>
		<path class="st0" d="M157.6,80.9c3.9-1.8,7.6-3.9,11.2-6.2c0.5-0.3,0-1-0.4-0.8c-3.7,2.2-7.3,4.4-11,6.5
			C157.1,80.6,157.3,81,157.6,80.9L157.6,80.9z"/>
	</g>
	<g>
		<path class="st0" d="M159.4,82.5c0.7,1.2,2.4-0.1,3.2-0.6c3.1-1.6,6.1-3.2,9.1-5c0.5-0.3,0.1-1-0.4-0.8c-1.8,0.9-3.6,2-5.4,3
			c-0.9,0.5-5.4,3.7-6.3,3.1C159.5,82.1,159.3,82.3,159.4,82.5L159.4,82.5z"/>
	</g>
	<g>
		<path class="st0" d="M163.4,84.1c3.7-1.7,7.4-3.2,11.2-4.5c0.5-0.2,0.3-1-0.2-0.9c-3.9,1.2-7.7,2.9-11.1,5.1
			C163,83.9,163.2,84.2,163.4,84.1L163.4,84.1z"/>
	</g>
	<g>
		<path class="st0" d="M166.6,86.5c4.2-1.1,8.6-3.1,12-5.8c0.4-0.3-0.1-0.9-0.5-0.6c-3.9,2.2-7.5,4.2-11.6,5.9
			C166.2,86.1,166.3,86.6,166.6,86.5L166.6,86.5z"/>
	</g>
	<g>
		<path class="st0" d="M171.7,87.4c3.4-1.5,6.9-3,10.1-4.8c0.4-0.2,0.1-0.9-0.3-0.8c-3.4,1.4-6.8,3.2-10.1,5
			C171,87,171.3,87.6,171.7,87.4L171.7,87.4z"/>
	</g>
	<g>
		<path class="st0" d="M177,87.3c2.5-0.8,5.3-1.6,7.7-2.9c0.5-0.2,0.1-1-0.4-0.9c-2.6,0.7-5.2,2.1-7.6,3.2
			C176.5,86.9,176.7,87.4,177,87.3L177,87.3z"/>
	</g>
	<g>
		<path class="st0" d="M179.3,89.6c3.3-0.9,6.7-2.2,9.8-3.7c0.4-0.2,0.1-0.9-0.3-0.8c-3.2,1.1-6.6,2.6-9.6,4.2
			C178.9,89.4,179.1,89.6,179.3,89.6L179.3,89.6z"/>
	</g>
	<g>
		<path class="st0" d="M184.2,90.9c2.1-1,4.2-1.5,6.5-1.8c0.6-0.1,0.6-0.9,0-0.9c-2.4,0.1-4.9,0.9-6.9,2.2
			C183.5,90.5,183.8,91,184.2,90.9L184.2,90.9z"/>
	</g>
	<g>
		<path class="st0" d="M186.5,94.8c2.4-0.7,4.9-1.3,7.2-2.2c0.6-0.2,0.4-1.1-0.3-0.9c-2.4,0.7-4.8,1.6-7.1,2.5
			C185.9,94.3,186.1,94.9,186.5,94.8L186.5,94.8z"/>
	</g>
	<g>
		<path class="st0" d="M190.1,97.6c2.1-0.8,4.2-1.2,6.4-1.4c0.6-0.1,0.6-0.9,0-1c-2.3,0-4.6,0.7-6.6,1.7
			C189.6,97.2,189.8,97.7,190.1,97.6L190.1,97.6z"/>
	</g>
	<g>
		<path class="st0" d="M193.4,101.3c1.7-0.5,3.5-0.8,5.1-1.5c0.5-0.2,0.3-1-0.2-0.8c-1.7,0.4-3.4,1.1-5,1.6
			C192.8,100.8,193,101.4,193.4,101.3L193.4,101.3z"/>
	</g>
	<g>
		<path class="st0" d="M195.4,103.8c1.7-0.1,3.4-0.4,4.9-1.2c0.5-0.3,0.2-1-0.4-0.9c-1.5,0.5-3,1.1-4.6,1.4
			C194.9,103.2,195,103.8,195.4,103.8L195.4,103.8z"/>
	</g>
	<g>
		<path class="st0" d="M197.5,106.7c0.5,0.3,1.2,0.2,1.8,0.2c0.8,0,1.5-0.1,2.3-0.1c0.7-0.1,0.7-1.2,0-1.1c-0.8,0.1-1.5,0.2-2.3,0.3
			c-0.6,0.1-1.4,0.1-1.8,0.5C197.4,106.5,197.4,106.6,197.5,106.7L197.5,106.7z"/>
	</g>
	<g>
		<path class="st0" d="M199,110.4c1.1,0.1,2.3,0,3.4-0.5c0.5-0.2,0.3-1.1-0.3-0.9c-1,0.3-2,0.5-3.1,0.6
			C198.5,109.6,198.5,110.3,199,110.4L199,110.4z"/>
	</g>
	<g>
		<path class="st0" d="M199.8,113.2c1.2,0.1,2.3,0,3.4-0.5c0.5-0.2,0.2-0.9-0.3-0.7c-1,0.4-2,0.6-3.1,0.5
			C199.4,112.6,199.4,113.2,199.8,113.2L199.8,113.2z"/>
	</g>
	<g>
		<path class="st0" d="M201.9,115.5c0.8,0,1.7,0.1,2.5,0.1c0.3,0,0.3-0.5,0-0.5c-0.8,0-1.7,0-2.5,0.1
			C201.7,115.2,201.7,115.5,201.9,115.5L201.9,115.5z"/>
	</g>
	<g>
		<path class="st0" d="M203.7,118.9c0.6,0.2,1.2,0,1.5-0.6c0.1-0.3-0.2-0.7-0.5-0.4c-0.1,0.1-0.4,0.3-0.6,0.2
			C203.4,117.9,203.1,118.7,203.7,118.9L203.7,118.9z"/>
	</g>
	<g>
		<path class="st0" d="M49.9,185.2c1.1-1.1,2.2-2.1,3.4-3.2c0.6-0.6-0.3-1.5-0.9-0.9c-1.1,1.1-2.1,2.2-3.2,3.4
			C48.8,184.9,49.5,185.6,49.9,185.2L49.9,185.2z"/>
	</g>
	<g>
		<path class="st0" d="M47.1,182.7c1.9-2.1,3.8-4.2,5.6-6.4c0.2-0.3-0.2-0.7-0.4-0.4c-1.9,2.1-3.7,4.3-5.5,6.5
			C46.6,182.6,46.9,183,47.1,182.7L47.1,182.7z"/>
	</g>
	<g>
		<path class="st0" d="M43.9,180.2c2.9-2.3,5.6-4.8,8.3-7.3c0.4-0.3-0.2-0.9-0.5-0.5c-2.7,2.4-5.5,4.8-8.1,7.5
			C43.3,180,43.6,180.4,43.9,180.2L43.9,180.2z"/>
	</g>
	<g>
		<path class="st0" d="M41,177.7c3.5-3.3,7-6.6,10.6-9.6c0.5-0.4-0.2-1.1-0.7-0.7c-3.7,3-7.3,6.2-10.4,9.9
			C40.3,177.6,40.7,178,41,177.7L41,177.7z"/>
	</g>
	<g>
		<path class="st0" d="M39.2,173.7c4.3-3.6,8.6-7.3,12.6-11.3c0.4-0.4-0.2-0.9-0.6-0.6c-4.3,3.6-8.4,7.5-12.4,11.4
			C38.5,173.5,38.9,173.9,39.2,173.7L39.2,173.7z"/>
	</g>
	<g>
		<path class="st0" d="M38.8,169c4.3-3.8,8.8-7.3,13.3-11c0.4-0.4-0.1-1.1-0.6-0.8c-4.7,3.3-9.1,7.3-13.1,11.3
			C38,168.8,38.5,169.3,38.8,169L38.8,169z"/>
	</g>
	<g>
		<path class="st0" d="M37.1,164.7c1.3-2.3,5.2-4.1,7.3-5.6c2.3-1.6,4.6-3.2,6.9-4.9c0.6-0.4,0-1.4-0.6-1c-2.9,2-5.8,4.2-8.7,6.3
			c-1.8,1.3-4.7,2.7-5.6,4.8C36.3,164.8,36.9,165.1,37.1,164.7L37.1,164.7z"/>
	</g>
	<g>
		<path class="st0" d="M35.5,161.7c5.5-4.3,11-8.1,16.9-11.8c0.6-0.4,0.1-1.2-0.5-0.9c-6.1,3-12,7.4-16.9,12.2
			C34.7,161.5,35.2,162,35.5,161.7L35.5,161.7z"/>
	</g>
	<g>
		<path class="st0" d="M35.5,158.6c5.2-4.6,10.7-8.7,16.6-12.5c0.7-0.4,0.1-1.5-0.6-1.1c-6,3.6-11.5,8-16.5,13
			C34.6,158.4,35.1,158.9,35.5,158.6L35.5,158.6z"/>
	</g>
	<g>
		<path class="st0" d="M34.4,154.8c5.7-5,11.4-9.4,18.2-12.7c0.7-0.3,0.1-1.3-0.6-1c-6.7,3.2-13.3,7.5-18.2,13.2
			C33.6,154.7,34,155.1,34.4,154.8L34.4,154.8z"/>
	</g>
	<g>
		<path class="st0" d="M38.9,145.8c4.5-4.1,10.2-7.2,15.3-10.5c0.6-0.4,0.1-1.3-0.5-0.9c-2.9,1.7-5.7,3.6-8.5,5.5
			c-2.3,1.6-5,3.2-6.8,5.4C38.2,145.7,38.6,146.1,38.9,145.8L38.9,145.8z"/>
	</g>
	<g>
		<path class="st0" d="M41.6,139.2c2.2-0.9,3.8-2.8,5.8-4.1c2.4-1.6,4.9-3,7.4-4.5c0.5-0.3,0.1-1-0.4-0.7c-2.5,1.2-4.9,2.5-7.1,4.1
			c-2,1.4-3.7,3.5-5.9,4.7C41,138.8,41.2,139.4,41.6,139.2L41.6,139.2z"/>
	</g>
	<g>
		<path class="st0" d="M44.7,132.8c3.6-2.5,7.3-5.1,10.9-7.7c0.5-0.4,0.1-1.1-0.5-0.8c-3.9,2.1-7.6,4.9-10.8,7.9
			C44,132.5,44.4,133,44.7,132.8L44.7,132.8z"/>
	</g>
	<g>
		<path class="st0" d="M47,127.2c0.7-1.2,2.2-2,3.3-2.8c1.1-0.8,2.2-1.5,3.4-2.2c0.5-0.3,0-1.1-0.4-0.8c-1.4,0.9-2.8,1.8-4.2,2.8
			c-1,0.7-2.1,1.4-2.7,2.6C46.3,127.3,46.8,127.6,47,127.2L47,127.2z"/>
	</g>
	<g>
		<path class="st0" d="M47.7,123c0-0.3,1.8-1.2,2-1.4c0.7-0.4,1.4-0.8,2.1-1.2c1.4-0.8,2.8-1.5,4.3-2.3c0.6-0.3,0.1-1.1-0.5-0.9
			c-2,0.9-4,2-5.8,3.2c-0.8,0.5-3,1.4-2.9,2.5C46.9,123.5,47.7,123.5,47.7,123L47.7,123z"/>
	</g>
	<g>
		<path class="st0" d="M47.8,119.9c1-1,2.9-1.7,4.2-2.4c1.4-0.8,2.8-1.6,4.2-2.5c0.5-0.3,0.1-1-0.5-0.8c-1.7,0.9-3.4,1.9-5.1,2.9
			c-1,0.6-2.8,1.3-3.3,2.4C47.2,119.9,47.6,120.2,47.8,119.9L47.8,119.9z"/>
	</g>
	<g>
		<path class="st0" d="M49.9,115.8c2-1.8,4.2-3.4,6.5-4.7c0.6-0.3,0.1-1.2-0.5-0.9c-2.5,1.3-4.6,3-6.5,5
			C49.1,115.6,49.6,116.1,49.9,115.8L49.9,115.8z"/>
	</g>
	<g>
		<path class="st0" d="M51.1,110.7c2.5-1.6,5-3.3,7.3-5.1c0.4-0.3,0-1.1-0.5-0.8c-2.5,1.7-5,3.4-7.3,5.3
			C50.3,110.4,50.8,111,51.1,110.7L51.1,110.7z"/>
	</g>
	<g>
		<path class="st0" d="M52.6,105.9c1.8-1.5,3.7-2.8,5.7-4c0.5-0.3,0.1-1.1-0.5-0.8c-2.1,1.2-4,2.6-5.7,4.3
			C51.7,105.7,52.2,106.2,52.6,105.9L52.6,105.9z"/>
	</g>
	<g>
		<path class="st0" d="M53.8,101c2.9-1.4,5.8-2.7,8.6-4.2c0.5-0.3,0.1-1-0.5-0.8c-2.9,1.4-5.7,2.9-8.5,4.4
			C53,100.6,53.4,101.2,53.8,101L53.8,101z"/>
	</g>
	<g>
		<path class="st0" d="M58,96.3c1-1,2.7-1.4,4-1.9c1.2-0.5,2.5-1,3.7-1.5c0.6-0.3,0.1-1.1-0.5-0.9c-1.6,0.7-3.3,1.4-4.9,2.2
			c-1,0.5-2,0.8-2.7,1.7C57.4,96.2,57.8,96.5,58,96.3L58,96.3z"/>
	</g>
	<g>
		<path class="st0" d="M60.9,91.2c0-0.6,2.5-1.2,3-1.3c1-0.4,2-0.7,3-1.1c0.6-0.2,0.3-1.2-0.3-0.9c-1.6,0.6-3.2,1.2-4.8,1.8
			c-0.7,0.3-1.7,0.6-1.7,1.5C60.2,91.7,60.9,91.7,60.9,91.2L60.9,91.2z"/>
	</g>
	<g>
		<path class="st0" d="M65.7,86.1c3.7-0.8,7.4-1.6,11.1-2.4c0.7-0.2,0.4-1.1-0.3-1c-3.7,0.5-7.5,1.4-11.1,2.5
			C64.8,85.4,65.1,86.2,65.7,86.1L65.7,86.1z"/>
	</g>
	<g>
		<path class="st0" d="M72.4,80.7c3.8,0.2,7.6,0.1,11.4-0.2c0.6-0.1,0.7-1,0-1c-3.8,0.1-7.6,0.2-11.4,0.5
			C71.9,80,71.9,80.7,72.4,80.7L72.4,80.7z"/>
	</g>
	<g>
		<path class="st0" d="M79.3,76.9c3.7-0.1,7.7,1.2,11.4,1.6c0.6,0.1,0.8-1,0.1-1.1c-2.2-0.4-4.5-0.7-6.7-1.1c-1.6-0.2-3.3-0.6-5-0.4
			C78.6,76.1,78.8,76.9,79.3,76.9L79.3,76.9z"/>
	</g>
	<g>
		<path class="st0" d="M88.2,75c2.2,0.7,4.2,1.3,6.1,2.5c0.7,0.4,1.3-0.6,0.6-1.1c-1.8-1.3-4.3-2.4-6.6-2.3
			C87.8,74.2,87.7,74.9,88.2,75L88.2,75z"/>
	</g>
	<g>
		<path class="st0" d="M69.5,211.3c1.5-0.6,2.9-1.3,4.3-2.1c0.5-0.3,0.1-1-0.4-0.8c-1.4,0.7-2.8,1.5-4.1,2.3
			C68.9,211,69.2,211.4,69.5,211.3L69.5,211.3z"/>
	</g>
	<g>
		<path class="st0" d="M66.2,208.8c1.3-0.9,2.7-1.7,4.1-2.5c0.5-0.3,0.1-1-0.5-0.8c-1.5,0.7-2.8,1.6-4.1,2.7
			C65.3,208.5,65.8,209.1,66.2,208.8L66.2,208.8z"/>
	</g>
	<g>
		<path class="st0" d="M64.1,206.4c0,0.1,4.9-2.9,5.3-3.2c0.5-0.3,0.1-1-0.4-0.7c-1.5,0.9-3,1.8-4.5,2.7c-0.5,0.3-1.5,1-0.8,1.6
			C63.9,207.1,64.3,206.7,64.1,206.4L64.1,206.4z"/>
	</g>
	<g>
		<path class="st0" d="M61.2,203.8c2.1-1.3,4.3-2.6,6.1-4.3c0.3-0.3-0.1-0.8-0.4-0.6c-2.1,1.3-4,2.8-6,4.3
			C60.5,203.5,60.8,204,61.2,203.8L61.2,203.8z"/>
	</g>
	<g>
		<path class="st0" d="M59.8,201c2.4-1.8,4.7-3.6,7.1-5.4c0.4-0.3,0-1.1-0.4-0.7c-2.5,1.7-4.8,3.6-7,5.6
			C59.1,200.8,59.5,201.2,59.8,201L59.8,201z"/>
	</g>
	<g>
		<path class="st0" d="M58.2,197.8c2.3-1.4,4.6-3,6.7-4.7c0.5-0.4,0-1.2-0.5-0.9c-2.2,1.6-4.5,3.3-6.5,5.1
			C57.6,197.5,57.9,197.9,58.2,197.8L58.2,197.8z"/>
	</g>
	<g>
		<path class="st0" d="M57.4,193.7c0-0.7,1.1-1.2,1.6-1.5c0.6-0.4,1.2-0.9,1.8-1.4c1-0.8,2.1-1.5,3.1-2.4c0.4-0.4-0.1-1.1-0.6-0.8
			c-1.8,1.2-3.5,2.6-5.1,3.9c-0.6,0.5-2.3,1.6-1.2,2.4C57.2,194.1,57.4,193.9,57.4,193.7L57.4,193.7z"/>
	</g>
	<g>
		<path class="st0" d="M56.3,189.7c1.3-0.7,2.5-1.8,3.7-2.8c1.3-1.1,2.7-2,4-3.2c0.4-0.3-0.1-1-0.5-0.7c-1.4,0.9-2.6,2-3.8,3.1
			c-1.2,1-2.5,2.1-3.5,3.4C56,189.6,56.2,189.7,56.3,189.7L56.3,189.7z"/>
	</g>
	<g>
		<path class="st0" d="M54.7,185.5c-0.2,0.1-0.4,0.2-0.6,0.2c0.1,0.2,0.2,0.4,0.3,0.5c1.5-1.1,2.8-2.4,4.3-3.6
			c1.6-1.3,3.3-2.4,5-3.6c0.5-0.4,0.1-1.3-0.5-0.9c-3.3,1.8-6.8,4.6-9.1,7.6c-0.3,0.3,0.2,0.8,0.5,0.5c0.1-0.2,0.3-0.4,0.4-0.6
			C54.9,185.6,54.8,185.4,54.7,185.5L54.7,185.5z"/>
	</g>
	<g>
		<path class="st0" d="M53.2,181.8c2.8-2.5,5.7-4.9,8.6-7.3c0.4-0.3-0.1-1.1-0.6-0.8c-3.1,2-6.1,4.7-8.5,7.5
			C52.3,181.6,52.8,182.1,53.2,181.8L53.2,181.8z"/>
	</g>
	<g>
		<path class="st0" d="M52.9,176c3-2.4,6.1-4.9,9-7.4c0.4-0.4-0.2-1-0.6-0.6c-3,2.5-5.9,5-8.8,7.6C52.2,175.8,52.6,176.2,52.9,176
			L52.9,176z"/>
	</g>
	<g>
		<path class="st0" d="M53.4,171.1c-0.9-0.7,7.4-6.8,8.2-7.4c0.5-0.4,0.1-1.2-0.5-0.8c-1.2,0.7-10.1,7.4-8,8.5
			C53.4,171.6,53.6,171.3,53.4,171.1L53.4,171.1z"/>
	</g>
	<g>
		<path class="st0" d="M52.4,166c2.5-2.9,5.4-5.1,8.3-7.6c0.4-0.3-0.1-0.9-0.5-0.7c-3.3,1.8-6,4.9-8.2,7.9
			C51.7,165.9,52.1,166.3,52.4,166L52.4,166z"/>
	</g>
	<g>
		<path class="st0" d="M51.6,160.3c-0.1-1.3,4.4-3.6,5.4-4.2c1.6-1.1,3.2-2.2,4.8-3.3c0.5-0.3,0-1.1-0.5-0.8
			c-2.5,1.7-4.9,3.4-7.3,5.1c-1.1,0.8-3.2,1.7-3,3.3C51.1,160.7,51.6,160.6,51.6,160.3L51.6,160.3z"/>
	</g>
	<g>
		<path class="st0" d="M53.4,153.9c3.2-2.6,6.4-4.9,9.9-7.2c0.6-0.4,0.1-1.2-0.5-0.9c-3.5,1.9-7.1,4.7-9.8,7.7
			C52.7,153.8,53.1,154.2,53.4,153.9L53.4,153.9z"/>
	</g>
	<g>
		<path class="st0" d="M53.2,149.5c0.6-2,4.1-3.8,5.7-5c1.8-1.4,3.7-2.7,5.5-4.1c0.5-0.4,0.1-1.3-0.5-0.9c-2.4,1.6-4.7,3.4-7,5.2
			c-1.5,1.2-4.1,2.6-4.3,4.7C52.6,149.8,53.1,149.8,53.2,149.5L53.2,149.5z"/>
	</g>
	<g>
		<path class="st0" d="M53.8,142.9c1-2,3.7-3.3,5.4-4.6c1.7-1.2,3.4-2.5,5-3.8c0.4-0.3-0.1-1-0.6-0.7c-2.2,1.5-4.2,3.2-6.3,4.8
			c-1.5,1.2-3.4,2.2-4.2,4.1C53,143,53.6,143.2,53.8,142.9L53.8,142.9z"/>
	</g>
	<g>
		<path class="st0" d="M53.5,136.8c3.1-2.9,6.4-5.3,9.8-7.9c0.5-0.4,0-1.2-0.5-0.8c-3.5,2.3-6.7,5.3-9.7,8.3
			C52.9,136.7,53.2,137,53.5,136.8L53.5,136.8z"/>
	</g>
	<g>
		<path class="st0" d="M54.7,129.8c3.4-2.6,7-5.1,10.3-7.9c0.4-0.3-0.1-1-0.5-0.7c-3.6,2.4-6.9,5.2-10.2,8
			C53.9,129.5,54.4,130.1,54.7,129.8L54.7,129.8z"/>
	</g>
	<g>
		<path class="st0" d="M54.8,123.8c3.7-2.8,7.4-5.7,11-8.5c0.4-0.3-0.1-1-0.6-0.7c-3.8,2.5-7.6,5.5-10.8,8.8
			C54.2,123.5,54.5,124,54.8,123.8L54.8,123.8z"/>
	</g>
	<g>
		<path class="st0" d="M57.2,116.7c3.2-2.1,6.4-4.3,9.7-6.3c0.5-0.3,0-1-0.4-0.8c-3.4,1.9-6.6,4.1-9.6,6.6
			C56.6,116.4,56.9,116.9,57.2,116.7L57.2,116.7z"/>
	</g>
	<g>
		<path class="st0" d="M59,110.7c3.7-2.1,7.2-4.4,11-6.5c0.6-0.3,0.1-1.2-0.5-0.9c-3.8,1.7-7.7,4-10.9,6.8
			C58.3,110.5,58.7,110.9,59,110.7L59,110.7z"/>
	</g>
	<g>
		<path class="st0" d="M58.1,105c5.1-2.1,10.1-4.6,14.9-7.5c0.5-0.3,0.1-1.1-0.5-0.8c-4.9,2.6-9.7,5.2-14.6,7.7
			C57.6,104.6,57.8,105.2,58.1,105L58.1,105z"/>
	</g>
	<g>
		<path class="st0" d="M62.3,97.2c0.9,0.2,1.8,0,2.6-0.4c0.7-0.3,1.4-0.5,2.1-0.8c1.1-0.4,2.1-0.8,3.2-1.2c2.5-0.9,5-1.8,7.4-2.7
			c0.7-0.3,0.4-1.3-0.3-1.1c-3.6,1.1-7.1,2.5-10.6,3.9c-1.1,0.4-4.5,1.1-4.8,2.5c0,0.2,0.1,0.4,0.3,0.5c0.1,0,0.1,0,0.2,0.1
			c0.2,0,0.4-0.1,0.4-0.3c0,0,0-0.1,0-0.1C63,97.2,62.5,96.9,62.3,97.2L62.3,97.2z"/>
	</g>
	<g>
		<path class="st0" d="M69.8,90c5.7-1.2,11.4-2.5,17-4c0.7-0.2,0.4-1.2-0.3-1c-5.7,1.3-11.3,2.7-16.9,4.3
			C69.1,89.4,69.3,90.1,69.8,90L69.8,90z"/>
	</g>
	<g>
		<path class="st0" d="M83,83.4c4.8,0.2,9.7-0.2,14.3-1.2c0.8-0.2,0.4-1.3-0.3-1.2c-4.7,0.8-9.3,1.3-14,1.6
			C82.5,82.6,82.5,83.4,83,83.4L83,83.4z"/>
	</g>
	<g>
		<path class="st0" d="M95.7,79.4c3.1,0.5,6.4,0.8,9.5,1c0.7,0,0.7-1,0-1.1c-3.1-0.3-6.3-0.6-9.5-0.6C95.4,78.7,95.3,79.3,95.7,79.4
			L95.7,79.4z"/>
	</g>
	<g>
		<path class="st0" d="M75.9,36.1c0.5-0.6,1.1-1.1,1.7-1.5c0.5-0.3,0.1-1.1-0.5-0.8c-0.8,0.4-1.5,1.2-1.9,2
			C75,36.2,75.6,36.5,75.9,36.1L75.9,36.1z"/>
	</g>
	<g>
		<path class="st0" d="M76.1,37.9c0.9-0.3,1.8-1.2,2.4-2c0.3-0.4-0.3-0.9-0.7-0.5c-0.3,0.4-0.6,0.7-0.9,1.1c-0.3,0.3-0.7,0.6-1,0.9
			C75.6,37.6,75.8,38,76.1,37.9L76.1,37.9z"/>
	</g>
	<g>
		<path class="st0" d="M77.2,39.6c-0.5-0.1-0.4,0.8,0.2,0.6c0.4-0.1,0.8-0.5,1.1-0.8c0.4-0.4,0.7-0.7,1-1.2c0.3-0.4-0.3-0.7-0.6-0.3
			c-0.3,0.3-0.5,0.7-0.8,1c-0.1,0.1-0.3,0.3-0.4,0.4c-0.1,0.1-0.4,0.5-0.5,0.5C77.3,39.9,77.3,39.7,77.2,39.6L77.2,39.6z"/>
	</g>
	<g>
		<path class="st0" d="M78.7,42.6c0.9-0.5,1.6-1.3,2.2-2.1c0.3-0.4-0.4-0.8-0.7-0.4c-0.5,0.8-1.2,1.5-1.8,2.2
			C78.3,42.4,78.5,42.7,78.7,42.6L78.7,42.6z"/>
	</g>
	<g>
		<path class="st0" d="M80.3,43.6c0.9-0.6,1.7-1.4,2.4-2.2c0.3-0.4-0.2-0.9-0.5-0.5c-0.4,0.4-0.7,0.8-1.1,1.2
			c-0.4,0.4-0.8,0.7-1.1,1.1C79.7,43.3,80,43.8,80.3,43.6L80.3,43.6z"/>
	</g>
	<g>
		<path class="st0" d="M81.3,45.5c0.4,0.5,0.9,0.2,1.3-0.2c0.6-0.7,1.1-1.6,1.5-2.4c0.2-0.3-0.3-0.6-0.5-0.3
			c-0.3,0.5-0.6,0.9-0.9,1.4c-0.2,0.3-0.7,1.5-1.2,1.2C81.4,45.2,81.2,45.4,81.3,45.5L81.3,45.5z"/>
	</g>
	<g>
		<path class="st0" d="M82.8,44.2c0.3-0.3,0.6-0.7,1-1c0.1-0.1-0.1-0.4-0.2-0.2c-0.3,0.3-0.7,0.6-1,1C82.4,44.1,82.7,44.3,82.8,44.2
			L82.8,44.2z"/>
	</g>
	<g>
		<path class="st0" d="M73.1,212.9c1.5-0.9,3.1-1.7,4.6-2.6c0.4-0.3,0-1-0.4-0.7c-1.5,0.9-2.9,2-4.4,3
			C72.6,212.7,72.9,213,73.1,212.9L73.1,212.9z"/>
	</g>
	<g>
		<path class="st0" d="M76.4,214.2c2-1.3,4-2.5,5.9-3.9c0.5-0.3,0-1.1-0.5-0.8c-2,1.3-3.9,2.7-5.8,4.1
			C75.6,213.8,75.9,214.4,76.4,214.2L76.4,214.2z"/>
	</g>
	<g>
		<path class="st0" d="M79.6,216.5c2.5-1.6,4.9-3.3,7.2-5c0.4-0.3,0-1.1-0.4-0.7c-2.4,1.8-4.8,3.5-7.1,5.4
			C79.1,216.3,79.4,216.7,79.6,216.5L79.6,216.5z"/>
	</g>
	<g>
		<path class="st0" d="M84.4,217.6c3.2-1.9,6.2-4.2,9.1-6.5c0.4-0.3-0.1-1-0.6-0.7c-3,2.2-6,4.4-9,6.7
			C83.6,217.3,84,217.8,84.4,217.6L84.4,217.6z"/>
	</g>
	<g>
		<path class="st0" d="M90,218c3.5-2,6.8-5,9.4-8.1c0.4-0.5-0.3-1.2-0.7-0.7c-2.9,3-5.9,5.6-9.1,8.3C89.3,217.7,89.7,218.2,90,218
			L90,218z"/>
	</g>
	<g>
		<path class="st0" d="M95.5,218.3c3.7-3.6,7.4-7.2,10.7-11c0.4-0.5-0.2-1.2-0.7-0.7c-3.7,3.5-7.2,7.4-10.6,11.2
			C94.5,218.1,95.1,218.7,95.5,218.3L95.5,218.3z"/>
	</g>
	<g>
		<path class="st0" d="M102.7,216.7c3.8-4.3,7.5-8.8,11-13.2c0.4-0.5-0.3-1.2-0.7-0.7c-3.7,4.4-7.5,8.9-11,13.4
			C101.8,216.6,102.4,217,102.7,216.7L102.7,216.7z"/>
	</g>
	<g>
		<path class="st0" d="M110.6,214.5c3.2-5.3,6.1-10.8,9.1-16.2c0.3-0.6-0.6-1.2-1-0.6c-3,5.4-6.1,10.8-8.9,16.3
			C109.6,214.6,110.3,215,110.6,214.5L110.6,214.5z"/>
	</g>
	<g>
		<path class="st0" d="M123.6,194.6c-2,4.2-3.6,8.5-4.8,13c-0.2,0.6,0.8,0.9,0.9,0.3c1.1-4.4,2.6-8.8,4.4-13
			C124.4,194.6,123.8,194.2,123.6,194.6L123.6,194.6z"/>
	</g>
	<g>
		<path class="st0" d="M127.4,189.2c-1.2,3.9-2.1,7.9-3.1,11.9c-0.1,0.6,0.7,0.8,0.9,0.2c1-4,2.1-7.9,2.8-12
			C128.1,189,127.5,188.9,127.4,189.2L127.4,189.2z"/>
	</g>
	<g>
		<path class="st0" d="M148.6,96.8c7.7-0.4,3.6,20.4,9.7,18.7c2-0.5,2.3-4,2.5-5.6c0.2-2.2-0.5-4.8,0.7-6.9c1.6-2.8,5.2-3.5,8.2-3.9
			c0.5-0.1,0.3-0.9-0.2-0.8c-3.1,0.5-6.5,1.2-8.4,3.9c-0.7,1-1,2.1-1.1,3.3c0,1,0.1,2.1,0.1,3.1c0,0.2-0.4,5-1.2,5.2
			c-0.9-0.6-1.9-1.2-2.8-1.8c-0.2-0.8-0.3-1.7-0.5-2.5c-0.2-1-0.4-2.1-0.6-3.1c-0.4-2.1-0.6-4.4-1.3-6.5c-0.8-2.3-2.4-4.2-5-3.9
			C148.2,96.2,148.2,96.8,148.6,96.8L148.6,96.8z"/>
	</g>
	<g>
		<path class="st0" d="M164.9,126.9c0.5,3.9,1,7.7,1.5,11.6c0.4,3,0.1,7.1,1.3,9.8c0.3,0.7,0.8,1.4,1.6,1.1c0.2-0.1,0.4-0.4,0.5-0.5
			c0.4-0.4,0.3-1.3,0.5-1.8c-0.2,0.4,0.8-3.5,1.2-1.1c0,0.1,0.3,0.1,0.2-0.1c-0.2-1-0.4-1.3-1.4-1.5c-0.1,0-0.2,0-0.2,0.1
			c0,1.4,0.7,4.4-1.4,3.4c-1.3-0.6-1-1-1.2-2.3c-0.3-2.1-0.6-4.3-0.9-6.4c-0.6-4.1-1.1-8.1-1.7-12.2
			C165,126.8,164.9,126.8,164.9,126.9L164.9,126.9z"/>
	</g>
	<g>
		<path class="st0" d="M186.7,129.5c1.7,8.4,2,16.7,1.3,25.2c0,0.3,0.5,0.3,0.5,0c1-8.4,0.3-17-1.6-25.3
			C186.9,129.3,186.7,129.3,186.7,129.5L186.7,129.5z"/>
	</g>
	<g>
		<path class="st0" d="M192.3,119.2c1.4,3.3,2.5,6.7,3.3,10.2c0.5,2.2,0.5,4.7,1.2,6.8c0.2,0.5,0.2,1.4,0.8,1.7
			c2.6,1.2,1.9-6.3,1.9-7.3c0-0.2-0.3-0.2-0.3,0c-0.1,1.1,0.1,6.4-2,5.5c-0.3-0.1-1-5.5-1.1-6.2
			C195.1,126.2,193.9,122.6,192.3,119.2C192.3,119.1,192.2,119.1,192.3,119.2L192.3,119.2z"/>
	</g>
	<g>
		<path class="st0" d="M179.4,107.9c1,1.7,1.9,3.4,2.9,5.1c0,0.1,0.2,0,0.1-0.1c-1-1.7-1.9-3.4-2.9-5.1
			C179.4,107.8,179.3,107.8,179.4,107.9L179.4,107.9z"/>
	</g>
	<g>
		<path class="st0" d="M144.3,111.6c-1.1,0.7-1.4,1.6-1.3,2.9c0.1,1.4,1,2.2,1.5,3.5c0.7,1.8,0.1,3.7,0.4,5.5
			c0.2,1.3,1.1,2.2,1.7,3.3c1.1,2.1,1.3,4.5,1.5,6.8c0.3,4.3,0.7,8.7,1,13c0,0.2,0.4,0.2,0.3,0c-0.3-3.7-0.5-7.3-0.8-11
			c-0.2-2.5-0.1-5.2-1-7.6c-0.3-0.9-0.8-1.6-1.2-2.4c-0.8-1.1-1.2-2.3-0.9-3.8c0.1-0.4,0.2-0.8,0.2-1.2c-0.3-2.4-4-6.8-1.2-8.8
			C144.6,111.8,144.5,111.5,144.3,111.6L144.3,111.6z"/>
	</g>
	<g>
		<path class="st0" d="M147.5,166.3c-0.3,3.9-1.8,7-0.9,10.9c0.6,2.6,0.6,4.8,0.2,7.4c-0.2,1.6-0.6,3.1-0.4,4.7c0.1,1.1,0.4,2.1,1,3
			c0.8,1.4,0.9,1.1,0.8,3c-0.1,1.6-0.6,2.5-1.1,3.9c-1.2,3.2-1.2,6.4-0.1,9.7c0.2,0.5,1,0.3,0.8-0.2c-0.7-2.6-0.9-5.3-0.2-8
			c0.5-1.8,1.9-3.5,2.1-5.5c0.1-1-0.1-1.4-0.5-2.1c-1.1-2.1-1.9-3.3-1.7-5.8c0.2-3.2,1.1-6,0.4-9.2c-0.6-2.8-0.8-5-0.2-7.8
			c0.3-1.5,0.4-2.6,0.2-4C147.6,166.2,147.5,166.2,147.5,166.3L147.5,166.3z"/>
	</g>
	<g>
		<path class="st0" d="M157.5,196.3c-0.8,2.9-1.4,5.6-1.1,8.6c0.5,3.9,2.1,7.4,1.1,11.4c-0.1,0.3,0.4,0.4,0.4,0.1
			c0.7-2.6,0.3-4.9-0.4-7.5c-1.1-4.5-1-8.1,0.2-12.6C157.8,196.3,157.5,196.2,157.5,196.3L157.5,196.3z"/>
	</g>
	<g>
		<path class="st0" d="M166.5,181.7c-0.1,1.1-0.7,11.1,2.4,9.4c0.3-0.2,0-0.6-0.3-0.4c-1.8,1-1.8-8-1.7-8.9
			C166.9,181.5,166.5,181.5,166.5,181.7L166.5,181.7z"/>
	</g>
	<g>
		<path class="st0" d="M170.4,186.5c-0.2-2.1,0-4.1,0.3-6.2c0-0.2-0.2-0.2-0.3-0.1c-0.4,2.1-0.4,4.2-0.2,6.3
			C170.2,186.6,170.4,186.6,170.4,186.5L170.4,186.5z"/>
	</g>
	<g>
		<path class="st0" d="M180.4,174.1c0.2,2.6,1.1,4.6,2.9,6.5c0.1,0.1,0.3,0.1,0.4-0.1c0.7-1.7,1.2-3.3,1.5-5.1
			c0.3-1.7-0.2-2.8,1.4-3.9c2.2-1.6,1.1,1,3,0.6c1.4-0.3,1.7-2.7,2-3.8c1.4-4.4,3-9.2,8-10.3c0.4-0.1,0.3-0.8-0.2-0.7
			c-3.1,0.7-5.2,2.9-6.7,5.7c-0.8,1.6-1.3,3.3-1.8,5.1c-0.4,1.4-0.4,3.4-2.8,2.3c0.8,0.3-0.3-0.6-0.4-0.7c-1.1-0.3-1.6-0.7-2.4,0.5
			c-1.1,1.7-0.6,4.7-1,6.6c-0.2,0.8-0.3,2.7-1.5,2.6c-1.4-0.1-2.2-4.6-2.3-5.4C180.6,173.9,180.4,173.9,180.4,174.1L180.4,174.1z"/>
	</g>
	<g>
		<path class="st0" d="M161.5,152.1c-0.2,5.3,0,10.6,1,15.8c0,0.2,0.4,0.1,0.4-0.1C162.1,162.6,161.6,157.4,161.5,152.1
			C161.5,152.1,161.5,152.1,161.5,152.1L161.5,152.1z"/>
	</g>
	<g>
		<path class="st0" d="M154,161.7c0.9,3.9,2.2,7.4,3.8,11c2,4.4,0.1,8.9,0.9,13.5c0.1,0.3,0.5,0.2,0.4-0.1
			c-0.8-4.2,0.8-8.5-0.7-12.5c-1.6-4-3.2-7.6-4.2-11.9C154.2,161.5,154,161.6,154,161.7L154,161.7z"/>
	</g>
	<g>
		<path class="st0" d="M166.7,215.8c5.9-1,10.9-4.3,14.2-9.4c0.3-0.4-0.4-0.8-0.6-0.4c-3.2,4.8-8,8.1-13.6,9.5
			C166.4,215.6,166.5,215.8,166.7,215.8L166.7,215.8z"/>
	</g>
	<g>
		<path class="st0" d="M201.7,79.4c2.2,2.5,4.2,5.1,5.7,8c0.9,1.7,1.3,3.9,3.2,4.7c0.1,0.1,0.3-0.1,0.3-0.2c0.4-1.8,0.3-3.5-0.2-5.3
			c0-0.2-0.3-0.1-0.3,0.1c0.1,0.6,0.8,4,0.2,4.3c-0.8,0.3-1.2-0.8-1.5-1.2c-0.7-1.3-1.2-2.7-1.9-4c-1.4-2.4-3.1-4.6-5.1-6.6
			C201.8,78.9,201.5,79.2,201.7,79.4L201.7,79.4z"/>
	</g>
	<g>
		<path class="st0" d="M175.4,64.5c6.4-1.6,12.4,0.8,18.1,3.7c0.3,0.2,0.6-0.3,0.3-0.5c-5.7-2.9-12-5.6-18.5-3.6
			C175.1,64.2,175.2,64.5,175.4,64.5L175.4,64.5z"/>
	</g>
	<g>
		<path class="st0" d="M177.6,71.7c2.4,1.5,4.4,3.4,6.1,5.6c0,0.1,0.2,0,0.1-0.1C182.2,74.9,180.1,73,177.6,71.7
			C177.6,71.6,177.6,71.6,177.6,71.7L177.6,71.7z"/>
	</g>
	<g>
		<path class="st0" d="M184.5,79.1c0.9,0.6,2.2-0.5,1.8-1.5c0-0.1-0.2,0-0.1,0C186.6,78.5,185.4,79.5,184.5,79.1
			C184.5,79,184.5,79,184.5,79.1L184.5,79.1z"/>
	</g>
	<g>
		<path class="st0" d="M186,75.7c0.3-0.7,1.1-1.2,1.9-1.3c0.1,0,0.1-0.2,0-0.1C187,74.3,186.3,74.9,186,75.7
			C185.9,75.7,186,75.7,186,75.7L186,75.7z"/>
	</g>
	<g>
		<path class="st0" d="M201.3,95c1.1,3,2.1,6.1,4,8.6c0.3,0.1,0.5,0.2,0.8,0.2c1.3,1.2,1.8,2.5,1.4,3.9c0,0.5-0.2,1-0.2,1.6
			c0.1,1.5,1.2,2.6,1.9,3.8c1.1,2.1,1.6,4.7,2.2,7c0.7,2.6,1.7,5.2,1.3,7.9c-0.5,3.1-0.5,5.4,2.2,7.6c0.4,0.4,1.1-0.3,0.6-0.6
			c-2.6-2.2-2.1-4.7-1.8-7.7c0.1-1.5-0.3-3-0.7-4.4c-1-3.4-1.8-7.3-3.6-10.4c-1.2-2.1-1.1-4.1-1.1-6.5c0-0.7-0.1-1.4-0.6-1.9
			c-0.9-1-2.4-0.9-3.3-2.2C203,99.8,202.2,97.1,201.3,95C201.3,95,201.3,95,201.3,95L201.3,95z"/>
	</g>
	<g>
		<path class="st0" d="M212.2,99.8c-0.9,2.1-0.7,3.6,0.1,5.7c1.5,3.7,1.8,7.2,1.8,11.1c0,0.5,0.7,0.5,0.8,0c0-2.5,0-5-0.5-7.4
			c-0.7-3.3-2.8-5.8-1.6-9.3C212.9,99.6,212.3,99.5,212.2,99.8L212.2,99.8z"/>
	</g>
	<g>
		<path class="st0" d="M212.6,148.7c-2,2-0.8,5.2-0.9,7.7c-0.3,5.1-1.2,10.6-3.3,15.2c-0.2,0.5,0.5,0.9,0.7,0.4
			c1.5-3.2,2.3-6.5,2.8-10c0.3-1.8,0.5-3.7,0.6-5.6c0.1-2.2-1.2-5.7,0.5-7.4C213.2,148.8,212.8,148.5,212.6,148.7L212.6,148.7z"/>
	</g>
	<g>
		<path class="st0" d="M128,66.3c0.3,1.2,0.8,2.3,1.2,3.4c0.3,0.6,0.6,1.5,1.3,1.6c0.5,0.1,1.1-0.2,1.4-0.7c0.5-0.8,0.2-1.7-0.1-2.5
			c0-0.1-0.2-0.1-0.2,0.1c0.2,0.7,0.4,1.7-0.2,2.3c-0.8,0.8-1.4-0.2-1.7-0.9c-0.5-1.1-1-2.2-1.4-3.4C128.3,65.9,127.9,66,128,66.3
			L128,66.3z"/>
	</g>
	<g>
		<path class="st0" d="M122.9,42.6c0.8,1.5,2.3,2.5,3.8,3c0.1,0,0.3-0.1,0.3-0.2c0.2-0.6,0.2-1.1-0.1-1.6c-0.1-0.3-0.6,0-0.5,0.3
			c0.2,0.4,0.2,0.8,0,1.2c0.1-0.1,0.2-0.1,0.3-0.2c-1.6-0.5-2.7-1.4-3.7-2.7C123.1,42.2,122.8,42.4,122.9,42.6L122.9,42.6z"/>
	</g>
	<g>
		<path class="st0" d="M136.6,78.6c-1.5,1.4-0.5,4.1,1.5,4.3c0.5,0,0.4-0.7,0-0.7C136.7,82,136,80,137,79
			C137.3,78.7,136.9,78.3,136.6,78.6L136.6,78.6z"/>
	</g>
	<g>
		<path class="st0" d="M93.4,137.8c-0.7,2.4-1.1,4.8-1.2,7.3c0,0.3,0.4,0.3,0.4,0c0.1-2.5,0.5-4.9,1.1-7.3
			C93.7,137.7,93.4,137.7,93.4,137.8L93.4,137.8z"/>
	</g>
	<g>
		<path class="st0" d="M97.6,97.6c-0.3,1.9-0.5,3.9-0.5,5.8c0,0.1,0.2,0.1,0.2,0C97.2,101.5,97.3,99.6,97.6,97.6
			C97.6,97.6,97.6,97.6,97.6,97.6L97.6,97.6z"/>
	</g>
	<g>
		<path class="st0" d="M97.9,87.1c-4.1,1.5-10,2.9-12.4,6.9c-2.5,4.3-6.8,6.7-9,11.2c-0.8,1.7-3.7,6.8-2.6,8.4
			c1.6,2.4,4.1-3.5,4.5-4.2c0.2-0.3-0.3-0.6-0.5-0.3c-0.4,0.7-1.5,3.4-2.2,3.6c-1.9,0.8-0.3-3.3,0-4c1.2-3.4,2.8-6.6,5.5-9
			c2.2-1.9,3.3-3.2,4.8-5.6C88.3,90.6,94,88.8,97.9,87.1C98,87.2,98,87.1,97.9,87.1L97.9,87.1z"/>
	</g>
	<g>
		<path class="st0" d="M70.7,134.9c-2.3,7.8-3.2,15.7-2.7,23.8c0,0.3,0.5,0.3,0.4,0C67.9,150.7,68.6,142.7,70.7,134.9
			C70.8,134.9,70.7,134.8,70.7,134.9L70.7,134.9z"/>
	</g>
	<g>
		<path class="st0" d="M67.8,179.2c-0.1,2.3,0.1,4.5,0.4,6.7c0.3,1.5,0.5,4.6,1.5,5.8c1.4,1.6,2.1-1.3,2.5-2.3
			c0.1-0.3-0.3-0.5-0.5-0.2c-0.5,1-0.7,2.9-1.9,1.2c-0.6-0.7-0.7-2.3-0.9-3.2c-0.6-2.6-0.9-5.3-1.1-8C67.9,179,67.8,179,67.8,179.2
			L67.8,179.2z"/>
	</g>
	<g>
		<path class="st0" d="M111.6,182.5c-0.1,1-0.1,2.2-0.5,3.2c-0.9,2.3-3.4,3.1-4.7,0.9c-0.7-1.2-0.9-2.5-1.7-3.7
			c-1.5-2.1-4.3-2.9-6.7-3.3c-0.5-0.1-0.6,0.6-0.2,0.7c3.4,0.9,6.1,1.8,7.6,5.3c0.5,1.2,1,2.6,2.3,3c3.6,1.2,4.4-3.7,4.1-6
			C111.8,182.4,111.6,182.4,111.6,182.5L111.6,182.5z"/>
	</g>
	<g>
		<path class="st0" d="M82.5,204.1c5.9,1.7,12.3,1.3,17.8-1.5c0.4-0.2,0-0.8-0.3-0.6c-5.6,2.8-11.3,3.5-17.4,1.8
			C82.4,203.8,82.3,204.1,82.5,204.1L82.5,204.1z"/>
	</g>
	<g>
		<path class="st0" d="M106.1,199.8c1.5-1.3,3.1-2.4,4.7-3.6c0.4-0.3,0-0.8-0.4-0.5c-1.5,1.3-3,2.6-4.6,3.9
			C105.7,199.7,105.9,199.9,106.1,199.8L106.1,199.8z"/>
	</g>
	<g>
		<path class="st0" d="M126.1,169.7c0.4,4-0.6,7.4-2.2,11c-0.1,0.2,0.2,0.3,0.4,0.2c2.2-3.2,2.7-7.4,2.3-11.2
			C126.5,169.4,126,169.4,126.1,169.7L126.1,169.7z"/>
	</g>
	<g>
		<path class="st0" d="M124.3,131.3c0.8,8.5,0.8,17.1,0.4,25.6c0,0.3,0.4,0.3,0.4,0C125.5,148.3,125.1,139.8,124.3,131.3
			C124.3,131.2,124.3,131.2,124.3,131.3L124.3,131.3z"/>
	</g>
	<g>
		<path class="st0" d="M117.2,94.2c-1,0.3-1.4,0.7-1.5,1.9c-0.2,1.8,0.8,1.9,0.1,4.2c-0.3,1-0.4,0.2-0.6,1.3c0,0.3,0.3,0.4,0.3,0.7
			c0.4,2.7,0.9,2.7,0.8,5c-0.1,2.5,0.3,4.6,1.5,6.8c0.2,0.5,0.9,0.1,0.7-0.4c-1.8-3.7-0.6-7.4-1.6-11.1c-0.4-1.3-0.8,0.8-0.3-2
			c0.1-0.5,0.5-0.6,0.5-1.2c0-1.3-1.4-4.2,0.2-4.8C117.6,94.6,117.5,94.1,117.2,94.2L117.2,94.2z"/>
	</g>
	<g>
		<path class="st0" d="M114.9,145.4c-1.2,2.5-2.5,5.3-2.3,8.1c0.2,2.1,1.2,3.9,1.3,6c0.1,1.6-0.1,3.8-1.2,5
			c-0.2,0.4-0.4,0.7-0.6,1.1c-1.9-1.1-2.5-2.5-1.6-4.3c0.2-0.6-0.7-0.8-0.9-0.2c-0.6,1.6-0.1,7.7,2.8,5.5c1.7-1.3,2.7-5.8,2.4-7.8
			c-0.2-1.5-1.1-2.9-1.4-4.4c-0.7-3.1,0.7-6.1,1.9-8.8C115.4,145.4,115,145.1,114.9,145.4L114.9,145.4z"/>
	</g>
	<g>
		<path class="st0" d="M78.4,160.2c-0.2,4-0.2,8,0.1,11.9c0.2,2.1-0.1,7.1,1.3,8.8c0.4,0.5,0.8,1,1.5,0.5c0.4-0.2,0.3-0.8,0.4-1.1
			c0.1-0.7,0-1.6,0-2.3c0-0.6,0-1.2,0-1.8c-0.2-1.7,1.1-2.1,4-1.1c0.1,0.1,0.3,0.2,0.4,0c0.4-0.5,0.7-1.1,1.1-1.6
			c0.2-0.2-0.2-0.5-0.4-0.2c-1.4,2-1.8-0.3-3.5-0.3c-1.7,0-1.9,1.3-2,2.7c-0.1,0.8,0,1.6,0,2.3c0,1,0.5,2.4-0.6,2.2
			c-1.5-0.3-1.4-5.3-1.5-6.7c-0.5-4.4-0.6-8.8-0.5-13.2C78.6,160,78.4,160,78.4,160.2L78.4,160.2z"/>
	</g>
	<g>
		<path class="st0" d="M99.4,131.5c0.7,1.7,1.2,3.5,1.5,5.4c0,0.1,0.1,0.2,0.2,0.3c0.9,0.1,1.3-0.6,1.5-1.4c0.6-1.7,1.2-3.1,2.7-4.3
			c0.2-0.1,0-0.5-0.2-0.3c-1.5,1.1-2.4,2.5-2.9,4.2c-0.1,0.3-0.5,1.3-0.9,1c-0.2-0.1-0.3-1.5-0.4-1.8c-0.3-1.1-0.7-2.2-1.2-3.3
			C99.6,131.2,99.3,131.3,99.4,131.5L99.4,131.5z"/>
	</g>
	<g>
		<path class="st0" d="M46.6,95.2c0.1,3.1,0.2,6.6-2.2,8.9c0.1,0,0.3,0.1,0.4,0.1c-0.4-1.6-0.4-3.1-0.1-4.8c0-0.2-0.3-0.3-0.4-0.1
			c-0.5,1.7-0.4,3.3,0,5c0,0.2,0.3,0.2,0.4,0.1c2.5-2.4,2.4-6.1,2.1-9.3C46.8,95,46.6,95,46.6,95.2L46.6,95.2z"/>
	</g>
	<g>
		<path class="st0" d="M44.5,98c0.7-3,1.4-6.1,2-9.1c0.1-0.2-0.3-0.3-0.4-0.1C45.5,91.8,45,94.9,44.5,98C44.4,98,44.5,98.1,44.5,98
			L44.5,98z"/>
	</g>
	<g>
		<path class="st0" d="M66.1,77.2c-0.6,0.6-1.1,1.2-1.7,1.7c-0.6,0.6-1.2,1.5-1.9,1.9c-0.2,0.3-0.4,0.3-0.7,0.2
			c-0.5,0.1-0.7,0-0.4-0.5c0-0.5,0.4-1.1,0.6-1.5c0.3-0.6,0.6-1.1,0.8-1.7c0.5-1.4,0.3-3.2-1.3-3.8c-0.4-0.1-0.5,0.4-0.2,0.6
			c1.4,0.6,1.1,2.4,0.6,3.5c-0.3,0.6-0.7,1.2-0.9,1.9c-0.3,0.7-0.7,1.9-0.1,2.5c0.5,0.5,0.9,0.4,1.4-0.1
			C63.7,80.6,64.8,78.8,66.1,77.2C66.2,77.3,66.1,77.2,66.1,77.2L66.1,77.2z"/>
	</g>
	<g>
		<path class="st0" d="M68.4,67.7c3.8-1.5,7.8-1.6,11.7-0.4c0.3,0.1,0.4-0.4,0.1-0.5C76.2,65.7,72.2,65.9,68.4,67.7
			C68.3,67.7,68.3,67.7,68.4,67.7L68.4,67.7z"/>
	</g>
	<g>
		<path class="st0" d="M36.2,114.7c-0.3,2.2-0.7,4.7-0.6,6.9c0,0.8,0.3,1.8,1.3,1.7c0.2,0,0.3-0.1,0.4-0.3c0.8-2.9,1.7-5.7,2.4-8.6
			c0.1-0.4-0.4-0.5-0.6-0.2c-0.4,1.2-0.8,2.4-1.1,3.7c-0.2,0.6-0.4,1.2-0.6,1.8c-0.2,0.5-0.3,1.8-0.7,2.1c-0.1,0.5-0.2,0.4-0.3-0.2
			c0-0.3,0-0.6,0.1-0.9c0-0.6,0.1-1.3,0.1-1.9c0.1-1.4,0.1-2.7,0.2-4.1C36.8,114.3,36.3,114.4,36.2,114.7L36.2,114.7z"/>
	</g>
	<g>
		<path class="st0" d="M45.6,116c-2.1,6.2-4.1,12.5-5.6,19c-0.1,0.4,0.5,0.5,0.6,0.2c1.8-6.3,3.5-12.7,5.5-19
			C46.2,115.8,45.7,115.7,45.6,116L45.6,116z"/>
	</g>
	<g>
		<path class="st0" d="M35.3,131.4c-0.2,2-0.3,4.1,0.2,6.1c0.1,0.6,0.7,1.6,1.4,0.9c0.2-0.2-0.1-0.6-0.3-0.3
			c-0.4,0.4-0.8-1.7-0.8-1.9c-0.1-0.6-0.2-1.2-0.2-1.9c-0.1-1,0-1.9,0.1-2.9C35.6,131.2,35.3,131.2,35.3,131.4L35.3,131.4z"/>
	</g>
	<g>
		<path class="st0" d="M50.4,82.5c2.2-3.8,4.8-7.1,8.1-10c0.3-0.2-0.1-0.6-0.4-0.4c-3.3,2.8-6,6.3-8,10.2
			C50,82.5,50.3,82.6,50.4,82.5L50.4,82.5z"/>
	</g>
	<g>
		<path class="st0" d="M84.4,57.9c5.6-2.2,11.5-2.9,17.4-2.3c0.4,0,0.4-0.5,0-0.6c-6.1-0.7-11.9,0.3-17.5,2.7
			C84.2,57.8,84.3,57.9,84.4,57.9L84.4,57.9z"/>
	</g>
	<g>
		<path class="st0" d="M188.1,188.4c-0.9,3.8-2.6,7.3-5,10.4c-0.2,0.3,0.3,0.7,0.5,0.4c2.6-3.1,4.2-6.8,4.9-10.7
			C188.5,188.3,188.1,188.2,188.1,188.4L188.1,188.4z"/>
	</g>
	<g>
		<path class="st0" d="M81.7,122.2c-0.9,6.3-1.1,12.5-0.6,18.9c0,0.1,0.2,0.1,0.2,0c-0.4-6.3-0.1-12.6,0.7-18.9
			C81.9,122.1,81.7,122.1,81.7,122.2L81.7,122.2z"/>
	</g>
	<g>
		<path class="st0" d="M81.7,146.4c-1,3.5-1.2,7.1-0.9,10.7c0,0.3,0.5,0.3,0.5,0c-0.5-3.6-0.2-7.1,0.7-10.6
			C82,146.3,81.8,146.2,81.7,146.4L81.7,146.4z"/>
	</g>
	<g>
		<path class="st0" d="M98.7,152.6c-1.7,3.5-1.6,7.5,0.4,10.9c0.1,0.2,0.3,0,0.3-0.1c-1.9-3.4-2.1-7.2-0.5-10.7
			C98.8,152.6,98.7,152.6,98.7,152.6L98.7,152.6z"/>
	</g>
</g>
</svg>
