<?xml version="1.0" encoding="utf-8"?>
<!-- Generator: Adobe Illustrator 23.0.1, SVG Export Plug-In . SVG Version: 6.00 Build 0)  -->
<!DOCTYPE svg PUBLIC "-//W3C//DTD SVG 1.1//EN" "http://www.w3.org/Graphics/SVG/1.1/DTD/svg11.dtd" [
	<!ENTITY ns_extend "http://ns.adobe.com/Extensibility/1.0/">
	<!ENTITY ns_ai "http://ns.adobe.com/AdobeIllustrator/10.0/">
	<!ENTITY ns_graphs "http://ns.adobe.com/Graphs/1.0/">
	<!ENTITY ns_vars "http://ns.adobe.com/Variables/1.0/">
	<!ENTITY ns_imrep "http://ns.adobe.com/ImageReplacement/1.0/">
	<!ENTITY ns_sfw "http://ns.adobe.com/SaveForWeb/1.0/">
	<!ENTITY ns_custom "http://ns.adobe.com/GenericCustomNamespace/1.0/">
	<!ENTITY ns_adobe_xpath "http://ns.adobe.com/XPath/1.0/">
]>
<svg version="1.1" id="Layer_1" xmlns:x="&ns_extend;" xmlns:i="&ns_ai;" xmlns:graph="&ns_graphs;"
	 xmlns="http://www.w3.org/2000/svg" xmlns:xlink="http://www.w3.org/1999/xlink" x="0px" y="0px" viewBox="0 0 250 250"
	 style="enable-background:new 0 0 250 250;" xml:space="preserve">
<style type="text/css">
	.st0{fill:#3C2517;}
</style>
<metadata>
	<sfw  xmlns="&ns_sfw;">
		<slices></slices>
		<sliceSourceBounds  bottomLeftOrigin="true" height="175.8" width="178.1" x="151.5" y="-230.9"></sliceSourceBounds>
	</sfw>
</metadata>
<g>
	<g>
		<path class="st0" d="M55.6,78.7C45.2,86.9,38.1,98.9,35,111.6c-3.5,13.9-2.2,28.7,2.5,42.1c4.5,12.9,11.9,24.9,21.5,34.5
			c9.9,9.9,22.2,16.9,35.7,20.7c25.2,7.1,53.6,3.7,76.2-9.7c10.3-6.1,19.5-14.2,26.3-24.1c8-11.6,12.1-25.3,12.9-39.3
			c0.8-13.7-1.2-27.9-7.4-40.3c-6-12-16.2-21.6-28.2-27.5c-2.9-1.4-5.8-2.6-8.9-3.6c-0.7-0.2-0.9,0.8-0.3,1
			c12.4,4.4,23.6,12,31.3,22.8c7.9,11,11.4,24.6,11.9,38c0.6,14.1-1.9,28.6-8.5,41.1c-5.5,10.4-13.7,19.4-23.4,26.1
			c-20.6,14.4-46.8,20.3-71.5,16.2c-13.7-2.3-27-7.6-38-16.3c-10.3-8.1-18.6-18.6-24.4-30.4c-6.3-12.8-9.5-27.3-8.2-41.6
			c1.2-13.1,6.5-25.7,15-35.7c2-2.4,4.3-4.6,6.6-6.7C56.5,78.9,55.9,78.5,55.6,78.7L55.6,78.7z"/>
	</g>
	<g>
		<path class="st0" d="M87.9,64.2c-2.5-0.1-5.3,1-7.7,1.7c-2.8,0.7-5.4,1.7-8,2.6c-2.5,0.9-4.9,2.1-7.2,3.4
			c-2.4,1.3-4.8,2.7-6.7,4.5c-0.5,0.4,0.1,1.1,0.7,0.9c2.3-1.2,4.5-2.8,6.8-4c2.3-1.3,4.8-2.3,7.2-3.4c2.4-1.1,5-2,7.6-2.8
			c2.4-0.8,5.3-1,7.6-2.2C88.4,64.7,88.2,64.2,87.9,64.2L87.9,64.2z"/>
	</g>
	<g>
		<path class="st0" d="M114.7,60.9c-1.6-0.4-3.4,0-5,0.1c-1.8,0.1-3.7,0.2-5.5,0.3c-1.7,0.1-3.5,0.4-5.2,0.6c-1.8,0.2-3.6,0.5-5.3,1
			c-0.6,0.2-0.5,1.1,0.1,1.1c1.8,0,3.6-0.3,5.5-0.6c1.6-0.2,3.3-0.3,4.9-0.5c1.8-0.3,3.7-0.4,5.6-0.7c1.6-0.2,3.5,0,5-0.6
			C115,61.5,115.1,61,114.7,60.9L114.7,60.9z"/>
	</g>
	<g>
		<path class="st0" d="M152.8,61.7c-1.9-0.9-4.2-0.8-6.2-1.1c-2.2-0.3-4.5-0.4-6.7-0.7c-1.9-0.2-3.9-0.3-5.8-0.4
			c-2.1-0.1-4.3-0.2-6.4,0.3c-0.6,0.1-0.4,1,0.1,1.1c2.1,0.1,4.2,0.1,6.2,0.2c2,0.1,3.9,0.4,5.9,0.5c2.1,0.1,4.1,0.3,6.2,0.4
			c2.1,0.1,4.4,0.8,6.5,0.6C153,62.3,153.2,61.9,152.8,61.7L152.8,61.7z"/>
	</g>
	<g>
		<path class="st0" d="M108.6,85.8c0,0,1.4-2,1.5-2.2c0.4-0.8,0.7-1.7,0.9-2.6c0.5-2.2,0.7-4.5,0.7-6.8c0.1-3.8-1.6-10.3,2.7-12.4
			c2-1,4.4-0.6,6.4,0.1c1.1,0.4,2.2,1,3.3,1.6c0.5,0.3,1,0.5,1.4,0.8c0.7,0.6,0.6,1,0.1,1.7c-1.1,1.6-1.9,3.1-2.2,5.1
			c-0.3,2.2,0.1,4.4,0.5,6.5c0.3,1.4,0.7,2.8,0.8,4.2c0.1,1.5-0.8,2.4-2.1,3.1c-2.5,1.4-5.4,1.6-8.2,1c-1-0.2-1.5,1.3-0.4,1.6
			c2.7,0.8,5.6,0.5,8.2-0.5c2.1-0.9,4.1-2.2,4.2-4.7c0.1-3.1-1.3-6.1-1.4-9.2c0-1.4,0.1-2.9,0.7-4.2c0.5-1.1,1.6-1.9,2-3
			c0.8-2.4-2.5-3.7-4.1-4.5c-2.3-1.2-4.9-2.1-7.6-1.7c-2.2,0.3-4.3,1.5-5.3,3.6c-1.1,2.3-0.8,5-0.7,7.4c0.2,3.5,0.3,7.4-0.6,10.8
			c-0.2,0.8-0.5,1.5-0.8,2.3c-0.2,0.5-0.7,0.9-0.9,1.4c-0.2,0.6,0,1.1,0.6,1.2C108.7,86.4,108.9,85.9,108.6,85.8L108.6,85.8z"/>
	</g>
	<g>
		<path class="st0" d="M118.8,60.3c1.8-2.4,3.8-4.7,6.3-6.3c2.6-1.6,5.6-2.4,8.4-3.6c5.6-2.4,10.7-5.8,15.7-9.2
			c-0.4-0.4-0.7-0.7-1.1-1.1c-2.4,5.5-6.8,9.7-11.7,13c-4.2,2.9-9.7,5-11.6,10.1c-0.4,1,1.2,1.4,1.6,0.4c1.1-2.6,3.3-4.3,5.6-5.7
			c2.4-1.5,4.8-3,7.1-4.7c4.4-3.3,8.3-7.3,10.5-12.3c0.3-0.7-0.4-1.6-1.1-1.1c-5.4,3.7-10.8,7.4-16.9,9.8c-2.7,1.1-5.6,2-7.9,3.8
			c-2.3,1.7-4.1,4-5.5,6.4C117.8,60.4,118.5,60.7,118.8,60.3L118.8,60.3z"/>
	</g>
	<g>
		<path class="st0" d="M124,73.5c8.5-0.9,15.2-6.7,23.1-9.2c7.6-2.4,15.6-2.5,23.4-4.4c4.2-1,8.3-2.6,11.8-5.3
			c-0.3-0.4-0.7-0.9-1-1.3c-4.6,5.7-11.1,9.2-18,11.4c-3.4,1.1-7,1.8-10.5,2.4c-3.7,0.6-7.4,1.1-10.9,2.6c-1.6,0.7-7.2,3.2-5,5.7
			c1,1.1,2.9,1,4.2,1.1c2.3,0.2,4.6,0.1,6.8,0c8.6-0.5,17.3-2.5,25.8-0.7c8.2,1.7,15.6,6.3,20.8,12.8c0.3-0.4,0.7-0.9,1-1.3
			c-7.2-4.6-14.8-9.4-23.6-10.2c-4.8-0.5-9.7,0.4-14.5,1c-2.3,0.3-4.7,0.5-7,0.5c-2.2,0-4.4-0.1-6.7,0.1c-3.5,0.3-7.9,1.3-9.5,4.9
			c-1.8,4.1,3,5.9,5.7,7.6c4.1,2.5,7.7,5.5,11.2,8.7c3.5,3.2,7.3,6.1,11.2,8.9c4,2.8,8.1,5.9,12.7,7.8c4.9,2,10.2,2.2,15.4,1.9
			c-0.1-0.5-0.3-1-0.4-1.4c-4,2-8.4,3.4-12.9,3.2c-4.7-0.2-8.3-2.4-11.5-5.7c-1.5-1.5-2.9-3.1-4.5-4.5c-1.7-1.4-3.6-2.5-5.5-3.5
			c-2.1-1.2-4.1-2.4-6-4c-1.7-1.5-3.2-3.1-4.9-4.6c-6.3-5.5-14.8-7.9-23-6.4c-3.9,0.7-7.8,2.3-9.9,5.9c-2,3.5-2.5,7.7-4.7,11.2
			c-2.8,4.4-7.6,7.5-11.8,10.3c-4.4,3-8.9,6.2-14.3,6.9c0.2,0.6,0.3,1.2,0.5,1.7c6.3-4.2,12-9.5,16.7-15.5c2.3-2.9,4.4-6.1,6.2-9.3
			c1.6-2.9,3.5-6.2,4.1-9.4c0.2-1.2,0.2-2.6-0.4-3.7c-0.8-1.4-2.3-2-3.7-2.5c-4-1.7-8.2-2.8-12.5-3.7c-8.9-1.8-18.1-2.8-27.1-4.1
			c-4.5-0.6-9.1-1.1-13.5-2.1c-3.8-0.9-7.6-2.4-9.7-6c-0.4,0.3-0.9,0.7-1.3,1c5.2,4.8,12.4,5.8,19.2,5.8c4.1,0,8.3-0.3,12.4,0
			c4.4,0.3,8.4,1.8,12.7,2.7c4.1,0.9,8.4,1.4,12.6,1.4c1.3,0,2.7-0.1,3.7-1.1c0.9-0.9,1.2-2.4,0.9-3.7c-0.3-1.5-1.4-2.7-2.4-3.8
			c-1.5-1.5-3.1-2.8-4.6-4.3c-3-2.7-6.2-5.3-8.9-8.4c-1.4-1.6-2.5-3.6-2.6-5.8c-0.1-2.3,0.8-4.6,1.8-6.6c1.8-3.9,4.3-7.4,7.4-10.3
			c0.8-0.8-0.4-1.8-1.2-1.2c-3.1,2.4-3.2,7.1-3.6,10.6c-0.4,4.1-0.4,8.5,1.7,12.2c4.4,7.9,14.5,9.1,20.9,14.7
			c0.7,0.6,1.8-0.4,1.1-1.1c-5.9-5.1-14.6-6.5-19.5-12.7c-2.6-3.3-3-7.4-2.7-11.5c0.1-2,0.4-4,0.7-5.9c0.3-1.8,0.8-3.8,2.4-5
			c-0.3-0.4-0.7-0.9-1-1.3c-2.5,2.4-4.7,5.2-6.4,8.2c-1.6,2.8-3.2,6.1-3.3,9.4c-0.1,3.4,1.7,6.1,4,8.5c2.6,2.7,5.6,5.2,8.3,7.7
			c1.4,1.3,2.8,2.6,4.2,3.9c1.2,1.1,3.1,3.4,1.5,5.1c-1.2,1.2-4.1,0.6-5.5,0.5c-2.2-0.1-4.4-0.4-6.5-0.7c-4-0.7-7.9-2.1-11.9-2.8
			c-3.8-0.7-7.6-0.6-11.5-0.6c-7.8,0.2-16.8,0.5-22.9-5.2c-0.7-0.6-1.8,0.2-1.3,1c3.3,5.7,10.4,6.9,16.3,7.7
			c8.9,1.3,17.8,2.5,26.7,3.8c4,0.6,8.1,1.2,12,2.2c2,0.5,3.9,1,5.8,1.7c1.1,0.4,2.1,0.8,3.1,1.2c0.9,0.4,2,0.8,2.6,1.7
			c0.7,1.1,0.3,2.6-0.1,3.7c-0.6,1.7-1.4,3.3-2.2,4.9c-1.7,3.3-3.6,6.5-5.8,9.6c-4.9,6.8-11,12.6-18,17.3c-0.7,0.5-0.5,1.9,0.5,1.7
			c4.5-0.6,8.5-2.7,12.2-5.1c4-2.6,8-5.2,11.4-8.4c3-2.7,4.9-5.8,6.3-9.5c0.8-2.2,1.3-4.5,2.5-6.5c1.2-2,3.1-3.3,5.3-4
			c8.6-3.1,18.4-0.6,25.1,5.4c1.7,1.5,3.3,3.2,5.1,4.7c1.7,1.4,3.6,2.6,5.5,3.6c2.1,1.1,4.1,2.2,5.9,3.8c1.6,1.5,3.1,3.1,4.6,4.7
			c3.3,3.3,7.3,5.3,12,5.5c4.8,0.2,9.5-1.3,13.7-3.4c0.7-0.3,0.4-1.5-0.4-1.4c-4.4,0.2-8.9,0.2-13.1-1.2c-3.9-1.2-7.4-3.6-10.7-6
			c-3.6-2.5-7.2-5.1-10.6-7.9c-3.3-2.8-6.3-5.8-9.7-8.4c-1.5-1.1-3-2.2-4.6-3.2c-0.9-0.5-1.7-1.1-2.6-1.6c-1-0.6-2.2-1.1-2.9-1.9
			c-1.6-1.7,0.2-3.8,1.7-4.8c1.8-1.2,4.2-1.5,6.4-1.7c4.1-0.3,8.1-0.1,12.1-0.5c4.4-0.5,8.7-1.3,13.1-1.2
			c9.4,0.1,17.5,5.2,25.1,10.1c0.9,0.5,1.6-0.6,1-1.3c-4.3-5.4-10-9.5-16.5-11.8c-7.4-2.7-15.1-2.5-22.9-1.6
			c-4.2,0.4-8.4,1-12.7,0.9c-0.9,0-5.4,0.2-5.4-0.9c0-0.5,1.9-1.4,2.3-1.6c0.8-0.5,1.7-0.9,2.6-1.2c3.4-1.3,7-1.7,10.5-2.3
			c3.4-0.6,6.8-1.3,10.1-2.4c7.2-2.2,14-5.9,18.7-11.8c0.5-0.7-0.2-1.9-1-1.3c-6.2,4.8-14.1,5.9-21.7,7.1c-3.8,0.6-7.6,1.1-11.3,2.2
			c-3.9,1.1-7.4,2.8-10.9,4.7c-4.3,2.3-8.6,4.8-13.5,5.4C123.5,72.7,123.4,73.5,124,73.5L124,73.5z"/>
	</g>
	<g>
		<path class="st0" d="M117.1,60.6c-2.6,0.1-6.4,3.9-3,5.7c2,1.1,4.4,1.7,6.6,2c1.8,0.2,3.9,0.4,5.5-0.7c0.7-0.5,0.1-1.6-0.7-1.1
			c-2.3,1.4-5.7,0.7-8.1,0c-1.4-0.4-4.1-0.9-3.5-2.8c0.4-1.4,2-2.2,3.2-2.7C117.2,60.9,117.2,60.6,117.1,60.6L117.1,60.6z"/>
	</g>
	<g>
		<path class="st0" d="M122.9,64.2c-1.2-0.7-2.4-1.3-3.8-1.5c-0.8-0.1-2,0-2.4,0.8c-0.9,1.9,5,2.5,6,2.5c0.7,0,0.7-1.1,0-1.1
			c-0.9,0-1.7,0-2.6-0.2c-0.4-0.1-0.8-0.2-1.1-0.3c-0.3-0.1-0.6-0.2-1-0.4c-0.4-0.1-0.5-0.2-0.2-0.2c0.5-0.4,1.9,0.1,2.4,0.2
			c0.8,0.2,1.5,0.5,2.3,0.7C122.9,64.8,123.1,64.3,122.9,64.2L122.9,64.2z"/>
	</g>
	<g>
		<path class="st0" d="M124.3,69.2c-3.1,1.8-2.9,5.3-2.8,8.4c0,2.1-0.4,4-1.8,5.7c-1.1,1.4-2.6,2-3.8,3.2c-0.3,0.3,0,0.8,0.4,0.7
			c2.7-0.7,5.3-3.7,6-6.3c0.5-1.8,0.2-3.7,0.1-5.5c-0.1-2.4,0.4-4.2,2-5.9C124.5,69.3,124.4,69.1,124.3,69.2L124.3,69.2z"/>
	</g>
	<g>
		<path class="st0" d="M123.6,72.1c-0.4,0.2-0.8,0.7-1.1,1.1c-0.3,0.4-0.7,0.8-0.8,1.3c-0.1,0.3,0.3,0.6,0.6,0.3
			c0.3-0.3,0.5-0.8,0.8-1.2c0.3-0.4,0.6-0.8,0.8-1.2C124.1,72.2,123.8,71.9,123.6,72.1L123.6,72.1z"/>
	</g>
	<g>
		<path class="st0" d="M123.8,74c-0.6,0.7-1.2,1.4-1.6,2.3c-0.1,0.2,0.2,0.4,0.3,0.2c0.4-0.8,0.9-1.6,1.4-2.3
			C124.1,74,123.9,73.9,123.8,74L123.8,74z"/>
	</g>
	<g>
		<path class="st0" d="M123.9,75.4c-0.7,1-1.5,2.1-2.1,3.2c-0.2,0.4,0.4,0.7,0.6,0.4c0.7-1,1.4-2.1,2-3.2
			C124.6,75.3,124.1,75.1,123.9,75.4L123.9,75.4z"/>
	</g>
	<g>
		<path class="st0" d="M123.8,77.4c-0.8,0.9-1.6,2-2.2,3.1c-0.2,0.3,0.3,0.8,0.6,0.4c0.7-1,1.5-2.1,2-3.2
			C124.4,77.5,124.1,77.2,123.8,77.4L123.8,77.4z"/>
	</g>
	<g>
		<path class="st0" d="M124.2,79c-0.6,0.5-1.1,1.1-1.7,1.7c-0.4,0.5-1,1.1-1.2,1.7c-0.1,0.3,0.3,0.5,0.5,0.3
			c0.5-0.4,0.9-1.1,1.4-1.7c0.5-0.6,0.9-1.1,1.4-1.6C124.9,79.1,124.5,78.8,124.2,79L124.2,79z"/>
	</g>
	<g>
		<path class="st0" d="M124.2,80.8c-1.3,1.1-2.8,2.3-3.9,3.7c-0.2,0.3,0.1,0.8,0.4,0.6c1.4-1,2.7-2.5,3.9-3.8
			C124.9,80.9,124.5,80.6,124.2,80.8L124.2,80.8z"/>
	</g>
	<g>
		<path class="st0" d="M124.6,82.2c-1.4,1-2.8,2-4.1,3.1c-0.4,0.3,0.1,1,0.5,0.7c1.4-1,2.7-2.1,4-3.2
			C125.4,82.5,124.9,81.9,124.6,82.2L124.6,82.2z"/>
	</g>
	<g>
		<path class="st0" d="M112,66.7c1.9,3,6,3.7,9.3,3.4c0.7-0.1,0.7-1.1,0-1.1c-1.7-0.1-3.3-0.2-4.9-0.6c-1.6-0.4-2.8-1.1-4.1-2
			C112.1,66.3,111.9,66.5,112,66.7L112,66.7z"/>
	</g>
	<g>
		<path class="st0" d="M113,70.4c-0.5,3.3,0.7,6.9-0.8,10c-0.2,0.5,0.5,1,0.8,0.5c1.5-3.4,0.2-6.9,0.3-10.4
			C113.4,70.2,113.1,70.2,113,70.4L113,70.4z"/>
	</g>
	<g>
		<path class="st0" d="M117,72.1c-0.3,1-0.5,2.1-0.7,3.1c-0.1,0.5-0.2,1.1,0.3,1.4c0.4,0.2,0.7,0,0.9-0.3c0.5-0.9,0-1.8,1-2.4
			c0.1-0.1,0-0.3-0.1-0.2c-0.8,0.4-0.7,1.2-1.2,1.8c-0.2,0.3-0.2,0.2-0.2-0.2c0-0.3,0.1-0.6,0.1-1c0.1-0.7,0.1-1.5,0.2-2.2
			C117.3,72,117,72,117,72.1L117,72.1z"/>
	</g>
	<g>
		<path class="st0" d="M118.9,77.9c-0.5,1-0.8,2.1-1.4,3.1c-0.6,1.1-1.6,1.6-2.7,2.1c-0.5,0.2-0.1,0.9,0.4,0.7c1.1-0.5,2.1-1,2.7-2
			c0.6-1.1,0.9-2.5,1.2-3.8C119.1,77.8,118.9,77.7,118.9,77.9L118.9,77.9z"/>
	</g>
	<g>
		<path class="st0" d="M111,84.2c-0.4,0.3-0.5,0.6-0.7,1.1c-0.2,0.4-0.4,0.8-0.4,1.3c0,0.8,0.7,1.3,1.4,1.6c0.5,0.2,0.9-0.4,0.4-0.7
			c-0.2-0.2-0.5-0.3-0.7-0.6c-0.3-0.4-0.1-0.7,0-1.1c0.2-0.5,0.4-1,0.3-1.5C111.2,84.2,111.1,84.1,111,84.2L111,84.2z"/>
	</g>
	<g>
		<path class="st0" d="M123.3,60c2.2-3.3,5.3-5.5,8.8-7.1c3.4-1.6,7-2.9,9.8-5.3c0.3-0.2-0.1-0.7-0.4-0.4c-3.3,2.8-7.2,4.1-11,6.1
			C127.6,54.8,124.5,56.8,123.3,60C123.3,60,123.3,60,123.3,60L123.3,60z"/>
	</g>
	<g>
		<path class="st0" d="M138,71.1c2.1-1.5,4.1-3.2,6.6-4.1c2.4-0.8,5-1.2,7.5-1.8c5.3-1.3,10.8-2.3,16.1-3.8c0.5-0.1,0.3-0.9-0.2-0.8
			c-5.6,1.2-11.2,2.8-16.8,4.2c-2.5,0.6-5.1,1.2-7.6,2.1c-2.2,0.9-4.1,2.2-5.8,3.8C137.5,70.9,137.7,71.2,138,71.1L138,71.1z"/>
	</g>
	<g>
		<path class="st0" d="M135.6,79c0.4-0.1,0.8-0.1,1.1-0.2c0.1,0,0.1-0.1,0-0.1c-0.4,0-0.8,0-1.1,0.1C135.4,78.8,135.4,79,135.6,79
			L135.6,79z"/>
	</g>
	<g>
		<path class="st0" d="M138.3,78.6c10.2-0.7,20.5-1.2,30.7-2.5c0.4-0.1,0.5-0.7,0-0.7c-10.3,0.5-20.5,1.9-30.7,3
			C138.2,78.4,138.2,78.6,138.3,78.6L138.3,78.6z"/>
	</g>
	<g>
		<path class="st0" d="M137.5,81.8c-0.4,0.8-0.9,1.7-1.3,2.6c-0.2,0.5,0.5,0.7,0.8,0.3c0.4-0.8,0.8-1.7,1.2-2.5
			C138.3,81.7,137.7,81.3,137.5,81.8L137.5,81.8z"/>
	</g>
	<g>
		<path class="st0" d="M140,81.1c-0.9,0.7-1.7,1.6-2.3,2.6c-0.2,0.3,0.3,0.5,0.4,0.3c0.7-0.9,1.3-1.8,2-2.6
			C140.4,81.1,140.2,80.9,140,81.1L140,81.1z"/>
	</g>
	<g>
		<path class="st0" d="M142.6,80c-0.9,0.9-1.8,1.9-2.3,3.1c-0.2,0.4,0.3,0.7,0.6,0.3c0.7-1,1.3-2,2.2-3
			C143.3,80.1,142.9,79.7,142.6,80L142.6,80z"/>
	</g>
	<g>
		<path class="st0" d="M144.6,80c-1,0.7-1.8,1.6-2.5,2.5c-0.2,0.3,0.2,0.7,0.4,0.4c0.8-0.9,1.6-1.7,2.4-2.5
			C145.1,80.2,144.8,79.9,144.6,80L144.6,80z"/>
	</g>
	<g>
		<path class="st0" d="M146.8,79.9c-0.9,0.7-1.8,1.5-2.4,2.5c-0.2,0.3,0.3,0.7,0.5,0.4c0.7-0.8,1.4-1.7,2.1-2.5
			C147.3,80.1,147,79.7,146.8,79.9L146.8,79.9z"/>
	</g>
	<g>
		<path class="st0" d="M149.2,79.6c-1.1,0.7-2.1,1.7-2.6,2.9c-0.2,0.4,0.4,0.8,0.6,0.4c0.7-1.1,1.4-2,2.4-2.7
			C149.9,79.9,149.5,79.5,149.2,79.6L149.2,79.6z"/>
	</g>
	<g>
		<path class="st0" d="M151.7,79.6c-0.5,0.2-0.9,0.7-1.2,1c-0.4,0.4-0.9,0.8-1.2,1.3c-0.1,0.3,0.1,0.6,0.4,0.4
			c0.5-0.3,0.9-0.8,1.3-1.2c0.4-0.4,0.8-0.8,1-1.2C152,79.8,151.9,79.6,151.7,79.6L151.7,79.6z"/>
	</g>
	<g>
		<path class="st0" d="M154.2,79.1c-0.8,0.8-1.7,1.6-2.3,2.4c-0.3,0.4,0.2,0.9,0.6,0.6c0.8-0.7,1.6-1.6,2.3-2.5
			C155,79.2,154.5,78.7,154.2,79.1L154.2,79.1z"/>
	</g>
	<g>
		<path class="st0" d="M156.8,79.5C156.8,79.5,156.8,79.5,156.8,79.5c0,0,0,0.1,0,0.2c0,0,0,0,0,0c-0.1,0-0.1,0-0.2,0c0,0,0,0,0,0
			c0-0.1,0-0.2,0-0.3c-0.1,0.2-0.4,0.3-0.6,0.4c-0.2,0.1-0.4,0.3-0.6,0.4c-0.4,0.3-0.8,0.5-1.1,0.8c-0.3,0.2,0.1,0.8,0.4,0.5
			c0.4-0.3,0.7-0.5,1-0.8c0.3-0.3,0.8-0.6,1.1-0.9c0.3-0.3-0.1-0.8-0.4-0.4c0,0.1,0,0.2,0,0.2c0,0,0,0,0,0
			C156.7,79.8,156.9,79.6,156.8,79.5L156.8,79.5z"/>
	</g>
	<g>
		<path class="st0" d="M158.8,78.6c-1,0.4-1.9,1.1-2.4,2c-0.3,0.5,0.4,0.8,0.7,0.4c0.6-0.7,1.2-1.3,1.9-1.9
			C159.3,79,159.2,78.5,158.8,78.6L158.8,78.6z"/>
	</g>
	<g>
		<path class="st0" d="M162.3,78.7c-1,0.2-2,0.9-2.5,1.9c-0.2,0.4,0.3,0.6,0.5,0.3c0.6-0.8,1.2-1.3,2.1-1.7
			C162.7,79.1,162.6,78.6,162.3,78.7L162.3,78.7z"/>
	</g>
	<g>
		<path class="st0" d="M164.4,78.2c-0.6,0.3-1.2,0.7-1.6,1.3c-0.2,0.2,0.1,0.5,0.3,0.3c0.4-0.5,0.9-0.9,1.5-1.3
			C164.8,78.4,164.6,78.1,164.4,78.2L164.4,78.2z"/>
	</g>
	<g>
		<path class="st0" d="M167,77.7c-0.4,0.2-0.7,0.4-1.1,0.7c-0.3,0.3-0.7,0.5-0.9,0.9c-0.1,0.2,0.1,0.5,0.4,0.4
			c0.3-0.2,0.6-0.5,0.9-0.8c0.3-0.3,0.7-0.5,1-0.8C167.5,78,167.3,77.5,167,77.7L167,77.7z"/>
	</g>
	<g>
		<path class="st0" d="M169.7,77.9c-0.8,0.2-1.5,0.6-2,1.2c-0.2,0.3,0.2,0.7,0.4,0.4c0.5-0.5,1-1,1.7-1.2
			C170.1,78.2,170,77.8,169.7,77.9L169.7,77.9z"/>
	</g>
	<g>
		<path class="st0" d="M171.2,78c-0.5,0.3-1,0.7-1.5,1.1c-0.2,0.2,0.1,0.6,0.4,0.5c0.5-0.3,1-0.8,1.4-1.2
			C171.6,78.2,171.4,77.9,171.2,78L171.2,78z"/>
	</g>
	<g>
		<path class="st0" d="M173.6,78.3c-0.5,0.3-1.1,0.6-1.6,0.9c-0.4,0.3-0.1,0.9,0.4,0.6c0.5-0.3,1-0.7,1.5-1
			C174.2,78.6,173.9,78.1,173.6,78.3L173.6,78.3z"/>
	</g>
	<g>
		<path class="st0" d="M175,79.3c0.1,0,0.2,0.1,0.2,0.1c0-0.1,0.1-0.2,0.1-0.3c-0.5,0.3-1,0.7-1.4,1.1c-0.3,0.2,0.1,0.6,0.4,0.4
			c0.4-0.4,0.9-0.7,1.3-1.2c0.1-0.1,0.1-0.3-0.1-0.4c-0.2-0.1-0.3-0.1-0.5,0C174.8,79.1,174.9,79.3,175,79.3L175,79.3z"/>
	</g>
	<g>
		<path class="st0" d="M176.9,79.8C176.9,79.8,176.9,79.8,176.9,79.8c-0.4,0.1-0.4,0.6-0.1,0.5c0.3,0,0.5-0.2,0.5-0.5
			C177.3,79.5,177,79.5,176.9,79.8L176.9,79.8z"/>
	</g>
	<g>
		<path class="st0" d="M112.1,99.4c-0.2,1.4-0.5,2.8-0.5,4.3c0,0.5,0.8,0.6,0.9,0.1c0.3-1.4,0.3-2.9,0.4-4.3
			C112.9,99.1,112.2,99,112.1,99.4L112.1,99.4z"/>
	</g>
	<g>
		<path class="st0" d="M114.5,95.8c-0.2,1.4-0.3,2.8-0.3,4.2c0,0.5,0.7,0.5,0.8,0c0.1-1.4,0.2-2.8,0.2-4.2
			C115.1,95.4,114.5,95.4,114.5,95.8L114.5,95.8z"/>
	</g>
	<g>
		<path class="st0" d="M116.7,94.5c-0.4,1.2-0.6,2.3-0.9,3.5c-0.1,0.5,0.6,0.7,0.7,0.2c0.3-1.2,0.5-2.4,0.7-3.6
			C117.3,94.3,116.8,94.1,116.7,94.5L116.7,94.5z"/>
	</g>
	<g>
		<path class="st0" d="M118.9,93.3c-0.4,1.3-0.7,2.6-1,3.8c-0.1,0.5,0.6,0.7,0.7,0.2c0.3-1.3,0.6-2.6,0.8-3.9
			C119.5,93.1,119,92.9,118.9,93.3L118.9,93.3z"/>
	</g>
	<g>
		<path class="st0" d="M121.5,92.1c-0.4,1.2-0.7,2.6-1,3.8c-0.1,0.4,0.6,0.6,0.7,0.2c0.3-1.3,0.7-2.6,0.9-3.9
			C122.1,91.9,121.6,91.7,121.5,92.1L121.5,92.1z"/>
	</g>
	<g>
		<path class="st0" d="M124.3,92c-0.8,0.9-1.4,2.2-1.6,3.4c-0.1,0.5,0.6,0.7,0.8,0.2c0.4-1.1,0.8-2.1,1.3-3.2
			C125,92.1,124.6,91.7,124.3,92L124.3,92z"/>
	</g>
	<g>
		<path class="st0" d="M127.1,91.9c-0.9,1.1-1.5,2.3-1.9,3.6c-0.2,0.5,0.6,0.7,0.8,0.2c0.4-1.2,1-2.3,1.7-3.4
			C127.8,92,127.3,91.6,127.1,91.9L127.1,91.9z"/>
	</g>
	<g>
		<path class="st0" d="M129.7,92.4c-0.4,0.4-0.6,0.9-0.9,1.4c-0.3,0.5-0.6,1-0.9,1.6c-0.3,0.5,0.5,0.9,0.7,0.4
			c0.3-0.5,0.6-1.1,0.9-1.6c0.3-0.5,0.6-1,0.7-1.5C130.3,92.4,129.9,92.2,129.7,92.4L129.7,92.4z"/>
	</g>
	<g>
		<path class="st0" d="M132.3,92.7c-0.7,0.7-1.4,1.4-2,2.2c-0.3,0.4,0.2,0.9,0.5,0.5c0.7-0.8,1.3-1.6,1.9-2.4
			C132.9,92.8,132.5,92.5,132.3,92.7L132.3,92.7z"/>
	</g>
	<g>
		<path class="st0" d="M134.2,93.3c-0.6,0.6-1.2,1.4-1.7,2.1c-0.3,0.4-0.5,0.9,0,1.3c0.4,0.2,0.7-0.3,0.5-0.6c0,0,1.5-2.2,1.6-2.4
			C134.8,93.4,134.4,93.1,134.2,93.3L134.2,93.3z"/>
	</g>
	<g>
		<path class="st0" d="M136.2,94.7c-0.3,0.1-0.6,0.4-0.8,0.6c-0.3,0.3-0.6,0.6-0.9,0.9c-0.3,0.4,0.2,0.8,0.5,0.5
			c0.3-0.3,0.5-0.6,0.8-0.9c0.2-0.3,0.5-0.6,0.6-0.9C136.4,94.8,136.3,94.6,136.2,94.7L136.2,94.7z"/>
	</g>
	<g>
		<path class="st0" d="M138,95.3c0.1,0,0.2,0,0.2,0.1c0-0.1,0-0.2,0-0.3c-0.5,0.5-1.1,1-1.6,1.5c-0.3,0.3,0.2,0.9,0.5,0.5
			c0.5-0.6,1-1.1,1.4-1.7c0.1-0.1,0.1-0.3,0-0.3c-0.2-0.2-0.5-0.2-0.7-0.1C137.7,95,137.8,95.3,138,95.3L138,95.3z"/>
	</g>
	<g>
		<path class="st0" d="M139.7,96.3c-0.3,0.2-0.6,0.5-0.9,0.7c-0.3,0.2-0.6,0.4-0.9,0.6c-0.3,0.2,0.1,0.6,0.4,0.5
			c0.3-0.2,0.7-0.4,1-0.7c0.3-0.3,0.6-0.5,0.8-0.9C140.2,96.4,139.9,96.2,139.7,96.3L139.7,96.3z"/>
	</g>
	<g>
		<path class="st0" d="M142.4,96.9c-0.4,0.1-0.8,0.3-1.2,0.6c-0.4,0.3-0.8,0.6-1,1c-0.2,0.3,0.2,0.7,0.5,0.4c0.3-0.3,0.5-0.7,0.8-1
			c0.3-0.3,0.6-0.6,0.9-0.9C142.6,97.1,142.5,96.9,142.4,96.9L142.4,96.9z"/>
	</g>
	<g>
		<path class="st0" d="M144.6,97.9c-0.7,0.5-1.5,1-2.2,1.5c-0.3,0.2,0,0.7,0.3,0.5c0.8-0.4,1.6-1,2.2-1.6
			C145.2,98.2,144.9,97.8,144.6,97.9L144.6,97.9z"/>
	</g>
	<g>
		<path class="st0" d="M144.8,99.3c-0.4,0.3-0.9,0.6-1.3,0.9c-0.4,0.3,0,0.9,0.4,0.6c0.4-0.3,0.8-0.7,1.1-1
			C145.3,99.5,145,99.1,144.8,99.3L144.8,99.3z"/>
	</g>
	<g>
		<path class="st0" d="M146.3,100.3c-0.6,0.5-1.2,1-1.6,1.6c-0.2,0.3,0.2,0.6,0.5,0.4c0.3-0.3,0.5-0.6,0.7-0.9
			c0.2-0.3,0.4-0.6,0.6-0.9C146.8,100.4,146.5,100.2,146.3,100.3L146.3,100.3z"/>
	</g>
	<g>
		<path class="st0" d="M147.5,101.8c-0.3,0.2-0.5,0.5-0.8,0.7c-0.3,0.2-0.6,0.4-0.8,0.7c-0.3,0.3,0.1,0.8,0.5,0.6
			c0.3-0.2,0.6-0.5,0.8-0.8c0.3-0.3,0.5-0.6,0.7-0.9C148.2,101.9,147.8,101.6,147.5,101.8L147.5,101.8z"/>
	</g>
	<g>
		<path class="st0" d="M148.6,102.8c-0.4,0.3-0.7,0.7-1,1.1c-0.4,0.4,0.3,0.9,0.6,0.5c0.3-0.4,0.6-0.7,0.8-1.2
			C149.1,103,148.9,102.7,148.6,102.8L148.6,102.8z"/>
	</g>
	<g>
		<path class="st0" d="M149,104.1c-0.1,0.3-0.2,0.5-0.5,0.7c-0.4,0.2,0,0.9,0.4,0.6c0.4-0.3,0.7-0.8,0.6-1.3
			C149.5,103.8,149.1,103.9,149,104.1L149,104.1z"/>
	</g>
	<g>
		<path class="st0" d="M150.9,105.2c-0.3,0.3-0.7,0.6-1,0.8c-0.4,0.3,0.2,1,0.6,0.6c0.3-0.3,0.6-0.7,0.8-1
			C151.5,105.3,151.2,105,150.9,105.2L150.9,105.2z"/>
	</g>
	<g>
		<path class="st0" d="M152.8,106.6c-0.4,0.2-0.7,0.5-0.9,0.9c-0.2,0.3,0.3,0.6,0.5,0.3c0.2-0.3,0.4-0.5,0.7-0.7
			C153.3,106.8,153.1,106.4,152.8,106.6L152.8,106.6z"/>
	</g>
	<g>
		<path class="st0" d="M154.4,107.5c-0.3,0.2-0.7,0.4-1,0.7c-0.3,0.2,0.1,0.6,0.4,0.5c0.3-0.2,0.6-0.4,0.9-0.6
			C154.9,107.8,154.7,107.3,154.4,107.5L154.4,107.5z"/>
	</g>
	<g>
		<path class="st0" d="M156.2,108.5c-0.3,0.3-0.6,0.5-0.9,0.8c-0.2,0.2,0.1,0.5,0.3,0.3c0.3-0.3,0.6-0.5,0.9-0.8
			C156.7,108.6,156.4,108.3,156.2,108.5L156.2,108.5z"/>
	</g>
	<g>
		<path class="st0" d="M157.7,109.1c-0.4,0.2-0.8,0.6-0.9,1c-0.1,0.3,0.3,0.6,0.5,0.3c0.2-0.3,0.4-0.5,0.7-0.7
			C158.4,109.5,158.1,108.9,157.7,109.1L157.7,109.1z"/>
	</g>
	<g>
		<path class="st0" d="M159.9,110.2c-0.5,0.4-1,0.8-1.5,1.2c-0.4,0.3,0.2,0.8,0.5,0.5c0.5-0.4,0.9-0.8,1.3-1.3
			C160.4,110.5,160.2,110.1,159.9,110.2L159.9,110.2z"/>
	</g>
	<g>
		<path class="st0" d="M161.1,111.9C160.9,111.9,161.1,111.8,161.1,111.9c-0.1,0-0.1,0.1-0.1,0.1c-0.1,0.1-0.2,0.2-0.3,0.2
			c-0.2,0.2-0.4,0.4-0.4,0.7c0.1,0.4,0.7,0.5,0.7,0c0-0.2,0.3-0.3,0.4-0.4c0.1-0.1,0.2-0.3,0.3-0.5c0-0.3-0.2-0.7-0.6-0.6
			C160.8,111.5,160.8,111.9,161.1,111.9L161.1,111.9z"/>
	</g>
	<g>
		<path class="st0" d="M161.9,112.9c-0.3,0.2-0.5,0.4-0.7,0.6c-0.3,0.3,0.2,0.7,0.4,0.4c0.2-0.2,0.4-0.5,0.6-0.7
			C162.4,113,162.1,112.8,161.9,112.9L161.9,112.9z"/>
	</g>
	<g>
		<path class="st0" d="M125.7,75.3c-0.3,0.4-0.6,0.8-0.9,1.2c-0.2,0.3,0.3,0.7,0.6,0.3c0.3-0.4,0.5-0.8,0.8-1.2
			C126.3,75.3,125.9,75,125.7,75.3L125.7,75.3z"/>
	</g>
	<g>
		<path class="st0" d="M126.5,76c-0.4,0.4-0.8,1-1,1.5c-0.1,0.2,0.3,0.4,0.4,0.2c0.3-0.5,0.5-1,0.9-1.4
			C126.9,76.1,126.6,75.8,126.5,76L126.5,76z"/>
	</g>
	<g>
		<path class="st0" d="M127.3,76.7c-0.6,0.5-1.3,1.2-1.6,1.9c-0.2,0.4,0.4,0.7,0.6,0.3c0.4-0.7,0.8-1.3,1.4-1.8
			C128,76.9,127.6,76.5,127.3,76.7L127.3,76.7z"/>
	</g>
	<g>
		<path class="st0" d="M127.4,78.1c-0.3,0.2-0.6,0.5-0.8,0.8c-0.3,0.3-0.5,0.5-0.7,0.8c-0.2,0.3,0.2,0.6,0.5,0.4
			c0.3-0.2,0.5-0.6,0.7-0.9c0.2-0.3,0.4-0.6,0.6-0.9C127.8,78.1,127.5,78,127.4,78.1L127.4,78.1z"/>
	</g>
	<g>
		<path class="st0" d="M127.6,79.7c-0.6,0.7-1.2,1.3-1.8,2c-0.2,0.2,0.1,0.6,0.3,0.3c0.6-0.7,1.1-1.4,1.7-2.1
			C128,79.8,127.7,79.6,127.6,79.7L127.6,79.7z"/>
	</g>
	<g>
		<path class="st0" d="M127.4,81.8c-0.6,0.5-1.2,0.9-1.7,1.5c-0.2,0.2,0.1,0.6,0.3,0.4c0.6-0.4,1.2-1,1.8-1.5
			C128,81.9,127.6,81.6,127.4,81.8L127.4,81.8z"/>
	</g>
	<g>
		<path class="st0" d="M126.7,83.6c-0.4,0.2-0.7,0.5-1.1,0.7c-0.2,0.2,0,0.5,0.2,0.4c0.4-0.3,0.7-0.5,1.1-0.8
			C127,83.8,126.8,83.5,126.7,83.6L126.7,83.6z"/>
	</g>
	<g>
		<path class="st0" d="M141.2,71.3c-0.3,0.5-0.6,1.1-0.7,1.7c-0.1,0.2,0.3,0.3,0.3,0.1c0.1-0.6,0.3-1.2,0.6-1.7
			C141.5,71.3,141.3,71.2,141.2,71.3L141.2,71.3z"/>
	</g>
	<g>
		<path class="st0" d="M142.7,70.9c-0.3,0.6-0.7,1.3-1,1.9c-0.1,0.2,0.2,0.4,0.3,0.2c0.3-0.6,0.6-1.3,0.9-2
			C143,70.9,142.8,70.8,142.7,70.9L142.7,70.9z"/>
	</g>
	<g>
		<path class="st0" d="M144.8,70.2c-0.5,0.6-0.9,1.2-1.2,1.9c-0.1,0.2,0.2,0.4,0.3,0.2c0.3-0.7,0.7-1.3,1.1-2
			C145.1,70.2,144.9,70.1,144.8,70.2L144.8,70.2z"/>
	</g>
	<g>
		<path class="st0" d="M146.7,69.7c-0.4,0.7-0.7,1.4-0.8,2.2c-0.1,0.4,0.5,0.4,0.5,0.1c0.1-0.7,0.3-1.4,0.6-2.1
			C147.1,69.7,146.8,69.5,146.7,69.7L146.7,69.7z"/>
	</g>
	<g>
		<path class="st0" d="M148.1,69.3c-0.3,0.7-0.5,1.4-0.7,2.1c-0.1,0.2,0.3,0.3,0.4,0.1c0.2-0.7,0.4-1.4,0.6-2.1
			C148.4,69.2,148.1,69.2,148.1,69.3L148.1,69.3z"/>
	</g>
	<g>
		<path class="st0" d="M150,69c-0.3,0.8-0.7,1.7-0.8,2.5c0,0.2,0.2,0.3,0.3,0.1c0.3-0.8,0.5-1.7,0.7-2.6C150.2,69,150,68.9,150,69
			L150,69z"/>
	</g>
	<g>
		<path class="st0" d="M152.3,68.2c-0.3,0.3-0.5,0.7-0.7,1.1c-0.2,0.4-0.4,0.8-0.4,1.2c-0.1,0.4,0.5,0.6,0.7,0.2
			c0.1-0.4,0.3-0.8,0.4-1.1c0.1-0.4,0.4-0.7,0.5-1.1C152.8,68.2,152.5,68,152.3,68.2L152.3,68.2z"/>
	</g>
	<g>
		<path class="st0" d="M154,67.9c-0.5,0.7-0.9,1.8-1.1,2.7c-0.1,0.3,0.4,0.5,0.5,0.2c0.2-0.4,0.4-0.9,0.5-1.3c0.2-0.5,0.4-1,0.5-1.5
			C154.4,67.8,154.2,67.7,154,67.9L154,67.9z"/>
	</g>
	<g>
		<path class="st0" d="M156.2,67.3c-0.5,0.8-0.9,1.8-1,2.7c0,0.4,0.5,0.4,0.6,0.1c0.3-0.8,0.5-1.7,0.9-2.5
			C156.8,67.3,156.4,67,156.2,67.3L156.2,67.3z"/>
	</g>
	<g>
		<path class="st0" d="M158.3,67.1c-0.4,0.8-0.8,1.6-1.1,2.4c-0.1,0.2,0.3,0.4,0.4,0.2c0.4-0.8,0.7-1.6,1-2.4
			C158.7,67.1,158.4,66.9,158.3,67.1L158.3,67.1z"/>
	</g>
	<g>
		<path class="st0" d="M159.9,67c-0.3,0.3-0.5,0.6-0.7,0.9c-0.2,0.3-0.4,0.7-0.5,1c0,0.3,0.3,0.5,0.5,0.2c0.2-0.3,0.3-0.6,0.5-0.9
			c0.2-0.3,0.3-0.6,0.5-0.9C160.3,67.1,160,66.8,159.9,67L159.9,67z"/>
	</g>
	<g>
		<path class="st0" d="M161.4,66.5c-0.4,0.5-0.8,1.2-0.9,1.8c-0.1,0.3,0.4,0.5,0.5,0.2c0.1-0.3,0.2-0.6,0.3-0.9
			c0.1-0.3,0.3-0.6,0.4-1C161.9,66.5,161.6,66.3,161.4,66.5L161.4,66.5z"/>
	</g>
	<g>
		<path class="st0" d="M163.3,66.2c-0.4,0.3-0.7,0.9-0.9,1.3c-0.2,0.4,0.4,0.7,0.5,0.3c0.1-0.2,0.2-0.5,0.3-0.7
			c0.1-0.2,0.3-0.4,0.4-0.7C163.6,66.3,163.4,66.1,163.3,66.2L163.3,66.2z"/>
	</g>
	<g>
		<path class="st0" d="M164.6,65.8c-0.4,0.4-0.7,0.8-0.9,1.3c-0.2,0.3,0.3,0.6,0.5,0.3c0.2-0.5,0.5-0.9,0.6-1.4
			C164.8,65.8,164.6,65.7,164.6,65.8L164.6,65.8z"/>
	</g>
	<g>
		<path class="st0" d="M165.6,65.1c-0.5,0.3-0.8,0.8-0.9,1.3c-0.1,0.5,0.6,0.7,0.7,0.2c0.1-0.4,0.3-0.8,0.6-1.2
			C166.2,65.2,165.9,64.9,165.6,65.1L165.6,65.1z"/>
	</g>
	<g>
		<path class="st0" d="M89.1,69c-0.1,0.2-0.3,0.4-0.4,0.5c-0.2,0.2-0.3,0.3-0.6,0.4c-0.3,0.1,0,0.6,0.3,0.4c0.2-0.2,0.4-0.3,0.6-0.6
			c0.1-0.1,0.2-0.2,0.2-0.4c0-0.1,0-0.2,0.1-0.3C89.3,69,89.1,68.9,89.1,69L89.1,69z"/>
	</g>
	<g>
		<path class="st0" d="M90.6,69.5c-0.3,0.3-0.7,0.5-1,0.8c-0.1,0.1,0.1,0.3,0.2,0.2c0.3-0.3,0.6-0.6,0.9-0.9
			C90.8,69.6,90.7,69.5,90.6,69.5L90.6,69.5z"/>
	</g>
	<g>
		<path class="st0" d="M91.7,69.8c-0.3,0.4-0.6,0.6-1,0.8c-0.2,0.1-0.1,0.5,0.2,0.4c0.5-0.2,0.9-0.7,1.1-1.2
			C92,69.8,91.7,69.7,91.7,69.8L91.7,69.8z"/>
	</g>
	<g>
		<path class="st0" d="M92.7,69.9c-0.4,0.4-0.9,0.8-1.3,1.2c-0.2,0.3,0.1,0.6,0.4,0.4c0.4-0.4,0.8-0.9,1.2-1.4
			C93.1,70,92.8,69.8,92.7,69.9L92.7,69.9z"/>
	</g>
	<g>
		<path class="st0" d="M93.9,70.3c-0.4,0.1-0.7,0.5-0.9,0.8c-0.3,0.3-0.5,0.6-0.6,1c-0.1,0.3,0.3,0.5,0.5,0.3
			c0.2-0.3,0.4-0.6,0.6-0.9c0.2-0.3,0.6-0.5,0.7-0.9C94.2,70.4,94.1,70.2,93.9,70.3L93.9,70.3z"/>
	</g>
	<g>
		<path class="st0" d="M95,71.1c-0.4,0.5-0.8,1-1.3,1.5c-0.2,0.2,0.1,0.6,0.4,0.4c0.5-0.5,0.9-1,1.2-1.7
			C95.4,71.2,95.1,70.9,95,71.1L95,71.1z"/>
	</g>
	<g>
		<path class="st0" d="M96.5,72.1c-0.8,0.5-1.6,1.2-2.1,2c-0.2,0.3,0.2,0.5,0.4,0.3c0.3-0.3,0.6-0.7,0.9-1.1c0.3-0.3,0.6-0.7,1-1
			C96.9,72.2,96.7,72,96.5,72.1L96.5,72.1z"/>
	</g>
	<g>
		<path class="st0" d="M96.9,73.5c-0.4,0.4-0.9,0.9-1.3,1.4c-0.2,0.3,0.1,0.7,0.4,0.4c0.4-0.5,0.8-1,1.2-1.5
			C97.4,73.6,97.1,73.4,96.9,73.5L96.9,73.5z"/>
	</g>
	<g>
		<path class="st0" d="M98.1,74.5c-0.3,0.2-0.5,0.5-0.8,0.8c-0.2,0.3-0.5,0.5-0.7,0.8c-0.1,0.2,0.2,0.4,0.4,0.3
			c0.3-0.2,0.5-0.6,0.7-0.8c0.2-0.3,0.4-0.5,0.6-0.8C98.5,74.6,98.2,74.4,98.1,74.5L98.1,74.5z"/>
	</g>
	<g>
		<path class="st0" d="M98.6,75.4c-0.3,0.1-0.5,0.4-0.7,0.7c-0.2,0.3-0.5,0.5-0.7,0.8c-0.2,0.3,0.2,0.6,0.5,0.4
			c0.3-0.3,0.5-0.6,0.7-0.9c0.2-0.3,0.5-0.5,0.5-0.9C98.8,75.4,98.7,75.3,98.6,75.4L98.6,75.4z"/>
	</g>
	<g>
		<path class="st0" d="M99.7,76.4c-0.3,0.2-0.6,0.5-0.8,0.8c-0.3,0.3-0.6,0.6-0.9,0.9c-0.3,0.3,0.1,0.7,0.4,0.4
			c0.3-0.3,0.6-0.6,0.9-0.9c0.2-0.3,0.5-0.6,0.7-1C100,76.4,99.8,76.3,99.7,76.4L99.7,76.4z"/>
	</g>
	<g>
		<path class="st0" d="M99.8,77.6c-0.6,0.6-1.3,1.2-1.7,1.8c-0.2,0.3,0.2,0.6,0.5,0.4c0.6-0.5,1.1-1.2,1.6-1.9
			C100.3,77.7,100,77.4,99.8,77.6L99.8,77.6z"/>
	</g>
	<g>
		<path class="st0" d="M99.6,79.3c-0.2,0.3-0.4,0.5-0.5,0.8c-0.2,0.3,0.3,0.6,0.5,0.3c0.2-0.3,0.3-0.6,0.5-0.8
			C100.2,79.3,99.8,79,99.6,79.3L99.6,79.3z"/>
	</g>
	<g>
		<path class="st0" d="M65.6,80.7c-0.1,0.5-0.4,1-0.9,1.2c-0.4,0.2-0.3,0.8,0.2,0.7c0.4-0.1,0.7-0.4,0.9-0.7
			c0.2-0.4,0.2-0.7,0.1-1.1C65.8,80.5,65.6,80.5,65.6,80.7L65.6,80.7z"/>
	</g>
	<g>
		<path class="st0" d="M67.9,81.2c-0.8,0.4-1.6,1-2.2,1.6c-0.2,0.3,0.2,0.7,0.4,0.4c0.6-0.7,1.3-1.2,2.1-1.7
			C68.4,81.4,68.2,81.1,67.9,81.2L67.9,81.2z"/>
	</g>
	<g>
		<path class="st0" d="M69.4,81.5c-0.8,0.5-1.6,1.1-2.2,1.8c-0.2,0.3,0.2,0.6,0.4,0.3c0.5-0.7,1.2-1.3,2-1.8
			C69.8,81.7,69.6,81.4,69.4,81.5L69.4,81.5z"/>
	</g>
	<g>
		<path class="st0" d="M70.7,82c-0.4,0.2-0.7,0.4-1,0.7c-0.3,0.3-0.7,0.5-1,0.8c-0.3,0.2,0.1,0.6,0.4,0.4c0.6-0.5,1.3-1.1,1.8-1.7
			C70.8,82.1,70.8,82,70.7,82L70.7,82z"/>
	</g>
	<g>
		<path class="st0" d="M73.2,81.6c-0.5,0.4-1,0.7-1.5,1.1c-0.5,0.3-1,0.6-1.4,1.1c-0.2,0.2,0,0.5,0.3,0.4c0.5-0.3,0.9-0.7,1.4-1
			c0.5-0.4,1-0.8,1.4-1.2C73.7,81.7,73.4,81.4,73.2,81.6L73.2,81.6z"/>
	</g>
	<g>
		<path class="st0" d="M75.1,81.8c-0.4,0.3-0.8,0.6-1.1,0.9c-0.4,0.3-0.8,0.6-1.1,1c-0.2,0.2,0.1,0.6,0.3,0.4c0.4-0.3,0.7-0.6,1.1-1
			c0.4-0.4,0.7-0.7,1.1-1.1C75.4,81.9,75.2,81.7,75.1,81.8L75.1,81.8z"/>
	</g>
	<g>
		<path class="st0" d="M76.7,82.6c0,0.1,0,0.2-0.1,0.2c-0.1,0.1-0.2,0.1-0.3,0.2c-0.2,0.1-0.4,0.2-0.6,0.4c-0.4,0.2-0.8,0.5-1.2,0.7
			c-0.3,0.2,0,0.7,0.3,0.5c0.4-0.2,0.8-0.6,1.2-0.8c0.3-0.2,0.7-0.5,1-0.8C77,82.7,76.9,82.4,76.7,82.6
			C76.6,82.5,76.6,82.6,76.7,82.6L76.7,82.6z"/>
	</g>
	<g>
		<path class="st0" d="M78.6,82.6c-0.2,0.1-0.3,0.1-0.5,0.3c-0.2,0.1-0.3,0.3-0.5,0.5c-0.3,0.3-0.7,0.6-0.9,0.9
			c-0.1,0.2,0.2,0.5,0.4,0.4c0.3-0.3,0.6-0.6,0.9-0.9c0.1-0.2,0.3-0.3,0.4-0.5c0.1-0.1,0.1-0.1,0.2-0.2
			C78.6,82.9,78.6,82.7,78.6,82.6C78.7,82.6,78.7,82.5,78.6,82.6L78.6,82.6z"/>
	</g>
	<g>
		<path class="st0" d="M80.5,82.8c0,0-0.5,0.4-0.6,0.5c-0.2,0.1-0.4,0.3-0.6,0.4c-0.4,0.3-0.8,0.7-1.1,1.1c-0.2,0.3,0.2,0.7,0.4,0.4
			c0.4-0.4,0.7-0.8,1.1-1.2c0.3-0.3,0.8-0.6,1-1.1c0,0,0-0.1,0-0.2c-0.1-0.2-0.4-0.3-0.4,0c0,0,0,0.1,0,0.1c0,0,0,0,0,0
			C80.5,82.9,80.6,82.8,80.5,82.8L80.5,82.8z"/>
	</g>
	<g>
		<path class="st0" d="M82.2,82.9c-0.5,0.3-0.9,0.7-1.4,1c-0.5,0.3-1,0.7-1.4,1c-0.3,0.2,0,0.7,0.3,0.5c0.5-0.3,1-0.7,1.5-1.1
			c0.5-0.4,0.9-0.7,1.3-1.2C82.5,82.9,82.3,82.8,82.2,82.9L82.2,82.9z"/>
	</g>
	<g>
		<path class="st0" d="M84.2,83.3c-0.8,0.5-1.5,1.1-2.3,1.6c-0.3,0.2,0,0.6,0.3,0.4c0.7-0.6,1.5-1.2,2.1-1.8
			C84.4,83.4,84.3,83.3,84.2,83.3L84.2,83.3z"/>
	</g>
	<g>
		<path class="st0" d="M85.8,83.6c-0.9,0.6-1.7,1.4-2.6,2c-0.3,0.2,0,0.7,0.3,0.5c0.9-0.6,1.9-1.3,2.5-2.3
			C86,83.7,85.9,83.5,85.8,83.6L85.8,83.6z"/>
	</g>
	<g>
		<path class="st0" d="M88.2,83.7c-0.9,0.6-1.7,1.4-2.6,2.1c-0.3,0.3,0.1,0.7,0.4,0.4c0.8-0.7,1.7-1.4,2.4-2.2
			C88.5,83.8,88.4,83.5,88.2,83.7L88.2,83.7z"/>
	</g>
	<g>
		<path class="st0" d="M89.4,84.4c-0.4,0.2-0.8,0.5-1.2,0.9c-0.4,0.3-0.9,0.6-1.2,1c-0.2,0.3,0.1,0.7,0.4,0.5
			c0.4-0.3,0.8-0.7,1.2-1.1c0.4-0.4,0.7-0.7,1.1-1.1C89.6,84.4,89.5,84.3,89.4,84.4L89.4,84.4z"/>
	</g>
	<g>
		<path class="st0" d="M91.2,84.7c-0.5,0.3-0.9,0.8-1.4,1.1c-0.4,0.3-1,0.6-1.4,0.9c-0.2,0.2,0,0.5,0.3,0.5c0.6-0.2,1.1-0.6,1.5-1
			c0.5-0.4,1-0.8,1.3-1.3C91.6,84.8,91.4,84.6,91.2,84.7L91.2,84.7z"/>
	</g>
	<g>
		<path class="st0" d="M92.5,85c-0.4,0.4-0.8,0.7-1.2,1.1c-0.4,0.3-0.8,0.7-1.1,1.1c-0.2,0.2,0.2,0.5,0.4,0.4c0.4-0.3,0.8-0.7,1.2-1
			c0.4-0.4,0.8-0.8,1.2-1.1C93.2,85.1,92.8,84.7,92.5,85L92.5,85z"/>
	</g>
	<g>
		<path class="st0" d="M94.3,85.2c-0.9,0.7-1.8,1.4-2.7,2.2c-0.3,0.3,0.1,0.7,0.5,0.5c0.9-0.7,1.7-1.5,2.5-2.3
			C94.8,85.4,94.5,85.1,94.3,85.2L94.3,85.2z"/>
	</g>
	<g>
		<path class="st0" d="M96.2,86.2c-0.9,0.4-1.8,1-2.4,1.8c-0.2,0.3,0.2,0.6,0.5,0.4c0.7-0.6,1.4-1.2,2.2-1.6
			C96.9,86.6,96.6,86.1,96.2,86.2L96.2,86.2z"/>
	</g>
	<g>
		<path class="st0" d="M97.4,86.6c-0.4,0.1-0.7,0.5-1.1,0.8c-0.4,0.3-0.8,0.6-1.1,1c-0.2,0.3,0.1,0.8,0.4,0.5
			c0.4-0.3,0.7-0.6,1.1-0.9c0.3-0.3,0.8-0.6,1-1C97.8,86.8,97.7,86.5,97.4,86.6L97.4,86.6z"/>
	</g>
	<g>
		<path class="st0" d="M99.8,87c-0.4,0.3-0.8,0.6-1.2,0.9c-0.4,0.3-0.8,0.5-1.1,0.8c-0.2,0.2,0,0.7,0.3,0.5c0.5-0.2,0.9-0.5,1.3-0.8
			c0.4-0.3,0.8-0.6,1.2-1C100.6,87.1,100.1,86.7,99.8,87L99.8,87z"/>
	</g>
	<g>
		<path class="st0" d="M102.2,86.8c-1,0.6-2.1,1.4-2.8,2.3c-0.2,0.3,0.2,0.6,0.5,0.4c0.4-0.4,0.8-0.8,1.2-1.1
			c0.4-0.4,0.9-0.8,1.4-1.1C102.7,87,102.5,86.6,102.2,86.8L102.2,86.8z"/>
	</g>
	<g>
		<path class="st0" d="M103.1,88.2c-0.7,0.5-1.3,1.1-1.9,1.7c-0.3,0.3,0.1,0.7,0.4,0.4c0.6-0.6,1.3-1.2,1.8-1.8
			C103.7,88.3,103.4,88,103.1,88.2L103.1,88.2z"/>
	</g>
	<g>
		<path class="st0" d="M103.4,89c-0.3,0.2-0.6,0.4-0.9,0.7c-0.3,0.2-0.7,0.5-0.9,0.8c-0.2,0.2,0,0.5,0.3,0.4
			c0.3-0.2,0.6-0.5,0.9-0.8c0.3-0.3,0.6-0.6,0.9-0.9C103.7,89.2,103.6,88.9,103.4,89L103.4,89z"/>
	</g>
	<g>
		<path class="st0" d="M103.9,90c0.2,0,0.4,0,0.6,0c0-0.1-0.1-0.2-0.1-0.3c-0.3,0.4-0.6,0.7-0.9,1.1c-0.3,0.3-0.7,0.6-0.9,1
			c-0.1,0.3,0.1,0.5,0.4,0.4c0.4-0.2,0.7-0.7,1-1.1c0.3-0.4,0.6-0.8,0.7-1.3c0-0.1-0.1-0.2-0.2-0.2c-0.2,0-0.4,0.1-0.6,0.1
			C103.8,89.8,103.8,90,103.9,90L103.9,90z"/>
	</g>
	<g>
		<path class="st0" d="M106.2,90.9c-0.7,0.6-1.4,1.2-1.9,2c-0.2,0.3,0.3,0.7,0.5,0.4c0.3-0.3,0.6-0.7,0.9-1c0.3-0.3,0.6-0.6,1-0.9
			C107,91.1,106.5,90.6,106.2,90.9L106.2,90.9z"/>
	</g>
	<g>
		<path class="st0" d="M106.8,91.8c-0.6,0.7-1.2,1.3-1.6,2.1c-0.2,0.3,0.2,0.5,0.4,0.3c0.6-0.6,1.1-1.4,1.6-2.1
			C107.3,91.9,107,91.6,106.8,91.8L106.8,91.8z"/>
	</g>
	<g>
		<path class="st0" d="M106.5,93.8c-0.2,0.3-0.4,0.6-0.6,0.9c-0.2,0.3-0.5,0.6-0.7,0.9c-0.3,0.3,0.2,0.8,0.5,0.5
			c0.5-0.6,1.1-1.3,1.3-2.1C107,93.7,106.6,93.6,106.5,93.8L106.5,93.8z"/>
	</g>
	<g>
		<path class="st0" d="M105.7,95.9c-0.3,0.3-0.6,0.7-0.8,1.1c-0.1,0.2,0.2,0.4,0.3,0.3c0.3-0.3,0.6-0.6,0.9-0.9
			C106.4,96,106,95.6,105.7,95.9L105.7,95.9z"/>
	</g>
	<g>
		<path class="st0" d="M57.1,79.3c-0.5,0.1-1,0.4-1.3,0.9c-0.1,0.3,0.2,0.5,0.4,0.2c0.3-0.4,0.6-0.6,1-0.8
			C57.5,79.6,57.4,79.3,57.1,79.3L57.1,79.3z"/>
	</g>
	<g>
		<path class="st0" d="M58.6,79.8c-0.3,0.3-0.6,0.6-0.9,0.9c-0.2,0.2,0.1,0.6,0.3,0.3c0.3-0.3,0.6-0.7,0.8-1
			C58.9,79.9,58.7,79.7,58.6,79.8L58.6,79.8z"/>
	</g>
	<g>
		<path class="st0" d="M60.1,80c-0.3,0.1-0.6,0.3-0.8,0.5c-0.3,0.2-0.5,0.4-0.7,0.6c-0.2,0.2,0.1,0.5,0.3,0.4
			c0.3-0.2,0.5-0.4,0.8-0.6c0.2-0.2,0.5-0.4,0.7-0.7C60.4,80.1,60.2,80,60.1,80L60.1,80z"/>
	</g>
	<g>
		<path class="st0" d="M61,80.4c-0.1,0.2-0.3,0.3-0.5,0.5c-0.2,0.1-0.4,0.2-0.5,0.4c-0.2,0.2,0,0.4,0.2,0.4c0.5-0.1,0.8-0.6,1.1-1
			C61.5,80.5,61.1,80.2,61,80.4L61,80.4z"/>
	</g>
	<g>
		<path class="st0" d="M62.1,80.9c0.1-0.1,0.2-0.2,0.3-0.3c-0.1-0.1-0.2-0.2-0.4-0.4c-0.4,0.5-0.8,0.8-1.3,1.1
			c-0.3,0.2,0.1,0.6,0.4,0.5c0.6-0.3,1-0.8,1.3-1.3c0.2-0.3-0.2-0.5-0.4-0.3c-0.1,0.1-0.2,0.2-0.3,0.3
			C61.6,80.8,61.9,81.1,62.1,80.9L62.1,80.9z"/>
	</g>
	<g>
		<path class="st0" d="M64,80.6c-0.3,0.3-0.7,0.5-1.1,0.8c-0.1,0.1,0,0.4,0.2,0.3c0.4-0.3,0.7-0.6,1-0.9
			C64.3,80.7,64.2,80.5,64,80.6L64,80.6z"/>
	</g>
	<g>
		<path class="st0" d="M64.9,80.8c-0.2,0.3-0.4,0.6-0.6,1c-0.2,0.3,0.3,0.6,0.5,0.3c0.2-0.3,0.3-0.7,0.5-1.1
			C65.4,80.7,65.1,80.6,64.9,80.8L64.9,80.8z"/>
	</g>
	<g>
		<path class="st0" d="M86.6,49.5c-2.9,4.3,0.8,9.8,3.2,13.3c1.5,2.2,3.2,4,5.2,5.7c2.4,2.1,4.9,4.2,7.4,6.2
			c0.2,0.2,0.5-0.1,0.3-0.3c-3.8-3.6-8.4-6.6-11.5-10.9c-1.4-1.9-2.8-3.9-3.9-6.1c-1.2-2.6-1.4-5.1-0.6-7.9
			C86.7,49.4,86.6,49.4,86.6,49.5L86.6,49.5z"/>
	</g>
	<g>
		<path class="st0" d="M110.1,95c-1.6,4.3-3.1,8.5-5.7,12.3c-2.6,3.7-5.7,7-9.2,9.8c-0.4,0.3,0.1,0.8,0.5,0.5
			c3.6-2.8,6.7-6.3,9.2-10.1c2.4-3.8,4.8-8,5.6-12.4C110.4,94.9,110.1,94.8,110.1,95L110.1,95z"/>
	</g>
	<g>
		<path class="st0" d="M110.4,77.5c-0.6,0.5-1.2,1.1-1.9,1.5c-0.3,0.2,0,0.6,0.3,0.4c0.7-0.5,1.4-1.1,1.8-1.8
			C110.7,77.5,110.5,77.4,110.4,77.5L110.4,77.5z"/>
	</g>
	<g>
		<path class="st0" d="M110.1,78.7c-0.7,0.5-1.3,1.1-1.9,1.6c-0.4,0.4-1.3,0.9-1.4,1.5c0,0.2,0,0.3,0.2,0.4c0.3,0.2,0.8,0,0.7-0.4
			c0-0.3-0.5-0.4-0.6-0.1c0,0,0,0,0,0.1c0.1-0.1,0.2-0.2,0.2-0.2c0.1,0.1,0.2,0.2,0.3,0.2c0.1-0.1,0.1-0.1,0.2-0.2
			c0.1-0.1,0.3-0.2,0.4-0.3c0.3-0.3,0.5-0.5,0.8-0.8c0.5-0.5,1-1,1.5-1.5C110.8,78.8,110.4,78.5,110.1,78.7L110.1,78.7z"/>
	</g>
	<g>
		<path class="st0" d="M109.3,81c-0.5,0.3-0.9,0.8-1.3,1.2c-0.4,0.4-0.9,0.7-1.1,1.2c-0.1,0.2,0.2,0.5,0.4,0.4
			c0.5-0.2,0.9-0.7,1.2-1.1c0.4-0.4,0.8-0.8,1.1-1.3C109.9,81.1,109.5,80.8,109.3,81L109.3,81z"/>
	</g>
	<g>
		<path class="st0" d="M109.1,82.7c-0.8,0.5-1.5,1.3-2.2,2c-0.3,0.3,0.2,0.7,0.4,0.4c0.6-0.7,1.3-1.4,2-2.1
			C109.6,82.9,109.4,82.6,109.1,82.7L109.1,82.7z"/>
	</g>
	<g>
		<path class="st0" d="M103,77.2c0.1,2.1,0,4.5-2.5,5c-0.4,0.1-0.2,0.7,0.2,0.6c2.5-0.4,3.6-3.5,2.5-5.7
			C103.1,77.1,103,77.1,103,77.2L103,77.2z"/>
	</g>
	<g>
		<path class="st0" d="M118.5,89.6c3.2,0.3,5.9-0.5,8.4-2.6c0.2-0.2-0.1-0.6-0.3-0.4c-1.2,0.9-2.3,1.7-3.7,2.1
			c-1.4,0.4-2.9,0.3-4.3,0.5C118.2,89.2,118.2,89.6,118.5,89.6L118.5,89.6z"/>
	</g>
	<g>
		<path class="st0" d="M129.7,76.3c0,1,0.2,2,0.6,2.9c0.1,0.2,0.4,0.3,0.5,0.1c1-2,2.2-4.6,4.4-5.5c0.3-0.1,0.2-0.6-0.1-0.5
			c-2.7,1-2.9,3.8-4.6,5.7c0.1,0,0.3,0.1,0.4,0.1c-0.3-0.9-0.5-1.9-0.8-2.8C129.9,76.2,129.7,76.2,129.7,76.3L129.7,76.3z"/>
	</g>
	<g>
		<path class="st0" d="M124,56c-1,0.8-1.9,1.8-2.7,2.8c-0.2,0.2,0.2,0.5,0.3,0.3C122.4,58.1,123.2,57.1,124,56
			C124.1,56.1,124.1,56,124,56L124,56z"/>
	</g>
	<g>
		<path class="st0" d="M130.7,72.9c1.3-0.5,2.4-1.1,3.6-1.8c0.3-0.2,0-0.6-0.2-0.4C132.9,71.4,131.8,72.1,130.7,72.9
			C130.6,72.8,130.6,72.9,130.7,72.9L130.7,72.9z"/>
	</g>
	<g>
		<path class="st0" d="M136.3,77.6c0.7,0.1,1.4,0.1,2.1,0.1c0.4,0,0.4-0.6,0-0.6c-0.7,0-1.4,0-2.1,0.1C136,77.1,136,77.6,136.3,77.6
			L136.3,77.6z"/>
	</g>
	<g>
		<path class="st0" d="M133.1,86.7c0.7,2.1,2.6,3.3,4.4,4.3c0.3,0.2,0.6-0.3,0.3-0.5c-1.8-1-3.6-2-4.5-3.9
			C133.3,86.6,133.1,86.6,133.1,86.7L133.1,86.7z"/>
	</g>
	<g>
		<path class="st0" d="M166.8,113.9c1.9,1.8,4.1,3.4,6.5,4.5c2.5,1.2,5,1.3,7.6,1.6c0.4,0.1,0.5-0.7,0.1-0.7
			c-1.4-0.3-2.7-0.2-4.1-0.5c-1.3-0.2-2.5-0.7-3.7-1.2c-2.2-1.1-4.2-2.6-6.3-3.9C166.8,113.6,166.7,113.8,166.8,113.9L166.8,113.9z"
			/>
	</g>
	<g>
		<path class="st0" d="M143.4,94.9c3.5,3.6,7.5,6.9,11.8,9.5c0.4,0.2,0.6-0.3,0.3-0.6c-4-3-8-6-11.8-9.3
			C143.5,94.5,143.2,94.8,143.4,94.9L143.4,94.9z"/>
	</g>
	<g>
		<path class="st0" d="M131.2,87.8c-0.2,0.3-0.3,0.5-0.4,0.8c-0.1,0.2-0.2,0.6-0.4,0.7c-0.3,0.1-0.3-0.5-0.2-0.7
			c0.1-0.3,0.3-0.5,0.5-0.7c0.2-0.1,0-0.5-0.2-0.3c-0.6,0.4-1.1,1.5-0.4,2c0.8,0.7,1.3-1.3,1.4-1.7
			C131.4,87.8,131.3,87.7,131.2,87.8L131.2,87.8z"/>
	</g>
	<g>
		<path class="st0" d="M110.7,91.1c0.2,0.5,0.6,1.8,1.4,1.1c0.3-0.3,0.4-0.9,0.7-1.2c0.5-0.7,1.3-1,2.2-0.9c0.2,0,0.2-0.2,0.1-0.3
			c-0.7-0.1-1.4,0-2,0.5c-0.3,0.2-0.6,0.5-0.7,0.9c0,0.1-0.1,0.4-0.2,0.4c-0.6,0.6-1-0.3-1.2-0.6C110.8,90.9,110.6,91,110.7,91.1
			L110.7,91.1z"/>
	</g>
	<g>
		<path class="st0" d="M105.9,74.4c0.1,0.4,0.2,0.6,0.4,1c0.2,0.3,0.4,0.5,0.7,0.7c0.2,0.1,0.4-0.1,0.4-0.3
			c-0.2-0.6,0.2-1.3,0.7-1.6c0.1-0.1,0-0.2-0.1-0.1c-0.7,0.4-1,1-1.1,1.8c0.1,0,0.3-0.1,0.4-0.1c-0.2-0.2-0.4-0.4-0.7-0.6
			C106.4,74.9,106.1,74.6,105.9,74.4C105.9,74.4,105.8,74.4,105.9,74.4L105.9,74.4z"/>
	</g>
	<g>
		<path class="st0" d="M73,90.6c0-0.1-0.3,0.2-0.4,0.2c-0.1,0.1-0.3,0.3-0.4,0.4c-0.2,0.3-0.5,0.5-0.7,0.8c-0.4,0.5-1,0.9-1.3,1.5
			c-0.1,0.2,0.1,0.5,0.3,0.3c0.7-0.5,1.2-1.3,1.7-1.9c0.3-0.3,1-0.9,0.9-1.4c0,0,0-0.1-0.1-0.1c-0.1,0-0.2,0-0.3,0.1
			c0,0,0,0.1,0,0.1c0,0,0,0,0,0.1C72.9,90.7,73,90.7,73,90.6L73,90.6z"/>
	</g>
	<g>
		<path class="st0" d="M76.3,90c-0.9,0.6-1.6,1.4-2.4,2.1c-0.8,0.7-1.6,1.4-2.2,2.3c-0.2,0.3,0.2,0.6,0.5,0.4
			c0.8-0.7,1.4-1.5,2.1-2.2c0.7-0.7,1.5-1.4,2.2-2.2C76.6,90.2,76.5,89.9,76.3,90L76.3,90z"/>
	</g>
	<g>
		<path class="st0" d="M79.1,89.5c-1.1,0.8-2.1,1.9-3,3c-0.9,1-1.9,2.1-2.7,3.3c-0.2,0.3,0.3,0.7,0.6,0.4c1-1.1,1.8-2.3,2.8-3.4
			c0.9-1,1.9-1.9,2.7-3C79.6,89.7,79.3,89.4,79.1,89.5L79.1,89.5z"/>
	</g>
	<g>
		<path class="st0" d="M82.2,88.9c-2.1,2-4.2,4.3-5.9,6.7c-0.2,0.3,0.3,0.7,0.5,0.4c1.9-2.3,3.8-4.5,5.8-6.7
			C82.9,89.1,82.5,88.7,82.2,88.9L82.2,88.9z"/>
	</g>
	<g>
		<path class="st0" d="M82.7,90.9c-1,0.9-1.8,2-2.7,3c-0.3,0.3,0.2,0.7,0.4,0.4c0.9-1,1.9-2.1,2.6-3.2
			C83.2,90.9,82.9,90.7,82.7,90.9L82.7,90.9z"/>
	</g>
	<g>
		<path class="st0" d="M84.7,91.4c-0.4,0.4-0.9,0.8-1.3,1.3c-0.3,0.3-1,0.8-1.1,1.2c-0.2,0.7,0.7,0.8,0.8,0.2c0-0.1-0.1-0.2-0.2-0.3
			c0,0,0,0-0.1,0c-0.3-0.1-0.5,0.3-0.2,0.5c0,0,0,0,0,0c0-0.1-0.1-0.2-0.1-0.3c0.3,0.1,0.5,0.1,0.6-0.1c0.1-0.1,0.2-0.2,0.3-0.3
			c0.2-0.2,0.4-0.4,0.6-0.6c0.4-0.4,0.7-0.8,1.1-1.2C85.2,91.5,84.9,91.2,84.7,91.4L84.7,91.4z"/>
	</g>
	<g>
		<path class="st0" d="M85.6,91.9c-0.8,0.6-1.6,1.3-2,2.1c-0.2,0.4,0.3,0.7,0.6,0.3c0.5-0.8,1-1.5,1.7-2.1
			C86,92.1,85.8,91.7,85.6,91.9L85.6,91.9z"/>
	</g>
	<g>
		<path class="st0" d="M86.3,92.8c0.1-0.1,0.2-0.1,0.3-0.1c0-0.1,0-0.2,0-0.3c-0.6,0.3-1.2,0.8-1.6,1.4c-0.2,0.3,0.3,0.6,0.5,0.3
			c0.3-0.6,0.8-1,1.3-1.4c0.1-0.1,0-0.3-0.1-0.3c-0.2,0-0.5,0.1-0.6,0.3C86.1,92.8,86.2,92.9,86.3,92.8L86.3,92.8z"/>
	</g>
	<g>
		<path class="st0" d="M88.4,92.3c-0.3,0.4-0.6,0.7-1,0.9c-0.3,0.2,0,0.7,0.3,0.5c0.5-0.3,0.9-0.7,1.2-1.2
			C88.9,92.3,88.5,92.1,88.4,92.3L88.4,92.3z"/>
	</g>
	<g>
		<path class="st0" d="M90.5,92.1c-0.6,0.6-1.1,1.1-1.6,1.7c-0.2,0.3,0.1,0.7,0.4,0.4c0.6-0.6,1.1-1.2,1.6-1.8
			C91,92.2,90.7,91.8,90.5,92.1L90.5,92.1z"/>
	</g>
	<g>
		<path class="st0" d="M91.7,92.7c-0.1,0.3-0.3,0.7-0.6,0.8c-0.3,0.2,0,0.6,0.3,0.5c0.2-0.1,0.4-0.3,0.6-0.5
			c0.1-0.1,0.1-0.2,0.1-0.3c0-0.2,0-0.3,0-0.4C92,92.6,91.7,92.5,91.7,92.7L91.7,92.7z"/>
	</g>
	<g>
		<path class="st0" d="M93.4,93.4C93.4,93.4,93.4,93.4,93.4,93.4C93.5,93.4,93.5,93.4,93.4,93.4c-0.2-0.1-0.3,0.3-0.1,0.4
			c0.3,0.2,0.7,0,0.7-0.4c0-0.3-0.4-0.4-0.6-0.3C93.2,93.3,93.2,93.5,93.4,93.4L93.4,93.4z"/>
	</g>
	<g>
		<path class="st0" d="M93.3,93.4c0.1,0,0.1-0.2,0-0.2C93.2,93.2,93.2,93.4,93.3,93.4L93.3,93.4z"/>
	</g>
	<g>
		<path class="st0" d="M87.6,125c0,0.9-0.2,1.8-0.5,2.6c-0.1,0.3,0.4,0.5,0.5,0.2c0.4-0.9,0.5-1.9,0.5-2.8
			C88.1,124.7,87.6,124.6,87.6,125L87.6,125z"/>
	</g>
	<g>
		<path class="st0" d="M90.6,123.8c-0.4,1.3-0.9,2.5-1.3,3.8c-0.1,0.2,0.2,0.3,0.3,0.1c0.4-1.3,0.8-2.6,1.1-3.8
			C90.8,123.8,90.6,123.7,90.6,123.8L90.6,123.8z"/>
	</g>
	<g>
		<path class="st0" d="M93,122.5c-1,1.8-1.6,3.7-1.7,5.8c0,0.3,0.5,0.3,0.5,0c0.2-2,0.7-3.8,1.5-5.6C93.4,122.5,93.1,122.3,93,122.5
			L93,122.5z"/>
	</g>
	<g>
		<path class="st0" d="M94.7,122c-0.5,2-1,4-1.5,6.1c-0.1,0.3,0.4,0.5,0.5,0.1c0.5-2,0.9-4.1,1.4-6.1
			C95.1,121.8,94.8,121.7,94.7,122L94.7,122z"/>
	</g>
	<g>
		<path class="st0" d="M97.2,119.9c-0.5,1.7-0.9,3.5-1.4,5.2c-0.1,0.3,0.4,0.5,0.5,0.1c0.4-1.7,0.8-3.5,1.2-5.2
			C97.6,119.8,97.2,119.7,97.2,119.9L97.2,119.9z"/>
	</g>
	<g>
		<path class="st0" d="M98.6,118.8c-0.4,1.4-0.7,2.8-1,4.3c-0.1,0.4,0.5,0.5,0.5,0.1c0.3-1.4,0.6-2.9,0.8-4.3
			C98.9,118.7,98.6,118.6,98.6,118.8L98.6,118.8z"/>
	</g>
	<g>
		<path class="st0" d="M100,117.9c-0.3,1.3-0.5,2.7-0.7,4c0,0.3,0.5,0.5,0.5,0.1c0.2-1.4,0.4-2.7,0.5-4.1
			C100.3,117.8,100,117.7,100,117.9L100,117.9z"/>
	</g>
	<g>
		<path class="st0" d="M101.5,117.7c-0.3,0.7-0.5,1.4-0.5,2.1c0,0.2,0.4,0.2,0.4,0c0-0.7,0.1-1.4,0.3-2
			C101.8,117.6,101.6,117.6,101.5,117.7L101.5,117.7z"/>
	</g>
	<g>
		<path class="st0" d="M103.1,116.1c-0.4,0.6-0.7,1.3-0.7,2.1c0,0.2,0.3,0.2,0.3,0c0.1-0.7,0.2-1.4,0.6-2
			C103.4,116.1,103.2,116,103.1,116.1L103.1,116.1z"/>
	</g>
	<g>
		<path class="st0" d="M103.7,115c0,0.7,0,1.3-0.3,2c-0.1,0.3,0.4,0.4,0.5,0.1c0.2-0.7,0.3-1.5,0.1-2.1
			C104,114.8,103.7,114.8,103.7,115L103.7,115z"/>
	</g>
	<g>
		<path class="st0" d="M105.6,113.7c0.3,0.4,0.3,0.8,0,1.2c-0.1,0.2,0.1,0.3,0.2,0.2c0.3-0.5,0.3-1.1-0.1-1.5
			C105.7,113.5,105.5,113.6,105.6,113.7L105.6,113.7z"/>
	</g>
	<g>
		<path class="st0" d="M106.5,111.7c0.2,0.4,0.2,0.8,0.2,1.3c0,0.2,0.3,0.2,0.4,0c0.1-0.5,0-1-0.3-1.5
			C106.6,111.4,106.4,111.5,106.5,111.7L106.5,111.7z"/>
	</g>
	<g>
		<path class="st0" d="M41.5,155.7c-0.6,0.7-1.2,1.4-1.8,2.2c-0.3,0.3,0.2,0.7,0.4,0.3c0.5-0.8,1.1-1.6,1.6-2.4
			C41.8,155.7,41.6,155.6,41.5,155.7L41.5,155.7z"/>
	</g>
	<g>
		<path class="st0" d="M42.6,157.5c-0.6,0.8-1.4,1.4-2.1,2.1c-0.2,0.2,0.1,0.6,0.3,0.4c0.8-0.6,1.5-1.5,2.1-2.3
			C43,157.5,42.7,157.3,42.6,157.5L42.6,157.5z"/>
	</g>
	<g>
		<path class="st0" d="M43.7,158.7c-0.5,0.4-0.9,0.8-1.3,1.2c-0.4,0.4-0.9,0.8-1.1,1.3c-0.1,0.3,0.2,0.6,0.5,0.4
			c0.4-0.3,0.7-0.9,1.1-1.3c0.4-0.4,0.8-0.8,1.2-1.2C44.3,158.8,44,158.5,43.7,158.7L43.7,158.7z"/>
	</g>
	<g>
		<path class="st0" d="M44.8,160.8c-1,0.6-2.1,1.5-2.7,2.5c-0.2,0.4,0.3,0.9,0.6,0.5c0.8-0.9,1.5-1.7,2.4-2.4
			C45.5,161.1,45.1,160.6,44.8,160.8L44.8,160.8z"/>
	</g>
	<g>
		<path class="st0" d="M46.1,162.8c-0.8,0.7-1.6,1.4-2.3,2.2c-0.3,0.3,0.1,0.7,0.4,0.4c0.8-0.7,1.5-1.5,2.2-2.3
			C46.6,162.9,46.3,162.6,46.1,162.8L46.1,162.8z"/>
	</g>
	<g>
		<path class="st0" d="M47.4,164.5c-0.5,0.3-0.9,0.6-1.3,1c-0.4,0.4-0.9,0.7-1.3,1.2c-0.2,0.3,0.1,0.8,0.4,0.6
			c0.5-0.3,0.9-0.8,1.3-1.2c0.4-0.4,0.8-0.8,1.1-1.3C47.7,164.6,47.5,164.4,47.4,164.5L47.4,164.5z"/>
	</g>
	<g>
		<path class="st0" d="M49.3,165.3c-1.5,0.7-2.8,2-3.9,3.2c-0.3,0.3,0.2,0.8,0.5,0.5c1.1-1.2,2.4-2.2,3.6-3.3
			C49.8,165.5,49.5,165.2,49.3,165.3L49.3,165.3z"/>
	</g>
	<g>
		<path class="st0" d="M50,167.2c-1.1,0.9-2.1,1.9-3.1,2.9c-0.3,0.3,0.2,0.8,0.5,0.5c1-0.9,2.1-2,3-3C50.6,167.3,50.3,167,50,167.2
			L50,167.2z"/>
	</g>
	<g>
		<path class="st0" d="M51.7,168.7c-1.5,0.9-3,2.1-4,3.5c-0.3,0.4,0.3,0.8,0.7,0.5c1.2-1.2,2.3-2.4,3.7-3.4
			C52.5,169.1,52.1,168.4,51.7,168.7L51.7,168.7z"/>
	</g>
	<g>
		<path class="st0" d="M53.5,170.6c-1.5,0.8-2.9,2.1-3.9,3.4c-0.3,0.4,0.2,0.9,0.5,0.5c1.2-1.2,2.4-2.3,3.7-3.5
			C54.1,170.8,53.8,170.4,53.5,170.6L53.5,170.6z"/>
	</g>
	<g>
		<path class="st0" d="M56.2,172.7C56.2,172.7,56.2,172.7,56.2,172.7c-0.1,0-0.1,0.1-0.2,0.2c0,0,0,0,0,0c0-0.1-0.1-0.2-0.1-0.3
			c-0.1,0.3-0.7,0.6-1,0.8c-0.3,0.2-0.7,0.5-1,0.8c-0.8,0.6-1.6,1.2-2.3,1.9c-0.3,0.3,0.1,0.8,0.5,0.6c1.4-0.8,2.6-2,3.7-3.1
			c0.2-0.2,0.7-0.5,0.5-0.9c-0.1-0.2-0.3-0.3-0.5-0.2c-0.1,0-0.2,0.1-0.2,0.2c0,0,0,0.1,0,0.1C55.7,173,56.2,173,56.2,172.7
			L56.2,172.7z"/>
	</g>
	<g>
		<path class="st0" d="M58.7,174.5c-2,1-4.2,2.6-5.5,4.5c-0.3,0.4,0.3,0.9,0.7,0.5c0.8-0.7,1.5-1.6,2.3-2.3c0.9-0.8,1.9-1.4,2.8-2.1
			C59.4,174.8,59.1,174.3,58.7,174.5L58.7,174.5z"/>
	</g>
	<g>
		<path class="st0" d="M60.9,176.2c-2.3,1.3-4.5,3.3-6.2,5.4c-0.3,0.4,0.2,1,0.6,0.6c1.9-1.9,3.9-3.7,5.9-5.5
			C61.5,176.4,61.2,176,60.9,176.2L60.9,176.2z"/>
	</g>
	<g>
		<path class="st0" d="M63.9,177.9c-2.3,1.7-4.7,3.7-6.4,6c-0.3,0.4,0.3,0.9,0.7,0.5c2.1-2,4-4.1,6.1-6.1
			C64.5,178.2,64.1,177.7,63.9,177.9L63.9,177.9z"/>
	</g>
	<g>
		<path class="st0" d="M67.4,179.7c-3,2-6,4.7-7.8,7.9c-0.2,0.4,0.4,1,0.7,0.6c2.4-2.9,4.5-5.6,7.5-7.9
			C68.2,180,67.7,179.5,67.4,179.7L67.4,179.7z"/>
	</g>
	<g>
		<path class="st0" d="M69.5,181.3c-3,1.7-6.1,4.3-7.5,7.5c-0.2,0.5,0.4,0.9,0.7,0.4c1-1.4,1.9-2.8,3.1-4.1c1.2-1.3,2.5-2.4,4-3.3
			C70.2,181.6,69.9,181.1,69.5,181.3L69.5,181.3z"/>
	</g>
	<g>
		<path class="st0" d="M72.7,181.8c-3.3,2.5-6.8,5.7-9.1,9.1c-0.3,0.4,0.4,0.9,0.7,0.6c1.4-1.6,2.7-3.2,4.2-4.8c1.4-1.6,3-3,4.5-4.4
			C73.2,182,72.9,181.6,72.7,181.8L72.7,181.8z"/>
	</g>
	<g>
		<path class="st0" d="M75.2,183.1c-3.4,2.8-6.5,6.1-8.9,9.7c-0.4,0.6,0.5,1,0.9,0.5c2.6-3.5,5.4-6.7,8.6-9.7
			C76.1,183.3,75.6,182.8,75.2,183.1L75.2,183.1z"/>
	</g>
	<g>
		<path class="st0" d="M77.3,184.9c-3.5,2.5-6.7,5.5-9.2,9c-0.3,0.4,0.4,1,0.8,0.6c2.6-3.4,5.4-6.5,8.8-9.2
			C77.9,185.1,77.6,184.8,77.3,184.9L77.3,184.9z"/>
	</g>
	<g>
		<path class="st0" d="M80.7,185.9c-3.6,3.1-7.1,6.5-10.5,9.8c-0.4,0.4,0.1,1.1,0.6,0.8c0.4-0.2,0.8-0.5,1.2-0.7
			c0.5-0.3,0.1-1-0.5-0.8c-0.4,0.2-0.9,0.4-1.3,0.6c0.2,0.3,0.4,0.5,0.6,0.8c3.5-3.2,7-6.6,10.2-10.1C81.4,186,81,185.6,80.7,185.9
			L80.7,185.9z"/>
	</g>
	<g>
		<path class="st0" d="M84.4,186.3c-2.2,1.6-4.2,3.7-6.2,5.6c-1.1,1-2.2,2-3.2,3.1c-0.9,0.9-2.2,1.7-2.7,2.9
			c-0.2,0.4,0.2,0.7,0.5,0.5c1.2-0.5,2.1-1.7,3-2.7c1-1,2-2,3-3c2-2,4.2-4,6-6.2C84.7,186.4,84.6,186.1,84.4,186.3L84.4,186.3z"/>
	</g>
	<g>
		<path class="st0" d="M88.3,186.6c-2.2,1.9-4.2,4.1-6.3,6.2c-2,2.1-4.1,4.2-6,6.4c-0.5,0.6,0.3,1.3,0.8,0.8c2.1-2.1,4-4.3,6-6.4
			c2-2.2,4.1-4.2,5.9-6.5C89.1,186.7,88.7,186.3,88.3,186.6L88.3,186.6z"/>
	</g>
	<g>
		<path class="st0" d="M90.9,187.4c-2.2,2.2-4.3,4.5-6.3,6.9c-1.9,2.2-4,4.5-5.6,7c-0.3,0.4,0.4,1,0.7,0.6c1.9-2.3,3.7-4.9,5.6-7.2
			c1.9-2.3,3.9-4.6,6-6.9C91.6,187.5,91.2,187.1,90.9,187.4L90.9,187.4z"/>
	</g>
	<g>
		<path class="st0" d="M95.8,188.8c-4.7,3.7-9.3,8-12.9,12.8c-0.1,0.2-0.1,0.5,0.1,0.6c0.3,0.2,0.4,0.3,0.7,0.3
			c0.2,0,0.4-0.1,0.5-0.4c0-0.1,0-0.1,0.1-0.2c0.2-0.4-0.3-0.6-0.6-0.5c0.1,0,0.1,0.1,0.2,0.1c0,0.2-0.1,0.4-0.1,0.6
			c2-2.2,3.9-4.5,6-6.7c2.1-2.2,4.3-4.2,6.5-6.2C96.6,189,96.1,188.6,95.8,188.8L95.8,188.8z"/>
	</g>
	<g>
		<path class="st0" d="M101.2,187.7c-2.7,2.8-5.3,5.7-7.9,8.5c-2.5,2.7-5.3,5.4-7.5,8.4c-0.3,0.3,0.1,0.8,0.5,0.8c0.2,0,0.3,0,0.5,0
			c0.5,0,0.6-0.8,0.1-0.9c-0.1,0-0.3-0.1-0.4-0.1c0.1,0.3,0.2,0.6,0.2,0.9c2.7-2.6,5.1-5.7,7.6-8.5c2.5-2.8,5.1-5.6,7.5-8.6
			C102,187.9,101.5,187.4,101.2,187.7L101.2,187.7z"/>
	</g>
	<g>
		<path class="st0" d="M105.2,189.1c-1.4,0.4-2.3,1.4-3.2,2.5c-1.3,1.7-2.6,3.3-3.9,5c-1.2,1.6-2.5,3.2-3.7,4.8
			c-1.2,1.6-2.6,3.1-3.6,4.8c-0.3,0.5,0.4,1,0.8,0.6c2.5-2.6,4.5-5.8,6.7-8.7c1.1-1.5,2.2-3,3.3-4.4c1.1-1.5,2.1-3.1,3.8-4
			C105.8,189.5,105.6,189,105.2,189.1L105.2,189.1z"/>
	</g>
	<g>
		<path class="st0" d="M110.3,188.4c-1.5,1.3-2.9,3-4.2,4.5c-1.4,1.6-2.8,3.3-4.1,5c-2.5,3.2-5.1,6.5-7.3,9.9
			c-0.3,0.5,0.3,1.2,0.8,0.8c0.2-0.2,0.5-0.4,0.7-0.5c0.5-0.4,0.1-1.2-0.5-0.9c-0.3,0.1-0.5,0.3-0.8,0.4c0.3,0.3,0.5,0.5,0.8,0.8
			c2.4-3.4,4.7-6.8,7.2-10.1c1.3-1.7,2.7-3.5,4.1-5.2c1.2-1.5,2.6-2.9,3.6-4.5C110.8,188.4,110.5,188.2,110.3,188.4L110.3,188.4z"/>
	</g>
	<g>
		<path class="st0" d="M116.6,187.2c-3.1,3.2-5.8,6.8-8.5,10.4c-2.7,3.7-5.5,7.4-7.7,11.4c-0.4,0.7,0.6,1.3,1.1,0.7
			c2.6-3.7,4.9-7.6,7.5-11.2c2.6-3.7,5.5-7.1,8.3-10.7C117.6,187.4,116.9,186.9,116.6,187.2L116.6,187.2z"/>
	</g>
	<g>
		<path class="st0" d="M123.4,186.1c-3.2,3.9-6.3,7.9-9.3,11.9c-1.5,2.1-3,4.1-4.4,6.2c-1.5,2.1-3.1,4.3-4.3,6.6
			c-0.3,0.6,0.5,1.3,0.9,0.7c1.5-2,2.8-4.2,4.2-6.3c1.4-2.1,2.9-4.2,4.3-6.3c3-4.2,6.1-8.4,9.2-12.5
			C124.3,186.2,123.7,185.7,123.4,186.1L123.4,186.1z"/>
	</g>
	<g>
		<path class="st0" d="M127.4,185.2c-6.1,8.7-11.9,17.7-17.7,26.6c-0.4,0.5,0.5,1.1,0.9,0.5c5.8-9,11.7-17.8,17.4-26.8
			C128.2,185.2,127.7,184.9,127.4,185.2L127.4,185.2z"/>
	</g>
	<g>
		<path class="st0" d="M131.8,185c-3.1,4.4-5.7,9.1-8.5,13.6c-1.4,2.2-2.7,4.4-4.1,6.6c-0.7,1.1-1.4,2.2-2,3.3
			c-0.5,0.8-1.4,1.8-1.3,2.7c0,0.3,0.2,0.4,0.4,0.5c0.3,0.1,0.5,0.1,0.7-0.1c0.2-0.1,0.3-0.3,0.3-0.5c0,0,0-0.1,0-0.1
			c0-0.6-0.9-0.7-1-0.1c0.2-0.1,0.3-0.2,0.5-0.2c0.1,0.2,0.2,0.3,0.3,0.5c0-0.5,0.6-1.2,0.9-1.7c0.3-0.5,0.6-0.9,0.9-1.4
			c0.7-1.1,1.3-2.2,2-3.3c1.3-2.1,2.6-4.3,3.8-6.4c2.6-4.3,5.4-8.6,7.7-13.1C132.4,184.9,132,184.7,131.8,185L131.8,185z"/>
	</g>
	<g>
		<path class="st0" d="M136.3,183c-2.1,4.8-4.1,9.7-6.5,14.4c-1.2,2.3-2.4,4.5-3.6,6.8c-1.2,2.1-2.8,4.2-3.7,6.5
			c-0.2,0.6,0.7,0.9,1,0.4c5.5-8.6,10.4-18.1,13.4-27.9C136.9,182.9,136.5,182.7,136.3,183L136.3,183z"/>
	</g>
	<g>
		<path class="st0" d="M142.6,181c-2.5,4.5-4.4,9.5-6.5,14.2c-1.1,2.4-2.1,4.7-3.2,7.1c-1,2.2-2.2,4.5-2.9,6.8
			c-0.2,0.6,0.7,1,1.1,0.5c1.3-2.2,2.2-4.7,3.2-7.1c1-2.4,2.1-4.8,3.1-7.2c2-4.6,4.3-9.2,5.9-14C143.4,180.9,142.8,180.6,142.6,181
			L142.6,181z"/>
	</g>
	<g>
		<path class="st0" d="M147,179.4c-2,5-3.8,10-5.8,14.9c-2.1,5-4.5,10-6.7,15c-0.3,0.7,0.6,1.2,1,0.6c2.5-4.7,4.6-9.8,6.6-14.7
			c2.1-5.1,4.1-10.2,5.7-15.5C147.9,179.2,147.2,179,147,179.4L147,179.4z"/>
	</g>
	<g>
		<path class="st0" d="M151.4,178c-1.9,4.9-3.5,9.9-5.3,14.8c-0.9,2.4-1.8,4.8-2.7,7.2c-0.9,2.5-2,4.9-2.8,7.5
			c-0.2,0.5,0.7,0.9,0.9,0.4c2.2-4.6,3.7-9.7,5.4-14.5c1.7-5,3.5-10,4.9-15.2C152,177.8,151.5,177.7,151.4,178L151.4,178z"/>
	</g>
	<g>
		<path class="st0" d="M156.4,175.9c-3.4,11.1-7.1,22.1-11.2,33c-0.2,0.7,0.8,0.9,1,0.3c4.3-10.7,8-21.9,10.8-33.2
			C157.2,175.7,156.5,175.5,156.4,175.9L156.4,175.9z"/>
	</g>
	<g>
		<path class="st0" d="M160.8,173.9c-1,5.4-1.9,10.9-3.3,16.3c-0.7,2.6-1.4,5.2-2.4,7.8c-1,2.7-2.4,5.3-3.6,7.9
			c-0.3,0.6,0.5,1,0.9,0.5c1.5-2.2,2.6-4.9,3.5-7.5c1-2.7,1.8-5.5,2.5-8.2c1.3-5.5,2.2-11.1,2.8-16.7
			C161.3,173.7,160.8,173.6,160.8,173.9L160.8,173.9z"/>
	</g>
	<g>
		<path class="st0" d="M165.6,171.4c-1.7,5.6-3,11.5-4.7,17.1c-0.8,2.7-1.7,5.5-2.6,8.2c-1,2.9-2.1,5.7-3,8.6c-0.2,0.6,0.8,1,1,0.4
			c1.2-2.6,2-5.3,2.9-8c1-2.9,1.9-5.8,2.7-8.7c1.7-5.7,3.4-11.6,4.3-17.5C166.3,171.1,165.7,170.9,165.6,171.4L165.6,171.4z"/>
	</g>
	<g>
		<path class="st0" d="M169.5,167.2c-1.3,6.2-2.3,12.5-3.9,18.7c-0.8,3-1.7,6-2.7,9c-1,3-2.4,6-3.3,9.1c-0.2,0.5,0.6,0.9,0.9,0.4
			c1.4-2.7,2.4-5.8,3.4-8.7c1.1-3.1,2.1-6.3,2.9-9.5c1.6-6.1,3.2-12.5,3.5-18.9C170.3,166.9,169.6,166.8,169.5,167.2L169.5,167.2z"
			/>
	</g>
	<g>
		<path class="st0" d="M172.9,165c0,6.4-0.8,12.7-2.3,18.9c-1.4,6.1-3.7,11.9-5.7,17.8c-0.1,0.4,0.5,0.7,0.7,0.3
			c2.7-5.7,4.6-12,6-18.1c1.4-6.2,2.1-12.5,1.9-18.9C173.4,164.7,172.9,164.7,172.9,165L172.9,165z"/>
	</g>
	<g>
		<path class="st0" d="M176.1,163.3c0.2,5.4,0.4,10.8-0.1,16.2c-0.5,5.6-1.9,10.9-3,16.3c-0.1,0.5,0.6,0.7,0.8,0.2
			c2-5.1,2.8-10.8,3.3-16.3c0.5-5.4,0.6-11.1-0.3-16.5C176.7,162.8,176.1,162.9,176.1,163.3L176.1,163.3z"/>
	</g>
	<g>
		<path class="st0" d="M180.4,159.6c-0.2,2.6,0,5.1-0.1,7.7c0,2.7-0.1,5.3-0.2,8c-0.2,5.2-0.8,10.4-1,15.7c0,0.6,1,0.7,1,0.1
			c0.7-5.1,0.9-10.4,1-15.5c0.1-5.2,0.5-10.7-0.2-16C181,159.2,180.4,159.1,180.4,159.6L180.4,159.6z"/>
	</g>
	<g>
		<path class="st0" d="M183.2,157.1c0.1,5,0.7,10,0.6,15.1c0,5-0.7,10-0.9,15.1c0,0.6,1,0.8,1.1,0.1c0.9-4.9,0.9-10.2,0.9-15.2
			c0-5-0.1-10.3-1.1-15.1C183.7,156.6,183.1,156.7,183.2,157.1L183.2,157.1z"/>
	</g>
	<g>
		<path class="st0" d="M185.8,153.8c0.5,5.3,1.1,10.6,1.4,15.9c0.3,5.3,0.3,10.6,0.2,16c0,0.7,1.1,0.7,1.1,0c1-10.6-0.5-21.5-2.1-32
			C186.3,153.4,185.7,153.5,185.8,153.8L185.8,153.8z"/>
	</g>
	<g>
		<path class="st0" d="M188.7,150.4c0.7,5,1.6,10,2,15c0.4,4.9,0.4,9.8,0.3,14.7c0,0.8,1.2,0.8,1.2,0c0.2-5.1,0-10.2-0.5-15.3
			c-0.5-4.9-1.1-9.9-2.5-14.7C189.1,149.9,188.6,150.1,188.7,150.4L188.7,150.4z"/>
	</g>
	<g>
		<path class="st0" d="M191.3,147c0.7,4.9,1.7,9.8,2.3,14.8c0.6,4.7,0.7,9.4,1.4,14.1c0.1,0.4,0.7,0.3,0.8-0.1
			c0.3-4.8-0.5-9.8-1.2-14.6c-0.7-4.8-1.4-9.7-2.7-14.4C191.8,146.4,191.3,146.6,191.3,147L191.3,147z"/>
	</g>
	<g>
		<path class="st0" d="M193,143.8c1.4,1.4,1.5,4.4,1.8,6.2c0.4,2.5,0.8,5,1.1,7.6c0.6,4.7,0.7,9.4,1.2,14.2c0.1,0.7,1.1,0.7,1.1,0
			c0.1-5.2-0.6-10.5-1.4-15.6c-0.4-2.6-0.9-5.3-1.4-7.9c-0.4-1.7-0.5-3.8-2.1-4.9C193.1,143.1,192.8,143.6,193,143.8L193,143.8z"/>
	</g>
	<g>
		<path class="st0" d="M195,140.7c1.1,4.3,2.3,8.5,3.1,12.9c0.4,2.1,0.8,4.2,1.1,6.3c0.3,2.3,0.4,4.6,0.9,6.8
			c0.1,0.6,1.1,0.5,1.1-0.2c0.1-2.1-0.4-4.4-0.7-6.5c-0.3-2.2-0.7-4.4-1.2-6.5c-0.9-4.4-2-8.8-3.6-13
			C195.6,140.1,194.9,140.2,195,140.7L195,140.7z"/>
	</g>
	<g>
		<path class="st0" d="M196.8,137.5c2,3.3,2.9,7.3,3.8,10.9c1,4,1.7,8,2.6,12c0.1,0.6,1.1,0.5,1-0.1c-0.5-4.3-1.6-8.5-2.8-12.6
			c-1-3.6-1.9-7.5-4.2-10.5C197,136.9,196.6,137.2,196.8,137.5L196.8,137.5z"/>
	</g>
	<g>
		<path class="st0" d="M198.3,134.7c1.4,3.4,2.8,6.6,3.7,10.1c0.5,1.7,0.9,3.4,1.2,5.2c0.3,1.8,0.4,3.7,0.8,5.5
			c0.1,0.5,0.9,0.4,0.9-0.1c0.1-1.7-0.3-3.5-0.6-5.2c-0.3-1.9-0.8-3.8-1.3-5.7c-1-3.5-2.3-7-4.2-10.1
			C198.7,134.2,198.2,134.3,198.3,134.7L198.3,134.7z"/>
	</g>
	<g>
		<path class="st0" d="M198.7,130.8c2.1,2.7,2.9,6.2,4,9.4c1.2,3.5,2.3,7.1,3.7,10.6c0.3,0.6,1.3,0.4,1-0.3
			c-1.2-3.8-2.7-7.6-4.1-11.4c-0.7-1.8-1.3-3.6-2-5.4c-0.5-1.3-1.1-2.6-2.2-3.4C198.9,130.2,198.4,130.5,198.7,130.8L198.7,130.8z"
			/>
	</g>
	<g>
		<path class="st0" d="M200.5,128.9c1.3,1,1.9,2.9,2.5,4.3c0.6,1.4,1.2,2.9,1.7,4.4c1.1,2.9,2,5.9,2.8,8.9c0.2,0.7,1.3,0.4,1.1-0.3
			c-0.9-3.6-2.2-7.2-3.6-10.6c-0.6-1.6-1.3-3.1-2-4.6c-0.5-1.1-1-2.2-2.2-2.6C200.4,128.3,200.3,128.7,200.5,128.9L200.5,128.9z"/>
	</g>
	<g>
		<path class="st0" d="M200.5,125.1c1.5,2.4,3.1,4.6,4.2,7.2c1.2,2.7,2,5.4,2.6,8.3c0.2,0.8,1.3,0.4,1.1-0.3
			c-0.5-2.9-1.4-5.7-2.7-8.3c-1.2-2.6-2.8-5.2-4.9-7.2C200.7,124.5,200.3,124.8,200.5,125.1L200.5,125.1z"/>
	</g>
	<g>
		<path class="st0" d="M202,121.4c1.7,2,3.4,4.1,4.8,6.3c1.3,2.2,2.4,4.4,3.4,6.7c0.2,0.5,1.1,0.1,0.9-0.4
			c-1.8-4.8-4.8-9.7-8.6-13.1C202.1,120.6,201.7,121.1,202,121.4L202,121.4z"/>
	</g>
	<g>
		<path class="st0" d="M202.7,117.9c1,1.3,2.2,2.5,3.1,3.9c0.9,1.3,1.5,2.6,2.3,4c0.3,0.5,1.1,0.1,0.9-0.4c-1.1-2.9-3.3-6.1-5.8-8
			C202.8,117.1,202.5,117.6,202.7,117.9L202.7,117.9z"/>
	</g>
	<g>
		<path class="st0" d="M202.6,114c0.6,1.1,1.5,2,2.2,3.1c0.7,1.1,1.3,2.2,1.9,3.3c0.3,0.6,1.3,0.1,0.9-0.6c-1.1-2.1-2.6-4.8-4.5-6.2
			C202.8,113.3,202.5,113.7,202.6,114L202.6,114z"/>
	</g>
	<g>
		<path class="st0" d="M202.7,109.9c1.1,0.1,2,2.5,2.4,3.3c0.6,1.1,1.3,2.2,2,3.3c0.3,0.5,1.1,0,0.8-0.5c-1-1.6-2-3.2-3-4.8
			c-0.5-0.9-1-2-2.2-2C202.3,109.3,202.3,109.8,202.7,109.9L202.7,109.9z"/>
	</g>
	<g>
		<path class="st0" d="M203.1,107.1c1.2,1.1,2.2,2.3,3.2,3.7c0.3,0.5,1,0.1,0.8-0.4c-0.8-1.5-2.1-2.8-3.6-3.7
			C203.2,106.5,202.8,106.9,203.1,107.1L203.1,107.1z"/>
	</g>
	<g>
		<path class="st0" d="M203.4,103.6c0.1-0.2,0.1-0.4,0.2-0.7c-0.2,0-0.4-0.1-0.7-0.1c0.2,1.6,1.3,3.3,2.7,4.1
			c0.5,0.3,0.9-0.4,0.5-0.8c-1.2-0.9-2-2-2.5-3.4c-0.1-0.4-0.6-0.3-0.7,0.1c0,0.2,0,0.4,0,0.6C202.8,103.8,203.3,104,203.4,103.6
			L203.4,103.6z"/>
	</g>
	<g>
		<path class="st0" d="M202.5,100.9c0.6,0.3,1.1,0.7,1.7,1c0.5,0.3,1-0.5,0.5-0.8c-0.6-0.3-1.2-0.7-1.7-1
			C202.4,99.9,202,100.6,202.5,100.9L202.5,100.9z"/>
	</g>
	<g>
		<path class="st0" d="M41.3,150.7c4.8,4.7,8.1,10.7,12.7,15.6c0.4,0.4,1-0.2,0.6-0.6c-4.5-4.9-7.9-10.8-13.1-15.2
			C41.3,150.4,41.2,150.6,41.3,150.7L41.3,150.7z"/>
	</g>
	<g>
		<path class="st0" d="M57,167.7c5,4.8,10.8,9.1,17,12c0.5,0.2,0.9-0.5,0.4-0.7c-6.1-3.4-11.8-7.1-17.1-11.6
			C57.1,167.2,56.7,167.5,57,167.7L57,167.7z"/>
	</g>
	<g>
		<path class="st0" d="M67.7,74.8c4.6-2.8,9.7-4.8,15-5.9c0.3-0.1,0.2-0.6-0.1-0.5c-5.4,1.1-10.4,3.2-15,6.2
			C67.5,74.7,67.6,74.9,67.7,74.8L67.7,74.8z"/>
	</g>
	<g>
		<path class="st0" d="M99.3,65.6c2.5-0.3,5-0.5,7.5-0.2c0.5,0,0.5-0.7,0-0.7c-2.6-0.2-5.2-0.1-7.7,0.5C98.9,65.2,99,65.6,99.3,65.6
			L99.3,65.6z"/>
	</g>
	<g>
		<path class="st0" d="M85.1,103.7c0.7,4.3-4.1,6.2-5.5,9.7c-0.2,0.6-0.7,1.9,0.1,2.3c0.9,0.5,2-0.8,2.5-1.3
			c5.5-4.8,11-9.9,13.9-16.7c0.1-0.3-0.3-0.5-0.4-0.2c-2.9,5.8-7.2,10.5-11.8,15c-0.6,0.5-1.1,1.1-1.7,1.6c-0.6,0.6-2.8,2.8-2.7,0.2
			c0.1-1.5,1.7-3,2.7-4c1.8-1.8,3.8-3.9,3.1-6.7C85.4,103.4,85.1,103.5,85.1,103.7L85.1,103.7z"/>
	</g>
	<g>
		<path class="st0" d="M146.6,90.1c2.2,0.7,4.2,1.8,5.2,4c0.5,1.1,1.1,3.6,2.5,4.1c1.2,0.4,1.3-0.9,1.2-1.8
			c-0.3-2.7,0.5-5.3,1.3-7.9c0.1-0.4-0.5-0.6-0.7-0.2c-0.6,1.9-1.2,3.8-1.4,5.7c0,0.5-0.1,1,0,1.6c0,0.2,0.2,1.2,0.1,1.4
			c-0.7,1.2-1.8-1.7-2-2.1c-1.2-2.9-3.1-4.6-6.2-5.2C146.4,89.7,146.3,90,146.6,90.1L146.6,90.1z"/>
	</g>
	<g>
		<path class="st0" d="M93.6,185.2c1.1,0.3,2.2,0.5,3.3,0.8c0.1,0,0.1-0.1,0-0.1c-1.1-0.3-2.2-0.6-3.3-0.8
			C93.5,185,93.5,185.2,93.6,185.2L93.6,185.2z"/>
	</g>
	<g>
		<path class="st0" d="M104.3,186.9c11.9,0.7,24-1.9,34.5-7.5c0.2-0.1,0-0.3-0.1-0.2C128,184.4,116.3,187.2,104.3,186.9
			C104.3,186.9,104.3,186.9,104.3,186.9L104.3,186.9z"/>
	</g>
	<g>
		<path class="st0" d="M196.2,91.9c1.6,3.2,3.2,6.4,4.4,9.9c0.1,0.4,0.8,0.2,0.6-0.2c-1-3.5-2.4-7-4.6-9.9
			C196.5,91.4,196.1,91.7,196.2,91.9L196.2,91.9z"/>
	</g>
	<g>
		<path class="st0" d="M50.5,89.5c-1.1-0.2-1.8,0.5-2.3,1.3c-1,1.5-1.7,3.3-2.4,4.9c-0.7,1.7-1.4,3.4-2,5.1
			c-0.5,1.5-1.5,3.2-1.6,4.8c-0.1,0.8,0.4,1.3,1.2,1.2c1-0.1,1.7-1.2,2.2-2c1.6-2.8,1.5-7,4.9-8.5c-0.2-0.1-0.3-0.1-0.5-0.2
			c0.2,0.9,0.4,1.9,0.6,2.8c0,0.2,0.3,0.3,0.5,0.2c3.2-2.1,4.8-8,9.3-7.5c0.4,0,0.4-0.6,0-0.6c-4.8-0.5-6.3,5.4-9.7,7.6
			c0.2,0.1,0.3,0.1,0.5,0.2c-0.2-0.9-0.4-1.9-0.6-2.8c0-0.2-0.2-0.3-0.4-0.2c-1.6,0.7-2.6,2.1-3.3,3.7c-0.4,1-0.7,2.1-1.1,3.2
			c-0.2,0.4-1.9,4.8-2.8,2.8c-0.1-0.3,0.5-1.6,0.6-2c0.2-0.6,0.4-1.3,0.7-1.9c0.5-1.3,1-2.6,1.5-3.8c0.6-1.4,1.2-2.8,1.9-4.1
			c0.6-1.2,1.2-3.5,2.9-3.5C50.7,90,50.8,89.6,50.5,89.5L50.5,89.5z"/>
	</g>
	<g>
		<path class="st0" d="M48.5,120.1c-1,2.9-1.1,5.9-0.5,8.8c0,0.1,0.2,0.3,0.4,0.2c2-0.8,2.4-3.1,3.3-4.8c1.3-2.7,3.5-4.8,6.2-6.1
			c-0.2-0.1-0.3-0.2-0.5-0.3c0,1.5-0.1,3.2,0.2,4.7c0.1,0.6,0.4,1.2,1,1.3c1.9,0.1,2.2-4,2.4-5.1c0.5-2.9,1-5.7,2.6-8.3
			c1.5-2.5,3.7-4.3,6.1-5.8c0.3-0.2,0-0.7-0.3-0.5c-3.5,1.6-6.2,4.8-7.6,8.3c-0.9,2.2-1.1,4.5-1.5,6.8c-0.1,0.7-0.2,1.3-0.4,2
			c-0.2,0.6-0.5,2.4-1.6,0.9c-0.2-0.3-0.1-1.7-0.1-2.2c0-0.7,0-1.4-0.1-2.2c0-0.3-0.3-0.4-0.5-0.3c-2.1,1-3.9,2.6-5.3,4.5
			c-0.6,0.9-1.1,1.9-1.6,2.9c-0.6,1.3-1,2.9-2.5,3.5c0.1,0.1,0.3,0.1,0.4,0.2c-0.6-2.9-0.5-5.7,0.4-8.5
			C49.1,119.9,48.6,119.8,48.5,120.1L48.5,120.1z"/>
	</g>
	<g>
		<path class="st0" d="M37.8,121.3c-1.2-0.2-1.5,1.2-1.5,2.1c-0.1,2.8-0.1,5.6-0.1,8.3c0,0.4,0.6,0.4,0.6,0c0-1.7,0-3.4,0-5.1
			c0-0.8-0.5-5.1,0.9-5C37.9,121.6,37.9,121.3,37.8,121.3L37.8,121.3z"/>
	</g>
	<g>
		<path class="st0" d="M128,98.9c-1.1,0.7-2.2,1.5-3,2.6c-0.2,0.3,0.3,0.7,0.5,0.4c0.8-1,1.7-1.8,2.7-2.5
			C128.6,99.2,128.3,98.8,128,98.9L128,98.9z"/>
	</g>
	<g>
		<path class="st0" d="M130.1,100.7c-1.4,0.7-2.7,1.7-3.8,2.9c-0.2,0.2,0.1,0.5,0.3,0.3c1.1-1.1,2.2-2.1,3.6-2.9
			C130.5,100.9,130.3,100.6,130.1,100.7L130.1,100.7z"/>
	</g>
	<g>
		<path class="st0" d="M131.7,101.9c-1,0.7-1.9,1.4-2.9,2.1c-0.3,0.2,0,0.6,0.3,0.4c0.9-0.7,1.9-1.4,2.8-2.2
			C132.1,102,131.9,101.8,131.7,101.9L131.7,101.9z"/>
	</g>
	<g>
		<path class="st0" d="M132.9,102.9c-0.1,0.1-0.2,0.1-0.2,0.3c-0.1,0.2-0.2,0.3-0.4,0.5c-0.3,0.3-0.6,0.5-0.9,0.7
			c-0.3,0.2,0,0.5,0.2,0.4c0.4-0.2,0.7-0.5,1-0.8C132.7,103.8,133.1,103.3,132.9,102.9C133,103,132.9,102.9,132.9,102.9L132.9,102.9
			z"/>
	</g>
	<g>
		<path class="st0" d="M133.9,103.4c0.4,0.1,1.8,0.1,1.8,0.4c0,0.2-1.9,1.3-2.2,1.5c-1.5,1-2.9,2-4.3,3c-0.3,0.2,0,0.8,0.3,0.6
			c2.3-1.7,4.6-3.4,6.8-5.2c0.1-0.1,0-0.2-0.1-0.2c-0.8,0-1.5-0.2-2.3-0.2C133.9,103.3,133.8,103.4,133.9,103.4L133.9,103.4z"/>
	</g>
	<g>
		<path class="st0" d="M138.3,104.5c-2,1.7-4.2,3.2-6.6,4.4c-0.4,0.2,0,0.7,0.3,0.5c2.4-1.2,4.7-2.7,6.6-4.6
			C138.8,104.5,138.5,104.3,138.3,104.5L138.3,104.5z"/>
	</g>
	<g>
		<path class="st0" d="M141.6,106c-2.7,1.2-5.4,2.9-7.5,5c-0.3,0.3,0.1,0.6,0.4,0.4c2.3-1.9,4.6-3.6,7.3-5
			C142.1,106.2,141.8,105.9,141.6,106L141.6,106z"/>
	</g>
	<g>
		<path class="st0" d="M142.1,107.3c-0.7,0.2-1.3,0.8-1.8,1.2c-0.6,0.5-1.2,0.9-1.8,1.4c-0.2,0.2,0.1,0.6,0.3,0.4
			c0.6-0.4,1.2-0.9,1.8-1.4c0.5-0.5,1.2-0.9,1.6-1.5C142.3,107.4,142.2,107.3,142.1,107.3L142.1,107.3z"/>
	</g>
	<g>
		<path class="st0" d="M142.6,108.7c-0.3,0-0.4,0.2-0.5,0.4c-0.1,0.1-0.1,0.3-0.2,0.3c0,0-0.1,0-0.1,0c0,0-0.1,0-0.1,0
			c0-0.1,0,0,0,0.1c0.2-0.1,0-0.5-0.2-0.4c-0.5,0.2,0,0.7,0.3,0.7c0.6,0.1,0.5-0.8,1-0.9C142.8,108.9,142.8,108.7,142.6,108.7
			L142.6,108.7z"/>
	</g>
	<g>
		<path class="st0" d="M142.8,108.7c0,0.3,0,0.5,0,0.8c0,0.2,0.3,0.2,0.3,0c0-0.3,0-0.5,0-0.8C143.1,108.5,142.8,108.5,142.8,108.7
			L142.8,108.7z"/>
	</g>
	<g>
		<path class="st0" d="M118.6,119.4c3,0.8,1.1,4.7,2.1,6.7c0.5,1,1.9,1.6,2.5,0.3c0.4-0.8,0.2-1.9,0.2-2.8c-0.1-1.5-0.2-2.9-0.1-4.4
			c0.1-2.9,1-5.6,3.2-7.7c0.3-0.3-0.1-0.6-0.4-0.4c-3.5,2.9-3.5,7.8-3.2,11.9c0,0.6,0.1,1.2,0.1,1.8c0,0.3,0,0.7-0.1,1
			c-0.7,0.7-1.3,0.7-1.6,0c-0.6-1.1-0.2-2.5-0.2-3.8c-0.1-1.5-0.8-3-2.4-3.3C118.4,118.8,118.3,119.3,118.6,119.4L118.6,119.4z"/>
	</g>
	<g>
		<path class="st0" d="M162.1,119.6c1.9-0.3,3.3,1.1,4.8,2.1c1.2,0.8,2.6,1.5,4,2c2.7,0.9,5.9,1.2,8.6,0.3c0.3-0.1,0.3-0.7-0.1-0.6
			c-3.6,0.4-6.8,0.5-10.2-1.1c-2.3-1-4.5-3.5-7.2-2.9C161.9,119.4,162,119.7,162.1,119.6L162.1,119.6z"/>
	</g>
	<g>
		<path class="st0" d="M197.8,122.5c-1.6,2.7-1.9,5.9-2.8,8.9c-0.9,3.1-2.2,6-3.8,8.8c-3.2,5.6-7.3,10.5-11.7,15.2
			c-0.3,0.3,0.2,0.8,0.5,0.5c4.3-4.6,8.4-9.4,11.6-14.8c1.5-2.6,2.8-5.3,3.7-8.1c1.1-3.4,1.5-7,3-10.2
			C198.3,122.5,197.9,122.2,197.8,122.5L197.8,122.5z"/>
	</g>
	<g>
		<path class="st0" d="M142,135.1c1.2,1.6,2.4,3.2,3.3,5.1c1,2.1,1.1,4.2,1.2,6.5c0,1.2,0.5,7.8,3,5.7c1.1-1,1-3.1,0.9-4.4
			c-0.2-2.1-0.8-4.2-0.2-6.3c1.1-3.9,5-6,8.5-7.4c0.3-0.1,0.2-0.7-0.2-0.6c-2.8,0.9-5.6,2.5-7.5,4.9c-2.1,2.8-1.7,5.7-1.4,9
			c0.1,0.9,0.3,2.4-0.1,3.2c-1.3,2.4-2.1-0.4-2.3-1.4c-0.4-1.9-0.1-3.9-0.3-5.8c-0.4-3.4-2.5-6.2-4.7-8.8
			C142.1,134.9,141.9,135,142,135.1L142,135.1z"/>
	</g>
	<g>
		<path class="st0" d="M91.1,143.6c-0.6,2.4,2.4,3.8,4.1,2.2c1.1-1,1.9-1.5,3.4-1.6c1,0,1.1,0,1.9,0.7c0.9,0.9,0.8,1.2,0.8,2.3
			c0.1,2.1-0.1,4.3-0.1,6.4c0,1.9,0.1,3.7,0.6,5.5c0.2,0.9,0.7,3.1,2,3c1.3-0.1,1.5-2,1.7-2.9c0.4-2.3,0.6-4.5,0.5-6.8
			c0-2.7-1.2-7.2,2.6-7.8c0.7-0.1,1.1-0.2,1.6-0.8c1-1.2,1.6-2.1,3.3-2.3c0.3,0,0.3-0.4,0-0.4c-0.8,0.1-1.6,0.3-2.3,0.9
			c-1,0.8-1.3,2.1-2.8,2.3c-1.7,0.2-2.7,1.5-3,3.1c-0.2,1.2,0,2.5,0,3.7c0.1,1.3,0.1,2.5,0,3.8c-0.1,1.6-0.2,3.2-0.6,4.8
			c-0.2,0.8-0.4,2.4-1.8,1.4c-0.4-0.3-0.7-1.5-0.8-2.1c-0.7-2.5-0.6-5.2-0.5-7.8c0-1.1,0.1-2.2,0.1-3.3c0-1,0.1-2.2-0.2-3.2
			c-0.6-1.5-2.9-1.3-4.2-1c-1,0.2-1.6,0.6-2.3,1.3c-0.8,0.7-1.4,1.3-2.5,0.8c-0.8-0.4-1.3-1.3-1.1-2.2
			C91.5,143.5,91.1,143.4,91.1,143.6L91.1,143.6z"/>
	</g>
	<g>
		<path class="st0" d="M72.7,151.8c1.7,1.7,2.3,3.7,2.2,6c0,0.8,0.1,1.7,1.1,1.7c1.3,0,1.6-1.8,1.8-2.7c0.3-2-0.1-5.1,2.4-5.8
			c0.4-0.1,0.2-0.7-0.2-0.6c-3,0.8-2.4,4.4-2.9,6.7c0,0.2-0.1,0.3-0.1,0.5c-0.1,1-0.7,1.1-1.7,0.5c-0.1-0.2,0-0.6,0-0.9
			c0-0.7-0.1-1.3-0.2-2C74.7,153.9,73.9,152.7,72.7,151.8C72.7,151.7,72.6,151.7,72.7,151.8L72.7,151.8z"/>
	</g>
	<g>
		<path class="st0" d="M179,84.8c2.7,0.6,5.3,1.6,7.7,2.9c0.4,0.2,0.8-0.4,0.4-0.6c-2.5-1.4-5.1-2.4-7.9-2.9
			C178.8,84.1,178.6,84.7,179,84.8L179,84.8z"/>
	</g>
	<g>
		<path class="st0" d="M158.1,136.5c-2.6,0.8-4.1,3.7-3.4,6.3c0.1,0.3,0.5,0.2,0.4-0.1c-0.6-2.5,0.7-5,3-6
			C158.3,136.7,158.2,136.5,158.1,136.5L158.1,136.5z"/>
	</g>
	<g>
		<path class="st0" d="M109.5,150.2c0.1-0.6,0-1.2,0.5-1.6c0.5-0.4,1.1-0.7,1.6-1c1.1-0.7,2.1-1.4,3.2-2.1c0.4-0.2,0-0.8-0.3-0.6
			c-1.4,0.9-2.7,1.8-4,2.7c-0.3,0.2-1.1,0.6-1.3,0.9c-0.2,0.4,0,1.3,0,1.7C109.1,150.5,109.4,150.5,109.5,150.2L109.5,150.2z"/>
	</g>
	<g>
		<path class="st0" d="M84.3,131c4,1.9,9.2,1.4,12.7-1.3c1.1-0.8,1.9-1.9,2.8-2.9c0.9-1,2.1-1.7,3.3-2.3c1.9-1,4-1.8,5.1-3.8
			c0.2-0.4-0.3-0.7-0.5-0.3c-1.1,1.9-3.1,2.7-5,3.6c-2.1,1.1-3.2,2.5-4.8,4.2C94.4,131.9,88.9,133,84.3,131
			C84.3,130.9,84.3,131,84.3,131L84.3,131z"/>
	</g>
	<g>
		<path class="st0" d="M128.6,168c0.7,1.4,1.4,4.3,3.4,4.3c0.1,0,0.3-0.1,0.3-0.2c0.3-1.7,1-3.2,2.1-4.5c0.2-0.3-0.1-0.6-0.4-0.4
			c-1.3,1.3-2,2.9-2.3,4.7c0.1-0.1,0.2-0.1,0.3-0.2c-1.6,0-2.4-2.8-2.9-3.9C129,167.5,128.5,167.7,128.6,168L128.6,168z"/>
	</g>
	<g>
		<path class="st0" d="M170.9,141.2c0.5,1,1.1,2,1.6,3c0.3,0.6,0.6,1.2,1.3,1.5c0.9,0.3,1.8-0.3,2.1-1.1c0.3-0.8,0.2-1.6,0.1-2.4
			c-0.1-0.9-0.1-1.8,0.3-2.7c0.7-2.1,2.5-3.6,4.6-4c0.4-0.1,0.2-0.7-0.2-0.6c-2.3,0.5-4.2,2.2-5,4.5c-0.5,1.3-0.2,2.5-0.2,3.9
			c0,1.1-0.7,2.8-2.1,1.3c-0.3-0.3-0.4-0.7-0.6-1c-0.5-0.8-0.9-1.7-1.4-2.5C171.2,140.6,170.7,140.9,170.9,141.2L170.9,141.2z"/>
	</g>
	<g>
		<path class="st0" d="M183.7,98c1.5,0,1.5,3.1,2.9,3.8c0.8,0.4,1.7,0.1,2.2-0.5c0.8-0.9,0.8-2.1,0.7-3.2c0-0.4-0.6-0.4-0.6,0
			c0,0.6,0.1,1.3-0.1,1.9c-0.3,0.9-1.2,1.9-2.2,1.1c-0.6-0.4-0.8-1.3-1-1.9c-0.4-0.9-0.8-1.8-1.9-1.7C183.3,97.5,183.3,98,183.7,98
			L183.7,98z"/>
	</g>
	<g>
		<path class="st0" d="M131.3,63.5c1.4-0.5,3.1-0.1,4.6,0.1c1.5,0.2,3.1,0.4,4.6,0.6c0.4,0,0.4-0.6,0-0.6c-1.8-0.2-3.6-0.4-5.4-0.6
			c-1.4-0.1-2.6-0.2-3.9,0.3C131.1,63.4,131.2,63.6,131.3,63.5L131.3,63.5z"/>
	</g>
	<g>
		<path class="st0" d="M169.7,70.2c2.3,1.4,5,2.5,7.5,3.5c0.4,0.1,0.6-0.5,0.3-0.6c-2.4-1.2-5-2.5-7.6-3.3
			C169.7,69.7,169.5,70.1,169.7,70.2L169.7,70.2z"/>
	</g>
</g>
</svg>
