<?xml version="1.0" encoding="utf-8"?>
<!-- Generator: Adobe Illustrator 23.0.1, SVG Export Plug-In . SVG Version: 6.00 Build 0)  -->
<!DOCTYPE svg PUBLIC "-//W3C//DTD SVG 1.1//EN" "http://www.w3.org/Graphics/SVG/1.1/DTD/svg11.dtd" [
	<!ENTITY ns_extend "http://ns.adobe.com/Extensibility/1.0/">
	<!ENTITY ns_ai "http://ns.adobe.com/AdobeIllustrator/10.0/">
	<!ENTITY ns_graphs "http://ns.adobe.com/Graphs/1.0/">
	<!ENTITY ns_vars "http://ns.adobe.com/Variables/1.0/">
	<!ENTITY ns_imrep "http://ns.adobe.com/ImageReplacement/1.0/">
	<!ENTITY ns_sfw "http://ns.adobe.com/SaveForWeb/1.0/">
	<!ENTITY ns_custom "http://ns.adobe.com/GenericCustomNamespace/1.0/">
	<!ENTITY ns_adobe_xpath "http://ns.adobe.com/XPath/1.0/">
]>
<svg version="1.1" id="Layer_1" xmlns:x="&ns_extend;" xmlns:i="&ns_ai;" xmlns:graph="&ns_graphs;"
	 xmlns="http://www.w3.org/2000/svg" xmlns:xlink="http://www.w3.org/1999/xlink" x="0px" y="0px" viewBox="0 0 500 200"
	 style="enable-background:new 0 0 500 200;" xml:space="preserve">
<style type="text/css">
	.st0{fill:#3C2517;}
</style>
<metadata>
	<sfw  xmlns="&ns_sfw;">
		<slices></slices>
		<sliceSourceBounds  bottomLeftOrigin="true" height="112.7" width="454.9" x="22.6" y="-180.9"></sliceSourceBounds>
	</sfw>
</metadata>
<g>
	<g>
		<path class="st0" d="M163,44c-6.5-5.2-13.6-5.9-21.7-5.5c-9.4,0.5-18.8-0.4-28.1-0.6c-9.5-0.2-19.1-0.4-28.7-0.6
			c-9-0.2-18.1-0.7-27,0.2c-6.8,0.7-14.8,2.2-20.3,6.5c-4.2,3.3-5.9,8.3-6.6,13.3c-0.9,6.7-0.7,13.6-1.1,20.3
			c-0.5,9.6-0.4,19.3-0.1,28.9c0.5,13.8-0.8,32.6,14.1,39.4c6.7,3.1,14.6,3,21.8,3.3c9.5,0.4,19.1,0.3,28.7,0.2
			c18.3-0.2,36.8,0.5,54.9-2.6c7.2-1.2,14.3-3.5,19.4-9c5.5-5.8,8.1-13.7,13.9-19.3c11.8-11.2,29.8-11.9,45.1-12.6
			c19.6-0.9,39.3-0.5,59,0.2c39.1,1.5,78,3.6,117.1,4.4c10,0.2,19.9,0.4,29.9,0.5c9.3,0.1,18.7,0.6,28.1,0.3
			c6.8-0.3,13.6-1.9,18.1-7.3c3.9-4.7,5.6-11.2,4-17.1c-4.3-15.6-22.4-15.4-35.5-14.9c-18.7,0.7-37.3,1-56,1.4
			c-39.6,0.9-79.2,2.2-118.7,4.5c-19.3,1.1-38.7,2.1-58,0.9c-7.3-0.5-14.7-0.9-21.7-3.2c-8.2-2.6-13-7.7-17.3-14.9
			c-3.7-6.2-7.3-12.5-12.9-17.1c-0.9-0.7-2.1,0.5-1.3,1.3c10.6,8.8,13.2,24.3,26,30.6c12.1,5.9,27.5,5.5,40.5,5.8
			c18.3,0.4,36.7-0.9,55-2c18.5-1.1,37-1.8,55.6-2.4c36.5-1.2,73-1.6,109.5-2.9c7.9-0.3,18-1,25.1,3.2c7.3,4.4,10.3,13.4,6.9,21.2
			c-3.8,8.7-12.5,10.9-21.2,11c-9,0.1-18-0.2-26.9-0.3c-36.8-0.5-73.7-1.4-110.5-3.2c-18.4-0.9-36.8-1.8-55.2-2.2
			c-17.6-0.3-35.4-0.5-52.9,1.2c-12.6,1.3-26.3,4.4-35,14.3c-4.9,5.6-7.5,12.9-12.8,18.1c-6.3,6.1-15.4,7.5-23.7,8.4
			c-17.8,2.1-35.8,1.5-53.6,1.7c-9.1,0.1-18.1,0.1-27.2-0.4c-7.8-0.5-16.5-0.8-22.5-6.5c-6.2-5.9-6.8-15-7.2-23
			c-0.4-9.4-0.8-18.8-0.7-28.2c0.1-7.6,0.8-15.1,0.9-22.7c0.1-6.1-0.1-13,3.5-18.2c4.5-6.6,14.5-8.3,21.9-9.1
			c8.5-0.9,17.1-0.5,25.5-0.3c8.8,0.2,17.6,0.3,26.4,0.5c9.2,0.2,18.4,0.7,27.5,0.5c9.2-0.2,17.5-1.2,25.5,4.5
			C162.8,45,163.4,44.4,163,44z"/>
	</g>
	<g>
		<path class="st0" d="M110.1,62.6c-6.4-0.4-13.1-0.2-19.5-0.3c-6.7-0.1-13.5,0.1-20.2,0c-5,0-10.1,0.4-15-0.3c-1-0.1-2-0.3-2.9-0.7
			c-1.9-0.8-2.1-2.8-0.4-4c1.3-1,4.2-0.7,5.7-0.7c12.8,0,25.5,0.2,38.2,0c12.7-0.2,25.5-1,38.2-0.9c1.2,0,2.4,0,3.5,0.4
			c0.6,0.2,1,0.2,1.5,0.6c1.3,1,1.4,3.9,0,4.8c-2.1,1.4-5.9,0.6-8.2,0.5c-7.4-0.3-14.8,0.1-22.2,0.5c-0.8,0-0.8,1.2,0,1.2
			c8.7-0.4,17.2-0.6,25.9-0.2c3.2,0.1,7.9-0.6,7.3-4.9c-0.5-3.5-4.6-4.2-7.5-4.3c-8.5-0.2-17.2,0.5-25.8,0.6
			c-17.1,0.3-34.2,0.2-51.3,0.5c-2.5,0-7.7-0.1-8.4,3.1c-0.7,3.3,3.8,4.3,6.1,4.6c7.9,1,16.2,0.3,24.2,0.3c10.2,0,20.6,0.2,30.8-0.5
			C110.3,62.9,110.3,62.6,110.1,62.6L110.1,62.6z"/>
	</g>
	<g>
		<path class="st0" d="M117.7,76.9c-9.8-0.6-19.8-0.5-29.6-0.5c-9.5,0-19.1-0.2-28.6,0.1c-3,0.1-9.2-0.3-11.1,2.7
			c-2,3.3,2.6,4.7,5,5c7.6,1,15.7,0.3,23.4,0.3c10,0.1,20.1,0.1,30.1,0.2c10,0.1,20.1,0.3,30.1,0.6c4.1,0.1,13.4,1.9,16.5-2.4
			c3-4.3-2.7-6.6-6-6.6c-4.6-0.1-9.2,0.4-13.9,0.4c-5.8,0-11.5-0.3-17.3-0.6c-0.8,0-0.8,1.1,0,1.2c7.4,0.4,14.9,0.8,22.3,0.6
			c2.9-0.1,5.9-0.4,8.8-0.3c1.3,0,2.9,0,4,0.8c0.9,0.7,1.5,3,0.8,4.2c-0.5,0.8-1.9,1-2.8,1.2c-2.5,0.6-5.3,0.3-7.9,0.2
			c-4-0.1-8-0.2-12-0.3c-7.5-0.2-15.1-0.3-22.6-0.4C91.2,83,75.7,83,60.1,83.2c-1.7,0-3.5,0.1-5.2,0c-1-0.1-2.7,0-3.6-0.6
			c-1.2-0.7-1,0.1-1.3-1.7c-0.3-1.8,0.3-1.8,1.8-2.4c4.4-1.5,10.1-0.9,14.6-0.9c8.5,0,16.9,0.1,25.4,0.1c8.6,0,17.3,0.2,25.9-0.3
			C117.9,77.3,117.9,77,117.7,76.9L117.7,76.9z"/>
	</g>
	<g>
		<path class="st0" d="M110.1,123.3c-8.9-0.7-18.1-0.5-27-0.5c-8.3,0-16.6-0.3-25,0.1c-2.7,0.1-7.8,0.1-8.9,3.2
			c-1.2,3.2,2.8,4.3,5.1,4.5c6.8,0.8,13.9,0.2,20.7,0.3c9,0.1,18,0.1,27,0.2c9,0.1,18,0.3,27,0.6c3.5,0.1,10,1.2,12.3-2.4
			c2.4-3.7-1.4-6.4-4.7-6.7c-4-0.3-8.2,0.4-12.3,0.3c-5.2,0-10.4-0.3-15.6-0.6c-0.8,0-0.8,1.1,0,1.2c6.4,0.4,12.8,0.8,19.3,0.6
			c2.6-0.1,5.2-0.4,7.8-0.3c1.2,0,2.4,0,3.4,0.7c0.9,0.6,1.5,3.3,0.8,4.4c-0.4,0.7-2,1-2.7,1.1c-2,0.5-4.1,0.2-6.1,0.2
			c-3.5-0.1-7-0.2-10.5-0.3c-6.5-0.1-13-0.3-19.5-0.4c-13.3-0.3-26.5-0.3-39.8-0.1c-1.8,0-3.5,0.1-5.3,0c-1.1,0-2.2-0.1-3.2-0.4
			c-2-0.5-2.9-2.8-1.1-4.1c3-2.2,10-1.2,13.3-1.2c7.5,0,15,0.1,22.5,0.1c7.4,0,15.1,0.2,22.5-0.3
			C110.3,123.7,110.3,123.3,110.1,123.3L110.1,123.3z"/>
	</g>
	<g>
		<path class="st0" d="M117.7,108.9c-7.6-0.4-15.3-0.3-22.9-0.3c-7.4,0-14.7,0.1-22.1,0.1c-5.7,0-11.5,0.4-17.1-0.2
			c-1.1-0.1-2.3-0.3-3.4-0.6c-0.6-0.2-1.6-0.3-2-0.9c-0.4-0.5-0.6-2.3,0-2.9c1.3-1.3,5.1-1.1,6.9-1.1c14.6-0.1,29.2,0.2,43.7,0.1
			c14.8-0.2,29.6-0.9,44.3-0.9c1.4,0,2.8,0,4.2,0.4c0.7,0.2,1.3,0.3,2,0.7c1.7,1.3,1.4,4.3-0.8,5.1c-2.8,0.9-6.2,0.3-9.1,0.1
			c-8.4-0.3-16.8,0.1-25.2,0.5c-0.8,0-0.8,1.2,0,1.2c9.6-0.4,19.2-0.8,28.8-0.3c3.3,0.2,9.7,0.1,9.1-4.8c-0.6-4.2-6.4-4.3-9.6-4.3
			c-10,0-20.1,0.5-30.1,0.7c-19.1,0.3-38.2,0.1-57.3,0.4c-2.5,0-8.6-0.2-9.1,3.3c-0.6,3.9,5.9,4.3,8.4,4.5
			c9.1,0.6,18.2,0.2,27.3,0.2c11.3,0,22.8,0.2,34-0.5C117.9,109.3,117.9,109,117.7,108.9L117.7,108.9z"/>
	</g>
	<g>
		<path class="st0" d="M115.9,143.7c2.3,2,4.8,3.7,7.5,5.2c0.4,0.3,0.9-0.4,0.4-0.7c-2.6-1.5-5.1-3.2-7.6-4.9
			C116,143.1,115.7,143.5,115.9,143.7L115.9,143.7z"/>
	</g>
	<g>
		<path class="st0" d="M117.3,140.5c2.8,2.9,6.2,5.8,9.8,7.9c0.5,0.3,0.9-0.4,0.4-0.7c-3.3-2.5-6.6-4.9-9.8-7.5
			C117.4,139.9,117,140.2,117.3,140.5L117.3,140.5z"/>
	</g>
	<g>
		<path class="st0" d="M117.8,137.2c4.5,3.9,8.9,8.1,13.6,11.8c0.3,0.3,0.8-0.2,0.5-0.5c-4.4-4.1-9.1-7.9-13.7-11.8
			C117.9,136.6,117.5,137,117.8,137.2L117.8,137.2z"/>
	</g>
	<g>
		<path class="st0" d="M117.9,134c5.2,4.8,10.5,9.7,16,14.1c0.4,0.3,0.9-0.2,0.5-0.5c-5.3-4.7-10.9-9.2-16.2-13.9
			C118,133.4,117.7,133.8,117.9,134L117.9,134z"/>
	</g>
	<g>
		<path class="st0" d="M120.2,132.1c5.9,5.2,11.7,10.7,17.8,15.6c0.4,0.3,1-0.2,0.6-0.6c-5.3-5.7-11.8-10.8-18.1-15.5
			C120.3,131.4,119.9,131.9,120.2,132.1L120.2,132.1z"/>
	</g>
	<g>
		<path class="st0" d="M126,132.4c4.6,4.9,9.5,9.8,14.5,14.3c0.4,0.4,0.9-0.2,0.6-0.6c-4.6-5-9.5-9.7-14.5-14.3
			C126.2,131.5,125.6,132,126,132.4L126,132.4z"/>
	</g>
	<g>
		<path class="st0" d="M130.1,131.3c-1.3,1.2,1.1,2.8,1.8,3.5c2.4,2.3,4.6,4.7,7.2,6.8c0.4,0.3,1-0.2,0.6-0.6
			c-0.8-0.9-9.5-8.7-9.1-9.1C131,131.5,130.5,131,130.1,131.3L130.1,131.3z"/>
	</g>
	<g>
		<path class="st0" d="M133.8,132.5c2.1,1.9,4.5,4.1,7.1,5.3c0.3,0.1,0.6-0.2,0.3-0.4c-2.2-1.9-4.7-3.4-7-5.3
			C133.9,131.8,133.5,132.3,133.8,132.5L133.8,132.5z"/>
	</g>
	<g>
		<path class="st0" d="M136.8,132c1.3,1,2.7,2,4.1,2.8c0.5,0.3,0.8-0.4,0.4-0.7c-1.3-1-2.7-1.9-4.1-2.6
			C136.9,131.3,136.5,131.8,136.8,132L136.8,132z"/>
	</g>
	<g>
		<path class="st0" d="M114.9,119.3c2,1.5,4,3.2,6.2,4.4c0.5,0.3,1-0.4,0.6-0.8c-2-1.6-4.3-3-6.4-4.4
			C114.9,118.3,114.5,119,114.9,119.3L114.9,119.3z"/>
	</g>
	<g>
		<path class="st0" d="M114.2,116.1c2.2,1.8,4.5,3.5,6.8,5.2c1.3,0.9,3.2,3.3,4.9,2.6c0.5-0.2,0.1-1-0.4-0.9c-0.8,0.2-2-1.2-2.7-1.6
			c-0.9-0.7-1.8-1.3-2.8-2c-1.8-1.3-3.7-2.6-5.6-3.9C114.3,115.4,113.9,115.9,114.2,116.1L114.2,116.1z"/>
	</g>
	<g>
		<path class="st0" d="M114.9,112.4c3.6,3.8,7.8,7.6,12.3,10.4c0.6,0.4,1-0.5,0.5-0.9c-4.2-3.2-8.4-6.4-12.3-10
			C115,111.5,114.5,112,114.9,112.4L114.9,112.4z"/>
	</g>
	<g>
		<path class="st0" d="M117.1,110.6c4.4,4.2,9,8.5,14.1,11.9c0.4,0.3,0.9-0.4,0.5-0.7c-4.7-3.9-9.6-7.6-14.2-11.6
			C117.2,109.9,116.8,110.4,117.1,110.6L117.1,110.6z"/>
	</g>
	<g>
		<path class="st0" d="M123.8,112c3.5,4.2,7.9,8.4,12.7,10.9c0.5,0.3,0.9-0.4,0.5-0.8c-4.5-3.4-8.9-6.5-12.8-10.5
			C123.9,111.4,123.6,111.7,123.8,112L123.8,112z"/>
	</g>
	<g>
		<path class="st0" d="M127.2,110.9c3.5,4.3,8.2,9,13.1,11.9c0.5,0.3,1-0.4,0.6-0.7c-2.1-2-4.6-3.6-6.8-5.6c-2.2-2-4.2-4.1-6.3-6.1
			C127.4,109.9,126.8,110.5,127.2,110.9L127.2,110.9z"/>
	</g>
	<g>
		<path class="st0" d="M131.8,110.6c2.4,2.4,4.8,4.9,7.4,7.3c0.5,0.4,1.1-0.2,0.7-0.7c-2.5-2.4-5.1-4.7-7.7-7
			C131.9,109.9,131.5,110.3,131.8,110.6L131.8,110.6z"/>
	</g>
	<g>
		<path class="st0" d="M134.2,110.1c1.4,1.7,3,3.2,4.8,4.4c0.5,0.3,0.9-0.4,0.5-0.8c-1.7-1.2-3.3-2.6-4.8-4.2
			C134.4,109.3,134,109.8,134.2,110.1L134.2,110.1z"/>
	</g>
	<g>
		<path class="st0" d="M114.7,98.5c1.7,1.2,3.3,2.5,5.1,3.4c0.2,0.1,0.4-0.2,0.3-0.3c-1.6-1.3-3.5-2.3-5.2-3.4
			C114.7,98,114.5,98.3,114.7,98.5L114.7,98.5z"/>
	</g>
	<g>
		<path class="st0" d="M114,94.5c2.5,2.5,5.4,5,8.4,6.8c0.3,0.2,0.8-0.3,0.4-0.6c-2.8-2.3-5.7-4.4-8.4-6.7
			C114.2,93.8,113.7,94.2,114,94.5L114,94.5z"/>
	</g>
	<g>
		<path class="st0" d="M114,90c3.7,4.3,8.2,8.2,13.2,11c0.4,0.2,0.7-0.4,0.4-0.6c-4.8-3.2-9.2-6.6-13.2-10.8
			C114.1,89.3,113.8,89.7,114,90L114,90z"/>
	</g>
	<g>
		<path class="st0" d="M115.7,88c4.7,4.9,9.9,9.6,15.6,13.4c0.4,0.2,0.7-0.3,0.3-0.6c-5.4-4.2-10.7-8.3-15.6-13.1
			C115.8,87.4,115.5,87.8,115.7,88L115.7,88z"/>
	</g>
	<g>
		<path class="st0" d="M117.4,85.1c4.9,5.2,10.3,10.5,16.4,14.3c0.3,0.2,0.7-0.3,0.4-0.5c-5.6-4.7-11.2-9.1-16.3-14.2
			C117.5,84.4,117.1,84.8,117.4,85.1L117.4,85.1z"/>
	</g>
	<g>
		<path class="st0" d="M122.9,85.7c5.5,5.3,11.2,10.5,16.8,15.7c0.4,0.3,0.9-0.2,0.5-0.5c-5.6-5.2-11.3-10.5-17-15.5
			C123,85.1,122.6,85.5,122.9,85.7L122.9,85.7z"/>
	</g>
	<g>
		<path class="st0" d="M128.6,87c4,3.4,7.8,7.2,11.8,10.6c0.2,0.2,0.5-0.1,0.3-0.3c-3.6-3.8-7.8-7.2-11.9-10.6
			C128.7,86.6,128.4,86.9,128.6,87L128.6,87z"/>
	</g>
	<g>
		<path class="st0" d="M131.3,85.6c2.8,2.9,5.9,5.5,9.2,7.8c0.3,0.2,0.6-0.3,0.3-0.5c-3.2-2.3-6.3-4.9-9.2-7.6
			C131.4,85.2,131.1,85.4,131.3,85.6L131.3,85.6z"/>
	</g>
	<g>
		<path class="st0" d="M136.1,86.8c0.7,1.1,1.6,1.9,2.7,2.6c0.3,0.2,0.5-0.2,0.2-0.4c-1-0.7-1.8-1.5-2.4-2.5
			C136.4,86.2,135.9,86.5,136.1,86.8L136.1,86.8z"/>
	</g>
	<g>
		<path class="st0" d="M115.6,73.7c1.2,1.5,2.9,3,4.7,3.7c0.2,0.1,0.4-0.2,0.2-0.3c-0.8-0.5-1.7-0.9-2.4-1.5
			c-0.8-0.6-1.6-1.3-2.3-2.1C115.7,73.5,115.6,73.6,115.6,73.7L115.6,73.7z"/>
	</g>
	<g>
		<path class="st0" d="M115.2,69.6c2.2,2.8,4.8,5.5,7.7,7.6c0.3,0.2,0.6-0.2,0.3-0.4c-2.7-2.4-5.3-4.7-7.7-7.4
			C115.3,69.2,115,69.4,115.2,69.6L115.2,69.6z"/>
	</g>
	<g>
		<path class="st0" d="M115.6,66.9c3.3,3.7,7.2,7.3,11.1,10.4c0.2,0.2,0.6-0.1,0.4-0.4c-3.8-3.4-7.5-6.8-11.2-10.3
			C115.7,66.5,115.5,66.7,115.6,66.9L115.6,66.9z"/>
	</g>
	<g>
		<path class="st0" d="M117.5,65.3c2,2.3,4.2,4.4,6.4,6.4c2,1.9,4.1,4,6.4,5.5c0.2,0.1,0.5-0.2,0.3-0.4c-2-2.1-4.4-3.9-6.5-5.8
			c-2.1-2-4.2-4.1-6.3-6.1C117.6,64.8,117.3,65.1,117.5,65.3L117.5,65.3z"/>
	</g>
	<g>
		<path class="st0" d="M120.5,64.2c3.6,5.1,8.4,9.8,13.5,13.5c0.3,0.2,0.7-0.3,0.4-0.5c-5-4-9.4-8.4-13.5-13.3
			C120.7,63.7,120.4,64,120.5,64.2L120.5,64.2z"/>
	</g>
	<g>
		<path class="st0" d="M122.6,63.1c1.8,2.6,4.3,4.8,6.6,7c2.5,2.6,5,5.2,7.7,7.6c0.3,0.3,0.7-0.1,0.4-0.4c-4.6-5-9.8-9.4-14.4-14.4
			C122.8,62.7,122.5,62.9,122.6,63.1L122.6,63.1z"/>
	</g>
	<g>
		<path class="st0" d="M126.5,63c4,5,8.3,10.1,13.1,14.4c0.3,0.3,0.7-0.1,0.4-0.4c-4.4-4.8-8.9-9.4-13.2-14.3
			C126.7,62.5,126.4,62.8,126.5,63L126.5,63z"/>
	</g>
	<g>
		<path class="st0" d="M130.3,63.6c2.3,3,5.2,5.8,8.2,8.2c0.2,0.2,0.6-0.1,0.4-0.4c-2.9-2.6-5.6-5.3-8.4-8.1
			C130.4,63.2,130.2,63.4,130.3,63.6L130.3,63.6z"/>
	</g>
	<g>
		<path class="st0" d="M133.9,64.5c0.7,0.8,1.5,1.6,2.3,2.3c0.8,0.8,1.5,1.6,2.4,2.3c0.3,0.2,0.6-0.1,0.4-0.4
			c-0.7-0.8-1.6-1.5-2.4-2.3c-0.8-0.8-1.6-1.5-2.4-2.2C134,64.1,133.8,64.3,133.9,64.5L133.9,64.5z"/>
	</g>
	<g>
		<path class="st0" d="M136,63.9c0.9,0.9,1.8,1.8,2.6,2.9c0.2,0.3,0.6,0,0.4-0.3c-0.8-1-1.7-2-2.8-2.8
			C136.1,63.6,135.9,63.8,136,63.9L136,63.9z"/>
	</g>
	<g>
		<path class="st0" d="M115.7,52.4c1,1,2.1,1.9,3.3,2.6c0.2,0.1,0.4-0.2,0.2-0.4c-1.2-0.8-2.2-1.6-3.2-2.5
			C115.8,52,115.6,52.2,115.7,52.4L115.7,52.4z"/>
	</g>
	<g>
		<path class="st0" d="M115.8,49.5c1.9,2.2,4.2,4.3,6.8,5.7c0.2,0.1,0.4-0.2,0.2-0.3c-2.4-1.7-4.7-3.4-6.7-5.6
			C115.9,49.1,115.7,49.3,115.8,49.5L115.8,49.5z"/>
	</g>
	<g>
		<path class="st0" d="M115.8,47.5c2.4,2.9,5.6,5.7,8.9,7.7c0.3,0.2,0.5-0.2,0.2-0.4c-3.1-2.4-6-4.8-8.9-7.5
			C115.9,47,115.7,47.3,115.8,47.5L115.8,47.5z"/>
	</g>
	<g>
		<path class="st0" d="M116.7,44.6c1.8,2.3,3.8,4.5,5.8,6.6c0.9,1,1.9,1.9,2.9,2.8c0.4,0.4,0.9,1.1,1.6,1.1c0.1,0,0.2-0.1,0.3-0.2
			c0-0.1,0-0.1,0-0.2c0-0.1,0-0.2-0.1-0.3c0,0-0.1,0-0.1-0.1c-0.3-0.1-0.5,0.3-0.3,0.4c0.1-0.3,0-0.4-0.2-0.6
			c-0.3-0.2-0.5-0.5-0.8-0.7c-0.4-0.4-0.8-0.8-1.2-1.2c-0.9-0.9-1.8-1.7-2.7-2.6c-1.7-1.8-3.4-3.6-5-5.5
			C116.8,44.2,116.6,44.4,116.7,44.6L116.7,44.6z"/>
	</g>
	<g>
		<path class="st0" d="M116.6,41.9c4.2,4.6,8.7,9.3,13.5,13.3c0.3,0.2,0.7-0.1,0.4-0.4c-4.4-4.5-9-8.8-13.5-13.2
			C116.7,41.4,116.4,41.7,116.6,41.9L116.6,41.9z"/>
	</g>
	<g>
		<path class="st0" d="M117.8,39.8c0.6,1.2,1.7,2,2.6,3c1.2,1.2,2.5,2.4,3.7,3.6c2.5,2.4,4.9,4.9,7.5,7.1c0.2,0.2,0.5-0.1,0.3-0.3
			c-2.1-2.3-4.6-4.5-6.9-6.7c-1.1-1-2.1-2-3.2-3c-1.2-1.1-2.9-2.3-3.7-3.8C118.1,39.3,117.7,39.5,117.8,39.8L117.8,39.8z"/>
	</g>
	<g>
		<path class="st0" d="M121.1,39.2c0.2,1,1.1,1.7,1.7,2.4c1.2,1.2,2.4,2.5,3.6,3.7c2.4,2.5,4.7,5.1,7.2,7.4c0.3,0.3,0.6-0.1,0.4-0.4
			c-2-2.2-4.1-4.3-6.1-6.4c-1-1.1-2.1-2.1-3.1-3.2c-1-1-2.8-2.4-3.2-3.7C121.5,38.8,121,38.9,121.1,39.2L121.1,39.2z"/>
	</g>
	<g>
		<path class="st0" d="M124.9,40c4.1,5,8.5,10.1,12.9,14.8c0.3,0.3,0.6-0.1,0.4-0.4c-4.1-5.1-8.6-10-13-14.7
			C125,39.5,124.7,39.8,124.9,40L124.9,40z"/>
	</g>
	<g>
		<path class="st0" d="M128.4,40c1.6,2.3,3.4,4.4,5.2,6.5c1.9,2.3,3.8,4.7,5.9,6.7c0.2,0.2,0.6-0.1,0.4-0.4
			c-1.7-2.3-3.8-4.3-5.7-6.5c-1.9-2.2-3.6-4.4-5.5-6.6C128.5,39.6,128.2,39.8,128.4,40L128.4,40z"/>
	</g>
	<g>
		<path class="st0" d="M131.9,40.5c2.1,2.9,4.3,5.9,6.7,8.5c0.2,0.2,0.6-0.1,0.4-0.3c-2-2.9-4.5-5.7-6.8-8.4
			C132,40.1,131.7,40.3,131.9,40.5L131.9,40.5z"/>
	</g>
	<g>
		<path class="st0" d="M133.9,40.2c1.2,1.9,2.7,3.9,4.5,5.2c0.2,0.2,0.5-0.2,0.3-0.4c-1.5-1.7-3.1-3.3-4.4-5.1
			C134.1,39.8,133.8,40,133.9,40.2L133.9,40.2z"/>
	</g>
	<g>
		<path class="st0" d="M136,39.7c1.2,1.4,2.4,2.8,3.7,4.1c0.2,0.3,0.6-0.1,0.4-0.4c-1.3-1.3-2.5-2.7-3.9-4
			C136.1,39.4,135.9,39.6,136,39.7L136,39.7z"/>
	</g>
	<g>
		<path class="st0" d="M39.3,139.7c1,0.9,1.9,1.9,2.9,2.9c0.1,0.1,0.2,0,0.1-0.1C41.5,141.4,40.4,140.5,39.3,139.7
			C39.3,139.6,39.3,139.7,39.3,139.7L39.3,139.7z"/>
	</g>
	<g>
		<path class="st0" d="M39.7,136.8c0.8,1.2,1.7,2.4,2.6,3.6c0.1,0.1,0.3,0,0.2-0.2c-0.9-1.2-1.8-2.4-2.7-3.5
			C39.8,136.6,39.6,136.7,39.7,136.8L39.7,136.8z"/>
	</g>
	<g>
		<path class="st0" d="M40,135.1c1.2,1.8,2.6,3.5,3.9,5.3c0.6,0.8,1.2,1.7,1.9,2.5c0.3,0.3,0.4,0.5,0.8,0.6c0.1,0,0.2,0,0.2-0.1
			c0.1-0.2,0.1-0.2,0-0.5c0-0.1-0.1-0.1-0.2-0.1c0,0-0.1,0-0.1,0c-0.2,0-0.1,0.4,0.1,0.3c-0.2,0-1.2-1.6-1.4-1.8
			c-0.6-0.7-1.2-1.5-1.7-2.2C42.3,137.8,41.2,136.3,40,135.1C40,135,39.9,135,40,135.1L40,135.1z"/>
	</g>
	<g>
		<path class="st0" d="M39.6,131.4c2.1,3.8,5.2,7.3,8.1,10.5c0.2,0.2,0.4,0,0.4-0.2c-0.1-0.6-0.3-1-0.7-1.6
			c-0.1-0.2-0.4,0.1-0.3,0.2c0.2,0.5,0.4,0.9,0.5,1.4c0.1-0.1,0.3-0.1,0.4-0.2c-2.9-3.3-5.4-6.9-8.2-10.3
			C39.7,131.1,39.5,131.3,39.6,131.4L39.6,131.4z"/>
	</g>
	<g>
		<path class="st0" d="M41.8,130.5c1.2,2.4,2.8,4.8,4.8,6.7c0.2,0.2,0.4-0.1,0.3-0.3c-1.8-2.1-3.4-4.2-4.8-6.5
			C41.9,130.3,41.7,130.4,41.8,130.5L41.8,130.5z"/>
	</g>
	<g>
		<path class="st0" d="M42.9,130.3c1.5,2.2,3.2,4.5,5.1,6.4c0.2,0.2,0.4-0.1,0.2-0.2c-1.7-2.1-3.5-4.1-5.1-6.3
			C43,130.1,42.8,130.2,42.9,130.3L42.9,130.3z"/>
	</g>
	<g>
		<path class="st0" d="M44,128.8c0.2,0,2.1,3.1,2.3,3.4c0.7,1.1,1.4,2.2,2.2,3.2c0.2,0.2,0.5,0,0.4-0.2c-1-1.5-2.1-3-3.1-4.4
			c-0.4-0.6-1-2-1.8-2.1c0,0-0.1,0-0.1,0.1c-0.1,0.1-0.1,0.2,0,0.3c0,0.1,0.1,0.1,0.1,0.1c0,0,0,0,0.1,0
			C44.2,129,44.2,128.8,44,128.8L44,128.8z"/>
	</g>
	<g>
		<path class="st0" d="M45.3,128.5c0-0.1-0.2-0.6-0.2-0.6c-0.1,0.1,0.3,0.6,0.4,0.6c0.4,0.5,0.7,1.1,1.1,1.6
			c0.7,1.1,1.5,2.1,2.2,3.2c0.2,0.2,0.5,0,0.4-0.2c-1.4-1.9-2.6-3.9-4.2-5.6c0,0-0.1,0-0.1,0.1C45,127.9,45.1,128.2,45.3,128.5
			C45.3,128.6,45.3,128.6,45.3,128.5L45.3,128.5z"/>
	</g>
	<g>
		<path class="st0" d="M45.4,125.4c0.9,1.7,1.9,3.3,3.2,4.8c0.1,0.1,0.3-0.1,0.2-0.2c-1.2-1.5-2.3-3-3.2-4.7
			C45.5,125.1,45.3,125.2,45.4,125.4L45.4,125.4z"/>
	</g>
	<g>
		<path class="st0" d="M45.9,125.4c0.8,1.1,1.7,2.3,2.7,3.3c0.1,0.1,0.3,0,0.2-0.2c-0.8-1.1-1.8-2.2-2.8-3.2
			C46,125.2,45.9,125.3,45.9,125.4L45.9,125.4z"/>
	</g>
	<g>
		<path class="st0" d="M46.7,124.1c0.8,0.9,1.5,1.8,2.1,2.8c0.1,0.1,0.3,0,0.2-0.1C48.4,125.8,47.7,124.8,46.7,124.1
			C46.7,124,46.7,124.1,46.7,124.1L46.7,124.1z"/>
	</g>
	<g>
		<path class="st0" d="M47.4,122.9c0.7,1,1.4,2.1,2.2,3c0.1,0.1,0.3,0,0.2-0.1c-0.7-1-1.5-2-2.2-3C47.5,122.7,47.4,122.8,47.4,122.9
			L47.4,122.9z"/>
	</g>
	<g>
		<path class="st0" d="M47.2,119.9c0.9,0.7,1.7,1.6,2.2,2.7c0.1,0.2,0.4,0,0.3-0.2c-0.5-1.1-1.3-2.1-2.3-2.7
			C47.2,119.7,47.1,119.9,47.2,119.9L47.2,119.9z"/>
	</g>
	<g>
		<path class="st0" d="M47.8,118.5c0.8,0.8,1.6,1.5,2.3,2.4c0.1,0.1,0.3-0.1,0.2-0.2c-0.7-0.9-1.5-1.7-2.5-2.3
			C47.8,118.4,47.7,118.5,47.8,118.5L47.8,118.5z"/>
	</g>
	<g>
		<path class="st0" d="M47.4,114.2c1,1.5,2.2,2.8,3.4,4.1c0.2,0.2,0.4-0.1,0.2-0.2c-1.3-1.2-2.4-2.6-3.4-4
			C47.5,113.9,47.3,114,47.4,114.2L47.4,114.2z"/>
	</g>
	<g>
		<path class="st0" d="M47.4,111.9c0.9,0.8,1.8,1.7,2.6,2.6c0.2,0.2,0.4-0.1,0.3-0.3c-0.8-0.9-1.7-1.8-2.7-2.6
			C47.5,111.6,47.3,111.8,47.4,111.9L47.4,111.9z"/>
	</g>
	<g>
		<path class="st0" d="M47.1,109.2c0.9,1.3,1.9,2.6,3,3.7c0.1,0.1,0.3-0.1,0.2-0.2c-1.1-1.2-2.1-2.4-3-3.7
			C47.2,108.9,47,109.1,47.1,109.2L47.1,109.2z"/>
	</g>
	<g>
		<path class="st0" d="M47,107.1c0.8,1,1.6,2,2.3,3.1c0.1,0.2,0.3,0,0.2-0.1c-0.7-1.1-1.5-2.1-2.5-3C47,107,46.9,107.1,47,107.1
			L47,107.1z"/>
	</g>
	<g>
		<path class="st0" d="M47,104.9c0.9,0.5,1.6,1.2,2.1,2.1c0.1,0.2,0.3,0,0.2-0.1c-0.5-1-1.3-1.7-2.2-2.2
			C46.9,104.6,46.8,104.9,47,104.9L47,104.9z"/>
	</g>
	<g>
		<path class="st0" d="M47.2,102.7c0.4,0.3,0.8,0.6,1.1,0.9c0.3,0.3,0.6,0.7,0.9,1c0.1,0.1,0.4,0,0.3-0.2c-0.5-0.8-1.4-1.5-2.2-1.9
			C47.2,102.4,47,102.6,47.2,102.7L47.2,102.7z"/>
	</g>
	<g>
		<path class="st0" d="M47.9,100.7c0.4,0.9,1,1.7,1.7,2.3c0.1,0.1,0.3-0.1,0.2-0.2c-0.8-0.6-1.3-1.3-1.8-2.2
			C48,100.5,47.9,100.6,47.9,100.7L47.9,100.7z"/>
	</g>
	<g>
		<path class="st0" d="M46.9,98.5c0.8,0.8,1.6,1.6,2.4,2.3c0.2,0.2,0.5-0.1,0.3-0.3c-0.8-0.8-1.6-1.5-2.4-2.3
			C47,98.1,46.7,98.3,46.9,98.5L46.9,98.5z"/>
	</g>
	<g>
		<path class="st0" d="M47.3,95.4c0.4,0.6,0.9,1,1.3,1.5c0.5,0.6,1,1.1,1.5,1.7c0.1,0.2,0.4-0.1,0.2-0.2c-0.9-1-1.8-2.2-2.9-3
			C47.3,95.2,47.2,95.3,47.3,95.4L47.3,95.4z"/>
	</g>
	<g>
		<path class="st0" d="M47.8,93.1c-0.2-0.3-0.3-0.6-0.1-0.9c-0.1,0-0.2,0-0.2,0.1c1,1.2,2.1,2.4,3.1,3.5c0.2,0.2,0.5-0.1,0.3-0.3
			c-1-1.2-2.1-2.3-3.2-3.4c-0.1-0.1-0.2,0-0.2,0.1c-0.1,0.4,0,0.8,0.3,1.1C47.8,93.3,47.9,93.2,47.8,93.1L47.8,93.1z"/>
	</g>
	<g>
		<path class="st0" d="M47.2,89.8c1,0.8,1.9,1.7,2.6,2.8c0.1,0.2,0.5,0,0.3-0.2c-0.8-1.1-1.7-2-2.8-2.8C47.2,89.4,47,89.7,47.2,89.8
			L47.2,89.8z"/>
	</g>
	<g>
		<path class="st0" d="M47.4,87c0.8,1.1,1.9,2,3,2.8c0.2,0.1,0.4-0.2,0.2-0.3c-1.1-0.7-2.1-1.7-3-2.7C47.5,86.8,47.3,86.9,47.4,87
			L47.4,87z"/>
	</g>
	<g>
		<path class="st0" d="M47.2,84.3c1,1,2,2,3,3c0.2,0.2,0.4-0.1,0.2-0.2c-1-1-2-2-3.1-2.9C47.2,84.1,47.1,84.2,47.2,84.3L47.2,84.3z"
			/>
	</g>
	<g>
		<path class="st0" d="M47.2,81.8c0.9,0.7,1.7,1.5,2.4,2.3c0.2,0.2,0.4-0.1,0.3-0.3c-0.7-0.9-1.6-1.6-2.5-2.3
			C47.2,81.4,47,81.7,47.2,81.8L47.2,81.8z"/>
	</g>
	<g>
		<path class="st0" d="M47,79.8c0.5,0.5,0.9,1.1,1.4,1.6c0.1,0.1,0.4-0.1,0.2-0.2C48.1,80.6,47.5,80.2,47,79.8
			C47,79.7,46.9,79.7,47,79.8L47,79.8z"/>
	</g>
	<g>
		<path class="st0" d="M46.9,76.6c0.5,0.8,1.2,1.5,2,2.1c0.2,0.1,0.4-0.2,0.2-0.3c-0.8-0.5-1.4-1.2-2-1.9
			C47,76.3,46.8,76.4,46.9,76.6L46.9,76.6z"/>
	</g>
	<g>
		<path class="st0" d="M46.7,74.3c0.8,0.8,1.5,1.6,2.4,2.4c0.2,0.2,0.5-0.1,0.3-0.3c-0.8-0.8-1.6-1.5-2.4-2.3
			C46.8,73.9,46.5,74.2,46.7,74.3L46.7,74.3z"/>
	</g>
	<g>
		<path class="st0" d="M47.1,71.6c0.7,1,1.4,2.1,2.2,3c0.2,0.2,0.5,0,0.4-0.2c-0.7-1-1.5-2-2.3-3C47.3,71.2,47,71.4,47.1,71.6
			L47.1,71.6z"/>
	</g>
	<g>
		<path class="st0" d="M47.3,70c0.4,0.4,0.8,0.9,1.1,1.3c0.3,0.4,0.6,0.9,0.9,1.3c0.2,0.2,0.5,0,0.3-0.2c-0.5-1-1.3-1.9-2.2-2.6
			C47.3,69.7,47.2,69.9,47.3,70L47.3,70z"/>
	</g>
	<g>
		<path class="st0" d="M47.3,66.7c0.7,0.8,1.3,1.6,1.9,2.5c0.2,0.2,0.5,0,0.4-0.2c-0.5-0.9-1.3-1.8-2.1-2.4
			C47.3,66.5,47.2,66.6,47.3,66.7L47.3,66.7z"/>
	</g>
	<g>
		<path class="st0" d="M47.1,63.9c1,1,1.9,2.1,2.9,3.1c0.2,0.2,0.5-0.1,0.3-0.3c-1-1-2-2-2.9-3C47.2,63.5,46.9,63.7,47.1,63.9
			L47.1,63.9z"/>
	</g>
	<g>
		<path class="st0" d="M47.5,61.5c0.2,0.5,0.5,0.9,0.9,1.3c0.4,0.4,0.8,0.9,1.2,1.2c0.2,0.2,0.5-0.2,0.3-0.4
			c-0.4-0.4-0.8-0.7-1.1-1.1c-0.3-0.4-0.6-0.9-1-1.2C47.6,61.3,47.4,61.4,47.5,61.5L47.5,61.5z"/>
	</g>
	<g>
		<path class="st0" d="M43.2,56.8c1.6,2,3.6,3.7,5.6,5.2c0.3,0.2,0.6-0.3,0.3-0.5c-2-1.5-3.8-3.2-5.6-5
			C43.3,56.4,43.1,56.6,43.2,56.8L43.2,56.8z"/>
	</g>
	<g>
		<path class="st0" d="M40.5,52.2c2.1,1.9,4.3,3.8,6.5,5.6c0.9,0.8,1.9,1.6,2.9,2.3c0.4,0.3,0.6,0.6,1.2,0.5c0.1,0,0.2-0.2,0.2-0.3
			c0-0.1,0-0.1,0-0.2c0-0.1-0.1-0.3-0.3-0.3c0,0-0.1,0-0.1,0c-0.3,0-0.3,0.5,0,0.5c-0.1,0-1-1.1-1.2-1.3c-0.4-0.4-0.9-0.7-1.4-1.1
			c-0.8-0.7-1.7-1.3-2.5-2c-1.7-1.4-3.3-2.8-5-4.1C40.6,51.7,40.3,52,40.5,52.2L40.5,52.2z"/>
	</g>
	<g>
		<path class="st0" d="M38.1,46.5c3.9,4,8,7.8,12.2,11.4c0.2,0.1,0.4-0.1,0.2-0.2c-4.3-3.6-8.4-7.4-12.3-11.3
			C38.2,46.3,38,46.4,38.1,46.5L38.1,46.5z"/>
	</g>
	<g>
		<path class="st0" d="M40.1,44.6c3.3,3.2,6.6,6.5,10,9.7c0.2,0.1,0.4-0.1,0.2-0.2c-3.3-3.3-6.7-6.4-10-9.6
			C40.2,44.2,40,44.4,40.1,44.6L40.1,44.6z"/>
	</g>
	<g>
		<path class="st0" d="M41.9,43.9c2.5,2.5,5.1,5,7.9,7.4c0.1,0.1,0.4-0.1,0.2-0.2c-2.7-2.4-5.3-4.8-7.9-7.3
			C42,43.6,41.8,43.8,41.9,43.9L41.9,43.9z"/>
	</g>
	<g>
		<path class="st0" d="M44.7,42.5c1.9,1.8,3.8,3.7,5.7,5.5c0.2,0.2,0.4-0.1,0.2-0.2c-1.9-1.8-3.8-3.7-5.7-5.5
			C44.7,42.1,44.5,42.3,44.7,42.5L44.7,42.5z"/>
	</g>
	<g>
		<path class="st0" d="M45.7,41.1c1.8,1.5,3.4,3,5.1,4.6c0.2,0.1,0.4-0.1,0.2-0.2c-1.6-1.7-3.3-3.2-5.1-4.6
			C45.8,40.9,45.6,41,45.7,41.1L45.7,41.1z"/>
	</g>
	<g>
		<path class="st0" d="M49.2,40.7c1.1,1,2.2,2,3.2,3.1c0.2,0.2,0.5-0.1,0.3-0.3c-1-1.1-2-2.1-3.2-3C49.2,40.3,49,40.6,49.2,40.7
			L49.2,40.7z"/>
	</g>
	<g>
		<path class="st0" d="M59.3,45.6c2.4,2.2,4.9,4.3,7.6,6.1c0.2,0.1,0.3-0.1,0.1-0.2C64.5,49.5,61.9,47.6,59.3,45.6
			C59.4,45.4,59.3,45.5,59.3,45.6L59.3,45.6z"/>
	</g>
	<g>
		<path class="st0" d="M64.6,44.1c2.9,3.4,6.4,6.1,10.6,7.8c0.1,0,0.1-0.1,0-0.1C71.1,50,67.5,47.4,64.6,44.1
			C64.6,44,64.5,44,64.6,44.1L64.6,44.1z"/>
	</g>
	<g>
		<path class="st0" d="M69.7,42c3.5,2.9,7.1,5.6,10.9,8c0.1,0.1,0.2-0.1,0.1-0.2c-3.8-2.5-7.4-5.2-10.8-8
			C69.8,41.7,69.6,41.9,69.7,42L69.7,42z"/>
	</g>
	<g>
		<path class="st0" d="M84.4,44.4c1.5,1.1,2.9,2.3,4.4,3.4c0.1,0,0.1-0.1,0.1-0.1c-1.4-1.2-2.9-2.3-4.3-3.4
			C84.4,44.3,84.3,44.4,84.4,44.4L84.4,44.4z"/>
	</g>
	<g>
		<path class="st0" d="M62.4,137.4c1.1,1.5,2.4,2.8,4,3.8c0.1,0.1,0.2-0.1,0.1-0.1C64.9,140,63.6,138.8,62.4,137.4
			C62.5,137.3,62.4,137.3,62.4,137.4L62.4,137.4z"/>
	</g>
	<g>
		<path class="st0" d="M63.6,134.3c2.7,3.3,5.6,6.4,8.8,9.2c0.2,0.2,0.4-0.1,0.3-0.3c-3.2-2.8-6.1-5.8-8.9-9.1
			C63.7,134,63.6,134.2,63.6,134.3L63.6,134.3z"/>
	</g>
	<g>
		<path class="st0" d="M67.8,134.2c2.5,3,5.4,5.6,8.5,8c0.1,0.1,0.3-0.1,0.2-0.2c-3.1-2.4-5.9-5.1-8.5-7.9
			C67.8,133.9,67.7,134.1,67.8,134.2L67.8,134.2z"/>
	</g>
	<g>
		<path class="st0" d="M74.2,135.5c2,2.4,4.3,4.5,6.8,6.3c0.1,0.1,0.2-0.1,0.1-0.2c-2.5-1.8-4.7-3.9-6.7-6.3
			C74.3,135.3,74.1,135.4,74.2,135.5L74.2,135.5z"/>
	</g>
	<g>
		<path class="st0" d="M80.5,136.3c2.2,1.7,4.4,3.4,6.6,5c0.2,0.1,0.3-0.2,0.2-0.3c-2.2-1.6-4.4-3.3-6.7-4.8
			C80.5,136.1,80.4,136.3,80.5,136.3L80.5,136.3z"/>
	</g>
	<g>
		<path class="st0" d="M174.4,114.5c1.5,0.7,3,1.4,4.5,1.9c0.2,0.1,0.3-0.3,0.1-0.4c-1.5-0.6-3-1.1-4.4-1.8
			C174.4,114.1,174.2,114.4,174.4,114.5L174.4,114.5z"/>
	</g>
	<g>
		<path class="st0" d="M172.4,111.1c2.2,1.4,4.6,2.6,7.1,3.5c0.3,0.1,0.4-0.3,0.1-0.4c-2.4-1-4.7-2.1-7-3.4
			C172.4,110.7,172.2,111,172.4,111.1L172.4,111.1z"/>
	</g>
	<g>
		<path class="st0" d="M170.1,108.8c3.2,1.5,6.4,2.9,9.7,4.4c0.3,0.1,0.5-0.3,0.3-0.4c-3.2-1.4-6.5-2.9-9.7-4.3
			C170.1,108.3,169.9,108.7,170.1,108.8L170.1,108.8z"/>
	</g>
	<g>
		<path class="st0" d="M168.7,105.2c4.2,2.2,8.5,4.2,12.9,5.9c0.3,0.1,0.4-0.3,0.1-0.4c-4.3-1.8-8.6-3.7-12.9-5.7
			C168.6,104.8,168.5,105.1,168.7,105.2L168.7,105.2z"/>
	</g>
	<g>
		<path class="st0" d="M168.8,101.5c3.2,2.5,6.7,4.6,10.5,6.1c0.3,0.1,0.4-0.3,0.2-0.4c-3.7-1.6-7.2-3.5-10.4-5.9
			C168.9,101.1,168.6,101.4,168.8,101.5L168.8,101.5z"/>
	</g>
	<g>
		<path class="st0" d="M167.4,97.5c2.8,2.3,5.8,4.5,9,6.3c0.3,0.2,0.5-0.3,0.2-0.4c-3.1-1.9-6.1-3.9-9-6.1
			C167.5,97,167.2,97.3,167.4,97.5L167.4,97.5z"/>
	</g>
	<g>
		<path class="st0" d="M167.2,92.9c2.5,2.7,5.4,4.9,8.5,6.8c0.3,0.2,0.5-0.3,0.3-0.4c-3.1-1.9-5.9-4.1-8.5-6.6
			C167.3,92.4,167,92.7,167.2,92.9L167.2,92.9z"/>
	</g>
	<g>
		<path class="st0" d="M166.8,89.8c2.7,2.5,5.6,4.7,8.9,6.5c0.3,0.2,0.6-0.3,0.3-0.5c-3.1-1.9-6-3.9-8.8-6.3
			C167,89.2,166.6,89.6,166.8,89.8L166.8,89.8z"/>
	</g>
	<g>
		<path class="st0" d="M168.2,87.1c2.1,2.3,4.5,4.3,7.2,6c0.3,0.2,0.6-0.3,0.3-0.5c-2.6-1.7-5-3.6-7.2-5.8
			C168.3,86.6,167.9,86.9,168.2,87.1L168.2,87.1z"/>
	</g>
	<g>
		<path class="st0" d="M168.3,82.6c1.5,2.7,4.6,5,7.3,6.6c0.3,0.2,0.6-0.3,0.3-0.5c-1.4-0.9-2.8-1.8-4.1-2.9c-1.2-1-2.1-2.3-3.3-3.3
			C168.3,82.3,168.2,82.4,168.3,82.6L168.3,82.6z"/>
	</g>
	<g>
		<path class="st0" d="M169.1,79.9c1.8,2.9,4.5,5.4,7.6,6.9c0.3,0.2,0.6-0.3,0.3-0.5c-3-1.7-5.4-3.8-7.5-6.6
			C169.3,79.5,169,79.7,169.1,79.9L169.1,79.9z"/>
	</g>
	<g>
		<path class="st0" d="M170.9,77.8c1.9,2.4,4.3,4.8,6.9,6.7c0.3,0.2,0.6-0.3,0.4-0.5c-2.7-2.1-5-4.4-7.3-6.9c-0.1-0.1-0.3,0-0.3,0.1
			c-0.1,0.3-0.1,0.5,0.2,0.7C170.9,78,171,77.9,170.9,77.8L170.9,77.8z"/>
	</g>
	<g>
		<path class="st0" d="M172.4,73.6c2.1,2.8,4.6,5.5,7,8c0.3,0.3,0.6-0.1,0.4-0.4c-2.3-2.7-4.6-5.4-7.2-7.8
			C172.5,73.3,172.3,73.5,172.4,73.6L172.4,73.6z"/>
	</g>
	<g>
		<path class="st0" d="M174.2,72c2.1,2.6,4.3,5.2,6.5,7.7c0.3,0.3,0.6-0.1,0.4-0.4c-2.1-2.6-4.4-5.1-6.7-7.5
			C174.3,71.6,174.1,71.8,174.2,72L174.2,72z"/>
	</g>
	<g>
		<polygon class="st0" points="177.2,71.5 177.2,71.5 177.2,71.5 		"/>
	</g>
	<g>
		<path class="st0" d="M177.3,71c1.8,3,4,5.8,6.6,8.1c0.3,0.2,0.7-0.1,0.4-0.4c-2.5-2.4-4.8-5-6.8-7.8
			C177.5,70.7,177.2,70.8,177.3,71L177.3,71z"/>
	</g>
	<g>
		<path class="st0" d="M180.8,73.5c1.6,1.9,3.3,3.6,5,5.4c0.3,0.2,0.6-0.1,0.4-0.4c-1.7-1.7-3.4-3.5-5.1-5.3
			C180.9,72.9,180.6,73.3,180.8,73.5L180.8,73.5z"/>
	</g>
	<g>
		<path class="st0" d="M184.9,75.2c1.5,1.8,3.2,3.6,5.1,5c0.3,0.2,0.6-0.3,0.4-0.5c-1.8-1.6-3.5-3.2-5.1-4.9
			C185,74.6,184.7,75,184.9,75.2L184.9,75.2z"/>
	</g>
	<g>
		<path class="st0" d="M187.1,75.1c1.9,2.3,4,4.5,6.3,6.5c0.3,0.3,0.7-0.2,0.4-0.4c-2.3-2-4.4-4.1-6.3-6.4
			C187.3,74.4,186.9,74.8,187.1,75.1L187.1,75.1z"/>
	</g>
	<g>
		<path class="st0" d="M191.1,77.3c1.8,2.1,3.8,4.2,6,5.9c0.2,0.2,0.6-0.2,0.3-0.4c-2.1-1.8-4.1-3.7-5.9-5.8
			C191.3,76.7,190.9,77,191.1,77.3L191.1,77.3z"/>
	</g>
	<g>
		<path class="st0" d="M195.6,79.5c1.5,1.6,3,3.2,4.6,4.7c0.2,0.2,0.4-0.1,0.3-0.3c-1.6-1.5-3.2-3-4.6-4.6
			C195.7,79.1,195.5,79.4,195.6,79.5L195.6,79.5z"/>
	</g>
	<g>
		<path class="st0" d="M198.2,79.7c1.5,1.7,3.1,3.3,5,4.5c0.2,0.1,0.4-0.2,0.2-0.3c-1.8-1.4-3.4-2.8-4.9-4.5
			C198.3,79.3,198,79.5,198.2,79.7L198.2,79.7z"/>
	</g>
	<g>
		<path class="st0" d="M201.6,81c1.7,1.8,3.7,3.5,5.9,4.7c0.2,0.1,0.4-0.2,0.2-0.4c-2.1-1.4-4.1-2.8-5.9-4.6
			C201.7,80.6,201.5,80.8,201.6,81L201.6,81z"/>
	</g>
	<g>
		<path class="st0" d="M203.4,80c2.2,2.2,4.6,4.4,7.3,5.9c0.3,0.2,0.5-0.3,0.3-0.4c-2.5-1.8-5-3.6-7.3-5.7
			C203.5,79.5,203.3,79.8,203.4,80L203.4,80z"/>
	</g>
	<g>
		<path class="st0" d="M206.8,81c1.7,1.9,3.8,3.5,6.1,4.6c0.3,0.1,0.5-0.3,0.2-0.4c-2.2-1.2-4.2-2.7-6-4.5
			C206.9,80.6,206.7,80.8,206.8,81L206.8,81z"/>
	</g>
	<g>
		<path class="st0" d="M209.6,81.3c2.3,2.2,5,4.1,7.9,5.4c0.3,0.1,0.5-0.3,0.2-0.4c-2.9-1.5-5.5-3.2-7.9-5.3
			C209.7,80.9,209.4,81.2,209.6,81.3L209.6,81.3z"/>
	</g>
	<g>
		<path class="st0" d="M213.9,81.7c1.9,1.9,4.2,3.5,6.6,4.7c0.3,0.2,0.6-0.3,0.3-0.5c-2.3-1.3-4.5-2.8-6.5-4.5
			C214,81.2,213.6,81.5,213.9,81.7L213.9,81.7z"/>
	</g>
	<g>
		<path class="st0" d="M216.5,81.5c2,2.3,4.4,4.2,7.1,5.7c0.4,0.2,0.7-0.3,0.3-0.6c-2.6-1.5-5-3.3-7.1-5.5
			C216.7,80.9,216.3,81.3,216.5,81.5L216.5,81.5z"/>
	</g>
	<g>
		<path class="st0" d="M220.7,82.6c1.9,1.8,3.9,3.6,6.1,5c0.3,0.2,0.5-0.3,0.3-0.4c-2.1-1.6-4.1-3.1-6-4.9
			C220.8,82,220.5,82.3,220.7,82.6L220.7,82.6z"/>
	</g>
	<g>
		<path class="st0" d="M223.5,81.7c2.3,1.9,4.6,3.8,7,5.6c0.2,0.1,0.4-0.2,0.2-0.3c-2.3-1.9-4.7-3.7-7.2-5.4
			C223.5,81.5,223.4,81.6,223.5,81.7L223.5,81.7z"/>
	</g>
	<g>
		<path class="st0" d="M225.5,80.4c2.3,2.1,4.8,4,7.4,5.7c0.2,0.1,0.4-0.2,0.2-0.4c-2.5-1.8-5-3.6-7.4-5.5
			C225.5,80.2,225.4,80.4,225.5,80.4L225.5,80.4z"/>
	</g>
	<g>
		<path class="st0" d="M229.8,81.2c2,1.5,4.1,3.1,6.2,4.5c0.2,0.1,0.3-0.2,0.2-0.3c-2-1.5-4.1-3-6.2-4.5
			C229.8,80.8,229.6,81.1,229.8,81.2L229.8,81.2z"/>
	</g>
	<g>
		<path class="st0" d="M233.6,82.4c2,1.9,4.2,3.3,6.7,4.4c0.3,0.1,0.4-0.3,0.1-0.4c-2.5-1-4.7-2.4-6.6-4.2
			C233.7,82,233.5,82.3,233.6,82.4L233.6,82.4z"/>
	</g>
	<g>
		<path class="st0" d="M237.2,81.1c2.3,1.8,4.7,3.5,7.2,4.9c0.2,0.1,0.4-0.2,0.2-0.3c-2.5-1.6-4.9-3.1-7.2-4.9
			C237.2,80.7,237,81,237.2,81.1L237.2,81.1z"/>
	</g>
	<g>
		<path class="st0" d="M240.4,79.9c2.6,1.6,5.2,3.2,7.9,4.7c0.2,0.1,0.4-0.2,0.2-0.3c-2.6-1.7-5.3-3.1-7.9-4.7
			C240.4,79.5,240.2,79.8,240.4,79.9L240.4,79.9z"/>
	</g>
	<g>
		<path class="st0" d="M244.8,80.1c2.8,1.7,5.8,3.2,8.7,4.8c0.2,0.1,0.4-0.2,0.2-0.4c-2.9-1.6-5.8-3.2-8.8-4.6
			C244.8,79.8,244.6,80,244.8,80.1L244.8,80.1z"/>
	</g>
	<g>
		<path class="st0" d="M249.8,80.6c2.4,0.9,4.5,1.9,6.7,3.3c0.2,0.1,0.4-0.2,0.2-0.3c-2.1-1.4-4.4-2.5-6.8-3.2
			C249.7,80.2,249.6,80.5,249.8,80.6L249.8,80.6z"/>
	</g>
	<g>
		<path class="st0" d="M253.6,80.3c2.6,1.4,5.2,3,7.8,4.3c0.2,0.1,0.4-0.2,0.2-0.3c-2.6-1.5-5.2-2.9-7.8-4.3
			C253.6,79.9,253.4,80.2,253.6,80.3L253.6,80.3z"/>
	</g>
	<g>
		<path class="st0" d="M258.2,80.6c2.5,1.2,5.1,2.4,7.6,3.5c0.2,0.1,0.4-0.3,0.2-0.4c-2.5-1.2-5.1-2.3-7.7-3.4
			C258.1,80.2,258,80.5,258.2,80.6L258.2,80.6z"/>
	</g>
	<g>
		<path class="st0" d="M262.3,79.9c2.2,1.5,4.6,2.9,7.1,3.9c0.2,0.1,0.4-0.3,0.2-0.4c-2.4-1.2-4.8-2.4-7.1-3.9
			C262.3,79.3,262,79.7,262.3,79.9L262.3,79.9z"/>
	</g>
	<g>
		<path class="st0" d="M266.6,80.1c2.5,1.1,4.9,2.1,7.4,3.1c0.2,0.1,0.4-0.3,0.2-0.4c-2.5-1.1-4.9-2.1-7.4-3.1
			C266.6,79.6,266.4,80,266.6,80.1L266.6,80.1z"/>
	</g>
	<g>
		<path class="st0" d="M271,79.6c2.5,1.4,5.1,2.6,7.7,3.5c0.2,0.1,0.4-0.3,0.2-0.4c-2.6-1.1-5.2-2.2-7.7-3.5
			C271,79.2,270.8,79.5,271,79.6L271,79.6z"/>
	</g>
	<g>
		<path class="st0" d="M276.2,79.8c2.6,1.3,5.2,2.6,7.9,3.8c0.2,0.1,0.4-0.3,0.2-0.4c-2.6-1.3-5.2-2.5-7.9-3.7
			C276.2,79.3,276,79.7,276.2,79.8L276.2,79.8z"/>
	</g>
	<g>
		<path class="st0" d="M281.4,79.8c2,1.1,4.1,2.1,6.2,3c0.2,0.1,0.4-0.3,0.2-0.4c-2-1.1-4.1-2.1-6.3-2.9
			C281.4,79.5,281.3,79.7,281.4,79.8L281.4,79.8z"/>
	</g>
	<g>
		<path class="st0" d="M285,79c2.3,1.1,4.6,2.2,7,3.3c0.3,0.1,0.5-0.3,0.2-0.4c-2.3-1.1-4.7-2.2-7-3.3C284.9,78.5,284.7,78.8,285,79
			L285,79z"/>
	</g>
	<g>
		<path class="st0" d="M288.8,78.4c2.6,1,5.2,2.1,7.9,3.2c0.3,0.1,0.4-0.3,0.2-0.4c-2.6-1.2-5.3-2.2-7.9-3.1
			C288.7,77.9,288.6,78.3,288.8,78.4L288.8,78.4z"/>
	</g>
	<g>
		<path class="st0" d="M293.9,78c2.3,1.5,4.7,2.9,7.1,4.3c0.3,0.2,0.6-0.3,0.3-0.5c-2.4-1.4-4.8-2.9-7.2-4.2
			C293.9,77.5,293.7,77.9,293.9,78L293.9,78z"/>
	</g>
	<g>
		<path class="st0" d="M299.7,78.9c2.2,1,4.5,2,6.7,2.8c0.3,0.1,0.5-0.4,0.2-0.5c-2.2-1-4.5-1.9-6.8-2.8
			C299.7,78.4,299.5,78.8,299.7,78.9L299.7,78.9z"/>
	</g>
	<g>
		<path class="st0" d="M303.9,78.3c2.1,1.2,4.4,2.3,6.7,3.3c0.2,0.1,0.4-0.2,0.2-0.3c-2.2-1.1-4.5-2.3-6.8-3.2
			C303.9,78.1,303.8,78.3,303.9,78.3L303.9,78.3z"/>
	</g>
	<g>
		<path class="st0" d="M308.5,78.4c2.2,1.1,4.5,2.1,6.7,3.1c0.2,0.1,0.4-0.3,0.2-0.4c-2.2-1.1-4.5-2.1-6.8-3
			C308.4,78,308.3,78.3,308.5,78.4L308.5,78.4z"/>
	</g>
	<g>
		<path class="st0" d="M313.7,78.4c1.9,1.1,3.9,2,6,2.7c0.3,0.1,0.4-0.4,0.1-0.5c-2-0.8-4-1.6-5.9-2.6
			C313.6,78,313.4,78.3,313.7,78.4L313.7,78.4z"/>
	</g>
	<g>
		<path class="st0" d="M317.4,77.5c2.1,1.2,4.2,2.4,6.3,3.5c0.3,0.1,0.5-0.3,0.2-0.4c-2.1-1.2-4.2-2.3-6.3-3.4
			C317.4,77,317.2,77.3,317.4,77.5L317.4,77.5z"/>
	</g>
	<g>
		<path class="st0" d="M322.4,77.1c2.2,1,4.3,2.1,6.5,3.2c0.3,0.2,0.6-0.3,0.3-0.5c-2.1-1.2-4.3-2.2-6.6-3.1
			C322.3,76.6,322.2,77,322.4,77.1L322.4,77.1z"/>
	</g>
	<g>
		<path class="st0" d="M328.2,78c2.2,1.1,4.5,2.2,6.6,3.4c0.3,0.2,0.5-0.3,0.3-0.4c-2.2-1.2-4.4-2.3-6.8-3.2
			C328.2,77.6,328.1,77.9,328.2,78L328.2,78z"/>
	</g>
	<g>
		<path class="st0" d="M333.7,77.9c1.1-0.6,2.8,0.8,3.6,1.3c0.9,0.5,1.8,1.1,2.7,1.6c0.3,0.1,0.5-0.2,0.2-0.4
			c-1.5-0.9-3-1.8-4.6-2.6c-0.7-0.4-1.4-0.7-2.2-0.2C333.3,77.7,333.5,78,333.7,77.9L333.7,77.9z"/>
	</g>
	<g>
		<path class="st0" d="M339.1,76.8c1.8,1.3,3.7,2.5,5.6,3.5c0.3,0.1,0.6-0.3,0.3-0.4c-2-1-3.9-2.1-5.7-3.3
			C339.1,76.4,338.9,76.7,339.1,76.8L339.1,76.8z"/>
	</g>
	<g>
		<path class="st0" d="M343.2,76c2.6,1.6,5.2,3.2,7.9,4.8c0.2,0.1,0.5-0.2,0.2-0.4c-2.6-1.6-5.3-3.1-7.9-4.6
			C343.2,75.7,343,75.9,343.2,76L343.2,76z"/>
	</g>
	<g>
		<path class="st0" d="M348.1,76.3c2.4,1.2,4.8,2.3,7.3,3.4c0.3,0.1,0.5-0.3,0.2-0.4c-2.4-1.2-4.9-2.3-7.4-3.3
			C348,75.9,347.9,76.2,348.1,76.3L348.1,76.3z"/>
	</g>
	<g>
		<path class="st0" d="M353.5,76.1c2.9,1.5,5.8,2.9,8.8,4.3c0.3,0.1,0.5-0.3,0.2-0.4c-2.9-1.4-5.9-2.8-8.8-4.2
			C353.5,75.7,353.3,76,353.5,76.1L353.5,76.1z"/>
	</g>
	<g>
		<path class="st0" d="M359.9,76.3c3.1,1.1,6,2.5,8.8,4.1c0.3,0.2,0.5-0.3,0.2-0.4c-2.8-1.7-5.9-3-9-4
			C359.7,75.8,359.6,76.2,359.9,76.3L359.9,76.3z"/>
	</g>
	<g>
		<path class="st0" d="M366.7,76.3c2.3,1,4.5,2,6.8,3c0.2,0.1,0.4-0.2,0.2-0.3c-2.3-1-4.6-2-6.9-3C366.6,75.9,366.5,76.2,366.7,76.3
			L366.7,76.3z"/>
	</g>
	<g>
		<path class="st0" d="M371.9,76.4c2.9,1.6,5.8,3.1,8.8,4.5c0.3,0.1,0.5-0.3,0.2-0.4c-2.9-1.5-5.9-3-8.9-4.3
			C371.9,76.1,371.8,76.3,371.9,76.4L371.9,76.4z"/>
	</g>
	<g>
		<path class="st0" d="M378.2,76.7c2.1,1.2,4.3,2.4,6.4,3.5c0.2,0.1,0.5-0.2,0.2-0.4c-2.2-1.1-4.4-2.2-6.6-3.3
			C378.2,76.5,378.1,76.6,378.2,76.7L378.2,76.7z"/>
	</g>
	<g>
		<path class="st0" d="M381.7,76.6c1.9,0.8,3.8,1.7,5.7,2.7c0.3,0.2,0.6-0.3,0.3-0.5c-1.9-1.1-3.8-2-5.8-2.7
			C381.6,76.2,381.5,76.5,381.7,76.6L381.7,76.6z"/>
	</g>
	<g>
		<path class="st0" d="M384.8,74.7c2.4,1.3,4.7,2.7,6.9,4.2c0.3,0.2,0.5-0.3,0.3-0.4c-2.2-1.5-4.6-2.8-7.1-3.9
			C384.8,74.5,384.7,74.6,384.8,74.7L384.8,74.7z"/>
	</g>
	<g>
		<path class="st0" d="M392.3,76c2,1.3,4.1,2.5,6.2,3.4c0.3,0.1,0.5-0.2,0.2-0.4c-2.1-1.1-4.2-2.2-6.3-3.3
			C392.3,75.7,392.2,75.9,392.3,76L392.3,76z"/>
	</g>
	<g>
		<path class="st0" d="M395.2,75.6c2.2,1.5,4.5,2.9,6.9,3.9c0.2,0.1,0.4-0.2,0.2-0.3c-2.4-1.2-4.7-2.4-7-3.8
			C395.2,75.3,395.1,75.5,395.2,75.6L395.2,75.6z"/>
	</g>
	<g>
		<path class="st0" d="M398.5,75.5c2,1,3.9,2.2,5.8,3.3c0.2,0.1,0.3-0.2,0.2-0.3c-1.8-1.3-3.9-2.3-5.9-3.2
			C398.5,75.3,398.4,75.5,398.5,75.5L398.5,75.5z"/>
	</g>
	<g>
		<path class="st0" d="M401.7,75.6c2.6,1.3,5.1,2.6,7.8,3.9c0.3,0.1,0.5-0.3,0.2-0.4c-2.6-1.3-5.2-2.5-7.8-3.7
			C401.7,75.3,401.6,75.5,401.7,75.6L401.7,75.6z"/>
	</g>
	<g>
		<path class="st0" d="M406.5,74.7c2.5,1.4,5,2.6,7.7,3.6c0.2,0.1,0.3-0.3,0.1-0.4c-2.6-1.1-5.2-2.2-7.6-3.5
			C406.5,74.4,406.4,74.6,406.5,74.7L406.5,74.7z"/>
	</g>
	<g>
		<path class="st0" d="M411.6,75c1.9,1.5,4.3,2.8,6.8,2.9c0.2,0,0.3-0.4,0.1-0.4c-2.4-0.6-4.6-1.3-6.6-2.8
			C411.7,74.5,411.5,74.8,411.6,75L411.6,75z"/>
	</g>
	<g>
		<path class="st0" d="M416.2,74.8c2.2,1.2,4.5,2.4,6.7,3.5c0.3,0.1,0.5-0.2,0.2-0.4c-2.2-1.2-4.5-2.3-6.8-3.4
			C416.2,74.5,416,74.7,416.2,74.8L416.2,74.8z"/>
	</g>
	<g>
		<path class="st0" d="M420.3,74.9c2.7,1.4,5.4,3,8.1,4.3c0.2,0.1,0.4-0.2,0.2-0.3c-2.7-1.5-5.5-2.8-8.2-4.1
			C420.2,74.6,420.1,74.8,420.3,74.9L420.3,74.9z"/>
	</g>
	<g>
		<path class="st0" d="M426.6,75.3c2,1.2,4.1,2.5,6.2,3.5c0.2,0.1,0.4-0.2,0.2-0.4c-2-1.2-4.1-2.4-6.2-3.4
			C426.6,75,426.4,75.3,426.6,75.3L426.6,75.3z"/>
	</g>
	<g>
		<path class="st0" d="M431.2,75.8c2.4,1.3,4.8,2.5,7.4,3.5c0.3,0.1,0.4-0.4,0.1-0.5c-2.5-1-4.9-2.1-7.3-3.3
			C431.1,75.3,430.9,75.6,431.2,75.8L431.2,75.8z"/>
	</g>
	<g>
		<path class="st0" d="M435.9,74.8c2.5,1.2,4.7,2.6,6.9,4.3c0.2,0.2,0.5-0.1,0.3-0.3c-2.1-1.8-4.5-3.2-7.1-4.3
			C435.9,74.4,435.7,74.7,435.9,74.8L435.9,74.8z"/>
	</g>
	<g>
		<path class="st0" d="M441.5,74.4c2.3,1.3,4.5,2.8,6.8,4.2c0.3,0.2,0.6-0.3,0.3-0.5c-2.2-1.5-4.5-2.8-6.8-4.1
			C441.5,73.9,441.3,74.3,441.5,74.4L441.5,74.4z"/>
	</g>
	<g>
		<path class="st0" d="M446.9,74.9c2,1,3.9,2.1,5.8,3.4c0.3,0.2,0.5-0.2,0.3-0.4c-1.8-1.3-3.8-2.3-5.9-3.2
			C446.8,74.6,446.7,74.9,446.9,74.9L446.9,74.9z"/>
	</g>
	<g>
		<path class="st0" d="M451.6,74.9c1.4,1.2,2.9,2.3,4.6,3.1c0.2,0.1,0.5-0.2,0.2-0.4c-1.6-0.9-3.2-1.8-4.6-3
			C451.7,74.4,451.4,74.7,451.6,74.9L451.6,74.9z"/>
	</g>
	<g>
		<path class="st0" d="M455.4,74.5c1.9,1.4,3.8,2.8,5.7,4.1c0.2,0.2,0.5-0.2,0.3-0.4c-1.9-1.5-3.9-2.7-5.8-4.1
			C455.4,73.9,455.2,74.3,455.4,74.5L455.4,74.5z"/>
	</g>
	<g>
		<path class="st0" d="M460.5,74c1.9,2.1,4.4,3.9,7.1,4.9c0.2,0.1,0.4-0.3,0.2-0.4c-2.6-1.3-4.9-2.7-7-4.7
			C460.5,73.6,460.3,73.8,460.5,74L460.5,74z"/>
	</g>
	<g>
		<path class="st0" d="M465.5,74.7c1.9,2.2,4.4,4.4,7.1,5.6c0.2,0.1,0.4-0.2,0.2-0.4c-2.6-1.6-5-3.2-7-5.5
			C465.6,74.2,465.3,74.5,465.5,74.7L465.5,74.7z"/>
	</g>
	<g>
		<path class="st0" d="M471.1,77.6c2,1.6,4.1,3.2,6.1,4.9c0.3,0.2,0.6-0.1,0.4-0.4c-1.8-1.8-4.1-3.5-6.3-4.7
			C471.1,77.3,471,77.5,471.1,77.6L471.1,77.6z"/>
	</g>
	<g>
		<path class="st0" d="M477.4,84c1.1,0.9,2.3,1.7,3.5,2.4c0.2,0.1,0.5-0.2,0.3-0.4c-1.1-0.9-2.4-1.7-3.6-2.4
			C477.4,83.5,477.2,83.8,477.4,84L477.4,84z"/>
	</g>
	<g>
		<path class="st0" d="M477.8,85.2c1.4,1.1,2.6,2.3,3.7,3.6c0.2,0.2,0.6-0.1,0.4-0.3c-1.1-1.4-2.4-2.6-3.9-3.6
			C477.9,84.7,477.7,85,477.8,85.2L477.8,85.2z"/>
	</g>
	<g>
		<path class="st0" d="M478,86.8c1.2,1.4,2.4,2.9,3.7,4.3c0.2,0.3,0.6-0.1,0.4-0.4c-1.2-1.5-2.5-2.8-3.8-4.2
			C478.1,86.3,477.8,86.6,478,86.8L478,86.8z"/>
	</g>
	<g>
		<path class="st0" d="M464.7,97c-4,0.3-5.4-4.1-4.1-7.3c1.1-2.6,3.7-4.4,6.6-4.2c3,0.3,5.4,2.9,5.1,5.9c-0.1,1.6-1.1,3.2-2.2,4.2
			c-1.3,1.2-3,1.2-4.7,1.3c-0.6,0-0.6,0.9,0,0.9c2,0.1,4-0.1,5.5-1.5c1.3-1.3,2.4-3.1,2.5-5c0.3-3.7-2.8-6.8-6.4-7
			c-3.8-0.2-7.1,2.8-7.7,6.5c-0.5,3.4,1.8,7.1,5.5,6.4C465,97.4,464.9,97,464.7,97L464.7,97z"/>
	</g>
	<g>
		<path class="st0" d="M463.6,96.2c0.7,0.5,1.5,1,2.4,1.3c0.2,0.1,0.4-0.3,0.2-0.4c-0.8-0.3-1.6-0.7-2.3-1.2
			C463.5,95.7,463.4,96,463.6,96.2L463.6,96.2z"/>
	</g>
	<g>
		<path class="st0" d="M464.3,95.5c0.8,0.8,2,1.5,3.1,1.8c0.2,0.1,0.4-0.3,0.2-0.4c-0.5-0.3-1.1-0.5-1.6-0.7c-0.5-0.3-1-0.6-1.5-0.9
			C464.3,95.2,464.1,95.4,464.3,95.5L464.3,95.5z"/>
	</g>
	<g>
		<path class="st0" d="M465.2,95c1.1,0.8,2.4,1.6,3.7,2.1c0.3,0.1,0.5-0.2,0.2-0.4c-1.2-0.7-2.5-1.4-3.8-2
			C465.2,94.6,465,94.9,465.2,95L465.2,95z"/>
	</g>
	<g>
		<path class="st0" d="M465.9,93.9c1.2,0.8,2.5,1.6,3.8,2.3c0.3,0.1,0.5-0.2,0.2-0.4c-1.3-0.7-2.6-1.4-3.9-2.2
			C465.9,93.6,465.7,93.8,465.9,93.9L465.9,93.9z"/>
	</g>
	<g>
		<path class="st0" d="M466.1,92.8c1.4,0.8,2.9,1.5,4.5,2.1c0.3,0.1,0.4-0.4,0.1-0.5c-1.5-0.6-2.9-1.2-4.4-1.9
			C466.1,92.4,465.9,92.7,466.1,92.8L466.1,92.8z"/>
	</g>
	<g>
		<path class="st0" d="M466.8,91.9c0.1-0.2,3.5,1.6,3.9,1.7c0.3,0.1,0.4-0.3,0.2-0.5c-1-0.5-2.1-0.9-3.1-1.3c-0.3-0.1-1-0.6-1.2-0.1
			C466.5,92,466.7,92.1,466.8,91.9L466.8,91.9z"/>
	</g>
	<g>
		<path class="st0" d="M467.1,90.6c1.6,0.8,3.3,1.3,5,1.9c0.3,0.1,0.5-0.4,0.2-0.6c-0.2-0.1-0.4-0.3-0.6-0.4
			c-0.3-0.2-0.5,0.3-0.3,0.5c0.2,0.1,0.4,0.3,0.6,0.4c0.1-0.2,0.2-0.4,0.2-0.6c-1.7-0.5-3.3-1.1-5-1.7
			C467,90.2,466.8,90.5,467.1,90.6L467.1,90.6z"/>
	</g>
	<g>
		<path class="st0" d="M467.2,89c0.8,0,1.7,0.6,2.5,1c0.6,0.2,1.2,0.5,1.8,0.6c0.3,0.1,0.5-0.4,0.1-0.5c-0.9-0.4-1.8-0.6-2.7-1
			c-0.6-0.3-1.1-0.6-1.8-0.5C466.9,88.6,466.9,89,467.2,89L467.2,89z"/>
	</g>
	<g>
		<path class="st0" d="M466.8,87.2c1.3,0.5,2.6,1.1,3.9,1.4c0.2,0,0.3-0.2,0.1-0.3c-1.3-0.6-2.7-0.9-4-1.4
			C466.7,86.8,466.7,87.1,466.8,87.2L466.8,87.2z"/>
	</g>
	<g>
		<path class="st0" d="M466.5,85.9c1,0.4,2.1,0.7,3.1,1.1c0.3,0.1,0.4-0.3,0.1-0.4c-1-0.3-2.1-0.6-3.1-0.9
			C466.4,85.5,466.3,85.8,466.5,85.9L466.5,85.9z"/>
	</g>
	<g>
		<path class="st0" d="M458,88.1c1.4-2.4,3.3-4.1,5.8-5.2c0.2-0.1,0.1-0.4-0.1-0.4c-2.6,0.9-4.8,2.9-5.9,5.4
			C457.7,88.1,457.9,88.2,458,88.1L458,88.1z"/>
	</g>
	<g>
		<path class="st0" d="M463.3,100.4c2.5,1.1,5.2,1.1,7.6,0c0.2-0.1,0-0.3-0.2-0.3c-2.4,1.1-5,1.1-7.4,0.1
			C463.3,100.3,463.3,100.4,463.3,100.4L463.3,100.4z"/>
	</g>
	<g>
		<path class="st0" d="M173.7,68.2c-3.2-5.1-7-9.7-11.2-14c-0.1-0.1-0.2,0-0.1,0.1c4.1,4.3,7.8,9.1,11.2,14
			C173.6,68.4,173.8,68.3,173.7,68.2L173.7,68.2z"/>
	</g>
	<g>
		<path class="st0" d="M143.6,43.6c4.4,1.2,9.8-0.3,13.4,3.1c0.2,0.2,1.1,1,1.1,1.3c-0.2,0.8-1.6,0.3-2,0.2c-1.1-0.4-2.1-0.8-3.2-1
			c-1.9-0.4-3.8-0.3-5.7,0.2c-0.2,0.1-0.1,0.4,0.1,0.4c2.3-0.5,4.7-0.6,7.1,0.1c1.5,0.5,2.7,1.3,4.2,0.7c0.1,0,0.2-0.1,0.1-0.3
			c-2.4-5.6-10.3-4.1-15-4.8C143.5,43.4,143.5,43.6,143.6,43.6L143.6,43.6z"/>
	</g>
	<g>
		<path class="st0" d="M145.2,111.6c4,1.5,8.3,0.5,11.3-2.4c0.2-0.2-0.1-0.4-0.2-0.2C153.3,111.8,149.1,112.8,145.2,111.6
			C145.2,111.6,145.2,111.6,145.2,111.6L145.2,111.6z"/>
	</g>
	<g>
		<path class="st0" d="M155.5,104.1c-0.9-2.9-3.2-5-6.2-5.7c-0.2,0-0.3,0.3-0.1,0.3c2.8,0.6,5.2,2.6,6,5.4
			C155.3,104.3,155.5,104.3,155.5,104.1L155.5,104.1z"/>
	</g>
	<g>
		<path class="st0" d="M149.6,87.9c2.2-0.4,4.3-1.4,5.9-3.1c0.1-0.1-0.1-0.3-0.2-0.2C153.7,86.3,151.8,87.4,149.6,87.9
			C149.5,87.8,149.5,87.9,149.6,87.9L149.6,87.9z"/>
	</g>
	<g>
		<path class="st0" d="M142.2,131.5c2.9-1.6,3.6-6,1.3-8.4c-0.1-0.2-0.4,0.1-0.3,0.2c1.8,2.6,1.5,6.1-1.1,8
			C142,131.4,142.1,131.6,142.2,131.5L142.2,131.5z"/>
	</g>
	<g>
		<path class="st0" d="M142.9,63.3c2.6-3.2,1.9-7.6-1.5-9.9c-0.3-0.2-0.6,0.3-0.3,0.5c3.2,2.1,3.8,6.2,1.5,9.2
			C142.5,63.3,142.8,63.5,142.9,63.3L142.9,63.3z"/>
	</g>
	<g>
		<path class="st0" d="M174.1,118.5c-2.7-2.9-5.1-6-7.3-9.3c-0.1-0.2-0.4,0-0.3,0.2c2.1,3.4,4.6,6.5,7.4,9.3
			C174.1,118.8,174.3,118.6,174.1,118.5L174.1,118.5z"/>
	</g>
	<g>
		<path class="st0" d="M165.3,96.3c-0.6-2.6-0.9-5.3-0.5-8c0.2-1.2,0.4-2.4,0.8-3.6c0.5-1.4,1.3-2.6,1.8-3.9
			c0.3-0.8,0.4-2.1-0.5-2.6c-0.8-0.5-1.5,0-1.8,0.7c-0.1,0.2,0.3,0.4,0.4,0.2c1.4,0.8,1.7,1.7,1,2.6c-0.2,0.4-0.4,0.7-0.5,1.1
			c-0.2,0.4-0.3,0.8-0.5,1.2c-0.5,1.4-0.8,2.8-1,4.3c-0.3,2.7-0.1,5.5,0.7,8.1C165.1,96.5,165.3,96.4,165.3,96.3L165.3,96.3z"/>
	</g>
	<g>
		<path class="st0" d="M179,88.9c0.7-2.7,2.1-4.9,4.4-6.4c0.2-0.1,0-0.4-0.2-0.3c-2.3,1.5-4,3.9-4.4,6.6C178.8,88.9,179,89,179,88.9
			L179,88.9z"/>
	</g>
	<g>
		<path class="st0" d="M190.2,82.5c5.4,3,11.2,5.3,17.3,6.4c0.2,0,0.3-0.2,0.1-0.3C201.6,87.3,195.7,85.3,190.2,82.5
			C190.2,82.4,190.2,82.5,190.2,82.5L190.2,82.5z"/>
	</g>
	<g>
		<path class="st0" d="M190.7,107.6c3.5-1.6,7.2-2.8,11-3.5c2.5-0.5,5.8-0.2,7.6-2.3c0.1-0.1,0.1-0.3-0.1-0.4
			c-1.5-0.3-2.9-0.2-4.3,0.3c-0.2,0.1-0.1,0.3,0.1,0.3c0.6-0.1,2.4-0.7,3-0.3c1,0.6-1.3,1.1-1.8,1.3c-1.7,0.4-3.5,0.5-5.2,0.8
			C197.3,104.5,193.9,105.8,190.7,107.6C190.6,107.5,190.6,107.6,190.7,107.6L190.7,107.6z"/>
	</g>
	<g>
		<path class="st0" d="M61.8,115.7c1.4,1.3,2.9,2.4,4.5,3.3c0.2,0.1,0.3-0.2,0.2-0.3c-1.6-0.9-3.1-2-4.4-3.3
			C61.8,115.3,61.6,115.5,61.8,115.7L61.8,115.7z"/>
	</g>
	<g>
		<path class="st0" d="M63.8,113.6c2.6,2.5,5.5,4.5,8.8,6c0.2,0.1,0.4-0.2,0.2-0.3c-3.3-1.4-6.2-3.4-8.8-5.9
			C63.9,113.2,63.7,113.4,63.8,113.6L63.8,113.6z"/>
	</g>
	<g>
		<path class="st0" d="M67.6,112.5c3.3,3,7,5.7,10.7,8.2c0.2,0.2,0.4-0.2,0.2-0.4c-3.7-2.6-7.2-5.3-10.8-8
			C67.6,112.3,67.5,112.4,67.6,112.5L67.6,112.5z"/>
	</g>
	<g>
		<path class="st0" d="M72.9,112.6c2.5,2.3,5.1,4.5,7.8,6.5c0.2,0.1,0.4-0.2,0.2-0.3c-2.7-2.1-5.3-4.2-7.8-6.4
			C73,112.2,72.7,112.4,72.9,112.6L72.9,112.6z"/>
	</g>
	<g>
		<path class="st0" d="M78,113.1c2.2,2,4.7,3.7,7.3,5.1c0.2,0.1,0.3-0.2,0.2-0.3c-2.6-1.4-5-3.1-7.3-5C78.1,112.8,77.9,113,78,113.1
			L78,113.1z"/>
	</g>
	<g>
		<path class="st0" d="M59.2,92.9c1.4,1.9,3.1,3.6,5.1,5c0.2,0.1,0.4-0.2,0.2-0.3c-1.9-1.3-3.6-2.9-5-4.8
			C59.4,92.6,59.1,92.7,59.2,92.9L59.2,92.9z"/>
	</g>
	<g>
		<path class="st0" d="M60.1,89.4c3.8,3.9,7.9,7.5,12.2,10.9c0.2,0.2,0.5-0.1,0.3-0.3c-4.3-3.4-8.4-7-12.2-10.9
			C60.2,88.8,59.9,89.2,60.1,89.4L60.1,89.4z"/>
	</g>
	<g>
		<path class="st0" d="M63.5,87.4c4.2,3.9,8.6,7.6,13.1,11.1c0.2,0.2,0.6-0.1,0.3-0.3c-4.5-3.5-8.9-7.2-13.1-11.1
			C63.6,86.9,63.3,87.2,63.5,87.4L63.5,87.4z"/>
	</g>
	<g>
		<path class="st0" d="M70.5,88.4c3.4,2.6,7,5.1,10.7,7.2c0.2,0.1,0.3-0.2,0.2-0.3c-3.7-2.3-7.3-4.6-10.7-7.3
			C70.5,88,70.3,88.3,70.5,88.4L70.5,88.4z"/>
	</g>
	<g>
		<path class="st0" d="M77.9,89c2.8,1.8,5.5,3.7,8,5.7c0.3,0.2,0.6-0.2,0.4-0.4c-2.6-2.1-5.3-4-8.2-5.6C77.9,88.6,77.7,88.9,77.9,89
			L77.9,89z"/>
	</g>
	<g>
		<path class="st0" d="M59,71c1,1.4,2.4,2.7,4,3.4c0.2,0.1,0.4-0.2,0.2-0.3c-1.5-0.9-2.8-1.9-3.9-3.3C59.2,70.7,58.9,70.9,59,71
			L59,71z"/>
	</g>
	<g>
		<path class="st0" d="M61,68.1c2.1,2.4,4.4,4.7,6.9,6.8c0.1,0.1,0.2-0.1,0.1-0.1C65.5,72.7,63.2,70.4,61,68.1
			C61,68,60.9,68.1,61,68.1L61,68.1z"/>
	</g>
	<g>
		<path class="st0" d="M62,65.5c3.9,2.8,7.8,5.7,11.7,8.5c0.2,0.1,0.4-0.2,0.2-0.3c-3.8-2.9-7.8-5.7-11.7-8.4
			C62,65.2,61.9,65.4,62,65.5L62,65.5z"/>
	</g>
	<g>
		<path class="st0" d="M69.2,66.3c3.8,3,7.6,6,11.5,8.8c0.1,0.1,0.3-0.1,0.1-0.2c-3.8-2.9-7.6-5.8-11.4-8.8
			C69.2,66,69,66.2,69.2,66.3L69.2,66.3z"/>
	</g>
	<g>
		<path class="st0" d="M76.8,65.5c3,2.2,5.8,4.7,8.5,7.3c0.1,0.1,0.3-0.1,0.2-0.2c-2.7-2.6-5.6-5.1-8.6-7.3
			C76.7,65.2,76.6,65.4,76.8,65.5L76.8,65.5z"/>
	</g>
	<g>
		<path class="st0" d="M83.5,66.1c1.6,1.2,3.1,2.6,4.5,4c0.1,0.1,0.2,0,0.1-0.1C86.7,68.5,85.2,67.1,83.5,66.1
			C83.5,65.9,83.4,66,83.5,66.1L83.5,66.1z"/>
	</g>
	<g>
		<path class="st0" d="M37.2,135.2c-3-5.5-2.7-11.9-2.7-17.9c0-0.2-0.4-0.2-0.4,0C33.8,123.4,34,129.7,37.2,135.2
			C37.1,135.3,37.2,135.2,37.2,135.2L37.2,135.2z"/>
	</g>
	<g>
		<path class="st0" d="M33.4,109c0.9-7.2,1.2-14.5,0.9-21.7c0-0.3-0.4-0.3-0.4,0c0,7.3-0.2,14.5-0.7,21.7
			C33.2,109.1,33.3,109.1,33.4,109L33.4,109z"/>
	</g>
	<g>
		<path class="st0" d="M33.5,82.4c0.4-5.4,0.7-10.7,1.1-16.1c0.3-5.1,0.1-10.7,2.5-15.4c0.1-0.2-0.2-0.4-0.3-0.2
			c-2.3,4.3-2.1,9.4-2.4,14.2C34,70.7,33.7,76.5,33.5,82.4C33.4,82.4,33.5,82.4,33.5,82.4L33.5,82.4z"/>
	</g>
	<g>
		<path class="st0" d="M39,119.2c0-1.8,0-3.6,0.1-5.4c0-0.5-0.2-1.9,0.1-2.3c0.1-0.1,0.4,1,0.4,1.2c0.1,0.7,0.1,1.1-0.1,1.8
			c0,0.1,0.2,0.2,0.2,0.1c0.4-1.3,0.2-2.6-0.6-3.7c-0.1-0.1-0.3-0.1-0.3,0.1c-0.2,2.7-0.1,5.5,0,8.2C38.9,119.2,39,119.2,39,119.2
			L39,119.2z"/>
	</g>
	<g>
		<path class="st0" d="M38,84.8c0.3,0.9,0.5,1.8,0.8,2.7c0,0.1,0.2,0.1,0.2,0c0.6-3,1-6.1,1.1-9.2c0-0.2-0.3-0.2-0.3,0
			c-0.1,1.8-0.2,3.5-0.4,5.3c0,0-0.5,3.1-0.5,3.1c-0.3-0.1-0.6-1.6-0.7-2C38.2,84.7,38,84.7,38,84.8L38,84.8z"/>
	</g>
	<g>
		<path class="st0" d="M53.1,144.6c3.6,0.6,7.2,0.9,10.8,0.9c0.1,0,0.1-0.2,0-0.2C60.3,145.4,56.7,145.2,53.1,144.6
			C53.1,144.6,53.1,144.6,53.1,144.6L53.1,144.6z"/>
	</g>
	<g>
		<path class="st0" d="M79.2,146c4.8,0.1,9.7,0.2,14.5,0.2c2.3,0,4.6,0.1,6.8,0c1.2-0.1,2.3-0.2,3.2-1.1c0.1-0.1,0.1-0.3,0-0.3
			c-0.6-0.4-1.2-0.6-1.9-0.8c-0.2,0-0.3,0.3-0.1,0.3c0.2,0.1,1.3,0.3,1.4,0.5c0.2,0.6-1.2,0.8-1.6,0.9c-0.8,0.1-1.7,0.1-2.6,0.1
			c-2.2,0-4.5,0-6.7,0C87.9,145.9,83.5,145.9,79.2,146C79.2,146,79.2,146,79.2,146L79.2,146z"/>
	</g>
	<g>
		<path class="st0" d="M91.2,133c3.2,1.1,6.9,0.2,10.2,0c3.8-0.2,7.6-0.2,11.4,0.1c0.1,0,0.1-0.2,0-0.2c-3.5-0.2-7.1-0.4-10.6-0.3
			c-3.5,0.1-7.5,1.1-10.9,0.1C91.1,132.8,91.1,133,91.2,133L91.2,133z"/>
	</g>
	<g>
		<path class="st0" d="M91.6,121.1c6.2,0.3,12.6,0,18.8-0.3c0.1,0,0.1-0.2,0-0.1c-6.3,0.3-12.5,0.2-18.8,0.4
			C91.5,121,91.5,121.1,91.6,121.1L91.6,121.1z"/>
	</g>
	<g>
		<path class="st0" d="M90,88.1c1.9,0,3.7,0,5.5,0.3c0.8,0.1,2,0.1,2.7,0.5c0.8,0,0.9,0.1,0.3,0.5c-0.7,0.2-1.4,0.2-2.1,0.1
			c-0.1,0-0.2,0.2-0.1,0.2c1.2,0.2,2.2,0,3.4-0.5c0.1-0.1,0.1-0.3,0-0.3c-3.2-0.9-6.4-1.3-9.7-1C89.8,87.9,89.8,88.1,90,88.1
			L90,88.1z"/>
	</g>
	<g>
		<path class="st0" d="M107,96.8c-0.7-1.1-0.1-1.8,0.7-2.5c0.1-0.1,0.2-0.2,0.3-0.3c0.2-0.3,0.3-0.6,0.3-0.9
			c-0.1-1.3-1.3-2.1-1.7-3.2c-0.1-0.2-0.3-0.1-0.3,0.1c0.2,0.5,0.4,0.9,0.8,1.4c0.6,0.8,0.7,0.8,0.5,1.9c-0.3,1.7,0,0.5-0.6,1.4
			c-0.5,0.7-0.5,1.5,0,2.2C106.9,96.9,107.1,96.9,107,96.8L107,96.8z"/>
	</g>
	<g>
		<path class="st0" d="M93.7,72.3c2.8,0.3,5.5,0.6,8.3,0.8c0.2,0,0.2-0.3,0-0.3c-2.8-0.3-5.6-0.5-8.3-0.7
			C93.6,72.1,93.6,72.3,93.7,72.3L93.7,72.3z"/>
	</g>
	<g>
		<path class="st0" d="M103.4,66.8c4-0.8,7.9-0.7,11.8,0.4c0.2,0.1,0.3-0.3,0.1-0.3C111.3,65.8,107.3,65.8,103.4,66.8
			C103.3,66.7,103.3,66.8,103.4,66.8L103.4,66.8z"/>
	</g>
	<g>
		<path class="st0" d="M74.3,40.6c12.2,1.5,24.8,2,37.1,1.7c0.2,0,0.2-0.3,0-0.3c-12.4,0-24.7-0.6-37.1-1.5
			C74.2,40.4,74.2,40.5,74.3,40.6L74.3,40.6z"/>
	</g>
	<g>
		<path class="st0" d="M147.4,144c6.1-0.3,11.9-3,16.2-7.3c0.2-0.2-0.1-0.6-0.3-0.3c-4.4,4.3-9.8,6.7-15.9,7.3
			C147.2,143.8,147.2,144,147.4,144L147.4,144z"/>
	</g>
	<g>
		<path class="st0" d="M165.8,133.8c1.7-1.1,3.1-2.5,4-4.3c1.1-2.2,1.3-4.7,2.5-6.8c0.1-0.2-0.2-0.4-0.3-0.2c-1,1.6-1.3,3.4-1.9,5.2
			c-0.8,2.4-2.3,4.4-4.4,5.9C165.5,133.7,165.6,133.9,165.8,133.8L165.8,133.8z"/>
	</g>
	<g>
		<path class="st0" d="M222.7,100.8c11.2-0.1,22.4-0.2,33.6,0c11.2,0.3,22.4,1,33.6,1.5c0.3,0,0.3-0.4,0-0.4
			c-11.1-1-22.4-1.3-33.6-1.5C245.2,100.3,233.9,100.2,222.7,100.8C222.7,100.8,222.7,100.8,222.7,100.8L222.7,100.8z"/>
	</g>
	<g>
		<path class="st0" d="M256.9,87.8c11.6-1,23.2-2.2,34.8-3.1c11.6-0.9,23.2-1.4,34.8-2c0.2,0,0.2-0.3,0-0.3
			c-11.6,0.4-23.2,1.2-34.8,2c-11.6,0.9-23.2,1.8-34.8,3.2C256.8,87.7,256.8,87.8,256.9,87.8L256.9,87.8z"/>
	</g>
	<g>
		<path class="st0" d="M345,98.3c5.3,0.9,10.6,1.1,15.9,0.5c0.1,0,0.1-0.1,0.1-0.1c-3.8-5.1-11.3-2.2-16.4-4.1c0,0-0.1,0.1,0,0.1
			c4.6,1.7,10-0.2,14.4,2.4c0.5,0.3,1.8,0.9,1.3,1.7c-0.1,0.2-1.6,0.1-1.8,0.2c-1.3,0.1-2.7,0.1-4,0.1C351.2,99,348.1,98.7,345,98.3
			C344.9,98.2,344.9,98.3,345,98.3L345,98.3z"/>
	</g>
	<g>
		<path class="st0" d="M375.2,105.1c12-0.7,24.1,0.1,36.1,0.7c12.1,0.7,24.3,1.4,36.4,2c0.2,0,0.2-0.2,0-0.3
			c-12.1-0.8-24.3-1.4-36.4-2.1C399.3,104.8,387.3,104,375.2,105.1C375.2,105,375.2,105.1,375.2,105.1L375.2,105.1z"/>
	</g>
	<g>
		<path class="st0" d="M431.3,94.4c1-0.3,4.2-0.5,4.5-2c0.1-0.8-0.6-1.2-1.2-1.4c-1.8-0.7-4.2-0.3-6.1-0.3c-2.7,0-5.7-0.5-7.3-3
			c-0.1-0.1-0.2,0-0.2,0.1c1.2,1.9,3.1,2.7,5.3,3c1.7,0.2,3.3,0,5,0c0.5,0,0.9,0,1.4,0c1.7-0.2,2.2,0.6,1.5,2.6
			C433.7,93.9,431.9,94.1,431.3,94.4C431.2,94.3,431.2,94.4,431.3,94.4L431.3,94.4z"/>
	</g>
	<g>
		<path class="st0" d="M449.3,103.7c2.1-0.2,4.2-0.4,6.3-0.6c0.2,0,0.2-0.4,0-0.4c-2.1,0.2-4.2,0.4-6.3,0.6
			C449,103.3,449,103.7,449.3,103.7L449.3,103.7z"/>
	</g>
	<g>
		<path class="st0" d="M363.2,88.1c6,0.5,11.8-0.3,17.7-0.9c2.9-0.3,5.9-0.6,8.8-0.6c1.3,0,2.7,0.1,4,0.2c0.9,0.1,1.7,0.2,2.6,0.4
			c0.4,0.1,0.9,0.2,1.3,0.3c0.7,0,1,0.3,1,1c-0.1,0-0.1,0.1,0,0.1c1.1,0.4,0.6-0.9,0-1.3c-1.5-0.7-3.6-0.8-5.2-1
			c-2-0.2-4-0.2-6.1-0.1c-8.1,0.4-16.1,2.4-24.2,1.7C363.1,88,363.1,88.1,363.2,88.1L363.2,88.1z"/>
	</g>
	<g>
		<path class="st0" d="M299.9,97c6.8,0,13.7,0,20.5-0.1c1.6,0,3.2,0,4.9,0c0.9,0,2.1,0.1,2.8-0.5c0.7-0.6,0.6-1.7-0.2-2
			c-0.2-0.1-0.5,0.3-0.2,0.4c-0.4,0.6-0.7,1.2-1.1,1.8c-0.3,0-0.6,0-0.9,0c-0.5,0-1,0-1.5,0c-1.1,0-2.2,0-3.4,0
			c-2.4,0-4.7,0.1-7.1,0.1C309.2,96.8,304.5,96.9,299.9,97C299.9,97,299.9,97,299.9,97L299.9,97z"/>
	</g>
	<g>
		<path class="st0" d="M146,68.7c2.5-1.3,4.2-3.8,4.3-6.6c0-0.2-0.3-0.2-0.3,0c-0.2,2.8-1.7,5.2-4.1,6.5
			C145.8,68.7,145.9,68.8,146,68.7L146,68.7z"/>
	</g>
</g>
</svg>
