<?xml version="1.0" encoding="utf-8"?>
<!-- Generator: Adobe Illustrator 23.0.1, SVG Export Plug-In . SVG Version: 6.00 Build 0)  -->
<!DOCTYPE svg PUBLIC "-//W3C//DTD SVG 1.1//EN" "http://www.w3.org/Graphics/SVG/1.1/DTD/svg11.dtd" [
	<!ENTITY ns_extend "http://ns.adobe.com/Extensibility/1.0/">
	<!ENTITY ns_ai "http://ns.adobe.com/AdobeIllustrator/10.0/">
	<!ENTITY ns_graphs "http://ns.adobe.com/Graphs/1.0/">
	<!ENTITY ns_vars "http://ns.adobe.com/Variables/1.0/">
	<!ENTITY ns_imrep "http://ns.adobe.com/ImageReplacement/1.0/">
	<!ENTITY ns_sfw "http://ns.adobe.com/SaveForWeb/1.0/">
	<!ENTITY ns_custom "http://ns.adobe.com/GenericCustomNamespace/1.0/">
	<!ENTITY ns_adobe_xpath "http://ns.adobe.com/XPath/1.0/">
]>
<svg version="1.1" id="Layer_1" xmlns:x="&ns_extend;" xmlns:i="&ns_ai;" xmlns:graph="&ns_graphs;"
	 xmlns="http://www.w3.org/2000/svg" xmlns:xlink="http://www.w3.org/1999/xlink" x="0px" y="0px" viewBox="0 0 500 350"
	 style="enable-background:new 0 0 500 350;" xml:space="preserve">
<style type="text/css">
	.st0{fill:#3C2517;}
</style>
<metadata>
	<sfw  xmlns="&ns_sfw;">
		<slices></slices>
		<sliceSourceBounds  bottomLeftOrigin="true" height="305.5" width="412.6" x="34.5" y="-334.4"></sliceSourceBounds>
	</sfw>
</metadata>
<g>
	<g>
		<path class="st0" d="M159.7,302.9c36.3-17.7,71.7-37.3,106.2-58.4c8.7-5.3,17.3-10.7,25.9-16.3c5.8-3.7,12.3-6.7,17.6-11
			c4.2-3.4,5.4-7.2,4.5-12.4c-1.3-6.7-4.3-12.9-6.3-19.3c-1.3-4.4-2.7-9.3-1.9-13.9c0.8-4.4,3.7-7.9,6.9-10.7
			c7.1-6.3,15.9-11.2,24.1-16.1c16.2-9.7,32.8-18.5,48.9-28.3c7.2-4.4,14.5-8.9,21.2-14.1c3-2.3,5.9-4.8,8.6-7.5
			c3-3,5.6-7.5,9.7-9.2c4.2-1.7,9.6-2.3,14.1-2.6c3.7-0.2,8,1,11.5-0.4c6.3-2.4,8.8-11.7,10.7-17.4c4.8-14,4.3-31.1-11.1-37.9
			c-5.6-2.5-12.1-2.9-17.9-0.6c-4,1.6-7.4,4.2-10.8,6.8c-4.2,3.2-8.4,6.3-12.6,9.5C393,55,377,67.4,360.7,79.3
			c-15.4,11.3-31.2,22.1-46.1,34.1c-15.9,12.8-31.5,25.9-47.9,38c-15.8,11.7-31.9,23.1-47.6,34.8c-31.7,23.7-63.4,47.4-95,71.1
			c-15.2,11.4-31.2,22.6-44.8,35.9c-7.2,7-13.9,14.4-20.5,21.9c-2.1,2.4-5.7,5.5-7,8.6c-0.5,1.2-0.4,2.3,0.4,3.4
			c2.3,2.8,7.8,3,11.1,3.4c6.6,0.7,13.3,0,19.9-0.8c18-2.1,35.1-7.4,51.7-14.5c8.5-3.6,16.8-7.6,25.1-11.7c1.4-0.7,0.2-2.7-1.2-2
			c-16.3,8.1-32.9,15.8-50.5,20.9c-8.7,2.5-17.6,4.2-26.6,5.2c-6,0.7-12.2,1.3-18.2,0.7c-2.3-0.2-4.6-0.5-6.8-1.2
			c-0.7-0.2-2.3-0.5-2.7-1.2c-0.9-1.5,2-4,3-5.2c5.9-7.1,12.3-13.9,18.7-20.6c13-13.5,28.3-24.6,43.2-36
			c29.9-22.7,60.1-45,90.2-67.5c29.4-22,59.9-42.8,88.4-66.1c14.6-11.9,29.2-23.7,44.6-34.7c15.3-11,30.5-22.2,45.5-33.6
			c7.5-5.7,15-11.4,22.6-17c3.6-2.7,7.2-5.4,10.8-8.1c3.6-2.7,7.2-5.7,11.3-7.6c7.1-3.2,15.6-1.6,21.7,3.2c7.4,5.9,8.8,15.5,7,24.3
			c-0.8,3.9-2.1,7.8-3.6,11.5c-1.6,4.2-3.7,10.9-8.6,12.2c-3.5,0.9-7.6-0.2-11.2,0.1c-4.1,0.4-8.3,1-12.3,2.2
			c-3.2,0.9-5.3,2.9-7.4,5.4c-2.6,3.1-5.5,6-8.5,8.7c-6.3,5.5-13.4,10.1-20.5,14.5c-14.8,9.2-30,17.6-45.1,26.2
			c-7.9,4.5-15.7,9.2-23.3,14.3c-5.8,3.9-12.4,8.1-15.7,14.5c-6.1,12,3.7,26,6.4,37.7c0.7,2.9,1.2,5.9-0.6,8.5
			c-2,2.9-5.6,4.9-8.6,6.6c-6.7,3.9-13.2,8-19.7,12.2c-32.1,20.5-64.9,39.8-98.6,57.7c-8.2,4.3-16.4,8.6-24.6,12.8
			C158.6,302.2,159.1,303.2,159.7,302.9z"/>
	</g>
	<g>
		<path class="st0" d="M298.1,127.9c2.4,5.7,6.4,11.1,9.9,16.2c2.6,3.8,5.6,9.4,10.4,10.8c1,0.3,1.7-1.3,0.7-1.7
			c-5.2-2.3-8.4-8.4-11.6-12.8c-3-4.2-5.6-8.8-9-12.7C298.4,127.4,297.9,127.7,298.1,127.9L298.1,127.9z"/>
	</g>
	<g>
		<path class="st0" d="M276.6,146.1c15.6,16.4,22.2,37.5,30.3,58.2c0.1,0.3,0.6,0.2,0.5-0.2c-5.5-21.2-13.7-43.6-30.4-58.5
			C276.7,145.4,276.3,145.8,276.6,146.1L276.6,146.1z"/>
	</g>
	<g>
		<path class="st0" d="M299.1,173.6c-1.5-8.3,1.1-16.3,7.3-22c0.2-0.2-0.1-0.6-0.4-0.4c-6.7,5.4-9.3,14.2-7.4,22.5
			C298.7,174,299.1,173.9,299.1,173.6L299.1,173.6z"/>
	</g>
	<g>
		<path class="st0" d="M304.6,189.8c-1.6-7.1-3.8-14.9-2.9-22.2c1-7.8,7.7-11.9,13.6-15.9c0.6-0.4,0.1-1.3-0.5-0.9
			c-5.9,3.3-12,7.8-13.8,14.6c-0.9,3.5-0.2,7.2,0.2,10.7c0.6,4.6,1.5,9.3,3,13.7C304.3,190.1,304.6,190.1,304.6,189.8L304.6,189.8z"
			/>
	</g>
	<g>
		<path class="st0" d="M281.1,150.2c7.4-4.6,14.6-9.9,21.1-15.7c0.5-0.4-0.2-1.1-0.7-0.7c-6.8,5.4-13.6,11-20.5,16.3
			C281,150.1,281,150.2,281.1,150.2L281.1,150.2z"/>
	</g>
	<g>
		<path class="st0" d="M53.8,326.5c10.8-0.5,21.5-2.3,31.9-5c0.6-0.2,0.4-1.1-0.3-1c-10.4,2.8-20.9,4.4-31.6,5.4
			C53.5,325.9,53.5,326.5,53.8,326.5L53.8,326.5z"/>
	</g>
	<g>
		<path class="st0" d="M90.3,319.2c12.1-3,24-6.8,35.6-11.2c0.5-0.2,0.3-0.9-0.2-0.8c-11.8,4.1-23.6,7.9-35.5,11.5
			C89.9,318.8,90,319.2,90.3,319.2L90.3,319.2z"/>
	</g>
	<g>
		<path class="st0" d="M133.8,303.4c24.4-9.5,47-23.3,69.4-36.8c24.1-14.5,48.6-28.5,72.3-43.6c0.5-0.3,0.1-1.2-0.5-0.9
			c-47.1,26.8-91.7,58.7-141.4,80.7C133.4,303,133.6,303.5,133.8,303.4L133.8,303.4z"/>
	</g>
	<g>
		<path class="st0" d="M282.2,217.8c7-3.8,13.8-7.8,20.3-12.4c0.5-0.3,0-1.1-0.4-0.8c-6.6,4.4-13.2,8.9-20,13
			C281.9,217.7,282,217.9,282.2,217.8L282.2,217.8z"/>
	</g>
	<g>
		<path class="st0" d="M57.4,325.7c1.5,1,3,2,4.5,2.9c0.2,0.1,0.4-0.2,0.2-0.4c-1.5-1-3-1.9-4.6-2.8
			C57.3,325.4,57.2,325.6,57.4,325.7L57.4,325.7z"/>
	</g>
	<g>
		<path class="st0" d="M60.6,326.3c1.5,0.9,3,1.7,4.6,2.3c0.2,0.1,0.2-0.2,0.1-0.3c-1.6-0.6-3.1-1.4-4.6-2.2
			C60.6,326,60.5,326.2,60.6,326.3L60.6,326.3z"/>
	</g>
	<g>
		<path class="st0" d="M63.2,325.4c0.4,0.9,1.2,1.3,2,1.8c1.4,0.8,2.9,1.6,4.4,2.3c0.2,0.1,0.4-0.2,0.2-0.3
			c-1.1-0.6-2.2-1.1-3.3-1.7c-1-0.5-2.5-1.1-2.9-2.2C63.4,325.2,63.2,325.3,63.2,325.4L63.2,325.4z"/>
	</g>
	<g>
		<path class="st0" d="M65,324.9c2.6,1.8,5.2,3.4,8,4.8c0.2,0.1,0.4-0.2,0.2-0.3c-2.7-1.5-5.4-3-8-4.7C65,324.5,64.8,324.8,65,324.9
			L65,324.9z"/>
	</g>
	<g>
		<path class="st0" d="M68.4,324.8c2.1,1.6,4.3,2.9,6.7,3.9c0.3,0.1,0.4-0.3,0.1-0.4c-2.4-0.9-4.6-2.2-6.6-3.7
			C68.4,324.4,68.2,324.7,68.4,324.8L68.4,324.8z"/>
	</g>
	<g>
		<path class="st0" d="M70.7,324.6c2.8,1.9,5.7,3.5,8.9,4.5c0.3,0.1,0.4-0.3,0.1-0.4c-3.2-1.1-6.1-2.5-8.9-4.4
			C70.7,324.2,70.5,324.4,70.7,324.6L70.7,324.6z"/>
	</g>
	<g>
		<path class="st0" d="M73.9,323.5c2.6,2.1,5.5,3.8,8.7,4.9c0.4,0.1,0.6-0.5,0.2-0.6c-3.1-1.2-5.9-2.6-8.6-4.6
			C74,323,73.7,323.4,73.9,323.5L73.9,323.5z"/>
	</g>
	<g>
		<path class="st0" d="M77.7,323.4c2.7,1.7,5.7,2.8,8.5,4.1c0.2,0.1,0.4-0.2,0.2-0.3c-2.9-1.3-5.9-2.5-8.6-4
			C77.7,323.1,77.5,323.4,77.7,323.4L77.7,323.4z"/>
	</g>
	<g>
		<path class="st0" d="M81.1,322.7c2.6,1.6,5.2,3.1,8,4.4c0.3,0.1,0.5-0.3,0.3-0.4c-2.8-1.3-5.4-2.7-8.1-4.2
			C81.1,322.2,80.9,322.5,81.1,322.7L81.1,322.7z"/>
	</g>
	<g>
		<path class="st0" d="M83.9,321.7c3,2.2,6.4,4,9.9,5.3c0.3,0.1,0.6-0.4,0.2-0.6c-3.5-1.5-6.7-3.2-9.9-5.1
			C83.9,321.1,83.7,321.5,83.9,321.7L83.9,321.7z"/>
	</g>
	<g>
		<path class="st0" d="M88,321c2.5,1.9,5.2,3.4,8,4.6c0.3,0.1,0.6-0.3,0.3-0.5c-2.9-1.2-5.5-2.8-8.1-4.5
			C87.9,320.5,87.7,320.9,88,321L88,321z"/>
	</g>
	<g>
		<path class="st0" d="M90.9,319.2c3.1,2.5,6.7,4.4,10.5,5.5c0.4,0.1,0.5-0.5,0.2-0.6c-3.8-1.3-7.2-3-10.5-5.2
			C91,318.8,90.8,319,90.9,319.2L90.9,319.2z"/>
	</g>
	<g>
		<path class="st0" d="M94.8,318.2c3.2,2.5,6.8,4.5,10.6,5.6c0.3,0.1,0.5-0.4,0.1-0.5c-3.8-1.4-7.2-3.1-10.5-5.4
			C94.9,317.7,94.6,318,94.8,318.2L94.8,318.2z"/>
	</g>
	<g>
		<path class="st0" d="M97.9,316.7c3.2,2.5,6.9,4.6,10.8,5.9c0.4,0.1,0.5-0.4,0.2-0.6c-3.9-1.5-7.4-3.3-10.7-5.7
			C97.9,316.2,97.7,316.5,97.9,316.7L97.9,316.7z"/>
	</g>
	<g>
		<path class="st0" d="M102.9,315.8c2.8,2.6,6.5,4.5,10.1,5.6c0.4,0.1,0.5-0.4,0.2-0.6c-3.7-1.3-6.8-3.1-10-5.3
			C102.9,315.4,102.7,315.7,102.9,315.8L102.9,315.8z"/>
	</g>
	<g>
		<path class="st0" d="M106.5,314.5c2.1,1.1,3.8,2.8,5.9,4c1.5,0.8,3.2,1.9,4.9,1.5c0.4-0.1,0.2-0.7-0.2-0.6
			c-2.1,0.3-4.7-1.5-6.4-2.6c-1.4-0.9-2.6-2-4.1-2.7C106.4,314.1,106.3,314.4,106.5,314.5L106.5,314.5z"/>
	</g>
	<g>
		<path class="st0" d="M110,313.3c2.5,2.8,6.8,4.6,10.4,5.5c0.4,0.1,0.6-0.5,0.2-0.6c-2-0.6-3.9-1.2-5.7-2.1
			C113.2,315.2,111.7,314.1,110,313.3C110,313.2,110,313.3,110,313.3L110,313.3z"/>
	</g>
	<g>
		<path class="st0" d="M113.4,312c3.1,2.7,6.8,4.8,10.7,6c0.4,0.1,0.6-0.5,0.2-0.6c-3.9-1.4-7.3-3.2-10.7-5.6
			C113.5,311.5,113.3,311.8,113.4,312L113.4,312z"/>
	</g>
	<g>
		<path class="st0" d="M117.7,310.8c3.3,2.4,6.7,4.6,10.4,6.3c0.3,0.2,0.6-0.3,0.3-0.5c-3.6-1.9-7.1-3.9-10.5-6.1
			C117.7,310.4,117.5,310.7,117.7,310.8L117.7,310.8z"/>
	</g>
	<g>
		<path class="st0" d="M120.7,309.9c2.7,2.6,6.5,4.7,10,5.9c0.4,0.1,0.6-0.4,0.3-0.6c-3.6-1.6-6.7-3.5-10.1-5.5
			C120.8,309.5,120.6,309.8,120.7,309.9L120.7,309.9z"/>
	</g>
	<g>
		<path class="st0" d="M124.3,308.3c2.6,2.6,5.8,4.6,9.4,5.7c0.3,0.1,0.4-0.4,0.1-0.5c-3.5-1.2-6.5-3-9.3-5.5
			C124.4,307.9,124.2,308.1,124.3,308.3L124.3,308.3z"/>
	</g>
	<g>
		<path class="st0" d="M128.4,307c2.3,2.5,5.6,4.6,9,5.5c0.4,0.1,0.5-0.4,0.2-0.6c-3.4-1.3-6.1-2.8-9-5.1
			C128.5,306.8,128.3,306.9,128.4,307L128.4,307z"/>
	</g>
	<g>
		<path class="st0" d="M131.4,305.2c3.1,2.5,6.9,4.5,10.7,5.5c0.3,0.1,0.4-0.4,0.1-0.5c-3.8-1.4-7.3-3-10.7-5.2
			C131.4,304.9,131.3,305.1,131.4,305.2L131.4,305.2z"/>
	</g>
	<g>
		<path class="st0" d="M134.8,303.6c2.9,2.5,6.5,4.3,10.1,5.5c0.3,0.1,0.5-0.4,0.1-0.5c-3.6-1.3-6.8-3.2-10.1-5.2
			C134.8,303.3,134.7,303.5,134.8,303.6L134.8,303.6z"/>
	</g>
	<g>
		<path class="st0" d="M138.7,301.5c3.3,2.8,7.1,5,11.2,6.4c0.4,0.1,0.5-0.4,0.2-0.6c-4-1.6-7.7-3.6-11.2-6
			C138.8,301.2,138.6,301.4,138.7,301.5L138.7,301.5z"/>
	</g>
	<g>
		<path class="st0" d="M142.4,299.7c0,0-0.1,0-0.1,0c0,0-0.1,0.1-0.1,0.1c-0.1,1,2.4,2.2,3.1,2.6c1.9,1.2,3.9,2.1,6.1,2.7
			c0.3,0.1,0.4-0.4,0.1-0.5c-1.7-0.6-3.3-1.2-4.9-2c-0.4-0.2-4.4-2.5-4.1-2.8C142.5,299.7,142.5,299.7,142.4,299.7L142.4,299.7z"/>
	</g>
	<g>
		<path class="st0" d="M145.9,297.8c2.5,3,6.2,5.1,10,5.9c0.3,0.1,0.5-0.4,0.1-0.5c-3.9-1-7-3-10-5.6
			C145.9,297.5,145.8,297.6,145.9,297.8L145.9,297.8z"/>
	</g>
	<g>
		<path class="st0" d="M150.8,296.1c2.9,2.2,6.2,4.3,9.7,5.4c0.3,0.1,0.5-0.4,0.2-0.5c-3.4-1.6-6.7-3.1-9.7-5.2
			C150.7,295.6,150.6,296,150.8,296.1L150.8,296.1z"/>
	</g>
	<g>
		<path class="st0" d="M154.2,293.7c3.6,2.5,7.6,4.9,11.7,6.3c0.3,0.1,0.5-0.4,0.2-0.5c-4-2-7.9-3.9-11.7-6.2
			C154.2,293.3,154,293.6,154.2,293.7L154.2,293.7z"/>
	</g>
	<g>
		<path class="st0" d="M159.3,291.4c3.3,2.5,7.4,4.3,11.5,5.2c0.3,0.1,0.5-0.4,0.1-0.5c-4.2-1-7.8-2.7-11.5-4.9
			C159.3,291.1,159.2,291.3,159.3,291.4L159.3,291.4z"/>
	</g>
	<g>
		<path class="st0" d="M164.6,288.9C164.6,288.8,164.5,288.8,164.6,288.9c-0.1-0.1-0.1-0.2-0.2-0.1c0,0,0,0-0.1,0
			c-0.1,0-0.2,0.1-0.1,0.3c0.7,1.2,2.9,2.2,4.1,2.9c1.8,1,3.6,1.9,5.5,2.6c0.4,0.1,0.5-0.5,0.2-0.6c-3.4-1.4-6.3-3.3-9.6-4.8
			C164.5,289.1,164.6,289,164.6,288.9L164.6,288.9z"/>
	</g>
	<g>
		<path class="st0" d="M167.3,286.8c1.5,1.7,3.9,2.7,6,3.6c2.2,1,4.4,1.9,6.7,2.5c0.4,0.1,0.5-0.5,0.2-0.6c-2.1-0.7-4.3-1.4-6.4-2.3
			c-2.1-0.9-4.6-1.8-6.3-3.5C167.4,286.4,167.2,286.7,167.3,286.8L167.3,286.8z"/>
	</g>
	<g>
		<path class="st0" d="M171.2,285.8c3.1,2.2,6.6,4,10.2,5.2c0.4,0.1,0.6-0.5,0.2-0.7c-3.5-1.4-6.8-3-10.1-4.9
			C171.1,285.2,170.9,285.6,171.2,285.8L171.2,285.8z"/>
	</g>
	<g>
		<path class="st0" d="M174.4,283.3c3.3,2.5,7,4.7,10.9,6.1c0.4,0.1,0.7-0.5,0.3-0.7c-3.8-1.7-7.4-3.6-11-5.9
			C174.3,282.7,174.1,283.1,174.4,283.3L174.4,283.3z"/>
	</g>
	<g>
		<path class="st0" d="M157.1,292.7c3.1,2.5,6.6,4.5,10.4,5.8c0.4,0.1,0.5-0.4,0.2-0.6c-3.7-1.4-7.1-3.3-10.3-5.6
			C157.2,292.3,156.9,292.6,157.1,292.7L157.1,292.7z"/>
	</g>
	<g>
		<path class="st0" d="M178,281.4c3.4,2.4,7.5,5,11.6,5.8c0.3,0.1,0.5-0.4,0.1-0.5c-4.1-1-8.1-3.2-11.6-5.5
			C178,281.1,177.9,281.3,178,281.4L178,281.4z"/>
	</g>
	<g>
		<path class="st0" d="M182.6,279.1c2.9,2.7,6.4,4.6,10.2,5.6c0.4,0.1,0.6-0.5,0.2-0.6c-3.8-1.1-7-2.8-10.1-5.2
			C182.7,278.7,182.4,278.9,182.6,279.1L182.6,279.1z"/>
	</g>
	<g>
		<path class="st0" d="M185.9,276.8c3.2,2.2,6.6,4.1,10.1,5.7c0.3,0.1,0.6-0.3,0.3-0.5c-3.5-1.7-6.8-3.5-10.2-5.5
			C185.9,276.4,185.7,276.7,185.9,276.8L185.9,276.8z"/>
	</g>
	<g>
		<path class="st0" d="M190.1,274.2c3.6,2.7,7.8,5.1,12.1,6.5c0.2,0.1,0.4-0.3,0.2-0.4c-4.1-2-8.1-4-12.1-6.4
			C190.1,273.8,189.9,274.1,190.1,274.2L190.1,274.2z"/>
	</g>
	<g>
		<path class="st0" d="M194.3,272c1.7,1.4,3.5,2.7,5.4,3.8c1.6,0.9,3.5,2.4,5.4,2.3c0.3,0,0.3-0.5,0-0.5c-2.1-0.2-4.2-1.8-6-2.8
			c-1.6-0.9-3.2-1.9-4.7-3C194.3,271.7,194.2,271.9,194.3,272L194.3,272z"/>
	</g>
	<g>
		<path class="st0" d="M197.6,269.7c1.6,1.7,3.8,3,5.7,4.3c1.7,1.2,3.5,2.2,5.7,2c0.3,0,0.3-0.4,0-0.4
			C204.4,275.6,201.5,271.3,197.6,269.7C197.6,269.6,197.5,269.7,197.6,269.7L197.6,269.7z"/>
	</g>
	<g>
		<path class="st0" d="M200.9,267.7c2,1.6,4.2,3,6.4,4.4c1.3,0.8,3.5,2.7,5.1,2.3c0.4-0.1,0.2-0.6-0.2-0.6c-1,0.2-2.4-0.9-3.2-1.3
			c-0.9-0.5-1.8-1-2.7-1.6c-1.8-1.1-3.6-2.2-5.3-3.4C201,267.4,200.8,267.6,200.9,267.7L200.9,267.7z"/>
	</g>
	<g>
		<path class="st0" d="M207.9,263.7c2,1.6,4.2,3,6.4,4.4c1.3,0.8,3.5,2.7,5.1,2.3c0.4-0.1,0.2-0.6-0.2-0.6c-1,0.2-2.4-0.9-3.2-1.3
			c-0.9-0.5-1.8-1-2.7-1.6c-1.8-1.1-3.6-2.2-5.3-3.4C208,263.3,207.8,263.5,207.9,263.7L207.9,263.7z"/>
	</g>
	<g>
		<path class="st0" d="M204.6,265.3c0.9,1.7,3.1,3,4.7,4c2,1.3,4.3,2.5,6.6,3.2c0.3,0.1,0.5-0.4,0.2-0.5c-1.9-0.9-3.9-1.7-5.7-2.7
			c-1.8-1.1-4.3-2.4-5.4-4.2C204.8,264.9,204.5,265.1,204.6,265.3L204.6,265.3z"/>
	</g>
	<g>
		<path class="st0" d="M211.1,261.6c3.7,2.8,7.8,5.1,12,7c0.3,0.2,0.6-0.3,0.3-0.5c-4.2-2-8.2-4.3-12.1-6.9
			C211.1,261.1,210.9,261.5,211.1,261.6L211.1,261.6z"/>
	</g>
	<g>
		<path class="st0" d="M214.9,259.4c3.2,3,7.2,5.3,11.4,6.6c0.4,0.1,0.6-0.5,0.2-0.7c-4.2-1.5-7.8-3.5-11.3-6.2
			C215,259,214.8,259.3,214.9,259.4L214.9,259.4z"/>
	</g>
	<g>
		<path class="st0" d="M218.9,257.3c3.1,2.7,6.6,5.1,10.5,6.7c0.4,0.2,0.7-0.4,0.3-0.6c-3.7-1.8-7.2-3.9-10.5-6.5
			C219,256.8,218.7,257.1,218.9,257.3L218.9,257.3z"/>
	</g>
	<g>
		<path class="st0" d="M222.4,255.3c3.2,3.2,7.4,5.5,11.5,7.2c0.4,0.2,0.8-0.4,0.4-0.6c-4-2.2-8-4-11.6-6.9
			C222.5,254.8,222.2,255.1,222.4,255.3L222.4,255.3z"/>
	</g>
	<g>
		<path class="st0" d="M225.9,252.8c3.1,2.8,6.8,5.5,10.7,7.2c0.4,0.2,0.7-0.4,0.4-0.6c-3.6-2.3-7.2-4.5-10.7-7
			C225.9,252.2,225.7,252.6,225.9,252.8L225.9,252.8z"/>
	</g>
	<g>
		<path class="st0" d="M228.6,251c4.1,2.8,8.7,5,13.3,6.8c0.4,0.2,0.6-0.5,0.2-0.7c-4.6-1.8-8.9-4.1-13.3-6.4
			C228.6,250.5,228.4,250.8,228.6,251L228.6,251z"/>
	</g>
	<g>
		<path class="st0" d="M233.3,248c3.7,2.9,8.1,5.1,12.4,6.8c0.4,0.2,0.6-0.5,0.2-0.7c-4.4-1.8-8.4-3.9-12.5-6.3
			C233.4,247.8,233.2,247.9,233.3,248L233.3,248z"/>
	</g>
	<g>
		<path class="st0" d="M238.4,245.7c3.4,2.8,7.2,5.3,11.2,7c0.4,0.2,0.8-0.4,0.4-0.6c-3.9-2-7.7-4.2-11.3-6.7
			C238.5,245.3,238.3,245.6,238.4,245.7L238.4,245.7z"/>
	</g>
	<g>
		<path class="st0" d="M242.6,243c1.8,1.5,3.6,2.9,5.5,4.2c1.8,1.2,3.6,2.5,5.8,3c0.3,0.1,0.4-0.4,0.1-0.5
			c-4.1-1.7-7.6-4.3-11.2-6.9C242.6,242.6,242.4,242.8,242.6,243L242.6,243z"/>
	</g>
	<g>
		<path class="st0" d="M246.4,240.5c3.2,2.9,6.8,5.3,10.7,7.1c0.4,0.2,0.8-0.4,0.4-0.6c-3.8-1.9-7.4-4.2-10.8-6.8
			C246.4,240.1,246.2,240.3,246.4,240.5L246.4,240.5z"/>
	</g>
	<g>
		<path class="st0" d="M250.8,237.6C250.7,237.6,250.7,237.6,250.8,237.6C250.7,237.5,250.7,237.5,250.8,237.6
			c-0.1-0.1-0.1-0.1-0.2-0.1c0,0,0,0,0,0c0.2,0.5,0.8,0.8,1.2,1.1c1.2,0.9,2.4,1.7,3.6,2.4c2.2,1.4,4.5,2.7,6.9,3.6
			c0.3,0.1,0.6-0.4,0.2-0.6c-2.1-0.9-4.1-1.9-6-3c-0.9-0.5-1.7-1-2.6-1.5C253.3,239.2,251,238.3,250.8,237.6
			C250.7,237.6,250.8,237.6,250.8,237.6L250.8,237.6z"/>
	</g>
	<g>
		<path class="st0" d="M254.3,235.7c3.1,2.8,7.3,6,11.5,6.9c0.4,0.1,0.6-0.5,0.2-0.6c-4.2-1-8.1-3.9-11.5-6.5
			C254.4,235.3,254.2,235.6,254.3,235.7L254.3,235.7z"/>
	</g>
	<g>
		<path class="st0" d="M258.3,233.2c3.3,3.1,7.5,5.4,11.9,6.6c0.4,0.1,0.6-0.5,0.2-0.7c-4.4-1.4-8.2-3.5-11.9-6.3
			C258.4,232.7,258.2,233,258.3,233.2L258.3,233.2z"/>
	</g>
	<g>
		<path class="st0" d="M262.4,230c2,2.1,4.9,3.6,7.4,5.1c1.2,0.7,2.9,2,4.2,2.3c0.5,0.1,0.6,0.2,1-0.1c0.3-0.3-0.1-0.7-0.4-0.6
			c-0.5,0.2-2.8-1.3-3.2-1.6c-1-0.5-2-1.1-3-1.7c-1.9-1.2-3.8-2.6-5.9-3.6C262.4,229.9,262.3,230,262.4,230L262.4,230z"/>
	</g>
	<g>
		<path class="st0" d="M266.9,228.1c0.1,0,1.2,1.3,1.4,1.4c0.4,0.3,0.8,0.5,1.2,0.8c1,0.6,1.9,1.2,3,1.8c1.7,0.9,3.5,1.8,5.4,2.5
			c0.4,0.1,0.6-0.4,0.3-0.6c-2.2-1-4.4-2-6.5-3.1c-1-0.6-2-1.1-3-1.8C268,228.7,267.5,228.1,266.9,228.1c-0.2-0.1-0.3,0.1-0.3,0.2
			c0,0,0,0,0,0.1c0,0.1,0.1,0.2,0.3,0.1c0,0,0,0,0.1,0C267.2,228.5,267.1,228.1,266.9,228.1L266.9,228.1z"/>
	</g>
	<g>
		<path class="st0" d="M270.6,225.7c3.4,2.9,7.7,5.5,11.8,7.2c0.4,0.1,0.6-0.4,0.3-0.6c-2-1.1-4.1-2.1-6-3.2c-2-1.2-3.8-2.5-5.8-3.7
			C270.6,225.3,270.4,225.6,270.6,225.7L270.6,225.7z"/>
	</g>
	<g>
		<path class="st0" d="M274.6,223.1c1.8,1.6,3.9,2.9,5.9,4.2c1.2,0.8,3.3,2.8,4.8,2.5c0.5-0.1,0.3-0.8-0.2-0.7
			c-0.7,0.1-2.2-1.1-2.8-1.4c-0.9-0.5-1.7-1.1-2.6-1.6c-1.6-1-3.2-2.2-4.8-3.2C274.6,222.7,274.4,223,274.6,223.1L274.6,223.1z"/>
	</g>
	<g>
		<path class="st0" d="M280.2,221.1c0.1,0.4,1.6,1.2,2,1.4c0.9,0.6,1.9,1.2,2.9,1.8c1.9,1.1,3.8,2,5.7,2.8c0.4,0.2,0.7-0.4,0.3-0.6
			c-2.2-0.9-4.3-1.9-6.3-3c-1.4-0.8-3.1-2.3-4.6-2.7c-0.1,0-0.1,0-0.2,0.1c0,0,0,0.1-0.1,0.1c0,0,0,0.1,0,0.1c0,0,0,0.1,0,0.1
			C280,221.4,280.2,221.3,280.2,221.1L280.2,221.1z"/>
	</g>
	<g>
		<path class="st0" d="M283.1,217.6c2.1,1.6,4.4,3.1,6.7,4.5c1.1,0.7,2.2,1.3,3.3,2c0.6,0.4,1,0.7,1.8,0.4c0.4-0.2,0.2-0.7-0.2-0.6
			c-0.9,0.1-2.6-1.1-3.3-1.6c-0.9-0.5-1.8-1-2.7-1.6c-1.8-1.1-3.6-2.2-5.3-3.3C283.1,217.3,282.9,217.5,283.1,217.6L283.1,217.6z"/>
	</g>
	<g>
		<path class="st0" d="M287.2,215.1c0.2,0.1,1.2,1.2,1.5,1.5c0.4,0.3,0.8,0.6,1.1,0.9c1.1,0.8,2.2,1.5,3.4,2.2
			c1.4,0.8,3.7,2.4,5.5,2.1c0.4-0.1,0.3-0.8-0.1-0.7c-2.2,0.2-5.2-2-7-3.2c-0.9-0.6-1.9-1.2-2.8-1.9c-0.5-0.4-1.1-0.9-1.7-1
			c-0.1,0-0.2,0.2-0.2,0.3c0,0,0,0.1,0,0.1c0,0.1,0.1,0.1,0.2,0.1c0,0,0,0,0.1,0C287.3,215.3,287.3,215.1,287.2,215.1L287.2,215.1z"
			/>
	</g>
	<g>
		<path class="st0" d="M289.8,213.4c3.4,2.5,8,6.1,12.4,6.1c0.5,0,0.5-0.7,0-0.8c-4.6-0.4-8.2-3.6-12.2-5.7
			C289.7,212.9,289.6,213.3,289.8,213.4L289.8,213.4z"/>
	</g>
	<g>
		<path class="st0" d="M294.1,211.4c0,0.5,0.4,0.6,0.8,0.9c1.3,0.9,2.7,1.7,4.1,2.5c2.1,1.2,4.8,3,7.4,3c0.4,0,0.5-0.7,0.1-0.7
			c-2.2-0.4-4.2-1.5-6.2-2.4c-0.9-0.5-1.8-0.9-2.7-1.4c-0.7-0.4-2.9-1.2-3.1-1.8C294.4,211.2,294.1,211.2,294.1,211.4L294.1,211.4z"
			/>
	</g>
	<g>
		<path class="st0" d="M298.5,208.3c0,0-0.1,0.1-0.1,0.1c-0.1,0-0.1,0.1-0.1,0.2c0.3,1.3,3,2.3,4,2.8c2,1.1,4.2,2.1,6.4,2.6
			c0.4,0.1,0.6-0.5,0.2-0.7c-0.8-0.3-10.6-4-10.1-4.9C298.9,208.3,298.7,208.1,298.5,208.3L298.5,208.3z"/>
	</g>
	<g>
		<path class="st0" d="M300.7,207.1c3.3,2.2,7.1,4,11,4.9c0.5,0.1,0.7-0.6,0.2-0.8c-3.8-1.2-7.4-2.7-10.9-4.6
			C300.7,206.5,300.4,207,300.7,207.1L300.7,207.1z"/>
	</g>
	<g>
		<path class="st0" d="M304,205.2c2.1,1.3,4.3,2.4,6.6,3.4c0.4,0.2,0.7-0.4,0.3-0.6c-2.3-0.9-4.4-2-6.6-3.2
			C304,204.6,303.8,205,304,205.2L304,205.2z"/>
	</g>
	<g>
		<path class="st0" d="M312.3,150.2c-0.2,0.7-0.3,1.4-0.3,2.1c0,0.3,0.4,0.3,0.5,0c0-0.7,0.1-1.4,0.3-2
			C312.9,150,312.4,149.9,312.3,150.2L312.3,150.2z"/>
	</g>
	<g>
		<path class="st0" d="M311.6,148.6c-0.6,0.3-0.6,1.2-0.7,1.7c-0.2,1-0.3,1.9-0.4,2.9c0,0.3,0.5,0.3,0.5,0c0.1-0.8,0.2-1.5,0.3-2.3
			c0.1-0.4,0.1-1.7,0.5-2C312.1,148.8,311.9,148.5,311.6,148.6L311.6,148.6z"/>
	</g>
	<g>
		<path class="st0" d="M310.9,147.6c-0.8,0-1,1.8-1.2,2.3c-0.6,1.7-1,3.5-1.2,5.2c0,0.3,0.5,0.4,0.6,0.1c0.2-1.2,0.4-2.4,0.7-3.6
			c0.1-0.6,0.6-3.5,1.2-3.6C311.1,147.9,311.1,147.6,310.9,147.6L310.9,147.6z"/>
	</g>
	<g>
		<path class="st0" d="M307.8,150.6c-0.7,2-1.1,4.3-1.2,6.5c0,0.4,0.6,0.4,0.6,0c0.2-2.1,0.6-4.3,0.9-6.4
			C308.2,150.4,307.9,150.4,307.8,150.6L307.8,150.6z"/>
	</g>
	<g>
		<path class="st0" d="M305.3,152.6c-0.5,1.9-0.6,4-0.4,6c0,0.3,0.5,0.3,0.5,0c-0.2-2-0.2-3.9,0.2-5.9
			C305.6,152.5,305.3,152.4,305.3,152.6L305.3,152.6z"/>
	</g>
	<g>
		<path class="st0" d="M303.2,155c-0.1,1.6-0.2,3.3-0.1,4.9c0,0.3,0.4,0.3,0.4,0c0.2-1.6,0-3.3,0-4.9
			C303.5,154.8,303.2,154.8,303.2,155L303.2,155z"/>
	</g>
	<g>
		<path class="st0" d="M301.4,157.5c0,1.8,0.2,3.6,0.7,5.4c0.1,0.3,0.6,0.2,0.5-0.1c-0.4-1.7-0.7-3.5-0.8-5.2
			C301.7,157.3,301.4,157.3,301.4,157.5L301.4,157.5z"/>
	</g>
	<g>
		<path class="st0" d="M300,160.9c0.1,1.6,0.6,3.4,1.4,4.9c0.1,0.2,0.5,0.1,0.4-0.2c-0.6-1.6-1.1-3.1-1.5-4.7
			C300.2,160.7,300,160.7,300,160.9L300,160.9z"/>
	</g>
	<g>
		<path class="st0" d="M298.9,164.7c0.6,1.5,1.3,2.9,2.2,4.2c0.1,0.2,0.5,0,0.4-0.2c-0.8-1.3-1.6-2.7-2.3-4.1
			C299.2,164.4,298.9,164.5,298.9,164.7L298.9,164.7z"/>
	</g>
	<g>
		<path class="st0" d="M298.6,166.9c0.5,1.5,1.2,3,2,4.4c0.1,0.2,0.5,0,0.4-0.2c-0.8-1.4-1.5-2.8-2.1-4.3
			C298.8,166.7,298.6,166.8,298.6,166.9L298.6,166.9z"/>
	</g>
	<g>
		<path class="st0" d="M298.8,169.9c-0.6,0.1-0.1,0.8,0.1,1.1c0.7,1,1.3,2,2,2.9c0.2,0.2,0.6,0,0.4-0.2c-0.4-0.6-0.8-1.2-1.2-1.7
			c-0.1-0.1-1.2-1.7-1.2-1.7C299.1,170.1,299,169.8,298.8,169.9L298.8,169.9z"/>
	</g>
	<g>
		<path class="st0" d="M298.7,172.9c0.6,1.4,1.3,2.8,2.4,3.9c0.2,0.2,0.5-0.1,0.3-0.3c-0.9-1.1-1.7-2.4-2.3-3.7
			C299,172.6,298.6,172.7,298.7,172.9L298.7,172.9z"/>
	</g>
	<g>
		<path class="st0" d="M299.4,176.8c0.6,1.3,1.3,2.4,2.1,3.5c0.2,0.2,0.5-0.1,0.3-0.3c-0.8-1.1-1.6-2.2-2.1-3.4
			C299.6,176.4,299.3,176.6,299.4,176.8L299.4,176.8z"/>
	</g>
	<g>
		<path class="st0" d="M300.2,180.7c0.7,1.2,1.5,2.4,2.4,3.6c0.2,0.2,0.6-0.1,0.4-0.3c-0.8-1.1-1.7-2.3-2.5-3.5
			C300.4,180.3,300.1,180.5,300.2,180.7L300.2,180.7z"/>
	</g>
	<g>
		<path class="st0" d="M301.4,184.5c0.6,1.1,1.3,2.3,2,3.4c0.2,0.3,0.7,0,0.5-0.3c-0.7-1.1-1.4-2.2-2-3.3
			C301.6,184,301.2,184.3,301.4,184.5L301.4,184.5z"/>
	</g>
	<g>
		<path class="st0" d="M307.1,202.4c1.7,1.3,3.4,2.5,5.2,3.7c0.2,0.1,0.4-0.2,0.2-0.4c-1.8-1.2-3.5-2.4-5.2-3.7
			C307.1,201.9,306.9,202.3,307.1,202.4L307.1,202.4z"/>
	</g>
	<g>
		<path class="st0" d="M305.8,198.9c1.9,1.6,3.9,3.1,6,4.5c0.3,0.2,0.5-0.2,0.2-0.4c-2.1-1.4-4.1-2.9-6-4.4
			C305.8,198.5,305.5,198.8,305.8,198.9L305.8,198.9z"/>
	</g>
	<g>
		<path class="st0" d="M306.4,196.3c1.4,1.4,3,2.8,4.6,4c0.3,0.2,0.7-0.2,0.3-0.4c-1.6-1.2-3.1-2.5-4.5-3.9
			C306.5,195.8,306.2,196.1,306.4,196.3L306.4,196.3z"/>
	</g>
	<g>
		<path class="st0" d="M304.3,192.5c1.8,1.7,3.6,3.3,5.6,4.8c0.3,0.2,0.5-0.2,0.3-0.4c-1.9-1.4-3.7-3-5.5-4.6
			C304.4,192,304.1,192.3,304.3,192.5L304.3,192.5z"/>
	</g>
	<g>
		<path class="st0" d="M304.2,189.9c1.4,1.2,2.9,2.4,4.4,3.5c0.3,0.2,0.5-0.2,0.3-0.4c-1.5-1.1-2.9-2.2-4.4-3.4
			C304.3,189.4,304,189.7,304.2,189.9L304.2,189.9z"/>
	</g>
	<g>
		<path class="st0" d="M304.4,188c0.4,0.5,0.9,0.9,1.4,1.3c0.2,0.2,0.5-0.2,0.2-0.4c-0.5-0.3-0.9-0.7-1.3-1.2
			C304.5,187.6,304.3,187.8,304.4,188L304.4,188z"/>
	</g>
	<g>
		<path class="st0" d="M302.3,168c0,0.9,0.4,1.8,0.8,2.6c0.1,0.3,0.6,0.1,0.5-0.2c-0.2-0.4-0.3-0.8-0.5-1.2
			c-0.1-0.4-0.2-0.8-0.4-1.2C302.6,167.7,302.3,167.8,302.3,168L302.3,168z"/>
	</g>
	<g>
		<path class="st0" d="M303.4,165.2c0.3,1.2,0.6,2.4,1,3.5c0.1,0.3,0.6,0.2,0.5-0.1c-0.3-1.2-0.7-2.3-1-3.5
			C303.7,164.8,303.3,164.9,303.4,165.2L303.4,165.2z"/>
	</g>
	<g>
		<path class="st0" d="M305.5,162.8c-0.1,1.1,0,2.3,0.3,3.4c0.1,0.3,0.6,0.2,0.6-0.1c-0.1-1.1-0.3-2.2-0.3-3.4
			C306,162.5,305.5,162.5,305.5,162.8L305.5,162.8z"/>
	</g>
	<g>
		<path class="st0" d="M307.3,160.3c-0.3,0.9-0.4,2-0.2,2.9c0.1,0.3,0.6,0.3,0.6-0.1c0-0.4,0-0.8,0-1.3c0-0.5,0.1-0.9,0.2-1.4
			C307.9,160.1,307.4,160,307.3,160.3L307.3,160.3z"/>
	</g>
	<g>
		<path class="st0" d="M308.8,158.7c0,0.8-0.1,1.7,0,2.5c0,0.3,0.5,0.3,0.5,0c0-0.8,0-1.7,0-2.5
			C309.3,158.4,308.8,158.4,308.8,158.7L308.8,158.7z"/>
	</g>
	<g>
		<path class="st0" d="M310.2,157.8c-0.1,0.6-0.1,1.2-0.2,1.8c0,0.3,0.4,0.3,0.5,0c0.1-0.6,0.1-1.2,0.2-1.8
			C310.7,157.5,310.3,157.5,310.2,157.8L310.2,157.8z"/>
	</g>
	<g>
		<path class="st0" d="M312.2,157.1C312.2,157.1,312.2,157.1,312.2,157.1c0,0,0,0.1,0,0.2c0,0,0,0,0,0c-0.1,0-0.1,0.1-0.2,0.1
			c0,0,0,0,0,0c-0.1,0-0.1-0.1-0.2-0.1c0.1,0.2-0.1,0.6-0.1,0.8c0,0.3-0.1,0.5-0.2,0.8c-0.1,0.3,0.4,0.4,0.5,0.1
			c0.1-0.4,0.1-0.7,0.2-1.1C312.3,157.6,312.4,157.2,312.2,157.1c0-0.2-0.1-0.2-0.2-0.2c-0.1,0-0.1,0.1-0.2,0.1c0,0.1,0,0.2,0,0.3
			c0,0,0,0,0,0C312.1,157.5,312.4,157.3,312.2,157.1L312.2,157.1z"/>
	</g>
	<g>
		<path class="st0" d="M313.6,156.1c0-0.1,0.1-0.2,0.2-0.3c-0.1-0.1-0.3-0.1-0.4-0.2c-0.2,0.6-0.3,1.4-0.3,2.1c0,0.4,0.5,0.4,0.6,0
			c0-0.7,0.1-1.4,0.2-2c0-0.2-0.3-0.3-0.4-0.1c-0.1,0.2-0.2,0.3-0.2,0.4C313.1,156.2,313.5,156.3,313.6,156.1L313.6,156.1z"/>
	</g>
	<g>
		<path class="st0" d="M314.7,155.2c0.1-0.1,0.2-0.2,0.3-0.1c-0.1-0.1-0.2-0.2-0.2-0.2c0,0.4,0,0.7-0.1,1.1
			c-0.1,0.3,0.4,0.5,0.5,0.1c0.1-0.4,0.1-0.8,0.1-1.2c0-0.1-0.1-0.2-0.2-0.2c-0.3,0-0.5,0.1-0.7,0.4
			C314.2,155.1,314.6,155.4,314.7,155.2L314.7,155.2z"/>
	</g>
	<g>
		<path class="st0" d="M299.1,157.4c2.5-3.7,5.2-6.9,9-9.2c0.2-0.1,0-0.5-0.2-0.3c-4,2-6.9,5.6-9,9.4
			C298.8,157.4,299,157.5,299.1,157.4L299.1,157.4z"/>
	</g>
	<g>
		<path class="st0" d="M296.5,162.3c-0.6,2-0.7,4.2-0.3,6.2c0,0.2,0.4,0.1,0.3-0.1c-0.3-2.1-0.2-4,0.2-6.1
			C296.7,162.2,296.6,162.2,296.5,162.3L296.5,162.3z"/>
	</g>
	<g>
		<path class="st0" d="M278.7,144.9c-0.1,1,0.1,2.1,0.3,3.1c0,0.2,0.4,0.1,0.4-0.1c-0.2-1-0.2-2-0.4-3
			C279,144.7,278.7,144.7,278.7,144.9L278.7,144.9z"/>
	</g>
	<g>
		<path class="st0" d="M280,143.6c-0.1,1.9-0.1,3.8,0.1,5.7c0,0.3,0.5,0.3,0.5,0c-0.1-1.9-0.2-3.8-0.2-5.7
			C280.3,143.3,280,143.3,280,143.6L280,143.6z"/>
	</g>
	<g>
		<path class="st0" d="M281.1,142.6c-0.1,1.6-0.1,3.2-0.1,4.8c0,0.6-0.2,1.6,0.5,1.8c0.3,0.1,0.4-0.3,0.2-0.5
			c-0.4-0.3-0.2-2.6-0.2-3.1c0-1,0-2,0-3C281.5,142.3,281.1,142.3,281.1,142.6L281.1,142.6z"/>
	</g>
	<g>
		<path class="st0" d="M282.3,141.4c-0.3,2.4-0.2,4.9,0.3,7.2c0.1,0.3,0.6,0.2,0.5-0.1c-0.3-2.4-0.5-4.7-0.4-7.2
			C282.8,141.1,282.3,141.2,282.3,141.4L282.3,141.4z"/>
	</g>
	<g>
		<path class="st0" d="M284.6,140.1c-0.3,2.2-0.4,4.4-0.4,6.5c0,0.3,0.5,0.3,0.5,0c0-2.2,0.1-4.3,0.3-6.5
			C285,139.9,284.6,139.8,284.6,140.1L284.6,140.1z"/>
	</g>
	<g>
		<path class="st0" d="M286,138.8c-0.3,2.7-0.4,5.4-0.3,8.2c0,0.4,0.6,0.4,0.6,0c-0.1-2.7,0-5.4,0.1-8.2
			C286.5,138.5,286.1,138.6,286,138.8L286,138.8z"/>
	</g>
	<g>
		<path class="st0" d="M287.6,137.1c-0.3,2.6-0.3,5.2,0,7.7c0.1,0.4,0.7,0.4,0.6,0c-0.2-2.6-0.3-5.1-0.1-7.7
			C288.1,136.7,287.6,136.7,287.6,137.1L287.6,137.1z"/>
	</g>
	<g>
		<path class="st0" d="M289.3,136.2c-0.4,2.4-0.4,4.9-0.2,7.3c0,0.4,0.6,0.4,0.6,0c0-2.4,0.1-4.8,0-7.3
			C289.8,136.1,289.4,136,289.3,136.2L289.3,136.2z"/>
	</g>
	<g>
		<path class="st0" d="M290.6,134.9c-0.5,2.7-0.7,5.6-0.3,8.4c0,0.3,0.6,0.2,0.5-0.1c-0.1-2.8-0.1-5.4,0.3-8.2
			C291.1,134.7,290.6,134.5,290.6,134.9L290.6,134.9z"/>
	</g>
	<g>
		<path class="st0" d="M291.6,134.6c-0.4,2.6-0.5,5.3-0.2,8c0,0.4,0.7,0.5,0.7,0c-0.2-2.7-0.2-5.2,0.1-7.9
			C292.3,134.3,291.7,134.2,291.6,134.6L291.6,134.6z"/>
	</g>
	<g>
		<path class="st0" d="M293.6,133.7c-0.4,2.4-0.6,4.8-0.5,7.2c0,0.4,0.6,0.4,0.6,0c0-2.4,0.1-4.7,0.4-7
			C294.1,133.5,293.6,133.4,293.6,133.7L293.6,133.7z"/>
	</g>
	<g>
		<path class="st0" d="M294.7,132.1c-0.3,2.4-0.4,4.9-0.4,7.4c0,0.4,0.6,0.4,0.6,0c0.2-2.4,0.4-4.9,0.3-7.4
			C295.2,131.7,294.7,131.8,294.7,132.1L294.7,132.1z"/>
	</g>
	<g>
		<path class="st0" d="M296.4,130.3c-0.2,2.5-0.2,5,0,7.5c0,0.4,0.6,0.4,0.6,0c-0.1-2.5-0.1-5-0.1-7.5
			C296.9,130,296.4,130,296.4,130.3L296.4,130.3z"/>
	</g>
	<g>
		<path class="st0" d="M297.2,130.3c-0.1,2.2-0.1,4.4,0,6.5c0,0.4,0.6,0.4,0.7,0c0.1-2.2,0.1-4.4,0-6.5
			C297.8,129.9,297.2,129.9,297.2,130.3L297.2,130.3z"/>
	</g>
	<g>
		<path class="st0" d="M298.3,130.3c-0.2,2-0.2,4.1-0.2,6.2c0,0.4,0.6,0.4,0.7,0c0.1-2,0.2-4.1,0.1-6.2
			C298.9,129.9,298.3,129.9,298.3,130.3L298.3,130.3z"/>
	</g>
	<g>
		<path class="st0" d="M299.5,131.5c0,1.2,0,2.4,0,3.6c0,0.3,0.5,0.3,0.5,0c0-1.2,0-2.4-0.1-3.6C300,131.2,299.5,131.2,299.5,131.5
			L299.5,131.5z"/>
	</g>
	<g>
		<path class="st0" d="M282.9,140.9c-0.6,0.8-0.1,2.1,0,3c0.2,1.4,0.3,2.8,0.5,4.2c0,0.3,0.6,0.2,0.6-0.1c-0.1-1-0.3-2.1-0.4-3.1
			c-0.1-0.9-0.8-3-0.3-3.8C283.3,140.9,283,140.8,282.9,140.9L282.9,140.9z"/>
	</g>
	<g>
		<path class="st0" d="M274.4,148.1c0.2,1,0.5,1.9,0.7,2.8c0.1,0.3,0.5,0.2,0.4-0.1c-0.3-0.9-0.6-1.9-0.9-2.8
			C274.6,147.8,274.3,147.9,274.4,148.1L274.4,148.1z"/>
	</g>
	<g>
		<path class="st0" d="M275.7,147.2c-0.1,1.4,0.1,2.9,0.5,4.3c0.1,0.4,0.6,0.2,0.6-0.2c-0.3-1.4-0.5-2.7-0.6-4.1
			C276.1,147,275.8,147,275.7,147.2L275.7,147.2z"/>
	</g>
	<g>
		<path class="st0" d="M276.9,146.7c0,2.2,0.2,4.5,0.7,6.6c0.1,0.3,0.5,0.2,0.5-0.1c-0.3-2.2-0.6-4.3-0.8-6.5
			C277.3,146.5,276.9,146.4,276.9,146.7L276.9,146.7z"/>
	</g>
	<g>
		<path class="st0" d="M278.6,148.1c0.3,2.1,0.5,4.2,0.8,6.2c0,0.2,0.4,0.2,0.4-0.1c-0.2-2.1-0.6-4.2-0.9-6.2
			C278.9,147.8,278.6,147.9,278.6,148.1L278.6,148.1z"/>
	</g>
	<g>
		<path class="st0" d="M280.2,149.7c0,2.1,0.2,4.2,0.5,6.3c0.1,0.3,0.6,0.2,0.5-0.1c-0.3-2-0.5-4.1-0.6-6.2
			C280.6,149.5,280.2,149.5,280.2,149.7L280.2,149.7z"/>
	</g>
	<g>
		<path class="st0" d="M281.9,151.1c0,2.4,0.1,4.8,0.4,7.2c0,0.3,0.5,0.2,0.5-0.1c-0.1-2.4-0.4-4.7-0.5-7.1
			C282.3,150.8,281.9,150.8,281.9,151.1L281.9,151.1z"/>
	</g>
	<g>
		<path class="st0" d="M283.2,153.9c0,2.1,0.1,4.3,0.4,6.4c0.1,0.3,0.6,0.2,0.5-0.1c-0.2-2.1-0.5-4.2-0.6-6.3
			C283.7,153.6,283.2,153.6,283.2,153.9L283.2,153.9z"/>
	</g>
	<g>
		<path class="st0" d="M284.7,156.7c0.1,2.2,0.3,4.4,0.7,6.5c0.1,0.4,0.6,0.2,0.5-0.1c-0.4-2.1-0.7-4.2-0.8-6.4
			C285.1,156.4,284.7,156.4,284.7,156.7L284.7,156.7z"/>
	</g>
	<g>
		<path class="st0" d="M286.2,158.6c0.2,2,0.3,3.9,0.6,5.9c0,0.3,0.5,0.2,0.5-0.1c-0.1-1.9-0.4-3.9-0.7-5.8
			C286.6,158.4,286.1,158.4,286.2,158.6L286.2,158.6z"/>
	</g>
	<g>
		<path class="st0" d="M287.7,160.6c0,2,0.2,3.9,0.3,5.9c0,0.4,0.7,0.4,0.7,0c-0.1-2-0.3-4-0.6-5.9
			C288.1,160.3,287.7,160.4,287.7,160.6L287.7,160.6z"/>
	</g>
	<g>
		<path class="st0" d="M288.8,162.2c0,2.2,0.1,4.4,0.5,6.6c0,0.3,0.6,0.3,0.6-0.1c-0.1-2.2-0.4-4.3-0.6-6.5
			C289.2,161.9,288.8,161.9,288.8,162.2L288.8,162.2z"/>
	</g>
	<g>
		<path class="st0" d="M290.3,165.3c0.1,1.9,0.3,3.9,0.8,5.7c0.1,0.4,0.6,0.2,0.6-0.2c-0.3-1.9-0.7-3.7-1-5.5
			C290.7,165,290.3,165,290.3,165.3L290.3,165.3z"/>
	</g>
	<g>
		<path class="st0" d="M291.3,167.5c0.3,1.9,0.5,3.8,0.8,5.7c0.1,0.4,0.6,0.2,0.6-0.2c-0.3-1.9-0.6-3.8-1-5.6
			C291.7,167.3,291.3,167.3,291.3,167.5L291.3,167.5z"/>
	</g>
	<g>
		<path class="st0" d="M292.9,170.8c0.2,1.2,0.4,2.4,0.5,3.6c0,0.3,0.5,0.3,0.4,0c-0.1-1.2-0.3-2.5-0.5-3.7
			C293.3,170.4,292.8,170.5,292.9,170.8L292.9,170.8z"/>
	</g>
	<g>
		<path class="st0" d="M294,173.6c0.1,1.1,0.1,2.4,0.4,3.5c0.1,0.2,0.4,0.2,0.4-0.1c-0.1-1.1-0.3-2.3-0.4-3.4
			C294.4,173.3,294,173.3,294,173.6L294,173.6z"/>
	</g>
	<g>
		<path class="st0" d="M295.5,177.3c0.1,0.6,0.2,1.2,0.3,1.8c0,0.2,0.3,0.1,0.3-0.1c-0.1-0.6-0.3-1.2-0.4-1.7
			C295.7,177.1,295.5,177.2,295.5,177.3L295.5,177.3z"/>
	</g>
	<g>
		<path class="st0" d="M296.8,177.9c-0.1,0.9-0.1,1.8,0,2.6c0.1,0.3,0.5,0.2,0.5-0.1c-0.1-0.9-0.2-1.7-0.2-2.6
			C297.2,177.6,296.8,177.6,296.8,177.9L296.8,177.9z"/>
	</g>
	<g>
		<path class="st0" d="M297.8,180.7c-0.1,0.8,0,1.7,0.3,2.5c0.1,0.2,0.4,0.1,0.3-0.1c-0.2-0.8-0.4-1.5-0.4-2.3
			C298.1,180.5,297.8,180.5,297.8,180.7L297.8,180.7z"/>
	</g>
	<g>
		<path class="st0" d="M298.5,182.8c-0.1,0.5-0.1,1.1,0.1,1.6c0.1,0.2,0.3,0.2,0.3,0c0-0.5-0.1-1,0-1.5
			C298.9,182.6,298.5,182.6,298.5,182.8L298.5,182.8z"/>
	</g>
	<g>
		<path class="st0" d="M58.1,323.9c5.2-6.6,10.3-13.3,16.1-19.5c5.7-6.2,11.8-12.1,18.1-17.7c0.3-0.2-0.1-0.6-0.4-0.4
			c-6.4,5.6-12.6,11.7-18.3,18c-5.6,6.2-11.1,12.5-15.7,19.4C57.7,323.8,58,324,58.1,323.9L58.1,323.9z"/>
	</g>
	<g>
		<path class="st0" d="M103.6,279.2c13.8-10.8,28-20.9,43-30.1c0.3-0.2,0-0.8-0.3-0.5c-14.9,9.2-29.3,19.3-42.8,30.5
			C103.3,279.1,103.4,279.3,103.6,279.2L103.6,279.2z"/>
	</g>
	<g>
		<path class="st0" d="M153.3,242.5c8.5-6,16.8-12.1,25.1-18.2c0.2-0.2,0-0.5-0.2-0.4C169.9,230.1,161.5,236.2,153.3,242.5
			C153.2,242.5,153.3,242.6,153.3,242.5L153.3,242.5z"/>
	</g>
	<g>
		<path class="st0" d="M185.8,219.2c21.5-15.3,42.9-30.9,64.1-46.7c0.3-0.2,0-0.7-0.3-0.5c-21.5,15.4-42.8,31.1-63.9,46.9
			C185.5,219.1,185.6,219.3,185.8,219.2L185.8,219.2z"/>
	</g>
	<g>
		<path class="st0" d="M255.5,169.5c5.5-4,11-8,16.4-12.1c0.3-0.2,0-0.6-0.2-0.4c-5.5,4.1-10.9,8.2-16.3,12.3
			C255.2,169.4,255.3,169.6,255.5,169.5L255.5,169.5z"/>
	</g>
	<g>
		<path class="st0" d="M269.5,165.1c0.4-0.2,2.1-1.3,2.5-1.2c2.4,0.7-1,2.8-1.5,3.2c-1.4,1-2.9,2.1-4.3,3.1c-3,2.1-6.1,4-9.2,5.8
			c-0.2,0.1,0,0.5,0.2,0.3c5.1-3.1,10.1-6.3,14.9-10c0.7-0.5,1.8-1.4,1.2-2.4c-0.8-1.4-3.1,0.6-3.9,1.1
			C269.4,165.1,269.5,165.2,269.5,165.1L269.5,165.1z"/>
	</g>
	<g>
		<path class="st0" d="M295.3,181.4c-0.8-4.7-5.1-8.8-7.8-12.6c-3.2-4.5-6.3-9.1-9.3-13.7c-0.4-0.7-1.4-2.6-2.5-2.2
			c-1.1,0.4,0,2.2,0.3,2.7c2.3,4.9,5.1,9.4,8.2,13.8c0.2,0.2,0.6,0,0.4-0.2c-2.4-3.2-4.6-6.6-6.4-10.2c-0.5-0.9-0.9-1.8-1.4-2.7
			c-0.1-0.2-0.8-1.2-0.7-1.5c0.3-0.2,0.6-0.4,0.9-0.6c0.1,0.2,0.2,0.4,0.4,0.6c0.7,0.8,1.3,2.1,1.9,3c0.6,0.9,1.1,1.8,1.7,2.7
			c2.3,3.5,4.8,7,7.3,10.4c2.6,3.4,5.4,6.6,7,10.6C295.2,181.5,295.4,181.5,295.3,181.4L295.3,181.4z"/>
	</g>
	<g>
		<path class="st0" d="M297.6,188c1,2.5,2.1,4.9,3.5,7.3c0.1,0.2,0.3,0,0.2-0.1c-1.2-2.4-2.3-4.8-3.3-7.3
			C297.9,187.7,297.5,187.8,297.6,188L297.6,188z"/>
	</g>
	<g>
		<path class="st0" d="M270.5,220c5.1-3,10.2-6,15.2-9.1c4.4-2.7,8.7-5.6,12.4-9.4c0.2-0.2,0-0.5-0.2-0.4c-2.1,0.4-4,1.2-5.8,2.3
			c-0.3,0.2,0,0.6,0.3,0.4c1.8-1.1,3.6-1.9,5.7-2.3c-0.1-0.1-0.2-0.3-0.2-0.4c-3.7,3.9-8.2,6.9-12.8,9.7c-4.8,3-9.7,5.9-14.6,8.9
			C270.2,219.9,270.3,220.1,270.5,220L270.5,220z"/>
	</g>
	<g>
		<path class="st0" d="M127.3,276.8c1.5-1.1,3.2-2.3,5.1-2.3c1.3,0,2.4,1.1,3.7,0.9c2-0.3,2.2-2.7,2.4-4.3c0.7-3.4,4.1-5.2,6.7-7.1
			c2.7-1.9,5.5-3.8,8.3-5.5c0.2-0.1,0-0.5-0.2-0.3c-2.8,1.8-5.6,3.6-8.3,5.5c-2,1.4-4.4,2.8-5.8,4.8c-0.6,0.9-0.9,1.8-1.1,2.8
			c-0.1,0.8-0.1,2.1-0.7,2.7c-0.8,0.3-1.7,0.6-2.5,0.8c-0.4-0.2-0.8-0.3-1.2-0.4c-2.5-0.6-4.6,0.8-6.4,2.2
			C127.2,276.7,127.2,276.8,127.3,276.8L127.3,276.8z"/>
	</g>
	<g>
		<path class="st0" d="M101.4,305c0.7-1.2,2.2-3.8,3.7,0c0.1,0.3,0.1,0.7,0.3,1.1c0.3,0.6,0.9,1.2,1.6,1.4c1.3,0.5,2.6-0.1,3-1.5
			c0.8-3-3.6-3.2-0.8-6.7c1-1.2,3-2.3,4.2-3.1c1.3-0.9,2.6-1.7,3.9-2.4c0.2-0.1,0-0.5-0.2-0.3c-2.7,1.6-5.3,3.3-7.7,5.2
			c-1.5,1.2-2.6,2.4-1.2,4.2c0.5,0.6,1.2,1.1,1.4,1.9c-0.1,2.4-1.1,2.9-3.2,1.7c-0.6-0.6-0.9-1.4-0.9-2.2c-0.1-0.6-0.2-1.2-0.8-1.6
			c-1.6-1.1-2.9,0.8-3.4,2.1C101.2,305.1,101.3,305.1,101.4,305L101.4,305z"/>
	</g>
	<g>
		<path class="st0" d="M79,314c3.8-2.5,7.6-5,11.3-7.6c0.1-0.1,0-0.2-0.1-0.2C86.4,308.7,82.7,311.3,79,314
			C78.9,313.9,79,314,79,314L79,314z"/>
	</g>
	<g>
		<path class="st0" d="M171.6,278.2c4.5-2.4,9-4.8,13.5-7.1c2.4-1.2,4.9-2.4,7.4-3.4c2.1-0.8,4.4-1.4,6.5-2.3
			c3.8-1.6,6.5-4.7,9.5-7.3c3.7-3.2,7.8-6,12.1-8.4c0.2-0.1,0-0.4-0.2-0.3c-3.9,2.1-7.5,4.6-10.9,7.4c-3.9,3.2-7,6.9-11.8,8.8
			c-4.2,1.6-8.4,3-12.4,5.2C180.6,273,176.1,275.6,171.6,278.2C171.5,278.1,171.5,278.2,171.6,278.2L171.6,278.2z"/>
	</g>
	<g>
		<path class="st0" d="M231.1,240.6c3.8-2.7,7.8-5.1,11.9-7.2c0.2-0.1,0-0.4-0.2-0.3c-4.2,2.1-8.2,4.5-11.9,7.3
			C230.9,240.5,231,240.7,231.1,240.6L231.1,240.6z"/>
	</g>
	<g>
		<path class="st0" d="M143.1,292.6c5.6-3.3,11.6-5.9,17.7-8c0.2-0.1,0.1-0.4-0.1-0.4c-6.2,2-12.1,4.9-17.7,8.2
			C143,292.6,143,292.7,143.1,292.6L143.1,292.6z"/>
	</g>
	<g>
		<path class="st0" d="M319.4,121.6c-1.4,2.7-1.4,6.9,1.9,8.2c2.8,1.1,6.8-0.4,8.4-2.9c1.5-2.4,0.9-5.7-1.1-7.6
			c-2.3-2-5.9-1.7-7.9,0.6c-0.5,0.6,0.3,1.4,0.9,0.9c3.6-3.9,9.9,0.8,7.2,5.3c-1.1,2-4.3,3.3-6.5,2.8c-3.1-0.6-3.3-4.7-2.5-7.2
			C319.8,121.6,319.5,121.5,319.4,121.6L319.4,121.6z"/>
	</g>
	<g>
		<path class="st0" d="M369.2,86.1c1.8-1.4,4-0.1,5.3,1.4c1,1.1,1.6,2.1,1.5,3.6c-0.1,0.9-0.7,2.1-1.3,2.9c-1.5,1.9-4.1,2.1-5.9,0.5
			c-2.1-1.8-2.1-4.4-1.1-6.8c0.3-0.6-0.6-1.2-1-0.6c-1.6,2.7-1.2,6.3,1.3,8.4c2.3,1.9,5.7,1.7,7.6-0.7c1.9-2.5,2.1-5.3,0.1-7.7
			c-1.7-2-4.7-3.9-6.9-1.4C368.6,85.9,368.9,86.3,369.2,86.1L369.2,86.1z"/>
	</g>
	<g>
		<path class="st0" d="M417.5,51.4c-2.9,1.3-3.9,4.9-2.3,7.6c1.9,3.2,5.8,3.3,8.7,1.5c2.8-1.8,5.2-5,3.4-8.3
			c-1.7-3.1-5.6-4.1-8.6-2.4c-0.7,0.4-0.1,1.3,0.6,1c2.5-1.2,5.4-0.6,6.9,1.8c1.6,2.7-0.6,5.4-2.8,6.9c-2.2,1.5-5,1.6-6.9-0.6
			c-1.9-2.3-1-5.4,1.2-7.1C417.8,51.5,417.7,51.3,417.5,51.4L417.5,51.4z"/>
	</g>
	<g>
		<path class="st0" d="M311.5,146.5c4-3.3,8-6.4,12.4-9.2c4.3-2.7,8.7-5.1,13.1-7.4c9-4.6,18.4-8.9,26.6-14.9c0.3-0.2,0-0.8-0.3-0.6
			c-8.7,5.7-17.9,10.3-27.2,15.1c-8.7,4.5-18.1,9.4-24.8,16.7C311.3,146.5,311.4,146.6,311.5,146.5L311.5,146.5z"/>
	</g>
	<g>
		<path class="st0" d="M375,106.3c6.3-3.9,12.6-7.8,18.4-12.6c2.9-2.4,5.6-5,8.1-7.8c2.5-2.8,4.8-5.6,8.1-7.3c0.3-0.1,0-0.5-0.2-0.4
			c-2.9,1.5-5.1,3.9-7.2,6.3c-2.5,2.9-5.2,5.5-8.2,8C388.1,97.6,381.5,101.9,375,106.3C374.9,106.2,375,106.3,375,106.3L375,106.3z"
			/>
	</g>
	<g>
		<path class="st0" d="M413.4,75.1c0.9-0.9,1.9-1.7,3-2.4c0.2-0.1,0-0.5-0.2-0.4c-1.2,0.6-2.2,1.5-3.1,2.5
			C413,75,413.2,75.3,413.4,75.1L413.4,75.1z"/>
	</g>
	<g>
		<path class="st0" d="M423.1,69.2c5.8-0.8,11.4,1,16.8,2.9c2,0.7,4.3,2,6.4,1.6c1.9-0.4,3.4-1.9,4.6-3.3c0.2-0.2-0.1-0.4-0.3-0.3
			c-2.2,2.1-4.2,3.6-7.3,2.6c-2.3-0.8-4.6-1.7-7-2.4C432,68.9,427.6,68.1,423.1,69.2C423.1,69.2,423.1,69.2,423.1,69.2L423.1,69.2z"
			/>
	</g>
	<g>
		<path class="st0" d="M450.8,30.1c2.8,3.4,4.3,7.3,5,11.7c0.6,4.3,1.1,9.3,0.1,13.6c-0.1,0.3,0.4,0.4,0.4,0.1
			c1.2-4.4,0.7-9.4,0-13.9c-0.7-4.3-2.2-8.6-5.4-11.7C450.8,29.9,450.7,30,450.8,30.1L450.8,30.1z"/>
	</g>
	<g>
		<path class="st0" d="M313.2,145c-0.4,1.5-0.5,3.1-0.5,4.6c0,0.3,0.5,0.3,0.5,0c0-1.5,0-3,0.3-4.5
			C313.5,144.9,313.2,144.8,313.2,145L313.2,145z"/>
	</g>
	<g>
		<path class="st0" d="M314.4,143.9c-0.2,2.6-0.4,5.3-0.4,8c0,0.3,0.4,0.3,0.5,0c0.3-2.6,0.3-5.3,0.3-8
			C314.8,143.6,314.4,143.7,314.4,143.9L314.4,143.9z"/>
	</g>
	<g>
		<path class="st0" d="M316,142.9c-0.4,3.4-0.4,6.8,0,10.2c0,0.3,0.5,0.2,0.5-0.1c-0.2-3.4-0.4-6.7-0.1-10.1
			C316.4,142.6,316,142.6,316,142.9L316,142.9z"/>
	</g>
	<g>
		<path class="st0" d="M318.1,141.5c-0.6,4.1-0.9,8.3-0.9,12.4c0,0.4,0.5,0.3,0.5,0c0.2-4.1,0.4-8.3,0.6-12.4
			C318.4,141.4,318.1,141.4,318.1,141.5L318.1,141.5z"/>
	</g>
	<g>
		<path class="st0" d="M320.4,139.9c-0.7,4-0.9,8-0.9,12.1c0,0.3,0.5,0.3,0.5,0c0-4,0.3-8,0.6-12
			C320.7,139.8,320.4,139.7,320.4,139.9L320.4,139.9z"/>
	</g>
	<g>
		<path class="st0" d="M322.8,137.6c-0.6,4.3-0.8,8.7-0.5,13c0,0.4,0.6,0.4,0.6,0c0-4.3,0.2-8.6,0.4-13
			C323.2,137.4,322.8,137.4,322.8,137.6L322.8,137.6z"/>
	</g>
	<g>
		<path class="st0" d="M325.1,137c-0.7,4.4-0.8,8.9-0.4,13.3c0,0.4,0.7,0.4,0.6,0c-0.1-4.4,0-8.8,0.2-13.3
			C325.5,136.8,325.1,136.8,325.1,137L325.1,137z"/>
	</g>
	<g>
		<path class="st0" d="M327.9,135.3c-1,4-0.8,8.5-0.1,12.5c0.1,0.4,0.7,0.2,0.7-0.2c-0.6-4.2-0.4-8.1-0.2-12.3
			C328.3,135.2,328,135.1,327.9,135.3L327.9,135.3z"/>
	</g>
	<g>
		<path class="st0" d="M330.8,132.4c-0.8,4.7-1.1,9.6-0.7,14.3c0,0.4,0.7,0.5,0.7,0c-0.2-4.8,0-9.5,0.5-14.3
			C331.4,132.2,330.9,132.1,330.8,132.4L330.8,132.4z"/>
	</g>
	<g>
		<path class="st0" d="M333.8,132.9c-0.8,4-1,8.4-0.6,12.4c0.1,0.4,0.7,0.5,0.7,0c0-4.1,0-8.2,0.3-12.3
			C334.2,132.7,333.9,132.7,333.8,132.9L333.8,132.9z"/>
	</g>
	<g>
		<path class="st0" d="M335.5,130c-0.1,4.1-0.4,8.1,0.3,12.2c0.1,0.4,0.7,0.3,0.6-0.1c-0.2-2.2-0.4-4.4-0.4-6.6
			c0-1.8,0.2-3.7-0.1-5.5C335.9,129.7,335.6,129.7,335.5,130L335.5,130z"/>
	</g>
	<g>
		<path class="st0" d="M338.7,129.4c-1.1,3.8-0.9,7.9-0.4,11.8c0,0.4,0.7,0.4,0.6,0c-0.3-4-0.6-7.8,0.3-11.7
			C339.2,129.2,338.8,129.1,338.7,129.4L338.7,129.4z"/>
	</g>
	<g>
		<path class="st0" d="M342,127.9c-0.7,1.2-0.4,3.2-0.4,4.5c0,2.1,0,4.3,0.1,6.4c0,0.4,0.7,0.4,0.7,0c0-1.8-0.1-3.5-0.1-5.3
			c0-1.5-0.5-4,0.1-5.4C342.5,127.8,342.2,127.7,342,127.9L342,127.9z"/>
	</g>
	<g>
		<path class="st0" d="M345,126.1c-0.5,4-0.4,8.1,0,12.1c0,0.5,0.8,0.5,0.7,0c-0.4-4.1-0.4-8.1-0.2-12.1
			C345.5,125.8,345,125.8,345,126.1L345,126.1z"/>
	</g>
	<g>
		<path class="st0" d="M348.2,124.1c-0.1,2.1,0.1,4.2-0.1,6.3c-0.1,2-0.3,4,0.1,6c0.1,0.4,0.8,0.3,0.7-0.2c-0.4-2.2-0.2-4.3-0.2-6.5
			c0.1-1.9-0.1-3.7-0.2-5.6C348.6,123.9,348.2,123.9,348.2,124.1L348.2,124.1z"/>
	</g>
	<g>
		<path class="st0" d="M351.5,122.2c-0.2,3.7,0,7.5,0.5,11.2c0.1,0.4,0.7,0.5,0.7,0c-0.2-3.7-0.5-7.4-0.7-11.2
			C351.9,121.9,351.5,121.9,351.5,122.2L351.5,122.2z"/>
	</g>
	<g>
		<path class="st0" d="M355.6,119.7c-0.4,3.7-0.4,7.5,0,11.1c0,0.5,0.8,0.5,0.7,0c-0.3-3.7-0.3-7.4-0.3-11.1
			C356,119.4,355.6,119.4,355.6,119.7L355.6,119.7z"/>
	</g>
	<g>
		<path class="st0" d="M359.4,117.7c-0.2,2.1-0.3,4.3-0.4,6.4c-0.1,1.7-0.3,3.4,0.2,5.1c0.1,0.4,0.7,0.2,0.7-0.2
			c-0.5-3.7,0.1-7.6,0-11.3C359.8,117.4,359.4,117.4,359.4,117.7L359.4,117.7z"/>
	</g>
	<g>
		<path class="st0" d="M361.6,116c-0.4,3.2-0.3,7.1,0.4,10.2c0.1,0.4,0.6,0.3,0.6-0.1c-0.1-3.3-0.4-6.8-0.7-10.1
			C361.9,115.8,361.6,115.8,361.6,116L361.6,116z"/>
	</g>
	<g>
		<path class="st0" d="M364.7,115.6c-0.1,1.9,0,3.8,0,5.7c0,1.7,0,3.4,0.5,5c0.1,0.4,0.7,0.3,0.7-0.2c-0.5-3.5-0.4-7-0.7-10.5
			C365.2,115.3,364.7,115.2,364.7,115.6L364.7,115.6z"/>
	</g>
	<g>
		<path class="st0" d="M368.1,113.8c0.2,3.2,0.3,6.4,0.3,9.6c0,0.3,0.5,0.3,0.5,0c0.1-3.2,0-6.4-0.4-9.6
			C368.5,113.6,368.1,113.6,368.1,113.8L368.1,113.8z"/>
	</g>
	<g>
		<path class="st0" d="M372,111.5c0.2,3.5,0.6,7.1,1.3,10.5c0.1,0.3,0.6,0.2,0.5-0.1c-0.5-3.5-1.1-6.9-1.4-10.4
			C372.3,111.3,372,111.3,372,111.5L372,111.5z"/>
	</g>
	<g>
		<path class="st0" d="M374.8,108.5c-0.2,3.7,0,7.5,0.4,11.1c0,0.4,0.6,0.4,0.6,0c-0.3-3.7-0.5-7.4-0.7-11.1
			C375.1,108.3,374.8,108.3,374.8,108.5L374.8,108.5z"/>
	</g>
	<g>
		<path class="st0" d="M378.5,105.5c-0.7,1.7-0.2,4.1-0.1,5.9c0.1,2.3,0.1,4.6,0.2,7c0,0.3,0.5,0.3,0.5,0c0-2.1-0.1-4.2-0.2-6.2
			c-0.1-1.9-0.7-4.7,0-6.5C378.9,105.4,378.6,105.3,378.5,105.5L378.5,105.5z"/>
	</g>
	<g>
		<path class="st0" d="M382.2,102.8c-0.8,4.5-0.9,9.2,0,13.7c0.1,0.3,0.6,0.2,0.5-0.1c-0.5-4.6-0.6-9-0.1-13.6
			C382.6,102.6,382.2,102.5,382.2,102.8L382.2,102.8z"/>
	</g>
	<g>
		<path class="st0" d="M385.8,100c0,4.6,0,9.3,0.4,13.9c0,0.3,0.6,0.4,0.5,0c-0.2-4.6-0.4-9.2-0.5-13.9
			C386.2,99.8,385.8,99.8,385.8,100L385.8,100z"/>
	</g>
	<g>
		<path class="st0" d="M389.3,97.6c-0.4,4.4-0.2,9.1,0.4,13.5c0,0.3,0.6,0.3,0.6-0.1c-0.3-4.5-0.5-8.9-0.6-13.4
			C389.7,97.3,389.4,97.4,389.3,97.6L389.3,97.6z"/>
	</g>
	<g>
		<path class="st0" d="M393.3,94.4c-0.5,4.9-0.5,10,0.4,14.8c0.1,0.3,0.6,0.2,0.5-0.1c-0.5-5-0.8-9.8-0.5-14.8
			C393.7,94.1,393.3,94.1,393.3,94.4L393.3,94.4z"/>
	</g>
	<g>
		<path class="st0" d="M396.6,91.7c-0.2,5.3,0.3,10.7,1.1,15.9c0.1,0.4,0.7,0.3,0.7-0.1c-0.7-5.3-0.9-10.5-1.3-15.8
			C397.1,91.4,396.6,91.4,396.6,91.7L396.6,91.7z"/>
	</g>
	<g>
		<path class="st0" d="M400.9,87.3c0.7,5.1,0.7,9.9,0.5,15c0,0.4,0.5,0.3,0.6,0c0.7-5,0.2-10.2-0.7-15.1
			C401.2,87,400.9,87.1,400.9,87.3L400.9,87.3z"/>
	</g>
	<g>
		<path class="st0" d="M404.1,83.6c0.3,2.9,0.8,5.8,1.2,8.7c0.2,1.4,0.4,2.9,0.7,4.3c0.2,1.2,0.2,2.9,0.8,4c0.1,0.1,0.2,0.2,0.4,0.2
			c0.1,0,0.1,0,0.2-0.1c0.1,0,0.3-0.2,0.2-0.3c0,0,0-0.1,0-0.1c0-0.4-0.6-0.4-0.6,0c0.1-1,0.2-1.3,0-2.4c-0.1-0.7-0.2-1.4-0.3-2.1
			c-0.2-1.3-0.4-2.6-0.6-3.9c-0.4-2.7-0.8-5.5-1.4-8.2C404.5,83.3,404.1,83.3,404.1,83.6L404.1,83.6z"/>
	</g>
	<g>
		<path class="st0" d="M408.8,79.9c0.1,5.4,0.5,10.7,1.3,16.1c0,0.3,0.6,0.3,0.6-0.1c-0.6-5.3-1.1-10.6-1.4-16
			C409.3,79.6,408.8,79.6,408.8,79.9L408.8,79.9z"/>
	</g>
	<g>
		<path class="st0" d="M412.4,77.7c-0.3,3.3,0.7,6.7,1,9.9c0.2,1.7,0.3,3.4,0.4,5.2c0,0.6-0.2,1.5,0.3,2c0.1,0.1,0.3,0.1,0.5,0
			c0,0,0.1-0.1,0.1-0.1c0.1-0.1,0.1-0.3,0-0.4c0,0,0,0-0.1-0.1c-0.2-0.2-0.6,0.1-0.5,0.4c0.5-0.1,0.6-0.5,0.4-1c0-0.2,0-0.5,0-0.7
			c0-0.7-0.1-1.5-0.1-2.2c-0.1-1.5-0.3-2.9-0.5-4.4c-0.4-2.8-1.2-5.6-1-8.5C412.9,77.4,412.5,77.4,412.4,77.7L412.4,77.7z"/>
	</g>
	<g>
		<path class="st0" d="M417,74.1c-0.4,4.6-0.2,9.4,0.5,14c0.1,0.4,0.7,0.3,0.7-0.1c-0.5-4.7-0.7-9.2-0.7-13.9
			C417.5,73.8,417,73.8,417,74.1L417,74.1z"/>
	</g>
	<g>
		<path class="st0" d="M421.4,71.6c0,2.4,0.1,4.7,0,7.1c0,2.1,0,4.1,0.7,6.1c0.1,0.4,0.8,0.2,0.7-0.2c-1.4-4.1-0.5-8.7-1-12.9
			C421.8,71.4,421.4,71.3,421.4,71.6L421.4,71.6z"/>
	</g>
	<g>
		<path class="st0" d="M426.1,70.1c-0.1,4.2-1.7,8.5-0.6,12.6c0.1,0.4,0.7,0.2,0.6-0.2c-0.9-4.2,0.7-8.2,0.5-12.5
			C426.6,69.8,426.1,69.8,426.1,70.1L426.1,70.1z"/>
	</g>
	<g>
		<path class="st0" d="M429.2,68.9c-0.4,4.7-0.6,9.5-0.6,14.2c0,0.4,0.6,0.4,0.6,0c0.1-4.7,0.3-9.5,0.4-14.2
			C429.6,68.6,429.2,68.6,429.2,68.9L429.2,68.9z"/>
	</g>
	<g>
		<path class="st0" d="M433.9,70.3c-0.7,4-0.8,8.1-0.7,12.2c0,0.4,0.6,0.4,0.6,0c0.1-4.1,0.4-8.1,0.6-12.1
			C434.4,70.1,434,70,433.9,70.3L433.9,70.3z"/>
	</g>
	<g>
		<path class="st0" d="M437.8,71.4c-0.7,3.2-0.6,6.7-0.1,10c0.1,0.3,0.6,0.3,0.6-0.1c-0.3-3.3-0.2-6.5,0-9.9
			C438.3,71.2,437.9,71.2,437.8,71.4L437.8,71.4z"/>
	</g>
	<g>
		<path class="st0" d="M441.4,73c-0.5,2.5-0.6,5.2-0.4,7.8c0,0.4,0.7,0.4,0.7,0c-0.1-2.6,0-5.1,0.3-7.7
			C442,72.8,441.5,72.7,441.4,73L441.4,73z"/>
	</g>
	<g>
		<path class="st0" d="M444.6,74.1c-0.5,2.2-0.6,4.6-0.5,6.9c0,0.4,0.6,0.4,0.6,0c0-2.3,0.2-4.5,0.4-6.8
			C445.1,73.9,444.6,73.9,444.6,74.1L444.6,74.1z"/>
	</g>
	<g>
		<path class="st0" d="M447.5,73.2c-0.5,2.6-0.5,5.3-0.1,7.9c0.1,0.3,0.7,0.3,0.6-0.1c-0.3-2.6-0.3-5.1,0-7.7
			C448,73,447.5,72.9,447.5,73.2L447.5,73.2z"/>
	</g>
	<g>
		<path class="st0" d="M450.1,71.1c-0.2,2.6-0.1,5.4,0.2,8c0,0.4,0.7,0.4,0.7,0c-0.2-2.7-0.3-5.3-0.3-8
			C450.7,70.8,450.2,70.8,450.1,71.1L450.1,71.1z"/>
	</g>
	<g>
		<path class="st0" d="M452.5,67.9c0.5,2.4,1.3,4.9,2.1,7.3c0.1,0.2,0.2,0.3,0.4,0.2c0.1,0,0.3-0.1,0.4-0.1c0.3-0.1,0.2-0.5-0.1-0.5
			c-0.5,0-2.1-6.3-2.4-7C452.8,67.5,452.4,67.6,452.5,67.9L452.5,67.9z"/>
	</g>
	<g>
		<path class="st0" d="M454.5,64.1c0.5,2.3,1,4.7,1.8,7c0.1,0.4,0.7,0.2,0.6-0.2c-0.4-2.3-1.2-4.7-1.9-7
			C454.9,63.7,454.5,63.8,454.5,64.1L454.5,64.1z"/>
	</g>
	<g>
		<path class="st0" d="M455.7,60.6c0.5,2.1,1.2,4.4,2.1,6.4c0.1,0.3,0.6,0.1,0.5-0.2c-0.7-2.1-1.5-4.2-2.3-6.2
			C456,60.3,455.7,60.4,455.7,60.6L455.7,60.6z"/>
	</g>
	<g>
		<path class="st0" d="M456.4,57.1c0.9,2,1.7,4.2,2.8,6.1c0.2,0.3,0.7,0.1,0.5-0.2c-0.7-2.1-1.9-4.2-3-6.1
			C456.7,56.6,456.3,56.8,456.4,57.1L456.4,57.1z"/>
	</g>
	<g>
		<path class="st0" d="M457.3,53.1c0.8,2.5,1.8,4.9,3,7.1c0.2,0.4,0.8,0,0.6-0.3c-1.2-2.3-2.2-4.6-3.2-6.9
			C457.6,52.7,457.2,52.9,457.3,53.1L457.3,53.1z"/>
	</g>
	<g>
		<path class="st0" d="M457.3,48.9c0.7,1.5,1.4,3,2.2,4.5c0.6,1.2,1.1,2.4,2,3.3c0.3,0.3,0.6-0.1,0.4-0.4c-1.8-2.2-2.8-5.2-4.2-7.6
			C457.6,48.5,457.2,48.7,457.3,48.9L457.3,48.9z"/>
	</g>
	<g>
		<path class="st0" d="M457.5,45.1c1.3,2.3,2.6,4.7,4.1,7c0.2,0.3,0.7,0,0.5-0.3c-1.3-2.3-2.8-4.6-4.2-6.9
			C457.7,44.6,457.4,44.8,457.5,45.1L457.5,45.1z"/>
	</g>
	<g>
		<path class="st0" d="M455.8,40.1c1.8,2.4,3.4,4.9,5,7.5c0.2,0.3,0.7,0,0.5-0.3c-1.2-2.7-3.2-5.3-5.2-7.5
			C456,39.7,455.7,40,455.8,40.1L455.8,40.1z"/>
	</g>
	<g>
		<path class="st0" d="M455.5,36.7c0.3,1.3,1.4,2.4,2.2,3.4c1,1.3,1.9,2.6,3,3.9c0.2,0.3,0.7-0.1,0.5-0.4c-0.8-1.1-1.6-2.1-2.5-3.2
			c-0.9-1.2-2.3-2.4-2.8-3.8C455.8,36.3,455.5,36.4,455.5,36.7L455.5,36.7z"/>
	</g>
	<g>
		<path class="st0" d="M453.8,34.3c2.2,1.6,4,3.4,5.8,5.4c0.2,0.3,0.7-0.1,0.5-0.4c-1.6-2.1-3.8-4-6.1-5.4
			C453.8,33.9,453.7,34.2,453.8,34.3L453.8,34.3z"/>
	</g>
	<g>
		<path class="st0" d="M447.9,64.9c1.7-3,2.9-6.1,3.5-9.4c0-0.2-0.3-0.4-0.4-0.1c-0.7,3.3-1.7,6.4-3.3,9.4
			C447.7,64.9,447.9,65,447.9,64.9L447.9,64.9z"/>
	</g>
	<g>
		<path class="st0" d="M443,30.1c1.7,1,3.3,1.6,4.8,3.1c1.5,1.5,2.4,3.3,2.9,5.4c0.1,0.3,0.5,0.2,0.5-0.1c-0.7-3.6-4.1-8.2-8.1-8.5
			C443,29.9,442.9,30.1,443,30.1L443,30.1z"/>
	</g>
	<g>
		<path class="st0" d="M452,43.6c0.3,2.1,0.1,4.2-0.6,6.1c0.1,0,0.3,0,0.4,0.1c-0.2-1.5-0.4-3-0.6-4.5c0-0.2-0.4-0.2-0.3,0
			c0.2,1.5,0.4,3,0.5,4.5c0,0.2,0.3,0.3,0.4,0.1C452.4,47.8,452.5,45.7,452,43.6C452.1,43.5,452,43.5,452,43.6L452,43.6z"/>
	</g>
	<g>
		<path class="st0" d="M430.6,65.8c1.9-0.2,3.5,0.2,5.2,0.9c0.6,0.3,1.5,0.7,2.1,0.2c0.4-0.3,0.5-0.8,0.4-1.2
			c-0.4-1.3-3-1.3-2.9-2.9c0-0.2-0.3-0.3-0.4,0c-0.1,0.6,0.1,1,0.5,1.4c0.3,0.3,0.7,0.4,1,0.6c0.3,0.1,0.6,0.3,0.9,0.6
			c0.1,1-0.1,1.4-0.7,1.1c-0.5,0-1-0.4-1.5-0.6c-0.6-0.2-1.2-0.4-1.8-0.5c-1-0.2-2-0.1-3,0C430.4,65.5,430.5,65.8,430.6,65.8
			L430.6,65.8z"/>
	</g>
	<g>
		<path class="st0" d="M304.4,130.8c2.9-1.6,5.5-3.7,7.8-6c0.2-0.2-0.1-0.5-0.3-0.3c-2.4,2.3-5,4.2-7.7,6.1
			C304.1,130.7,304.2,130.9,304.4,130.8L304.4,130.8z"/>
	</g>
	<g>
		<path class="st0" d="M327.9,112.6c2.9-1.9,5.7-3.8,8.9-5.1c1.8-0.7,4.9-0.7,6.2-2.3c0.4-0.5,0.5-1.1,0.7-1.6
			c0.3-1,0.6-1.7,1.4-2.4c1.3-1.3,2.8-2.3,4.2-3.4c2.9-2.3,5.9-4.6,8.8-6.9c0.2-0.1-0.1-0.4-0.2-0.2c-2.9,2.3-5.8,4.6-8.7,7
			c-2,1.6-4.5,3-5.5,5.4c-0.6,1.3-0.5,2.1-1.9,2.8c-0.6,0.3-1.2,0.4-1.8,0.5c-1.3,0.3-2.5,0.7-3.7,1.2c-3,1.3-5.6,3.2-8.2,5.1
			C327.7,112.6,327.8,112.7,327.9,112.6L327.9,112.6z"/>
	</g>
	<g>
		<path class="st0" d="M373.6,79.8c3.6-2.6,7.1-5.3,10.7-8c1.7-1.3,3.4-2.6,5.1-3.8c1.8-1.2,3.6-1.6,5.6-2.4c3-1.2,4.7-4.1,6.9-6.2
			c3-2.9,6.4-5.3,10.1-7.2c0.3-0.2,0-0.6-0.3-0.5c-3.3,1.7-6.3,3.7-9.1,6.2c-3.1,2.8-5.2,6.5-9.3,7.8c-3.6,1.2-6.6,3.8-9.6,6.1
			c-3.5,2.6-6.9,5.2-10.3,8C373.5,79.7,373.5,79.8,373.6,79.8L373.6,79.8z"/>
	</g>
	<g>
		<path class="st0" d="M422.4,43.9c3.6-2.5,7.2-5,10.9-7.3c0.2-0.1,0-0.5-0.2-0.4c-3.7,2.3-7.4,4.8-10.9,7.4
			C422.1,43.8,422.2,44,422.4,43.9L422.4,43.9z"/>
	</g>
	<g>
		<path class="st0" d="M301.9,125.9c-0.3,1.3-0.4,2.6-0.2,3.9c0,0.2,0.4,0.2,0.4,0c-0.1-1.3-0.1-2.5,0.1-3.8
			C302.3,125.7,302,125.7,301.9,125.9L301.9,125.9z"/>
	</g>
	<g>
		<path class="st0" d="M304,123.1c-0.3,1.4-0.3,2.8-0.2,4.2c0,0.3,0.5,0.3,0.5,0c-0.1-1.4-0.1-2.7,0.1-4.1
			C304.4,123,304,122.8,304,123.1L304,123.1z"/>
	</g>
	<g>
		<path class="st0" d="M306.6,121.2c-0.4,1.4-0.7,2.9-0.8,4.4c0,0.3,0.5,0.3,0.5,0c0.2-1.4,0.4-2.8,0.7-4.2
			C307,121.1,306.6,121,306.6,121.2L306.6,121.2z"/>
	</g>
	<g>
		<path class="st0" d="M309.1,119c-0.4,1.1-0.6,2.5-0.6,3.7c0,0.3,0.5,0.3,0.5,0c0.1-1.2,0.3-2.4,0.5-3.6
			C309.5,118.9,309.2,118.8,309.1,119L309.1,119z"/>
	</g>
	<g>
		<path class="st0" d="M311.7,116.7c-0.3,1.2-0.4,2.3-0.4,3.5c0,0.3,0.4,0.3,0.4,0c0-1.2,0.1-2.3,0.4-3.4
			C312.1,116.6,311.7,116.5,311.7,116.7L311.7,116.7z"/>
	</g>
	<g>
		<path class="st0" d="M314.1,115.4c-0.4,1.1-0.7,2.3-0.6,3.4c0,0.3,0.5,0.3,0.5,0c0.1-1.1,0.3-2.2,0.6-3.3
			C314.6,115.2,314.2,115.1,314.1,115.4L314.1,115.4z"/>
	</g>
	<g>
		<path class="st0" d="M317.2,113c-0.4,1-0.6,2.2-0.7,3.2c0,0.3,0.5,0.4,0.5,0.1c0.3-1,0.5-2.2,0.5-3.3
			C317.6,112.9,317.3,112.9,317.2,113L317.2,113z"/>
	</g>
	<g>
		<path class="st0" d="M320.9,110.3c-0.7,1.1-1,2.4-1,3.7c0,0.4,0.5,0.3,0.5,0c0.1-1.3,0.3-2.3,0.8-3.5
			C321.4,110.2,321.1,110,320.9,110.3L320.9,110.3z"/>
	</g>
	<g>
		<path class="st0" d="M324.1,108.7c0.1-0.1,0.1-0.2,0.2-0.4c0.2-0.3-0.3-0.5-0.4-0.3c-0.6,1.1-1.1,2.5-1.2,3.8
			c0,0.3,0.5,0.4,0.6,0.1c0.3-1.3,0.6-2.4,1.1-3.7c-0.2,0-0.3,0-0.5-0.1c0,0.1,0,0.3-0.1,0.4C323.7,108.8,324,108.9,324.1,108.7
			L324.1,108.7z"/>
	</g>
	<g>
		<path class="st0" d="M327.1,106.5c-0.5,1.1-1,2.3-1.3,3.4c-0.1,0.4,0.5,0.5,0.6,0.2c0.4-1.1,0.9-2.2,1.2-3.4
			C327.6,106.4,327.2,106.2,327.1,106.5L327.1,106.5z"/>
	</g>
	<g>
		<path class="st0" d="M329.8,104c-0.7,1-1.2,2.2-1.4,3.3c-0.1,0.4,0.5,0.5,0.6,0.2c0.3-1.2,0.7-2.2,1.3-3.3
			C330.4,104,330,103.8,329.8,104L329.8,104z"/>
	</g>
	<g>
		<path class="st0" d="M332.9,101c-0.8,1.6-1.2,3.3-1.2,5.1c0,0.4,0.6,0.4,0.6,0c0.1-1.7,0.4-3.3,1.1-4.9
			C333.5,101,333.1,100.8,332.9,101L332.9,101z"/>
	</g>
	<g>
		<path class="st0" d="M336.5,99.1c-0.5,1.4-1,3-1.2,4.5c-0.1,0.4,0.5,0.6,0.6,0.2c0.4-1.5,0.7-3.1,1.1-4.6
			C337,98.9,336.6,98.8,336.5,99.1L336.5,99.1z"/>
	</g>
	<g>
		<path class="st0" d="M339.9,96.4c-0.5,1.1-0.8,2.3-0.7,3.5c0,0.4,0.6,0.4,0.6,0c0-1.2,0.2-2.3,0.6-3.3
			C340.5,96.3,340.1,96.1,339.9,96.4L339.9,96.4z"/>
	</g>
	<g>
		<path class="st0" d="M343.7,93.1c-0.6,1.1-1,2.3-1.2,3.6c-0.1,0.4,0.5,0.5,0.5,0.1c0.1-1.2,0.5-2.4,1.1-3.5
			C344.2,93.1,343.8,92.9,343.7,93.1L343.7,93.1z"/>
	</g>
	<g>
		<path class="st0" d="M345.6,91.5c-0.7,1.2-0.8,2.6-0.6,3.9c0.1,0.4,0.6,0.2,0.6-0.2c-0.2-1.2,0-2.4,0.4-3.6
			C346.1,91.4,345.7,91.2,345.6,91.5L345.6,91.5z"/>
	</g>
	<g>
		<path class="st0" d="M348.3,90.1c-0.6,1-0.8,2.3-0.8,3.4c0,0.4,0.6,0.4,0.6,0c0-1.1,0.3-2.2,0.6-3.3
			C348.8,90,348.5,89.9,348.3,90.1L348.3,90.1z"/>
	</g>
	<g>
		<path class="st0" d="M350.5,88.3c-0.4,0.8-0.5,1.7-0.4,2.6c0,0.4,0.6,0.4,0.6,0c0-0.8,0.1-1.6,0.3-2.4
			C351,88.2,350.6,88,350.5,88.3L350.5,88.3z"/>
	</g>
	<g>
		<path class="st0" d="M353.4,86.3c-0.4,1-0.7,2.1-0.9,3.2c-0.1,0.5,0.6,0.7,0.7,0.2c0.2-1.1,0.5-2.1,0.7-3.1
			C354,86.3,353.5,86,353.4,86.3L353.4,86.3z"/>
	</g>
	<g>
		<path class="st0" d="M356.7,83.8c-0.4,1.3-0.6,2.7-0.5,4.1c0,0.3,0.5,0.3,0.5,0c0-1.3,0.1-2.6,0.4-4
			C357.2,83.7,356.8,83.6,356.7,83.8L356.7,83.8z"/>
	</g>
	<g>
		<path class="st0" d="M359.6,81.1c-0.6,1.4-0.9,2.8-1,4.3c0,0.4,0.6,0.4,0.6,0c0.1-1.4,0.4-2.8,0.9-4.1
			C360.1,81.1,359.7,80.9,359.6,81.1L359.6,81.1z"/>
	</g>
	<g>
		<path class="st0" d="M362.3,79c-0.5,1.5-0.9,3.1-0.9,4.6c0,0.3,0.5,0.4,0.5,0.1c0.3-1.5,0.5-3.1,0.9-4.6
			C362.8,78.9,362.4,78.7,362.3,79L362.3,79z"/>
	</g>
	<g>
		<path class="st0" d="M364.1,77.9c-0.3,1.1-0.6,2.4-0.4,3.5c0,0.3,0.5,0.4,0.5,0.1c0.2-1.2,0.2-2.3,0.4-3.5
			C364.7,77.7,364.2,77.6,364.1,77.9L364.1,77.9z"/>
	</g>
	<g>
		<path class="st0" d="M367.4,76.3C367.4,76.3,367.4,76.3,367.4,76.3c-0.1,0-0.1,0.1-0.1,0.2c0,0,0,0,0.1,0c-0.1,0-0.2-0.1-0.3-0.1
			c0,0-0.2,0.7-0.2,0.9c-0.1,0.4-0.1,0.7-0.2,1.1c-0.1,0.7-0.3,1.4-0.3,2.1c0,0.3,0.5,0.4,0.6,0.1c0.2-0.9,0.3-1.9,0.4-2.8
			c0.1-0.4,0.3-1.2,0.1-1.6c-0.1-0.1-0.2-0.1-0.3-0.1c0,0,0,0-0.1,0c-0.1,0.1-0.1,0.2-0.1,0.3c0,0,0,0,0,0
			C367.1,76.8,367.5,76.6,367.4,76.3L367.4,76.3z"/>
	</g>
	<g>
		<path class="st0" d="M370.1,74.5c-0.5,0.9-0.7,2.2-0.7,3.2c0,0.4,0.6,0.4,0.6,0c0-1.1,0.3-2,0.5-3
			C370.6,74.5,370.2,74.3,370.1,74.5L370.1,74.5z"/>
	</g>
	<g>
		<path class="st0" d="M372.3,71.9c-0.3,0.9-0.4,1.8-0.4,2.7c0,0.4,0.6,0.4,0.6,0c0-0.9,0.1-1.7,0.3-2.6
			C372.9,71.7,372.4,71.6,372.3,71.9L372.3,71.9z"/>
	</g>
	<g>
		<path class="st0" d="M375.4,69.7c-0.3,1.1-0.4,2.3-0.5,3.5c0,0.3,0.5,0.4,0.6,0.1c0.3-1.1,0.5-2.3,0.5-3.5
			C376,69.4,375.4,69.4,375.4,69.7L375.4,69.7z"/>
	</g>
	<g>
		<path class="st0" d="M378.5,67.5c-0.4,0.9-0.5,2.2-0.3,3.2c0.1,0.4,0.6,0.3,0.6-0.1c0-0.5,0-1,0-1.5c0-0.5,0.2-1,0.2-1.5
			C379.1,67.4,378.6,67.3,378.5,67.5L378.5,67.5z"/>
	</g>
	<g>
		<path class="st0" d="M381.9,65.7c-0.4,0.9-0.6,2-0.7,3c0,0.3,0.5,0.4,0.6,0.1c0.2-1,0.3-1.9,0.5-2.8
			C382.4,65.6,382,65.4,381.9,65.7L381.9,65.7z"/>
	</g>
	<g>
		<path class="st0" d="M385.3,62.6c-0.2,1.1-0.3,2.4-0.2,3.5c0,0.4,0.6,0.4,0.6,0c0-1.2,0.1-2.3,0.2-3.5
			C385.9,62.4,385.3,62.3,385.3,62.6L385.3,62.6z"/>
	</g>
	<g>
		<path class="st0" d="M389.4,59.9C389.5,59.9,389.5,59.9,389.4,59.9c0.2,0,0.3,0,0.3-0.1c0-0.1,0-0.2,0-0.3c0-0.1-0.2-0.1-0.3-0.1
			c-0.5,0.2-0.5,1-0.6,1.5c-0.2,0.9-0.3,1.7-0.3,2.6c0,0.4,0.6,0.4,0.6,0c0-0.6,0.1-1.3,0.1-1.9c0-0.4,0.1-1.5,0.4-1.8
			c-0.1,0-0.2,0-0.3,0C389.4,59.7,389.4,59.8,389.4,59.9c0-0.2,0-0.3-0.1-0.3c0,0,0,0.1,0,0.1c0.1-0.1,0.1-0.1,0.2-0.2
			c0,0,0,0-0.1,0C389.3,59.4,389.2,59.8,389.4,59.9L389.4,59.9z"/>
	</g>
	<g>
		<path class="st0" d="M392.4,56.2c-0.5,1.4-0.7,3-0.3,4.5c0.1,0.3,0.7,0.3,0.6-0.1c-0.2-1.5-0.2-2.8,0.2-4.2
			C393.1,55.9,392.5,55.8,392.4,56.2L392.4,56.2z"/>
	</g>
	<g>
		<path class="st0" d="M395.2,54.6c-0.4,1.3-0.6,2.7-0.5,4.1c0,0.4,0.6,0.4,0.6,0c0-1.3,0.1-2.6,0.5-3.9
			C395.9,54.4,395.3,54.2,395.2,54.6L395.2,54.6z"/>
	</g>
	<g>
		<path class="st0" d="M398.4,52.2c-0.4,1.5-0.6,3-0.5,4.5c0,0.5,0.7,0.5,0.7,0c0-1.5,0.2-2.9,0.5-4.3
			C399.3,52,398.6,51.8,398.4,52.2L398.4,52.2z"/>
	</g>
	<g>
		<path class="st0" d="M402.5,49.7c-0.4,1.4-0.7,3-0.6,4.5c0,0.4,0.6,0.4,0.6,0c0.1-1.5,0.3-2.9,0.6-4.3
			C403.2,49.5,402.6,49.3,402.5,49.7L402.5,49.7z"/>
	</g>
	<g>
		<path class="st0" d="M405.5,46.4c-0.4,1.4-0.7,2.8-0.7,4.2c0,0.4,0.6,0.5,0.6,0.1c0.3-1.4,0.4-2.8,0.7-4.1
			C406.3,46.2,405.6,46,405.5,46.4L405.5,46.4z"/>
	</g>
	<g>
		<path class="st0" d="M409.7,43.1c-0.5,1.6-0.8,3.2-0.5,4.9c0.1,0.4,0.7,0.3,0.6-0.1c-0.1-1.6,0.1-3.1,0.6-4.6
			C410.5,42.8,409.8,42.6,409.7,43.1L409.7,43.1z"/>
	</g>
	<g>
		<path class="st0" d="M413.6,41.3c-0.2,0.8-0.3,1.6-0.5,2.3c-0.1,0.4,0.5,0.6,0.6,0.2c0.2-0.8,0.3-1.6,0.4-2.3
			C414.2,41.1,413.7,40.9,413.6,41.3L413.6,41.3z"/>
	</g>
	<g>
		<path class="st0" d="M416.9,38.4c-0.4,1.3-0.7,2.6-0.9,3.9c0,0.4,0.6,0.4,0.6,0.1c0.2-1.3,0.5-2.6,0.9-3.8
			C417.7,38.2,417,38,416.9,38.4L416.9,38.4z"/>
	</g>
	<g>
		<path class="st0" d="M421.5,36c-0.5,0.8-0.6,1.8-0.4,2.7c0.1,0.4,0.6,0.3,0.6-0.1c-0.1-0.9,0-1.6,0.2-2.4
			C421.9,36,421.6,35.9,421.5,36L421.5,36z"/>
	</g>
	<g>
		<path class="st0" d="M426.2,32.3c-0.7,0.9-1,2-1.1,3.2c0,0.4,0.6,0.4,0.6,0c0-1,0.3-2,0.9-2.9C426.9,32.2,426.4,32,426.2,32.3
			L426.2,32.3z"/>
	</g>
	<g>
		<path class="st0" d="M429.2,30.5c-0.3,1-0.4,2.1-0.6,3.2c0,0.3,0.5,0.4,0.6,0.1c0.2-1,0.4-2.1,0.5-3.2
			C429.7,30.3,429.3,30.2,429.2,30.5L429.2,30.5z"/>
	</g>
	<g>
		<path class="st0" d="M433.8,28c-0.4,0.8-0.7,1.7-0.7,2.7c0,0.3,0.5,0.3,0.5,0c0.1-0.9,0.2-1.6,0.6-2.4C434.3,28,434,27.8,433.8,28
			L433.8,28z"/>
	</g>
	<g>
		<path class="st0" d="M436.9,26.8c-0.1,0.3-0.2,0.7-0.2,1c-0.1,0.3,0.4,0.5,0.5,0.1c0.1-0.3,0.2-0.7,0.3-1
			C437.5,26.6,437,26.4,436.9,26.8L436.9,26.8z"/>
	</g>
	<g>
		<path class="st0" d="M332,121.8c0.3,1.2,0.3,2.5-0.1,3.7c0,0.1,0.1,0.1,0.1,0C332.4,124.3,332.5,123.1,332,121.8
			C332.1,121.8,332,121.8,332,121.8L332,121.8z"/>
	</g>
	<g>
		<path class="st0" d="M326,116.9c0.9,0.3,1.8,0.6,2.6,1c0.1,0.1,0.3-0.1,0.1-0.2c-0.9-0.4-1.8-0.7-2.7-1
			C325.9,116.8,325.9,116.9,326,116.9L326,116.9z"/>
	</g>
	<g>
		<path class="st0" d="M317.3,125.6c-0.3,3.1,1.9,7.1,5.4,6.5c0.2,0,0.1-0.4-0.1-0.4c-3.4,0.6-5-3.3-5.1-6.1
			C317.5,125.4,317.3,125.4,317.3,125.6L317.3,125.6z"/>
	</g>
	<g>
		<path class="st0" d="M365.1,88.8c0.6-2,1.9-3.6,3.8-4.5c0.2-0.1,0.1-0.5-0.2-0.4c-2,0.8-3.6,2.6-3.9,4.8
			C364.8,88.9,365.1,88.9,365.1,88.8L365.1,88.8z"/>
	</g>
	<g>
		<path class="st0" d="M376,85.8c1.6,1.7,2.9,3.8,2.1,6.2c-0.1,0.2,0.2,0.3,0.3,0.1C379.2,89.6,377.9,87.3,376,85.8
			C376,85.6,375.9,85.7,376,85.8L376,85.8z"/>
	</g>
	<g>
		<path class="st0" d="M357.7,109.7c1.3-1.1,2.6-2.2,4.1-2.9c1.1-0.6,2.6-0.7,3.6-1.4c0.9-0.6,1.5-1.7,2.3-2.5
			c1.2-1.2,2.5-2.2,3.9-3c0.2-0.1,0-0.3-0.1-0.3c-1.1,0.6-2.2,1.3-3.1,2.1c-1.3,1.2-2.4,3.2-4.1,3.8c-1.2,0.4-2.3,0.7-3.4,1.4
			c-1.2,0.7-2.2,1.7-3.2,2.6C357.5,109.7,357.7,109.8,357.7,109.7L357.7,109.7z"/>
	</g>
	<g>
		<path class="st0" d="M400.1,78c3-2,5.8-4.2,8.4-6.6c0.1-0.1,0-0.2-0.1-0.1C405.8,73.7,403,75.9,400.1,78C400,77.9,400,78,400.1,78
			L400.1,78z"/>
	</g>
	<g>
		<path class="st0" d="M428,49.9c0.5,1.4,1.2,2.8,1.2,4.3c0,1.9-1.1,3.2-2.4,4.4c-0.2,0.1,0.1,0.3,0.2,0.2c3.1-2.6,2.9-5.6,1.1-9
			C428.1,49.7,427.9,49.8,428,49.9L428,49.9z"/>
	</g>
	<g>
		<path class="st0" d="M438.2,47.1c0.6,0.5,1.3,1.2,2.1,1.5c0.4,0.1,0.7,0.1,1-0.2c0.3-0.4,0.2-0.9,0.1-1.4c-0.3-1.2-0.2-2.4,1-3.1
			c0.1-0.1,0-0.3-0.1-0.2c-0.8,0.5-1.4,1.3-1.4,2.2c0,0.6,0.9,2.5-0.5,2.3c-0.2,0-0.6-0.4-0.8-0.6c-0.4-0.3-0.8-0.5-1.2-0.8
			C438.2,46.9,438.1,47,438.2,47.1L438.2,47.1z"/>
	</g>
	<g>
		<path class="st0" d="M248.1,220.9c9.4-6.2,18.7-12.7,27.9-19.1c0.2-0.1,0-0.4-0.2-0.3c-9.3,6.3-18.7,12.7-27.9,19.2
			C247.9,220.8,248,221,248.1,220.9L248.1,220.9z"/>
	</g>
</g>
</svg>
